<?xml version="1.0" encoding="UTF-8" standalone="no"?>
<!DOCTYPE svg PUBLIC "-//W3C//DTD SVG 1.1//EN"
 "http://www.w3.org/Graphics/SVG/1.1/DTD/svg11.dtd">
<!-- Generated by graphviz version 9.0.0 (20230911.1827)
 -->
<!-- Title: Flatted\ref Pages: 1 -->
<svg width="174pt" height="66pt"
 viewBox="0.00 0.00 173.50 66.00" xmlns="http://www.w3.org/2000/svg" xmlns:xlink="http://www.w3.org/1999/xlink">
<g id="graph0" class="graph" transform="scale(1 1) rotate(0) translate(4 62)">
<title>Flatted\ref</title>
<!-- Node1 -->
<g id="Node000001" class="node">
<title>Node1</title>
<g id="a_Node000001"><a xlink:title=" ">
<polygon fill="#999999" stroke="#666666" points="59.5,-20 0,-20 0,0 59.5,0 59.5,-20"/>
<text text-anchor="middle" x="29.75" y="-6.5" font-family="Helvetica,sans-Serif" font-size="10.00">Flatted\ref</text>
</a>
</g>
</g>
<!-- Node2 -->
<g id="Node000002" class="node">
<title>Node2</title>
<g id="a_Node000002"><a xlink:href="class_flatted.html#a66ec2202ad9de929cc4802996fd2e3ea" target="_top" xlink:title=" ">
<polygon fill="white" stroke="#666666" points="165.5,-58 95.5,-58 95.5,-38 165.5,-38 165.5,-58"/>
<text text-anchor="middle" x="130.5" y="-44.5" font-family="Helvetica,sans-Serif" font-size="10.00">Flatted\keys</text>
</a>
</g>
</g>
<!-- Node1&#45;&gt;Node2 -->
<g id="edge1_Node000001_Node000002" class="edge">
<title>Node1&#45;&gt;Node2</title>
<g id="a_edge1_Node000001_Node000002"><a xlink:title=" ">
<path fill="none" stroke="#63b8ff" d="M58,-20.48C68.46,-24.51 80.61,-29.19 91.88,-33.52"/>
<polygon fill="#63b8ff" stroke="#63b8ff" points="90.34,-36.68 100.93,-37.01 92.86,-30.15 90.34,-36.68"/>
</a>
</g>
</g>
<!-- Node3 -->
<g id="Node000003" class="node">
<title>Node3</title>
<g id="a_Node000003"><a xlink:href="class_flatted.html#a71d799a680c7adf89e9559e045138b9e" target="_top" xlink:title=" ">
<polygon fill="white" stroke="#666666" points="164,-20 97,-20 97,0 164,0 164,-20"/>
<text text-anchor="middle" x="130.5" y="-6.5" font-family="Helvetica,sans-Serif" font-size="10.00">Flatted\loop</text>
</a>
</g>
</g>
<!-- Node1&#45;&gt;Node3 -->
<g id="edge2_Node000001_Node000003" class="edge">
<title>Node1&#45;&gt;Node3</title>
<g id="a_edge2_Node000001_Node000003"><a xlink:title=" ">
<path fill="none" stroke="#63b8ff" d="M59.84,-3.78C67.91,-3.33 76.86,-3.17 85.57,-3.29"/>
<polygon fill="#63b8ff" stroke="#63b8ff" points="85.2,-6.78 95.29,-3.56 85.4,0.22 85.2,-6.78"/>
</a>
</g>
</g>
<!-- Node3&#45;&gt;Node1 -->
<g id="edge3_Node000003_Node000001" class="edge">
<title>Node3&#45;&gt;Node1</title>
<g id="a_edge3_Node000003_Node000001"><a xlink:title=" ">
<path fill="none" stroke="#63b8ff" d="M96.81,-16.4C88.6,-16.76 79.69,-16.84 71.15,-16.65"/>
<polygon fill="#63b8ff" stroke="#63b8ff" points="71.48,-13.16 61.36,-16.27 71.22,-20.15 71.48,-13.16"/>
</a>
</g>
</g>
</g>
</svg>
