<?xml version="1.0" encoding="UTF-8" standalone="no"?>
<!DOCTYPE svg PUBLIC "-//W3C//DTD SVG 1.1//EN"
 "http://www.w3.org/Graphics/SVG/1.1/DTD/svg11.dtd">
<!-- Generated by graphviz version 9.0.0 (20230911.1827)
 -->
<!-- Title: AinslieAPI.Services.LogService.LogException Pages: 1 -->
<!--zoomable 695 -->

<svg id="main" version="1.1" xmlns="http://www.w3.org/2000/svg" xmlns:xlink="http://www.w3.org/1999/xlink" xml:space="preserve" onload="init(evt)">
<style type="text/css"><![CDATA[
.node, .edge {opacity: 0.7;}
.node.selected, .edge.selected {opacity: 1;}
.edge:hover path { stroke: red; }
.edge:hover polygon { stroke: red; fill: red; }
]]></style>

<defs>
  <circle id="rim" cx="0" cy="0" r="7"/>
  <circle id="rim2" cx="0" cy="0" r="3.5"/>
  <g id="zoomPlus">
    <use xlink:href="#rim" fill="#404040"><set attributeName="fill" to="#808080" begin="zoomplus.mouseover" end="zoomplus.mouseout"/></use>
    <path d="M-4,0h8M0,-4v8" fill="none" stroke="white" stroke-width="1.5" pointer-events="none"/>
  </g>
  <g id="zoomMin">
    <use xlink:href="#rim" fill="#404040"><set attributeName="fill" to="#808080" begin="zoomminus.mouseover" end="zoomminus.mouseout"/></use>
    <path d="M-4,0h8" fill="none" stroke="white" stroke-width="1.5" pointer-events="none"/>
  </g>
  <g id="arrowUp" transform="translate(30 24)">
    <use xlink:href="#rim"/>
    <path pointer-events="none" fill="none" stroke="white" stroke-width="1.5" d="M0,-3.0v7 M-2.5,-0.5L0,-3.0L2.5,-0.5"/>
  </g>
  <g id="arrowRight" transform="rotate(90) translate(36 -43)">
    <use xlink:href="#rim"/>
    <path pointer-events="none" fill="none" stroke="white" stroke-width="1.5" d="M0,-3.0v7 M-2.5,-0.5L0,-3.0L2.5,-0.5"/>
  </g>
  <g id="arrowDown" transform="rotate(180) translate(-30 -48)">
    <use xlink:href="#rim"/>
    <path pointer-events="none" fill="none" stroke="white" stroke-width="1.5" d="M0,-3.0v7 M-2.5,-0.5L0,-3.0L2.5,-0.5"/>
  </g>
  <g id="arrowLeft" transform="rotate(270) translate(-36 17)">
    <use xlink:href="#rim"/>
    <path pointer-events="none" fill="none" stroke="white" stroke-width="1.5" d="M0,-3.0v7 M-2.5,-0.5L0,-3.0L2.5,-0.5"/>
  </g>
  <g id="resetDef">
    <use xlink:href="#rim2" fill="#404040"><set attributeName="fill" to="#808080" begin="reset.mouseover" end="reset.mouseout"/></use>
  </g>
</defs>
<script type="application/ecmascript">
var viewWidth = 981;
var viewHeight = 695;
var sectionId = 'dynsection-8';
</script>
<script type="application/ecmascript" xlink:href="svg.min.js"/>
<svg id="graph" class="graph">
<g id="viewport">
<title>AinslieAPI.Services.LogService.LogException</title>
<!-- Node1 -->
<g id="Node000001" class="node">
<title>Node1</title>
<g id="a_Node000001"><a xlink:title=" ">
<polygon fill="#999999" stroke="#666666" points="973.25,-346 819.25,-346 819.25,-314 973.25,-314 973.25,-346"/>
<text text-anchor="start" x="827.25" y="-332.5" font-family="Helvetica,sans-Serif" font-size="10.00">AinslieAPI.Services.LogService.</text>
<text text-anchor="middle" x="896.25" y="-320.5" font-family="Helvetica,sans-Serif" font-size="10.00">LogException</text>
</a>
</g>
</g>
<!-- Node2 -->
<g id="Node000002" class="node">
<title>Node2</title>
<g id="a_Node000002"><a xlink:href="class_ainslie_a_p_i_1_1_controllers_1_1_g_s_s_1_1_tdcr_controller.html#a1ed8b7c2d20c40b06f57b02cd97058f0" target="_top" xlink:title="Constructs an error string based on the provided error code.">
<polygon fill="white" stroke="#666666" points="335.75,-361 188.5,-361 188.5,-329 335.75,-329 335.75,-361"/>
<text text-anchor="start" x="196.5" y="-347.5" font-family="Helvetica,sans-Serif" font-size="10.00">AinslieAPI.Controllers.GSS.</text>
<text text-anchor="middle" x="262.12" y="-335.5" font-family="Helvetica,sans-Serif" font-size="10.00">TdcrController.BuildErrorString</text>
</a>
</g>
</g>
<!-- Node1&#45;&gt;Node2 -->
<g id="edge1_Node000001_Node000002" class="edge">
<title>Node1&#45;&gt;Node2</title>
<g id="a_edge1_Node000001_Node000002"><a xlink:title=" ">
<path fill="none" stroke="#63b8ff" d="M821.79,-311.19C809.02,-308.62 795.81,-306.38 783.25,-305 607.43,-285.62 559.93,-277.12 385.25,-305 356.83,-309.54 326.04,-319.66 302.49,-328.58"/>
<polygon fill="#63b8ff" stroke="#63b8ff" points="820.88,-314.58 831.39,-313.22 822.33,-307.73 820.88,-314.58"/>
</a>
</g>
</g>
<!-- Node3 -->
<g id="Node000003" class="node">
<title>Node3</title>
<g id="a_Node000003"><a xlink:href="class_ainslie_a_p_i_1_1_controllers_1_1_g_s_s_1_1_tdcr_controller.html#a9eba319227d13605723ee5253d17b014" target="_top" xlink:title="Processes incoming order requests, validating and saving them to the database.">
<polygon fill="white" stroke="#666666" points="138.25,-480 0.75,-480 0.75,-448 138.25,-448 138.25,-480"/>
<text text-anchor="start" x="8.75" y="-466.5" font-family="Helvetica,sans-Serif" font-size="10.00">AinslieAPI.Controllers.GSS.</text>
<text text-anchor="middle" x="69.5" y="-454.5" font-family="Helvetica,sans-Serif" font-size="10.00">TdcrController.Orders</text>
</a>
</g>
</g>
<!-- Node1&#45;&gt;Node3 -->
<g id="edge21_Node000001_Node000003" class="edge">
<title>Node1&#45;&gt;Node3</title>
<g id="a_edge21_Node000001_Node000003"><a xlink:title=" ">
<path fill="none" stroke="#63b8ff" d="M877.32,-304.58C857.41,-278.38 822.84,-238.44 783.25,-217 709.54,-177.08 679.46,-200.74 598.5,-179 582.21,-174.63 579.15,-169.7 562.5,-167 484.74,-154.38 460.16,-142.63 385.25,-167 231.29,-217.09 113.5,-393.31 80.08,-447.81"/>
<polygon fill="#63b8ff" stroke="#63b8ff" points="874.3,-306.38 883.06,-312.33 879.92,-302.21 874.3,-306.38"/>
</a>
</g>
</g>
<!-- Node4 -->
<g id="Node000004" class="node">
<title>Node4</title>
<g id="a_Node000004"><a xlink:href="class_ainslie_a_p_i_1_1_services_1_1_internal_api_service.html#a09c4662b56f1cf03cfecb9928e1e884a" target="_top" xlink:title="Retrieves the current asset pricing from Internal API and deserialises the response into a list of As...">
<polygon fill="white" stroke="#666666" points="758.88,-496 622.88,-496 622.88,-464 758.88,-464 758.88,-496"/>
<text text-anchor="start" x="630.88" y="-482.5" font-family="Helvetica,sans-Serif" font-size="10.00">AinslieAPI.Services.Internal</text>
<text text-anchor="middle" x="690.88" y="-470.5" font-family="Helvetica,sans-Serif" font-size="10.00">ApiService.GetAssetPricing</text>
</a>
</g>
</g>
<!-- Node1&#45;&gt;Node4 -->
<g id="edge3_Node000001_Node000004" class="edge">
<title>Node1&#45;&gt;Node4</title>
<g id="a_edge3_Node000001_Node000004"><a xlink:title=" ">
<path fill="none" stroke="#63b8ff" d="M879.16,-355.4C859.81,-383.87 824.71,-429.37 783.25,-455 775.84,-459.58 767.57,-463.34 759.14,-466.42"/>
<polygon fill="#63b8ff" stroke="#63b8ff" points="881.88,-357.63 884.49,-347.36 876.04,-353.76 881.88,-357.63"/>
</a>
</g>
</g>
<!-- Node7 -->
<g id="Node000007" class="node">
<title>Node7</title>
<g id="a_Node000007"><a xlink:href="class_ainslie_a_p_i_1_1_services_1_1_internal_api_service.html#ac96a3e52c78c6b67de6a0f244fd70a60" target="_top" xlink:title="Retrieves Green ID customer data from Internal API based on the specified branch and user ID.">
<polygon fill="white" stroke="#666666" points="769,-396 612.75,-396 612.75,-364 769,-364 769,-396"/>
<text text-anchor="start" x="620.75" y="-382.5" font-family="Helvetica,sans-Serif" font-size="10.00">AinslieAPI.Services.Internal</text>
<text text-anchor="middle" x="690.88" y="-370.5" font-family="Helvetica,sans-Serif" font-size="10.00">ApiService.GetGreenIdCustomer</text>
</a>
</g>
</g>
<!-- Node1&#45;&gt;Node7 -->
<g id="edge6_Node000001_Node000007" class="edge">
<title>Node1&#45;&gt;Node7</title>
<g id="a_edge6_Node000001_Node000007"><a xlink:title=" ">
<path fill="none" stroke="#63b8ff" d="M817.46,-349.12C798.12,-353.88 777.56,-358.93 758.79,-363.55"/>
<polygon fill="#63b8ff" stroke="#63b8ff" points="818.03,-352.59 826.91,-346.8 816.36,-345.79 818.03,-352.59"/>
</a>
</g>
</g>
<!-- Node9 -->
<g id="Node000009" class="node">
<title>Node9</title>
<g id="a_Node000009"><a xlink:href="class_ainslie_a_p_i_1_1_services_1_1_aw_api_service.html#a94685f746f003ef92fe3a7f4ef545efe" target="_top" xlink:title="Fetches GSS pricing data for a specified user from the AW API.">
<polygon fill="white" stroke="#666666" points="756.62,-82 625.12,-82 625.12,-50 756.62,-50 756.62,-82"/>
<text text-anchor="start" x="633.12" y="-68.5" font-family="Helvetica,sans-Serif" font-size="10.00">AinslieAPI.Services.AwApi</text>
<text text-anchor="middle" x="690.88" y="-56.5" font-family="Helvetica,sans-Serif" font-size="10.00">Service.GetGssPricing</text>
</a>
</g>
</g>
<!-- Node1&#45;&gt;Node9 -->
<g id="edge8_Node000001_Node000009" class="edge">
<title>Node1&#45;&gt;Node9</title>
<g id="a_edge8_Node000001_Node000009"><a xlink:title=" ">
<path fill="none" stroke="#63b8ff" d="M889.56,-302.55C878.06,-253.92 847.51,-152.45 783.25,-96 775.6,-89.28 766.4,-84.06 756.84,-80"/>
<polygon fill="#63b8ff" stroke="#63b8ff" points="886.13,-303.26 891.75,-312.24 892.96,-301.71 886.13,-303.26"/>
</a>
</g>
</g>
<!-- Node11 -->
<g id="Node000011" class="node">
<title>Node11</title>
<g id="a_Node000011"><a xlink:href="class_ainslie_a_p_i_1_1_helpers_1_1_cache_data_helper.html#a533a0f6563d2e92e52c819c22c5009a6" target="_top" xlink:title="Retrieves GSS pricing data for a specific user from cache or refreshes if necessary.">
<polygon fill="white" stroke="#666666" points="326,-101 198.25,-101 198.25,-69 326,-69 326,-101"/>
<text text-anchor="start" x="206.25" y="-87.5" font-family="Helvetica,sans-Serif" font-size="10.00">AinslieAPI.Helpers.Cache</text>
<text text-anchor="middle" x="262.12" y="-75.5" font-family="Helvetica,sans-Serif" font-size="10.00">DataHelper.GSSPricing</text>
</a>
</g>
</g>
<!-- Node1&#45;&gt;Node11 -->
<g id="edge15_Node000001_Node000011" class="edge">
<title>Node1&#45;&gt;Node11</title>
<g id="a_edge15_Node000001_Node000011"><a xlink:title=" ">
<path fill="none" stroke="#63b8ff" d="M888.87,-302.76C876.78,-257.91 845.94,-169.48 783.25,-129 764.33,-116.78 460.91,-96.99 326.44,-88.77"/>
<polygon fill="#63b8ff" stroke="#63b8ff" points="885.41,-303.39 891.29,-312.21 892.19,-301.65 885.41,-303.39"/>
</a>
</g>
</g>
<!-- Node13 -->
<g id="Node000013" class="node">
<title>Node13</title>
<g id="a_Node000013"><a xlink:href="class_ainslie_a_p_i_1_1_services_1_1_internal_api_service.html#a0c4c5cccb2233540343e36fe0e8a0acc" target="_top" xlink:title="Fetches the current product pricing from the internal API and deserialises the response into a list o...">
<polygon fill="white" stroke="#666666" points="763,-258 618.75,-258 618.75,-226 763,-226 763,-258"/>
<text text-anchor="start" x="626.75" y="-244.5" font-family="Helvetica,sans-Serif" font-size="10.00">AinslieAPI.Services.Internal</text>
<text text-anchor="middle" x="690.88" y="-232.5" font-family="Helvetica,sans-Serif" font-size="10.00">ApiService.GetProductPricing</text>
</a>
</g>
</g>
<!-- Node1&#45;&gt;Node13 -->
<g id="edge12_Node000001_Node000013" class="edge">
<title>Node1&#45;&gt;Node13</title>
<g id="a_edge12_Node000001_Node000013"><a xlink:title=" ">
<path fill="none" stroke="#63b8ff" d="M856.91,-308.2C835.61,-296.59 808.41,-282.56 783.25,-272 771.55,-267.09 758.74,-262.45 746.52,-258.35"/>
<polygon fill="#63b8ff" stroke="#63b8ff" points="855.08,-311.18 865.53,-312.95 858.46,-305.05 855.08,-311.18"/>
</a>
</g>
</g>
<!-- Node16 -->
<g id="Node000016" class="node">
<title>Node16</title>
<g id="a_Node000016"><a xlink:href="class_ainslie_a_p_i_1_1_controllers_1_1_g_s_s_1_1_tdcr_controller.html#a2afd83d8bf3e0f4695d32ea1f255f4a5" target="_top" xlink:title="Fetches the current live price in AUD for a given asset based on the order request&#39;s market and side.">
<polygon fill="white" stroke="#666666" points="772,-546 609.75,-546 609.75,-514 772,-514 772,-546"/>
<text text-anchor="start" x="617.75" y="-532.5" font-family="Helvetica,sans-Serif" font-size="10.00">AinslieAPI.Controllers.GSS.</text>
<text text-anchor="middle" x="690.88" y="-520.5" font-family="Helvetica,sans-Serif" font-size="10.00">TdcrController.OrderLivePriceAUD</text>
</a>
</g>
</g>
<!-- Node1&#45;&gt;Node16 -->
<g id="edge16_Node000001_Node000016" class="edge">
<title>Node1&#45;&gt;Node16</title>
<g id="a_edge16_Node000001_Node000016"><a xlink:title=" ">
<path fill="none" stroke="#63b8ff" d="M885.38,-356.8C869.75,-395.47 835.61,-466.48 783.25,-505 778.75,-508.31 773.83,-511.19 768.68,-513.68"/>
<polygon fill="#63b8ff" stroke="#63b8ff" points="888.53,-358.36 888.92,-347.77 882.01,-355.81 888.53,-358.36"/>
</a>
</g>
</g>
<!-- Node17 -->
<g id="Node000017" class="node">
<title>Node17</title>
<g id="a_Node000017"><a xlink:href="class_ainslie_a_p_i_1_1_controllers_1_1_g_s_s_1_1_tdcr_controller.html#a5425d57dc6e7f08c36785f3ca41d30ab" target="_top" xlink:title="Determines whether the price specified in an order request falls outside the acceptable threshold as ...">
<polygon fill="white" stroke="#666666" points="562.5,-584 385.25,-584 385.25,-552 562.5,-552 562.5,-584"/>
<text text-anchor="start" x="393.25" y="-570.5" font-family="Helvetica,sans-Serif" font-size="10.00">AinslieAPI.Controllers.GSS.</text>
<text text-anchor="middle" x="473.88" y="-558.5" font-family="Helvetica,sans-Serif" font-size="10.00">TdcrController.PriceOutsideThreshold</text>
</a>
</g>
</g>
<!-- Node1&#45;&gt;Node17 -->
<g id="edge24_Node000001_Node000017" class="edge">
<title>Node1&#45;&gt;Node17</title>
<g id="a_edge24_Node000001_Node000017"><a xlink:title=" ">
<path fill="none" stroke="#63b8ff" d="M890.74,-357.56C881.03,-406.96 853.08,-509.69 783.25,-555 713.24,-600.42 614.27,-595.39 547.5,-584.48"/>
<polygon fill="#63b8ff" stroke="#63b8ff" points="894.14,-358.44 892.51,-347.97 887.25,-357.17 894.14,-358.44"/>
</a>
</g>
</g>
<!-- Node18 -->
<g id="Node000018" class="node">
<title>Node18</title>
<g id="a_Node000018"><a xlink:href="class_ainslie_a_p_i_1_1_controllers_1_1_g_s_s_1_1_tdcr_controller.html#acdce12cbf8d3ceb33fc727648bf58fc8" target="_top" xlink:title="Validates the provided order request against business rules.">
<polygon fill="white" stroke="#666666" points="349.25,-609 175,-609 175,-577 349.25,-577 349.25,-609"/>
<text text-anchor="start" x="183" y="-595.5" font-family="Helvetica,sans-Serif" font-size="10.00">AinslieAPI.Controllers.GSS.</text>
<text text-anchor="middle" x="262.12" y="-583.5" font-family="Helvetica,sans-Serif" font-size="10.00">TdcrController.ValidateOrderRequest</text>
</a>
</g>
</g>
<!-- Node1&#45;&gt;Node18 -->
<g id="edge33_Node000001_Node000018" class="edge">
<title>Node1&#45;&gt;Node18</title>
<g id="a_edge33_Node000001_Node000018"><a xlink:title=" ">
<path fill="none" stroke="#63b8ff" d="M893.96,-357.63C889.54,-417.4 869.96,-558.58 783.25,-624 641.88,-730.66 559.01,-677.19 385.25,-643 352.65,-636.59 317.8,-621.4 293.71,-609.43"/>
<polygon fill="#63b8ff" stroke="#63b8ff" points="897.45,-357.88 894.6,-347.68 890.47,-357.43 897.45,-357.88"/>
</a>
</g>
</g>
<!-- Node19 -->
<g id="Node000019" class="node">
<title>Node19</title>
<g id="a_Node000019"><a xlink:href="class_ainslie_a_p_i_1_1_services_1_1_internal_api_service.html#a7a070bb565246fb698283432930d9cd1" target="_top" xlink:title="Submits customer data to Netsuite via Internal API and retrieves the Netsuite customer ID.">
<polygon fill="white" stroke="#666666" points="772.38,-446 609.38,-446 609.38,-414 772.38,-414 772.38,-446"/>
<text text-anchor="start" x="617.38" y="-432.5" font-family="Helvetica,sans-Serif" font-size="10.00">AinslieAPI.Services.Internal</text>
<text text-anchor="middle" x="690.88" y="-420.5" font-family="Helvetica,sans-Serif" font-size="10.00">ApiService.PostNetsuiteCustomer</text>
</a>
</g>
</g>
<!-- Node1&#45;&gt;Node19 -->
<g id="edge22_Node000001_Node000019" class="edge">
<title>Node1&#45;&gt;Node19</title>
<g id="a_edge22_Node000001_Node000019"><a xlink:title=" ">
<path fill="none" stroke="#63b8ff" d="M866.38,-353.16C844.62,-369.63 813.47,-391.19 783.25,-405 776.22,-408.21 768.69,-411.09 761.08,-413.64"/>
<polygon fill="#63b8ff" stroke="#63b8ff" points="868.4,-356.02 874.18,-347.15 864.12,-350.48 868.4,-356.02"/>
</a>
</g>
</g>
<!-- Node20 -->
<g id="Node000020" class="node">
<title>Node20</title>
<g id="a_Node000020"><a xlink:href="class_ainslie_a_p_i_1_1_services_1_1_internal_api_service.html#af507e96372a12f14e6ae166a5d495ef2" target="_top" xlink:title="Sends an email using the details provided in the EmailPost object via Internal API.">
<polygon fill="white" stroke="#666666" points="758.5,-170 623.25,-170 623.25,-138 758.5,-138 758.5,-170"/>
<text text-anchor="start" x="631.25" y="-156.5" font-family="Helvetica,sans-Serif" font-size="10.00">AinslieAPI.Services.Internal</text>
<text text-anchor="middle" x="690.88" y="-144.5" font-family="Helvetica,sans-Serif" font-size="10.00">ApiService.SendEmail</text>
</a>
</g>
</g>
<!-- Node1&#45;&gt;Node20 -->
<g id="edge25_Node000001_Node000020" class="edge">
<title>Node1&#45;&gt;Node20</title>
<g id="a_edge25_Node000001_Node000020"><a xlink:title=" ">
<path fill="none" stroke="#63b8ff" d="M881.86,-304.13C863.73,-271.57 828.4,-216.02 783.25,-184 775.62,-178.59 766.96,-174.11 758.08,-170.42"/>
<polygon fill="#63b8ff" stroke="#63b8ff" points="878.56,-305.39 886.41,-312.51 884.71,-302.05 878.56,-305.39"/>
</a>
</g>
</g>
<!-- Node21 -->
<g id="Node000021" class="node">
<title>Node21</title>
<g id="a_Node000021"><a xlink:href="class_ainslie_a_p_i_1_1_controllers_1_1_g_s_s_1_1_tdcr_controller.html#a464a5d3df062bef894118260d86989f3" target="_top" xlink:title="Checks if an order with the specified TDCR ID exists in the database.">
<polygon fill="white" stroke="#666666" points="548.62,-634 399.12,-634 399.12,-602 548.62,-602 548.62,-634"/>
<text text-anchor="start" x="407.12" y="-620.5" font-family="Helvetica,sans-Serif" font-size="10.00">AinslieAPI.Controllers.GSS.</text>
<text text-anchor="middle" x="473.88" y="-608.5" font-family="Helvetica,sans-Serif" font-size="10.00">TdcrController.TdcrOrderExists</text>
</a>
</g>
</g>
<!-- Node1&#45;&gt;Node21 -->
<g id="edge26_Node000001_Node000021" class="edge">
<title>Node1&#45;&gt;Node21</title>
<g id="a_edge26_Node000001_Node000021"><a xlink:title=" ">
<path fill="none" stroke="#63b8ff" d="M892.19,-357.83C884.62,-412.02 859.69,-531.27 783.25,-587 715.64,-636.29 616.39,-637.14 548.88,-630.21"/>
<polygon fill="#63b8ff" stroke="#63b8ff" points="895.66,-358.28 893.47,-347.91 888.72,-357.38 895.66,-358.28"/>
</a>
</g>
</g>
<!-- Node22 -->
<g id="Node000022" class="node">
<title>Node22</title>
<g id="a_Node000022"><a xlink:href="class_ainslie_a_p_i_1_1_services_1_1_log_service.html#aea52f6628afd6bcb55105bd0a2f1d8da" target="_top" xlink:title=" ">
<polygon fill="white" stroke="#666666" points="767.88,-32 613.88,-32 613.88,0 767.88,0 767.88,-32"/>
<text text-anchor="start" x="621.88" y="-18.5" font-family="Helvetica,sans-Serif" font-size="10.00">AinslieAPI.Services.LogService.</text>
<text text-anchor="middle" x="690.88" y="-6.5" font-family="Helvetica,sans-Serif" font-size="10.00">TrimLogs</text>
</a>
</g>
</g>
<!-- Node1&#45;&gt;Node22 -->
<g id="edge28_Node000001_Node000022" class="edge">
<title>Node1&#45;&gt;Node22</title>
<g id="a_edge28_Node000001_Node000022"><a xlink:title=" ">
<path fill="none" stroke="#63b8ff" d="M892.69,-302.38C885.86,-244.93 861.97,-112.03 783.25,-41 778.73,-36.92 773.61,-33.5 768.16,-30.63"/>
<polygon fill="#63b8ff" stroke="#63b8ff" points="889.2,-302.68 893.77,-312.24 896.16,-301.92 889.2,-302.68"/>
</a>
</g>
</g>
<!-- Node24 -->
<g id="Node000024" class="node">
<title>Node24</title>
<g id="a_Node000024"><a xlink:href="class_ainslie_a_p_i_1_1_services_1_1_internal_api_service.html#aa8c183f663dbc4061a007aee4e5cf28e" target="_top" xlink:title="Updates the Netsuite ID associated with a specific Green ID record in the database.">
<polygon fill="white" stroke="#666666" points="783.25,-346 598.5,-346 598.5,-314 783.25,-314 783.25,-346"/>
<text text-anchor="start" x="606.5" y="-332.5" font-family="Helvetica,sans-Serif" font-size="10.00">AinslieAPI.Services.Internal</text>
<text text-anchor="middle" x="690.88" y="-320.5" font-family="Helvetica,sans-Serif" font-size="10.00">ApiService.UpdateGreenIdDbNetsuiteId</text>
</a>
</g>
</g>
<!-- Node1&#45;&gt;Node24 -->
<g id="edge30_Node000001_Node000024" class="edge">
<title>Node1&#45;&gt;Node24</title>
<g id="a_edge30_Node000001_Node000024"><a xlink:title=" ">
<path fill="none" stroke="#63b8ff" d="M807.5,-330C799.62,-330 791.62,-330 783.71,-330"/>
<polygon fill="#63b8ff" stroke="#63b8ff" points="807.43,-333.5 817.43,-330 807.43,-326.5 807.43,-333.5"/>
</a>
</g>
</g>
<!-- Node2&#45;&gt;Node3 -->
<g id="edge2_Node000002_Node000003" class="edge">
<title>Node2&#45;&gt;Node3</title>
<g id="a_edge2_Node000002_Node000003"><a xlink:title=" ">
<path fill="none" stroke="#63b8ff" d="M225.53,-367.22C188.19,-390.53 130.37,-426.63 96.9,-447.52"/>
<polygon fill="#63b8ff" stroke="#63b8ff" points="227.11,-370.36 233.74,-362.1 223.4,-364.42 227.11,-370.36"/>
</a>
</g>
</g>
<!-- Node5 -->
<g id="Node000005" class="node">
<title>Node5</title>
<g id="a_Node000005"><a xlink:href="class_ainslie_a_p_i_1_1_controllers_1_1_assets_controller.html#a0c9bb1df19027458fd189101528c48c9" target="_top" xlink:title="Fetches current asset prices.">
<polygon fill="white" stroke="#666666" points="546,-446 401.75,-446 401.75,-414 546,-414 546,-446"/>
<text text-anchor="start" x="409.75" y="-432.5" font-family="Helvetica,sans-Serif" font-size="10.00">AinslieAPI.Controllers.Assets</text>
<text text-anchor="middle" x="473.88" y="-420.5" font-family="Helvetica,sans-Serif" font-size="10.00">Controller.PriceList</text>
</a>
</g>
</g>
<!-- Node4&#45;&gt;Node5 -->
<g id="edge4_Node000004_Node000005" class="edge">
<title>Node4&#45;&gt;Node5</title>
<g id="a_edge4_Node000004_Node000005"><a xlink:title=" ">
<path fill="none" stroke="#63b8ff" d="M611.39,-461.75C589.93,-456.76 566.8,-451.38 545.79,-446.49"/>
<polygon fill="#63b8ff" stroke="#63b8ff" points="610.43,-465.12 620.96,-463.97 612.02,-458.3 610.43,-465.12"/>
</a>
</g>
</g>
<!-- Node6 -->
<g id="Node000006" class="node">
<title>Node6</title>
<g id="a_Node000006"><a xlink:href="class_ainslie_a_p_i_1_1_helpers_1_1_cache_data_helper.html#a4528db84b99bf010dff2409e3339ba91" target="_top" xlink:title="Refreshes the cache of asset prices by fetching new data if the current cache is expired or not prese...">
<polygon fill="white" stroke="#666666" points="558.38,-496 389.38,-496 389.38,-464 558.38,-464 558.38,-496"/>
<text text-anchor="start" x="397.38" y="-482.5" font-family="Helvetica,sans-Serif" font-size="10.00">AinslieAPI.Helpers.Cache</text>
<text text-anchor="middle" x="473.88" y="-470.5" font-family="Helvetica,sans-Serif" font-size="10.00">DataHelper.RefreshPriceappAssets</text>
</a>
</g>
</g>
<!-- Node4&#45;&gt;Node6 -->
<g id="edge5_Node000004_Node000006" class="edge">
<title>Node4&#45;&gt;Node6</title>
<g id="a_edge5_Node000004_Node000006"><a xlink:title=" ">
<path fill="none" stroke="#63b8ff" d="M611.36,-480C594.23,-480 576.05,-480 558.73,-480"/>
<polygon fill="#63b8ff" stroke="#63b8ff" points="610.92,-483.5 620.92,-480 610.92,-476.5 610.92,-483.5"/>
</a>
</g>
</g>
<!-- Node8 -->
<g id="Node000008" class="node">
<title>Node8</title>
<g id="a_Node000008"><a xlink:href="class_ainslie_a_p_i_1_1_controllers_1_1_green_id_controller.html#a131760ed19379a330a44f72879f026e2" target="_top" xlink:title="Initiates a new customer verification process, accommodating both GET and POST requests.">
<polygon fill="white" stroke="#666666" points="543.75,-396 404,-396 404,-364 543.75,-364 543.75,-396"/>
<text text-anchor="start" x="412" y="-382.5" font-family="Helvetica,sans-Serif" font-size="10.00">AinslieAPI.Controllers.Green</text>
<text text-anchor="middle" x="473.88" y="-370.5" font-family="Helvetica,sans-Serif" font-size="10.00">IdController.NewVerification</text>
</a>
</g>
</g>
<!-- Node7&#45;&gt;Node8 -->
<g id="edge7_Node000007_Node000008" class="edge">
<title>Node7&#45;&gt;Node8</title>
<g id="a_edge7_Node000007_Node000008"><a xlink:title=" ">
<path fill="none" stroke="#63b8ff" d="M600.91,-380C581.97,-380 562.25,-380 544.18,-380"/>
<polygon fill="#63b8ff" stroke="#63b8ff" points="600.74,-383.5 610.74,-380 600.74,-376.5 600.74,-383.5"/>
</a>
</g>
</g>
<!-- Node10 -->
<g id="Node000010" class="node">
<title>Node10</title>
<g id="a_Node000010"><a xlink:href="class_ainslie_a_p_i_1_1_helpers_1_1_cache_data_helper.html#a603725b5f3104a2056b255d5ba62b145" target="_top" xlink:title="Refreshes the GSS pricing cache for a specific user, ensuring the data is current.">
<polygon fill="white" stroke="#666666" points="549.38,-82 398.38,-82 398.38,-50 549.38,-50 549.38,-82"/>
<text text-anchor="start" x="406.38" y="-68.5" font-family="Helvetica,sans-Serif" font-size="10.00">AinslieAPI.Helpers.Cache</text>
<text text-anchor="middle" x="473.88" y="-56.5" font-family="Helvetica,sans-Serif" font-size="10.00">DataHelper.RefreshGSSPricing</text>
</a>
</g>
</g>
<!-- Node9&#45;&gt;Node10 -->
<g id="edge9_Node000009_Node000010" class="edge">
<title>Node9&#45;&gt;Node10</title>
<g id="a_edge9_Node000009_Node000010"><a xlink:title=" ">
<path fill="none" stroke="#63b8ff" d="M613.44,-66C592.67,-66 570.21,-66 549.54,-66"/>
<polygon fill="#63b8ff" stroke="#63b8ff" points="613.27,-69.5 623.27,-66 613.27,-62.5 613.27,-69.5"/>
</a>
</g>
</g>
<!-- Node10&#45;&gt;Node11 -->
<g id="edge10_Node000010_Node000011" class="edge">
<title>Node10&#45;&gt;Node11</title>
<g id="a_edge10_Node000010_Node000011"><a xlink:title=" ">
<path fill="none" stroke="#63b8ff" d="M386.64,-73.81C366.51,-75.64 345.42,-77.55 326.49,-79.26"/>
<polygon fill="#63b8ff" stroke="#63b8ff" points="386.89,-77.3 396.53,-72.92 386.26,-70.33 386.89,-77.3"/>
</a>
</g>
</g>
<!-- Node12 -->
<g id="Node000012" class="node">
<title>Node12</title>
<g id="a_Node000012"><a xlink:href="class_ainslie_a_p_i_1_1_controllers_1_1_g_s_s_1_1_tdcr_controller.html#a837b3bc6be2af122cb619aa347094ad7" target="_top" xlink:title="Sets up controller with dependencies for processing TDCR transactions.">
<polygon fill="white" stroke="#666666" points="139,-101 0,-101 0,-69 139,-69 139,-101"/>
<text text-anchor="start" x="8" y="-87.5" font-family="Helvetica,sans-Serif" font-size="10.00">AinslieAPI.Controllers.GSS.</text>
<text text-anchor="middle" x="69.5" y="-75.5" font-family="Helvetica,sans-Serif" font-size="10.00">TdcrController.TdcrController</text>
</a>
</g>
</g>
<!-- Node11&#45;&gt;Node12 -->
<g id="edge11_Node000011_Node000012" class="edge">
<title>Node11&#45;&gt;Node12</title>
<g id="a_edge11_Node000011_Node000012"><a xlink:title=" ">
<path fill="none" stroke="#63b8ff" d="M186.74,-85C171.17,-85 154.81,-85 139.45,-85"/>
<polygon fill="#63b8ff" stroke="#63b8ff" points="186.4,-88.5 196.4,-85 186.4,-81.5 186.4,-88.5"/>
</a>
</g>
</g>
<!-- Node14 -->
<g id="Node000014" class="node">
<title>Node14</title>
<g id="a_Node000014"><a xlink:href="class_ainslie_a_p_i_1_1_controllers_1_1_products_controller.html#ac20bed843f55f212dfb5ffe45d411f8f" target="_top" xlink:title="Retrieves a list of current product prices.">
<polygon fill="white" stroke="#666666" points="550.12,-208 397.62,-208 397.62,-176 550.12,-176 550.12,-208"/>
<text text-anchor="start" x="405.62" y="-194.5" font-family="Helvetica,sans-Serif" font-size="10.00">AinslieAPI.Controllers.Products</text>
<text text-anchor="middle" x="473.88" y="-182.5" font-family="Helvetica,sans-Serif" font-size="10.00">Controller.PriceList</text>
</a>
</g>
</g>
<!-- Node13&#45;&gt;Node14 -->
<g id="edge13_Node000013_Node000014" class="edge">
<title>Node13&#45;&gt;Node14</title>
<g id="a_edge13_Node000013_Node000014"><a xlink:title=" ">
<path fill="none" stroke="#63b8ff" d="M608.21,-223.01C587.6,-218.22 565.64,-213.11 545.61,-208.45"/>
<polygon fill="#63b8ff" stroke="#63b8ff" points="607.17,-226.36 617.7,-225.22 608.76,-219.54 607.17,-226.36"/>
</a>
</g>
</g>
<!-- Node15 -->
<g id="Node000015" class="node">
<title>Node15</title>
<g id="a_Node000015"><a xlink:href="class_ainslie_a_p_i_1_1_helpers_1_1_cache_data_helper.html#a467891c45e271be3b54049e3a66ae7cc" target="_top" xlink:title="Refreshes the product price list cache if necessary, ensuring up&#45;to&#45;date data availability.">
<polygon fill="white" stroke="#666666" points="562.5,-258 385.25,-258 385.25,-226 562.5,-226 562.5,-258"/>
<text text-anchor="start" x="393.25" y="-244.5" font-family="Helvetica,sans-Serif" font-size="10.00">AinslieAPI.Helpers.Cache</text>
<text text-anchor="middle" x="473.88" y="-232.5" font-family="Helvetica,sans-Serif" font-size="10.00">DataHelper.RefreshPriceappProducts</text>
</a>
</g>
</g>
<!-- Node13&#45;&gt;Node15 -->
<g id="edge14_Node000013_Node000015" class="edge">
<title>Node13&#45;&gt;Node15</title>
<g id="a_edge14_Node000013_Node000015"><a xlink:title=" ">
<path fill="none" stroke="#63b8ff" d="M606.9,-242C592.51,-242 577.51,-242 562.99,-242"/>
<polygon fill="#63b8ff" stroke="#63b8ff" points="606.77,-245.5 616.77,-242 606.77,-238.5 606.77,-245.5"/>
</a>
</g>
</g>
<!-- Node16&#45;&gt;Node3 -->
<g id="edge17_Node000016_Node000003" class="edge">
<title>Node16&#45;&gt;Node3</title>
<g id="a_edge17_Node000016_Node000003"><a xlink:title=" ">
<path fill="none" stroke="#63b8ff" d="M597.85,-523.59C537.36,-519.1 456.51,-512.56 385.25,-505 300.04,-495.96 202.22,-482.77 138.54,-473.81"/>
<polygon fill="#63b8ff" stroke="#63b8ff" points="597.54,-527.08 607.77,-524.33 598.06,-520.1 597.54,-527.08"/>
</a>
</g>
</g>
<!-- Node16&#45;&gt;Node17 -->
<g id="edge18_Node000016_Node000017" class="edge">
<title>Node16&#45;&gt;Node17</title>
<g id="a_edge18_Node000016_Node000017"><a xlink:title=" ">
<path fill="none" stroke="#63b8ff" d="M598.3,-546.19C586.5,-548.27 574.45,-550.4 562.71,-552.48"/>
<polygon fill="#63b8ff" stroke="#63b8ff" points="598.78,-549.65 608.02,-544.47 597.56,-542.76 598.78,-549.65"/>
</a>
</g>
</g>
<!-- Node17&#45;&gt;Node18 -->
<g id="edge19_Node000017_Node000018" class="edge">
<title>Node17&#45;&gt;Node18</title>
<g id="a_edge19_Node000017_Node000018"><a xlink:title=" ">
<path fill="none" stroke="#63b8ff" d="M373.56,-579.84C365.55,-580.79 357.5,-581.75 349.6,-582.69"/>
<polygon fill="#63b8ff" stroke="#63b8ff" points="373.82,-583.33 383.33,-578.67 372.99,-576.38 373.82,-583.33"/>
</a>
</g>
</g>
<!-- Node18&#45;&gt;Node3 -->
<g id="edge20_Node000018_Node000003" class="edge">
<title>Node18&#45;&gt;Node3</title>
<g id="a_edge20_Node000018_Node000003"><a xlink:title=" ">
<path fill="none" stroke="#63b8ff" d="M225.59,-570.85C209.96,-560.96 191.46,-549.07 175,-538 146.41,-518.77 114.13,-495.69 93.11,-480.48"/>
<polygon fill="#63b8ff" stroke="#63b8ff" points="223.3,-573.54 233.63,-575.91 227.03,-567.62 223.3,-573.54"/>
</a>
</g>
</g>
<!-- Node19&#45;&gt;Node8 -->
<g id="edge23_Node000019_Node000008" class="edge">
<title>Node19&#45;&gt;Node8</title>
<g id="a_edge23_Node000019_Node000008"><a xlink:title=" ">
<path fill="none" stroke="#63b8ff" d="M607.98,-410.96C586.93,-406.06 564.49,-400.84 544.15,-396.11"/>
<polygon fill="#63b8ff" stroke="#63b8ff" points="607.17,-414.36 617.7,-413.22 608.76,-407.54 607.17,-414.36"/>
</a>
</g>
</g>
<!-- Node21&#45;&gt;Node18 -->
<g id="edge27_Node000021_Node000018" class="edge">
<title>Node21&#45;&gt;Node18</title>
<g id="a_edge27_Node000021_Node000018"><a xlink:title=" ">
<path fill="none" stroke="#63b8ff" d="M387.29,-607.8C374.81,-606.31 361.95,-604.78 349.46,-603.29"/>
<polygon fill="#63b8ff" stroke="#63b8ff" points="386.78,-611.26 397.13,-608.97 387.61,-604.31 386.78,-611.26"/>
</a>
</g>
</g>
<!-- Node23 -->
<g id="Node000023" class="node">
<title>Node23</title>
<g id="a_Node000023"><a xlink:href="class_ainslie_a_p_i_1_1_controllers_1_1_logs_controller.html#aea8072dbf59418b035df6b786ecae9c0" target="_top" xlink:title="Trims logs based on predefined criteria to manage database size.">
<polygon fill="white" stroke="#666666" points="541.12,-32 406.62,-32 406.62,0 541.12,0 541.12,-32"/>
<text text-anchor="start" x="414.62" y="-18.5" font-family="Helvetica,sans-Serif" font-size="10.00">AinslieAPI.Controllers.Logs</text>
<text text-anchor="middle" x="473.88" y="-6.5" font-family="Helvetica,sans-Serif" font-size="10.00">Controller.TrimLogs</text>
</a>
</g>
</g>
<!-- Node22&#45;&gt;Node23 -->
<g id="edge29_Node000022_Node000023" class="edge">
<title>Node22&#45;&gt;Node23</title>
<g id="a_edge29_Node000022_Node000023"><a xlink:title=" ">
<path fill="none" stroke="#63b8ff" d="M602.01,-16C581.77,-16 560.57,-16 541.4,-16"/>
<polygon fill="#63b8ff" stroke="#63b8ff" points="601.96,-19.5 611.96,-16 601.96,-12.5 601.96,-19.5"/>
</a>
</g>
</g>
<!-- Node24&#45;&gt;Node8 -->
<g id="edge31_Node000024_Node000008" class="edge">
<title>Node24&#45;&gt;Node8</title>
<g id="a_edge31_Node000024_Node000008"><a xlink:title=" ">
<path fill="none" stroke="#63b8ff" d="M607.98,-349.04C586.93,-353.94 564.49,-359.16 544.15,-363.89"/>
<polygon fill="#63b8ff" stroke="#63b8ff" points="608.76,-352.46 617.7,-346.78 607.17,-345.64 608.76,-352.46"/>
</a>
</g>
</g>
<!-- Node25 -->
<g id="Node000025" class="node">
<title>Node25</title>
<g id="a_Node000025"><a xlink:href="class_ainslie_a_p_i_1_1_controllers_1_1_green_id_controller.html#a41817b6b59661b9f6e71d2358bac56f5" target="_top" xlink:title="Tests the dynamic deserialisation and updating of Netsuite IDs.">
<polygon fill="white" stroke="#666666" points="543.75,-346 404,-346 404,-314 543.75,-314 543.75,-346"/>
<text text-anchor="start" x="412" y="-332.5" font-family="Helvetica,sans-Serif" font-size="10.00">AinslieAPI.Controllers.Green</text>
<text text-anchor="middle" x="473.88" y="-320.5" font-family="Helvetica,sans-Serif" font-size="10.00">IdController.testdynamic</text>
</a>
</g>
</g>
<!-- Node24&#45;&gt;Node25 -->
<g id="edge32_Node000024_Node000025" class="edge">
<title>Node24&#45;&gt;Node25</title>
<g id="a_edge32_Node000024_Node000025"><a xlink:title=" ">
<path fill="none" stroke="#63b8ff" d="M586.96,-330C572.37,-330 557.67,-330 543.93,-330"/>
<polygon fill="#63b8ff" stroke="#63b8ff" points="586.56,-333.5 596.56,-330 586.56,-326.5 586.56,-333.5"/>
</a>
</g>
</g>
</g>
</svg>

<g id="navigator" transform="translate(0 0)" fill="#404254">
  <rect fill="#f2f5e9" fill-opacity="0.5" stroke="#606060" stroke-width=".5" x="0" y="0" width="60" height="60"/>
  <use id="zoomplus" xlink:href="#zoomPlus" x="17" y="9" onmousedown="handleZoom(evt,'in')"/>
  <use id="zoomminus" xlink:href="#zoomMin" x="42" y="9" onmousedown="handleZoom(evt,'out')"/>
  <use id="reset" xlink:href="#resetDef" x="30" y="36" onmousedown="handleReset()"/>
   <use id="arrowup" xlink:href="#arrowUp" x="0" y="0" onmousedown="handlePan(0,-1)"/>
  <use id="arrowright" xlink:href="#arrowRight" x="0" y="0" onmousedown="handlePan(1,0)"/>
  <use id="arrowdown" xlink:href="#arrowDown" x="0" y="0" onmousedown="handlePan(0,1)"/>
  <use id="arrowleft" xlink:href="#arrowLeft" x="0" y="0" onmousedown="handlePan(-1,0)"/>
</g>
<svg viewBox="0 0 15 15" width="100%" height="30px" preserveAspectRatio="xMaxYMin meet">
 <g id="arrow_out" transform="scale(0.3 0.3)">
  <a xlink:href="class_ainslie_a_p_i_1_1_services_1_1_log_service_a83bbf569dea7ea5a40e02fca200aad8c_icgraph_org.svg" target="_base">
   <rect id="button" ry="5" rx="5" y="6" x="6" height="38" width="38"
        fill="#f2f5e9" fill-opacity="0.5" stroke="#606060" stroke-width="1.0"/>
   <path id="arrow"
     d="M 11.500037,31.436501 C 11.940474,20.09759 22.043105,11.32322 32.158766,21.979434 L 37.068811,17.246167 C 37.068811,17.246167 37.088388,32 37.088388,32 L 22.160133,31.978069 C 22.160133,31.978069 26.997745,27.140456 26.997745,27.140456 C 18.528582,18.264221 13.291696,25.230495 11.500037,31.436501 z"
     style="fill:#404040;"/>
  </a>
 </g>
</svg>

<style type='text/css'>
<![CDATA[
[data-mouse-over-selected='false'] { opacity: 0.7; }
[data-mouse-over-selected='true']  { opacity: 1.0; }
]]>
</style>
<script type="application/ecmascript"><![CDATA[
document.addEventListener('DOMContentLoaded', (event) => {
  highlightEdges();
  highlightAdjacentNodes();
});
]]></script>
</svg>
