<?xml version="1.0" encoding="UTF-8" standalone="no"?>
<!DOCTYPE svg PUBLIC "-//W3C//DTD SVG 1.1//EN"
 "http://www.w3.org/Graphics/SVG/1.1/DTD/svg11.dtd">
<!-- Generated by graphviz version 9.0.0 (20230911.1827)
 -->
<!-- Title: Flatted\parse Pages: 1 -->
<svg width="386pt" height="47pt"
 viewBox="0.00 0.00 385.50 47.00" xmlns="http://www.w3.org/2000/svg" xmlns:xlink="http://www.w3.org/1999/xlink">

<svg id="main" version="1.1" xmlns="http://www.w3.org/2000/svg" xmlns:xlink="http://www.w3.org/1999/xlink" xml:space="preserve" onload="init(evt)">
<style type="text/css"><![CDATA[
.node, .edge {opacity: 0.7;}
.node.selected, .edge.selected {opacity: 1;}
.edge:hover path { stroke: red; }
.edge:hover polygon { stroke: red; fill: red; }
]]></style>
<script type="application/ecmascript" xlink:href="svg.min.js"/>
<svg id="graph" class="graph">
<g id="graph0" class="graph" transform="scale(1 1) rotate(0) translate(4 43)">
<title>Flatted\parse</title>
<!-- Node1 -->
<g id="Node000001" class="node">
<title>Node1</title>
<g id="a_Node000001"><a xlink:title=" ">
<polygon fill="#999999" stroke="#666666" points="73,-39 0,-39 0,-19 73,-19 73,-39"/>
<text text-anchor="middle" x="36.5" y="-25.5" font-family="Helvetica,sans-Serif" font-size="10.00">Flatted\parse</text>
</a>
</g>
</g>
<!-- Node2 -->
<g id="Node000002" class="node">
<title>Node2</title>
<g id="a_Node000002"><a xlink:href="class_flatted.html#a66ec2202ad9de929cc4802996fd2e3ea" target="_top" xlink:title=" ">
<polygon fill="white" stroke="#666666" points="377.5,-39 307.5,-39 307.5,-19 377.5,-19 377.5,-39"/>
<text text-anchor="middle" x="342.5" y="-25.5" font-family="Helvetica,sans-Serif" font-size="10.00">Flatted\keys</text>
</a>
</g>
</g>
<!-- Node1&#45;&gt;Node2 -->
<g id="edge1_Node000001_Node000002" class="edge">
<title>Node1&#45;&gt;Node2</title>
<g id="a_edge1_Node000001_Node000002"><a xlink:title=" ">
<path fill="none" stroke="#63b8ff" d="M73.27,-29C128.71,-29 235.32,-29 296.11,-29"/>
<polygon fill="#63b8ff" stroke="#63b8ff" points="295.76,-32.5 305.76,-29 295.76,-25.5 295.76,-32.5"/>
</a>
</g>
</g>
<!-- Node3 -->
<g id="Node000003" class="node">
<title>Node3</title>
<g id="a_Node000003"><a xlink:href="class_flatted.html#a71d799a680c7adf89e9559e045138b9e" target="_top" xlink:title=" ">
<polygon fill="white" stroke="#666666" points="176,-20 109,-20 109,0 176,0 176,-20"/>
<text text-anchor="middle" x="142.5" y="-6.5" font-family="Helvetica,sans-Serif" font-size="10.00">Flatted\loop</text>
</a>
</g>
</g>
<!-- Node1&#45;&gt;Node3 -->
<g id="edge2_Node000001_Node000003" class="edge">
<title>Node1&#45;&gt;Node3</title>
<g id="a_edge2_Node000001_Node000003"><a xlink:title=" ">
<path fill="none" stroke="#63b8ff" d="M73.29,-22.46C81.12,-21.03 89.49,-19.5 97.59,-18.02"/>
<polygon fill="#63b8ff" stroke="#63b8ff" points="98.09,-21.49 107.3,-16.25 96.83,-14.6 98.09,-21.49"/>
</a>
</g>
</g>
<!-- Node4 -->
<g id="Node000004" class="node">
<title>Node4</title>
<g id="a_Node000004"><a xlink:href="class_flatted.html#a2383280951ac4457a7a823647e30d0ed" target="_top" xlink:title=" ">
<polygon fill="white" stroke="#666666" points="271.5,-20 212,-20 212,0 271.5,0 271.5,-20"/>
<text text-anchor="middle" x="241.75" y="-6.5" font-family="Helvetica,sans-Serif" font-size="10.00">Flatted\ref</text>
</a>
</g>
</g>
<!-- Node3&#45;&gt;Node4 -->
<g id="edge3_Node000003_Node000004" class="edge">
<title>Node3&#45;&gt;Node4</title>
<g id="a_edge3_Node000003_Node000004"><a xlink:title=" ">
<path fill="none" stroke="#63b8ff" d="M176.42,-3.57C184.13,-3.25 192.41,-3.17 200.4,-3.34"/>
<polygon fill="#63b8ff" stroke="#63b8ff" points="200.13,-6.83 210.26,-3.71 200.4,0.17 200.13,-6.83"/>
</a>
</g>
</g>
<!-- Node4&#45;&gt;Node2 -->
<g id="edge4_Node000004_Node000002" class="edge">
<title>Node4&#45;&gt;Node2</title>
<g id="a_edge4_Node000004_Node000002"><a xlink:title=" ">
<path fill="none" stroke="#63b8ff" d="M271.84,-15.6C279.43,-17.06 287.79,-18.67 296.01,-20.25"/>
<polygon fill="#63b8ff" stroke="#63b8ff" points="295.07,-23.63 305.55,-22.08 296.4,-16.76 295.07,-23.63"/>
</a>
</g>
</g>
<!-- Node4&#45;&gt;Node3 -->
<g id="edge5_Node000004_Node000003" class="edge">
<title>Node4&#45;&gt;Node3</title>
<g id="a_edge5_Node000004_Node000003"><a xlink:title=" ">
<path fill="none" stroke="#63b8ff" d="M211.77,-16.23C204.21,-16.65 195.89,-16.82 187.74,-16.73"/>
<polygon fill="#63b8ff" stroke="#63b8ff" points="188.03,-13.23 177.94,-16.47 187.84,-20.23 188.03,-13.23"/>
</a>
</g>
</g>
</g>
</svg>
</svg>

<style type='text/css'>
<![CDATA[
[data-mouse-over-selected='false'] { opacity: 0.7; }
[data-mouse-over-selected='true']  { opacity: 1.0; }
]]>
</style>
<script type="application/ecmascript"><![CDATA[
document.addEventListener('DOMContentLoaded', (event) => {
  highlightEdges();
  highlightAdjacentNodes();
});
]]></script>
</svg>
