<?xml version="1.0" encoding="UTF-8" standalone="no"?>
<!DOCTYPE svg PUBLIC "-//W3C//DTD SVG 1.1//EN"
 "http://www.w3.org/Graphics/SVG/1.1/DTD/svg11.dtd">
<!-- Generated by graphviz version 9.0.0 (20230911.1827)
 -->
<!-- Title: AinslieAPI.Services.LogService.WriteLog Pages: 1 -->
<svg width="1361pt" height="948pt"
 viewBox="0.00 0.00 1361.25 948.29" xmlns="http://www.w3.org/2000/svg" xmlns:xlink="http://www.w3.org/1999/xlink">
<g id="graph0" class="graph" transform="scale(1 1) rotate(0) translate(4 944.29)">
<title>AinslieAPI.Services.LogService.WriteLog</title>
<!-- Node1 -->
<g id="Node000001" class="node">
<title>Node1</title>
<g id="a_Node000001"><a xlink:title="writes a text file log to [App home directory]/log">
<polygon fill="#999999" stroke="#666666" points="1353.25,-614.96 1199.25,-614.96 1199.25,-582.96 1353.25,-582.96 1353.25,-614.96"/>
<text text-anchor="start" x="1207.25" y="-601.46" font-family="Helvetica,sans-Serif" font-size="10.00">AinslieAPI.Services.LogService.</text>
<text text-anchor="middle" x="1276.25" y="-589.46" font-family="Helvetica,sans-Serif" font-size="10.00">WriteLog</text>
</a>
</g>
</g>
<!-- Node2 -->
<g id="Node000002" class="node">
<title>Node2</title>
<g id="a_Node000002"><a xlink:href="class_ainslie_a_p_i_1_1_services_1_1_log_service.html#a3c2dce5ed306365dfa416f700e5360cf" target="_top" xlink:title="inserts log to database">
<polygon fill="white" stroke="#666666" points="1163.25,-614.96 1009.25,-614.96 1009.25,-582.96 1163.25,-582.96 1163.25,-614.96"/>
<text text-anchor="start" x="1017.25" y="-601.46" font-family="Helvetica,sans-Serif" font-size="10.00">AinslieAPI.Services.LogService.</text>
<text text-anchor="middle" x="1086.25" y="-589.46" font-family="Helvetica,sans-Serif" font-size="10.00">InsertLog</text>
</a>
</g>
</g>
<!-- Node1&#45;&gt;Node2 -->
<g id="edge1_Node000001_Node000002" class="edge">
<title>Node1&#45;&gt;Node2</title>
<g id="a_edge1_Node000001_Node000002"><a xlink:title=" ">
<path fill="none" stroke="#63b8ff" d="M1187.28,-598.96C1179.39,-598.96 1171.43,-598.96 1163.65,-598.96"/>
<polygon fill="#63b8ff" stroke="#63b8ff" points="1187.27,-602.46 1197.27,-598.96 1187.27,-595.46 1187.27,-602.46"/>
</a>
</g>
</g>
<!-- Node3 -->
<g id="Node000003" class="node">
<title>Node3</title>
<g id="a_Node000003"><a xlink:href="class_ainslie_a_p_i_1_1_services_1_1_log_service.html#a9898f5cd3f6b2ea29e40c885721f4a63" target="_top" xlink:title=" ">
<polygon fill="white" stroke="#666666" points="973.25,-829.96 819.25,-829.96 819.25,-797.96 973.25,-797.96 973.25,-829.96"/>
<text text-anchor="start" x="827.25" y="-816.46" font-family="Helvetica,sans-Serif" font-size="10.00">AinslieAPI.Services.LogService.</text>
<text text-anchor="middle" x="896.25" y="-804.46" font-family="Helvetica,sans-Serif" font-size="10.00">LogDebug</text>
</a>
</g>
</g>
<!-- Node2&#45;&gt;Node3 -->
<g id="edge2_Node000002_Node000003" class="edge">
<title>Node2&#45;&gt;Node3</title>
<g id="a_edge2_Node000002_Node000003"><a xlink:title=" ">
<path fill="none" stroke="#63b8ff" d="M1063.73,-623.57C1024.94,-667.93 944.3,-760.15 911.54,-797.61"/>
<polygon fill="#63b8ff" stroke="#63b8ff" points="1066.18,-626.09 1070.12,-616.25 1060.91,-621.48 1066.18,-626.09"/>
</a>
</g>
</g>
<!-- Node5 -->
<g id="Node000005" class="node">
<title>Node5</title>
<g id="a_Node000005"><a xlink:href="class_ainslie_a_p_i_1_1_services_1_1_log_service.html#a9bf79a218e0884ac9cabd3ac87b81321" target="_top" xlink:title=" ">
<polygon fill="white" stroke="#666666" points="973.25,-675.96 819.25,-675.96 819.25,-643.96 973.25,-643.96 973.25,-675.96"/>
<text text-anchor="start" x="827.25" y="-662.46" font-family="Helvetica,sans-Serif" font-size="10.00">AinslieAPI.Services.LogService.</text>
<text text-anchor="middle" x="896.25" y="-650.46" font-family="Helvetica,sans-Serif" font-size="10.00">LogError</text>
</a>
</g>
</g>
<!-- Node2&#45;&gt;Node5 -->
<g id="edge4_Node000002_Node000005" class="edge">
<title>Node2&#45;&gt;Node5</title>
<g id="a_edge4_Node000002_Node000005"><a xlink:title=" ">
<path fill="none" stroke="#63b8ff" d="M1024.2,-618.76C999.6,-626.74 971.56,-635.84 948.1,-643.46"/>
<polygon fill="#63b8ff" stroke="#63b8ff" points="1025,-622.18 1033.43,-615.77 1022.84,-615.53 1025,-622.18"/>
</a>
</g>
</g>
<!-- Node22 -->
<g id="Node000022" class="node">
<title>Node22</title>
<g id="a_Node000022"><a xlink:href="class_ainslie_a_p_i_1_1_services_1_1_log_service.html#a83bbf569dea7ea5a40e02fca200aad8c" target="_top" xlink:title=" ">
<polygon fill="white" stroke="#666666" points="973.25,-400.96 819.25,-400.96 819.25,-368.96 973.25,-368.96 973.25,-400.96"/>
<text text-anchor="start" x="827.25" y="-387.46" font-family="Helvetica,sans-Serif" font-size="10.00">AinslieAPI.Services.LogService.</text>
<text text-anchor="middle" x="896.25" y="-375.46" font-family="Helvetica,sans-Serif" font-size="10.00">LogException</text>
</a>
</g>
</g>
<!-- Node2&#45;&gt;Node22 -->
<g id="edge26_Node000002_Node000022" class="edge">
<title>Node2&#45;&gt;Node22</title>
<g id="a_edge26_Node000002_Node000022"><a xlink:title=" ">
<path fill="none" stroke="#63b8ff" d="M1063.4,-574.08C1024.56,-529.88 944.53,-438.77 911.74,-401.45"/>
<polygon fill="#63b8ff" stroke="#63b8ff" points="1060.58,-576.18 1069.81,-581.38 1065.84,-571.56 1060.58,-576.18"/>
</a>
</g>
</g>
<!-- Node30 -->
<g id="Node000030" class="node">
<title>Node30</title>
<g id="a_Node000030"><a xlink:href="class_ainslie_a_p_i_1_1_services_1_1_log_service.html#a917b9af360c0c6521ce36f4acbc72023" target="_top" xlink:title=" ">
<polygon fill="white" stroke="#666666" points="767.88,-475.96 613.88,-475.96 613.88,-443.96 767.88,-443.96 767.88,-475.96"/>
<text text-anchor="start" x="621.88" y="-462.46" font-family="Helvetica,sans-Serif" font-size="10.00">AinslieAPI.Services.LogService.</text>
<text text-anchor="middle" x="690.88" y="-450.46" font-family="Helvetica,sans-Serif" font-size="10.00">LogInformation</text>
</a>
</g>
</g>
<!-- Node2&#45;&gt;Node30 -->
<g id="edge49_Node000002_Node000030" class="edge">
<title>Node2&#45;&gt;Node30</title>
<g id="a_edge49_Node000002_Node000030"><a xlink:title=" ">
<path fill="none" stroke="#63b8ff" d="M1035.01,-578.33C975.5,-554.29 873.07,-514.12 783.25,-484.96 774.18,-482.01 764.53,-479.11 755.02,-476.4"/>
<polygon fill="#63b8ff" stroke="#63b8ff" points="1033.63,-581.55 1044.21,-582.06 1036.26,-575.06 1033.63,-581.55"/>
</a>
</g>
</g>
<!-- Node4 -->
<g id="Node000004" class="node">
<title>Node4</title>
<g id="a_Node000004"><a xlink:href="class_ainslie_a_p_i_1_1_controllers_1_1_green_id_controller.html#a131760ed19379a330a44f72879f026e2" target="_top" xlink:title="Initiates a new customer verification process, accommodating both GET and POST requests.">
<polygon fill="white" stroke="#666666" points="543.75,-801.96 404,-801.96 404,-769.96 543.75,-769.96 543.75,-801.96"/>
<text text-anchor="start" x="412" y="-788.46" font-family="Helvetica,sans-Serif" font-size="10.00">AinslieAPI.Controllers.Green</text>
<text text-anchor="middle" x="473.88" y="-776.46" font-family="Helvetica,sans-Serif" font-size="10.00">IdController.NewVerification</text>
</a>
</g>
</g>
<!-- Node3&#45;&gt;Node4 -->
<g id="edge3_Node000003_Node000004" class="edge">
<title>Node3&#45;&gt;Node4</title>
<g id="a_edge3_Node000003_Node000004"><a xlink:title=" ">
<path fill="none" stroke="#63b8ff" d="M807.79,-821.53C748.5,-825.1 668.48,-826.87 598.5,-817.96 574.42,-814.89 548.32,-808.59 526.34,-802.39"/>
<polygon fill="#63b8ff" stroke="#63b8ff" points="807.72,-825.04 817.48,-820.92 807.28,-818.06 807.72,-825.04"/>
</a>
</g>
</g>
<!-- Node5&#45;&gt;Node4 -->
<g id="edge17_Node000005_Node000004" class="edge">
<title>Node5&#45;&gt;Node4</title>
<g id="a_edge17_Node000005_Node000004"><a xlink:title=" ">
<path fill="none" stroke="#63b8ff" d="M881.11,-685.95C862.99,-716.23 828.43,-764.68 783.25,-784.96 706.93,-819.2 608.89,-812.01 544.08,-801.21"/>
<polygon fill="#63b8ff" stroke="#63b8ff" points="884.09,-687.8 886.07,-677.39 878.03,-684.29 884.09,-687.8"/>
</a>
</g>
</g>
<!-- Node6 -->
<g id="Node000006" class="node">
<title>Node6</title>
<g id="a_Node000006"><a xlink:href="class_ainslie_a_p_i_1_1_services_1_1_internal_api_service.html#a09c4662b56f1cf03cfecb9928e1e884a" target="_top" xlink:title="Retrieves the current asset pricing from Internal API and deserialises the response into a list of As...">
<polygon fill="white" stroke="#666666" points="758.88,-425.96 622.88,-425.96 622.88,-393.96 758.88,-393.96 758.88,-425.96"/>
<text text-anchor="start" x="630.88" y="-412.46" font-family="Helvetica,sans-Serif" font-size="10.00">AinslieAPI.Services.Internal</text>
<text text-anchor="middle" x="690.88" y="-400.46" font-family="Helvetica,sans-Serif" font-size="10.00">ApiService.GetAssetPricing</text>
</a>
</g>
</g>
<!-- Node5&#45;&gt;Node6 -->
<g id="edge5_Node000005_Node000006" class="edge">
<title>Node5&#45;&gt;Node6</title>
<g id="a_edge5_Node000005_Node000006"><a xlink:title=" ">
<path fill="none" stroke="#63b8ff" d="M889.34,-632.54C877.64,-584.99 846.95,-487.32 783.25,-434.96 776.13,-429.11 767.76,-424.62 759.02,-421.18"/>
<polygon fill="#63b8ff" stroke="#63b8ff" points="885.87,-633.08 891.57,-642.01 892.69,-631.48 885.87,-633.08"/>
</a>
</g>
</g>
<!-- Node9 -->
<g id="Node000009" class="node">
<title>Node9</title>
<g id="a_Node000009"><a xlink:href="class_ainslie_a_p_i_1_1_services_1_1_internal_api_service.html#ac96a3e52c78c6b67de6a0f244fd70a60" target="_top" xlink:title="Retrieves Green ID customer data from Internal API based on the specified branch and user ID.">
<polygon fill="white" stroke="#666666" points="769,-725.96 612.75,-725.96 612.75,-693.96 769,-693.96 769,-725.96"/>
<text text-anchor="start" x="620.75" y="-712.46" font-family="Helvetica,sans-Serif" font-size="10.00">AinslieAPI.Services.Internal</text>
<text text-anchor="middle" x="690.88" y="-700.46" font-family="Helvetica,sans-Serif" font-size="10.00">ApiService.GetGreenIdCustomer</text>
</a>
</g>
</g>
<!-- Node5&#45;&gt;Node9 -->
<g id="edge8_Node000005_Node000009" class="edge">
<title>Node5&#45;&gt;Node9</title>
<g id="a_edge8_Node000005_Node000009"><a xlink:title=" ">
<path fill="none" stroke="#63b8ff" d="M817.46,-679.08C798.12,-683.83 777.56,-688.89 758.79,-693.5"/>
<polygon fill="#63b8ff" stroke="#63b8ff" points="818.03,-682.54 826.91,-676.76 816.36,-675.75 818.03,-682.54"/>
</a>
</g>
</g>
<!-- Node10 -->
<g id="Node000010" class="node">
<title>Node10</title>
<g id="a_Node000010"><a xlink:href="class_ainslie_a_p_i_1_1_services_1_1_aw_api_service.html#a94685f746f003ef92fe3a7f4ef545efe" target="_top" xlink:title="Fetches GSS pricing data for a specified user from the AW API.">
<polygon fill="white" stroke="#666666" points="756.62,-575.96 625.12,-575.96 625.12,-543.96 756.62,-543.96 756.62,-575.96"/>
<text text-anchor="start" x="633.12" y="-562.46" font-family="Helvetica,sans-Serif" font-size="10.00">AinslieAPI.Services.AwApi</text>
<text text-anchor="middle" x="690.88" y="-550.46" font-family="Helvetica,sans-Serif" font-size="10.00">Service.GetGssPricing</text>
</a>
</g>
</g>
<!-- Node5&#45;&gt;Node10 -->
<g id="edge10_Node000005_Node000010" class="edge">
<title>Node5&#45;&gt;Node10</title>
<g id="a_edge10_Node000005_Node000010"><a xlink:title=" ">
<path fill="none" stroke="#63b8ff" d="M866.38,-636.79C844.62,-620.33 813.47,-598.76 783.25,-584.96 774.87,-581.13 765.79,-577.78 756.71,-574.88"/>
<polygon fill="#63b8ff" stroke="#63b8ff" points="864.12,-639.48 874.18,-642.81 868.4,-633.93 864.12,-639.48"/>
</a>
</g>
</g>
<!-- Node13 -->
<g id="Node000013" class="node">
<title>Node13</title>
<g id="a_Node000013"><a xlink:href="class_ainslie_a_p_i_1_1_controllers_1_1_g_s_s_1_1_tdcr_controller.html#a837b3bc6be2af122cb619aa347094ad7" target="_top" xlink:title="Sets up controller with dependencies for processing TDCR transactions.">
<polygon fill="white" stroke="#666666" points="139,-798.96 0,-798.96 0,-766.96 139,-766.96 139,-798.96"/>
<text text-anchor="start" x="8" y="-785.46" font-family="Helvetica,sans-Serif" font-size="10.00">AinslieAPI.Controllers.GSS.</text>
<text text-anchor="middle" x="69.5" y="-773.46" font-family="Helvetica,sans-Serif" font-size="10.00">TdcrController.TdcrController</text>
</a>
</g>
</g>
<!-- Node5&#45;&gt;Node13 -->
<g id="edge22_Node000005_Node000013" class="edge">
<title>Node5&#45;&gt;Node13</title>
<g id="a_edge22_Node000005_Node000013"><a xlink:title=" ">
<path fill="none" stroke="#63b8ff" d="M879.54,-685.93C863.96,-711.86 839.53,-752.92 819.25,-788.96 802.67,-818.41 812.26,-838.61 783.25,-855.96 551.23,-994.68 432.87,-937.1 175,-855.96 139.75,-844.86 106.02,-817.18 86.83,-799.27"/>
<polygon fill="#63b8ff" stroke="#63b8ff" points="882.5,-687.8 884.66,-677.42 876.51,-684.18 882.5,-687.8"/>
</a>
</g>
</g>
<!-- Node14 -->
<g id="Node000014" class="node">
<title>Node14</title>
<g id="a_Node000014"><a xlink:href="class_ainslie_a_p_i_1_1_services_1_1_internal_api_service.html#a0c4c5cccb2233540343e36fe0e8a0acc" target="_top" xlink:title="Fetches the current product pricing from the internal API and deserialises the response into a list o...">
<polygon fill="white" stroke="#666666" points="763,-525.96 618.75,-525.96 618.75,-493.96 763,-493.96 763,-525.96"/>
<text text-anchor="start" x="626.75" y="-512.46" font-family="Helvetica,sans-Serif" font-size="10.00">AinslieAPI.Services.Internal</text>
<text text-anchor="middle" x="690.88" y="-500.46" font-family="Helvetica,sans-Serif" font-size="10.00">ApiService.GetProductPricing</text>
</a>
</g>
</g>
<!-- Node5&#45;&gt;Node14 -->
<g id="edge14_Node000005_Node000014" class="edge">
<title>Node5&#45;&gt;Node14</title>
<g id="a_edge14_Node000005_Node000014"><a xlink:title=" ">
<path fill="none" stroke="#63b8ff" d="M879.16,-634.55C859.81,-606.09 824.71,-560.58 783.25,-534.96 777.09,-531.15 770.36,-527.91 763.42,-525.17"/>
<polygon fill="#63b8ff" stroke="#63b8ff" points="876.04,-636.19 884.49,-642.59 881.88,-632.32 876.04,-636.19"/>
</a>
</g>
</g>
<!-- Node17 -->
<g id="Node000017" class="node">
<title>Node17</title>
<g id="a_Node000017"><a xlink:href="class_ainslie_a_p_i_1_1_controllers_1_1_g_s_s_1_1_tdcr_controller.html#a9eba319227d13605723ee5253d17b014" target="_top" xlink:title="Processes incoming order requests, validating and saving them to the database.">
<polygon fill="white" stroke="#666666" points="138.25,-277.96 0.75,-277.96 0.75,-245.96 138.25,-245.96 138.25,-277.96"/>
<text text-anchor="start" x="8.75" y="-264.46" font-family="Helvetica,sans-Serif" font-size="10.00">AinslieAPI.Controllers.GSS.</text>
<text text-anchor="middle" x="69.5" y="-252.46" font-family="Helvetica,sans-Serif" font-size="10.00">TdcrController.Orders</text>
</a>
</g>
</g>
<!-- Node5&#45;&gt;Node17 -->
<g id="edge18_Node000005_Node000017" class="edge">
<title>Node5&#45;&gt;Node17</title>
<g id="a_edge18_Node000005_Node000017"><a xlink:title=" ">
<path fill="none" stroke="#63b8ff" d="M884.75,-686.42C868.88,-722.3 835.04,-784.89 783.25,-810.96 704.25,-850.72 471.52,-830.43 385.25,-810.96 284.31,-788.17 239.88,-791.56 175,-710.96 118.79,-641.13 80.94,-349.73 72.36,-277.97"/>
<polygon fill="#63b8ff" stroke="#63b8ff" points="887.8,-688.18 888.5,-677.6 881.36,-685.43 887.8,-688.18"/>
</a>
</g>
</g>
<!-- Node18 -->
<g id="Node000018" class="node">
<title>Node18</title>
<g id="a_Node000018"><a xlink:href="class_ainslie_a_p_i_1_1_services_1_1_internal_api_service.html#a7a070bb565246fb698283432930d9cd1" target="_top" xlink:title="Submits customer data to Netsuite via Internal API and retrieves the Netsuite customer ID.">
<polygon fill="white" stroke="#666666" points="772.38,-675.96 609.38,-675.96 609.38,-643.96 772.38,-643.96 772.38,-675.96"/>
<text text-anchor="start" x="617.38" y="-662.46" font-family="Helvetica,sans-Serif" font-size="10.00">AinslieAPI.Services.Internal</text>
<text text-anchor="middle" x="690.88" y="-650.46" font-family="Helvetica,sans-Serif" font-size="10.00">ApiService.PostNetsuiteCustomer</text>
</a>
</g>
</g>
<!-- Node5&#45;&gt;Node18 -->
<g id="edge19_Node000005_Node000018" class="edge">
<title>Node5&#45;&gt;Node18</title>
<g id="a_edge19_Node000005_Node000018"><a xlink:title=" ">
<path fill="none" stroke="#63b8ff" d="M807.49,-659.96C795.93,-659.96 784.13,-659.96 772.69,-659.96"/>
<polygon fill="#63b8ff" stroke="#63b8ff" points="807.43,-663.46 817.43,-659.96 807.43,-656.46 807.43,-663.46"/>
</a>
</g>
</g>
<!-- Node19 -->
<g id="Node000019" class="node">
<title>Node19</title>
<g id="a_Node000019"><a xlink:href="class_ainslie_a_p_i_1_1_services_1_1_internal_api_service.html#af507e96372a12f14e6ae166a5d495ef2" target="_top" xlink:title="Sends an email using the details provided in the EmailPost object via Internal API.">
<polygon fill="white" stroke="#666666" points="758.5,-775.96 623.25,-775.96 623.25,-743.96 758.5,-743.96 758.5,-775.96"/>
<text text-anchor="start" x="631.25" y="-762.46" font-family="Helvetica,sans-Serif" font-size="10.00">AinslieAPI.Services.Internal</text>
<text text-anchor="middle" x="690.88" y="-750.46" font-family="Helvetica,sans-Serif" font-size="10.00">ApiService.SendEmail</text>
</a>
</g>
</g>
<!-- Node5&#45;&gt;Node19 -->
<g id="edge21_Node000005_Node000019" class="edge">
<title>Node5&#45;&gt;Node19</title>
<g id="a_edge21_Node000005_Node000019"><a xlink:title=" ">
<path fill="none" stroke="#63b8ff" d="M866.38,-683.12C844.62,-699.58 813.47,-721.15 783.25,-734.96 775.47,-738.51 767.08,-741.65 758.65,-744.4"/>
<polygon fill="#63b8ff" stroke="#63b8ff" points="868.4,-685.98 874.18,-677.11 864.12,-680.43 868.4,-685.98"/>
</a>
</g>
</g>
<!-- Node20 -->
<g id="Node000020" class="node">
<title>Node20</title>
<g id="a_Node000020"><a xlink:href="class_ainslie_a_p_i_1_1_services_1_1_internal_api_service.html#aa8c183f663dbc4061a007aee4e5cf28e" target="_top" xlink:title="Updates the Netsuite ID associated with a specific Green ID record in the database.">
<polygon fill="white" stroke="#666666" points="783.25,-625.96 598.5,-625.96 598.5,-593.96 783.25,-593.96 783.25,-625.96"/>
<text text-anchor="start" x="606.5" y="-612.46" font-family="Helvetica,sans-Serif" font-size="10.00">AinslieAPI.Services.Internal</text>
<text text-anchor="middle" x="690.88" y="-600.46" font-family="Helvetica,sans-Serif" font-size="10.00">ApiService.UpdateGreenIdDbNetsuiteId</text>
</a>
</g>
</g>
<!-- Node5&#45;&gt;Node20 -->
<g id="edge23_Node000005_Node000020" class="edge">
<title>Node5&#45;&gt;Node20</title>
<g id="a_edge23_Node000005_Node000020"><a xlink:title=" ">
<path fill="none" stroke="#63b8ff" d="M817.46,-640.83C798.12,-636.08 777.56,-631.02 758.79,-626.41"/>
<polygon fill="#63b8ff" stroke="#63b8ff" points="816.36,-644.16 826.91,-643.15 818.03,-637.37 816.36,-644.16"/>
</a>
</g>
</g>
<!-- Node7 -->
<g id="Node000007" class="node">
<title>Node7</title>
<g id="a_Node000007"><a xlink:href="class_ainslie_a_p_i_1_1_controllers_1_1_assets_controller.html#a0c9bb1df19027458fd189101528c48c9" target="_top" xlink:title="Fetches current asset prices.">
<polygon fill="white" stroke="#666666" points="546,-425.96 401.75,-425.96 401.75,-393.96 546,-393.96 546,-425.96"/>
<text text-anchor="start" x="409.75" y="-412.46" font-family="Helvetica,sans-Serif" font-size="10.00">AinslieAPI.Controllers.Assets</text>
<text text-anchor="middle" x="473.88" y="-400.46" font-family="Helvetica,sans-Serif" font-size="10.00">Controller.PriceList</text>
</a>
</g>
</g>
<!-- Node6&#45;&gt;Node7 -->
<g id="edge6_Node000006_Node000007" class="edge">
<title>Node6&#45;&gt;Node7</title>
<g id="a_edge6_Node000006_Node000007"><a xlink:title=" ">
<path fill="none" stroke="#63b8ff" d="M611.15,-409.96C589.88,-409.96 567,-409.96 546.16,-409.96"/>
<polygon fill="#63b8ff" stroke="#63b8ff" points="610.92,-413.46 620.92,-409.96 610.92,-406.46 610.92,-413.46"/>
</a>
</g>
</g>
<!-- Node8 -->
<g id="Node000008" class="node">
<title>Node8</title>
<g id="a_Node000008"><a xlink:href="class_ainslie_a_p_i_1_1_helpers_1_1_cache_data_helper.html#a4528db84b99bf010dff2409e3339ba91" target="_top" xlink:title="Refreshes the cache of asset prices by fetching new data if the current cache is expired or not prese...">
<polygon fill="white" stroke="#666666" points="558.38,-475.96 389.38,-475.96 389.38,-443.96 558.38,-443.96 558.38,-475.96"/>
<text text-anchor="start" x="397.38" y="-462.46" font-family="Helvetica,sans-Serif" font-size="10.00">AinslieAPI.Helpers.Cache</text>
<text text-anchor="middle" x="473.88" y="-450.46" font-family="Helvetica,sans-Serif" font-size="10.00">DataHelper.RefreshPriceappAssets</text>
</a>
</g>
</g>
<!-- Node6&#45;&gt;Node8 -->
<g id="edge7_Node000006_Node000008" class="edge">
<title>Node6&#45;&gt;Node8</title>
<g id="a_edge7_Node000006_Node000008"><a xlink:title=" ">
<path fill="none" stroke="#63b8ff" d="M611.39,-428.21C589.93,-433.2 566.8,-438.58 545.79,-443.46"/>
<polygon fill="#63b8ff" stroke="#63b8ff" points="612.02,-431.66 620.96,-425.98 610.43,-424.84 612.02,-431.66"/>
</a>
</g>
</g>
<!-- Node9&#45;&gt;Node4 -->
<g id="edge9_Node000009_Node000004" class="edge">
<title>Node9&#45;&gt;Node4</title>
<g id="a_edge9_Node000009_Node000004"><a xlink:title=" ">
<path fill="none" stroke="#63b8ff" d="M608.82,-730.42C605.3,-731.85 601.84,-733.36 598.5,-734.96 580.7,-743.47 580.26,-752.34 562.5,-760.96 555.95,-764.13 548.93,-766.97 541.81,-769.5"/>
<polygon fill="#63b8ff" stroke="#63b8ff" points="610.03,-733.71 618.17,-726.93 607.57,-727.15 610.03,-733.71"/>
</a>
</g>
</g>
<!-- Node11 -->
<g id="Node000011" class="node">
<title>Node11</title>
<g id="a_Node000011"><a xlink:href="class_ainslie_a_p_i_1_1_helpers_1_1_cache_data_helper.html#a603725b5f3104a2056b255d5ba62b145" target="_top" xlink:title="Refreshes the GSS pricing cache for a specific user, ensuring the data is current.">
<polygon fill="white" stroke="#666666" points="549.38,-701.96 398.38,-701.96 398.38,-669.96 549.38,-669.96 549.38,-701.96"/>
<text text-anchor="start" x="406.38" y="-688.46" font-family="Helvetica,sans-Serif" font-size="10.00">AinslieAPI.Helpers.Cache</text>
<text text-anchor="middle" x="473.88" y="-676.46" font-family="Helvetica,sans-Serif" font-size="10.00">DataHelper.RefreshGSSPricing</text>
</a>
</g>
</g>
<!-- Node10&#45;&gt;Node11 -->
<g id="edge11_Node000010_Node000011" class="edge">
<title>Node10&#45;&gt;Node11</title>
<g id="a_edge11_Node000010_Node000011"><a xlink:title=" ">
<path fill="none" stroke="#63b8ff" d="M614.42,-574.7C608.71,-577.54 603.3,-580.93 598.5,-584.96 569.86,-608.97 591.01,-636.79 562.5,-660.96 558.64,-664.23 554.37,-667.07 549.87,-669.55"/>
<polygon fill="#63b8ff" stroke="#63b8ff" points="615.79,-577.92 623.58,-570.75 613.01,-571.5 615.79,-577.92"/>
</a>
</g>
</g>
<!-- Node12 -->
<g id="Node000012" class="node">
<title>Node12</title>
<g id="a_Node000012"><a xlink:href="class_ainslie_a_p_i_1_1_helpers_1_1_cache_data_helper.html#a533a0f6563d2e92e52c819c22c5009a6" target="_top" xlink:title="Retrieves GSS pricing data for a specific user from cache or refreshes if necessary.">
<polygon fill="white" stroke="#666666" points="326,-701.96 198.25,-701.96 198.25,-669.96 326,-669.96 326,-701.96"/>
<text text-anchor="start" x="206.25" y="-688.46" font-family="Helvetica,sans-Serif" font-size="10.00">AinslieAPI.Helpers.Cache</text>
<text text-anchor="middle" x="262.12" y="-676.46" font-family="Helvetica,sans-Serif" font-size="10.00">DataHelper.GSSPricing</text>
</a>
</g>
</g>
<!-- Node11&#45;&gt;Node12 -->
<g id="edge12_Node000011_Node000012" class="edge">
<title>Node11&#45;&gt;Node12</title>
<g id="a_edge12_Node000011_Node000012"><a xlink:title=" ">
<path fill="none" stroke="#63b8ff" d="M386.64,-685.96C366.51,-685.96 345.42,-685.96 326.49,-685.96"/>
<polygon fill="#63b8ff" stroke="#63b8ff" points="386.53,-689.46 396.53,-685.96 386.53,-682.46 386.53,-689.46"/>
</a>
</g>
</g>
<!-- Node12&#45;&gt;Node13 -->
<g id="edge13_Node000012_Node000013" class="edge">
<title>Node12&#45;&gt;Node13</title>
<g id="a_edge13_Node000012_Node000013"><a xlink:title=" ">
<path fill="none" stroke="#63b8ff" d="M218.84,-707.47C183.76,-725.32 134.62,-750.33 102.68,-766.58"/>
<polygon fill="#63b8ff" stroke="#63b8ff" points="220.11,-710.75 227.44,-703.1 216.94,-704.51 220.11,-710.75"/>
</a>
</g>
</g>
<!-- Node15 -->
<g id="Node000015" class="node">
<title>Node15</title>
<g id="a_Node000015"><a xlink:href="class_ainslie_a_p_i_1_1_controllers_1_1_products_controller.html#ac20bed843f55f212dfb5ffe45d411f8f" target="_top" xlink:title="Retrieves a list of current product prices.">
<polygon fill="white" stroke="#666666" points="550.12,-601.96 397.62,-601.96 397.62,-569.96 550.12,-569.96 550.12,-601.96"/>
<text text-anchor="start" x="405.62" y="-588.46" font-family="Helvetica,sans-Serif" font-size="10.00">AinslieAPI.Controllers.Products</text>
<text text-anchor="middle" x="473.88" y="-576.46" font-family="Helvetica,sans-Serif" font-size="10.00">Controller.PriceList</text>
</a>
</g>
</g>
<!-- Node14&#45;&gt;Node15 -->
<g id="edge15_Node000014_Node000015" class="edge">
<title>Node14&#45;&gt;Node15</title>
<g id="a_edge15_Node000014_Node000015"><a xlink:title=" ">
<path fill="none" stroke="#63b8ff" d="M608.82,-530.42C605.3,-531.85 601.84,-533.36 598.5,-534.96 580.7,-543.47 580.26,-552.34 562.5,-560.96 555.95,-564.13 548.93,-566.97 541.81,-569.5"/>
<polygon fill="#63b8ff" stroke="#63b8ff" points="610.03,-533.71 618.17,-526.93 607.57,-527.15 610.03,-533.71"/>
</a>
</g>
</g>
<!-- Node16 -->
<g id="Node000016" class="node">
<title>Node16</title>
<g id="a_Node000016"><a xlink:href="class_ainslie_a_p_i_1_1_helpers_1_1_cache_data_helper.html#a467891c45e271be3b54049e3a66ae7cc" target="_top" xlink:title="Refreshes the product price list cache if necessary, ensuring up&#45;to&#45;date data availability.">
<polygon fill="white" stroke="#666666" points="562.5,-651.96 385.25,-651.96 385.25,-619.96 562.5,-619.96 562.5,-651.96"/>
<text text-anchor="start" x="393.25" y="-638.46" font-family="Helvetica,sans-Serif" font-size="10.00">AinslieAPI.Helpers.Cache</text>
<text text-anchor="middle" x="473.88" y="-626.46" font-family="Helvetica,sans-Serif" font-size="10.00">DataHelper.RefreshPriceappProducts</text>
</a>
</g>
</g>
<!-- Node14&#45;&gt;Node16 -->
<g id="edge16_Node000014_Node000016" class="edge">
<title>Node14&#45;&gt;Node16</title>
<g id="a_edge16_Node000014_Node000016"><a xlink:title=" ">
<path fill="none" stroke="#63b8ff" d="M608.31,-528.03C604.85,-530.09 601.55,-532.39 598.5,-534.96 569.86,-558.97 591.01,-586.79 562.5,-610.96 558.64,-614.23 554.37,-617.07 549.87,-619.55"/>
<polygon fill="#63b8ff" stroke="#63b8ff" points="609.82,-531.19 617.11,-523.5 606.61,-524.97 609.82,-531.19"/>
</a>
</g>
</g>
<!-- Node18&#45;&gt;Node4 -->
<g id="edge20_Node000018_Node000004" class="edge">
<title>Node18&#45;&gt;Node4</title>
<g id="a_edge20_Node000018_Node000004"><a xlink:title=" ">
<path fill="none" stroke="#63b8ff" d="M601.89,-682.29C600.73,-683.15 599.6,-684.03 598.5,-684.96 569.86,-708.97 591.01,-736.79 562.5,-760.96 556.95,-765.66 550.56,-769.48 543.82,-772.59"/>
<polygon fill="#63b8ff" stroke="#63b8ff" points="603.4,-685.48 609.97,-677.16 599.65,-679.56 603.4,-685.48"/>
</a>
</g>
</g>
<!-- Node20&#45;&gt;Node4 -->
<g id="edge24_Node000020_Node000004" class="edge">
<title>Node20&#45;&gt;Node4</title>
<g id="a_edge24_Node000020_Node000004"><a xlink:title=" ">
<path fill="none" stroke="#63b8ff" d="M600.38,-633.18C599.74,-633.76 599.11,-634.35 598.5,-634.96 557.09,-675.91 603.69,-719.78 562.5,-760.96 557.24,-766.21 550.96,-770.38 544.21,-773.68"/>
<polygon fill="#63b8ff" stroke="#63b8ff" points="602.25,-636.15 608.12,-627.33 598.03,-630.56 602.25,-636.15"/>
</a>
</g>
</g>
<!-- Node21 -->
<g id="Node000021" class="node">
<title>Node21</title>
<g id="a_Node000021"><a xlink:href="class_ainslie_a_p_i_1_1_controllers_1_1_green_id_controller.html#a41817b6b59661b9f6e71d2358bac56f5" target="_top" xlink:title="Tests the dynamic deserialisation and updating of Netsuite IDs.">
<polygon fill="white" stroke="#666666" points="543.75,-751.96 404,-751.96 404,-719.96 543.75,-719.96 543.75,-751.96"/>
<text text-anchor="start" x="412" y="-738.46" font-family="Helvetica,sans-Serif" font-size="10.00">AinslieAPI.Controllers.Green</text>
<text text-anchor="middle" x="473.88" y="-726.46" font-family="Helvetica,sans-Serif" font-size="10.00">IdController.testdynamic</text>
</a>
</g>
</g>
<!-- Node20&#45;&gt;Node21 -->
<g id="edge25_Node000020_Node000021" class="edge">
<title>Node20&#45;&gt;Node21</title>
<g id="a_edge25_Node000020_Node000021"><a xlink:title=" ">
<path fill="none" stroke="#63b8ff" d="M601.89,-632.29C600.73,-633.15 599.6,-634.03 598.5,-634.96 569.86,-658.97 591.01,-686.79 562.5,-710.96 556.95,-715.66 550.56,-719.48 543.82,-722.59"/>
<polygon fill="#63b8ff" stroke="#63b8ff" points="603.4,-635.48 609.97,-627.16 599.65,-629.56 603.4,-635.48"/>
</a>
</g>
</g>
<!-- Node22&#45;&gt;Node6 -->
<g id="edge29_Node000022_Node000006" class="edge">
<title>Node22&#45;&gt;Node6</title>
<g id="a_edge29_Node000022_Node000006"><a xlink:title=" ">
<path fill="none" stroke="#63b8ff" d="M807.79,-395.71C791.54,-397.7 774.79,-399.76 759.25,-401.67"/>
<polygon fill="#63b8ff" stroke="#63b8ff" points="807.94,-399.21 817.44,-394.52 807.09,-392.27 807.94,-399.21"/>
</a>
</g>
</g>
<!-- Node22&#45;&gt;Node9 -->
<g id="edge30_Node000022_Node000009" class="edge">
<title>Node22&#45;&gt;Node9</title>
<g id="a_edge30_Node000022_Node000009"><a xlink:title=" ">
<path fill="none" stroke="#63b8ff" d="M888.51,-412.09C871.49,-478.52 825.16,-646.66 783.25,-684.96 779,-688.84 774.2,-692.13 769.09,-694.91"/>
<polygon fill="#63b8ff" stroke="#63b8ff" points="891.81,-413.3 890.87,-402.75 885.03,-411.58 891.81,-413.3"/>
</a>
</g>
</g>
<!-- Node22&#45;&gt;Node10 -->
<g id="edge31_Node000022_Node000010" class="edge">
<title>Node22&#45;&gt;Node10</title>
<g id="a_edge31_Node000022_Node000010"><a xlink:title=" ">
<path fill="none" stroke="#63b8ff" d="M882.57,-411.37C864.99,-445.15 830.02,-503.08 783.25,-534.96 775.23,-540.42 766.06,-544.69 756.68,-548.04"/>
<polygon fill="#63b8ff" stroke="#63b8ff" points="885.58,-413.17 886.97,-402.67 879.33,-410.01 885.58,-413.17"/>
</a>
</g>
</g>
<!-- Node22&#45;&gt;Node12 -->
<g id="edge33_Node000022_Node000012" class="edge">
<title>Node22&#45;&gt;Node12</title>
<g id="a_edge33_Node000022_Node000012"><a xlink:title=" ">
<path fill="none" stroke="#63b8ff" d="M857.25,-363.18C836.18,-352.37 809.08,-340.46 783.25,-334.96 696.75,-316.52 457.34,-283.71 385.25,-334.96 271.14,-416.08 262.73,-611.87 262.82,-669.65"/>
<polygon fill="#63b8ff" stroke="#63b8ff" points="855.56,-366.25 866.03,-367.83 858.83,-360.06 855.56,-366.25"/>
</a>
</g>
</g>
<!-- Node22&#45;&gt;Node14 -->
<g id="edge32_Node000022_Node000014" class="edge">
<title>Node22&#45;&gt;Node14</title>
<g id="a_edge32_Node000022_Node000014"><a xlink:title=" ">
<path fill="none" stroke="#63b8ff" d="M873.79,-409.81C852.86,-432.54 819.04,-465.5 783.25,-484.96 777.04,-488.33 770.33,-491.28 763.48,-493.85"/>
<polygon fill="#63b8ff" stroke="#63b8ff" points="876.3,-412.24 880.4,-402.47 871.11,-407.56 876.3,-412.24"/>
</a>
</g>
</g>
<!-- Node22&#45;&gt;Node17 -->
<g id="edge39_Node000022_Node000017" class="edge">
<title>Node22&#45;&gt;Node17</title>
<g id="a_edge39_Node000022_Node000017"><a xlink:title=" ">
<path fill="none" stroke="#63b8ff" d="M894.36,-357.57C890.74,-297.1 872.69,-152.55 783.25,-88.96 561.87,68.46 404.53,-3.67 175,-148.96 133.91,-174.97 98.43,-221.11 81.35,-245.61"/>
<polygon fill="#63b8ff" stroke="#63b8ff" points="890.85,-357.49 894.84,-367.3 897.84,-357.14 890.85,-357.49"/>
</a>
</g>
</g>
<!-- Node22&#45;&gt;Node18 -->
<g id="edge40_Node000022_Node000018" class="edge">
<title>Node22&#45;&gt;Node18</title>
<g id="a_edge40_Node000022_Node000018"><a xlink:title=" ">
<path fill="none" stroke="#63b8ff" d="M890.84,-412.43C881.09,-463.98 852.8,-575.37 783.25,-634.96 779.38,-638.27 775.1,-641.15 770.58,-643.65"/>
<polygon fill="#63b8ff" stroke="#63b8ff" points="894.26,-413.19 892.57,-402.73 887.37,-411.96 894.26,-413.19"/>
</a>
</g>
</g>
<!-- Node22&#45;&gt;Node19 -->
<g id="edge42_Node000022_Node000019" class="edge">
<title>Node22&#45;&gt;Node19</title>
<g id="a_edge42_Node000022_Node000019"><a xlink:title=" ">
<path fill="none" stroke="#63b8ff" d="M887.03,-411.82C862.2,-492.76 789.36,-729.1 783.25,-734.96 776.36,-741.55 767.91,-746.45 758.94,-750.07"/>
<polygon fill="#63b8ff" stroke="#63b8ff" points="890.3,-413.09 889.88,-402.5 883.61,-411.03 890.3,-413.09"/>
</a>
</g>
</g>
<!-- Node22&#45;&gt;Node20 -->
<g id="edge47_Node000022_Node000020" class="edge">
<title>Node22&#45;&gt;Node20</title>
<g id="a_edge47_Node000022_Node000020"><a xlink:title=" ">
<path fill="none" stroke="#63b8ff" d="M887.57,-412.08C873.92,-455.32 841.26,-539.59 783.25,-584.96 779.1,-588.2 774.57,-591.02 769.8,-593.48"/>
<polygon fill="#63b8ff" stroke="#63b8ff" points="890.86,-413.32 890.41,-402.74 884.16,-411.29 890.86,-413.32"/>
</a>
</g>
</g>
<!-- Node23 -->
<g id="Node000023" class="node">
<title>Node23</title>
<g id="a_Node000023"><a xlink:href="class_ainslie_a_p_i_1_1_controllers_1_1_g_s_s_1_1_tdcr_controller.html#a1ed8b7c2d20c40b06f57b02cd97058f0" target="_top" xlink:title="Constructs an error string based on the provided error code.">
<polygon fill="white" stroke="#666666" points="335.75,-299.96 188.5,-299.96 188.5,-267.96 335.75,-267.96 335.75,-299.96"/>
<text text-anchor="start" x="196.5" y="-286.46" font-family="Helvetica,sans-Serif" font-size="10.00">AinslieAPI.Controllers.GSS.</text>
<text text-anchor="middle" x="262.12" y="-274.46" font-family="Helvetica,sans-Serif" font-size="10.00">TdcrController.BuildErrorString</text>
</a>
</g>
</g>
<!-- Node22&#45;&gt;Node23 -->
<g id="edge27_Node000022_Node000023" class="edge">
<title>Node22&#45;&gt;Node23</title>
<g id="a_edge27_Node000022_Node000023"><a xlink:title=" ">
<path fill="none" stroke="#63b8ff" d="M872.03,-361.02C850.97,-341.09 817.99,-314.09 783.25,-301.96 631.21,-248.83 438.73,-260.96 335.84,-273.23"/>
<polygon fill="#63b8ff" stroke="#63b8ff" points="869.33,-363.28 878.94,-367.74 874.21,-358.26 869.33,-363.28"/>
</a>
</g>
</g>
<!-- Node24 -->
<g id="Node000024" class="node">
<title>Node24</title>
<g id="a_Node000024"><a xlink:href="class_ainslie_a_p_i_1_1_controllers_1_1_g_s_s_1_1_tdcr_controller.html#a2afd83d8bf3e0f4695d32ea1f255f4a5" target="_top" xlink:title="Fetches the current live price in AUD for a given asset based on the order request&#39;s market and side.">
<polygon fill="white" stroke="#666666" points="772,-249.96 609.75,-249.96 609.75,-217.96 772,-217.96 772,-249.96"/>
<text text-anchor="start" x="617.75" y="-236.46" font-family="Helvetica,sans-Serif" font-size="10.00">AinslieAPI.Controllers.GSS.</text>
<text text-anchor="middle" x="690.88" y="-224.46" font-family="Helvetica,sans-Serif" font-size="10.00">TdcrController.OrderLivePriceAUD</text>
</a>
</g>
</g>
<!-- Node22&#45;&gt;Node24 -->
<g id="edge34_Node000022_Node000024" class="edge">
<title>Node22&#45;&gt;Node24</title>
<g id="a_edge34_Node000022_Node000024"><a xlink:title=" ">
<path fill="none" stroke="#63b8ff" d="M877.84,-359.51C857.94,-332.24 822.94,-289.43 783.25,-263.96 774.82,-258.54 765.32,-254.02 755.72,-250.27"/>
<polygon fill="#63b8ff" stroke="#63b8ff" points="874.93,-361.46 883.59,-367.56 880.63,-357.39 874.93,-361.46"/>
</a>
</g>
</g>
<!-- Node25 -->
<g id="Node000025" class="node">
<title>Node25</title>
<g id="a_Node000025"><a xlink:href="class_ainslie_a_p_i_1_1_controllers_1_1_g_s_s_1_1_tdcr_controller.html#a5425d57dc6e7f08c36785f3ca41d30ab" target="_top" xlink:title="Determines whether the price specified in an order request falls outside the acceptable threshold as ...">
<polygon fill="white" stroke="#666666" points="562.5,-211.96 385.25,-211.96 385.25,-179.96 562.5,-179.96 562.5,-211.96"/>
<text text-anchor="start" x="393.25" y="-198.46" font-family="Helvetica,sans-Serif" font-size="10.00">AinslieAPI.Controllers.GSS.</text>
<text text-anchor="middle" x="473.88" y="-186.46" font-family="Helvetica,sans-Serif" font-size="10.00">TdcrController.PriceOutsideThreshold</text>
</a>
</g>
</g>
<!-- Node22&#45;&gt;Node25 -->
<g id="edge41_Node000022_Node000025" class="edge">
<title>Node22&#45;&gt;Node25</title>
<g id="a_edge41_Node000022_Node000025"><a xlink:title=" ">
<path fill="none" stroke="#63b8ff" d="M887,-357.88C873.02,-317.3 840.48,-241.96 783.25,-208.96 715.36,-169.81 624.4,-171.14 558.88,-179.49"/>
<polygon fill="#63b8ff" stroke="#63b8ff" points="883.59,-358.73 890.05,-367.13 890.24,-356.54 883.59,-358.73"/>
</a>
</g>
</g>
<!-- Node26 -->
<g id="Node000026" class="node">
<title>Node26</title>
<g id="a_Node000026"><a xlink:href="class_ainslie_a_p_i_1_1_controllers_1_1_g_s_s_1_1_tdcr_controller.html#acdce12cbf8d3ceb33fc727648bf58fc8" target="_top" xlink:title="Validates the provided order request against business rules.">
<polygon fill="white" stroke="#666666" points="349.25,-189.96 175,-189.96 175,-157.96 349.25,-157.96 349.25,-189.96"/>
<text text-anchor="start" x="183" y="-176.46" font-family="Helvetica,sans-Serif" font-size="10.00">AinslieAPI.Controllers.GSS.</text>
<text text-anchor="middle" x="262.12" y="-164.46" font-family="Helvetica,sans-Serif" font-size="10.00">TdcrController.ValidateOrderRequest</text>
</a>
</g>
</g>
<!-- Node22&#45;&gt;Node26 -->
<g id="edge48_Node000022_Node000026" class="edge">
<title>Node22&#45;&gt;Node26</title>
<g id="a_edge48_Node000022_Node000026"><a xlink:title=" ">
<path fill="none" stroke="#63b8ff" d="M890.26,-357.42C879.92,-309.54 851.21,-212.09 783.25,-170.96 712.76,-128.29 478.44,-147.98 349.7,-162.8"/>
<polygon fill="#63b8ff" stroke="#63b8ff" points="886.78,-357.88 892.2,-366.98 893.64,-356.49 886.78,-357.88"/>
</a>
</g>
</g>
<!-- Node27 -->
<g id="Node000027" class="node">
<title>Node27</title>
<g id="a_Node000027"><a xlink:href="class_ainslie_a_p_i_1_1_controllers_1_1_g_s_s_1_1_tdcr_controller.html#a464a5d3df062bef894118260d86989f3" target="_top" xlink:title="Checks if an order with the specified TDCR ID exists in the database.">
<polygon fill="white" stroke="#666666" points="548.62,-123.96 399.12,-123.96 399.12,-91.96 548.62,-91.96 548.62,-123.96"/>
<text text-anchor="start" x="407.12" y="-110.46" font-family="Helvetica,sans-Serif" font-size="10.00">AinslieAPI.Controllers.GSS.</text>
<text text-anchor="middle" x="473.88" y="-98.46" font-family="Helvetica,sans-Serif" font-size="10.00">TdcrController.TdcrOrderExists</text>
</a>
</g>
</g>
<!-- Node22&#45;&gt;Node27 -->
<g id="edge43_Node000022_Node000027" class="edge">
<title>Node22&#45;&gt;Node27</title>
<g id="a_edge43_Node000022_Node000027"><a xlink:title=" ">
<path fill="none" stroke="#63b8ff" d="M891.72,-357.4C883.4,-304.88 857.32,-190.95 783.25,-137.96 715.33,-89.36 616.38,-88.67 549.01,-95.66"/>
<polygon fill="#63b8ff" stroke="#63b8ff" points="888.22,-357.62 893.14,-367 895.14,-356.6 888.22,-357.62"/>
</a>
</g>
</g>
<!-- Node28 -->
<g id="Node000028" class="node">
<title>Node28</title>
<g id="a_Node000028"><a xlink:href="class_ainslie_a_p_i_1_1_services_1_1_log_service.html#aea52f6628afd6bcb55105bd0a2f1d8da" target="_top" xlink:title=" ">
<polygon fill="white" stroke="#666666" points="767.88,-375.96 613.88,-375.96 613.88,-343.96 767.88,-343.96 767.88,-375.96"/>
<text text-anchor="start" x="621.88" y="-362.46" font-family="Helvetica,sans-Serif" font-size="10.00">AinslieAPI.Services.LogService.</text>
<text text-anchor="middle" x="690.88" y="-350.46" font-family="Helvetica,sans-Serif" font-size="10.00">TrimLogs</text>
</a>
</g>
</g>
<!-- Node22&#45;&gt;Node28 -->
<g id="edge45_Node000022_Node000028" class="edge">
<title>Node22&#45;&gt;Node28</title>
<g id="a_edge45_Node000022_Node000028"><a xlink:title=" ">
<path fill="none" stroke="#63b8ff" d="M807.55,-374.18C794.48,-372.57 781.09,-370.92 768.27,-369.35"/>
<polygon fill="#63b8ff" stroke="#63b8ff" points="807.09,-377.64 817.44,-375.39 807.94,-370.7 807.09,-377.64"/>
</a>
</g>
</g>
<!-- Node23&#45;&gt;Node17 -->
<g id="edge28_Node000023_Node000017" class="edge">
<title>Node23&#45;&gt;Node17</title>
<g id="a_edge28_Node000023_Node000017"><a xlink:title=" ">
<path fill="none" stroke="#63b8ff" d="M177.05,-274.25C164.21,-272.77 151.09,-271.26 138.64,-269.82"/>
<polygon fill="#63b8ff" stroke="#63b8ff" points="176.4,-277.7 186.74,-275.37 177.21,-270.75 176.4,-277.7"/>
</a>
</g>
</g>
<!-- Node24&#45;&gt;Node17 -->
<g id="edge35_Node000024_Node000017" class="edge">
<title>Node24&#45;&gt;Node17</title>
<g id="a_edge35_Node000024_Node000017"><a xlink:title=" ">
<path fill="none" stroke="#63b8ff" d="M598.06,-238.11C472.46,-243.78 249.96,-253.84 138.34,-258.89"/>
<polygon fill="#63b8ff" stroke="#63b8ff" points="598.19,-241.6 608.03,-237.66 597.88,-234.61 598.19,-241.6"/>
</a>
</g>
</g>
<!-- Node24&#45;&gt;Node25 -->
<g id="edge36_Node000024_Node000025" class="edge">
<title>Node24&#45;&gt;Node25</title>
<g id="a_edge36_Node000024_Node000025"><a xlink:title=" ">
<path fill="none" stroke="#63b8ff" d="M598.3,-217.77C586.5,-215.68 574.45,-213.55 562.71,-211.48"/>
<polygon fill="#63b8ff" stroke="#63b8ff" points="597.56,-221.19 608.02,-219.49 598.78,-214.3 597.56,-221.19"/>
</a>
</g>
</g>
<!-- Node25&#45;&gt;Node26 -->
<g id="edge37_Node000025_Node000026" class="edge">
<title>Node25&#45;&gt;Node26</title>
<g id="a_edge37_Node000025_Node000026"><a xlink:title=" ">
<path fill="none" stroke="#63b8ff" d="M373.56,-185.54C365.55,-184.7 357.5,-183.85 349.6,-183.02"/>
<polygon fill="#63b8ff" stroke="#63b8ff" points="373.02,-189 383.33,-186.56 373.75,-182.04 373.02,-189"/>
</a>
</g>
</g>
<!-- Node26&#45;&gt;Node17 -->
<g id="edge38_Node000026_Node000017" class="edge">
<title>Node26&#45;&gt;Node17</title>
<g id="a_edge38_Node000026_Node000017"><a xlink:title=" ">
<path fill="none" stroke="#63b8ff" d="M215.69,-194.93C182.1,-210.43 137.01,-231.25 106.04,-245.55"/>
<polygon fill="#63b8ff" stroke="#63b8ff" points="216.73,-198.3 224.34,-190.94 213.8,-191.95 216.73,-198.3"/>
</a>
</g>
</g>
<!-- Node27&#45;&gt;Node26 -->
<g id="edge44_Node000027_Node000026" class="edge">
<title>Node27&#45;&gt;Node26</title>
<g id="a_edge44_Node000027_Node000026"><a xlink:title=" ">
<path fill="none" stroke="#63b8ff" d="M409.64,-127.85C379.46,-137.35 343.8,-148.57 315.21,-157.57"/>
<polygon fill="#63b8ff" stroke="#63b8ff" points="410.56,-131.23 419.04,-124.89 408.45,-124.56 410.56,-131.23"/>
</a>
</g>
</g>
<!-- Node29 -->
<g id="Node000029" class="node">
<title>Node29</title>
<g id="a_Node000029"><a xlink:href="class_ainslie_a_p_i_1_1_controllers_1_1_logs_controller.html#aea8072dbf59418b035df6b786ecae9c0" target="_top" xlink:title="Trims logs based on predefined criteria to manage database size.">
<polygon fill="white" stroke="#666666" points="541.12,-375.96 406.62,-375.96 406.62,-343.96 541.12,-343.96 541.12,-375.96"/>
<text text-anchor="start" x="414.62" y="-362.46" font-family="Helvetica,sans-Serif" font-size="10.00">AinslieAPI.Controllers.Logs</text>
<text text-anchor="middle" x="473.88" y="-350.46" font-family="Helvetica,sans-Serif" font-size="10.00">Controller.TrimLogs</text>
</a>
</g>
</g>
<!-- Node28&#45;&gt;Node29 -->
<g id="edge46_Node000028_Node000029" class="edge">
<title>Node28&#45;&gt;Node29</title>
<g id="a_edge46_Node000028_Node000029"><a xlink:title=" ">
<path fill="none" stroke="#63b8ff" d="M602.01,-359.96C581.77,-359.96 560.57,-359.96 541.4,-359.96"/>
<polygon fill="#63b8ff" stroke="#63b8ff" points="601.96,-363.46 611.96,-359.96 601.96,-356.46 601.96,-363.46"/>
</a>
</g>
</g>
<!-- Node30&#45;&gt;Node4 -->
<g id="edge51_Node000030_Node000004" class="edge">
<title>Node30&#45;&gt;Node4</title>
<g id="a_edge51_Node000030_Node000004"><a xlink:title=" ">
<path fill="none" stroke="#63b8ff" d="M604.65,-478.97C602.45,-480.79 600.39,-482.79 598.5,-484.96 517.24,-578.22 643.26,-667.25 562.5,-760.96 557.44,-766.83 551.11,-771.37 544.17,-774.87"/>
<polygon fill="#63b8ff" stroke="#63b8ff" points="606.23,-482.13 612.48,-473.58 602.26,-476.37 606.23,-482.13"/>
</a>
</g>
</g>
<!-- Node30&#45;&gt;Node7 -->
<g id="edge53_Node000030_Node000007" class="edge">
<title>Node30&#45;&gt;Node7</title>
<g id="a_edge53_Node000030_Node000007"><a xlink:title=" ">
<path fill="none" stroke="#63b8ff" d="M608.21,-440.96C587.6,-436.17 565.64,-431.06 545.61,-426.41"/>
<polygon fill="#63b8ff" stroke="#63b8ff" points="607.17,-444.31 617.7,-443.17 608.76,-437.5 607.17,-444.31"/>
</a>
</g>
</g>
<!-- Node30&#45;&gt;Node8 -->
<g id="edge56_Node000030_Node000008" class="edge">
<title>Node30&#45;&gt;Node8</title>
<g id="a_edge56_Node000030_Node000008"><a xlink:title=" ">
<path fill="none" stroke="#63b8ff" d="M602.1,-459.96C587.76,-459.96 572.94,-459.96 558.7,-459.96"/>
<polygon fill="#63b8ff" stroke="#63b8ff" points="601.96,-463.46 611.96,-459.96 601.96,-456.46 601.96,-463.46"/>
</a>
</g>
</g>
<!-- Node30&#45;&gt;Node11 -->
<g id="edge55_Node000030_Node000011" class="edge">
<title>Node30&#45;&gt;Node11</title>
<g id="a_edge55_Node000030_Node000011"><a xlink:title=" ">
<path fill="none" stroke="#63b8ff" d="M604.21,-479.66C602.19,-481.29 600.28,-483.05 598.5,-484.96 543.92,-543.22 616.77,-602.39 562.5,-660.96 558.74,-665.02 554.36,-668.43 549.62,-671.31"/>
<polygon fill="#63b8ff" stroke="#63b8ff" points="606.07,-482.63 612.41,-474.14 602.16,-476.82 606.07,-482.63"/>
</a>
</g>
</g>
<!-- Node30&#45;&gt;Node15 -->
<g id="edge54_Node000030_Node000015" class="edge">
<title>Node30&#45;&gt;Node15</title>
<g id="a_edge54_Node000030_Node000015"><a xlink:title=" ">
<path fill="none" stroke="#63b8ff" d="M603.82,-480.91C601.98,-482.18 600.2,-483.53 598.5,-484.96 569.86,-508.97 591.01,-536.79 562.5,-560.96 558.64,-564.23 554.37,-567.07 549.87,-569.55"/>
<polygon fill="#63b8ff" stroke="#63b8ff" points="605.35,-484.07 612.16,-475.96 601.78,-478.05 605.35,-484.07"/>
</a>
</g>
</g>
<!-- Node30&#45;&gt;Node16 -->
<g id="edge57_Node000030_Node000016" class="edge">
<title>Node30&#45;&gt;Node16</title>
<g id="a_edge57_Node000030_Node000016"><a xlink:title=" ">
<path fill="none" stroke="#63b8ff" d="M604.24,-479.96C602.23,-481.51 600.31,-483.17 598.5,-484.96 557.09,-525.91 603.69,-569.78 562.5,-610.96 559.26,-614.2 555.62,-617.03 551.73,-619.5"/>
<polygon fill="#63b8ff" stroke="#63b8ff" points="605.84,-483.1 612.34,-474.73 602.04,-477.22 605.84,-483.1"/>
</a>
</g>
</g>
<!-- Node30&#45;&gt;Node17 -->
<g id="edge52_Node000030_Node000017" class="edge">
<title>Node30&#45;&gt;Node17</title>
<g id="a_edge52_Node000030_Node000017"><a xlink:title=" ">
<path fill="none" stroke="#63b8ff" d="M607.55,-478.53C592.63,-481.2 577.16,-483.53 562.5,-484.96 484.09,-492.58 460.32,-508.85 385.25,-484.96 252.84,-442.8 128.29,-322.47 85.85,-278.4"/>
<polygon fill="#63b8ff" stroke="#63b8ff" points="608.15,-481.98 617.34,-476.7 606.86,-475.1 608.15,-481.98"/>
</a>
</g>
</g>
<!-- Node30&#45;&gt;Node29 -->
<g id="edge58_Node000030_Node000029" class="edge">
<title>Node30&#45;&gt;Node29</title>
<g id="a_edge58_Node000030_Node000029"><a xlink:title=" ">
<path fill="none" stroke="#63b8ff" d="M603.98,-438.47C602.1,-437.36 600.27,-436.19 598.5,-434.96 576.01,-419.34 584.91,-400.69 562.5,-384.96 556.03,-380.41 548.74,-376.68 541.2,-373.63"/>
<polygon fill="#63b8ff" stroke="#63b8ff" points="601.9,-441.33 612.39,-442.87 605.15,-435.13 601.9,-441.33"/>
</a>
</g>
</g>
<!-- Node31 -->
<g id="Node000031" class="node">
<title>Node31</title>
<g id="a_Node000031"><a xlink:href="_program_8cs.html#a5f7387dcdc9224fb2465abfedb39f33e" target="_top" xlink:title=" ">
<polygon fill="white" stroke="#666666" points="553.12,-551.96 394.62,-551.96 394.62,-531.96 553.12,-531.96 553.12,-551.96"/>
<text text-anchor="middle" x="473.88" y="-538.46" font-family="Helvetica,sans-Serif" font-size="10.00">AddAuth0WebAppAuthentication</text>
</a>
</g>
</g>
<!-- Node30&#45;&gt;Node31 -->
<g id="edge50_Node000030_Node000031" class="edge">
<title>Node30&#45;&gt;Node31</title>
<g id="a_edge50_Node000030_Node000031"><a xlink:title=" ">
<path fill="none" stroke="#63b8ff" d="M606.78,-480.77C603.94,-482.08 601.17,-483.48 598.5,-484.96 579.5,-495.45 581.5,-507.46 562.5,-517.96 552.14,-523.67 540.34,-528.1 528.81,-531.51"/>
<polygon fill="#63b8ff" stroke="#63b8ff" points="608.02,-484.04 615.88,-476.93 605.3,-477.59 608.02,-484.04"/>
</a>
</g>
</g>
</g>
</svg>
