<?xml version="1.0" encoding="UTF-8" standalone="no"?>
<!DOCTYPE svg PUBLIC "-//W3C//DTD SVG 1.1//EN"
 "http://www.w3.org/Graphics/SVG/1.1/DTD/svg11.dtd">
<!-- Generated by graphviz version 9.0.0 (20230911.1827)
 -->
<!-- Title: AinslieAPI.Controllers.GreenIdController.NewVerification Pages: 1 -->
<!--zoomable 310 -->

<svg id="main" version="1.1" xmlns="http://www.w3.org/2000/svg" xmlns:xlink="http://www.w3.org/1999/xlink" xml:space="preserve" onload="init(evt)">
<style type="text/css"><![CDATA[
.node, .edge {opacity: 0.7;}
.node.selected, .edge.selected {opacity: 1;}
.edge:hover path { stroke: red; }
.edge:hover polygon { stroke: red; fill: red; }
]]></style>

<defs>
  <circle id="rim" cx="0" cy="0" r="7"/>
  <circle id="rim2" cx="0" cy="0" r="3.5"/>
  <g id="zoomPlus">
    <use xlink:href="#rim" fill="#404040"><set attributeName="fill" to="#808080" begin="zoomplus.mouseover" end="zoomplus.mouseout"/></use>
    <path d="M-4,0h8M0,-4v8" fill="none" stroke="white" stroke-width="1.5" pointer-events="none"/>
  </g>
  <g id="zoomMin">
    <use xlink:href="#rim" fill="#404040"><set attributeName="fill" to="#808080" begin="zoomminus.mouseover" end="zoomminus.mouseout"/></use>
    <path d="M-4,0h8" fill="none" stroke="white" stroke-width="1.5" pointer-events="none"/>
  </g>
  <g id="arrowUp" transform="translate(30 24)">
    <use xlink:href="#rim"/>
    <path pointer-events="none" fill="none" stroke="white" stroke-width="1.5" d="M0,-3.0v7 M-2.5,-0.5L0,-3.0L2.5,-0.5"/>
  </g>
  <g id="arrowRight" transform="rotate(90) translate(36 -43)">
    <use xlink:href="#rim"/>
    <path pointer-events="none" fill="none" stroke="white" stroke-width="1.5" d="M0,-3.0v7 M-2.5,-0.5L0,-3.0L2.5,-0.5"/>
  </g>
  <g id="arrowDown" transform="rotate(180) translate(-30 -48)">
    <use xlink:href="#rim"/>
    <path pointer-events="none" fill="none" stroke="white" stroke-width="1.5" d="M0,-3.0v7 M-2.5,-0.5L0,-3.0L2.5,-0.5"/>
  </g>
  <g id="arrowLeft" transform="rotate(270) translate(-36 17)">
    <use xlink:href="#rim"/>
    <path pointer-events="none" fill="none" stroke="white" stroke-width="1.5" d="M0,-3.0v7 M-2.5,-0.5L0,-3.0L2.5,-0.5"/>
  </g>
  <g id="resetDef">
    <use xlink:href="#rim2" fill="#404040"><set attributeName="fill" to="#808080" begin="reset.mouseover" end="reset.mouseout"/></use>
  </g>
</defs>
<script type="application/ecmascript">
var viewWidth = 943;
var viewHeight = 310;
var sectionId = 'dynsection-2';
</script>
<script type="application/ecmascript" xlink:href="svg.min.js"/>
<svg id="graph" class="graph">
<g id="viewport">
<title>AinslieAPI.Controllers.GreenIdController.NewVerification</title>
<!-- Node1 -->
<g id="Node000001" class="node">
<title>Node1</title>
<g id="a_Node000001"><a xlink:title="Initiates a new customer verification process, accommodating both GET and POST requests.">
<polygon fill="#999999" stroke="#666666" points="139.75,-164 0,-164 0,-132 139.75,-132 139.75,-164"/>
<text text-anchor="start" x="8" y="-150.5" font-family="Helvetica,sans-Serif" font-size="10.00">AinslieAPI.Controllers.Green</text>
<text text-anchor="middle" x="69.88" y="-138.5" font-family="Helvetica,sans-Serif" font-size="10.00">IdController.NewVerification</text>
</a>
</g>
</g>
<!-- Node2 -->
<g id="Node000002" class="node">
<title>Node2</title>
<g id="a_Node000002"><a xlink:href="class_ainslie_a_p_i_1_1_helpers_1_1_netsuite_helper.html#aaade37ab8e2956507c377c5b30af6a0a" target="_top" xlink:title="Creates a request object for creating or updating a customer in Netsuite based on Green ID verificati...">
<polygon fill="white" stroke="#666666" points="365,-302 175.75,-302 175.75,-270 365,-270 365,-302"/>
<text text-anchor="start" x="183.75" y="-288.5" font-family="Helvetica,sans-Serif" font-size="10.00">AinslieAPI.Helpers.Netsuite</text>
<text text-anchor="middle" x="270.38" y="-276.5" font-family="Helvetica,sans-Serif" font-size="10.00">Helper.CreateNetsuiteCustomerRequest</text>
</a>
</g>
</g>
<!-- Node1&#45;&gt;Node2 -->
<g id="edge1_Node000001_Node000002" class="edge">
<title>Node1&#45;&gt;Node2</title>
<g id="a_edge1_Node000001_Node000002"><a xlink:title=" ">
<path fill="none" stroke="#63b8ff" d="M82.55,-164.35C100.16,-187.89 135.77,-231.21 175.75,-256 181.33,-259.46 187.34,-262.55 193.53,-265.32"/>
<polygon fill="#63b8ff" stroke="#63b8ff" points="192.09,-268.51 202.67,-269.09 194.76,-262.04 192.09,-268.51"/>
</a>
</g>
</g>
<!-- Node3 -->
<g id="Node000003" class="node">
<title>Node3</title>
<g id="a_Node000003"><a xlink:href="class_ainslie_a_p_i_1_1_services_1_1_internal_api_service.html#ac96a3e52c78c6b67de6a0f244fd70a60" target="_top" xlink:title="Retrieves Green ID customer data from Internal API based on the specified branch and user ID.">
<polygon fill="white" stroke="#666666" points="348.5,-214 192.25,-214 192.25,-182 348.5,-182 348.5,-214"/>
<text text-anchor="start" x="200.25" y="-200.5" font-family="Helvetica,sans-Serif" font-size="10.00">AinslieAPI.Services.Internal</text>
<text text-anchor="middle" x="270.38" y="-188.5" font-family="Helvetica,sans-Serif" font-size="10.00">ApiService.GetGreenIdCustomer</text>
</a>
</g>
</g>
<!-- Node1&#45;&gt;Node3 -->
<g id="edge2_Node000001_Node000003" class="edge">
<title>Node1&#45;&gt;Node3</title>
<g id="a_edge2_Node000001_Node000003"><a xlink:title=" ">
<path fill="none" stroke="#63b8ff" d="M136.15,-164.44C154.38,-169.03 174.35,-174.06 193.15,-178.8"/>
<polygon fill="#63b8ff" stroke="#63b8ff" points="192.04,-182.13 202.6,-181.18 193.75,-175.34 192.04,-182.13"/>
</a>
</g>
</g>
<!-- Node4 -->
<g id="Node000004" class="node">
<title>Node4</title>
<g id="a_Node000004"><a xlink:href="class_ainslie_a_p_i_1_1_services_1_1_log_service.html#a9bf79a218e0884ac9cabd3ac87b81321" target="_top" xlink:title=" ">
<polygon fill="white" stroke="#666666" points="555,-182 401,-182 401,-150 555,-150 555,-182"/>
<text text-anchor="start" x="409" y="-168.5" font-family="Helvetica,sans-Serif" font-size="10.00">AinslieAPI.Services.LogService.</text>
<text text-anchor="middle" x="478" y="-156.5" font-family="Helvetica,sans-Serif" font-size="10.00">LogError</text>
</a>
</g>
</g>
<!-- Node1&#45;&gt;Node4 -->
<g id="edge10_Node000001_Node000004" class="edge">
<title>Node1&#45;&gt;Node4</title>
<g id="a_edge10_Node000001_Node000004"><a xlink:title=" ">
<path fill="none" stroke="#63b8ff" d="M86.84,-164.42C105.97,-182.8 139.94,-211.51 175.75,-223 255.84,-248.69 283.21,-242.62 365,-223 393.02,-216.28 421.94,-201.32 443.38,-188.41"/>
<polygon fill="#63b8ff" stroke="#63b8ff" points="445.02,-191.51 451.68,-183.27 441.33,-185.56 445.02,-191.51"/>
</a>
</g>
</g>
<!-- Node8 -->
<g id="Node000008" class="node">
<title>Node8</title>
<g id="a_Node000008"><a xlink:href="class_ainslie_a_p_i_1_1_services_1_1_log_service.html#a9898f5cd3f6b2ea29e40c885721f4a63" target="_top" xlink:title=" ">
<polygon fill="white" stroke="#666666" points="555,-82 401,-82 401,-50 555,-50 555,-82"/>
<text text-anchor="start" x="409" y="-68.5" font-family="Helvetica,sans-Serif" font-size="10.00">AinslieAPI.Services.LogService.</text>
<text text-anchor="middle" x="478" y="-56.5" font-family="Helvetica,sans-Serif" font-size="10.00">LogDebug</text>
</a>
</g>
</g>
<!-- Node1&#45;&gt;Node8 -->
<g id="edge8_Node000001_Node000008" class="edge">
<title>Node1&#45;&gt;Node8</title>
<g id="a_edge8_Node000001_Node000008"><a xlink:title=" ">
<path fill="none" stroke="#63b8ff" d="M86.89,-131.72C106.06,-113.48 140.08,-84.9 175.75,-73 244.89,-49.93 328.01,-49.9 389.4,-54.66"/>
<polygon fill="#63b8ff" stroke="#63b8ff" points="388.84,-58.13 399.1,-55.48 389.43,-51.15 388.84,-58.13"/>
</a>
</g>
</g>
<!-- Node9 -->
<g id="Node000009" class="node">
<title>Node9</title>
<g id="a_Node000009"><a xlink:href="class_ainslie_a_p_i_1_1_services_1_1_log_service.html#a917b9af360c0c6521ce36f4acbc72023" target="_top" xlink:title=" ">
<polygon fill="white" stroke="#666666" points="555,-32 401,-32 401,0 555,0 555,-32"/>
<text text-anchor="start" x="409" y="-18.5" font-family="Helvetica,sans-Serif" font-size="10.00">AinslieAPI.Services.LogService.</text>
<text text-anchor="middle" x="478" y="-6.5" font-family="Helvetica,sans-Serif" font-size="10.00">LogInformation</text>
</a>
</g>
</g>
<!-- Node1&#45;&gt;Node9 -->
<g id="edge11_Node000001_Node000009" class="edge">
<title>Node1&#45;&gt;Node9</title>
<g id="a_edge11_Node000001_Node000009"><a xlink:title=" ">
<path fill="none" stroke="#63b8ff" d="M82.25,-131.82C99.5,-108.74 134.66,-67.03 175.75,-48 242.81,-16.94 327,-10.34 389.32,-10.7"/>
<polygon fill="#63b8ff" stroke="#63b8ff" points="389.14,-14.2 399.18,-10.82 389.23,-7.2 389.14,-14.2"/>
</a>
</g>
</g>
<!-- Node10 -->
<g id="Node000010" class="node">
<title>Node10</title>
<g id="a_Node000010"><a xlink:href="class_ainslie_a_p_i_1_1_services_1_1_internal_api_service.html#a7a070bb565246fb698283432930d9cd1" target="_top" xlink:title="Submits customer data to Netsuite via Internal API and retrieves the Netsuite customer ID.">
<polygon fill="white" stroke="#666666" points="351.88,-164 188.88,-164 188.88,-132 351.88,-132 351.88,-164"/>
<text text-anchor="start" x="196.88" y="-150.5" font-family="Helvetica,sans-Serif" font-size="10.00">AinslieAPI.Services.Internal</text>
<text text-anchor="middle" x="270.38" y="-138.5" font-family="Helvetica,sans-Serif" font-size="10.00">ApiService.PostNetsuiteCustomer</text>
</a>
</g>
</g>
<!-- Node1&#45;&gt;Node10 -->
<g id="edge13_Node000001_Node000010" class="edge">
<title>Node1&#45;&gt;Node10</title>
<g id="a_edge13_Node000001_Node000010"><a xlink:title=" ">
<path fill="none" stroke="#63b8ff" d="M140.02,-148C152.02,-148 164.66,-148 177.15,-148"/>
<polygon fill="#63b8ff" stroke="#63b8ff" points="177.04,-151.5 187.04,-148 177.04,-144.5 177.04,-151.5"/>
</a>
</g>
</g>
<!-- Node11 -->
<g id="Node000011" class="node">
<title>Node11</title>
<g id="a_Node000011"><a xlink:href="class_ainslie_a_p_i_1_1_services_1_1_internal_api_service.html#aa8c183f663dbc4061a007aee4e5cf28e" target="_top" xlink:title="Updates the Netsuite ID associated with a specific Green ID record in the database.">
<polygon fill="white" stroke="#666666" points="362.75,-114 178,-114 178,-82 362.75,-82 362.75,-114"/>
<text text-anchor="start" x="186" y="-100.5" font-family="Helvetica,sans-Serif" font-size="10.00">AinslieAPI.Services.Internal</text>
<text text-anchor="middle" x="270.38" y="-88.5" font-family="Helvetica,sans-Serif" font-size="10.00">ApiService.UpdateGreenIdDbNetsuiteId</text>
</a>
</g>
</g>
<!-- Node1&#45;&gt;Node11 -->
<g id="edge16_Node000001_Node000011" class="edge">
<title>Node1&#45;&gt;Node11</title>
<g id="a_edge16_Node000001_Node000011"><a xlink:title=" ">
<path fill="none" stroke="#63b8ff" d="M136.15,-131.56C154.38,-126.97 174.35,-121.94 193.15,-117.2"/>
<polygon fill="#63b8ff" stroke="#63b8ff" points="193.75,-120.66 202.6,-114.82 192.04,-113.87 193.75,-120.66"/>
</a>
</g>
</g>
<!-- Node3&#45;&gt;Node4 -->
<g id="edge3_Node000003_Node000004" class="edge">
<title>Node3&#45;&gt;Node4</title>
<g id="a_edge3_Node000003_Node000004"><a xlink:title=" ">
<path fill="none" stroke="#63b8ff" d="M348.82,-185.95C362.07,-183.89 375.92,-181.73 389.42,-179.63"/>
<polygon fill="#63b8ff" stroke="#63b8ff" points="389.81,-183.11 399.15,-178.11 388.73,-176.19 389.81,-183.11"/>
</a>
</g>
</g>
<!-- Node7 -->
<g id="Node000007" class="node">
<title>Node7</title>
<g id="a_Node000007"><a xlink:href="class_ainslie_a_p_i_1_1_services_1_1_log_service.html#a83bbf569dea7ea5a40e02fca200aad8c" target="_top" xlink:title=" ">
<polygon fill="white" stroke="#666666" points="555,-132 401,-132 401,-100 555,-100 555,-132"/>
<text text-anchor="start" x="409" y="-118.5" font-family="Helvetica,sans-Serif" font-size="10.00">AinslieAPI.Services.LogService.</text>
<text text-anchor="middle" x="478" y="-106.5" font-family="Helvetica,sans-Serif" font-size="10.00">LogException</text>
</a>
</g>
</g>
<!-- Node3&#45;&gt;Node7 -->
<g id="edge6_Node000003_Node000007" class="edge">
<title>Node3&#45;&gt;Node7</title>
<g id="a_edge6_Node000003_Node000007"><a xlink:title=" ">
<path fill="none" stroke="#63b8ff" d="M345.71,-181.64C352.4,-179.13 358.93,-176.27 365,-173 383.85,-162.85 382.45,-151.68 401,-141 403.34,-139.66 405.76,-138.37 408.23,-137.15"/>
<polygon fill="#63b8ff" stroke="#63b8ff" points="409.61,-140.36 417.28,-133.06 406.73,-133.98 409.61,-140.36"/>
</a>
</g>
</g>
<!-- Node5 -->
<g id="Node000005" class="node">
<title>Node5</title>
<g id="a_Node000005"><a xlink:href="class_ainslie_a_p_i_1_1_services_1_1_log_service.html#a3c2dce5ed306365dfa416f700e5360cf" target="_top" xlink:title="inserts log to database">
<polygon fill="white" stroke="#666666" points="745,-107 591,-107 591,-75 745,-75 745,-107"/>
<text text-anchor="start" x="599" y="-93.5" font-family="Helvetica,sans-Serif" font-size="10.00">AinslieAPI.Services.LogService.</text>
<text text-anchor="middle" x="668" y="-81.5" font-family="Helvetica,sans-Serif" font-size="10.00">InsertLog</text>
</a>
</g>
</g>
<!-- Node4&#45;&gt;Node5 -->
<g id="edge4_Node000004_Node000005" class="edge">
<title>Node4&#45;&gt;Node5</title>
<g id="a_edge4_Node000004_Node000005"><a xlink:title=" ">
<path fill="none" stroke="#63b8ff" d="M531.17,-149.62C539.2,-146.88 547.36,-143.95 555,-141 577.5,-132.3 602.01,-121.52 622.35,-112.19"/>
<polygon fill="#63b8ff" stroke="#63b8ff" points="623.59,-115.47 631.2,-108.1 620.65,-109.12 623.59,-115.47"/>
</a>
</g>
</g>
<!-- Node6 -->
<g id="Node000006" class="node">
<title>Node6</title>
<g id="a_Node000006"><a xlink:href="class_ainslie_a_p_i_1_1_services_1_1_log_service.html#a6342d4add22dfffd5dadb5a7b3f112bc" target="_top" xlink:title="writes a text file log to [App home directory]/log">
<polygon fill="white" stroke="#666666" points="935,-107 781,-107 781,-75 935,-75 935,-107"/>
<text text-anchor="start" x="789" y="-93.5" font-family="Helvetica,sans-Serif" font-size="10.00">AinslieAPI.Services.LogService.</text>
<text text-anchor="middle" x="858" y="-81.5" font-family="Helvetica,sans-Serif" font-size="10.00">WriteLog</text>
</a>
</g>
</g>
<!-- Node5&#45;&gt;Node6 -->
<g id="edge5_Node000005_Node000006" class="edge">
<title>Node5&#45;&gt;Node6</title>
<g id="a_edge5_Node000005_Node000006"><a xlink:title=" ">
<path fill="none" stroke="#63b8ff" d="M745.47,-91C753.25,-91 761.21,-91 769.1,-91"/>
<polygon fill="#63b8ff" stroke="#63b8ff" points="769.09,-94.5 779.09,-91 769.09,-87.5 769.09,-94.5"/>
</a>
</g>
</g>
<!-- Node7&#45;&gt;Node5 -->
<g id="edge7_Node000007_Node000005" class="edge">
<title>Node7&#45;&gt;Node5</title>
<g id="a_edge7_Node000007_Node000005"><a xlink:title=" ">
<path fill="none" stroke="#63b8ff" d="M555.47,-105.83C563.34,-104.78 571.39,-103.71 579.38,-102.65"/>
<polygon fill="#63b8ff" stroke="#63b8ff" points="579.65,-106.15 589.1,-101.36 578.73,-99.21 579.65,-106.15"/>
</a>
</g>
</g>
<!-- Node8&#45;&gt;Node5 -->
<g id="edge9_Node000008_Node000005" class="edge">
<title>Node8&#45;&gt;Node5</title>
<g id="a_edge9_Node000008_Node000005"><a xlink:title=" ">
<path fill="none" stroke="#63b8ff" d="M555.47,-76.17C563.34,-77.22 571.39,-78.29 579.38,-79.35"/>
<polygon fill="#63b8ff" stroke="#63b8ff" points="578.73,-82.79 589.1,-80.64 579.65,-75.85 578.73,-82.79"/>
</a>
</g>
</g>
<!-- Node9&#45;&gt;Node5 -->
<g id="edge12_Node000009_Node000005" class="edge">
<title>Node9&#45;&gt;Node5</title>
<g id="a_edge12_Node000009_Node000005"><a xlink:title=" ">
<path fill="none" stroke="#63b8ff" d="M531.17,-32.38C539.2,-35.12 547.36,-38.05 555,-41 577.5,-49.7 602.01,-60.48 622.35,-69.81"/>
<polygon fill="#63b8ff" stroke="#63b8ff" points="620.65,-72.88 631.2,-73.9 623.59,-66.53 620.65,-72.88"/>
</a>
</g>
</g>
<!-- Node10&#45;&gt;Node4 -->
<g id="edge14_Node000010_Node000004" class="edge">
<title>Node10&#45;&gt;Node4</title>
<g id="a_edge14_Node000010_Node000004"><a xlink:title=" ">
<path fill="none" stroke="#63b8ff" d="M352.35,-155.09C364.57,-156.16 377.22,-157.27 389.56,-158.35"/>
<polygon fill="#63b8ff" stroke="#63b8ff" points="389.02,-161.81 399.29,-159.2 389.63,-154.84 389.02,-161.81"/>
</a>
</g>
</g>
<!-- Node10&#45;&gt;Node7 -->
<g id="edge15_Node000010_Node000007" class="edge">
<title>Node10&#45;&gt;Node7</title>
<g id="a_edge15_Node000010_Node000007"><a xlink:title=" ">
<path fill="none" stroke="#63b8ff" d="M352.35,-135.4C364.57,-133.5 377.22,-131.53 389.56,-129.61"/>
<polygon fill="#63b8ff" stroke="#63b8ff" points="389.96,-133.09 399.3,-128.09 388.88,-126.17 389.96,-133.09"/>
</a>
</g>
</g>
<!-- Node11&#45;&gt;Node4 -->
<g id="edge17_Node000011_Node000004" class="edge">
<title>Node11&#45;&gt;Node4</title>
<g id="a_edge17_Node000011_Node000004"><a xlink:title=" ">
<path fill="none" stroke="#63b8ff" d="M339.65,-114.49C348.27,-117.08 356.9,-119.93 365,-123 381.73,-129.34 384.46,-134.19 401,-141 405,-142.65 409.16,-144.27 413.37,-145.84"/>
<polygon fill="#63b8ff" stroke="#63b8ff" points="411.88,-149.02 422.47,-149.12 414.25,-142.43 411.88,-149.02"/>
</a>
</g>
</g>
<!-- Node11&#45;&gt;Node7 -->
<g id="edge18_Node000011_Node000007" class="edge">
<title>Node11&#45;&gt;Node7</title>
<g id="a_edge18_Node000011_Node000007"><a xlink:title=" ">
<path fill="none" stroke="#63b8ff" d="M363.06,-106.03C371.77,-106.79 380.59,-107.56 389.27,-108.32"/>
<polygon fill="#63b8ff" stroke="#63b8ff" points="388.79,-111.79 399.06,-109.18 389.4,-104.82 388.79,-111.79"/>
</a>
</g>
</g>
</g>
</svg>

<g id="navigator" transform="translate(0 0)" fill="#404254">
  <rect fill="#f2f5e9" fill-opacity="0.5" stroke="#606060" stroke-width=".5" x="0" y="0" width="60" height="60"/>
  <use id="zoomplus" xlink:href="#zoomPlus" x="17" y="9" onmousedown="handleZoom(evt,'in')"/>
  <use id="zoomminus" xlink:href="#zoomMin" x="42" y="9" onmousedown="handleZoom(evt,'out')"/>
  <use id="reset" xlink:href="#resetDef" x="30" y="36" onmousedown="handleReset()"/>
   <use id="arrowup" xlink:href="#arrowUp" x="0" y="0" onmousedown="handlePan(0,-1)"/>
  <use id="arrowright" xlink:href="#arrowRight" x="0" y="0" onmousedown="handlePan(1,0)"/>
  <use id="arrowdown" xlink:href="#arrowDown" x="0" y="0" onmousedown="handlePan(0,1)"/>
  <use id="arrowleft" xlink:href="#arrowLeft" x="0" y="0" onmousedown="handlePan(-1,0)"/>
</g>
<svg viewBox="0 0 15 15" width="100%" height="30px" preserveAspectRatio="xMaxYMin meet">
 <g id="arrow_out" transform="scale(0.3 0.3)">
  <a xlink:href="class_ainslie_a_p_i_1_1_controllers_1_1_green_id_controller_a131760ed19379a330a44f72879f026e2_cgraph_org.svg" target="_base">
   <rect id="button" ry="5" rx="5" y="6" x="6" height="38" width="38"
        fill="#f2f5e9" fill-opacity="0.5" stroke="#606060" stroke-width="1.0"/>
   <path id="arrow"
     d="M 11.500037,31.436501 C 11.940474,20.09759 22.043105,11.32322 32.158766,21.979434 L 37.068811,17.246167 C 37.068811,17.246167 37.088388,32 37.088388,32 L 22.160133,31.978069 C 22.160133,31.978069 26.997745,27.140456 26.997745,27.140456 C 18.528582,18.264221 13.291696,25.230495 11.500037,31.436501 z"
     style="fill:#404040;"/>
  </a>
 </g>
</svg>

<style type='text/css'>
<![CDATA[
[data-mouse-over-selected='false'] { opacity: 0.7; }
[data-mouse-over-selected='true']  { opacity: 1.0; }
]]>
</style>
<script type="application/ecmascript"><![CDATA[
document.addEventListener('DOMContentLoaded', (event) => {
  highlightEdges();
  highlightAdjacentNodes();
});
]]></script>
</svg>
