<?xml version="1.0" encoding="UTF-8" standalone="no"?>
<!DOCTYPE svg PUBLIC "-//W3C//DTD SVG 1.1//EN"
 "http://www.w3.org/Graphics/SVG/1.1/DTD/svg11.dtd">
<!-- Generated by graphviz version 9.0.0 (20230911.1827)
 -->
<!-- Title: AinslieAPI.Helpers.CacheDataHelper.RefreshGSSPricing Pages: 1 -->
<svg width="919pt" height="134pt"
 viewBox="0.00 0.00 919.00 134.00" xmlns="http://www.w3.org/2000/svg" xmlns:xlink="http://www.w3.org/1999/xlink">
<g id="graph0" class="graph" transform="scale(1 1) rotate(0) translate(4 130)">
<title>AinslieAPI.Helpers.CacheDataHelper.RefreshGSSPricing</title>
<!-- Node1 -->
<g id="Node000001" class="node">
<title>Node1</title>
<g id="a_Node000001"><a xlink:title="Refreshes the GSS pricing cache for a specific user, ensuring the data is current.">
<polygon fill="#999999" stroke="#666666" points="151,-57 0,-57 0,-25 151,-25 151,-57"/>
<text text-anchor="start" x="8" y="-43.5" font-family="Helvetica,sans-Serif" font-size="10.00">AinslieAPI.Helpers.Cache</text>
<text text-anchor="middle" x="75.5" y="-31.5" font-family="Helvetica,sans-Serif" font-size="10.00">DataHelper.RefreshGSSPricing</text>
</a>
</g>
</g>
<!-- Node2 -->
<g id="Node000002" class="node">
<title>Node2</title>
<g id="a_Node000002"><a xlink:href="class_ainslie_a_p_i_1_1_services_1_1_aw_api_service.html#a94685f746f003ef92fe3a7f4ef545efe" target="_top" xlink:title="Fetches GSS pricing data for a specified user from the AW API.">
<polygon fill="white" stroke="#666666" points="329.75,-82 198.25,-82 198.25,-50 329.75,-50 329.75,-82"/>
<text text-anchor="start" x="206.25" y="-68.5" font-family="Helvetica,sans-Serif" font-size="10.00">AinslieAPI.Services.AwApi</text>
<text text-anchor="middle" x="264" y="-56.5" font-family="Helvetica,sans-Serif" font-size="10.00">Service.GetGssPricing</text>
</a>
</g>
</g>
<!-- Node1&#45;&gt;Node2 -->
<g id="edge1_Node000001_Node000002" class="edge">
<title>Node1&#45;&gt;Node2</title>
<g id="a_edge1_Node000001_Node000002"><a xlink:title=" ">
<path fill="none" stroke="#63b8ff" d="M151.28,-51.02C162.96,-52.59 175.03,-54.21 186.74,-55.78"/>
<polygon fill="#63b8ff" stroke="#63b8ff" points="185.94,-59.2 196.32,-57.06 186.87,-52.26 185.94,-59.2"/>
</a>
</g>
</g>
<!-- Node7 -->
<g id="Node000007" class="node">
<title>Node7</title>
<g id="a_Node000007"><a xlink:href="class_ainslie_a_p_i_1_1_services_1_1_log_service.html#a917b9af360c0c6521ce36f4acbc72023" target="_top" xlink:title=" ">
<polygon fill="white" stroke="#666666" points="341,-32 187,-32 187,0 341,0 341,-32"/>
<text text-anchor="start" x="195" y="-18.5" font-family="Helvetica,sans-Serif" font-size="10.00">AinslieAPI.Services.LogService.</text>
<text text-anchor="middle" x="264" y="-6.5" font-family="Helvetica,sans-Serif" font-size="10.00">LogInformation</text>
</a>
</g>
</g>
<!-- Node1&#45;&gt;Node7 -->
<g id="edge7_Node000001_Node000007" class="edge">
<title>Node1&#45;&gt;Node7</title>
<g id="a_edge7_Node000001_Node000007"><a xlink:title=" ">
<path fill="none" stroke="#63b8ff" d="M151.28,-30.98C159.2,-29.91 167.31,-28.83 175.36,-27.75"/>
<polygon fill="#63b8ff" stroke="#63b8ff" points="175.73,-31.23 185.18,-26.43 174.8,-24.29 175.73,-31.23"/>
</a>
</g>
</g>
<!-- Node3 -->
<g id="Node000003" class="node">
<title>Node3</title>
<g id="a_Node000003"><a xlink:href="class_ainslie_a_p_i_1_1_services_1_1_log_service.html#a9bf79a218e0884ac9cabd3ac87b81321" target="_top" xlink:title=" ">
<polygon fill="white" stroke="#666666" points="531,-126 377,-126 377,-94 531,-94 531,-126"/>
<text text-anchor="start" x="385" y="-112.5" font-family="Helvetica,sans-Serif" font-size="10.00">AinslieAPI.Services.LogService.</text>
<text text-anchor="middle" x="454" y="-100.5" font-family="Helvetica,sans-Serif" font-size="10.00">LogError</text>
</a>
</g>
</g>
<!-- Node2&#45;&gt;Node3 -->
<g id="edge2_Node000002_Node000003" class="edge">
<title>Node2&#45;&gt;Node3</title>
<g id="a_edge2_Node000002_Node000003"><a xlink:title=" ">
<path fill="none" stroke="#63b8ff" d="M330.23,-81.27C343.61,-84.4 357.87,-87.73 371.74,-90.98"/>
<polygon fill="#63b8ff" stroke="#63b8ff" points="370.75,-94.35 381.29,-93.22 372.35,-87.53 370.75,-94.35"/>
</a>
</g>
</g>
<!-- Node6 -->
<g id="Node000006" class="node">
<title>Node6</title>
<g id="a_Node000006"><a xlink:href="class_ainslie_a_p_i_1_1_services_1_1_log_service.html#a83bbf569dea7ea5a40e02fca200aad8c" target="_top" xlink:title=" ">
<polygon fill="white" stroke="#666666" points="531,-76 377,-76 377,-44 531,-44 531,-76"/>
<text text-anchor="start" x="385" y="-62.5" font-family="Helvetica,sans-Serif" font-size="10.00">AinslieAPI.Services.LogService.</text>
<text text-anchor="middle" x="454" y="-50.5" font-family="Helvetica,sans-Serif" font-size="10.00">LogException</text>
</a>
</g>
</g>
<!-- Node2&#45;&gt;Node6 -->
<g id="edge5_Node000002_Node000006" class="edge">
<title>Node2&#45;&gt;Node6</title>
<g id="a_edge5_Node000002_Node000006"><a xlink:title=" ">
<path fill="none" stroke="#63b8ff" d="M330.23,-63.92C341.56,-63.56 353.51,-63.18 365.32,-62.8"/>
<polygon fill="#63b8ff" stroke="#63b8ff" points="365.19,-66.3 375.07,-62.49 364.97,-59.31 365.19,-66.3"/>
</a>
</g>
</g>
<!-- Node4 -->
<g id="Node000004" class="node">
<title>Node4</title>
<g id="a_Node000004"><a xlink:href="class_ainslie_a_p_i_1_1_services_1_1_log_service.html#a3c2dce5ed306365dfa416f700e5360cf" target="_top" xlink:title="inserts log to database">
<polygon fill="white" stroke="#666666" points="721,-76 567,-76 567,-44 721,-44 721,-76"/>
<text text-anchor="start" x="575" y="-62.5" font-family="Helvetica,sans-Serif" font-size="10.00">AinslieAPI.Services.LogService.</text>
<text text-anchor="middle" x="644" y="-50.5" font-family="Helvetica,sans-Serif" font-size="10.00">InsertLog</text>
</a>
</g>
</g>
<!-- Node3&#45;&gt;Node4 -->
<g id="edge3_Node000003_Node000004" class="edge">
<title>Node3&#45;&gt;Node4</title>
<g id="a_edge3_Node000003_Node000004"><a xlink:title=" ">
<path fill="none" stroke="#63b8ff" d="M516.82,-93.56C533.84,-89.03 552.47,-84.08 570.06,-79.4"/>
<polygon fill="#63b8ff" stroke="#63b8ff" points="570.92,-82.79 579.68,-76.84 569.12,-76.03 570.92,-82.79"/>
</a>
</g>
</g>
<!-- Node5 -->
<g id="Node000005" class="node">
<title>Node5</title>
<g id="a_Node000005"><a xlink:href="class_ainslie_a_p_i_1_1_services_1_1_log_service.html#a6342d4add22dfffd5dadb5a7b3f112bc" target="_top" xlink:title="writes a text file log to [App home directory]/log">
<polygon fill="white" stroke="#666666" points="911,-76 757,-76 757,-44 911,-44 911,-76"/>
<text text-anchor="start" x="765" y="-62.5" font-family="Helvetica,sans-Serif" font-size="10.00">AinslieAPI.Services.LogService.</text>
<text text-anchor="middle" x="834" y="-50.5" font-family="Helvetica,sans-Serif" font-size="10.00">WriteLog</text>
</a>
</g>
</g>
<!-- Node4&#45;&gt;Node5 -->
<g id="edge4_Node000004_Node000005" class="edge">
<title>Node4&#45;&gt;Node5</title>
<g id="a_edge4_Node000004_Node000005"><a xlink:title=" ">
<path fill="none" stroke="#63b8ff" d="M721.47,-60C729.25,-60 737.21,-60 745.1,-60"/>
<polygon fill="#63b8ff" stroke="#63b8ff" points="745.09,-63.5 755.09,-60 745.09,-56.5 745.09,-63.5"/>
</a>
</g>
</g>
<!-- Node6&#45;&gt;Node4 -->
<g id="edge6_Node000006_Node000004" class="edge">
<title>Node6&#45;&gt;Node4</title>
<g id="a_edge6_Node000006_Node000004"><a xlink:title=" ">
<path fill="none" stroke="#63b8ff" d="M531.47,-60C539.25,-60 547.21,-60 555.1,-60"/>
<polygon fill="#63b8ff" stroke="#63b8ff" points="555.09,-63.5 565.09,-60 555.09,-56.5 555.09,-63.5"/>
</a>
</g>
</g>
<!-- Node7&#45;&gt;Node4 -->
<g id="edge8_Node000007_Node000004" class="edge">
<title>Node7&#45;&gt;Node4</title>
<g id="a_edge8_Node000007_Node000004"><a xlink:title=" ">
<path fill="none" stroke="#63b8ff" d="M341.29,-18.45C394.64,-20.89 467.44,-25.69 531,-35 542.35,-36.66 554.27,-38.84 565.91,-41.22"/>
<polygon fill="#63b8ff" stroke="#63b8ff" points="564.98,-44.6 575.49,-43.24 566.43,-37.76 564.98,-44.6"/>
</a>
</g>
</g>
</g>
</svg>
