<?xml version="1.0" encoding="UTF-8" standalone="no"?>
<!DOCTYPE svg PUBLIC "-//W3C//DTD SVG 1.1//EN"
 "http://www.w3.org/Graphics/SVG/1.1/DTD/svg11.dtd">
<!-- Generated by graphviz version 9.0.0 (20230911.1827)
 -->
<!-- Title: Flatted\index Pages: 1 -->
<svg width="434pt" height="47pt"
 viewBox="0.00 0.00 433.50 47.00" xmlns="http://www.w3.org/2000/svg" xmlns:xlink="http://www.w3.org/1999/xlink">

<svg id="main" version="1.1" xmlns="http://www.w3.org/2000/svg" xmlns:xlink="http://www.w3.org/1999/xlink" xml:space="preserve" onload="init(evt)">
<style type="text/css"><![CDATA[
.node, .edge {opacity: 0.7;}
.node.selected, .edge.selected {opacity: 1;}
.edge:hover path { stroke: red; }
.edge:hover polygon { stroke: red; fill: red; }
]]></style>
<script type="application/ecmascript" xlink:href="svg.min.js"/>
<svg id="graph" class="graph">
<g id="graph0" class="graph" transform="scale(1 1) rotate(0) translate(4 43)">
<title>Flatted\index</title>
<!-- Node1 -->
<g id="Node000001" class="node">
<title>Node1</title>
<g id="a_Node000001"><a xlink:title=" ">
<polygon fill="#999999" stroke="#666666" points="425.5,-20 353.25,-20 353.25,0 425.5,0 425.5,-20"/>
<text text-anchor="middle" x="389.38" y="-6.5" font-family="Helvetica,sans-Serif" font-size="10.00">Flatted\index</text>
</a>
</g>
</g>
<!-- Node2 -->
<g id="Node000002" class="node">
<title>Node2</title>
<g id="a_Node000002"><a xlink:href="class_flatted.html#a008f2a38bb722e4ce7ff2d13dab9cac8" target="_top" xlink:title=" ">
<polygon fill="white" stroke="#666666" points="317.25,-39 244.25,-39 244.25,-19 317.25,-19 317.25,-39"/>
<text text-anchor="middle" x="280.75" y="-25.5" font-family="Helvetica,sans-Serif" font-size="10.00">Flatted\relate</text>
</a>
</g>
</g>
<!-- Node1&#45;&gt;Node2 -->
<g id="edge1_Node000001_Node000002" class="edge">
<title>Node1&#45;&gt;Node2</title>
<g id="a_edge1_Node000001_Node000002"><a xlink:title=" ">
<path fill="none" stroke="#63b8ff" d="M341.63,-18.33C333.52,-19.77 325.21,-21.25 317.46,-22.64"/>
<polygon fill="#63b8ff" stroke="#63b8ff" points="342.15,-21.79 351.38,-16.59 340.92,-14.9 342.15,-21.79"/>
</a>
</g>
</g>
<!-- Node4 -->
<g id="Node000004" class="node">
<title>Node4</title>
<g id="a_Node000004"><a xlink:href="class_flatted.html#a02948b06481bc3d2118b61f83ccc26e8" target="_top" xlink:title=" ">
<polygon fill="white" stroke="#666666" points="82.75,-20 0,-20 0,0 82.75,0 82.75,-20"/>
<text text-anchor="middle" x="41.38" y="-6.5" font-family="Helvetica,sans-Serif" font-size="10.00">Flatted\stringify</text>
</a>
</g>
</g>
<!-- Node1&#45;&gt;Node4 -->
<g id="edge4_Node000001_Node000004" class="edge">
<title>Node1&#45;&gt;Node4</title>
<g id="a_edge4_Node000001_Node000004"><a xlink:title=" ">
<path fill="none" stroke="#63b8ff" d="M341.74,-10C273.53,-10 147.69,-10 83.04,-10"/>
<polygon fill="#63b8ff" stroke="#63b8ff" points="341.46,-13.5 351.46,-10 341.46,-6.5 341.46,-13.5"/>
</a>
</g>
</g>
<!-- Node3 -->
<g id="Node000003" class="node">
<title>Node3</title>
<g id="a_Node000003"><a xlink:href="class_flatted.html#ae60904e02c57006e7edbe60ad994c75d" target="_top" xlink:title=" ">
<polygon fill="white" stroke="#666666" points="208.25,-39 118.75,-39 118.75,-19 208.25,-19 208.25,-39"/>
<text text-anchor="middle" x="163.5" y="-25.5" font-family="Helvetica,sans-Serif" font-size="10.00">Flatted\transform</text>
</a>
</g>
</g>
<!-- Node2&#45;&gt;Node3 -->
<g id="edge2_Node000002_Node000003" class="edge">
<title>Node2&#45;&gt;Node3</title>
<g id="a_edge2_Node000002_Node000003"><a xlink:title=" ">
<path fill="none" stroke="#63b8ff" d="M232.51,-29C224.55,-29 216.31,-29 208.43,-29"/>
<polygon fill="#63b8ff" stroke="#63b8ff" points="232.4,-32.5 242.4,-29 232.4,-25.5 232.4,-32.5"/>
</a>
</g>
</g>
<!-- Node3&#45;&gt;Node4 -->
<g id="edge3_Node000003_Node000004" class="edge">
<title>Node3&#45;&gt;Node4</title>
<g id="a_edge3_Node000003_Node000004"><a xlink:title=" ">
<path fill="none" stroke="#63b8ff" d="M107.19,-20.25C99.12,-18.98 90.94,-17.68 83.23,-16.46"/>
<polygon fill="#63b8ff" stroke="#63b8ff" points="106.53,-23.69 116.96,-21.8 107.63,-16.78 106.53,-23.69"/>
</a>
</g>
</g>
</g>
</svg>
</svg>

<style type='text/css'>
<![CDATA[
[data-mouse-over-selected='false'] { opacity: 0.7; }
[data-mouse-over-selected='true']  { opacity: 1.0; }
]]>
</style>
<script type="application/ecmascript"><![CDATA[
document.addEventListener('DOMContentLoaded', (event) => {
  highlightEdges();
  highlightAdjacentNodes();
});
]]></script>
</svg>
