<?xml version="1.0" encoding="UTF-8" standalone="no"?>
<!DOCTYPE svg PUBLIC "-//W3C//DTD SVG 1.1//EN"
 "http://www.w3.org/Graphics/SVG/1.1/DTD/svg11.dtd">
<!-- Generated by graphviz version 9.0.0 (20230911.1827)
 -->
<!-- Title: Flatted\loop Pages: 1 -->
<svg width="184pt" height="66pt"
 viewBox="0.00 0.00 184.00 66.00" xmlns="http://www.w3.org/2000/svg" xmlns:xlink="http://www.w3.org/1999/xlink">
<g id="graph0" class="graph" transform="scale(1 1) rotate(0) translate(4 62)">
<title>Flatted\loop</title>
<!-- Node1 -->
<g id="Node000001" class="node">
<title>Node1</title>
<g id="a_Node000001"><a xlink:title=" ">
<polygon fill="#999999" stroke="#666666" points="176,-20 109,-20 109,0 176,0 176,-20"/>
<text text-anchor="middle" x="142.5" y="-6.5" font-family="Helvetica,sans-Serif" font-size="10.00">Flatted\loop</text>
</a>
</g>
</g>
<!-- Node2 -->
<g id="Node000002" class="node">
<title>Node2</title>
<g id="a_Node000002"><a xlink:href="class_flatted.html#abda2f205b4a05f941504857868aa4435" target="_top" xlink:title=" ">
<polygon fill="white" stroke="#666666" points="73,-58 0,-58 0,-38 73,-38 73,-58"/>
<text text-anchor="middle" x="36.5" y="-44.5" font-family="Helvetica,sans-Serif" font-size="10.00">Flatted\parse</text>
</a>
</g>
</g>
<!-- Node1&#45;&gt;Node2 -->
<g id="edge1_Node000001_Node000002" class="edge">
<title>Node1&#45;&gt;Node2</title>
<g id="a_edge1_Node000001_Node000002"><a xlink:title=" ">
<path fill="none" stroke="#63b8ff" d="M102.15,-24.38C90.17,-28.76 77.23,-33.48 66.1,-37.55"/>
<polygon fill="#63b8ff" stroke="#63b8ff" points="103.19,-27.72 111.38,-21 100.79,-21.15 103.19,-27.72"/>
</a>
</g>
</g>
<!-- Node3 -->
<g id="Node000003" class="node">
<title>Node3</title>
<g id="a_Node000003"><a xlink:href="class_flatted.html#a2383280951ac4457a7a823647e30d0ed" target="_top" xlink:title=" ">
<polygon fill="white" stroke="#666666" points="66.25,-20 6.75,-20 6.75,0 66.25,0 66.25,-20"/>
<text text-anchor="middle" x="36.5" y="-6.5" font-family="Helvetica,sans-Serif" font-size="10.00">Flatted\ref</text>
</a>
</g>
</g>
<!-- Node1&#45;&gt;Node3 -->
<g id="edge2_Node000001_Node000003" class="edge">
<title>Node1&#45;&gt;Node3</title>
<g id="a_edge2_Node000001_Node000003"><a xlink:title=" ">
<path fill="none" stroke="#63b8ff" d="M97.21,-3.32C86.89,-3.14 76.15,-3.32 66.68,-3.86"/>
<polygon fill="#63b8ff" stroke="#63b8ff" points="96.98,-6.81 107.08,-3.62 97.2,0.19 96.98,-6.81"/>
</a>
</g>
</g>
<!-- Node3&#45;&gt;Node1 -->
<g id="edge3_Node000003_Node000001" class="edge">
<title>Node3&#45;&gt;Node1</title>
<g id="a_edge3_Node000003_Node000001"><a xlink:title=" ">
<path fill="none" stroke="#63b8ff" d="M78.15,-16.6C88.24,-16.87 98.93,-16.77 108.59,-16.33"/>
<polygon fill="#63b8ff" stroke="#63b8ff" points="78.32,-13.11 68.19,-16.2 78.04,-20.1 78.32,-13.11"/>
</a>
</g>
</g>
</g>
</svg>
