<?xml version="1.0" encoding="UTF-8" standalone="no"?>
<!DOCTYPE svg PUBLIC "-//W3C//DTD SVG 1.1//EN"
 "http://www.w3.org/Graphics/SVG/1.1/DTD/svg11.dtd">
<!-- Generated by graphviz version 9.0.0 (20230911.1827)
 -->
<!-- Title: AinslieAPI.Controllers.GSS.TdcrController.Orders Pages: 1 -->
<!--zoomable 416 -->

<svg id="main" version="1.1" xmlns="http://www.w3.org/2000/svg" xmlns:xlink="http://www.w3.org/1999/xlink" xml:space="preserve" onload="init(evt)">
<style type="text/css"><![CDATA[
.node, .edge {opacity: 0.7;}
.node.selected, .edge.selected {opacity: 1;}
.edge:hover path { stroke: red; }
.edge:hover polygon { stroke: red; fill: red; }
]]></style>

<defs>
  <circle id="rim" cx="0" cy="0" r="7"/>
  <circle id="rim2" cx="0" cy="0" r="3.5"/>
  <g id="zoomPlus">
    <use xlink:href="#rim" fill="#404040"><set attributeName="fill" to="#808080" begin="zoomplus.mouseover" end="zoomplus.mouseout"/></use>
    <path d="M-4,0h8M0,-4v8" fill="none" stroke="white" stroke-width="1.5" pointer-events="none"/>
  </g>
  <g id="zoomMin">
    <use xlink:href="#rim" fill="#404040"><set attributeName="fill" to="#808080" begin="zoomminus.mouseover" end="zoomminus.mouseout"/></use>
    <path d="M-4,0h8" fill="none" stroke="white" stroke-width="1.5" pointer-events="none"/>
  </g>
  <g id="arrowUp" transform="translate(30 24)">
    <use xlink:href="#rim"/>
    <path pointer-events="none" fill="none" stroke="white" stroke-width="1.5" d="M0,-3.0v7 M-2.5,-0.5L0,-3.0L2.5,-0.5"/>
  </g>
  <g id="arrowRight" transform="rotate(90) translate(36 -43)">
    <use xlink:href="#rim"/>
    <path pointer-events="none" fill="none" stroke="white" stroke-width="1.5" d="M0,-3.0v7 M-2.5,-0.5L0,-3.0L2.5,-0.5"/>
  </g>
  <g id="arrowDown" transform="rotate(180) translate(-30 -48)">
    <use xlink:href="#rim"/>
    <path pointer-events="none" fill="none" stroke="white" stroke-width="1.5" d="M0,-3.0v7 M-2.5,-0.5L0,-3.0L2.5,-0.5"/>
  </g>
  <g id="arrowLeft" transform="rotate(270) translate(-36 17)">
    <use xlink:href="#rim"/>
    <path pointer-events="none" fill="none" stroke="white" stroke-width="1.5" d="M0,-3.0v7 M-2.5,-0.5L0,-3.0L2.5,-0.5"/>
  </g>
  <g id="resetDef">
    <use xlink:href="#rim2" fill="#404040"><set attributeName="fill" to="#808080" begin="reset.mouseover" end="reset.mouseout"/></use>
  </g>
</defs>
<script type="application/ecmascript">
var viewWidth = 1337;
var viewHeight = 416;
var sectionId = 'dynsection-7';
</script>
<script type="application/ecmascript" xlink:href="svg.min.js"/>
<svg id="graph" class="graph">
<g id="viewport">
<title>AinslieAPI.Controllers.GSS.TdcrController.Orders</title>
<!-- Node1 -->
<g id="Node000001" class="node">
<title>Node1</title>
<g id="a_Node000001"><a xlink:title="Processes incoming order requests, validating and saving them to the database.">
<polygon fill="#999999" stroke="#666666" points="137.5,-261.45 0,-261.45 0,-229.45 137.5,-229.45 137.5,-261.45"/>
<text text-anchor="start" x="8" y="-247.95" font-family="Helvetica,sans-Serif" font-size="10.00">AinslieAPI.Controllers.GSS.</text>
<text text-anchor="middle" x="68.75" y="-235.95" font-family="Helvetica,sans-Serif" font-size="10.00">TdcrController.Orders</text>
</a>
</g>
</g>
<!-- Node2 -->
<g id="Node000002" class="node">
<title>Node2</title>
<g id="a_Node000002"><a xlink:href="class_ainslie_a_p_i_1_1_controllers_1_1_g_s_s_1_1_tdcr_controller.html#a1ed8b7c2d20c40b06f57b02cd97058f0" target="_top" xlink:title="Constructs an error string based on the provided error code.">
<polygon fill="white" stroke="#666666" points="751.75,-349.45 604.5,-349.45 604.5,-317.45 751.75,-317.45 751.75,-349.45"/>
<text text-anchor="start" x="612.5" y="-335.95" font-family="Helvetica,sans-Serif" font-size="10.00">AinslieAPI.Controllers.GSS.</text>
<text text-anchor="middle" x="678.12" y="-323.95" font-family="Helvetica,sans-Serif" font-size="10.00">TdcrController.BuildErrorString</text>
</a>
</g>
</g>
<!-- Node1&#45;&gt;Node2 -->
<g id="edge1_Node000001_Node000002" class="edge">
<title>Node1&#45;&gt;Node2</title>
<g id="a_edge1_Node000001_Node000002"><a xlink:title=" ">
<path fill="none" stroke="#63b8ff" d="M122.41,-261.88C138.67,-266.49 156.71,-271.14 173.5,-274.45 319.46,-303.21 492.17,-319.71 592.72,-327.6"/>
<polygon fill="#63b8ff" stroke="#63b8ff" points="592.26,-331.08 602.5,-328.36 592.8,-324.1 592.26,-331.08"/>
</a>
</g>
</g>
<!-- Node3 -->
<g id="Node000003" class="node">
<title>Node3</title>
<g id="a_Node000003"><a xlink:href="class_ainslie_a_p_i_1_1_services_1_1_log_service.html#a83bbf569dea7ea5a40e02fca200aad8c" target="_top" xlink:title=" ">
<polygon fill="white" stroke="#666666" points="949.25,-255.45 795.25,-255.45 795.25,-223.45 949.25,-223.45 949.25,-255.45"/>
<text text-anchor="start" x="803.25" y="-241.95" font-family="Helvetica,sans-Serif" font-size="10.00">AinslieAPI.Services.LogService.</text>
<text text-anchor="middle" x="872.25" y="-229.95" font-family="Helvetica,sans-Serif" font-size="10.00">LogException</text>
</a>
</g>
</g>
<!-- Node1&#45;&gt;Node3 -->
<g id="edge7_Node000001_Node000003" class="edge">
<title>Node1&#45;&gt;Node3</title>
<g id="a_edge7_Node000001_Node000003"><a xlink:title=" ">
<path fill="none" stroke="#63b8ff" d="M94.18,-261.94C114.52,-274.83 144.69,-292.08 173.5,-301.45 422.24,-382.33 519.14,-462.19 759.25,-358.45 803.05,-339.52 837.64,-294.11 856.21,-265.17"/>
<polygon fill="#63b8ff" stroke="#63b8ff" points="859,-267.32 861.31,-256.98 853.05,-263.63 859,-267.32"/>
</a>
</g>
</g>
<!-- Node6 -->
<g id="Node000006" class="node">
<title>Node6</title>
<g id="a_Node000006"><a xlink:href="class_ainslie_a_p_i_1_1_services_1_1_log_service.html#a9bf79a218e0884ac9cabd3ac87b81321" target="_top" xlink:title=" ">
<polygon fill="white" stroke="#666666" points="337.62,-130.45 183.62,-130.45 183.62,-98.45 337.62,-98.45 337.62,-130.45"/>
<text text-anchor="start" x="191.62" y="-116.95" font-family="Helvetica,sans-Serif" font-size="10.00">AinslieAPI.Services.LogService.</text>
<text text-anchor="middle" x="260.62" y="-104.95" font-family="Helvetica,sans-Serif" font-size="10.00">LogError</text>
</a>
</g>
</g>
<!-- Node1&#45;&gt;Node6 -->
<g id="edge5_Node000001_Node000006" class="edge">
<title>Node1&#45;&gt;Node6</title>
<g id="a_edge5_Node000001_Node000006"><a xlink:title=" ">
<path fill="none" stroke="#63b8ff" d="M93.41,-229.12C127.05,-205.92 188.81,-163.31 226.84,-137.07"/>
<polygon fill="#63b8ff" stroke="#63b8ff" points="228.47,-140.19 234.72,-131.63 224.5,-134.43 228.47,-140.19"/>
</a>
</g>
</g>
<!-- Node7 -->
<g id="Node000007" class="node">
<title>Node7</title>
<g id="a_Node000007"><a xlink:href="class_ainslie_a_p_i_1_1_services_1_1_log_service.html#a917b9af360c0c6521ce36f4acbc72023" target="_top" xlink:title=" ">
<polygon fill="white" stroke="#666666" points="949.25,-47.45 795.25,-47.45 795.25,-15.45 949.25,-15.45 949.25,-47.45"/>
<text text-anchor="start" x="803.25" y="-33.95" font-family="Helvetica,sans-Serif" font-size="10.00">AinslieAPI.Services.LogService.</text>
<text text-anchor="middle" x="872.25" y="-21.95" font-family="Helvetica,sans-Serif" font-size="10.00">LogInformation</text>
</a>
</g>
</g>
<!-- Node1&#45;&gt;Node7 -->
<g id="edge8_Node000001_Node000007" class="edge">
<title>Node1&#45;&gt;Node7</title>
<g id="a_edge8_Node000001_Node000007"><a xlink:title=" ">
<path fill="none" stroke="#63b8ff" d="M75.13,-229.1C86.95,-196.09 118.61,-121.86 173.5,-89.45 366.74,24.67 644.17,4.35 783.84,-15.85"/>
<polygon fill="#63b8ff" stroke="#63b8ff" points="782.98,-19.26 793.39,-17.26 784.01,-12.33 782.98,-19.26"/>
</a>
</g>
</g>
<!-- Node8 -->
<g id="Node000008" class="node">
<title>Node8</title>
<g id="a_Node000008"><a xlink:href="class_ainslie_a_p_i_1_1_controllers_1_1_g_s_s_1_1_tdcr_controller.html#a2afd83d8bf3e0f4695d32ea1f255f4a5" target="_top" xlink:title="Fetches the current live price in AUD for a given asset based on the order request&#39;s market and side.">
<polygon fill="white" stroke="#666666" points="759.25,-299.45 597,-299.45 597,-267.45 759.25,-267.45 759.25,-299.45"/>
<text text-anchor="start" x="605" y="-285.95" font-family="Helvetica,sans-Serif" font-size="10.00">AinslieAPI.Controllers.GSS.</text>
<text text-anchor="middle" x="678.12" y="-273.95" font-family="Helvetica,sans-Serif" font-size="10.00">TdcrController.OrderLivePriceAUD</text>
</a>
</g>
</g>
<!-- Node1&#45;&gt;Node8 -->
<g id="edge10_Node000001_Node000008" class="edge">
<title>Node1&#45;&gt;Node8</title>
<g id="a_edge10_Node000001_Node000008"><a xlink:title=" ">
<path fill="none" stroke="#63b8ff" d="M138,-251.58C201.57,-257.12 299.01,-265.2 383.75,-270.45 451.25,-274.63 527.57,-277.97 585.45,-280.21"/>
<polygon fill="#63b8ff" stroke="#63b8ff" points="585.13,-283.7 595.26,-280.59 585.4,-276.71 585.13,-283.7"/>
</a>
</g>
</g>
<!-- Node9 -->
<g id="Node000009" class="node">
<title>Node9</title>
<g id="a_Node000009"><a xlink:href="class_ainslie_a_p_i_1_1_controllers_1_1_g_s_s_1_1_tdcr_controller.html#acdce12cbf8d3ceb33fc727648bf58fc8" target="_top" xlink:title="Validates the provided order request against business rules.">
<polygon fill="white" stroke="#666666" points="347.75,-217.45 173.5,-217.45 173.5,-185.45 347.75,-185.45 347.75,-217.45"/>
<text text-anchor="start" x="181.5" y="-203.95" font-family="Helvetica,sans-Serif" font-size="10.00">AinslieAPI.Controllers.GSS.</text>
<text text-anchor="middle" x="260.62" y="-191.95" font-family="Helvetica,sans-Serif" font-size="10.00">TdcrController.ValidateOrderRequest</text>
</a>
</g>
</g>
<!-- Node1&#45;&gt;Node9 -->
<g id="edge12_Node000001_Node000009" class="edge">
<title>Node1&#45;&gt;Node9</title>
<g id="a_edge12_Node000001_Node000009"><a xlink:title=" ">
<path fill="none" stroke="#63b8ff" d="M137.76,-229.69C150.65,-226.7 164.26,-223.55 177.52,-220.47"/>
<polygon fill="#63b8ff" stroke="#63b8ff" points="178.14,-223.92 187.09,-218.26 176.56,-217.1 178.14,-223.92"/>
</a>
</g>
</g>
<!-- Node2&#45;&gt;Node3 -->
<g id="edge2_Node000002_Node000003" class="edge">
<title>Node2&#45;&gt;Node3</title>
<g id="a_edge2_Node000002_Node000003"><a xlink:title=" ">
<path fill="none" stroke="#63b8ff" d="M737.97,-316.95C745.24,-314.37 752.49,-311.53 759.25,-308.45 787.55,-295.56 817.43,-276.87 839.2,-262.19"/>
<polygon fill="#63b8ff" stroke="#63b8ff" points="841.07,-265.15 847.35,-256.61 837.12,-259.37 841.07,-265.15"/>
</a>
</g>
</g>
<!-- Node4 -->
<g id="Node000004" class="node">
<title>Node4</title>
<g id="a_Node000004"><a xlink:href="class_ainslie_a_p_i_1_1_services_1_1_log_service.html#a3c2dce5ed306365dfa416f700e5360cf" target="_top" xlink:title="inserts log to database">
<polygon fill="white" stroke="#666666" points="1139.25,-91.45 985.25,-91.45 985.25,-59.45 1139.25,-59.45 1139.25,-91.45"/>
<text text-anchor="start" x="993.25" y="-77.95" font-family="Helvetica,sans-Serif" font-size="10.00">AinslieAPI.Services.LogService.</text>
<text text-anchor="middle" x="1062.25" y="-65.95" font-family="Helvetica,sans-Serif" font-size="10.00">InsertLog</text>
</a>
</g>
</g>
<!-- Node3&#45;&gt;Node4 -->
<g id="edge3_Node000003_Node000004" class="edge">
<title>Node3&#45;&gt;Node4</title>
<g id="a_edge3_Node000003_Node000004"><a xlink:title=" ">
<path fill="none" stroke="#63b8ff" d="M891.96,-223.12C925.47,-193.9 995.79,-132.55 1034.42,-98.85"/>
<polygon fill="#63b8ff" stroke="#63b8ff" points="1036.24,-101.91 1041.47,-92.7 1031.64,-96.64 1036.24,-101.91"/>
</a>
</g>
</g>
<!-- Node5 -->
<g id="Node000005" class="node">
<title>Node5</title>
<g id="a_Node000005"><a xlink:href="class_ainslie_a_p_i_1_1_services_1_1_log_service.html#a6342d4add22dfffd5dadb5a7b3f112bc" target="_top" xlink:title="writes a text file log to [App home directory]/log">
<polygon fill="white" stroke="#666666" points="1329.25,-91.45 1175.25,-91.45 1175.25,-59.45 1329.25,-59.45 1329.25,-91.45"/>
<text text-anchor="start" x="1183.25" y="-77.95" font-family="Helvetica,sans-Serif" font-size="10.00">AinslieAPI.Services.LogService.</text>
<text text-anchor="middle" x="1252.25" y="-65.95" font-family="Helvetica,sans-Serif" font-size="10.00">WriteLog</text>
</a>
</g>
</g>
<!-- Node4&#45;&gt;Node5 -->
<g id="edge4_Node000004_Node000005" class="edge">
<title>Node4&#45;&gt;Node5</title>
<g id="a_edge4_Node000004_Node000005"><a xlink:title=" ">
<path fill="none" stroke="#63b8ff" d="M1139.72,-75.45C1147.5,-75.45 1155.46,-75.45 1163.35,-75.45"/>
<polygon fill="#63b8ff" stroke="#63b8ff" points="1163.34,-78.95 1173.34,-75.45 1163.34,-71.95 1163.34,-78.95"/>
</a>
</g>
</g>
<!-- Node6&#45;&gt;Node4 -->
<g id="edge6_Node000006_Node000004" class="edge">
<title>Node6&#45;&gt;Node4</title>
<g id="a_edge6_Node000006_Node000004"><a xlink:title=" ">
<path fill="none" stroke="#63b8ff" d="M337.97,-100.33C353.09,-97.99 368.89,-95.87 383.75,-94.45 594.67,-74.31 844.07,-73.1 973.46,-74.16"/>
<polygon fill="#63b8ff" stroke="#63b8ff" points="973.3,-77.65 983.33,-74.24 973.36,-70.66 973.3,-77.65"/>
</a>
</g>
</g>
<!-- Node7&#45;&gt;Node4 -->
<g id="edge9_Node000007_Node000004" class="edge">
<title>Node7&#45;&gt;Node4</title>
<g id="a_edge9_Node000007_Node000004"><a xlink:title=" ">
<path fill="none" stroke="#63b8ff" d="M943.52,-47.89C955.34,-50.66 967.69,-53.55 979.77,-56.38"/>
<polygon fill="#63b8ff" stroke="#63b8ff" points="978.74,-59.73 989.28,-58.6 980.34,-52.92 978.74,-59.73"/>
</a>
</g>
</g>
<!-- Node8&#45;&gt;Node3 -->
<g id="edge11_Node000008_Node000003" class="edge">
<title>Node8&#45;&gt;Node3</title>
<g id="a_edge11_Node000008_Node000003"><a xlink:title=" ">
<path fill="none" stroke="#63b8ff" d="M750.94,-267C763.14,-264.21 775.9,-261.29 788.36,-258.43"/>
<polygon fill="#63b8ff" stroke="#63b8ff" points="788.76,-261.93 797.73,-256.29 787.2,-255.11 788.76,-261.93"/>
</a>
</g>
</g>
<!-- Node9&#45;&gt;Node3 -->
<g id="edge13_Node000009_Node000003" class="edge">
<title>Node9&#45;&gt;Node3</title>
<g id="a_edge13_Node000009_Node000003"><a xlink:title=" ">
<path fill="none" stroke="#63b8ff" d="M348,-206.83C463.55,-214.03 667.33,-226.74 783.55,-233.98"/>
<polygon fill="#63b8ff" stroke="#63b8ff" points="783.15,-237.46 793.35,-234.59 783.59,-230.48 783.15,-237.46"/>
</a>
</g>
</g>
<!-- Node10 -->
<g id="Node000010" class="node">
<title>Node10</title>
<g id="a_Node000010"><a xlink:href="class_ainslie_a_p_i_1_1_controllers_1_1_g_s_s_1_1_tdcr_controller.html#a5425d57dc6e7f08c36785f3ca41d30ab" target="_top" xlink:title="Determines whether the price specified in an order request falls outside the acceptable threshold as ...">
<polygon fill="white" stroke="#666666" points="561,-261.45 383.75,-261.45 383.75,-229.45 561,-229.45 561,-261.45"/>
<text text-anchor="start" x="391.75" y="-247.95" font-family="Helvetica,sans-Serif" font-size="10.00">AinslieAPI.Controllers.GSS.</text>
<text text-anchor="middle" x="472.38" y="-235.95" font-family="Helvetica,sans-Serif" font-size="10.00">TdcrController.PriceOutsideThreshold</text>
</a>
</g>
</g>
<!-- Node9&#45;&gt;Node10 -->
<g id="edge14_Node000009_Node000010" class="edge">
<title>Node9&#45;&gt;Node10</title>
<g id="a_edge14_Node000009_Node000010"><a xlink:title=" ">
<path fill="none" stroke="#63b8ff" d="M340.03,-217.89C353.62,-220.75 367.84,-223.73 381.7,-226.64"/>
<polygon fill="#63b8ff" stroke="#63b8ff" points="380.73,-230.01 391.24,-228.64 382.17,-223.16 380.73,-230.01"/>
</a>
</g>
</g>
<!-- Node11 -->
<g id="Node000011" class="node">
<title>Node11</title>
<g id="a_Node000011"><a xlink:href="class_ainslie_a_p_i_1_1_controllers_1_1_g_s_s_1_1_tdcr_controller.html#a464a5d3df062bef894118260d86989f3" target="_top" xlink:title="Checks if an order with the specified TDCR ID exists in the database.">
<polygon fill="white" stroke="#666666" points="752.88,-173.45 603.38,-173.45 603.38,-141.45 752.88,-141.45 752.88,-173.45"/>
<text text-anchor="start" x="611.38" y="-159.95" font-family="Helvetica,sans-Serif" font-size="10.00">AinslieAPI.Controllers.GSS.</text>
<text text-anchor="middle" x="678.12" y="-147.95" font-family="Helvetica,sans-Serif" font-size="10.00">TdcrController.TdcrOrderExists</text>
</a>
</g>
</g>
<!-- Node9&#45;&gt;Node11 -->
<g id="edge17_Node000009_Node000011" class="edge">
<title>Node9&#45;&gt;Node11</title>
<g id="a_edge17_Node000009_Node000011"><a xlink:title=" ">
<path fill="none" stroke="#63b8ff" d="M348.01,-191.41C360.01,-190.06 372.19,-188.7 383.75,-187.45 453.66,-179.87 533,-171.79 591.53,-165.92"/>
<polygon fill="#63b8ff" stroke="#63b8ff" points="591.84,-169.41 601.44,-164.93 591.14,-162.44 591.84,-169.41"/>
</a>
</g>
</g>
<!-- Node12 -->
<g id="Node000012" class="node">
<title>Node12</title>
<g id="a_Node000012"><a xlink:href="class_ainslie_a_p_i_1_1_helpers_1_1_shared_tools.html#a5d26beaa558c5d4b15370f0308f447bf" target="_top" xlink:title="Converts a Unix timestamp to a local DateTime.">
<polygon fill="white" stroke="#666666" points="560.25,-135.45 384.5,-135.45 384.5,-103.45 560.25,-103.45 560.25,-135.45"/>
<text text-anchor="start" x="392.5" y="-121.95" font-family="Helvetica,sans-Serif" font-size="10.00">AinslieAPI.Helpers.Shared</text>
<text text-anchor="middle" x="472.38" y="-109.95" font-family="Helvetica,sans-Serif" font-size="10.00">Tools.UnixTimeSecondsToLocalTime</text>
</a>
</g>
</g>
<!-- Node9&#45;&gt;Node12 -->
<g id="edge19_Node000009_Node000012" class="edge">
<title>Node9&#45;&gt;Node12</title>
<g id="a_edge19_Node000009_Node000012"><a xlink:title=" ">
<path fill="none" stroke="#63b8ff" d="M298.22,-185.04C322.33,-174.44 354.7,-160.59 383.75,-149.45 392.49,-146.1 401.79,-142.72 410.94,-139.5"/>
<polygon fill="#63b8ff" stroke="#63b8ff" points="411.84,-142.89 420.13,-136.3 409.54,-136.28 411.84,-142.89"/>
</a>
</g>
</g>
<!-- Node10&#45;&gt;Node3 -->
<g id="edge15_Node000010_Node000003" class="edge">
<title>Node10&#45;&gt;Node3</title>
<g id="a_edge15_Node000010_Node000003"><a xlink:title=" ">
<path fill="none" stroke="#63b8ff" d="M561.18,-244.12C627.38,-243.13 717.75,-241.76 783.85,-240.77"/>
<polygon fill="#63b8ff" stroke="#63b8ff" points="783.61,-244.27 793.55,-240.62 783.5,-237.27 783.61,-244.27"/>
</a>
</g>
</g>
<!-- Node10&#45;&gt;Node8 -->
<g id="edge16_Node000010_Node000008" class="edge">
<title>Node10&#45;&gt;Node8</title>
<g id="a_edge16_Node000010_Node000008"><a xlink:title=" ">
<path fill="none" stroke="#63b8ff" d="M561.26,-261.84C569.24,-263.33 577.34,-264.84 585.35,-266.33"/>
<polygon fill="#63b8ff" stroke="#63b8ff" points="584.64,-269.76 595.11,-268.15 585.92,-262.88 584.64,-269.76"/>
</a>
</g>
</g>
<!-- Node11&#45;&gt;Node3 -->
<g id="edge18_Node000011_Node000003" class="edge">
<title>Node11&#45;&gt;Node3</title>
<g id="a_edge18_Node000011_Node000003"><a xlink:title=" ">
<path fill="none" stroke="#63b8ff" d="M724.7,-173.83C736.06,-178.09 748.15,-182.8 759.25,-187.45 781.98,-196.96 806.89,-208.42 827.42,-218.15"/>
<polygon fill="#63b8ff" stroke="#63b8ff" points="825.83,-221.27 836.37,-222.42 828.84,-214.95 825.83,-221.27"/>
</a>
</g>
</g>
</g>
</svg>

<g id="navigator" transform="translate(0 0)" fill="#404254">
  <rect fill="#f2f5e9" fill-opacity="0.5" stroke="#606060" stroke-width=".5" x="0" y="0" width="60" height="60"/>
  <use id="zoomplus" xlink:href="#zoomPlus" x="17" y="9" onmousedown="handleZoom(evt,'in')"/>
  <use id="zoomminus" xlink:href="#zoomMin" x="42" y="9" onmousedown="handleZoom(evt,'out')"/>
  <use id="reset" xlink:href="#resetDef" x="30" y="36" onmousedown="handleReset()"/>
   <use id="arrowup" xlink:href="#arrowUp" x="0" y="0" onmousedown="handlePan(0,-1)"/>
  <use id="arrowright" xlink:href="#arrowRight" x="0" y="0" onmousedown="handlePan(1,0)"/>
  <use id="arrowdown" xlink:href="#arrowDown" x="0" y="0" onmousedown="handlePan(0,1)"/>
  <use id="arrowleft" xlink:href="#arrowLeft" x="0" y="0" onmousedown="handlePan(-1,0)"/>
</g>
<svg viewBox="0 0 15 15" width="100%" height="30px" preserveAspectRatio="xMaxYMin meet">
 <g id="arrow_out" transform="scale(0.3 0.3)">
  <a xlink:href="class_ainslie_a_p_i_1_1_controllers_1_1_g_s_s_1_1_tdcr_controller_a9eba319227d13605723ee5253d17b014_cgraph_org.svg" target="_base">
   <rect id="button" ry="5" rx="5" y="6" x="6" height="38" width="38"
        fill="#f2f5e9" fill-opacity="0.5" stroke="#606060" stroke-width="1.0"/>
   <path id="arrow"
     d="M 11.500037,31.436501 C 11.940474,20.09759 22.043105,11.32322 32.158766,21.979434 L 37.068811,17.246167 C 37.068811,17.246167 37.088388,32 37.088388,32 L 22.160133,31.978069 C 22.160133,31.978069 26.997745,27.140456 26.997745,27.140456 C 18.528582,18.264221 13.291696,25.230495 11.500037,31.436501 z"
     style="fill:#404040;"/>
  </a>
 </g>
</svg>

<style type='text/css'>
<![CDATA[
[data-mouse-over-selected='false'] { opacity: 0.7; }
[data-mouse-over-selected='true']  { opacity: 1.0; }
]]>
</style>
<script type="application/ecmascript"><![CDATA[
document.addEventListener('DOMContentLoaded', (event) => {
  highlightEdges();
  highlightAdjacentNodes();
});
]]></script>
</svg>
