<?xml version="1.0" encoding="UTF-8" standalone="no"?>
<!DOCTYPE svg PUBLIC "-//W3C//DTD SVG 1.1//EN"
 "http://www.w3.org/Graphics/SVG/1.1/DTD/svg11.dtd">
<!-- Generated by graphviz version 9.0.0 (20230911.1827)
 -->
<!-- Title: AinslieAPI.Services.InternalApiService.GetGreenIdCustomer Pages: 1 -->
<svg width="734pt" height="90pt"
 viewBox="0.00 0.00 734.25 90.00" xmlns="http://www.w3.org/2000/svg" xmlns:xlink="http://www.w3.org/1999/xlink">
<g id="graph0" class="graph" transform="scale(1 1) rotate(0) translate(4 86)">
<title>AinslieAPI.Services.InternalApiService.GetGreenIdCustomer</title>
<!-- Node1 -->
<g id="Node000001" class="node">
<title>Node1</title>
<g id="a_Node000001"><a xlink:title="Retrieves Green ID customer data from Internal API based on the specified branch and user ID.">
<polygon fill="#999999" stroke="#666666" points="156.25,-57 0,-57 0,-25 156.25,-25 156.25,-57"/>
<text text-anchor="start" x="8" y="-43.5" font-family="Helvetica,sans-Serif" font-size="10.00">AinslieAPI.Services.Internal</text>
<text text-anchor="middle" x="78.12" y="-31.5" font-family="Helvetica,sans-Serif" font-size="10.00">ApiService.GetGreenIdCustomer</text>
</a>
</g>
</g>
<!-- Node2 -->
<g id="Node000002" class="node">
<title>Node2</title>
<g id="a_Node000002"><a xlink:href="class_ainslie_a_p_i_1_1_services_1_1_log_service.html#a9bf79a218e0884ac9cabd3ac87b81321" target="_top" xlink:title=" ">
<polygon fill="white" stroke="#666666" points="346.25,-82 192.25,-82 192.25,-50 346.25,-50 346.25,-82"/>
<text text-anchor="start" x="200.25" y="-68.5" font-family="Helvetica,sans-Serif" font-size="10.00">AinslieAPI.Services.LogService.</text>
<text text-anchor="middle" x="269.25" y="-56.5" font-family="Helvetica,sans-Serif" font-size="10.00">LogError</text>
</a>
</g>
</g>
<!-- Node1&#45;&gt;Node2 -->
<g id="edge1_Node000001_Node000002" class="edge">
<title>Node1&#45;&gt;Node2</title>
<g id="a_edge1_Node000001_Node000002"><a xlink:title=" ">
<path fill="none" stroke="#63b8ff" d="M156.6,-51.24C164.5,-52.29 172.57,-53.35 180.57,-54.41"/>
<polygon fill="#63b8ff" stroke="#63b8ff" points="179.94,-57.86 190.32,-55.7 180.86,-50.92 179.94,-57.86"/>
</a>
</g>
</g>
<!-- Node5 -->
<g id="Node000005" class="node">
<title>Node5</title>
<g id="a_Node000005"><a xlink:href="class_ainslie_a_p_i_1_1_services_1_1_log_service.html#a83bbf569dea7ea5a40e02fca200aad8c" target="_top" xlink:title=" ">
<polygon fill="white" stroke="#666666" points="346.25,-32 192.25,-32 192.25,0 346.25,0 346.25,-32"/>
<text text-anchor="start" x="200.25" y="-18.5" font-family="Helvetica,sans-Serif" font-size="10.00">AinslieAPI.Services.LogService.</text>
<text text-anchor="middle" x="269.25" y="-6.5" font-family="Helvetica,sans-Serif" font-size="10.00">LogException</text>
</a>
</g>
</g>
<!-- Node1&#45;&gt;Node5 -->
<g id="edge4_Node000001_Node000005" class="edge">
<title>Node1&#45;&gt;Node5</title>
<g id="a_edge4_Node000001_Node000005"><a xlink:title=" ">
<path fill="none" stroke="#63b8ff" d="M156.6,-30.76C164.5,-29.71 172.57,-28.65 180.57,-27.59"/>
<polygon fill="#63b8ff" stroke="#63b8ff" points="180.86,-31.08 190.32,-26.3 179.94,-24.14 180.86,-31.08"/>
</a>
</g>
</g>
<!-- Node3 -->
<g id="Node000003" class="node">
<title>Node3</title>
<g id="a_Node000003"><a xlink:href="class_ainslie_a_p_i_1_1_services_1_1_log_service.html#a3c2dce5ed306365dfa416f700e5360cf" target="_top" xlink:title="inserts log to database">
<polygon fill="white" stroke="#666666" points="536.25,-57 382.25,-57 382.25,-25 536.25,-25 536.25,-57"/>
<text text-anchor="start" x="390.25" y="-43.5" font-family="Helvetica,sans-Serif" font-size="10.00">AinslieAPI.Services.LogService.</text>
<text text-anchor="middle" x="459.25" y="-31.5" font-family="Helvetica,sans-Serif" font-size="10.00">InsertLog</text>
</a>
</g>
</g>
<!-- Node2&#45;&gt;Node3 -->
<g id="edge2_Node000002_Node000003" class="edge">
<title>Node2&#45;&gt;Node3</title>
<g id="a_edge2_Node000002_Node000003"><a xlink:title=" ">
<path fill="none" stroke="#63b8ff" d="M346.72,-55.83C354.59,-54.78 362.64,-53.71 370.63,-52.65"/>
<polygon fill="#63b8ff" stroke="#63b8ff" points="370.9,-56.15 380.35,-51.36 369.98,-49.21 370.9,-56.15"/>
</a>
</g>
</g>
<!-- Node4 -->
<g id="Node000004" class="node">
<title>Node4</title>
<g id="a_Node000004"><a xlink:href="class_ainslie_a_p_i_1_1_services_1_1_log_service.html#a6342d4add22dfffd5dadb5a7b3f112bc" target="_top" xlink:title="writes a text file log to [App home directory]/log">
<polygon fill="white" stroke="#666666" points="726.25,-57 572.25,-57 572.25,-25 726.25,-25 726.25,-57"/>
<text text-anchor="start" x="580.25" y="-43.5" font-family="Helvetica,sans-Serif" font-size="10.00">AinslieAPI.Services.LogService.</text>
<text text-anchor="middle" x="649.25" y="-31.5" font-family="Helvetica,sans-Serif" font-size="10.00">WriteLog</text>
</a>
</g>
</g>
<!-- Node3&#45;&gt;Node4 -->
<g id="edge3_Node000003_Node000004" class="edge">
<title>Node3&#45;&gt;Node4</title>
<g id="a_edge3_Node000003_Node000004"><a xlink:title=" ">
<path fill="none" stroke="#63b8ff" d="M536.72,-41C544.5,-41 552.46,-41 560.35,-41"/>
<polygon fill="#63b8ff" stroke="#63b8ff" points="560.34,-44.5 570.34,-41 560.34,-37.5 560.34,-44.5"/>
</a>
</g>
</g>
<!-- Node5&#45;&gt;Node3 -->
<g id="edge5_Node000005_Node000003" class="edge">
<title>Node5&#45;&gt;Node3</title>
<g id="a_edge5_Node000005_Node000003"><a xlink:title=" ">
<path fill="none" stroke="#63b8ff" d="M346.72,-26.17C354.59,-27.22 362.64,-28.29 370.63,-29.35"/>
<polygon fill="#63b8ff" stroke="#63b8ff" points="369.98,-32.79 380.35,-30.64 370.9,-25.85 369.98,-32.79"/>
</a>
</g>
</g>
</g>
</svg>
