<?xml version="1.0" encoding="UTF-8" standalone="no"?>
<!DOCTYPE svg PUBLIC "-//W3C//DTD SVG 1.1//EN"
 "http://www.w3.org/Graphics/SVG/1.1/DTD/svg11.dtd">
<!-- Generated by graphviz version 9.0.0 (20230911.1827)
 -->
<!-- Title: Flatted\ref Pages: 1 -->
<svg width="280pt" height="28pt"
 viewBox="0.00 0.00 279.50 28.00" xmlns="http://www.w3.org/2000/svg" xmlns:xlink="http://www.w3.org/1999/xlink">
<g id="graph0" class="graph" transform="scale(1 1) rotate(0) translate(4 24)">
<title>Flatted\ref</title>
<!-- Node1 -->
<g id="Node000001" class="node">
<title>Node1</title>
<g id="a_Node000001"><a xlink:title=" ">
<polygon fill="#999999" stroke="#666666" points="271.5,-20 212,-20 212,0 271.5,0 271.5,-20"/>
<text text-anchor="middle" x="241.75" y="-6.5" font-family="Helvetica,sans-Serif" font-size="10.00">Flatted\ref</text>
</a>
</g>
</g>
<!-- Node2 -->
<g id="Node000002" class="node">
<title>Node2</title>
<g id="a_Node000002"><a xlink:href="class_flatted.html#a71d799a680c7adf89e9559e045138b9e" target="_top" xlink:title=" ">
<polygon fill="white" stroke="#666666" points="176,-20 109,-20 109,0 176,0 176,-20"/>
<text text-anchor="middle" x="142.5" y="-6.5" font-family="Helvetica,sans-Serif" font-size="10.00">Flatted\loop</text>
</a>
</g>
</g>
<!-- Node1&#45;&gt;Node2 -->
<g id="edge1_Node000001_Node000002" class="edge">
<title>Node1&#45;&gt;Node2</title>
<g id="a_edge1_Node000001_Node000002"><a xlink:title=" ">
<path fill="none" stroke="#63b8ff" d="M200.25,-3.33C192.31,-3.17 184.06,-3.25 176.41,-3.57"/>
<polygon fill="#63b8ff" stroke="#63b8ff" points="199.94,-6.83 210.06,-3.7 200.2,0.17 199.94,-6.83"/>
</a>
</g>
</g>
<!-- Node2&#45;&gt;Node1 -->
<g id="edge3_Node000002_Node000001" class="edge">
<title>Node2&#45;&gt;Node1</title>
<g id="a_edge3_Node000002_Node000001"><a xlink:title=" ">
<path fill="none" stroke="#63b8ff" d="M187.66,-16.72C195.77,-16.82 204.04,-16.66 211.57,-16.25"/>
<polygon fill="#63b8ff" stroke="#63b8ff" points="188.01,-13.23 177.92,-16.47 187.82,-20.23 188.01,-13.23"/>
</a>
</g>
</g>
<!-- Node3 -->
<g id="Node000003" class="node">
<title>Node3</title>
<g id="a_Node000003"><a xlink:href="class_flatted.html#abda2f205b4a05f941504857868aa4435" target="_top" xlink:title=" ">
<polygon fill="white" stroke="#666666" points="73,-20 0,-20 0,0 73,0 73,-20"/>
<text text-anchor="middle" x="36.5" y="-6.5" font-family="Helvetica,sans-Serif" font-size="10.00">Flatted\parse</text>
</a>
</g>
</g>
<!-- Node2&#45;&gt;Node3 -->
<g id="edge2_Node000002_Node000003" class="edge">
<title>Node2&#45;&gt;Node3</title>
<g id="a_edge2_Node000002_Node000003"><a xlink:title=" ">
<path fill="none" stroke="#63b8ff" d="M97.23,-10C89.29,-10 81.1,-10 73.44,-10"/>
<polygon fill="#63b8ff" stroke="#63b8ff" points="97.08,-13.5 107.08,-10 97.08,-6.5 97.08,-13.5"/>
</a>
</g>
</g>
</g>
</svg>
