<?xml version="1.0" encoding="UTF-8" standalone="no"?>
<!DOCTYPE svg PUBLIC "-//W3C//DTD SVG 1.1//EN"
 "http://www.w3.org/Graphics/SVG/1.1/DTD/svg11.dtd">
<!-- Generated by graphviz version 9.0.0 (20230911.1827)
 -->
<!-- Title: AinslieAPI.Controllers.GSS.TdcrController.PriceOutsideThreshold Pages: 1 -->
<svg width="954pt" height="62pt"
 viewBox="0.00 0.00 953.50 62.00" xmlns="http://www.w3.org/2000/svg" xmlns:xlink="http://www.w3.org/1999/xlink">
<g id="graph0" class="graph" transform="scale(1 1) rotate(0) translate(4 58)">
<title>AinslieAPI.Controllers.GSS.TdcrController.PriceOutsideThreshold</title>
<!-- Node1 -->
<g id="Node000001" class="node">
<title>Node1</title>
<g id="a_Node000001"><a xlink:title="Determines whether the price specified in an order request falls outside the acceptable threshold as ...">
<polygon fill="#999999" stroke="#666666" points="177.25,-54 0,-54 0,-22 177.25,-22 177.25,-54"/>
<text text-anchor="start" x="8" y="-40.5" font-family="Helvetica,sans-Serif" font-size="10.00">AinslieAPI.Controllers.GSS.</text>
<text text-anchor="middle" x="88.62" y="-28.5" font-family="Helvetica,sans-Serif" font-size="10.00">TdcrController.PriceOutsideThreshold</text>
</a>
</g>
</g>
<!-- Node2 -->
<g id="Node000002" class="node">
<title>Node2</title>
<g id="a_Node000002"><a xlink:href="class_ainslie_a_p_i_1_1_services_1_1_log_service.html#a83bbf569dea7ea5a40e02fca200aad8c" target="_top" xlink:title=" ">
<polygon fill="white" stroke="#666666" points="565.5,-54 411.5,-54 411.5,-22 565.5,-22 565.5,-54"/>
<text text-anchor="start" x="419.5" y="-40.5" font-family="Helvetica,sans-Serif" font-size="10.00">AinslieAPI.Services.LogService.</text>
<text text-anchor="middle" x="488.5" y="-28.5" font-family="Helvetica,sans-Serif" font-size="10.00">LogException</text>
</a>
</g>
</g>
<!-- Node1&#45;&gt;Node2 -->
<g id="edge1_Node000001_Node000002" class="edge">
<title>Node1&#45;&gt;Node2</title>
<g id="a_edge1_Node000001_Node000002"><a xlink:title=" ">
<path fill="none" stroke="#63b8ff" d="M177.42,-40.39C189.46,-40.64 201.66,-40.86 213.25,-41 285.36,-41.87 303.4,-41.97 375.5,-41 383.46,-40.89 391.73,-40.74 400.02,-40.57"/>
<polygon fill="#63b8ff" stroke="#63b8ff" points="399.86,-44.07 409.78,-40.35 399.7,-37.08 399.86,-44.07"/>
</a>
</g>
</g>
<!-- Node5 -->
<g id="Node000005" class="node">
<title>Node5</title>
<g id="a_Node000005"><a xlink:href="class_ainslie_a_p_i_1_1_controllers_1_1_g_s_s_1_1_tdcr_controller.html#a2afd83d8bf3e0f4695d32ea1f255f4a5" target="_top" xlink:title="Fetches the current live price in AUD for a given asset based on the order request&#39;s market and side.">
<polygon fill="white" stroke="#666666" points="375.5,-32 213.25,-32 213.25,0 375.5,0 375.5,-32"/>
<text text-anchor="start" x="221.25" y="-18.5" font-family="Helvetica,sans-Serif" font-size="10.00">AinslieAPI.Controllers.GSS.</text>
<text text-anchor="middle" x="294.38" y="-6.5" font-family="Helvetica,sans-Serif" font-size="10.00">TdcrController.OrderLivePriceAUD</text>
</a>
</g>
</g>
<!-- Node1&#45;&gt;Node5 -->
<g id="edge4_Node000001_Node000005" class="edge">
<title>Node1&#45;&gt;Node5</title>
<g id="a_edge4_Node000001_Node000005"><a xlink:title=" ">
<path fill="none" stroke="#63b8ff" d="M177.51,-28.51C185.49,-27.65 193.59,-26.77 201.6,-25.91"/>
<polygon fill="#63b8ff" stroke="#63b8ff" points="201.78,-29.41 211.34,-24.86 201.03,-22.45 201.78,-29.41"/>
</a>
</g>
</g>
<!-- Node3 -->
<g id="Node000003" class="node">
<title>Node3</title>
<g id="a_Node000003"><a xlink:href="class_ainslie_a_p_i_1_1_services_1_1_log_service.html#a3c2dce5ed306365dfa416f700e5360cf" target="_top" xlink:title="inserts log to database">
<polygon fill="white" stroke="#666666" points="755.5,-54 601.5,-54 601.5,-22 755.5,-22 755.5,-54"/>
<text text-anchor="start" x="609.5" y="-40.5" font-family="Helvetica,sans-Serif" font-size="10.00">AinslieAPI.Services.LogService.</text>
<text text-anchor="middle" x="678.5" y="-28.5" font-family="Helvetica,sans-Serif" font-size="10.00">InsertLog</text>
</a>
</g>
</g>
<!-- Node2&#45;&gt;Node3 -->
<g id="edge2_Node000002_Node000003" class="edge">
<title>Node2&#45;&gt;Node3</title>
<g id="a_edge2_Node000002_Node000003"><a xlink:title=" ">
<path fill="none" stroke="#63b8ff" d="M565.97,-38C573.75,-38 581.71,-38 589.6,-38"/>
<polygon fill="#63b8ff" stroke="#63b8ff" points="589.59,-41.5 599.59,-38 589.59,-34.5 589.59,-41.5"/>
</a>
</g>
</g>
<!-- Node4 -->
<g id="Node000004" class="node">
<title>Node4</title>
<g id="a_Node000004"><a xlink:href="class_ainslie_a_p_i_1_1_services_1_1_log_service.html#a6342d4add22dfffd5dadb5a7b3f112bc" target="_top" xlink:title="writes a text file log to [App home directory]/log">
<polygon fill="white" stroke="#666666" points="945.5,-54 791.5,-54 791.5,-22 945.5,-22 945.5,-54"/>
<text text-anchor="start" x="799.5" y="-40.5" font-family="Helvetica,sans-Serif" font-size="10.00">AinslieAPI.Services.LogService.</text>
<text text-anchor="middle" x="868.5" y="-28.5" font-family="Helvetica,sans-Serif" font-size="10.00">WriteLog</text>
</a>
</g>
</g>
<!-- Node3&#45;&gt;Node4 -->
<g id="edge3_Node000003_Node000004" class="edge">
<title>Node3&#45;&gt;Node4</title>
<g id="a_edge3_Node000003_Node000004"><a xlink:title=" ">
<path fill="none" stroke="#63b8ff" d="M755.97,-38C763.75,-38 771.71,-38 779.6,-38"/>
<polygon fill="#63b8ff" stroke="#63b8ff" points="779.59,-41.5 789.59,-38 779.59,-34.5 779.59,-41.5"/>
</a>
</g>
</g>
<!-- Node5&#45;&gt;Node2 -->
<g id="edge5_Node000005_Node000002" class="edge">
<title>Node5&#45;&gt;Node2</title>
<g id="a_edge5_Node000005_Node000002"><a xlink:title=" ">
<path fill="none" stroke="#63b8ff" d="M375.74,-25.2C383.71,-26.11 391.82,-27.04 399.86,-27.96"/>
<polygon fill="#63b8ff" stroke="#63b8ff" points="399.31,-31.42 409.64,-29.08 400.1,-24.47 399.31,-31.42"/>
</a>
</g>
</g>
</g>
</svg>
