<?xml version="1.0" encoding="UTF-8" standalone="no"?>
<!DOCTYPE svg PUBLIC "-//W3C//DTD SVG 1.1//EN"
 "http://www.w3.org/Graphics/SVG/1.1/DTD/svg11.dtd">
<!-- Generated by graphviz version 9.0.0 (20230911.1827)
 -->
<!-- Title: AinslieAPI.Controllers.GSS.TdcrController.OrderLivePriceAUD Pages: 1 -->
<!--zoomable 62 -->

<svg id="main" version="1.1" xmlns="http://www.w3.org/2000/svg" xmlns:xlink="http://www.w3.org/1999/xlink" xml:space="preserve" onload="init(evt)">
<style type="text/css"><![CDATA[
.node, .edge {opacity: 0.7;}
.node.selected, .edge.selected {opacity: 1;}
.edge:hover path { stroke: red; }
.edge:hover polygon { stroke: red; fill: red; }
]]></style>

<defs>
  <circle id="rim" cx="0" cy="0" r="7"/>
  <circle id="rim2" cx="0" cy="0" r="3.5"/>
  <g id="zoomPlus">
    <use xlink:href="#rim" fill="#404040"><set attributeName="fill" to="#808080" begin="zoomplus.mouseover" end="zoomplus.mouseout"/></use>
    <path d="M-4,0h8M0,-4v8" fill="none" stroke="white" stroke-width="1.5" pointer-events="none"/>
  </g>
  <g id="zoomMin">
    <use xlink:href="#rim" fill="#404040"><set attributeName="fill" to="#808080" begin="zoomminus.mouseover" end="zoomminus.mouseout"/></use>
    <path d="M-4,0h8" fill="none" stroke="white" stroke-width="1.5" pointer-events="none"/>
  </g>
  <g id="arrowUp" transform="translate(30 24)">
    <use xlink:href="#rim"/>
    <path pointer-events="none" fill="none" stroke="white" stroke-width="1.5" d="M0,-3.0v7 M-2.5,-0.5L0,-3.0L2.5,-0.5"/>
  </g>
  <g id="arrowRight" transform="rotate(90) translate(36 -43)">
    <use xlink:href="#rim"/>
    <path pointer-events="none" fill="none" stroke="white" stroke-width="1.5" d="M0,-3.0v7 M-2.5,-0.5L0,-3.0L2.5,-0.5"/>
  </g>
  <g id="arrowDown" transform="rotate(180) translate(-30 -48)">
    <use xlink:href="#rim"/>
    <path pointer-events="none" fill="none" stroke="white" stroke-width="1.5" d="M0,-3.0v7 M-2.5,-0.5L0,-3.0L2.5,-0.5"/>
  </g>
  <g id="arrowLeft" transform="rotate(270) translate(-36 17)">
    <use xlink:href="#rim"/>
    <path pointer-events="none" fill="none" stroke="white" stroke-width="1.5" d="M0,-3.0v7 M-2.5,-0.5L0,-3.0L2.5,-0.5"/>
  </g>
  <g id="resetDef">
    <use xlink:href="#rim2" fill="#404040"><set attributeName="fill" to="#808080" begin="reset.mouseover" end="reset.mouseout"/></use>
  </g>
</defs>
<script type="application/ecmascript">
var viewWidth = 767;
var viewHeight = 62;
var sectionId = 'dynsection-6';
</script>
<script type="application/ecmascript" xlink:href="svg.min.js"/>
<svg id="graph" class="graph">
<g id="viewport">
<title>AinslieAPI.Controllers.GSS.TdcrController.OrderLivePriceAUD</title>
<!-- Node1 -->
<g id="Node000001" class="node">
<title>Node1</title>
<g id="a_Node000001"><a xlink:title="Fetches the current live price in AUD for a given asset based on the order request&#39;s market and side.">
<polygon fill="#999999" stroke="#666666" points="759.25,-54 597,-54 597,-22 759.25,-22 759.25,-54"/>
<text text-anchor="start" x="605" y="-40.5" font-family="Helvetica,sans-Serif" font-size="10.00">AinslieAPI.Controllers.GSS.</text>
<text text-anchor="middle" x="678.12" y="-28.5" font-family="Helvetica,sans-Serif" font-size="10.00">TdcrController.OrderLivePriceAUD</text>
</a>
</g>
</g>
<!-- Node2 -->
<g id="Node000002" class="node">
<title>Node2</title>
<g id="a_Node000002"><a xlink:href="class_ainslie_a_p_i_1_1_controllers_1_1_g_s_s_1_1_tdcr_controller.html#a9eba319227d13605723ee5253d17b014" target="_top" xlink:title="Processes incoming order requests, validating and saving them to the database.">
<polygon fill="white" stroke="#666666" points="137.5,-54 0,-54 0,-22 137.5,-22 137.5,-54"/>
<text text-anchor="start" x="8" y="-40.5" font-family="Helvetica,sans-Serif" font-size="10.00">AinslieAPI.Controllers.GSS.</text>
<text text-anchor="middle" x="68.75" y="-28.5" font-family="Helvetica,sans-Serif" font-size="10.00">TdcrController.Orders</text>
</a>
</g>
</g>
<!-- Node1&#45;&gt;Node2 -->
<g id="edge1_Node000001_Node000002" class="edge">
<title>Node1&#45;&gt;Node2</title>
<g id="a_edge1_Node000001_Node000002"><a xlink:title=" ">
<path fill="none" stroke="#63b8ff" d="M585.05,-40.6C576.92,-40.76 568.81,-40.9 561,-41 388.79,-43.22 345.7,-43.49 173.5,-41 161.97,-40.83 149.72,-40.56 137.83,-40.25"/>
<polygon fill="#63b8ff" stroke="#63b8ff" points="585.11,-44.1 595.03,-40.38 584.96,-37.1 585.11,-44.1"/>
</a>
</g>
</g>
<!-- Node3 -->
<g id="Node000003" class="node">
<title>Node3</title>
<g id="a_Node000003"><a xlink:href="class_ainslie_a_p_i_1_1_controllers_1_1_g_s_s_1_1_tdcr_controller.html#a5425d57dc6e7f08c36785f3ca41d30ab" target="_top" xlink:title="Determines whether the price specified in an order request falls outside the acceptable threshold as ...">
<polygon fill="white" stroke="#666666" points="561,-32 383.75,-32 383.75,0 561,0 561,-32"/>
<text text-anchor="start" x="391.75" y="-18.5" font-family="Helvetica,sans-Serif" font-size="10.00">AinslieAPI.Controllers.GSS.</text>
<text text-anchor="middle" x="472.38" y="-6.5" font-family="Helvetica,sans-Serif" font-size="10.00">TdcrController.PriceOutsideThreshold</text>
</a>
</g>
</g>
<!-- Node1&#45;&gt;Node3 -->
<g id="edge2_Node000001_Node000003" class="edge">
<title>Node1&#45;&gt;Node3</title>
<g id="a_edge2_Node000001_Node000003"><a xlink:title=" ">
<path fill="none" stroke="#63b8ff" d="M585.38,-28.09C577.4,-27.23 569.33,-26.36 561.37,-25.5"/>
<polygon fill="#63b8ff" stroke="#63b8ff" points="584.77,-31.55 595.09,-29.14 585.53,-24.59 584.77,-31.55"/>
</a>
</g>
</g>
<!-- Node4 -->
<g id="Node000004" class="node">
<title>Node4</title>
<g id="a_Node000004"><a xlink:href="class_ainslie_a_p_i_1_1_controllers_1_1_g_s_s_1_1_tdcr_controller.html#acdce12cbf8d3ceb33fc727648bf58fc8" target="_top" xlink:title="Validates the provided order request against business rules.">
<polygon fill="white" stroke="#666666" points="347.75,-32 173.5,-32 173.5,0 347.75,0 347.75,-32"/>
<text text-anchor="start" x="181.5" y="-18.5" font-family="Helvetica,sans-Serif" font-size="10.00">AinslieAPI.Controllers.GSS.</text>
<text text-anchor="middle" x="260.62" y="-6.5" font-family="Helvetica,sans-Serif" font-size="10.00">TdcrController.ValidateOrderRequest</text>
</a>
</g>
</g>
<!-- Node3&#45;&gt;Node4 -->
<g id="edge3_Node000003_Node000004" class="edge">
<title>Node3&#45;&gt;Node4</title>
<g id="a_edge3_Node000003_Node000004"><a xlink:title=" ">
<path fill="none" stroke="#63b8ff" d="M372.06,-16C364.05,-16 356,-16 348.1,-16"/>
<polygon fill="#63b8ff" stroke="#63b8ff" points="371.82,-19.5 381.82,-16 371.82,-12.5 371.82,-19.5"/>
</a>
</g>
</g>
<!-- Node4&#45;&gt;Node2 -->
<g id="edge4_Node000004_Node000002" class="edge">
<title>Node4&#45;&gt;Node2</title>
<g id="a_edge4_Node000004_Node000002"><a xlink:title=" ">
<path fill="none" stroke="#63b8ff" d="M161.62,-27.36C153.55,-28.29 145.51,-29.22 137.74,-30.12"/>
<polygon fill="#63b8ff" stroke="#63b8ff" points="161.99,-30.84 171.52,-26.21 161.18,-23.88 161.99,-30.84"/>
</a>
</g>
</g>
</g>
</svg>

<g id="navigator" transform="translate(0 0)" fill="#404254">
  <rect fill="#f2f5e9" fill-opacity="0.5" stroke="#606060" stroke-width=".5" x="0" y="0" width="60" height="60"/>
  <use id="zoomplus" xlink:href="#zoomPlus" x="17" y="9" onmousedown="handleZoom(evt,'in')"/>
  <use id="zoomminus" xlink:href="#zoomMin" x="42" y="9" onmousedown="handleZoom(evt,'out')"/>
  <use id="reset" xlink:href="#resetDef" x="30" y="36" onmousedown="handleReset()"/>
   <use id="arrowup" xlink:href="#arrowUp" x="0" y="0" onmousedown="handlePan(0,-1)"/>
  <use id="arrowright" xlink:href="#arrowRight" x="0" y="0" onmousedown="handlePan(1,0)"/>
  <use id="arrowdown" xlink:href="#arrowDown" x="0" y="0" onmousedown="handlePan(0,1)"/>
  <use id="arrowleft" xlink:href="#arrowLeft" x="0" y="0" onmousedown="handlePan(-1,0)"/>
</g>
<svg viewBox="0 0 15 15" width="100%" height="30px" preserveAspectRatio="xMaxYMin meet">
 <g id="arrow_out" transform="scale(0.3 0.3)">
  <a xlink:href="class_ainslie_a_p_i_1_1_controllers_1_1_g_s_s_1_1_tdcr_controller_a2afd83d8bf3e0f4695d32ea1f255f4a5_icgraph_org.svg" target="_base">
   <rect id="button" ry="5" rx="5" y="6" x="6" height="38" width="38"
        fill="#f2f5e9" fill-opacity="0.5" stroke="#606060" stroke-width="1.0"/>
   <path id="arrow"
     d="M 11.500037,31.436501 C 11.940474,20.09759 22.043105,11.32322 32.158766,21.979434 L 37.068811,17.246167 C 37.068811,17.246167 37.088388,32 37.088388,32 L 22.160133,31.978069 C 22.160133,31.978069 26.997745,27.140456 26.997745,27.140456 C 18.528582,18.264221 13.291696,25.230495 11.500037,31.436501 z"
     style="fill:#404040;"/>
  </a>
 </g>
</svg>

<style type='text/css'>
<![CDATA[
[data-mouse-over-selected='false'] { opacity: 0.7; }
[data-mouse-over-selected='true']  { opacity: 1.0; }
]]>
</style>
<script type="application/ecmascript"><![CDATA[
document.addEventListener('DOMContentLoaded', (event) => {
  highlightEdges();
  highlightAdjacentNodes();
});
]]></script>
</svg>
