<?xml version="1.0" encoding="UTF-8" standalone="no"?>
<!DOCTYPE svg PUBLIC "-//W3C//DTD SVG 1.1//EN"
 "http://www.w3.org/Graphics/SVG/1.1/DTD/svg11.dtd">
<!-- Generated by graphviz version 9.0.0 (20230911.1827)
 -->
<!-- Title: Flatted\transform Pages: 1 -->
<svg width="315pt" height="66pt"
 viewBox="0.00 0.00 314.75 66.00" xmlns="http://www.w3.org/2000/svg" xmlns:xlink="http://www.w3.org/1999/xlink">
<g id="graph0" class="graph" transform="scale(1 1) rotate(0) translate(4 62)">
<title>Flatted\transform</title>
<!-- Node1 -->
<g id="Node000001" class="node">
<title>Node1</title>
<g id="a_Node000001"><a xlink:title=" ">
<polygon fill="#999999" stroke="#666666" points="89.5,-39 0,-39 0,-19 89.5,-19 89.5,-39"/>
<text text-anchor="middle" x="44.75" y="-25.5" font-family="Helvetica,sans-Serif" font-size="10.00">Flatted\transform</text>
</a>
</g>
</g>
<!-- Node2 -->
<g id="Node000002" class="node">
<title>Node2</title>
<g id="a_Node000002"><a xlink:href="class_flatted.html#a66ec2202ad9de929cc4802996fd2e3ea" target="_top" xlink:title=" ">
<polygon fill="white" stroke="#666666" points="197,-58 127,-58 127,-38 197,-38 197,-58"/>
<text text-anchor="middle" x="162" y="-44.5" font-family="Helvetica,sans-Serif" font-size="10.00">Flatted\keys</text>
</a>
</g>
</g>
<!-- Node1&#45;&gt;Node2 -->
<g id="edge1_Node000001_Node000002" class="edge">
<title>Node1&#45;&gt;Node2</title>
<g id="a_edge1_Node000001_Node000002"><a xlink:title=" ">
<path fill="none" stroke="#63b8ff" d="M89.98,-36.29C98.36,-37.67 107.14,-39.12 115.55,-40.51"/>
<polygon fill="#63b8ff" stroke="#63b8ff" points="114.8,-43.93 125.24,-42.1 115.94,-37.02 114.8,-43.93"/>
</a>
</g>
</g>
<!-- Node3 -->
<g id="Node000003" class="node">
<title>Node3</title>
<g id="a_Node000003"><a xlink:href="class_flatted.html#a008f2a38bb722e4ce7ff2d13dab9cac8" target="_top" xlink:title=" ">
<polygon fill="white" stroke="#666666" points="198.5,-20 125.5,-20 125.5,0 198.5,0 198.5,-20"/>
<text text-anchor="middle" x="162" y="-6.5" font-family="Helvetica,sans-Serif" font-size="10.00">Flatted\relate</text>
</a>
</g>
</g>
<!-- Node1&#45;&gt;Node3 -->
<g id="edge2_Node000001_Node000003" class="edge">
<title>Node1&#45;&gt;Node3</title>
<g id="a_edge2_Node000001_Node000003"><a xlink:title=" ">
<path fill="none" stroke="#63b8ff" d="M89.98,-21.71C97.83,-20.41 106.03,-19.06 113.95,-17.76"/>
<polygon fill="#63b8ff" stroke="#63b8ff" points="114.49,-21.21 123.79,-16.13 113.35,-14.31 114.49,-21.21"/>
</a>
</g>
</g>
<!-- Node4 -->
<g id="Node000004" class="node">
<title>Node4</title>
<g id="a_Node000004"><a xlink:href="class_flatted.html#a788b21b4b5be51310dc2f38fa0cd1d1b" target="_top" xlink:title=" ">
<polygon fill="white" stroke="#666666" points="306.75,-20 234.5,-20 234.5,0 306.75,0 306.75,-20"/>
<text text-anchor="middle" x="270.62" y="-6.5" font-family="Helvetica,sans-Serif" font-size="10.00">Flatted\index</text>
</a>
</g>
</g>
<!-- Node3&#45;&gt;Node4 -->
<g id="edge3_Node000003_Node000004" class="edge">
<title>Node3&#45;&gt;Node4</title>
<g id="a_edge3_Node000003_Node000004"><a xlink:title=" ">
<path fill="none" stroke="#63b8ff" d="M198.8,-10C206.44,-10 214.62,-10 222.62,-10"/>
<polygon fill="#63b8ff" stroke="#63b8ff" points="222.59,-13.5 232.59,-10 222.59,-6.5 222.59,-13.5"/>
</a>
</g>
</g>
</g>
</svg>
