<?xml version="1.0" encoding="UTF-8" standalone="no"?>
<!DOCTYPE svg PUBLIC "-//W3C//DTD SVG 1.1//EN"
 "http://www.w3.org/Graphics/SVG/1.1/DTD/svg11.dtd">
<!-- Generated by graphviz version 9.0.0 (20230911.1827)
 -->
<!-- Title: AinslieAPI.Controllers.LogsController Pages: 1 -->
<!--zoomable 262 -->

<svg id="main" version="1.1" xmlns="http://www.w3.org/2000/svg" xmlns:xlink="http://www.w3.org/1999/xlink" xml:space="preserve" onload="init(evt)">
<style type="text/css"><![CDATA[
.node, .edge {opacity: 0.7;}
.node.selected, .edge.selected {opacity: 1;}
.edge:hover path { stroke: red; }
.edge:hover polygon { stroke: red; fill: red; }
]]></style>

<defs>
  <circle id="rim" cx="0" cy="0" r="7"/>
  <circle id="rim2" cx="0" cy="0" r="3.5"/>
  <g id="zoomPlus">
    <use xlink:href="#rim" fill="#404040"><set attributeName="fill" to="#808080" begin="zoomplus.mouseover" end="zoomplus.mouseout"/></use>
    <path d="M-4,0h8M0,-4v8" fill="none" stroke="white" stroke-width="1.5" pointer-events="none"/>
  </g>
  <g id="zoomMin">
    <use xlink:href="#rim" fill="#404040"><set attributeName="fill" to="#808080" begin="zoomminus.mouseover" end="zoomminus.mouseout"/></use>
    <path d="M-4,0h8" fill="none" stroke="white" stroke-width="1.5" pointer-events="none"/>
  </g>
  <g id="arrowUp" transform="translate(30 24)">
    <use xlink:href="#rim"/>
    <path pointer-events="none" fill="none" stroke="white" stroke-width="1.5" d="M0,-3.0v7 M-2.5,-0.5L0,-3.0L2.5,-0.5"/>
  </g>
  <g id="arrowRight" transform="rotate(90) translate(36 -43)">
    <use xlink:href="#rim"/>
    <path pointer-events="none" fill="none" stroke="white" stroke-width="1.5" d="M0,-3.0v7 M-2.5,-0.5L0,-3.0L2.5,-0.5"/>
  </g>
  <g id="arrowDown" transform="rotate(180) translate(-30 -48)">
    <use xlink:href="#rim"/>
    <path pointer-events="none" fill="none" stroke="white" stroke-width="1.5" d="M0,-3.0v7 M-2.5,-0.5L0,-3.0L2.5,-0.5"/>
  </g>
  <g id="arrowLeft" transform="rotate(270) translate(-36 17)">
    <use xlink:href="#rim"/>
    <path pointer-events="none" fill="none" stroke="white" stroke-width="1.5" d="M0,-3.0v7 M-2.5,-0.5L0,-3.0L2.5,-0.5"/>
  </g>
  <g id="resetDef">
    <use xlink:href="#rim2" fill="#404040"><set attributeName="fill" to="#808080" begin="reset.mouseover" end="reset.mouseout"/></use>
  </g>
</defs>
<script type="application/ecmascript">
var viewWidth = 732;
var viewHeight = 262;
var sectionId = 'dynsection-1';
</script>
<script type="application/ecmascript" xlink:href="svg.min.js"/>
<svg id="graph" class="graph">
<g id="viewport">
<title>AinslieAPI.Controllers.LogsController</title>
<!-- Node1 -->
<g id="Node000001" class="node">
<title>Node1</title>
<g id="a_Node000001"><a xlink:title="Controller responsible for managing log&#45;related actions, including retrieval and manipulation of log ...">
<polygon fill="#999999" stroke="#666666" points="724.25,-150 589.75,-150 589.75,-118 724.25,-118 724.25,-150"/>
<text text-anchor="start" x="597.75" y="-136.5" font-family="Helvetica,sans-Serif" font-size="10.00">AinslieAPI.Controllers.Logs</text>
<text text-anchor="middle" x="657" y="-124.5" font-family="Helvetica,sans-Serif" font-size="10.00">Controller</text>
</a>
</g>
</g>
<!-- Node2 -->
<g id="Node000002" class="node">
<title>Node2</title>
<g id="a_Node000002"><a xlink:title=" ">
<polygon fill="white" stroke="#666666" points="463.38,-254 383.62,-254 383.62,-234 463.38,-234 463.38,-254"/>
<text text-anchor="middle" x="423.5" y="-240.5" font-family="Helvetica,sans-Serif" font-size="10.00">ControllerBase</text>
</a>
</g>
</g>
<!-- Node2&#45;&gt;Node1 -->
<g id="edge1_Node000001_Node000002" class="edge">
<title>Node2&#45;&gt;Node1</title>
<g id="a_edge1_Node000001_Node000002"><a xlink:title=" ">
<path fill="none" stroke="#63b8ff" d="M475.1,-242.58C504.69,-239.96 541.96,-233.48 571.75,-218 603.09,-201.71 630.15,-169.7 644.67,-150.24"/>
<polygon fill="#63b8ff" stroke="#63b8ff" points="474.97,-239.07 465.26,-243.31 475.5,-246.06 474.97,-239.07"/>
</a>
</g>
</g>
<!-- Node3 -->
<g id="Node000003" class="node">
<title>Node3</title>
<g id="a_Node000003"><a xlink:href="class_ainslie_a_p_i_1_1_helpers_1_1_app_settings.html" target="_top" xlink:title=" ">
<polygon fill="white" stroke="#666666" points="252,-181 98.75,-181 98.75,-161 252,-161 252,-181"/>
<text text-anchor="middle" x="175.38" y="-167.5" font-family="Helvetica,sans-Serif" font-size="10.00">AinslieAPI.Helpers.AppSettings</text>
</a>
</g>
</g>
<!-- Node3&#45;&gt;Node1 -->
<g id="edge2_Node000001_Node000003" class="edge">
<title>Node3&#45;&gt;Node1</title>
<g id="a_edge2_Node000001_Node000003"><a xlink:title=" ">
<path fill="none" stroke="#9a32cd" stroke-dasharray="5,2" d="M263.78,-178.71C265.88,-178.81 267.95,-178.91 270,-179 325.03,-181.35 469.08,-180.63 499,-177 531.96,-173 539.7,-168.68 571.75,-160 582.54,-157.08 594.02,-153.71 604.93,-150.39"/>
<polygon fill="#9a32cd" stroke="#9a32cd" points="264.17,-175.22 253.99,-178.14 263.76,-182.21 264.17,-175.22"/>
</a>
</g>
<text text-anchor="middle" x="423.5" y="-182.5" font-family="Helvetica,sans-Serif" font-size="10.00" fill="grey"> _appSettings</text>
</g>
<!-- Node4 -->
<g id="Node000004" class="node">
<title>Node4</title>
<g id="a_Node000004"><a xlink:href="class_ainslie_a_p_i_1_1_authentication_1_1_jwt_utils.html" target="_top" xlink:title="Utility class for JWT operations, including token generation and validation.">
<polygon fill="white" stroke="#666666" points="488.12,-168 358.88,-168 358.88,-136 488.12,-136 488.12,-168"/>
<text text-anchor="start" x="366.88" y="-154.5" font-family="Helvetica,sans-Serif" font-size="10.00">AinslieAPI.Authentication.</text>
<text text-anchor="middle" x="423.5" y="-142.5" font-family="Helvetica,sans-Serif" font-size="10.00">JwtUtils</text>
</a>
</g>
</g>
<!-- Node3&#45;&gt;Node4 -->
<g id="edge4_Node000004_Node000003" class="edge">
<title>Node3&#45;&gt;Node4</title>
<g id="a_edge4_Node000004_Node000003"><a xlink:title=" ">
<path fill="none" stroke="#9a32cd" stroke-dasharray="5,2" d="M263.59,-164.27C294.87,-161.85 329.54,-159.18 358.5,-156.94"/>
<polygon fill="#9a32cd" stroke="#9a32cd" points="263.44,-160.77 253.74,-165.03 263.98,-167.75 263.44,-160.77"/>
</a>
</g>
<text text-anchor="middle" x="300" y="-165.5" font-family="Helvetica,sans-Serif" font-size="10.00" fill="grey"> _appSettings</text>
</g>
<!-- Node5 -->
<g id="Node000005" class="node">
<title>Node5</title>
<g id="a_Node000005"><a xlink:href="class_ainslie_a_p_i_1_1_services_1_1_log_service.html" target="_top" xlink:title=" ">
<polygon fill="white" stroke="#666666" points="499,-118 348,-118 348,-98 499,-98 499,-118"/>
<text text-anchor="middle" x="423.5" y="-104.5" font-family="Helvetica,sans-Serif" font-size="10.00">AinslieAPI.Services.LogService</text>
</a>
</g>
</g>
<!-- Node3&#45;&gt;Node5 -->
<g id="edge8_Node000005_Node000003" class="edge">
<title>Node3&#45;&gt;Node5</title>
<g id="a_edge8_Node000005_Node000003"><a xlink:title=" ">
<path fill="none" stroke="#9a32cd" stroke-dasharray="5,2" d="M220.13,-157.27C235.8,-152.53 253.63,-147.32 270,-143 304.27,-133.95 343.23,-125.03 373.2,-118.46"/>
<polygon fill="#9a32cd" stroke="#9a32cd" points="219.14,-153.91 210.6,-160.18 221.19,-160.61 219.14,-153.91"/>
</a>
</g>
<text text-anchor="middle" x="300" y="-145.5" font-family="Helvetica,sans-Serif" font-size="10.00" fill="grey"> _settings</text>
</g>
<!-- Node4&#45;&gt;Node1 -->
<g id="edge3_Node000001_Node000004" class="edge">
<title>Node4&#45;&gt;Node1</title>
<g id="a_edge3_Node000001_Node000004"><a xlink:title=" ">
<path fill="none" stroke="#9a32cd" stroke-dasharray="5,2" d="M499.67,-146.15C528.62,-143.9 561.44,-141.35 589.51,-139.17"/>
<polygon fill="#9a32cd" stroke="#9a32cd" points="499.58,-142.65 489.88,-146.92 500.12,-149.63 499.58,-142.65"/>
</a>
</g>
<text text-anchor="middle" x="544.38" y="-146.5" font-family="Helvetica,sans-Serif" font-size="10.00" fill="grey"> _jwtUtils</text>
</g>
<!-- Node5&#45;&gt;Node1 -->
<g id="edge5_Node000001_Node000005" class="edge">
<title>Node5&#45;&gt;Node1</title>
<g id="a_edge5_Node000001_Node000005"><a xlink:title=" ">
<path fill="none" stroke="#9a32cd" stroke-dasharray="5,2" d="M510.74,-117.23C530.77,-119.41 552.01,-121.76 571.75,-124 577.46,-124.65 583.38,-125.33 589.32,-126.02"/>
<polygon fill="#9a32cd" stroke="#9a32cd" points="511.25,-113.76 500.93,-116.16 510.49,-120.72 511.25,-113.76"/>
</a>
</g>
<text text-anchor="middle" x="544.38" y="-126.5" font-family="Helvetica,sans-Serif" font-size="10.00" fill="grey"> _logService</text>
</g>
<!-- Node6 -->
<g id="Node000006" class="node">
<title>Node6</title>
<g id="a_Node000006"><a xlink:href="class_ainslie_a_p_i_1_1_data_1_1_contexts_1_1_local_context.html" target="_top" xlink:title=" ">
<polygon fill="white" stroke="#666666" points="240,-101 110.75,-101 110.75,-69 240,-69 240,-101"/>
<text text-anchor="start" x="118.75" y="-87.5" font-family="Helvetica,sans-Serif" font-size="10.00">AinslieAPI.Data.Contexts.</text>
<text text-anchor="middle" x="175.38" y="-75.5" font-family="Helvetica,sans-Serif" font-size="10.00">LocalContext</text>
</a>
</g>
</g>
<!-- Node6&#45;&gt;Node1 -->
<g id="edge9_Node000001_Node000006" class="edge">
<title>Node6&#45;&gt;Node1</title>
<g id="a_edge9_Node000001_Node000006"><a xlink:title=" ">
<path fill="none" stroke="#9a32cd" stroke-dasharray="5,2" d="M251.38,-74.8C317.17,-67.83 415.15,-62.25 499,-77 542.84,-84.71 590.55,-103.67 621.73,-117.61"/>
<polygon fill="#9a32cd" stroke="#9a32cd" points="251.35,-71.28 241.79,-75.86 252.12,-78.24 251.35,-71.28"/>
</a>
</g>
<text text-anchor="middle" x="423.5" y="-79.5" font-family="Helvetica,sans-Serif" font-size="10.00" fill="grey"> _context</text>
</g>
<!-- Node6&#45;&gt;Node5 -->
<g id="edge6_Node000005_Node000006" class="edge">
<title>Node6&#45;&gt;Node5</title>
<g id="a_edge6_Node000005_Node000006"><a xlink:title=" ">
<path fill="none" stroke="#9a32cd" stroke-dasharray="5,2" d="M251.85,-92.05C282.35,-94.9 317.47,-98.18 347.89,-101.03"/>
<polygon fill="#9a32cd" stroke="#9a32cd" points="252.19,-88.57 241.91,-91.12 251.54,-95.54 252.19,-88.57"/>
</a>
</g>
<text text-anchor="middle" x="300" y="-101.5" font-family="Helvetica,sans-Serif" font-size="10.00" fill="grey"> _context</text>
</g>
<!-- Node7 -->
<g id="Node000007" class="node">
<title>Node7</title>
<g id="a_Node000007"><a xlink:title=" ">
<polygon fill="white" stroke="#666666" points="61.75,-95 0,-95 0,-75 61.75,-75 61.75,-95"/>
<text text-anchor="middle" x="30.88" y="-81.5" font-family="Helvetica,sans-Serif" font-size="10.00">DbContext</text>
</a>
</g>
</g>
<!-- Node7&#45;&gt;Node6 -->
<g id="edge7_Node000006_Node000007" class="edge">
<title>Node7&#45;&gt;Node6</title>
<g id="a_edge7_Node000006_Node000007"><a xlink:title=" ">
<path fill="none" stroke="#63b8ff" d="M73.25,-85C84.9,-85 97.84,-85 110.48,-85"/>
<polygon fill="#63b8ff" stroke="#63b8ff" points="73.61,-81.5 63.61,-85 73.61,-88.5 73.61,-81.5"/>
</a>
</g>
</g>
<!-- Node8 -->
<g id="Node000008" class="node">
<title>Node8</title>
<g id="a_Node000008"><a xlink:href="class_ainslie_a_p_i_1_1_services_1_1_internal_api_service.html" target="_top" xlink:title="Provides services for interacting with Internal API, particularly for retrieving Green ID customer da...">
<polygon fill="white" stroke="#666666" points="491.12,-32 355.88,-32 355.88,0 491.12,0 491.12,-32"/>
<text text-anchor="start" x="363.88" y="-18.5" font-family="Helvetica,sans-Serif" font-size="10.00">AinslieAPI.Services.Internal</text>
<text text-anchor="middle" x="423.5" y="-6.5" font-family="Helvetica,sans-Serif" font-size="10.00">ApiService</text>
</a>
</g>
</g>
<!-- Node8&#45;&gt;Node1 -->
<g id="edge10_Node000001_Node000008" class="edge">
<title>Node8&#45;&gt;Node1</title>
<g id="a_edge10_Node000001_Node000008"><a xlink:title=" ">
<path fill="none" stroke="#9a32cd" stroke-dasharray="5,2" d="M502.63,-20.2C525.93,-23.92 550.83,-30.51 571.75,-42 604.97,-60.24 632.14,-96.53 646.01,-117.68"/>
<polygon fill="#9a32cd" stroke="#9a32cd" points="503.23,-16.75 492.83,-18.8 502.24,-23.68 503.23,-16.75"/>
</a>
</g>
<text text-anchor="middle" x="544.38" y="-44.5" font-family="Helvetica,sans-Serif" font-size="10.00" fill="grey"> _iapiService</text>
</g>
</g>
</svg>

<g id="navigator" transform="translate(0 0)" fill="#404254">
  <rect fill="#f2f5e9" fill-opacity="0.5" stroke="#606060" stroke-width=".5" x="0" y="0" width="60" height="60"/>
  <use id="zoomplus" xlink:href="#zoomPlus" x="17" y="9" onmousedown="handleZoom(evt,'in')"/>
  <use id="zoomminus" xlink:href="#zoomMin" x="42" y="9" onmousedown="handleZoom(evt,'out')"/>
  <use id="reset" xlink:href="#resetDef" x="30" y="36" onmousedown="handleReset()"/>
   <use id="arrowup" xlink:href="#arrowUp" x="0" y="0" onmousedown="handlePan(0,-1)"/>
  <use id="arrowright" xlink:href="#arrowRight" x="0" y="0" onmousedown="handlePan(1,0)"/>
  <use id="arrowdown" xlink:href="#arrowDown" x="0" y="0" onmousedown="handlePan(0,1)"/>
  <use id="arrowleft" xlink:href="#arrowLeft" x="0" y="0" onmousedown="handlePan(-1,0)"/>
</g>
<svg viewBox="0 0 15 15" width="100%" height="30px" preserveAspectRatio="xMaxYMin meet">
 <g id="arrow_out" transform="scale(0.3 0.3)">
  <a xlink:href="class_ainslie_a_p_i_1_1_controllers_1_1_logs_controller__coll__graph_org.svg" target="_base">
   <rect id="button" ry="5" rx="5" y="6" x="6" height="38" width="38"
        fill="#f2f5e9" fill-opacity="0.5" stroke="#606060" stroke-width="1.0"/>
   <path id="arrow"
     d="M 11.500037,31.436501 C 11.940474,20.09759 22.043105,11.32322 32.158766,21.979434 L 37.068811,17.246167 C 37.068811,17.246167 37.088388,32 37.088388,32 L 22.160133,31.978069 C 22.160133,31.978069 26.997745,27.140456 26.997745,27.140456 C 18.528582,18.264221 13.291696,25.230495 11.500037,31.436501 z"
     style="fill:#404040;"/>
  </a>
 </g>
</svg>

<style type='text/css'>
<![CDATA[
[data-mouse-over-selected='false'] { opacity: 0.7; }
[data-mouse-over-selected='true']  { opacity: 1.0; }
]]>
</style>
<script type="application/ecmascript"><![CDATA[
document.addEventListener('DOMContentLoaded', (event) => {
  highlightEdges();
  highlightAdjacentNodes();
});
]]></script>
</svg>
