<?xml version="1.0" encoding="UTF-8" standalone="no"?>
<!DOCTYPE svg PUBLIC "-//W3C//DTD SVG 1.1//EN"
 "http://www.w3.org/Graphics/SVG/1.1/DTD/svg11.dtd">
<!-- Generated by graphviz version 9.0.0 (20230911.1827)
 -->
<!-- Title: AinslieAPI.Controllers.GSS.TdcrController.OrderLivePriceAUD Pages: 1 -->
<svg width="767pt" height="62pt"
 viewBox="0.00 0.00 767.25 62.00" xmlns="http://www.w3.org/2000/svg" xmlns:xlink="http://www.w3.org/1999/xlink">
<g id="graph0" class="graph" transform="scale(1 1) rotate(0) translate(4 58)">
<title>AinslieAPI.Controllers.GSS.TdcrController.OrderLivePriceAUD</title>
<!-- Node1 -->
<g id="Node000001" class="node">
<title>Node1</title>
<g id="a_Node000001"><a xlink:title="Fetches the current live price in AUD for a given asset based on the order request&#39;s market and side.">
<polygon fill="#999999" stroke="#666666" points="759.25,-54 597,-54 597,-22 759.25,-22 759.25,-54"/>
<text text-anchor="start" x="605" y="-40.5" font-family="Helvetica,sans-Serif" font-size="10.00">AinslieAPI.Controllers.GSS.</text>
<text text-anchor="middle" x="678.12" y="-28.5" font-family="Helvetica,sans-Serif" font-size="10.00">TdcrController.OrderLivePriceAUD</text>
</a>
</g>
</g>
<!-- Node2 -->
<g id="Node000002" class="node">
<title>Node2</title>
<g id="a_Node000002"><a xlink:href="class_ainslie_a_p_i_1_1_controllers_1_1_g_s_s_1_1_tdcr_controller.html#a9eba319227d13605723ee5253d17b014" target="_top" xlink:title="Processes incoming order requests, validating and saving them to the database.">
<polygon fill="white" stroke="#666666" points="137.5,-54 0,-54 0,-22 137.5,-22 137.5,-54"/>
<text text-anchor="start" x="8" y="-40.5" font-family="Helvetica,sans-Serif" font-size="10.00">AinslieAPI.Controllers.GSS.</text>
<text text-anchor="middle" x="68.75" y="-28.5" font-family="Helvetica,sans-Serif" font-size="10.00">TdcrController.Orders</text>
</a>
</g>
</g>
<!-- Node1&#45;&gt;Node2 -->
<g id="edge1_Node000001_Node000002" class="edge">
<title>Node1&#45;&gt;Node2</title>
<g id="a_edge1_Node000001_Node000002"><a xlink:title=" ">
<path fill="none" stroke="#63b8ff" d="M585.05,-40.6C576.92,-40.76 568.81,-40.9 561,-41 388.79,-43.22 345.7,-43.49 173.5,-41 161.97,-40.83 149.72,-40.56 137.83,-40.25"/>
<polygon fill="#63b8ff" stroke="#63b8ff" points="585.11,-44.1 595.03,-40.38 584.96,-37.1 585.11,-44.1"/>
</a>
</g>
</g>
<!-- Node3 -->
<g id="Node000003" class="node">
<title>Node3</title>
<g id="a_Node000003"><a xlink:href="class_ainslie_a_p_i_1_1_controllers_1_1_g_s_s_1_1_tdcr_controller.html#a5425d57dc6e7f08c36785f3ca41d30ab" target="_top" xlink:title="Determines whether the price specified in an order request falls outside the acceptable threshold as ...">
<polygon fill="white" stroke="#666666" points="561,-32 383.75,-32 383.75,0 561,0 561,-32"/>
<text text-anchor="start" x="391.75" y="-18.5" font-family="Helvetica,sans-Serif" font-size="10.00">AinslieAPI.Controllers.GSS.</text>
<text text-anchor="middle" x="472.38" y="-6.5" font-family="Helvetica,sans-Serif" font-size="10.00">TdcrController.PriceOutsideThreshold</text>
</a>
</g>
</g>
<!-- Node1&#45;&gt;Node3 -->
<g id="edge2_Node000001_Node000003" class="edge">
<title>Node1&#45;&gt;Node3</title>
<g id="a_edge2_Node000001_Node000003"><a xlink:title=" ">
<path fill="none" stroke="#63b8ff" d="M585.38,-28.09C577.4,-27.23 569.33,-26.36 561.37,-25.5"/>
<polygon fill="#63b8ff" stroke="#63b8ff" points="584.77,-31.55 595.09,-29.14 585.53,-24.59 584.77,-31.55"/>
</a>
</g>
</g>
<!-- Node4 -->
<g id="Node000004" class="node">
<title>Node4</title>
<g id="a_Node000004"><a xlink:href="class_ainslie_a_p_i_1_1_controllers_1_1_g_s_s_1_1_tdcr_controller.html#acdce12cbf8d3ceb33fc727648bf58fc8" target="_top" xlink:title="Validates the provided order request against business rules.">
<polygon fill="white" stroke="#666666" points="347.75,-32 173.5,-32 173.5,0 347.75,0 347.75,-32"/>
<text text-anchor="start" x="181.5" y="-18.5" font-family="Helvetica,sans-Serif" font-size="10.00">AinslieAPI.Controllers.GSS.</text>
<text text-anchor="middle" x="260.62" y="-6.5" font-family="Helvetica,sans-Serif" font-size="10.00">TdcrController.ValidateOrderRequest</text>
</a>
</g>
</g>
<!-- Node3&#45;&gt;Node4 -->
<g id="edge3_Node000003_Node000004" class="edge">
<title>Node3&#45;&gt;Node4</title>
<g id="a_edge3_Node000003_Node000004"><a xlink:title=" ">
<path fill="none" stroke="#63b8ff" d="M372.06,-16C364.05,-16 356,-16 348.1,-16"/>
<polygon fill="#63b8ff" stroke="#63b8ff" points="371.82,-19.5 381.82,-16 371.82,-12.5 371.82,-19.5"/>
</a>
</g>
</g>
<!-- Node4&#45;&gt;Node2 -->
<g id="edge4_Node000004_Node000002" class="edge">
<title>Node4&#45;&gt;Node2</title>
<g id="a_edge4_Node000004_Node000002"><a xlink:title=" ">
<path fill="none" stroke="#63b8ff" d="M161.62,-27.36C153.55,-28.29 145.51,-29.22 137.74,-30.12"/>
<polygon fill="#63b8ff" stroke="#63b8ff" points="161.99,-30.84 171.52,-26.21 161.18,-23.88 161.99,-30.84"/>
</a>
</g>
</g>
</g>
</svg>
