<?xml version="1.0" encoding="UTF-8" standalone="no"?>
<!DOCTYPE svg PUBLIC "-//W3C//DTD SVG 1.1//EN"
 "http://www.w3.org/Graphics/SVG/1.1/DTD/svg11.dtd">
<!-- Generated by graphviz version 9.0.0 (20230911.1827)
 -->
<!-- Title: AinslieAPI.Services.LogService.LogError Pages: 1 -->
<svg width="935pt" height="481pt"
 viewBox="0.00 0.00 934.75 481.00" xmlns="http://www.w3.org/2000/svg" xmlns:xlink="http://www.w3.org/1999/xlink">
<g id="graph0" class="graph" transform="scale(1 1) rotate(0) translate(4 477)">
<title>AinslieAPI.Services.LogService.LogError</title>
<!-- Node1 -->
<g id="Node000001" class="node">
<title>Node1</title>
<g id="a_Node000001"><a xlink:title=" ">
<polygon fill="#999999" stroke="#666666" points="926.75,-248 772.75,-248 772.75,-216 926.75,-216 926.75,-248"/>
<text text-anchor="start" x="780.75" y="-234.5" font-family="Helvetica,sans-Serif" font-size="10.00">AinslieAPI.Services.LogService.</text>
<text text-anchor="middle" x="849.75" y="-222.5" font-family="Helvetica,sans-Serif" font-size="10.00">LogError</text>
</a>
</g>
</g>
<!-- Node2 -->
<g id="Node000002" class="node">
<title>Node2</title>
<g id="a_Node000002"><a xlink:href="class_ainslie_a_p_i_1_1_services_1_1_internal_api_service.html#a09c4662b56f1cf03cfecb9928e1e884a" target="_top" xlink:title="Retrieves the current asset pricing from Internal API and deserialises the response into a list of As...">
<polygon fill="white" stroke="#666666" points="712.38,-458 576.38,-458 576.38,-426 712.38,-426 712.38,-458"/>
<text text-anchor="start" x="584.38" y="-444.5" font-family="Helvetica,sans-Serif" font-size="10.00">AinslieAPI.Services.Internal</text>
<text text-anchor="middle" x="644.38" y="-432.5" font-family="Helvetica,sans-Serif" font-size="10.00">ApiService.GetAssetPricing</text>
</a>
</g>
</g>
<!-- Node1&#45;&gt;Node2 -->
<g id="edge1_Node000001_Node000002" class="edge">
<title>Node1&#45;&gt;Node2</title>
<g id="a_edge1_Node000001_Node000002"><a xlink:title=" ">
<path fill="none" stroke="#63b8ff" d="M838.95,-258.92C823.31,-298.18 789.05,-370.93 736.75,-412 729.53,-417.67 721.19,-422.29 712.55,-426.05"/>
<polygon fill="#63b8ff" stroke="#63b8ff" points="842.15,-260.34 842.49,-249.75 835.62,-257.81 842.15,-260.34"/>
</a>
</g>
</g>
<!-- Node5 -->
<g id="Node000005" class="node">
<title>Node5</title>
<g id="a_Node000005"><a xlink:href="class_ainslie_a_p_i_1_1_services_1_1_internal_api_service.html#ac96a3e52c78c6b67de6a0f244fd70a60" target="_top" xlink:title="Retrieves Green ID customer data from Internal API based on the specified branch and user ID.">
<polygon fill="white" stroke="#666666" points="722.5,-370 566.25,-370 566.25,-338 722.5,-338 722.5,-370"/>
<text text-anchor="start" x="574.25" y="-356.5" font-family="Helvetica,sans-Serif" font-size="10.00">AinslieAPI.Services.Internal</text>
<text text-anchor="middle" x="644.38" y="-344.5" font-family="Helvetica,sans-Serif" font-size="10.00">ApiService.GetGreenIdCustomer</text>
</a>
</g>
</g>
<!-- Node1&#45;&gt;Node5 -->
<g id="edge4_Node000001_Node000005" class="edge">
<title>Node1&#45;&gt;Node5</title>
<g id="a_edge4_Node000001_Node000005"><a xlink:title=" ">
<path fill="none" stroke="#63b8ff" d="M826.78,-256.45C805.72,-278.47 772.01,-310.18 736.75,-329 730.66,-332.25 724.1,-335.11 717.4,-337.62"/>
<polygon fill="#63b8ff" stroke="#63b8ff" points="829.15,-259.04 833.44,-249.35 824.05,-254.26 829.15,-259.04"/>
</a>
</g>
</g>
<!-- Node6 -->
<g id="Node000006" class="node">
<title>Node6</title>
<g id="a_Node000006"><a xlink:href="class_ainslie_a_p_i_1_1_controllers_1_1_green_id_controller.html#a131760ed19379a330a44f72879f026e2" target="_top" xlink:title="Initiates a new customer verification process, accommodating both GET and POST requests.">
<polygon fill="white" stroke="#666666" points="497.25,-354 357.5,-354 357.5,-322 497.25,-322 497.25,-354"/>
<text text-anchor="start" x="365.5" y="-340.5" font-family="Helvetica,sans-Serif" font-size="10.00">AinslieAPI.Controllers.Green</text>
<text text-anchor="middle" x="427.38" y="-328.5" font-family="Helvetica,sans-Serif" font-size="10.00">IdController.NewVerification</text>
</a>
</g>
</g>
<!-- Node1&#45;&gt;Node6 -->
<g id="edge13_Node000001_Node000006" class="edge">
<title>Node1&#45;&gt;Node6</title>
<g id="a_edge13_Node000001_Node000006"><a xlink:title=" ">
<path fill="none" stroke="#63b8ff" d="M837.59,-258.78C821.3,-293.89 787.34,-353.94 736.75,-379 645.52,-424.18 521.45,-380.6 462.36,-354.47"/>
<polygon fill="#63b8ff" stroke="#63b8ff" points="840.75,-260.27 841.64,-249.71 834.36,-257.42 840.75,-260.27"/>
</a>
</g>
</g>
<!-- Node7 -->
<g id="Node000007" class="node">
<title>Node7</title>
<g id="a_Node000007"><a xlink:href="class_ainslie_a_p_i_1_1_services_1_1_aw_api_service.html#a94685f746f003ef92fe3a7f4ef545efe" target="_top" xlink:title="Fetches GSS pricing data for a specified user from the AW API.">
<polygon fill="white" stroke="#666666" points="710.12,-182 578.62,-182 578.62,-150 710.12,-150 710.12,-182"/>
<text text-anchor="start" x="586.62" y="-168.5" font-family="Helvetica,sans-Serif" font-size="10.00">AinslieAPI.Services.AwApi</text>
<text text-anchor="middle" x="644.38" y="-156.5" font-family="Helvetica,sans-Serif" font-size="10.00">Service.GetGssPricing</text>
</a>
</g>
</g>
<!-- Node1&#45;&gt;Node7 -->
<g id="edge6_Node000001_Node000007" class="edge">
<title>Node1&#45;&gt;Node7</title>
<g id="a_edge6_Node000001_Node000007"><a xlink:title=" ">
<path fill="none" stroke="#63b8ff" d="M787.05,-211.98C757.88,-202.51 723.47,-191.34 695.88,-182.39"/>
<polygon fill="#63b8ff" stroke="#63b8ff" points="785.92,-215.29 796.51,-215.05 788.08,-208.63 785.92,-215.29"/>
</a>
</g>
</g>
<!-- Node10 -->
<g id="Node000010" class="node">
<title>Node10</title>
<g id="a_Node000010"><a xlink:href="class_ainslie_a_p_i_1_1_controllers_1_1_g_s_s_1_1_tdcr_controller.html#a837b3bc6be2af122cb619aa347094ad7" target="_top" xlink:title="Sets up controller with dependencies for processing TDCR transactions.">
<polygon fill="white" stroke="#666666" points="139,-204 0,-204 0,-172 139,-172 139,-204"/>
<text text-anchor="start" x="8" y="-190.5" font-family="Helvetica,sans-Serif" font-size="10.00">AinslieAPI.Controllers.GSS.</text>
<text text-anchor="middle" x="69.5" y="-178.5" font-family="Helvetica,sans-Serif" font-size="10.00">TdcrController.TdcrController</text>
</a>
</g>
</g>
<!-- Node1&#45;&gt;Node10 -->
<g id="edge18_Node000001_Node000010" class="edge">
<title>Node1&#45;&gt;Node10</title>
<g id="a_edge18_Node000001_Node000010"><a xlink:title=" ">
<path fill="none" stroke="#63b8ff" d="M760.94,-227.04C604.58,-218.2 281.09,-199.91 139.45,-191.9"/>
<polygon fill="#63b8ff" stroke="#63b8ff" points="760.66,-230.53 770.84,-227.6 761.06,-223.54 760.66,-230.53"/>
</a>
</g>
</g>
<!-- Node11 -->
<g id="Node000011" class="node">
<title>Node11</title>
<g id="a_Node000011"><a xlink:href="class_ainslie_a_p_i_1_1_services_1_1_internal_api_service.html#a0c4c5cccb2233540343e36fe0e8a0acc" target="_top" xlink:title="Fetches the current product pricing from the internal API and deserialises the response into a list o...">
<polygon fill="white" stroke="#666666" points="716.5,-132 572.25,-132 572.25,-100 716.5,-100 716.5,-132"/>
<text text-anchor="start" x="580.25" y="-118.5" font-family="Helvetica,sans-Serif" font-size="10.00">AinslieAPI.Services.Internal</text>
<text text-anchor="middle" x="644.38" y="-106.5" font-family="Helvetica,sans-Serif" font-size="10.00">ApiService.GetProductPricing</text>
</a>
</g>
</g>
<!-- Node1&#45;&gt;Node11 -->
<g id="edge10_Node000001_Node000011" class="edge">
<title>Node1&#45;&gt;Node11</title>
<g id="a_edge10_Node000001_Node000011"><a xlink:title=" ">
<path fill="none" stroke="#63b8ff" d="M825.11,-207.79C803.78,-187.24 770.63,-158.41 736.75,-141 730.46,-137.77 723.7,-134.92 716.82,-132.41"/>
<polygon fill="#63b8ff" stroke="#63b8ff" points="822.55,-210.18 832.14,-214.69 827.46,-205.19 822.55,-210.18"/>
</a>
</g>
</g>
<!-- Node14 -->
<g id="Node000014" class="node">
<title>Node14</title>
<g id="a_Node000014"><a xlink:href="class_ainslie_a_p_i_1_1_controllers_1_1_g_s_s_1_1_tdcr_controller.html#a9eba319227d13605723ee5253d17b014" target="_top" xlink:title="Processes incoming order requests, validating and saving them to the database.">
<polygon fill="white" stroke="#666666" points="713.12,-82 575.62,-82 575.62,-50 713.12,-50 713.12,-82"/>
<text text-anchor="start" x="583.62" y="-68.5" font-family="Helvetica,sans-Serif" font-size="10.00">AinslieAPI.Controllers.GSS.</text>
<text text-anchor="middle" x="644.38" y="-56.5" font-family="Helvetica,sans-Serif" font-size="10.00">TdcrController.Orders</text>
</a>
</g>
</g>
<!-- Node1&#45;&gt;Node14 -->
<g id="edge14_Node000001_Node000014" class="edge">
<title>Node1&#45;&gt;Node14</title>
<g id="a_edge14_Node000001_Node000014"><a xlink:title=" ">
<path fill="none" stroke="#63b8ff" d="M834.86,-205.76C816.6,-173.84 781.53,-120.55 736.75,-91 729.61,-86.29 721.6,-82.46 713.37,-79.35"/>
<polygon fill="#63b8ff" stroke="#63b8ff" points="831.73,-207.35 839.66,-214.38 837.85,-203.94 831.73,-207.35"/>
</a>
</g>
</g>
<!-- Node15 -->
<g id="Node000015" class="node">
<title>Node15</title>
<g id="a_Node000015"><a xlink:href="class_ainslie_a_p_i_1_1_services_1_1_internal_api_service.html#a7a070bb565246fb698283432930d9cd1" target="_top" xlink:title="Submits customer data to Netsuite via Internal API and retrieves the Netsuite customer ID.">
<polygon fill="white" stroke="#666666" points="725.88,-320 562.88,-320 562.88,-288 725.88,-288 725.88,-320"/>
<text text-anchor="start" x="570.88" y="-306.5" font-family="Helvetica,sans-Serif" font-size="10.00">AinslieAPI.Services.Internal</text>
<text text-anchor="middle" x="644.38" y="-294.5" font-family="Helvetica,sans-Serif" font-size="10.00">ApiService.PostNetsuiteCustomer</text>
</a>
</g>
</g>
<!-- Node1&#45;&gt;Node15 -->
<g id="edge15_Node000001_Node000015" class="edge">
<title>Node1&#45;&gt;Node15</title>
<g id="a_edge15_Node000001_Node000015"><a xlink:title=" ">
<path fill="none" stroke="#63b8ff" d="M802.52,-253C782.52,-261.66 758.72,-271.42 736.75,-279 728.04,-282 718.77,-284.89 709.6,-287.57"/>
<polygon fill="#63b8ff" stroke="#63b8ff" points="803.75,-256.28 811.51,-249.06 800.95,-249.87 803.75,-256.28"/>
</a>
</g>
</g>
<!-- Node16 -->
<g id="Node000016" class="node">
<title>Node16</title>
<g id="a_Node000016"><a xlink:href="class_ainslie_a_p_i_1_1_services_1_1_internal_api_service.html#af507e96372a12f14e6ae166a5d495ef2" target="_top" xlink:title="Sends an email using the details provided in the EmailPost object via Internal API.">
<polygon fill="white" stroke="#666666" points="712,-32 576.75,-32 576.75,0 712,0 712,-32"/>
<text text-anchor="start" x="584.75" y="-18.5" font-family="Helvetica,sans-Serif" font-size="10.00">AinslieAPI.Services.Internal</text>
<text text-anchor="middle" x="644.38" y="-6.5" font-family="Helvetica,sans-Serif" font-size="10.00">ApiService.SendEmail</text>
</a>
</g>
</g>
<!-- Node1&#45;&gt;Node16 -->
<g id="edge17_Node000001_Node000016" class="edge">
<title>Node1&#45;&gt;Node16</title>
<g id="a_edge17_Node000001_Node000016"><a xlink:title=" ">
<path fill="none" stroke="#63b8ff" d="M840.31,-204.88C825.93,-163.23 792.67,-83.85 736.75,-41 729.44,-35.4 720.95,-31.05 712.16,-27.68"/>
<polygon fill="#63b8ff" stroke="#63b8ff" points="836.91,-205.75 843.39,-214.13 843.55,-203.54 836.91,-205.75"/>
</a>
</g>
</g>
<!-- Node17 -->
<g id="Node000017" class="node">
<title>Node17</title>
<g id="a_Node000017"><a xlink:href="class_ainslie_a_p_i_1_1_services_1_1_internal_api_service.html#aa8c183f663dbc4061a007aee4e5cf28e" target="_top" xlink:title="Updates the Netsuite ID associated with a specific Green ID record in the database.">
<polygon fill="white" stroke="#666666" points="736.75,-270 552,-270 552,-238 736.75,-238 736.75,-270"/>
<text text-anchor="start" x="560" y="-256.5" font-family="Helvetica,sans-Serif" font-size="10.00">AinslieAPI.Services.Internal</text>
<text text-anchor="middle" x="644.38" y="-244.5" font-family="Helvetica,sans-Serif" font-size="10.00">ApiService.UpdateGreenIdDbNetsuiteId</text>
</a>
</g>
</g>
<!-- Node1&#45;&gt;Node17 -->
<g id="edge19_Node000001_Node000017" class="edge">
<title>Node1&#45;&gt;Node17</title>
<g id="a_edge19_Node000001_Node000017"><a xlink:title=" ">
<path fill="none" stroke="#63b8ff" d="M761,-241.49C753.12,-242.35 745.12,-243.21 737.21,-244.07"/>
<polygon fill="#63b8ff" stroke="#63b8ff" points="761.37,-244.97 770.94,-240.42 760.62,-238.01 761.37,-244.97"/>
</a>
</g>
</g>
<!-- Node3 -->
<g id="Node000003" class="node">
<title>Node3</title>
<g id="a_Node000003"><a xlink:href="class_ainslie_a_p_i_1_1_controllers_1_1_assets_controller.html#a0c9bb1df19027458fd189101528c48c9" target="_top" xlink:title="Fetches current asset prices.">
<polygon fill="white" stroke="#666666" points="499.5,-473 355.25,-473 355.25,-441 499.5,-441 499.5,-473"/>
<text text-anchor="start" x="363.25" y="-459.5" font-family="Helvetica,sans-Serif" font-size="10.00">AinslieAPI.Controllers.Assets</text>
<text text-anchor="middle" x="427.38" y="-447.5" font-family="Helvetica,sans-Serif" font-size="10.00">Controller.PriceList</text>
</a>
</g>
</g>
<!-- Node2&#45;&gt;Node3 -->
<g id="edge2_Node000002_Node000003" class="edge">
<title>Node2&#45;&gt;Node3</title>
<g id="a_edge2_Node000002_Node000003"><a xlink:title=" ">
<path fill="none" stroke="#63b8ff" d="M564.65,-447.49C543.38,-448.98 520.5,-450.57 499.66,-452.03"/>
<polygon fill="#63b8ff" stroke="#63b8ff" points="564.7,-451 574.43,-446.81 564.21,-444.01 564.7,-451"/>
</a>
</g>
</g>
<!-- Node4 -->
<g id="Node000004" class="node">
<title>Node4</title>
<g id="a_Node000004"><a xlink:href="class_ainslie_a_p_i_1_1_helpers_1_1_cache_data_helper.html#a4528db84b99bf010dff2409e3339ba91" target="_top" xlink:title="Refreshes the cache of asset prices by fetching new data if the current cache is expired or not prese...">
<polygon fill="white" stroke="#666666" points="511.88,-423 342.88,-423 342.88,-391 511.88,-391 511.88,-423"/>
<text text-anchor="start" x="350.88" y="-409.5" font-family="Helvetica,sans-Serif" font-size="10.00">AinslieAPI.Helpers.Cache</text>
<text text-anchor="middle" x="427.38" y="-397.5" font-family="Helvetica,sans-Serif" font-size="10.00">DataHelper.RefreshPriceappAssets</text>
</a>
</g>
</g>
<!-- Node2&#45;&gt;Node4 -->
<g id="edge3_Node000002_Node000004" class="edge">
<title>Node2&#45;&gt;Node4</title>
<g id="a_edge3_Node000002_Node000004"><a xlink:title=" ">
<path fill="none" stroke="#63b8ff" d="M564.86,-429.22C547.73,-426.43 529.55,-423.47 512.23,-420.65"/>
<polygon fill="#63b8ff" stroke="#63b8ff" points="564.01,-432.63 574.44,-430.78 565.14,-425.72 564.01,-432.63"/>
</a>
</g>
</g>
<!-- Node5&#45;&gt;Node6 -->
<g id="edge5_Node000005_Node000006" class="edge">
<title>Node5&#45;&gt;Node6</title>
<g id="a_edge5_Node000005_Node000006"><a xlink:title=" ">
<path fill="none" stroke="#63b8ff" d="M554.41,-347.38C535.47,-345.97 515.75,-344.5 497.68,-343.16"/>
<polygon fill="#63b8ff" stroke="#63b8ff" points="554.01,-350.86 564.25,-348.11 554.53,-343.88 554.01,-350.86"/>
</a>
</g>
</g>
<!-- Node8 -->
<g id="Node000008" class="node">
<title>Node8</title>
<g id="a_Node000008"><a xlink:href="class_ainslie_a_p_i_1_1_helpers_1_1_cache_data_helper.html#a603725b5f3104a2056b255d5ba62b145" target="_top" xlink:title="Refreshes the GSS pricing cache for a specific user, ensuring the data is current.">
<polygon fill="white" stroke="#666666" points="502.88,-182 351.88,-182 351.88,-150 502.88,-150 502.88,-182"/>
<text text-anchor="start" x="359.88" y="-168.5" font-family="Helvetica,sans-Serif" font-size="10.00">AinslieAPI.Helpers.Cache</text>
<text text-anchor="middle" x="427.38" y="-156.5" font-family="Helvetica,sans-Serif" font-size="10.00">DataHelper.RefreshGSSPricing</text>
</a>
</g>
</g>
<!-- Node7&#45;&gt;Node8 -->
<g id="edge7_Node000007_Node000008" class="edge">
<title>Node7&#45;&gt;Node8</title>
<g id="a_edge7_Node000007_Node000008"><a xlink:title=" ">
<path fill="none" stroke="#63b8ff" d="M566.94,-166C546.17,-166 523.71,-166 503.04,-166"/>
<polygon fill="#63b8ff" stroke="#63b8ff" points="566.77,-169.5 576.77,-166 566.77,-162.5 566.77,-169.5"/>
</a>
</g>
</g>
<!-- Node9 -->
<g id="Node000009" class="node">
<title>Node9</title>
<g id="a_Node000009"><a xlink:href="class_ainslie_a_p_i_1_1_helpers_1_1_cache_data_helper.html#a533a0f6563d2e92e52c819c22c5009a6" target="_top" xlink:title="Retrieves GSS pricing data for a specific user from cache or refreshes if necessary.">
<polygon fill="white" stroke="#666666" points="302.75,-182 175,-182 175,-150 302.75,-150 302.75,-182"/>
<text text-anchor="start" x="183" y="-168.5" font-family="Helvetica,sans-Serif" font-size="10.00">AinslieAPI.Helpers.Cache</text>
<text text-anchor="middle" x="238.88" y="-156.5" font-family="Helvetica,sans-Serif" font-size="10.00">DataHelper.GSSPricing</text>
</a>
</g>
</g>
<!-- Node8&#45;&gt;Node9 -->
<g id="edge8_Node000008_Node000009" class="edge">
<title>Node8&#45;&gt;Node9</title>
<g id="a_edge8_Node000008_Node000009"><a xlink:title=" ">
<path fill="none" stroke="#63b8ff" d="M340.16,-166C327.64,-166 314.94,-166 302.98,-166"/>
<polygon fill="#63b8ff" stroke="#63b8ff" points="340.08,-169.5 350.08,-166 340.08,-162.5 340.08,-169.5"/>
</a>
</g>
</g>
<!-- Node9&#45;&gt;Node10 -->
<g id="edge9_Node000009_Node000010" class="edge">
<title>Node9&#45;&gt;Node10</title>
<g id="a_edge9_Node000009_Node000010"><a xlink:title=" ">
<path fill="none" stroke="#63b8ff" d="M163.43,-175.79C155.46,-176.83 147.37,-177.9 139.46,-178.94"/>
<polygon fill="#63b8ff" stroke="#63b8ff" points="163.64,-179.29 173.1,-174.51 162.73,-172.35 163.64,-179.29"/>
</a>
</g>
</g>
<!-- Node12 -->
<g id="Node000012" class="node">
<title>Node12</title>
<g id="a_Node000012"><a xlink:href="class_ainslie_a_p_i_1_1_controllers_1_1_products_controller.html#ac20bed843f55f212dfb5ffe45d411f8f" target="_top" xlink:title="Retrieves a list of current product prices.">
<polygon fill="white" stroke="#666666" points="503.62,-132 351.12,-132 351.12,-100 503.62,-100 503.62,-132"/>
<text text-anchor="start" x="359.12" y="-118.5" font-family="Helvetica,sans-Serif" font-size="10.00">AinslieAPI.Controllers.Products</text>
<text text-anchor="middle" x="427.38" y="-106.5" font-family="Helvetica,sans-Serif" font-size="10.00">Controller.PriceList</text>
</a>
</g>
</g>
<!-- Node11&#45;&gt;Node12 -->
<g id="edge11_Node000011_Node000012" class="edge">
<title>Node11&#45;&gt;Node12</title>
<g id="a_edge11_Node000011_Node000012"><a xlink:title=" ">
<path fill="none" stroke="#63b8ff" d="M560.4,-116C541.86,-116 522.3,-116 504.08,-116"/>
<polygon fill="#63b8ff" stroke="#63b8ff" points="560.27,-119.5 570.27,-116 560.27,-112.5 560.27,-119.5"/>
</a>
</g>
</g>
<!-- Node13 -->
<g id="Node000013" class="node">
<title>Node13</title>
<g id="a_Node000013"><a xlink:href="class_ainslie_a_p_i_1_1_helpers_1_1_cache_data_helper.html#a467891c45e271be3b54049e3a66ae7cc" target="_top" xlink:title="Refreshes the product price list cache if necessary, ensuring up&#45;to&#45;date data availability.">
<polygon fill="white" stroke="#666666" points="516,-82 338.75,-82 338.75,-50 516,-50 516,-82"/>
<text text-anchor="start" x="346.75" y="-68.5" font-family="Helvetica,sans-Serif" font-size="10.00">AinslieAPI.Helpers.Cache</text>
<text text-anchor="middle" x="427.38" y="-56.5" font-family="Helvetica,sans-Serif" font-size="10.00">DataHelper.RefreshPriceappProducts</text>
</a>
</g>
</g>
<!-- Node11&#45;&gt;Node13 -->
<g id="edge12_Node000011_Node000013" class="edge">
<title>Node11&#45;&gt;Node13</title>
<g id="a_edge12_Node000011_Node000013"><a xlink:title=" ">
<path fill="none" stroke="#63b8ff" d="M561.71,-97.01C541.1,-92.22 519.14,-87.11 499.11,-82.45"/>
<polygon fill="#63b8ff" stroke="#63b8ff" points="560.67,-100.36 571.2,-99.22 562.26,-93.54 560.67,-100.36"/>
</a>
</g>
</g>
<!-- Node15&#45;&gt;Node6 -->
<g id="edge16_Node000015_Node000006" class="edge">
<title>Node15&#45;&gt;Node6</title>
<g id="a_edge16_Node000015_Node000006"><a xlink:title=" ">
<path fill="none" stroke="#63b8ff" d="M551.05,-318.6C533.15,-321.43 514.67,-324.35 497.67,-327.04"/>
<polygon fill="#63b8ff" stroke="#63b8ff" points="551.57,-322.06 560.9,-317.04 550.48,-315.15 551.57,-322.06"/>
</a>
</g>
</g>
<!-- Node17&#45;&gt;Node6 -->
<g id="edge20_Node000017_Node000006" class="edge">
<title>Node17&#45;&gt;Node6</title>
<g id="a_edge20_Node000017_Node000006"><a xlink:title=" ">
<path fill="none" stroke="#63b8ff" d="M566.59,-273.93C561.62,-275.55 556.72,-277.24 552,-279 519.35,-291.15 483.58,-308.71 458.96,-321.52"/>
<polygon fill="#63b8ff" stroke="#63b8ff" points="567.6,-277.28 576.09,-270.95 565.51,-270.6 567.6,-277.28"/>
</a>
</g>
</g>
<!-- Node18 -->
<g id="Node000018" class="node">
<title>Node18</title>
<g id="a_Node000018"><a xlink:href="class_ainslie_a_p_i_1_1_controllers_1_1_green_id_controller.html#a41817b6b59661b9f6e71d2358bac56f5" target="_top" xlink:title="Tests the dynamic deserialisation and updating of Netsuite IDs.">
<polygon fill="white" stroke="#666666" points="497.25,-270 357.5,-270 357.5,-238 497.25,-238 497.25,-270"/>
<text text-anchor="start" x="365.5" y="-256.5" font-family="Helvetica,sans-Serif" font-size="10.00">AinslieAPI.Controllers.Green</text>
<text text-anchor="middle" x="427.38" y="-244.5" font-family="Helvetica,sans-Serif" font-size="10.00">IdController.testdynamic</text>
</a>
</g>
</g>
<!-- Node17&#45;&gt;Node18 -->
<g id="edge21_Node000017_Node000018" class="edge">
<title>Node17&#45;&gt;Node18</title>
<g id="a_edge21_Node000017_Node000018"><a xlink:title=" ">
<path fill="none" stroke="#63b8ff" d="M540.46,-254C525.87,-254 511.17,-254 497.43,-254"/>
<polygon fill="#63b8ff" stroke="#63b8ff" points="540.06,-257.5 550.06,-254 540.06,-250.5 540.06,-257.5"/>
</a>
</g>
</g>
</g>
</svg>
