<?xml version="1.0" encoding="UTF-8" standalone="no"?>
<!DOCTYPE svg PUBLIC "-//W3C//DTD SVG 1.1//EN"
 "http://www.w3.org/Graphics/SVG/1.1/DTD/svg11.dtd">
<!-- Generated by graphviz version 9.0.0 (20230911.1827)
 -->
<!-- Title: AinslieAPI.Controllers.GreenIdController.testdynamic Pages: 1 -->
<svg width="939pt" height="90pt"
 viewBox="0.00 0.00 938.50 90.00" xmlns="http://www.w3.org/2000/svg" xmlns:xlink="http://www.w3.org/1999/xlink">
<g id="graph0" class="graph" transform="scale(1 1) rotate(0) translate(4 86)">
<title>AinslieAPI.Controllers.GreenIdController.testdynamic</title>
<!-- Node1 -->
<g id="Node000001" class="node">
<title>Node1</title>
<g id="a_Node000001"><a xlink:title="Tests the dynamic deserialisation and updating of Netsuite IDs.">
<polygon fill="#999999" stroke="#666666" points="139.75,-57 0,-57 0,-25 139.75,-25 139.75,-57"/>
<text text-anchor="start" x="8" y="-43.5" font-family="Helvetica,sans-Serif" font-size="10.00">AinslieAPI.Controllers.Green</text>
<text text-anchor="middle" x="69.88" y="-31.5" font-family="Helvetica,sans-Serif" font-size="10.00">IdController.testdynamic</text>
</a>
</g>
</g>
<!-- Node2 -->
<g id="Node000002" class="node">
<title>Node2</title>
<g id="a_Node000002"><a xlink:href="class_ainslie_a_p_i_1_1_services_1_1_internal_api_service.html#aa8c183f663dbc4061a007aee4e5cf28e" target="_top" xlink:title="Updates the Netsuite ID associated with a specific Green ID record in the database.">
<polygon fill="white" stroke="#666666" points="360.5,-57 175.75,-57 175.75,-25 360.5,-25 360.5,-57"/>
<text text-anchor="start" x="183.75" y="-43.5" font-family="Helvetica,sans-Serif" font-size="10.00">AinslieAPI.Services.Internal</text>
<text text-anchor="middle" x="268.12" y="-31.5" font-family="Helvetica,sans-Serif" font-size="10.00">ApiService.UpdateGreenIdDbNetsuiteId</text>
</a>
</g>
</g>
<!-- Node1&#45;&gt;Node2 -->
<g id="edge1_Node000001_Node000002" class="edge">
<title>Node1&#45;&gt;Node2</title>
<g id="a_edge1_Node000001_Node000002"><a xlink:title=" ">
<path fill="none" stroke="#63b8ff" d="M140.07,-41C147.87,-41 155.93,-41 164.05,-41"/>
<polygon fill="#63b8ff" stroke="#63b8ff" points="164.01,-44.5 174.01,-41 164.01,-37.5 164.01,-44.5"/>
</a>
</g>
</g>
<!-- Node3 -->
<g id="Node000003" class="node">
<title>Node3</title>
<g id="a_Node000003"><a xlink:href="class_ainslie_a_p_i_1_1_services_1_1_log_service.html#a9bf79a218e0884ac9cabd3ac87b81321" target="_top" xlink:title=" ">
<polygon fill="white" stroke="#666666" points="550.5,-82 396.5,-82 396.5,-50 550.5,-50 550.5,-82"/>
<text text-anchor="start" x="404.5" y="-68.5" font-family="Helvetica,sans-Serif" font-size="10.00">AinslieAPI.Services.LogService.</text>
<text text-anchor="middle" x="473.5" y="-56.5" font-family="Helvetica,sans-Serif" font-size="10.00">LogError</text>
</a>
</g>
</g>
<!-- Node2&#45;&gt;Node3 -->
<g id="edge2_Node000002_Node000003" class="edge">
<title>Node2&#45;&gt;Node3</title>
<g id="a_edge2_Node000002_Node000003"><a xlink:title=" ">
<path fill="none" stroke="#63b8ff" d="M360.99,-52.29C369.01,-53.28 377.1,-54.27 385.08,-55.25"/>
<polygon fill="#63b8ff" stroke="#63b8ff" points="384.4,-58.7 394.75,-56.44 385.25,-51.75 384.4,-58.7"/>
</a>
</g>
</g>
<!-- Node6 -->
<g id="Node000006" class="node">
<title>Node6</title>
<g id="a_Node000006"><a xlink:href="class_ainslie_a_p_i_1_1_services_1_1_log_service.html#a83bbf569dea7ea5a40e02fca200aad8c" target="_top" xlink:title=" ">
<polygon fill="white" stroke="#666666" points="550.5,-32 396.5,-32 396.5,0 550.5,0 550.5,-32"/>
<text text-anchor="start" x="404.5" y="-18.5" font-family="Helvetica,sans-Serif" font-size="10.00">AinslieAPI.Services.LogService.</text>
<text text-anchor="middle" x="473.5" y="-6.5" font-family="Helvetica,sans-Serif" font-size="10.00">LogException</text>
</a>
</g>
</g>
<!-- Node2&#45;&gt;Node6 -->
<g id="edge5_Node000002_Node000006" class="edge">
<title>Node2&#45;&gt;Node6</title>
<g id="a_edge5_Node000002_Node000006"><a xlink:title=" ">
<path fill="none" stroke="#63b8ff" d="M360.99,-29.71C369.01,-28.72 377.1,-27.73 385.08,-26.75"/>
<polygon fill="#63b8ff" stroke="#63b8ff" points="385.25,-30.25 394.75,-25.56 384.4,-23.3 385.25,-30.25"/>
</a>
</g>
</g>
<!-- Node4 -->
<g id="Node000004" class="node">
<title>Node4</title>
<g id="a_Node000004"><a xlink:href="class_ainslie_a_p_i_1_1_services_1_1_log_service.html#a3c2dce5ed306365dfa416f700e5360cf" target="_top" xlink:title="inserts log to database">
<polygon fill="white" stroke="#666666" points="740.5,-57 586.5,-57 586.5,-25 740.5,-25 740.5,-57"/>
<text text-anchor="start" x="594.5" y="-43.5" font-family="Helvetica,sans-Serif" font-size="10.00">AinslieAPI.Services.LogService.</text>
<text text-anchor="middle" x="663.5" y="-31.5" font-family="Helvetica,sans-Serif" font-size="10.00">InsertLog</text>
</a>
</g>
</g>
<!-- Node3&#45;&gt;Node4 -->
<g id="edge3_Node000003_Node000004" class="edge">
<title>Node3&#45;&gt;Node4</title>
<g id="a_edge3_Node000003_Node000004"><a xlink:title=" ">
<path fill="none" stroke="#63b8ff" d="M550.97,-55.83C558.84,-54.78 566.89,-53.71 574.88,-52.65"/>
<polygon fill="#63b8ff" stroke="#63b8ff" points="575.15,-56.15 584.6,-51.36 574.23,-49.21 575.15,-56.15"/>
</a>
</g>
</g>
<!-- Node5 -->
<g id="Node000005" class="node">
<title>Node5</title>
<g id="a_Node000005"><a xlink:href="class_ainslie_a_p_i_1_1_services_1_1_log_service.html#a6342d4add22dfffd5dadb5a7b3f112bc" target="_top" xlink:title="writes a text file log to [App home directory]/log">
<polygon fill="white" stroke="#666666" points="930.5,-57 776.5,-57 776.5,-25 930.5,-25 930.5,-57"/>
<text text-anchor="start" x="784.5" y="-43.5" font-family="Helvetica,sans-Serif" font-size="10.00">AinslieAPI.Services.LogService.</text>
<text text-anchor="middle" x="853.5" y="-31.5" font-family="Helvetica,sans-Serif" font-size="10.00">WriteLog</text>
</a>
</g>
</g>
<!-- Node4&#45;&gt;Node5 -->
<g id="edge4_Node000004_Node000005" class="edge">
<title>Node4&#45;&gt;Node5</title>
<g id="a_edge4_Node000004_Node000005"><a xlink:title=" ">
<path fill="none" stroke="#63b8ff" d="M740.97,-41C748.75,-41 756.71,-41 764.6,-41"/>
<polygon fill="#63b8ff" stroke="#63b8ff" points="764.59,-44.5 774.59,-41 764.59,-37.5 764.59,-44.5"/>
</a>
</g>
</g>
<!-- Node6&#45;&gt;Node4 -->
<g id="edge6_Node000006_Node000004" class="edge">
<title>Node6&#45;&gt;Node4</title>
<g id="a_edge6_Node000006_Node000004"><a xlink:title=" ">
<path fill="none" stroke="#63b8ff" d="M550.97,-26.17C558.84,-27.22 566.89,-28.29 574.88,-29.35"/>
<polygon fill="#63b8ff" stroke="#63b8ff" points="574.23,-32.79 584.6,-30.64 575.15,-25.85 574.23,-32.79"/>
</a>
</g>
</g>
</g>
</svg>
