<?xml version="1.0" encoding="UTF-8" standalone="no"?>
<!DOCTYPE svg PUBLIC "-//W3C//DTD SVG 1.1//EN"
 "http://www.w3.org/Graphics/SVG/1.1/DTD/svg11.dtd">
<!-- Generated by graphviz version 9.0.0 (20230911.1827)
 -->
<!-- Title: Flatted\loop Pages: 1 -->
<svg width="277pt" height="28pt"
 viewBox="0.00 0.00 276.50 28.00" xmlns="http://www.w3.org/2000/svg" xmlns:xlink="http://www.w3.org/1999/xlink">
<g id="graph0" class="graph" transform="scale(1 1) rotate(0) translate(4 24)">
<title>Flatted\loop</title>
<!-- Node1 -->
<g id="Node000001" class="node">
<title>Node1</title>
<g id="a_Node000001"><a xlink:title=" ">
<polygon fill="#999999" stroke="#666666" points="67,-20 0,-20 0,0 67,0 67,-20"/>
<text text-anchor="middle" x="33.5" y="-6.5" font-family="Helvetica,sans-Serif" font-size="10.00">Flatted\loop</text>
</a>
</g>
</g>
<!-- Node2 -->
<g id="Node000002" class="node">
<title>Node2</title>
<g id="a_Node000002"><a xlink:href="class_flatted.html#a2383280951ac4457a7a823647e30d0ed" target="_top" xlink:title=" ">
<polygon fill="white" stroke="#666666" points="162.5,-20 103,-20 103,0 162.5,0 162.5,-20"/>
<text text-anchor="middle" x="132.75" y="-6.5" font-family="Helvetica,sans-Serif" font-size="10.00">Flatted\ref</text>
</a>
</g>
</g>
<!-- Node1&#45;&gt;Node2 -->
<g id="edge1_Node000001_Node000002" class="edge">
<title>Node1&#45;&gt;Node2</title>
<g id="a_edge1_Node000001_Node000002"><a xlink:title=" ">
<path fill="none" stroke="#63b8ff" d="M67.42,-3.57C75.13,-3.25 83.41,-3.17 91.4,-3.34"/>
<polygon fill="#63b8ff" stroke="#63b8ff" points="91.13,-6.83 101.26,-3.71 91.4,0.17 91.13,-6.83"/>
</a>
</g>
</g>
<!-- Node2&#45;&gt;Node1 -->
<g id="edge3_Node000002_Node000001" class="edge">
<title>Node2&#45;&gt;Node1</title>
<g id="a_edge3_Node000002_Node000001"><a xlink:title=" ">
<path fill="none" stroke="#63b8ff" d="M102.77,-16.23C95.21,-16.65 86.89,-16.82 78.74,-16.73"/>
<polygon fill="#63b8ff" stroke="#63b8ff" points="79.03,-13.23 68.94,-16.47 78.84,-20.23 79.03,-13.23"/>
</a>
</g>
</g>
<!-- Node3 -->
<g id="Node000003" class="node">
<title>Node3</title>
<g id="a_Node000003"><a xlink:href="class_flatted.html#a66ec2202ad9de929cc4802996fd2e3ea" target="_top" xlink:title=" ">
<polygon fill="white" stroke="#666666" points="268.5,-20 198.5,-20 198.5,0 268.5,0 268.5,-20"/>
<text text-anchor="middle" x="233.5" y="-6.5" font-family="Helvetica,sans-Serif" font-size="10.00">Flatted\keys</text>
</a>
</g>
</g>
<!-- Node2&#45;&gt;Node3 -->
<g id="edge2_Node000002_Node000003" class="edge">
<title>Node2&#45;&gt;Node3</title>
<g id="a_edge2_Node000002_Node000003"><a xlink:title=" ">
<path fill="none" stroke="#63b8ff" d="M162.84,-10C170.35,-10 178.6,-10 186.73,-10"/>
<polygon fill="#63b8ff" stroke="#63b8ff" points="186.53,-13.5 196.53,-10 186.53,-6.5 186.53,-13.5"/>
</a>
</g>
</g>
</g>
</svg>
