<?xml version="1.0" encoding="UTF-8" standalone="no"?>
<!DOCTYPE svg PUBLIC "-//W3C//DTD SVG 1.1//EN"
 "http://www.w3.org/Graphics/SVG/1.1/DTD/svg11.dtd">
<!-- Generated by graphviz version 9.0.0 (20230911.1827)
 -->
<!-- Title: AinslieAPI.Controllers.AssetsController.PriceList Pages: 1 -->
<svg width="912pt" height="134pt"
 viewBox="0.00 0.00 912.25 134.00" xmlns="http://www.w3.org/2000/svg" xmlns:xlink="http://www.w3.org/1999/xlink">
<g id="graph0" class="graph" transform="scale(1 1) rotate(0) translate(4 130)">
<title>AinslieAPI.Controllers.AssetsController.PriceList</title>
<!-- Node1 -->
<g id="Node000001" class="node">
<title>Node1</title>
<g id="a_Node000001"><a xlink:title="Fetches current asset prices.">
<polygon fill="#999999" stroke="#666666" points="144.25,-57 0,-57 0,-25 144.25,-25 144.25,-57"/>
<text text-anchor="start" x="8" y="-43.5" font-family="Helvetica,sans-Serif" font-size="10.00">AinslieAPI.Controllers.Assets</text>
<text text-anchor="middle" x="72.12" y="-31.5" font-family="Helvetica,sans-Serif" font-size="10.00">Controller.PriceList</text>
</a>
</g>
</g>
<!-- Node2 -->
<g id="Node000002" class="node">
<title>Node2</title>
<g id="a_Node000002"><a xlink:href="class_ainslie_a_p_i_1_1_services_1_1_internal_api_service.html#a09c4662b56f1cf03cfecb9928e1e884a" target="_top" xlink:title="Retrieves the current asset pricing from Internal API and deserialises the response into a list of As...">
<polygon fill="white" stroke="#666666" points="325.25,-82 189.25,-82 189.25,-50 325.25,-50 325.25,-82"/>
<text text-anchor="start" x="197.25" y="-68.5" font-family="Helvetica,sans-Serif" font-size="10.00">AinslieAPI.Services.Internal</text>
<text text-anchor="middle" x="257.25" y="-56.5" font-family="Helvetica,sans-Serif" font-size="10.00">ApiService.GetAssetPricing</text>
</a>
</g>
</g>
<!-- Node1&#45;&gt;Node2 -->
<g id="edge1_Node000001_Node000002" class="edge">
<title>Node1&#45;&gt;Node2</title>
<g id="a_edge1_Node000001_Node000002"><a xlink:title=" ">
<path fill="none" stroke="#63b8ff" d="M144.71,-50.77C155.51,-52.25 166.69,-53.77 177.63,-55.27"/>
<polygon fill="#63b8ff" stroke="#63b8ff" points="177.02,-58.72 187.4,-56.6 177.97,-51.78 177.02,-58.72"/>
</a>
</g>
</g>
<!-- Node7 -->
<g id="Node000007" class="node">
<title>Node7</title>
<g id="a_Node000007"><a xlink:href="class_ainslie_a_p_i_1_1_services_1_1_log_service.html#a917b9af360c0c6521ce36f4acbc72023" target="_top" xlink:title=" ">
<polygon fill="white" stroke="#666666" points="334.25,-32 180.25,-32 180.25,0 334.25,0 334.25,-32"/>
<text text-anchor="start" x="188.25" y="-18.5" font-family="Helvetica,sans-Serif" font-size="10.00">AinslieAPI.Services.LogService.</text>
<text text-anchor="middle" x="257.25" y="-6.5" font-family="Helvetica,sans-Serif" font-size="10.00">LogInformation</text>
</a>
</g>
</g>
<!-- Node1&#45;&gt;Node7 -->
<g id="edge7_Node000001_Node000007" class="edge">
<title>Node1&#45;&gt;Node7</title>
<g id="a_edge7_Node000001_Node000007"><a xlink:title=" ">
<path fill="none" stroke="#63b8ff" d="M144.71,-31.23C152.55,-30.16 160.6,-29.06 168.61,-27.96"/>
<polygon fill="#63b8ff" stroke="#63b8ff" points="168.94,-31.45 178.37,-26.63 167.99,-24.52 168.94,-31.45"/>
</a>
</g>
</g>
<!-- Node3 -->
<g id="Node000003" class="node">
<title>Node3</title>
<g id="a_Node000003"><a xlink:href="class_ainslie_a_p_i_1_1_services_1_1_log_service.html#a9bf79a218e0884ac9cabd3ac87b81321" target="_top" xlink:title=" ">
<polygon fill="white" stroke="#666666" points="524.25,-126 370.25,-126 370.25,-94 524.25,-94 524.25,-126"/>
<text text-anchor="start" x="378.25" y="-112.5" font-family="Helvetica,sans-Serif" font-size="10.00">AinslieAPI.Services.LogService.</text>
<text text-anchor="middle" x="447.25" y="-100.5" font-family="Helvetica,sans-Serif" font-size="10.00">LogError</text>
</a>
</g>
</g>
<!-- Node2&#45;&gt;Node3 -->
<g id="edge2_Node000002_Node000003" class="edge">
<title>Node2&#45;&gt;Node3</title>
<g id="a_edge2_Node000002_Node000003"><a xlink:title=" ">
<path fill="none" stroke="#63b8ff" d="M325.59,-81.76C338.35,-84.75 351.82,-87.9 364.96,-90.97"/>
<polygon fill="#63b8ff" stroke="#63b8ff" points="363.88,-94.32 374.42,-93.19 365.48,-87.5 363.88,-94.32"/>
</a>
</g>
</g>
<!-- Node6 -->
<g id="Node000006" class="node">
<title>Node6</title>
<g id="a_Node000006"><a xlink:href="class_ainslie_a_p_i_1_1_services_1_1_log_service.html#a83bbf569dea7ea5a40e02fca200aad8c" target="_top" xlink:title=" ">
<polygon fill="white" stroke="#666666" points="524.25,-76 370.25,-76 370.25,-44 524.25,-44 524.25,-76"/>
<text text-anchor="start" x="378.25" y="-62.5" font-family="Helvetica,sans-Serif" font-size="10.00">AinslieAPI.Services.LogService.</text>
<text text-anchor="middle" x="447.25" y="-50.5" font-family="Helvetica,sans-Serif" font-size="10.00">LogException</text>
</a>
</g>
</g>
<!-- Node2&#45;&gt;Node6 -->
<g id="edge5_Node000002_Node000006" class="edge">
<title>Node2&#45;&gt;Node6</title>
<g id="a_edge5_Node000002_Node000006"><a xlink:title=" ">
<path fill="none" stroke="#63b8ff" d="M325.59,-63.85C336.23,-63.51 347.36,-63.16 358.38,-62.8"/>
<polygon fill="#63b8ff" stroke="#63b8ff" points="358.4,-66.31 368.28,-62.49 358.17,-59.31 358.4,-66.31"/>
</a>
</g>
</g>
<!-- Node4 -->
<g id="Node000004" class="node">
<title>Node4</title>
<g id="a_Node000004"><a xlink:href="class_ainslie_a_p_i_1_1_services_1_1_log_service.html#a3c2dce5ed306365dfa416f700e5360cf" target="_top" xlink:title="inserts log to database">
<polygon fill="white" stroke="#666666" points="714.25,-76 560.25,-76 560.25,-44 714.25,-44 714.25,-76"/>
<text text-anchor="start" x="568.25" y="-62.5" font-family="Helvetica,sans-Serif" font-size="10.00">AinslieAPI.Services.LogService.</text>
<text text-anchor="middle" x="637.25" y="-50.5" font-family="Helvetica,sans-Serif" font-size="10.00">InsertLog</text>
</a>
</g>
</g>
<!-- Node3&#45;&gt;Node4 -->
<g id="edge3_Node000003_Node000004" class="edge">
<title>Node3&#45;&gt;Node4</title>
<g id="a_edge3_Node000003_Node000004"><a xlink:title=" ">
<path fill="none" stroke="#63b8ff" d="M510.07,-93.56C527.09,-89.03 545.72,-84.08 563.31,-79.4"/>
<polygon fill="#63b8ff" stroke="#63b8ff" points="564.17,-82.79 572.93,-76.84 562.37,-76.03 564.17,-82.79"/>
</a>
</g>
</g>
<!-- Node5 -->
<g id="Node000005" class="node">
<title>Node5</title>
<g id="a_Node000005"><a xlink:href="class_ainslie_a_p_i_1_1_services_1_1_log_service.html#a6342d4add22dfffd5dadb5a7b3f112bc" target="_top" xlink:title="writes a text file log to [App home directory]/log">
<polygon fill="white" stroke="#666666" points="904.25,-76 750.25,-76 750.25,-44 904.25,-44 904.25,-76"/>
<text text-anchor="start" x="758.25" y="-62.5" font-family="Helvetica,sans-Serif" font-size="10.00">AinslieAPI.Services.LogService.</text>
<text text-anchor="middle" x="827.25" y="-50.5" font-family="Helvetica,sans-Serif" font-size="10.00">WriteLog</text>
</a>
</g>
</g>
<!-- Node4&#45;&gt;Node5 -->
<g id="edge4_Node000004_Node000005" class="edge">
<title>Node4&#45;&gt;Node5</title>
<g id="a_edge4_Node000004_Node000005"><a xlink:title=" ">
<path fill="none" stroke="#63b8ff" d="M714.72,-60C722.5,-60 730.46,-60 738.35,-60"/>
<polygon fill="#63b8ff" stroke="#63b8ff" points="738.34,-63.5 748.34,-60 738.34,-56.5 738.34,-63.5"/>
</a>
</g>
</g>
<!-- Node6&#45;&gt;Node4 -->
<g id="edge6_Node000006_Node000004" class="edge">
<title>Node6&#45;&gt;Node4</title>
<g id="a_edge6_Node000006_Node000004"><a xlink:title=" ">
<path fill="none" stroke="#63b8ff" d="M524.72,-60C532.5,-60 540.46,-60 548.35,-60"/>
<polygon fill="#63b8ff" stroke="#63b8ff" points="548.34,-63.5 558.34,-60 548.34,-56.5 548.34,-63.5"/>
</a>
</g>
</g>
<!-- Node7&#45;&gt;Node4 -->
<g id="edge8_Node000007_Node000004" class="edge">
<title>Node7&#45;&gt;Node4</title>
<g id="a_edge8_Node000007_Node000004"><a xlink:title=" ">
<path fill="none" stroke="#63b8ff" d="M334.54,-18.45C387.89,-20.89 460.69,-25.69 524.25,-35 535.6,-36.66 547.52,-38.84 559.16,-41.22"/>
<polygon fill="#63b8ff" stroke="#63b8ff" points="558.23,-44.6 568.74,-43.24 559.68,-37.76 558.23,-44.6"/>
</a>
</g>
</g>
</g>
</svg>
