<?xml version="1.0" encoding="UTF-8" standalone="no"?>
<!DOCTYPE svg PUBLIC "-//W3C//DTD SVG 1.1//EN"
 "http://www.w3.org/Graphics/SVG/1.1/DTD/svg11.dtd">
<!-- Generated by graphviz version 9.0.0 (20230911.1827)
 -->
<!-- Title: AinslieAPI.Helpers.UserHelper.GetAuthenticatedUser Pages: 1 -->
<svg width="366pt" height="178pt"
 viewBox="0.00 0.00 366.25 178.00" xmlns="http://www.w3.org/2000/svg" xmlns:xlink="http://www.w3.org/1999/xlink">
<g id="graph0" class="graph" transform="scale(1 1) rotate(0) translate(4 174)">
<title>AinslieAPI.Helpers.UserHelper.GetAuthenticatedUser</title>
<!-- Node1 -->
<g id="Node000001" class="node">
<title>Node1</title>
<g id="a_Node000001"><a xlink:title="Extracts and constructs an AuthenticatedUser object from the security claims of the currently authent...">
<polygon fill="#999999" stroke="#666666" points="358.25,-104 207.25,-104 207.25,-72 358.25,-72 358.25,-104"/>
<text text-anchor="start" x="215.25" y="-90.5" font-family="Helvetica,sans-Serif" font-size="10.00">AinslieAPI.Helpers.UserHelper.</text>
<text text-anchor="middle" x="282.75" y="-78.5" font-family="Helvetica,sans-Serif" font-size="10.00">GetAuthenticatedUser</text>
</a>
</g>
</g>
<!-- Node2 -->
<g id="Node000002" class="node">
<title>Node2</title>
<g id="a_Node000002"><a xlink:href="class_account_controller.html#a08036d988f8cbbf5be7f256252470116" target="_top" xlink:title="Displays the admin profile page, accessible only by users with the &quot;Admin&quot; role. Demonstrates the use...">
<polygon fill="white" stroke="#666666" points="161.12,-170 10.12,-170 10.12,-150 161.12,-150 161.12,-170"/>
<text text-anchor="middle" x="85.62" y="-156.5" font-family="Helvetica,sans-Serif" font-size="10.00">AccountController.AdminProfile</text>
</a>
</g>
</g>
<!-- Node1&#45;&gt;Node2 -->
<g id="edge1_Node000001_Node000002" class="edge">
<title>Node1&#45;&gt;Node2</title>
<g id="a_edge1_Node000001_Node000002"><a xlink:title=" ">
<path fill="none" stroke="#63b8ff" d="M242.51,-109.5C221.79,-120.16 195.67,-132.53 171.25,-141 161.86,-144.26 151.69,-147.1 141.76,-149.52"/>
<polygon fill="#63b8ff" stroke="#63b8ff" points="243.93,-112.71 251.17,-104.98 240.68,-106.51 243.93,-112.71"/>
</a>
</g>
</g>
<!-- Node3 -->
<g id="Node000003" class="node">
<title>Node3</title>
<g id="a_Node000003"><a xlink:href="class_ainslie_a_p_i_1_1_controllers_1_1_token_controller.html#a5df864329f89cc6a7320304a65cc9002" target="_top" xlink:title="Generates an authentication token for the current authenticated user.">
<polygon fill="white" stroke="#666666" points="155.5,-132 15.75,-132 15.75,-100 155.5,-100 155.5,-132"/>
<text text-anchor="start" x="23.75" y="-118.5" font-family="Helvetica,sans-Serif" font-size="10.00">AinslieAPI.Controllers.Token</text>
<text text-anchor="middle" x="85.62" y="-106.5" font-family="Helvetica,sans-Serif" font-size="10.00">Controller.GenerateToken</text>
</a>
</g>
</g>
<!-- Node1&#45;&gt;Node3 -->
<g id="edge2_Node000001_Node000003" class="edge">
<title>Node1&#45;&gt;Node3</title>
<g id="a_edge2_Node000001_Node000003"><a xlink:title=" ">
<path fill="none" stroke="#63b8ff" d="M195.75,-100.34C182.41,-102.26 168.78,-104.21 155.87,-106.06"/>
<polygon fill="#63b8ff" stroke="#63b8ff" points="195.97,-103.85 205.37,-98.96 194.97,-96.92 195.97,-103.85"/>
</a>
</g>
</g>
<!-- Node4 -->
<g id="Node000004" class="node">
<title>Node4</title>
<g id="a_Node000004"><a xlink:href="class_ainslie_a_p_i_1_1_authentication_1_1_authorization_1_1_api_authorize_attribute.html#a4b1fdfb6a2c2c0549e48a267b3aa1750" target="_top" xlink:title="Executes the authorization check when an action is being accessed.">
<polygon fill="white" stroke="#666666" points="171.25,-82 0,-82 0,-38 171.25,-38 171.25,-82"/>
<text text-anchor="start" x="8" y="-68.5" font-family="Helvetica,sans-Serif" font-size="10.00">AinslieAPI.Authentication.</text>
<text text-anchor="start" x="8" y="-56.5" font-family="Helvetica,sans-Serif" font-size="10.00">Authorization.ApiAuthorizeAttribute.</text>
<text text-anchor="middle" x="85.62" y="-44.5" font-family="Helvetica,sans-Serif" font-size="10.00">OnAuthorization</text>
</a>
</g>
</g>
<!-- Node1&#45;&gt;Node4 -->
<g id="edge3_Node000001_Node000004" class="edge">
<title>Node1&#45;&gt;Node4</title>
<g id="a_edge3_Node000001_Node000004"><a xlink:title=" ">
<path fill="none" stroke="#63b8ff" d="M195.7,-75.65C187.74,-74.51 179.68,-73.35 171.72,-72.21"/>
<polygon fill="#63b8ff" stroke="#63b8ff" points="194.97,-79.08 205.37,-77.04 195.97,-72.15 194.97,-79.08"/>
</a>
</g>
</g>
<!-- Node5 -->
<g id="Node000005" class="node">
<title>Node5</title>
<g id="a_Node000005"><a xlink:href="class_account_controller.html#ac7c9100b6447131f9569be8f76a8b49f" target="_top" xlink:title="Displays the profile page for a logged&#45;in user, restricted to users with the &quot;User&quot; role.">
<polygon fill="white" stroke="#666666" points="147.25,-20 24,-20 24,0 147.25,0 147.25,-20"/>
<text text-anchor="middle" x="85.62" y="-6.5" font-family="Helvetica,sans-Serif" font-size="10.00">AccountController.Profile</text>
</a>
</g>
</g>
<!-- Node1&#45;&gt;Node5 -->
<g id="edge4_Node000001_Node000005" class="edge">
<title>Node1&#45;&gt;Node5</title>
<g id="a_edge4_Node000001_Node000005"><a xlink:title=" ">
<path fill="none" stroke="#63b8ff" d="M246.09,-65.78C224.99,-53.45 197.35,-38.7 171.25,-29 162.36,-25.7 152.72,-22.87 143.23,-20.48"/>
<polygon fill="#63b8ff" stroke="#63b8ff" points="244.21,-68.73 254.59,-70.83 247.79,-62.72 244.21,-68.73"/>
</a>
</g>
</g>
</g>
</svg>
