<?xml version="1.0" encoding="UTF-8" standalone="no"?>
<!DOCTYPE svg PUBLIC "-//W3C//DTD SVG 1.1//EN"
 "http://www.w3.org/Graphics/SVG/1.1/DTD/svg11.dtd">
<!-- Generated by graphviz version 9.0.0 (20230911.1827)
 -->
<!-- Title: AinslieAPI.Controllers.GSS.TdcrController.TdcrController Pages: 1 -->
<svg width="1258pt" height="150pt"
 viewBox="0.00 0.00 1257.75 150.00" xmlns="http://www.w3.org/2000/svg" xmlns:xlink="http://www.w3.org/1999/xlink">
<g id="graph0" class="graph" transform="scale(1 1) rotate(0) translate(4 146)">
<title>AinslieAPI.Controllers.GSS.TdcrController.TdcrController</title>
<!-- Node1 -->
<g id="Node000001" class="node">
<title>Node1</title>
<g id="a_Node000001"><a xlink:title="Sets up controller with dependencies for processing TDCR transactions.">
<polygon fill="#999999" stroke="#666666" points="139,-32 0,-32 0,0 139,0 139,-32"/>
<text text-anchor="start" x="8" y="-18.5" font-family="Helvetica,sans-Serif" font-size="10.00">AinslieAPI.Controllers.GSS.</text>
<text text-anchor="middle" x="69.5" y="-6.5" font-family="Helvetica,sans-Serif" font-size="10.00">TdcrController.TdcrController</text>
</a>
</g>
</g>
<!-- Node2 -->
<g id="Node000002" class="node">
<title>Node2</title>
<g id="a_Node000002"><a xlink:href="class_ainslie_a_p_i_1_1_helpers_1_1_cache_data_helper.html#a533a0f6563d2e92e52c819c22c5009a6" target="_top" xlink:title="Retrieves GSS pricing data for a specific user from cache or refreshes if necessary.">
<polygon fill="white" stroke="#666666" points="302.75,-54 175,-54 175,-22 302.75,-22 302.75,-54"/>
<text text-anchor="start" x="183" y="-40.5" font-family="Helvetica,sans-Serif" font-size="10.00">AinslieAPI.Helpers.Cache</text>
<text text-anchor="middle" x="238.88" y="-28.5" font-family="Helvetica,sans-Serif" font-size="10.00">DataHelper.GSSPricing</text>
</a>
</g>
</g>
<!-- Node1&#45;&gt;Node2 -->
<g id="edge1_Node000001_Node000002" class="edge">
<title>Node1&#45;&gt;Node2</title>
<g id="a_edge1_Node000001_Node000002"><a xlink:title=" ">
<path fill="none" stroke="#63b8ff" d="M139.06,-25.01C147.04,-26.06 155.2,-27.13 163.26,-28.19"/>
<polygon fill="#63b8ff" stroke="#63b8ff" points="162.66,-31.64 173.04,-29.48 163.58,-24.7 162.66,-31.64"/>
</a>
</g>
</g>
<!-- Node8 -->
<g id="Node000008" class="node">
<title>Node8</title>
<g id="a_Node000008"><a xlink:href="class_ainslie_a_p_i_1_1_services_1_1_log_service.html#a9bf79a218e0884ac9cabd3ac87b81321" target="_top" xlink:title=" ">
<polygon fill="white" stroke="#666666" points="869.75,-42 715.75,-42 715.75,-10 869.75,-10 869.75,-42"/>
<text text-anchor="start" x="723.75" y="-28.5" font-family="Helvetica,sans-Serif" font-size="10.00">AinslieAPI.Services.LogService.</text>
<text text-anchor="middle" x="792.75" y="-16.5" font-family="Helvetica,sans-Serif" font-size="10.00">LogError</text>
</a>
</g>
</g>
<!-- Node1&#45;&gt;Node8 -->
<g id="edge12_Node000001_Node000008" class="edge">
<title>Node1&#45;&gt;Node8</title>
<g id="a_edge12_Node000001_Node000008"><a xlink:title=" ">
<path fill="none" stroke="#63b8ff" d="M139.35,-13.74C151.24,-13.43 163.48,-13.17 175,-13 363.55,-10.29 584.48,-17.46 704.07,-22.2"/>
<polygon fill="#63b8ff" stroke="#63b8ff" points="703.67,-25.69 713.8,-22.59 703.95,-18.69 703.67,-25.69"/>
</a>
</g>
</g>
<!-- Node3 -->
<g id="Node000003" class="node">
<title>Node3</title>
<g id="a_Node000003"><a xlink:href="class_ainslie_a_p_i_1_1_services_1_1_log_service.html#a83bbf569dea7ea5a40e02fca200aad8c" target="_top" xlink:title=" ">
<polygon fill="white" stroke="#666666" points="869.75,-92 715.75,-92 715.75,-60 869.75,-60 869.75,-92"/>
<text text-anchor="start" x="723.75" y="-78.5" font-family="Helvetica,sans-Serif" font-size="10.00">AinslieAPI.Services.LogService.</text>
<text text-anchor="middle" x="792.75" y="-66.5" font-family="Helvetica,sans-Serif" font-size="10.00">LogException</text>
</a>
</g>
</g>
<!-- Node2&#45;&gt;Node3 -->
<g id="edge2_Node000002_Node000003" class="edge">
<title>Node2&#45;&gt;Node3</title>
<g id="a_edge2_Node000002_Node000003"><a xlink:title=" ">
<path fill="none" stroke="#63b8ff" d="M303.17,-36.11C388.9,-34.41 546.52,-34.32 679.75,-51 691.78,-52.51 704.42,-54.71 716.71,-57.19"/>
<polygon fill="#63b8ff" stroke="#63b8ff" points="715.87,-60.59 726.38,-59.23 717.31,-53.74 715.87,-60.59"/>
</a>
</g>
</g>
<!-- Node6 -->
<g id="Node000006" class="node">
<title>Node6</title>
<g id="a_Node000006"><a xlink:href="class_ainslie_a_p_i_1_1_helpers_1_1_cache_data_helper.html#a603725b5f3104a2056b255d5ba62b145" target="_top" xlink:title="Refreshes the GSS pricing cache for a specific user, ensuring the data is current.">
<polygon fill="white" stroke="#666666" points="489.75,-92 338.75,-92 338.75,-60 489.75,-60 489.75,-92"/>
<text text-anchor="start" x="346.75" y="-78.5" font-family="Helvetica,sans-Serif" font-size="10.00">AinslieAPI.Helpers.Cache</text>
<text text-anchor="middle" x="414.25" y="-66.5" font-family="Helvetica,sans-Serif" font-size="10.00">DataHelper.RefreshGSSPricing</text>
</a>
</g>
</g>
<!-- Node2&#45;&gt;Node6 -->
<g id="edge5_Node000002_Node000006" class="edge">
<title>Node2&#45;&gt;Node6</title>
<g id="a_edge5_Node000002_Node000006"><a xlink:title=" ">
<path fill="none" stroke="#63b8ff" d="M302.96,-51.83C310.88,-53.56 319.08,-55.36 327.28,-57.16"/>
<polygon fill="#63b8ff" stroke="#63b8ff" points="326.43,-60.55 336.95,-59.28 327.93,-53.72 326.43,-60.55"/>
</a>
</g>
</g>
<!-- Node4 -->
<g id="Node000004" class="node">
<title>Node4</title>
<g id="a_Node000004"><a xlink:href="class_ainslie_a_p_i_1_1_services_1_1_log_service.html#a3c2dce5ed306365dfa416f700e5360cf" target="_top" xlink:title="inserts log to database">
<polygon fill="white" stroke="#666666" points="1059.75,-92 905.75,-92 905.75,-60 1059.75,-60 1059.75,-92"/>
<text text-anchor="start" x="913.75" y="-78.5" font-family="Helvetica,sans-Serif" font-size="10.00">AinslieAPI.Services.LogService.</text>
<text text-anchor="middle" x="982.75" y="-66.5" font-family="Helvetica,sans-Serif" font-size="10.00">InsertLog</text>
</a>
</g>
</g>
<!-- Node3&#45;&gt;Node4 -->
<g id="edge3_Node000003_Node000004" class="edge">
<title>Node3&#45;&gt;Node4</title>
<g id="a_edge3_Node000003_Node000004"><a xlink:title=" ">
<path fill="none" stroke="#63b8ff" d="M870.22,-76C878,-76 885.96,-76 893.85,-76"/>
<polygon fill="#63b8ff" stroke="#63b8ff" points="893.84,-79.5 903.84,-76 893.84,-72.5 893.84,-79.5"/>
</a>
</g>
</g>
<!-- Node5 -->
<g id="Node000005" class="node">
<title>Node5</title>
<g id="a_Node000005"><a xlink:href="class_ainslie_a_p_i_1_1_services_1_1_log_service.html#a6342d4add22dfffd5dadb5a7b3f112bc" target="_top" xlink:title="writes a text file log to [App home directory]/log">
<polygon fill="white" stroke="#666666" points="1249.75,-92 1095.75,-92 1095.75,-60 1249.75,-60 1249.75,-92"/>
<text text-anchor="start" x="1103.75" y="-78.5" font-family="Helvetica,sans-Serif" font-size="10.00">AinslieAPI.Services.LogService.</text>
<text text-anchor="middle" x="1172.75" y="-66.5" font-family="Helvetica,sans-Serif" font-size="10.00">WriteLog</text>
</a>
</g>
</g>
<!-- Node4&#45;&gt;Node5 -->
<g id="edge4_Node000004_Node000005" class="edge">
<title>Node4&#45;&gt;Node5</title>
<g id="a_edge4_Node000004_Node000005"><a xlink:title=" ">
<path fill="none" stroke="#63b8ff" d="M1060.22,-76C1068,-76 1075.96,-76 1083.85,-76"/>
<polygon fill="#63b8ff" stroke="#63b8ff" points="1083.84,-79.5 1093.84,-76 1083.84,-72.5 1083.84,-79.5"/>
</a>
</g>
</g>
<!-- Node7 -->
<g id="Node000007" class="node">
<title>Node7</title>
<g id="a_Node000007"><a xlink:href="class_ainslie_a_p_i_1_1_services_1_1_aw_api_service.html#a94685f746f003ef92fe3a7f4ef545efe" target="_top" xlink:title="Fetches GSS pricing data for a specified user from the AW API.">
<polygon fill="white" stroke="#666666" points="668.5,-92 537,-92 537,-60 668.5,-60 668.5,-92"/>
<text text-anchor="start" x="545" y="-78.5" font-family="Helvetica,sans-Serif" font-size="10.00">AinslieAPI.Services.AwApi</text>
<text text-anchor="middle" x="602.75" y="-66.5" font-family="Helvetica,sans-Serif" font-size="10.00">Service.GetGssPricing</text>
</a>
</g>
</g>
<!-- Node6&#45;&gt;Node7 -->
<g id="edge6_Node000006_Node000007" class="edge">
<title>Node6&#45;&gt;Node7</title>
<g id="a_edge6_Node000006_Node000007"><a xlink:title=" ">
<path fill="none" stroke="#63b8ff" d="M490.03,-76C501.58,-76 513.53,-76 525.12,-76"/>
<polygon fill="#63b8ff" stroke="#63b8ff" points="525.06,-79.5 535.06,-76 525.06,-72.5 525.06,-79.5"/>
</a>
</g>
</g>
<!-- Node9 -->
<g id="Node000009" class="node">
<title>Node9</title>
<g id="a_Node000009"><a xlink:href="class_ainslie_a_p_i_1_1_services_1_1_log_service.html#a917b9af360c0c6521ce36f4acbc72023" target="_top" xlink:title=" ">
<polygon fill="white" stroke="#666666" points="679.75,-142 525.75,-142 525.75,-110 679.75,-110 679.75,-142"/>
<text text-anchor="start" x="533.75" y="-128.5" font-family="Helvetica,sans-Serif" font-size="10.00">AinslieAPI.Services.LogService.</text>
<text text-anchor="middle" x="602.75" y="-116.5" font-family="Helvetica,sans-Serif" font-size="10.00">LogInformation</text>
</a>
</g>
</g>
<!-- Node6&#45;&gt;Node9 -->
<g id="edge10_Node000006_Node000009" class="edge">
<title>Node6&#45;&gt;Node9</title>
<g id="a_edge10_Node000006_Node000009"><a xlink:title=" ">
<path fill="none" stroke="#63b8ff" d="M476.58,-92.44C493.54,-96.99 512.12,-101.97 529.64,-106.67"/>
<polygon fill="#63b8ff" stroke="#63b8ff" points="528.36,-109.95 538.93,-109.16 530.17,-103.19 528.36,-109.95"/>
</a>
</g>
</g>
<!-- Node7&#45;&gt;Node3 -->
<g id="edge9_Node000007_Node000003" class="edge">
<title>Node7&#45;&gt;Node3</title>
<g id="a_edge9_Node000007_Node000003"><a xlink:title=" ">
<path fill="none" stroke="#63b8ff" d="M668.98,-76C680.31,-76 692.26,-76 704.07,-76"/>
<polygon fill="#63b8ff" stroke="#63b8ff" points="703.82,-79.5 713.82,-76 703.82,-72.5 703.82,-79.5"/>
</a>
</g>
</g>
<!-- Node7&#45;&gt;Node8 -->
<g id="edge7_Node000007_Node000008" class="edge">
<title>Node7&#45;&gt;Node8</title>
<g id="a_edge7_Node000007_Node000008"><a xlink:title=" ">
<path fill="none" stroke="#63b8ff" d="M665.57,-59.56C682.59,-55.03 701.22,-50.08 718.81,-45.4"/>
<polygon fill="#63b8ff" stroke="#63b8ff" points="719.67,-48.79 728.43,-42.84 717.87,-42.03 719.67,-48.79"/>
</a>
</g>
</g>
<!-- Node8&#45;&gt;Node4 -->
<g id="edge8_Node000008_Node000004" class="edge">
<title>Node8&#45;&gt;Node4</title>
<g id="a_edge8_Node000008_Node000004"><a xlink:title=" ">
<path fill="none" stroke="#63b8ff" d="M855.57,-42.44C872.59,-46.97 891.22,-51.92 908.81,-56.6"/>
<polygon fill="#63b8ff" stroke="#63b8ff" points="907.87,-59.97 918.43,-59.16 909.67,-53.21 907.87,-59.97"/>
</a>
</g>
</g>
<!-- Node9&#45;&gt;Node4 -->
<g id="edge11_Node000009_Node000004" class="edge">
<title>Node9&#45;&gt;Node4</title>
<g id="a_edge11_Node000009_Node000004"><a xlink:title=" ">
<path fill="none" stroke="#63b8ff" d="M680.03,-121.39C733.38,-117.54 806.18,-111.04 869.75,-101 880.67,-99.27 892.12,-97.12 903.36,-94.81"/>
<polygon fill="#63b8ff" stroke="#63b8ff" points="903.96,-98.26 913.02,-92.77 902.51,-91.41 903.96,-98.26"/>
</a>
</g>
</g>
</g>
</svg>
