<?xml version="1.0" encoding="UTF-8" standalone="no"?>
<!DOCTYPE svg PUBLIC "-//W3C//DTD SVG 1.1//EN"
 "http://www.w3.org/Graphics/SVG/1.1/DTD/svg11.dtd">
<!-- Generated by graphviz version 9.0.0 (20230911.1827)
 -->
<!-- Title: AinslieAPI.Helpers.CacheDataHelper.RefreshPriceappProducts Pages: 1 -->
<svg width="945pt" height="134pt"
 viewBox="0.00 0.00 945.25 134.00" xmlns="http://www.w3.org/2000/svg" xmlns:xlink="http://www.w3.org/1999/xlink">
<g id="graph0" class="graph" transform="scale(1 1) rotate(0) translate(4 130)">
<title>AinslieAPI.Helpers.CacheDataHelper.RefreshPriceappProducts</title>
<!-- Node1 -->
<g id="Node000001" class="node">
<title>Node1</title>
<g id="a_Node000001"><a xlink:title="Refreshes the product price list cache if necessary, ensuring up&#45;to&#45;date data availability.">
<polygon fill="#999999" stroke="#666666" points="177.25,-57 0,-57 0,-25 177.25,-25 177.25,-57"/>
<text text-anchor="start" x="8" y="-43.5" font-family="Helvetica,sans-Serif" font-size="10.00">AinslieAPI.Helpers.Cache</text>
<text text-anchor="middle" x="88.62" y="-31.5" font-family="Helvetica,sans-Serif" font-size="10.00">DataHelper.RefreshPriceappProducts</text>
</a>
</g>
</g>
<!-- Node2 -->
<g id="Node000002" class="node">
<title>Node2</title>
<g id="a_Node000002"><a xlink:href="class_ainslie_a_p_i_1_1_services_1_1_internal_api_service.html#a0c4c5cccb2233540343e36fe0e8a0acc" target="_top" xlink:title="Fetches the current product pricing from the internal API and deserialises the response into a list o...">
<polygon fill="white" stroke="#666666" points="362.38,-82 218.12,-82 218.12,-50 362.38,-50 362.38,-82"/>
<text text-anchor="start" x="226.12" y="-68.5" font-family="Helvetica,sans-Serif" font-size="10.00">AinslieAPI.Services.Internal</text>
<text text-anchor="middle" x="290.25" y="-56.5" font-family="Helvetica,sans-Serif" font-size="10.00">ApiService.GetProductPricing</text>
</a>
</g>
</g>
<!-- Node1&#45;&gt;Node2 -->
<g id="edge1_Node000001_Node000002" class="edge">
<title>Node1&#45;&gt;Node2</title>
<g id="a_edge1_Node000001_Node000002"><a xlink:title=" ">
<path fill="none" stroke="#63b8ff" d="M177.47,-52C187.17,-53.22 197.02,-54.45 206.66,-55.66"/>
<polygon fill="#63b8ff" stroke="#63b8ff" points="205.98,-59.1 216.34,-56.87 206.85,-52.15 205.98,-59.1"/>
</a>
</g>
</g>
<!-- Node7 -->
<g id="Node000007" class="node">
<title>Node7</title>
<g id="a_Node000007"><a xlink:href="class_ainslie_a_p_i_1_1_services_1_1_log_service.html#a917b9af360c0c6521ce36f4acbc72023" target="_top" xlink:title=" ">
<polygon fill="white" stroke="#666666" points="367.25,-32 213.25,-32 213.25,0 367.25,0 367.25,-32"/>
<text text-anchor="start" x="221.25" y="-18.5" font-family="Helvetica,sans-Serif" font-size="10.00">AinslieAPI.Services.LogService.</text>
<text text-anchor="middle" x="290.25" y="-6.5" font-family="Helvetica,sans-Serif" font-size="10.00">LogInformation</text>
</a>
</g>
</g>
<!-- Node1&#45;&gt;Node7 -->
<g id="edge7_Node000001_Node000007" class="edge">
<title>Node1&#45;&gt;Node7</title>
<g id="a_edge7_Node000001_Node000007"><a xlink:title=" ">
<path fill="none" stroke="#63b8ff" d="M177.47,-30C185.51,-28.99 193.65,-27.97 201.68,-26.97"/>
<polygon fill="#63b8ff" stroke="#63b8ff" points="201.95,-30.46 211.44,-25.74 201.08,-23.51 201.95,-30.46"/>
</a>
</g>
</g>
<!-- Node3 -->
<g id="Node000003" class="node">
<title>Node3</title>
<g id="a_Node000003"><a xlink:href="class_ainslie_a_p_i_1_1_services_1_1_log_service.html#a9bf79a218e0884ac9cabd3ac87b81321" target="_top" xlink:title=" ">
<polygon fill="white" stroke="#666666" points="557.25,-126 403.25,-126 403.25,-94 557.25,-94 557.25,-126"/>
<text text-anchor="start" x="411.25" y="-112.5" font-family="Helvetica,sans-Serif" font-size="10.00">AinslieAPI.Services.LogService.</text>
<text text-anchor="middle" x="480.25" y="-100.5" font-family="Helvetica,sans-Serif" font-size="10.00">LogError</text>
</a>
</g>
</g>
<!-- Node2&#45;&gt;Node3 -->
<g id="edge2_Node000002_Node000003" class="edge">
<title>Node2&#45;&gt;Node3</title>
<g id="a_edge2_Node000002_Node000003"><a xlink:title=" ">
<path fill="none" stroke="#63b8ff" d="M361.52,-82.45C373.34,-85.21 385.69,-88.1 397.77,-90.93"/>
<polygon fill="#63b8ff" stroke="#63b8ff" points="396.74,-94.28 407.28,-93.16 398.34,-87.47 396.74,-94.28"/>
</a>
</g>
</g>
<!-- Node6 -->
<g id="Node000006" class="node">
<title>Node6</title>
<g id="a_Node000006"><a xlink:href="class_ainslie_a_p_i_1_1_services_1_1_log_service.html#a83bbf569dea7ea5a40e02fca200aad8c" target="_top" xlink:title=" ">
<polygon fill="white" stroke="#666666" points="557.25,-76 403.25,-76 403.25,-44 557.25,-44 557.25,-76"/>
<text text-anchor="start" x="411.25" y="-62.5" font-family="Helvetica,sans-Serif" font-size="10.00">AinslieAPI.Services.LogService.</text>
<text text-anchor="middle" x="480.25" y="-50.5" font-family="Helvetica,sans-Serif" font-size="10.00">LogException</text>
</a>
</g>
</g>
<!-- Node2&#45;&gt;Node6 -->
<g id="edge5_Node000002_Node000006" class="edge">
<title>Node2&#45;&gt;Node6</title>
<g id="a_edge5_Node000002_Node000006"><a xlink:title=" ">
<path fill="none" stroke="#63b8ff" d="M362.86,-63.71C372.26,-63.41 381.97,-63.1 391.6,-62.8"/>
<polygon fill="#63b8ff" stroke="#63b8ff" points="391.44,-66.3 401.32,-62.49 391.21,-59.31 391.44,-66.3"/>
</a>
</g>
</g>
<!-- Node4 -->
<g id="Node000004" class="node">
<title>Node4</title>
<g id="a_Node000004"><a xlink:href="class_ainslie_a_p_i_1_1_services_1_1_log_service.html#a3c2dce5ed306365dfa416f700e5360cf" target="_top" xlink:title="inserts log to database">
<polygon fill="white" stroke="#666666" points="747.25,-76 593.25,-76 593.25,-44 747.25,-44 747.25,-76"/>
<text text-anchor="start" x="601.25" y="-62.5" font-family="Helvetica,sans-Serif" font-size="10.00">AinslieAPI.Services.LogService.</text>
<text text-anchor="middle" x="670.25" y="-50.5" font-family="Helvetica,sans-Serif" font-size="10.00">InsertLog</text>
</a>
</g>
</g>
<!-- Node3&#45;&gt;Node4 -->
<g id="edge3_Node000003_Node000004" class="edge">
<title>Node3&#45;&gt;Node4</title>
<g id="a_edge3_Node000003_Node000004"><a xlink:title=" ">
<path fill="none" stroke="#63b8ff" d="M543.07,-93.56C560.09,-89.03 578.72,-84.08 596.31,-79.4"/>
<polygon fill="#63b8ff" stroke="#63b8ff" points="597.17,-82.79 605.93,-76.84 595.37,-76.03 597.17,-82.79"/>
</a>
</g>
</g>
<!-- Node5 -->
<g id="Node000005" class="node">
<title>Node5</title>
<g id="a_Node000005"><a xlink:href="class_ainslie_a_p_i_1_1_services_1_1_log_service.html#a6342d4add22dfffd5dadb5a7b3f112bc" target="_top" xlink:title="writes a text file log to [App home directory]/log">
<polygon fill="white" stroke="#666666" points="937.25,-76 783.25,-76 783.25,-44 937.25,-44 937.25,-76"/>
<text text-anchor="start" x="791.25" y="-62.5" font-family="Helvetica,sans-Serif" font-size="10.00">AinslieAPI.Services.LogService.</text>
<text text-anchor="middle" x="860.25" y="-50.5" font-family="Helvetica,sans-Serif" font-size="10.00">WriteLog</text>
</a>
</g>
</g>
<!-- Node4&#45;&gt;Node5 -->
<g id="edge4_Node000004_Node000005" class="edge">
<title>Node4&#45;&gt;Node5</title>
<g id="a_edge4_Node000004_Node000005"><a xlink:title=" ">
<path fill="none" stroke="#63b8ff" d="M747.72,-60C755.5,-60 763.46,-60 771.35,-60"/>
<polygon fill="#63b8ff" stroke="#63b8ff" points="771.34,-63.5 781.34,-60 771.34,-56.5 771.34,-63.5"/>
</a>
</g>
</g>
<!-- Node6&#45;&gt;Node4 -->
<g id="edge6_Node000006_Node000004" class="edge">
<title>Node6&#45;&gt;Node4</title>
<g id="a_edge6_Node000006_Node000004"><a xlink:title=" ">
<path fill="none" stroke="#63b8ff" d="M557.72,-60C565.5,-60 573.46,-60 581.35,-60"/>
<polygon fill="#63b8ff" stroke="#63b8ff" points="581.34,-63.5 591.34,-60 581.34,-56.5 581.34,-63.5"/>
</a>
</g>
</g>
<!-- Node7&#45;&gt;Node4 -->
<g id="edge8_Node000007_Node000004" class="edge">
<title>Node7&#45;&gt;Node4</title>
<g id="a_edge8_Node000007_Node000004"><a xlink:title=" ">
<path fill="none" stroke="#63b8ff" d="M367.54,-18.45C420.89,-20.89 493.69,-25.69 557.25,-35 568.6,-36.66 580.52,-38.84 592.16,-41.22"/>
<polygon fill="#63b8ff" stroke="#63b8ff" points="591.23,-44.6 601.74,-43.24 592.68,-37.76 591.23,-44.6"/>
</a>
</g>
</g>
</g>
</svg>
