<?xml version="1.0" encoding="UTF-8" standalone="no"?>
<!DOCTYPE svg PUBLIC "-//W3C//DTD SVG 1.1//EN"
 "http://www.w3.org/Graphics/SVG/1.1/DTD/svg11.dtd">
<!-- Generated by graphviz version 9.0.0 (20230911.1827)
 -->
<!-- Title: AinslieAPI.Services.InternalApiService.UpdateGreenIdDbNetsuiteId Pages: 1 -->
<svg width="763pt" height="90pt"
 viewBox="0.00 0.00 762.75 90.00" xmlns="http://www.w3.org/2000/svg" xmlns:xlink="http://www.w3.org/1999/xlink">
<g id="graph0" class="graph" transform="scale(1 1) rotate(0) translate(4 86)">
<title>AinslieAPI.Services.InternalApiService.UpdateGreenIdDbNetsuiteId</title>
<!-- Node1 -->
<g id="Node000001" class="node">
<title>Node1</title>
<g id="a_Node000001"><a xlink:title="Updates the Netsuite ID associated with a specific Green ID record in the database.">
<polygon fill="#999999" stroke="#666666" points="184.75,-57 0,-57 0,-25 184.75,-25 184.75,-57"/>
<text text-anchor="start" x="8" y="-43.5" font-family="Helvetica,sans-Serif" font-size="10.00">AinslieAPI.Services.Internal</text>
<text text-anchor="middle" x="92.38" y="-31.5" font-family="Helvetica,sans-Serif" font-size="10.00">ApiService.UpdateGreenIdDbNetsuiteId</text>
</a>
</g>
</g>
<!-- Node2 -->
<g id="Node000002" class="node">
<title>Node2</title>
<g id="a_Node000002"><a xlink:href="class_ainslie_a_p_i_1_1_services_1_1_log_service.html#a9bf79a218e0884ac9cabd3ac87b81321" target="_top" xlink:title=" ">
<polygon fill="white" stroke="#666666" points="374.75,-82 220.75,-82 220.75,-50 374.75,-50 374.75,-82"/>
<text text-anchor="start" x="228.75" y="-68.5" font-family="Helvetica,sans-Serif" font-size="10.00">AinslieAPI.Services.LogService.</text>
<text text-anchor="middle" x="297.75" y="-56.5" font-family="Helvetica,sans-Serif" font-size="10.00">LogError</text>
</a>
</g>
</g>
<!-- Node1&#45;&gt;Node2 -->
<g id="edge1_Node000001_Node000002" class="edge">
<title>Node1&#45;&gt;Node2</title>
<g id="a_edge1_Node000001_Node000002"><a xlink:title=" ">
<path fill="none" stroke="#63b8ff" d="M185.24,-52.29C193.26,-53.28 201.35,-54.27 209.33,-55.25"/>
<polygon fill="#63b8ff" stroke="#63b8ff" points="208.65,-58.7 219,-56.44 209.5,-51.75 208.65,-58.7"/>
</a>
</g>
</g>
<!-- Node5 -->
<g id="Node000005" class="node">
<title>Node5</title>
<g id="a_Node000005"><a xlink:href="class_ainslie_a_p_i_1_1_services_1_1_log_service.html#a83bbf569dea7ea5a40e02fca200aad8c" target="_top" xlink:title=" ">
<polygon fill="white" stroke="#666666" points="374.75,-32 220.75,-32 220.75,0 374.75,0 374.75,-32"/>
<text text-anchor="start" x="228.75" y="-18.5" font-family="Helvetica,sans-Serif" font-size="10.00">AinslieAPI.Services.LogService.</text>
<text text-anchor="middle" x="297.75" y="-6.5" font-family="Helvetica,sans-Serif" font-size="10.00">LogException</text>
</a>
</g>
</g>
<!-- Node1&#45;&gt;Node5 -->
<g id="edge4_Node000001_Node000005" class="edge">
<title>Node1&#45;&gt;Node5</title>
<g id="a_edge4_Node000001_Node000005"><a xlink:title=" ">
<path fill="none" stroke="#63b8ff" d="M185.24,-29.71C193.26,-28.72 201.35,-27.73 209.33,-26.75"/>
<polygon fill="#63b8ff" stroke="#63b8ff" points="209.5,-30.25 219,-25.56 208.65,-23.3 209.5,-30.25"/>
</a>
</g>
</g>
<!-- Node3 -->
<g id="Node000003" class="node">
<title>Node3</title>
<g id="a_Node000003"><a xlink:href="class_ainslie_a_p_i_1_1_services_1_1_log_service.html#a3c2dce5ed306365dfa416f700e5360cf" target="_top" xlink:title="inserts log to database">
<polygon fill="white" stroke="#666666" points="564.75,-57 410.75,-57 410.75,-25 564.75,-25 564.75,-57"/>
<text text-anchor="start" x="418.75" y="-43.5" font-family="Helvetica,sans-Serif" font-size="10.00">AinslieAPI.Services.LogService.</text>
<text text-anchor="middle" x="487.75" y="-31.5" font-family="Helvetica,sans-Serif" font-size="10.00">InsertLog</text>
</a>
</g>
</g>
<!-- Node2&#45;&gt;Node3 -->
<g id="edge2_Node000002_Node000003" class="edge">
<title>Node2&#45;&gt;Node3</title>
<g id="a_edge2_Node000002_Node000003"><a xlink:title=" ">
<path fill="none" stroke="#63b8ff" d="M375.22,-55.83C383.09,-54.78 391.14,-53.71 399.13,-52.65"/>
<polygon fill="#63b8ff" stroke="#63b8ff" points="399.4,-56.15 408.85,-51.36 398.48,-49.21 399.4,-56.15"/>
</a>
</g>
</g>
<!-- Node4 -->
<g id="Node000004" class="node">
<title>Node4</title>
<g id="a_Node000004"><a xlink:href="class_ainslie_a_p_i_1_1_services_1_1_log_service.html#a6342d4add22dfffd5dadb5a7b3f112bc" target="_top" xlink:title="writes a text file log to [App home directory]/log">
<polygon fill="white" stroke="#666666" points="754.75,-57 600.75,-57 600.75,-25 754.75,-25 754.75,-57"/>
<text text-anchor="start" x="608.75" y="-43.5" font-family="Helvetica,sans-Serif" font-size="10.00">AinslieAPI.Services.LogService.</text>
<text text-anchor="middle" x="677.75" y="-31.5" font-family="Helvetica,sans-Serif" font-size="10.00">WriteLog</text>
</a>
</g>
</g>
<!-- Node3&#45;&gt;Node4 -->
<g id="edge3_Node000003_Node000004" class="edge">
<title>Node3&#45;&gt;Node4</title>
<g id="a_edge3_Node000003_Node000004"><a xlink:title=" ">
<path fill="none" stroke="#63b8ff" d="M565.22,-41C573,-41 580.96,-41 588.85,-41"/>
<polygon fill="#63b8ff" stroke="#63b8ff" points="588.84,-44.5 598.84,-41 588.84,-37.5 588.84,-44.5"/>
</a>
</g>
</g>
<!-- Node5&#45;&gt;Node3 -->
<g id="edge5_Node000005_Node000003" class="edge">
<title>Node5&#45;&gt;Node3</title>
<g id="a_edge5_Node000005_Node000003"><a xlink:title=" ">
<path fill="none" stroke="#63b8ff" d="M375.22,-26.17C383.09,-27.22 391.14,-28.29 399.13,-29.35"/>
<polygon fill="#63b8ff" stroke="#63b8ff" points="398.48,-32.79 408.85,-30.64 399.4,-25.85 398.48,-32.79"/>
</a>
</g>
</g>
</g>
</svg>
