<?xml version="1.0" encoding="UTF-8" standalone="no"?>
<!DOCTYPE svg PUBLIC "-//W3C//DTD SVG 1.1//EN"
 "http://www.w3.org/Graphics/SVG/1.1/DTD/svg11.dtd">
<!-- Generated by graphviz version 9.0.0 (20230911.1827)
 -->
<!-- Title: Flatted\keys Pages: 1 -->
<svg width="431pt" height="145pt"
 viewBox="0.00 0.00 431.25 144.78" xmlns="http://www.w3.org/2000/svg" xmlns:xlink="http://www.w3.org/1999/xlink">
<g id="graph0" class="graph" transform="scale(1 1) rotate(0) translate(4 140.78)">
<title>Flatted\keys</title>
<!-- Node1 -->
<g id="Node000001" class="node">
<title>Node1</title>
<g id="a_Node000001"><a xlink:title=" ">
<polygon fill="#999999" stroke="#666666" points="423.25,-95 353.25,-95 353.25,-75 423.25,-75 423.25,-95"/>
<text text-anchor="middle" x="388.25" y="-81.5" font-family="Helvetica,sans-Serif" font-size="10.00">Flatted\keys</text>
</a>
</g>
</g>
<!-- Node2 -->
<g id="Node000002" class="node">
<title>Node2</title>
<g id="a_Node000002"><a xlink:href="class_flatted.html#abda2f205b4a05f941504857868aa4435" target="_top" xlink:title=" ">
<polygon fill="white" stroke="#666666" points="73,-133 0,-133 0,-113 73,-113 73,-133"/>
<text text-anchor="middle" x="36.5" y="-119.5" font-family="Helvetica,sans-Serif" font-size="10.00">Flatted\parse</text>
</a>
</g>
</g>
<!-- Node1&#45;&gt;Node2 -->
<g id="edge1_Node000001_Node000002" class="edge">
<title>Node1&#45;&gt;Node2</title>
<g id="a_edge1_Node000001_Node000002"><a xlink:title=" ">
<path fill="none" stroke="#63b8ff" d="M363.58,-101.7C350.56,-109.86 333.75,-118.81 317.25,-123 231.81,-144.7 126.9,-135.63 73.08,-128.51"/>
<polygon fill="#63b8ff" stroke="#63b8ff" points="365.42,-104.68 371.86,-96.27 361.58,-98.83 365.42,-104.68"/>
</a>
</g>
</g>
<!-- Node3 -->
<g id="Node000003" class="node">
<title>Node3</title>
<g id="a_Node000003"><a xlink:href="class_flatted.html#a2383280951ac4457a7a823647e30d0ed" target="_top" xlink:title=" ">
<polygon fill="white" stroke="#666666" points="302.25,-114 242.75,-114 242.75,-94 302.25,-94 302.25,-114"/>
<text text-anchor="middle" x="272.5" y="-100.5" font-family="Helvetica,sans-Serif" font-size="10.00">Flatted\ref</text>
</a>
</g>
</g>
<!-- Node1&#45;&gt;Node3 -->
<g id="edge2_Node000001_Node000003" class="edge">
<title>Node1&#45;&gt;Node3</title>
<g id="a_edge2_Node000001_Node000003"><a xlink:title=" ">
<path fill="none" stroke="#63b8ff" d="M341.52,-92.64C328.33,-94.84 314.31,-97.18 302.45,-99.16"/>
<polygon fill="#63b8ff" stroke="#63b8ff" points="342.03,-96.1 351.32,-91 340.88,-89.2 342.03,-96.1"/>
</a>
</g>
</g>
<!-- Node5 -->
<g id="Node000005" class="node">
<title>Node5</title>
<g id="a_Node000005"><a xlink:href="class_flatted.html#ae60904e02c57006e7edbe60ad994c75d" target="_top" xlink:title=" ">
<polygon fill="white" stroke="#666666" points="317.25,-76 227.75,-76 227.75,-56 317.25,-56 317.25,-76"/>
<text text-anchor="middle" x="272.5" y="-62.5" font-family="Helvetica,sans-Serif" font-size="10.00">Flatted\transform</text>
</a>
</g>
</g>
<!-- Node1&#45;&gt;Node5 -->
<g id="edge6_Node000001_Node000005" class="edge">
<title>Node1&#45;&gt;Node5</title>
<g id="a_edge6_Node000001_Node000005"><a xlink:title=" ">
<path fill="none" stroke="#63b8ff" d="M341.51,-77.36C333.59,-76.04 325.38,-74.66 317.51,-73.35"/>
<polygon fill="#63b8ff" stroke="#63b8ff" points="340.88,-80.8 351.32,-79 342.03,-73.9 340.88,-80.8"/>
</a>
</g>
</g>
<!-- Node7 -->
<g id="Node000007" class="node">
<title>Node7</title>
<g id="a_Node000007"><a xlink:href="class_flatted.html#ab56c8d777b63d15fbfc22e6e0f034d91" target="_top" xlink:title=" ">
<polygon fill="white" stroke="#666666" points="307.12,-20 237.88,-20 237.88,0 307.12,0 307.12,-20"/>
<text text-anchor="middle" x="272.5" y="-6.5" font-family="Helvetica,sans-Serif" font-size="10.00">Flatted\wrap</text>
</a>
</g>
</g>
<!-- Node1&#45;&gt;Node7 -->
<g id="edge8_Node000001_Node000007" class="edge">
<title>Node1&#45;&gt;Node7</title>
<g id="a_edge8_Node000001_Node000007"><a xlink:title=" ">
<path fill="none" stroke="#63b8ff" d="M361.95,-68.32C339.68,-53.64 307.97,-32.73 289.18,-20.34"/>
<polygon fill="#63b8ff" stroke="#63b8ff" points="359.89,-71.16 370.17,-73.74 363.75,-65.31 359.89,-71.16"/>
</a>
</g>
</g>
<!-- Node4 -->
<g id="Node000004" class="node">
<title>Node4</title>
<g id="a_Node000004"><a xlink:href="class_flatted.html#a71d799a680c7adf89e9559e045138b9e" target="_top" xlink:title=" ">
<polygon fill="white" stroke="#666666" points="183.88,-114 116.88,-114 116.88,-94 183.88,-94 183.88,-114"/>
<text text-anchor="middle" x="150.38" y="-100.5" font-family="Helvetica,sans-Serif" font-size="10.00">Flatted\loop</text>
</a>
</g>
</g>
<!-- Node3&#45;&gt;Node4 -->
<g id="edge3_Node000003_Node000004" class="edge">
<title>Node3&#45;&gt;Node4</title>
<g id="a_edge3_Node000003_Node000004"><a xlink:title=" ">
<path fill="none" stroke="#63b8ff" d="M231.14,-97.58C215.8,-97.05 198.53,-97.16 184,-97.92"/>
<polygon fill="#63b8ff" stroke="#63b8ff" points="230.75,-101.07 240.91,-98.05 231.09,-94.08 230.75,-101.07"/>
</a>
</g>
</g>
<!-- Node4&#45;&gt;Node2 -->
<g id="edge4_Node000004_Node000002" class="edge">
<title>Node4&#45;&gt;Node2</title>
<g id="a_edge4_Node000004_Node000002"><a xlink:title=" ">
<path fill="none" stroke="#63b8ff" d="M105.24,-111.49C94.67,-113.29 83.5,-115.19 73.35,-116.91"/>
<polygon fill="#63b8ff" stroke="#63b8ff" points="105.65,-114.98 114.92,-109.85 104.48,-108.08 105.65,-114.98"/>
</a>
</g>
</g>
<!-- Node4&#45;&gt;Node3 -->
<g id="edge5_Node000004_Node000003" class="edge">
<title>Node4&#45;&gt;Node3</title>
<g id="a_edge5_Node000004_Node000003"><a xlink:title=" ">
<path fill="none" stroke="#63b8ff" d="M195.11,-110.52C210.86,-110.97 228.23,-110.76 242.42,-109.88"/>
<polygon fill="#63b8ff" stroke="#63b8ff" points="195.64,-107.04 185.51,-110.14 195.36,-114.04 195.64,-107.04"/>
</a>
</g>
</g>
<!-- Node6 -->
<g id="Node000006" class="node">
<title>Node6</title>
<g id="a_Node000006"><a xlink:href="class_flatted.html#a02948b06481bc3d2118b61f83ccc26e8" target="_top" xlink:title=" ">
<polygon fill="white" stroke="#666666" points="191.75,-76 109,-76 109,-56 191.75,-56 191.75,-76"/>
<text text-anchor="middle" x="150.38" y="-62.5" font-family="Helvetica,sans-Serif" font-size="10.00">Flatted\stringify</text>
</a>
</g>
</g>
<!-- Node5&#45;&gt;Node6 -->
<g id="edge7_Node000005_Node000006" class="edge">
<title>Node5&#45;&gt;Node6</title>
<g id="a_edge7_Node000005_Node000006"><a xlink:title=" ">
<path fill="none" stroke="#63b8ff" d="M216.19,-66C208.12,-66 199.94,-66 192.23,-66"/>
<polygon fill="#63b8ff" stroke="#63b8ff" points="215.94,-69.5 225.94,-66 215.94,-62.5 215.94,-69.5"/>
</a>
</g>
</g>
<!-- Node7&#45;&gt;Node7 -->
<g id="edge9_Node000007_Node000007" class="edge">
<title>Node7&#45;&gt;Node7</title>
<g id="a_edge9_Node000007_Node000007"><a xlink:title=" ">
<path fill="none" stroke="#63b8ff" d="M292.96,-31.44C290.32,-35.3 283.5,-38 272.5,-38 252.38,-38 246.25,-28.98 254.11,-20.34"/>
<polygon fill="#63b8ff" stroke="#63b8ff" points="296.44,-31.02 291.17,-21.83 289.56,-32.3 296.44,-31.02"/>
</a>
</g>
</g>
</g>
</svg>
