<?xml version="1.0" encoding="UTF-8" standalone="no"?>
<!DOCTYPE svg PUBLIC "-//W3C//DTD SVG 1.1//EN"
 "http://www.w3.org/Graphics/SVG/1.1/DTD/svg11.dtd">
<!-- Generated by graphviz version 9.0.0 (20230911.1827)
 -->
<!-- Title: AinslieAPI.Controllers.GSS.TdcrController.ValidateOrderRequest Pages: 1 -->
<svg width="1164pt" height="151pt"
 viewBox="0.00 0.00 1163.75 150.77" xmlns="http://www.w3.org/2000/svg" xmlns:xlink="http://www.w3.org/1999/xlink">
<g id="graph0" class="graph" transform="scale(1 1) rotate(0) translate(4 146.77)">
<title>AinslieAPI.Controllers.GSS.TdcrController.ValidateOrderRequest</title>
<!-- Node1 -->
<g id="Node000001" class="node">
<title>Node1</title>
<g id="a_Node000001"><a xlink:title="Validates the provided order request against business rules.">
<polygon fill="#999999" stroke="#666666" points="174.25,-98 0,-98 0,-66 174.25,-66 174.25,-98"/>
<text text-anchor="start" x="8" y="-84.5" font-family="Helvetica,sans-Serif" font-size="10.00">AinslieAPI.Controllers.GSS.</text>
<text text-anchor="middle" x="87.12" y="-72.5" font-family="Helvetica,sans-Serif" font-size="10.00">TdcrController.ValidateOrderRequest</text>
</a>
</g>
</g>
<!-- Node2 -->
<g id="Node000002" class="node">
<title>Node2</title>
<g id="a_Node000002"><a xlink:href="class_ainslie_a_p_i_1_1_services_1_1_log_service.html#a83bbf569dea7ea5a40e02fca200aad8c" target="_top" xlink:title=" ">
<polygon fill="white" stroke="#666666" points="775.75,-123 621.75,-123 621.75,-91 775.75,-91 775.75,-123"/>
<text text-anchor="start" x="629.75" y="-109.5" font-family="Helvetica,sans-Serif" font-size="10.00">AinslieAPI.Services.LogService.</text>
<text text-anchor="middle" x="698.75" y="-97.5" font-family="Helvetica,sans-Serif" font-size="10.00">LogException</text>
</a>
</g>
</g>
<!-- Node1&#45;&gt;Node2 -->
<g id="edge1_Node000001_Node000002" class="edge">
<title>Node1&#45;&gt;Node2</title>
<g id="a_edge1_Node000001_Node000002"><a xlink:title=" ">
<path fill="none" stroke="#63b8ff" d="M120.85,-98.39C144.91,-109.49 178.76,-123.15 210.25,-129 348.26,-154.64 511.84,-137.87 610.07,-122.85"/>
<polygon fill="#63b8ff" stroke="#63b8ff" points="610.59,-126.32 619.93,-121.32 609.51,-119.4 610.59,-126.32"/>
</a>
</g>
</g>
<!-- Node5 -->
<g id="Node000005" class="node">
<title>Node5</title>
<g id="a_Node000005"><a xlink:href="class_ainslie_a_p_i_1_1_controllers_1_1_g_s_s_1_1_tdcr_controller.html#a5425d57dc6e7f08c36785f3ca41d30ab" target="_top" xlink:title="Determines whether the price specified in an order request falls outside the acceptable threshold as ...">
<polygon fill="white" stroke="#666666" points="387.5,-120 210.25,-120 210.25,-88 387.5,-88 387.5,-120"/>
<text text-anchor="start" x="218.25" y="-106.5" font-family="Helvetica,sans-Serif" font-size="10.00">AinslieAPI.Controllers.GSS.</text>
<text text-anchor="middle" x="298.88" y="-94.5" font-family="Helvetica,sans-Serif" font-size="10.00">TdcrController.PriceOutsideThreshold</text>
</a>
</g>
</g>
<!-- Node1&#45;&gt;Node5 -->
<g id="edge4_Node000001_Node000005" class="edge">
<title>Node1&#45;&gt;Node5</title>
<g id="a_edge4_Node000001_Node000005"><a xlink:title=" ">
<path fill="none" stroke="#63b8ff" d="M174.65,-91.08C182.55,-91.9 190.59,-92.75 198.59,-93.59"/>
<polygon fill="#63b8ff" stroke="#63b8ff" points="198.04,-97.05 208.35,-94.61 198.77,-90.09 198.04,-97.05"/>
</a>
</g>
</g>
<!-- Node7 -->
<g id="Node000007" class="node">
<title>Node7</title>
<g id="a_Node000007"><a xlink:href="class_ainslie_a_p_i_1_1_controllers_1_1_g_s_s_1_1_tdcr_controller.html#a464a5d3df062bef894118260d86989f3" target="_top" xlink:title="Checks if an order with the specified TDCR ID exists in the database.">
<polygon fill="white" stroke="#666666" points="579.38,-51 429.88,-51 429.88,-19 579.38,-19 579.38,-51"/>
<text text-anchor="start" x="437.88" y="-37.5" font-family="Helvetica,sans-Serif" font-size="10.00">AinslieAPI.Controllers.GSS.</text>
<text text-anchor="middle" x="504.62" y="-25.5" font-family="Helvetica,sans-Serif" font-size="10.00">TdcrController.TdcrOrderExists</text>
</a>
</g>
</g>
<!-- Node1&#45;&gt;Node7 -->
<g id="edge8_Node000001_Node000007" class="edge">
<title>Node1&#45;&gt;Node7</title>
<g id="a_edge8_Node000001_Node000007"><a xlink:title=" ">
<path fill="none" stroke="#63b8ff" d="M174.72,-72.2C246.29,-64.11 347.33,-52.68 418.49,-44.63"/>
<polygon fill="#63b8ff" stroke="#63b8ff" points="418.6,-48.14 428.14,-43.54 417.81,-41.18 418.6,-48.14"/>
</a>
</g>
</g>
<!-- Node8 -->
<g id="Node000008" class="node">
<title>Node8</title>
<g id="a_Node000008"><a xlink:href="class_ainslie_a_p_i_1_1_helpers_1_1_shared_tools.html#a5d26beaa558c5d4b15370f0308f447bf" target="_top" xlink:title="Converts a Unix timestamp to a local DateTime.">
<polygon fill="white" stroke="#666666" points="386.75,-32 211,-32 211,0 386.75,0 386.75,-32"/>
<text text-anchor="start" x="219" y="-18.5" font-family="Helvetica,sans-Serif" font-size="10.00">AinslieAPI.Helpers.Shared</text>
<text text-anchor="middle" x="298.88" y="-6.5" font-family="Helvetica,sans-Serif" font-size="10.00">Tools.UnixTimeSecondsToLocalTime</text>
</a>
</g>
</g>
<!-- Node1&#45;&gt;Node8 -->
<g id="edge10_Node000001_Node000008" class="edge">
<title>Node1&#45;&gt;Node8</title>
<g id="a_edge10_Node000001_Node000008"><a xlink:title=" ">
<path fill="none" stroke="#63b8ff" d="M140.51,-65.52C169.15,-56.5 204.82,-45.28 234.96,-35.8"/>
<polygon fill="#63b8ff" stroke="#63b8ff" points="235.86,-39.18 244.35,-32.84 233.76,-32.51 235.86,-39.18"/>
</a>
</g>
</g>
<!-- Node3 -->
<g id="Node000003" class="node">
<title>Node3</title>
<g id="a_Node000003"><a xlink:href="class_ainslie_a_p_i_1_1_services_1_1_log_service.html#a3c2dce5ed306365dfa416f700e5360cf" target="_top" xlink:title="inserts log to database">
<polygon fill="white" stroke="#666666" points="965.75,-123 811.75,-123 811.75,-91 965.75,-91 965.75,-123"/>
<text text-anchor="start" x="819.75" y="-109.5" font-family="Helvetica,sans-Serif" font-size="10.00">AinslieAPI.Services.LogService.</text>
<text text-anchor="middle" x="888.75" y="-97.5" font-family="Helvetica,sans-Serif" font-size="10.00">InsertLog</text>
</a>
</g>
</g>
<!-- Node2&#45;&gt;Node3 -->
<g id="edge2_Node000002_Node000003" class="edge">
<title>Node2&#45;&gt;Node3</title>
<g id="a_edge2_Node000002_Node000003"><a xlink:title=" ">
<path fill="none" stroke="#63b8ff" d="M776.22,-107C784,-107 791.96,-107 799.85,-107"/>
<polygon fill="#63b8ff" stroke="#63b8ff" points="799.84,-110.5 809.84,-107 799.84,-103.5 799.84,-110.5"/>
</a>
</g>
</g>
<!-- Node4 -->
<g id="Node000004" class="node">
<title>Node4</title>
<g id="a_Node000004"><a xlink:href="class_ainslie_a_p_i_1_1_services_1_1_log_service.html#a6342d4add22dfffd5dadb5a7b3f112bc" target="_top" xlink:title="writes a text file log to [App home directory]/log">
<polygon fill="white" stroke="#666666" points="1155.75,-123 1001.75,-123 1001.75,-91 1155.75,-91 1155.75,-123"/>
<text text-anchor="start" x="1009.75" y="-109.5" font-family="Helvetica,sans-Serif" font-size="10.00">AinslieAPI.Services.LogService.</text>
<text text-anchor="middle" x="1078.75" y="-97.5" font-family="Helvetica,sans-Serif" font-size="10.00">WriteLog</text>
</a>
</g>
</g>
<!-- Node3&#45;&gt;Node4 -->
<g id="edge3_Node000003_Node000004" class="edge">
<title>Node3&#45;&gt;Node4</title>
<g id="a_edge3_Node000003_Node000004"><a xlink:title=" ">
<path fill="none" stroke="#63b8ff" d="M966.22,-107C974,-107 981.96,-107 989.85,-107"/>
<polygon fill="#63b8ff" stroke="#63b8ff" points="989.84,-110.5 999.84,-107 989.84,-103.5 989.84,-110.5"/>
</a>
</g>
</g>
<!-- Node5&#45;&gt;Node2 -->
<g id="edge5_Node000005_Node000002" class="edge">
<title>Node5&#45;&gt;Node2</title>
<g id="a_edge5_Node000005_Node000002"><a xlink:title=" ">
<path fill="none" stroke="#63b8ff" d="M387.99,-108.8C399.92,-109.3 412.01,-109.72 423.5,-110 495.59,-111.75 513.65,-110.97 585.75,-110 593.71,-109.89 601.98,-109.74 610.27,-109.57"/>
<polygon fill="#63b8ff" stroke="#63b8ff" points="610.11,-113.07 620.03,-109.35 609.95,-106.08 610.11,-113.07"/>
</a>
</g>
</g>
<!-- Node6 -->
<g id="Node000006" class="node">
<title>Node6</title>
<g id="a_Node000006"><a xlink:href="class_ainslie_a_p_i_1_1_controllers_1_1_g_s_s_1_1_tdcr_controller.html#a2afd83d8bf3e0f4695d32ea1f255f4a5" target="_top" xlink:title="Fetches the current live price in AUD for a given asset based on the order request&#39;s market and side.">
<polygon fill="white" stroke="#666666" points="585.75,-101 423.5,-101 423.5,-69 585.75,-69 585.75,-101"/>
<text text-anchor="start" x="431.5" y="-87.5" font-family="Helvetica,sans-Serif" font-size="10.00">AinslieAPI.Controllers.GSS.</text>
<text text-anchor="middle" x="504.62" y="-75.5" font-family="Helvetica,sans-Serif" font-size="10.00">TdcrController.OrderLivePriceAUD</text>
</a>
</g>
</g>
<!-- Node5&#45;&gt;Node6 -->
<g id="edge6_Node000005_Node000006" class="edge">
<title>Node5&#45;&gt;Node6</title>
<g id="a_edge6_Node000005_Node000006"><a xlink:title=" ">
<path fill="none" stroke="#63b8ff" d="M387.76,-95.8C395.74,-95.06 403.84,-94.31 411.85,-93.56"/>
<polygon fill="#63b8ff" stroke="#63b8ff" points="411.96,-97.06 421.59,-92.65 411.31,-90.09 411.96,-97.06"/>
</a>
</g>
</g>
<!-- Node6&#45;&gt;Node2 -->
<g id="edge7_Node000006_Node000002" class="edge">
<title>Node6&#45;&gt;Node2</title>
<g id="a_edge7_Node000006_Node000002"><a xlink:title=" ">
<path fill="none" stroke="#63b8ff" d="M585.99,-94.2C593.96,-95.11 602.07,-96.04 610.11,-96.96"/>
<polygon fill="#63b8ff" stroke="#63b8ff" points="609.56,-100.42 619.89,-98.08 610.35,-93.47 609.56,-100.42"/>
</a>
</g>
</g>
<!-- Node7&#45;&gt;Node2 -->
<g id="edge9_Node000007_Node000002" class="edge">
<title>Node7&#45;&gt;Node2</title>
<g id="a_edge9_Node000007_Node000002"><a xlink:title=" ">
<path fill="none" stroke="#63b8ff" d="M560.6,-51.39C569.06,-54.14 577.67,-57.05 585.75,-60 607.33,-67.87 630.82,-77.56 650.69,-86.08"/>
<polygon fill="#63b8ff" stroke="#63b8ff" points="649.06,-89.19 659.63,-89.95 651.84,-82.77 649.06,-89.19"/>
</a>
</g>
</g>
</g>
</svg>
