<?xml version="1.0" encoding="UTF-8" standalone="no"?>
<!DOCTYPE svg PUBLIC "-//W3C//DTD SVG 1.1//EN"
 "http://www.w3.org/Graphics/SVG/1.1/DTD/svg11.dtd">
<!-- Generated by graphviz version 9.0.0 (20230911.1827)
 -->
<!-- Title: Flatted\stringify Pages: 1 -->
<svg width="434pt" height="85pt"
 viewBox="0.00 0.00 433.50 85.00" xmlns="http://www.w3.org/2000/svg" xmlns:xlink="http://www.w3.org/1999/xlink">

<svg id="main" version="1.1" xmlns="http://www.w3.org/2000/svg" xmlns:xlink="http://www.w3.org/1999/xlink" xml:space="preserve" onload="init(evt)">
<style type="text/css"><![CDATA[
.node, .edge {opacity: 0.7;}
.node.selected, .edge.selected {opacity: 1;}
.edge:hover path { stroke: red; }
.edge:hover polygon { stroke: red; fill: red; }
]]></style>
<script type="application/ecmascript" xlink:href="svg.min.js"/>
<svg id="graph" class="graph">
<g id="graph0" class="graph" transform="scale(1 1) rotate(0) translate(4 81)">
<title>Flatted\stringify</title>
<!-- Node1 -->
<g id="Node000001" class="node">
<title>Node1</title>
<g id="a_Node000001"><a xlink:title=" ">
<polygon fill="#999999" stroke="#666666" points="82.75,-77 0,-77 0,-57 82.75,-57 82.75,-77"/>
<text text-anchor="middle" x="41.38" y="-63.5" font-family="Helvetica,sans-Serif" font-size="10.00">Flatted\stringify</text>
</a>
</g>
</g>
<!-- Node2 -->
<g id="Node000002" class="node">
<title>Node2</title>
<g id="a_Node000002"><a xlink:href="class_flatted.html#a788b21b4b5be51310dc2f38fa0cd1d1b" target="_top" xlink:title=" ">
<polygon fill="white" stroke="#666666" points="425.5,-58 353.25,-58 353.25,-38 425.5,-38 425.5,-58"/>
<text text-anchor="middle" x="389.38" y="-44.5" font-family="Helvetica,sans-Serif" font-size="10.00">Flatted\index</text>
</a>
</g>
</g>
<!-- Node1&#45;&gt;Node2 -->
<g id="edge1_Node000001_Node000002" class="edge">
<title>Node1&#45;&gt;Node2</title>
<g id="a_edge1_Node000001_Node000002"><a xlink:title=" ">
<path fill="none" stroke="#63b8ff" d="M83.11,-70.3C136.96,-73.9 234.68,-77.84 317.25,-67 326.53,-65.78 336.32,-63.71 345.57,-61.36"/>
<polygon fill="#63b8ff" stroke="#63b8ff" points="346.31,-64.79 355.05,-58.81 344.49,-58.03 346.31,-64.79"/>
</a>
</g>
</g>
<!-- Node3 -->
<g id="Node000003" class="node">
<title>Node3</title>
<g id="a_Node000003"><a xlink:href="class_flatted.html#ae60904e02c57006e7edbe60ad994c75d" target="_top" xlink:title=" ">
<polygon fill="white" stroke="#666666" points="208.25,-58 118.75,-58 118.75,-38 208.25,-38 208.25,-58"/>
<text text-anchor="middle" x="163.5" y="-44.5" font-family="Helvetica,sans-Serif" font-size="10.00">Flatted\transform</text>
</a>
</g>
</g>
<!-- Node1&#45;&gt;Node3 -->
<g id="edge2_Node000001_Node000003" class="edge">
<title>Node1&#45;&gt;Node3</title>
<g id="a_edge2_Node000001_Node000003"><a xlink:title=" ">
<path fill="none" stroke="#63b8ff" d="M83.04,-60.57C90.82,-59.34 99.07,-58.03 107.21,-56.74"/>
<polygon fill="#63b8ff" stroke="#63b8ff" points="107.75,-60.2 117.08,-55.18 106.66,-53.29 107.75,-60.2"/>
</a>
</g>
</g>
<!-- Node4 -->
<g id="Node000004" class="node">
<title>Node4</title>
<g id="a_Node000004"><a xlink:href="class_flatted.html#a66ec2202ad9de929cc4802996fd2e3ea" target="_top" xlink:title=" ">
<polygon fill="white" stroke="#666666" points="315.75,-58 245.75,-58 245.75,-38 315.75,-38 315.75,-58"/>
<text text-anchor="middle" x="280.75" y="-44.5" font-family="Helvetica,sans-Serif" font-size="10.00">Flatted\keys</text>
</a>
</g>
</g>
<!-- Node3&#45;&gt;Node4 -->
<g id="edge3_Node000003_Node000004" class="edge">
<title>Node3&#45;&gt;Node4</title>
<g id="a_edge3_Node000003_Node000004"><a xlink:title=" ">
<path fill="none" stroke="#63b8ff" d="M208.73,-48C217.01,-48 225.69,-48 234.02,-48"/>
<polygon fill="#63b8ff" stroke="#63b8ff" points="233.97,-51.5 243.97,-48 233.97,-44.5 233.97,-51.5"/>
</a>
</g>
</g>
<!-- Node5 -->
<g id="Node000005" class="node">
<title>Node5</title>
<g id="a_Node000005"><a xlink:href="class_flatted.html#a008f2a38bb722e4ce7ff2d13dab9cac8" target="_top" xlink:title=" ">
<polygon fill="white" stroke="#666666" points="317.25,-20 244.25,-20 244.25,0 317.25,0 317.25,-20"/>
<text text-anchor="middle" x="280.75" y="-6.5" font-family="Helvetica,sans-Serif" font-size="10.00">Flatted\relate</text>
</a>
</g>
</g>
<!-- Node3&#45;&gt;Node5 -->
<g id="edge4_Node000003_Node000005" class="edge">
<title>Node3&#45;&gt;Node5</title>
<g id="a_edge4_Node000003_Node000005"><a xlink:title=" ">
<path fill="none" stroke="#63b8ff" d="M196.3,-37.52C209.02,-33.32 223.86,-28.43 237.47,-23.94"/>
<polygon fill="#63b8ff" stroke="#63b8ff" points="238.22,-27.38 246.62,-20.92 236.03,-20.73 238.22,-27.38"/>
</a>
</g>
</g>
<!-- Node5&#45;&gt;Node2 -->
<g id="edge5_Node000005_Node000002" class="edge">
<title>Node5&#45;&gt;Node2</title>
<g id="a_edge5_Node000005_Node000002"><a xlink:title=" ">
<path fill="none" stroke="#63b8ff" d="M311.17,-20.48C322.71,-24.6 336.13,-29.38 348.51,-33.79"/>
<polygon fill="#63b8ff" stroke="#63b8ff" points="347.03,-36.98 357.63,-37.04 349.38,-30.39 347.03,-36.98"/>
</a>
</g>
</g>
</g>
</svg>
</svg>

<style type='text/css'>
<![CDATA[
[data-mouse-over-selected='false'] { opacity: 0.7; }
[data-mouse-over-selected='true']  { opacity: 1.0; }
]]>
</style>
<script type="application/ecmascript"><![CDATA[
document.addEventListener('DOMContentLoaded', (event) => {
  highlightEdges();
  highlightAdjacentNodes();
});
]]></script>
</svg>
