<?xml version="1.0" encoding="UTF-8" standalone="no"?>
<!DOCTYPE svg PUBLIC "-//W3C//DTD SVG 1.1//EN"
 "http://www.w3.org/Graphics/SVG/1.1/DTD/svg11.dtd">
<!-- Generated by graphviz version 9.0.0 (20230911.1827)
 -->
<!-- Title: AinslieAPI.Services.InternalApiService.GetProductPricing Pages: 1 -->
<svg width="722pt" height="90pt"
 viewBox="0.00 0.00 722.25 90.00" xmlns="http://www.w3.org/2000/svg" xmlns:xlink="http://www.w3.org/1999/xlink">
<g id="graph0" class="graph" transform="scale(1 1) rotate(0) translate(4 86)">
<title>AinslieAPI.Services.InternalApiService.GetProductPricing</title>
<!-- Node1 -->
<g id="Node000001" class="node">
<title>Node1</title>
<g id="a_Node000001"><a xlink:title="Fetches the current product pricing from the internal API and deserialises the response into a list o...">
<polygon fill="#999999" stroke="#666666" points="144.25,-57 0,-57 0,-25 144.25,-25 144.25,-57"/>
<text text-anchor="start" x="8" y="-43.5" font-family="Helvetica,sans-Serif" font-size="10.00">AinslieAPI.Services.Internal</text>
<text text-anchor="middle" x="72.12" y="-31.5" font-family="Helvetica,sans-Serif" font-size="10.00">ApiService.GetProductPricing</text>
</a>
</g>
</g>
<!-- Node2 -->
<g id="Node000002" class="node">
<title>Node2</title>
<g id="a_Node000002"><a xlink:href="class_ainslie_a_p_i_1_1_services_1_1_log_service.html#a9bf79a218e0884ac9cabd3ac87b81321" target="_top" xlink:title=" ">
<polygon fill="white" stroke="#666666" points="334.25,-82 180.25,-82 180.25,-50 334.25,-50 334.25,-82"/>
<text text-anchor="start" x="188.25" y="-68.5" font-family="Helvetica,sans-Serif" font-size="10.00">AinslieAPI.Services.LogService.</text>
<text text-anchor="middle" x="257.25" y="-56.5" font-family="Helvetica,sans-Serif" font-size="10.00">LogError</text>
</a>
</g>
</g>
<!-- Node1&#45;&gt;Node2 -->
<g id="edge1_Node000001_Node000002" class="edge">
<title>Node1&#45;&gt;Node2</title>
<g id="a_edge1_Node000001_Node000002"><a xlink:title=" ">
<path fill="none" stroke="#63b8ff" d="M144.71,-50.77C152.55,-51.84 160.6,-52.94 168.61,-54.04"/>
<polygon fill="#63b8ff" stroke="#63b8ff" points="167.99,-57.48 178.37,-55.37 168.94,-50.55 167.99,-57.48"/>
</a>
</g>
</g>
<!-- Node5 -->
<g id="Node000005" class="node">
<title>Node5</title>
<g id="a_Node000005"><a xlink:href="class_ainslie_a_p_i_1_1_services_1_1_log_service.html#a83bbf569dea7ea5a40e02fca200aad8c" target="_top" xlink:title=" ">
<polygon fill="white" stroke="#666666" points="334.25,-32 180.25,-32 180.25,0 334.25,0 334.25,-32"/>
<text text-anchor="start" x="188.25" y="-18.5" font-family="Helvetica,sans-Serif" font-size="10.00">AinslieAPI.Services.LogService.</text>
<text text-anchor="middle" x="257.25" y="-6.5" font-family="Helvetica,sans-Serif" font-size="10.00">LogException</text>
</a>
</g>
</g>
<!-- Node1&#45;&gt;Node5 -->
<g id="edge4_Node000001_Node000005" class="edge">
<title>Node1&#45;&gt;Node5</title>
<g id="a_edge4_Node000001_Node000005"><a xlink:title=" ">
<path fill="none" stroke="#63b8ff" d="M144.71,-31.23C152.55,-30.16 160.6,-29.06 168.61,-27.96"/>
<polygon fill="#63b8ff" stroke="#63b8ff" points="168.94,-31.45 178.37,-26.63 167.99,-24.52 168.94,-31.45"/>
</a>
</g>
</g>
<!-- Node3 -->
<g id="Node000003" class="node">
<title>Node3</title>
<g id="a_Node000003"><a xlink:href="class_ainslie_a_p_i_1_1_services_1_1_log_service.html#a3c2dce5ed306365dfa416f700e5360cf" target="_top" xlink:title="inserts log to database">
<polygon fill="white" stroke="#666666" points="524.25,-57 370.25,-57 370.25,-25 524.25,-25 524.25,-57"/>
<text text-anchor="start" x="378.25" y="-43.5" font-family="Helvetica,sans-Serif" font-size="10.00">AinslieAPI.Services.LogService.</text>
<text text-anchor="middle" x="447.25" y="-31.5" font-family="Helvetica,sans-Serif" font-size="10.00">InsertLog</text>
</a>
</g>
</g>
<!-- Node2&#45;&gt;Node3 -->
<g id="edge2_Node000002_Node000003" class="edge">
<title>Node2&#45;&gt;Node3</title>
<g id="a_edge2_Node000002_Node000003"><a xlink:title=" ">
<path fill="none" stroke="#63b8ff" d="M334.72,-55.83C342.59,-54.78 350.64,-53.71 358.63,-52.65"/>
<polygon fill="#63b8ff" stroke="#63b8ff" points="358.9,-56.15 368.35,-51.36 357.98,-49.21 358.9,-56.15"/>
</a>
</g>
</g>
<!-- Node4 -->
<g id="Node000004" class="node">
<title>Node4</title>
<g id="a_Node000004"><a xlink:href="class_ainslie_a_p_i_1_1_services_1_1_log_service.html#a6342d4add22dfffd5dadb5a7b3f112bc" target="_top" xlink:title="writes a text file log to [App home directory]/log">
<polygon fill="white" stroke="#666666" points="714.25,-57 560.25,-57 560.25,-25 714.25,-25 714.25,-57"/>
<text text-anchor="start" x="568.25" y="-43.5" font-family="Helvetica,sans-Serif" font-size="10.00">AinslieAPI.Services.LogService.</text>
<text text-anchor="middle" x="637.25" y="-31.5" font-family="Helvetica,sans-Serif" font-size="10.00">WriteLog</text>
</a>
</g>
</g>
<!-- Node3&#45;&gt;Node4 -->
<g id="edge3_Node000003_Node000004" class="edge">
<title>Node3&#45;&gt;Node4</title>
<g id="a_edge3_Node000003_Node000004"><a xlink:title=" ">
<path fill="none" stroke="#63b8ff" d="M524.72,-41C532.5,-41 540.46,-41 548.35,-41"/>
<polygon fill="#63b8ff" stroke="#63b8ff" points="548.34,-44.5 558.34,-41 548.34,-37.5 548.34,-44.5"/>
</a>
</g>
</g>
<!-- Node5&#45;&gt;Node3 -->
<g id="edge5_Node000005_Node000003" class="edge">
<title>Node5&#45;&gt;Node3</title>
<g id="a_edge5_Node000005_Node000003"><a xlink:title=" ">
<path fill="none" stroke="#63b8ff" d="M334.72,-26.17C342.59,-27.22 350.64,-28.29 358.63,-29.35"/>
<polygon fill="#63b8ff" stroke="#63b8ff" points="357.98,-32.79 368.35,-30.64 358.9,-25.85 357.98,-32.79"/>
</a>
</g>
</g>
</g>
</svg>
