<?xml version="1.0" encoding="UTF-8" standalone="no"?>
<!DOCTYPE svg PUBLIC "-//W3C//DTD SVG 1.1//EN"
 "http://www.w3.org/Graphics/SVG/1.1/DTD/svg11.dtd">
<!-- Generated by graphviz version 9.0.0 (20230911.1827)
 -->
<!-- Title: AinslieAPI.Services.LogService.LogInformation Pages: 1 -->
<!--zoomable 428 -->

<svg id="main" version="1.1" xmlns="http://www.w3.org/2000/svg" xmlns:xlink="http://www.w3.org/1999/xlink" xml:space="preserve" onload="init(evt)">
<style type="text/css"><![CDATA[
.node, .edge {opacity: 0.7;}
.node.selected, .edge.selected {opacity: 1;}
.edge:hover path { stroke: red; }
.edge:hover polygon { stroke: red; fill: red; }
]]></style>

<defs>
  <circle id="rim" cx="0" cy="0" r="7"/>
  <circle id="rim2" cx="0" cy="0" r="3.5"/>
  <g id="zoomPlus">
    <use xlink:href="#rim" fill="#404040"><set attributeName="fill" to="#808080" begin="zoomplus.mouseover" end="zoomplus.mouseout"/></use>
    <path d="M-4,0h8M0,-4v8" fill="none" stroke="white" stroke-width="1.5" pointer-events="none"/>
  </g>
  <g id="zoomMin">
    <use xlink:href="#rim" fill="#404040"><set attributeName="fill" to="#808080" begin="zoomminus.mouseover" end="zoomminus.mouseout"/></use>
    <path d="M-4,0h8" fill="none" stroke="white" stroke-width="1.5" pointer-events="none"/>
  </g>
  <g id="arrowUp" transform="translate(30 24)">
    <use xlink:href="#rim"/>
    <path pointer-events="none" fill="none" stroke="white" stroke-width="1.5" d="M0,-3.0v7 M-2.5,-0.5L0,-3.0L2.5,-0.5"/>
  </g>
  <g id="arrowRight" transform="rotate(90) translate(36 -43)">
    <use xlink:href="#rim"/>
    <path pointer-events="none" fill="none" stroke="white" stroke-width="1.5" d="M0,-3.0v7 M-2.5,-0.5L0,-3.0L2.5,-0.5"/>
  </g>
  <g id="arrowDown" transform="rotate(180) translate(-30 -48)">
    <use xlink:href="#rim"/>
    <path pointer-events="none" fill="none" stroke="white" stroke-width="1.5" d="M0,-3.0v7 M-2.5,-0.5L0,-3.0L2.5,-0.5"/>
  </g>
  <g id="arrowLeft" transform="rotate(270) translate(-36 17)">
    <use xlink:href="#rim"/>
    <path pointer-events="none" fill="none" stroke="white" stroke-width="1.5" d="M0,-3.0v7 M-2.5,-0.5L0,-3.0L2.5,-0.5"/>
  </g>
  <g id="resetDef">
    <use xlink:href="#rim2" fill="#404040"><set attributeName="fill" to="#808080" begin="reset.mouseover" end="reset.mouseout"/></use>
  </g>
</defs>
<script type="application/ecmascript">
var viewWidth = 714;
var viewHeight = 428;
var sectionId = 'dynsection-10';
</script>
<script type="application/ecmascript" xlink:href="svg.min.js"/>
<svg id="graph" class="graph">
<g id="viewport">
<title>AinslieAPI.Services.LogService.LogInformation</title>
<!-- Node1 -->
<g id="Node000001" class="node">
<title>Node1</title>
<g id="a_Node000001"><a xlink:title=" ">
<polygon fill="#999999" stroke="#666666" points="706,-232 552,-232 552,-200 706,-200 706,-232"/>
<text text-anchor="start" x="560" y="-218.5" font-family="Helvetica,sans-Serif" font-size="10.00">AinslieAPI.Services.LogService.</text>
<text text-anchor="middle" x="629" y="-206.5" font-family="Helvetica,sans-Serif" font-size="10.00">LogInformation</text>
</a>
</g>
</g>
<!-- Node2 -->
<g id="Node000002" class="node">
<title>Node2</title>
<g id="a_Node000002"><a xlink:href="_program_8cs.html#a5f7387dcdc9224fb2465abfedb39f33e" target="_top" xlink:title=" ">
<polygon fill="white" stroke="#666666" points="506.62,-420 348.12,-420 348.12,-400 506.62,-400 506.62,-420"/>
<text text-anchor="middle" x="427.38" y="-406.5" font-family="Helvetica,sans-Serif" font-size="10.00">AddAuth0WebAppAuthentication</text>
</a>
</g>
</g>
<!-- Node1&#45;&gt;Node2 -->
<g id="edge1_Node000001_Node000002" class="edge">
<title>Node1&#45;&gt;Node2</title>
<g id="a_edge1_Node000001_Node000002"><a xlink:title=" ">
<path fill="none" stroke="#63b8ff" d="M618.51,-242.88C603.27,-281.95 569.51,-353.8 516,-391 511.02,-394.47 505.52,-397.32 499.77,-399.66"/>
<polygon fill="#63b8ff" stroke="#63b8ff" points="621.7,-244.34 621.95,-233.75 615.15,-241.87 621.7,-244.34"/>
</a>
</g>
</g>
<!-- Node3 -->
<g id="Node000003" class="node">
<title>Node3</title>
<g id="a_Node000003"><a xlink:href="class_ainslie_a_p_i_1_1_controllers_1_1_green_id_controller.html#a131760ed19379a330a44f72879f026e2" target="_top" xlink:title="Initiates a new customer verification process, accommodating both GET and POST requests.">
<polygon fill="white" stroke="#666666" points="497.25,-382 357.5,-382 357.5,-350 497.25,-350 497.25,-382"/>
<text text-anchor="start" x="365.5" y="-368.5" font-family="Helvetica,sans-Serif" font-size="10.00">AinslieAPI.Controllers.Green</text>
<text text-anchor="middle" x="427.38" y="-356.5" font-family="Helvetica,sans-Serif" font-size="10.00">IdController.NewVerification</text>
</a>
</g>
</g>
<!-- Node1&#45;&gt;Node3 -->
<g id="edge2_Node000001_Node000003" class="edge">
<title>Node1&#45;&gt;Node3</title>
<g id="a_edge2_Node000001_Node000003"><a xlink:title=" ">
<path fill="none" stroke="#63b8ff" d="M611.54,-241.78C592.09,-270.2 557.1,-315.29 516,-341 510.23,-344.61 503.93,-347.71 497.44,-350.37"/>
<polygon fill="#63b8ff" stroke="#63b8ff" points="614.27,-244 616.92,-233.74 608.45,-240.1 614.27,-244"/>
</a>
</g>
</g>
<!-- Node4 -->
<g id="Node000004" class="node">
<title>Node4</title>
<g id="a_Node000004"><a xlink:href="class_ainslie_a_p_i_1_1_controllers_1_1_g_s_s_1_1_tdcr_controller.html#a9eba319227d13605723ee5253d17b014" target="_top" xlink:title="Processes incoming order requests, validating and saving them to the database.">
<polygon fill="white" stroke="#666666" points="496.12,-332 358.62,-332 358.62,-300 496.12,-300 496.12,-332"/>
<text text-anchor="start" x="366.62" y="-318.5" font-family="Helvetica,sans-Serif" font-size="10.00">AinslieAPI.Controllers.GSS.</text>
<text text-anchor="middle" x="427.38" y="-306.5" font-family="Helvetica,sans-Serif" font-size="10.00">TdcrController.Orders</text>
</a>
</g>
</g>
<!-- Node1&#45;&gt;Node4 -->
<g id="edge3_Node000001_Node000004" class="edge">
<title>Node1&#45;&gt;Node4</title>
<g id="a_edge3_Node000001_Node000004"><a xlink:title=" ">
<path fill="none" stroke="#63b8ff" d="M598.68,-239.37C576.92,-255.75 545.96,-277.11 516,-291 509.11,-294.19 501.72,-297.07 494.27,-299.63"/>
<polygon fill="#63b8ff" stroke="#63b8ff" points="600.68,-242.24 606.5,-233.38 596.43,-236.68 600.68,-242.24"/>
</a>
</g>
</g>
<!-- Node5 -->
<g id="Node000005" class="node">
<title>Node5</title>
<g id="a_Node000005"><a xlink:href="class_ainslie_a_p_i_1_1_controllers_1_1_assets_controller.html#a0c9bb1df19027458fd189101528c48c9" target="_top" xlink:title="Fetches current asset prices.">
<polygon fill="white" stroke="#666666" points="499.5,-282 355.25,-282 355.25,-250 499.5,-250 499.5,-282"/>
<text text-anchor="start" x="363.25" y="-268.5" font-family="Helvetica,sans-Serif" font-size="10.00">AinslieAPI.Controllers.Assets</text>
<text text-anchor="middle" x="427.38" y="-256.5" font-family="Helvetica,sans-Serif" font-size="10.00">Controller.PriceList</text>
</a>
</g>
</g>
<!-- Node1&#45;&gt;Node5 -->
<g id="edge4_Node000001_Node000005" class="edge">
<title>Node1&#45;&gt;Node5</title>
<g id="a_edge4_Node000001_Node000005"><a xlink:title=" ">
<path fill="none" stroke="#63b8ff" d="M551.38,-235.19C532.48,-239.93 512.39,-244.96 494.06,-249.55"/>
<polygon fill="#63b8ff" stroke="#63b8ff" points="552.04,-238.63 560.89,-232.81 550.34,-231.84 552.04,-238.63"/>
</a>
</g>
</g>
<!-- Node6 -->
<g id="Node000006" class="node">
<title>Node6</title>
<g id="a_Node000006"><a xlink:href="class_ainslie_a_p_i_1_1_controllers_1_1_products_controller.html#ac20bed843f55f212dfb5ffe45d411f8f" target="_top" xlink:title="Retrieves a list of current product prices.">
<polygon fill="white" stroke="#666666" points="503.62,-232 351.12,-232 351.12,-200 503.62,-200 503.62,-232"/>
<text text-anchor="start" x="359.12" y="-218.5" font-family="Helvetica,sans-Serif" font-size="10.00">AinslieAPI.Controllers.Products</text>
<text text-anchor="middle" x="427.38" y="-206.5" font-family="Helvetica,sans-Serif" font-size="10.00">Controller.PriceList</text>
</a>
</g>
</g>
<!-- Node1&#45;&gt;Node6 -->
<g id="edge5_Node000001_Node000006" class="edge">
<title>Node1&#45;&gt;Node6</title>
<g id="a_edge5_Node000001_Node000006"><a xlink:title=" ">
<path fill="none" stroke="#63b8ff" d="M540.2,-216C528.13,-216 515.82,-216 504,-216"/>
<polygon fill="#63b8ff" stroke="#63b8ff" points="540.16,-219.5 550.16,-216 540.16,-212.5 540.16,-219.5"/>
</a>
</g>
</g>
<!-- Node7 -->
<g id="Node000007" class="node">
<title>Node7</title>
<g id="a_Node000007"><a xlink:href="class_ainslie_a_p_i_1_1_helpers_1_1_cache_data_helper.html#a603725b5f3104a2056b255d5ba62b145" target="_top" xlink:title="Refreshes the GSS pricing cache for a specific user, ensuring the data is current.">
<polygon fill="white" stroke="#666666" points="502.88,-182 351.88,-182 351.88,-150 502.88,-150 502.88,-182"/>
<text text-anchor="start" x="359.88" y="-168.5" font-family="Helvetica,sans-Serif" font-size="10.00">AinslieAPI.Helpers.Cache</text>
<text text-anchor="middle" x="427.38" y="-156.5" font-family="Helvetica,sans-Serif" font-size="10.00">DataHelper.RefreshGSSPricing</text>
</a>
</g>
</g>
<!-- Node1&#45;&gt;Node7 -->
<g id="edge6_Node000001_Node000007" class="edge">
<title>Node1&#45;&gt;Node7</title>
<g id="a_edge6_Node000001_Node000007"><a xlink:title=" ">
<path fill="none" stroke="#63b8ff" d="M551.38,-196.81C532.48,-192.07 512.39,-187.04 494.06,-182.45"/>
<polygon fill="#63b8ff" stroke="#63b8ff" points="550.34,-200.16 560.89,-199.19 552.04,-193.37 550.34,-200.16"/>
</a>
</g>
</g>
<!-- Node10 -->
<g id="Node000010" class="node">
<title>Node10</title>
<g id="a_Node000010"><a xlink:href="class_ainslie_a_p_i_1_1_helpers_1_1_cache_data_helper.html#a4528db84b99bf010dff2409e3339ba91" target="_top" xlink:title="Refreshes the cache of asset prices by fetching new data if the current cache is expired or not prese...">
<polygon fill="white" stroke="#666666" points="511.88,-132 342.88,-132 342.88,-100 511.88,-100 511.88,-132"/>
<text text-anchor="start" x="350.88" y="-118.5" font-family="Helvetica,sans-Serif" font-size="10.00">AinslieAPI.Helpers.Cache</text>
<text text-anchor="middle" x="427.38" y="-106.5" font-family="Helvetica,sans-Serif" font-size="10.00">DataHelper.RefreshPriceappAssets</text>
</a>
</g>
</g>
<!-- Node1&#45;&gt;Node10 -->
<g id="edge9_Node000001_Node000010" class="edge">
<title>Node1&#45;&gt;Node10</title>
<g id="a_edge9_Node000001_Node000010"><a xlink:title=" ">
<path fill="none" stroke="#63b8ff" d="M598.68,-192.63C576.92,-176.25 545.96,-154.89 516,-141 509.11,-137.81 501.72,-134.93 494.27,-132.37"/>
<polygon fill="#63b8ff" stroke="#63b8ff" points="596.43,-195.32 606.5,-198.62 600.68,-189.76 596.43,-195.32"/>
</a>
</g>
</g>
<!-- Node11 -->
<g id="Node000011" class="node">
<title>Node11</title>
<g id="a_Node000011"><a xlink:href="class_ainslie_a_p_i_1_1_helpers_1_1_cache_data_helper.html#a467891c45e271be3b54049e3a66ae7cc" target="_top" xlink:title="Refreshes the product price list cache if necessary, ensuring up&#45;to&#45;date data availability.">
<polygon fill="white" stroke="#666666" points="516,-82 338.75,-82 338.75,-50 516,-50 516,-82"/>
<text text-anchor="start" x="346.75" y="-68.5" font-family="Helvetica,sans-Serif" font-size="10.00">AinslieAPI.Helpers.Cache</text>
<text text-anchor="middle" x="427.38" y="-56.5" font-family="Helvetica,sans-Serif" font-size="10.00">DataHelper.RefreshPriceappProducts</text>
</a>
</g>
</g>
<!-- Node1&#45;&gt;Node11 -->
<g id="edge10_Node000001_Node000011" class="edge">
<title>Node1&#45;&gt;Node11</title>
<g id="a_edge10_Node000001_Node000011"><a xlink:title=" ">
<path fill="none" stroke="#63b8ff" d="M611.54,-190.22C592.09,-161.8 557.1,-116.71 516,-91 510.77,-87.73 505.1,-84.87 499.24,-82.38"/>
<polygon fill="#63b8ff" stroke="#63b8ff" points="608.45,-191.9 616.92,-198.26 614.27,-188 608.45,-191.9"/>
</a>
</g>
</g>
<!-- Node12 -->
<g id="Node000012" class="node">
<title>Node12</title>
<g id="a_Node000012"><a xlink:href="class_ainslie_a_p_i_1_1_controllers_1_1_logs_controller.html#aea8072dbf59418b035df6b786ecae9c0" target="_top" xlink:title="Trims logs based on predefined criteria to manage database size.">
<polygon fill="white" stroke="#666666" points="494.62,-32 360.12,-32 360.12,0 494.62,0 494.62,-32"/>
<text text-anchor="start" x="368.12" y="-18.5" font-family="Helvetica,sans-Serif" font-size="10.00">AinslieAPI.Controllers.Logs</text>
<text text-anchor="middle" x="427.38" y="-6.5" font-family="Helvetica,sans-Serif" font-size="10.00">Controller.TrimLogs</text>
</a>
</g>
</g>
<!-- Node1&#45;&gt;Node12 -->
<g id="edge11_Node000001_Node000012" class="edge">
<title>Node1&#45;&gt;Node12</title>
<g id="a_edge11_Node000001_Node000012"><a xlink:title=" ">
<path fill="none" stroke="#63b8ff" d="M618.08,-189.27C602.38,-150.7 568.15,-79.81 516,-41 509.65,-36.28 502.44,-32.45 494.95,-29.34"/>
<polygon fill="#63b8ff" stroke="#63b8ff" points="614.7,-190.26 621.63,-198.28 621.22,-187.69 614.7,-190.26"/>
</a>
</g>
</g>
<!-- Node8 -->
<g id="Node000008" class="node">
<title>Node8</title>
<g id="a_Node000008"><a xlink:href="class_ainslie_a_p_i_1_1_helpers_1_1_cache_data_helper.html#a533a0f6563d2e92e52c819c22c5009a6" target="_top" xlink:title="Retrieves GSS pricing data for a specific user from cache or refreshes if necessary.">
<polygon fill="white" stroke="#666666" points="302.75,-182 175,-182 175,-150 302.75,-150 302.75,-182"/>
<text text-anchor="start" x="183" y="-168.5" font-family="Helvetica,sans-Serif" font-size="10.00">AinslieAPI.Helpers.Cache</text>
<text text-anchor="middle" x="238.88" y="-156.5" font-family="Helvetica,sans-Serif" font-size="10.00">DataHelper.GSSPricing</text>
</a>
</g>
</g>
<!-- Node7&#45;&gt;Node8 -->
<g id="edge7_Node000007_Node000008" class="edge">
<title>Node7&#45;&gt;Node8</title>
<g id="a_edge7_Node000007_Node000008"><a xlink:title=" ">
<path fill="none" stroke="#63b8ff" d="M340.16,-166C327.64,-166 314.94,-166 302.98,-166"/>
<polygon fill="#63b8ff" stroke="#63b8ff" points="340.08,-169.5 350.08,-166 340.08,-162.5 340.08,-169.5"/>
</a>
</g>
</g>
<!-- Node9 -->
<g id="Node000009" class="node">
<title>Node9</title>
<g id="a_Node000009"><a xlink:href="class_ainslie_a_p_i_1_1_controllers_1_1_g_s_s_1_1_tdcr_controller.html#a837b3bc6be2af122cb619aa347094ad7" target="_top" xlink:title="Sets up controller with dependencies for processing TDCR transactions.">
<polygon fill="white" stroke="#666666" points="139,-182 0,-182 0,-150 139,-150 139,-182"/>
<text text-anchor="start" x="8" y="-168.5" font-family="Helvetica,sans-Serif" font-size="10.00">AinslieAPI.Controllers.GSS.</text>
<text text-anchor="middle" x="69.5" y="-156.5" font-family="Helvetica,sans-Serif" font-size="10.00">TdcrController.TdcrController</text>
</a>
</g>
</g>
<!-- Node8&#45;&gt;Node9 -->
<g id="edge8_Node000008_Node000009" class="edge">
<title>Node8&#45;&gt;Node9</title>
<g id="a_edge8_Node000008_Node000009"><a xlink:title=" ">
<path fill="none" stroke="#63b8ff" d="M163.15,-166C155.27,-166 147.28,-166 139.46,-166"/>
<polygon fill="#63b8ff" stroke="#63b8ff" points="163.08,-169.5 173.08,-166 163.08,-162.5 163.08,-169.5"/>
</a>
</g>
</g>
</g>
</svg>

<g id="navigator" transform="translate(0 0)" fill="#404254">
  <rect fill="#f2f5e9" fill-opacity="0.5" stroke="#606060" stroke-width=".5" x="0" y="0" width="60" height="60"/>
  <use id="zoomplus" xlink:href="#zoomPlus" x="17" y="9" onmousedown="handleZoom(evt,'in')"/>
  <use id="zoomminus" xlink:href="#zoomMin" x="42" y="9" onmousedown="handleZoom(evt,'out')"/>
  <use id="reset" xlink:href="#resetDef" x="30" y="36" onmousedown="handleReset()"/>
   <use id="arrowup" xlink:href="#arrowUp" x="0" y="0" onmousedown="handlePan(0,-1)"/>
  <use id="arrowright" xlink:href="#arrowRight" x="0" y="0" onmousedown="handlePan(1,0)"/>
  <use id="arrowdown" xlink:href="#arrowDown" x="0" y="0" onmousedown="handlePan(0,1)"/>
  <use id="arrowleft" xlink:href="#arrowLeft" x="0" y="0" onmousedown="handlePan(-1,0)"/>
</g>
<svg viewBox="0 0 15 15" width="100%" height="30px" preserveAspectRatio="xMaxYMin meet">
 <g id="arrow_out" transform="scale(0.3 0.3)">
  <a xlink:href="class_ainslie_a_p_i_1_1_services_1_1_log_service_a917b9af360c0c6521ce36f4acbc72023_icgraph_org.svg" target="_base">
   <rect id="button" ry="5" rx="5" y="6" x="6" height="38" width="38"
        fill="#f2f5e9" fill-opacity="0.5" stroke="#606060" stroke-width="1.0"/>
   <path id="arrow"
     d="M 11.500037,31.436501 C 11.940474,20.09759 22.043105,11.32322 32.158766,21.979434 L 37.068811,17.246167 C 37.068811,17.246167 37.088388,32 37.088388,32 L 22.160133,31.978069 C 22.160133,31.978069 26.997745,27.140456 26.997745,27.140456 C 18.528582,18.264221 13.291696,25.230495 11.500037,31.436501 z"
     style="fill:#404040;"/>
  </a>
 </g>
</svg>

<style type='text/css'>
<![CDATA[
[data-mouse-over-selected='false'] { opacity: 0.7; }
[data-mouse-over-selected='true']  { opacity: 1.0; }
]]>
</style>
<script type="application/ecmascript"><![CDATA[
document.addEventListener('DOMContentLoaded', (event) => {
  highlightEdges();
  highlightAdjacentNodes();
});
]]></script>
</svg>
