<?xml version="1.0" encoding="UTF-8" standalone="no"?>
<!DOCTYPE svg PUBLIC "-//W3C//DTD SVG 1.1//EN"
 "http://www.w3.org/Graphics/SVG/1.1/DTD/svg11.dtd">
<!-- Generated by graphviz version 9.0.0 (20230911.1827)
 -->
<!-- Title: C:/Users/STRIDER/source/repos/AinslieAPI/wwwroot/lib/jquery&#45;ui/node_modules/bower/packages Pages: 1 -->
<!--zoomable 96 -->

<svg id="main" version="1.1" xmlns="http://www.w3.org/2000/svg" xmlns:xlink="http://www.w3.org/1999/xlink" xml:space="preserve" onload="init(evt)">
<style type="text/css"><![CDATA[
.node, .edge {opacity: 0.7;}
.node.selected, .edge.selected {opacity: 1;}
.edge:hover path { stroke: red; }
.edge:hover polygon { stroke: red; fill: red; }
]]></style>

<defs>
  <circle id="rim" cx="0" cy="0" r="7"/>
  <circle id="rim2" cx="0" cy="0" r="3.5"/>
  <g id="zoomPlus">
    <use xlink:href="#rim" fill="#404040"><set attributeName="fill" to="#808080" begin="zoomplus.mouseover" end="zoomplus.mouseout"/></use>
    <path d="M-4,0h8M0,-4v8" fill="none" stroke="white" stroke-width="1.5" pointer-events="none"/>
  </g>
  <g id="zoomMin">
    <use xlink:href="#rim" fill="#404040"><set attributeName="fill" to="#808080" begin="zoomminus.mouseover" end="zoomminus.mouseout"/></use>
    <path d="M-4,0h8" fill="none" stroke="white" stroke-width="1.5" pointer-events="none"/>
  </g>
  <g id="arrowUp" transform="translate(30 24)">
    <use xlink:href="#rim"/>
    <path pointer-events="none" fill="none" stroke="white" stroke-width="1.5" d="M0,-3.0v7 M-2.5,-0.5L0,-3.0L2.5,-0.5"/>
  </g>
  <g id="arrowRight" transform="rotate(90) translate(36 -43)">
    <use xlink:href="#rim"/>
    <path pointer-events="none" fill="none" stroke="white" stroke-width="1.5" d="M0,-3.0v7 M-2.5,-0.5L0,-3.0L2.5,-0.5"/>
  </g>
  <g id="arrowDown" transform="rotate(180) translate(-30 -48)">
    <use xlink:href="#rim"/>
    <path pointer-events="none" fill="none" stroke="white" stroke-width="1.5" d="M0,-3.0v7 M-2.5,-0.5L0,-3.0L2.5,-0.5"/>
  </g>
  <g id="arrowLeft" transform="rotate(270) translate(-36 17)">
    <use xlink:href="#rim"/>
    <path pointer-events="none" fill="none" stroke="white" stroke-width="1.5" d="M0,-3.0v7 M-2.5,-0.5L0,-3.0L2.5,-0.5"/>
  </g>
  <g id="resetDef">
    <use xlink:href="#rim2" fill="#404040"><set attributeName="fill" to="#808080" begin="reset.mouseover" end="reset.mouseout"/></use>
  </g>
</defs>
<script type="application/ecmascript">
var viewWidth = 623;
var viewHeight = 96;
var sectionId = 'dynsection-0';
</script>
<script type="application/ecmascript" xlink:href="svg.min.js"/>
<svg id="graph" class="graph">
<g id="viewport">
<title>C:/Users/STRIDER/source/repos/AinslieAPI/wwwroot/lib/jquery&#45;ui/node_modules/bower/packages</title>
<g id="clust1" class="cluster">
<title>clusterdir_a530c7dfe85202a8fe9c8c6f23a830b6</title>
<g id="a_clust1"><a xlink:href="dir_a530c7dfe85202a8fe9c8c6f23a830b6.html" target="_top" xlink:title="bower">
<polygon fill="#edf0f7" stroke="#7f7f7f" stroke-dasharray="5,2" points="8,-8 8,-80 607,-80 607,-8 8,-8"/>
<text text-anchor="middle" x="307.5" y="-66.5" font-family="Helvetica,sans-Serif" font-size="10.00">bower</text>
</a>
</g>
</g>
<g id="clust2" class="cluster">
<title>clusterdir_31070c6106a4909c2b13a4d39d308928</title>
<g id="a_clust2"><a xlink:href="dir_31070c6106a4909c2b13a4d39d308928.html" target="_top">
<polygon fill="#edf0f7" stroke="#404040" stroke-width="2" points="16,-16 16,-52 599,-52 599,-16 16,-16"/>
</a>
</g>
</g>
<!-- dir_31070c6106a4909c2b13a4d39d308928 -->
<g id="node1" class="node">
<title>dir_31070c6106a4909c2b13a4d39d308928</title>
<text text-anchor="middle" x="562" y="-30.5" font-family="Helvetica,sans-Serif" font-size="10.00">packages</text>
</g>
<!-- dir_e38c36582868d4c32501c6458859e7b7 -->
<g id="node2" class="node">
<title>dir_e38c36582868d4c32501c6458859e7b7</title>
<g id="a_node2"><a xlink:href="dir_e38c36582868d4c32501c6458859e7b7.html" target="_top" xlink:title="bower&#45;config">
<polygon fill="#a2b4d6" stroke="#404040" points="515,-44 445,-44 445,-24 515,-24 515,-44"/>
<text text-anchor="middle" x="480" y="-30.5" font-family="Helvetica,sans-Serif" font-size="10.00">bower&#45;config</text>
</a>
</g>
</g>
<!-- dir_a33b5b14e7dbf2933c209dadeb119e44 -->
<g id="node3" class="node">
<title>dir_a33b5b14e7dbf2933c209dadeb119e44</title>
<g id="a_node3"><a xlink:href="dir_a33b5b14e7dbf2933c209dadeb119e44.html" target="_top" xlink:title="bower&#45;endpoint&#45;parser">
<polygon fill="#a2b4d6" stroke="#404040" points="426.62,-44 315.38,-44 315.38,-24 426.62,-24 426.62,-44"/>
<text text-anchor="middle" x="371" y="-30.5" font-family="Helvetica,sans-Serif" font-size="10.00">bower&#45;endpoint&#45;parser</text>
</a>
</g>
</g>
<!-- dir_d56e31796a93c3f270f3f736aedd453d -->
<g id="node4" class="node">
<title>dir_d56e31796a93c3f270f3f736aedd453d</title>
<g id="a_node4"><a xlink:href="dir_d56e31796a93c3f270f3f736aedd453d.html" target="_top" xlink:title="bower&#45;json">
<polygon fill="#a2b4d6" stroke="#404040" points="297.25,-44 234.75,-44 234.75,-24 297.25,-24 297.25,-44"/>
<text text-anchor="middle" x="266" y="-30.5" font-family="Helvetica,sans-Serif" font-size="10.00">bower&#45;json</text>
</a>
</g>
</g>
<!-- dir_f2cc6be8a8482e83e854345d90872a6a -->
<g id="node5" class="node">
<title>dir_f2cc6be8a8482e83e854345d90872a6a</title>
<g id="a_node5"><a xlink:href="dir_f2cc6be8a8482e83e854345d90872a6a.html" target="_top" xlink:title="bower&#45;logger">
<polygon fill="#a2b4d6" stroke="#404040" points="216.38,-44 145.62,-44 145.62,-24 216.38,-24 216.38,-44"/>
<text text-anchor="middle" x="181" y="-30.5" font-family="Helvetica,sans-Serif" font-size="10.00">bower&#45;logger</text>
</a>
</g>
</g>
<!-- dir_9fb7a77f17598f296f336f81cc319556 -->
<g id="node6" class="node">
<title>dir_9fb7a77f17598f296f336f81cc319556</title>
<g id="a_node6"><a xlink:href="dir_9fb7a77f17598f296f336f81cc319556.html" target="_top" xlink:title="bower&#45;registry&#45;client">
<polygon fill="#a2b4d6" stroke="#404040" points="127.5,-44 24.5,-44 24.5,-24 127.5,-24 127.5,-44"/>
<text text-anchor="middle" x="76" y="-30.5" font-family="Helvetica,sans-Serif" font-size="10.00">bower&#45;registry&#45;client</text>
</a>
</g>
</g>
</g>
</svg>

<g id="navigator" transform="translate(0 0)" fill="#404254">
  <rect fill="#f2f5e9" fill-opacity="0.5" stroke="#606060" stroke-width=".5" x="0" y="0" width="60" height="60"/>
  <use id="zoomplus" xlink:href="#zoomPlus" x="17" y="9" onmousedown="handleZoom(evt,'in')"/>
  <use id="zoomminus" xlink:href="#zoomMin" x="42" y="9" onmousedown="handleZoom(evt,'out')"/>
  <use id="reset" xlink:href="#resetDef" x="30" y="36" onmousedown="handleReset()"/>
   <use id="arrowup" xlink:href="#arrowUp" x="0" y="0" onmousedown="handlePan(0,-1)"/>
  <use id="arrowright" xlink:href="#arrowRight" x="0" y="0" onmousedown="handlePan(1,0)"/>
  <use id="arrowdown" xlink:href="#arrowDown" x="0" y="0" onmousedown="handlePan(0,1)"/>
  <use id="arrowleft" xlink:href="#arrowLeft" x="0" y="0" onmousedown="handlePan(-1,0)"/>
</g>
<svg viewBox="0 0 15 15" width="100%" height="30px" preserveAspectRatio="xMaxYMin meet">
 <g id="arrow_out" transform="scale(0.3 0.3)">
  <a xlink:href="dir_31070c6106a4909c2b13a4d39d308928_dep_org.svg" target="_base">
   <rect id="button" ry="5" rx="5" y="6" x="6" height="38" width="38"
        fill="#f2f5e9" fill-opacity="0.5" stroke="#606060" stroke-width="1.0"/>
   <path id="arrow"
     d="M 11.500037,31.436501 C 11.940474,20.09759 22.043105,11.32322 32.158766,21.979434 L 37.068811,17.246167 C 37.068811,17.246167 37.088388,32 37.088388,32 L 22.160133,31.978069 C 22.160133,31.978069 26.997745,27.140456 26.997745,27.140456 C 18.528582,18.264221 13.291696,25.230495 11.500037,31.436501 z"
     style="fill:#404040;"/>
  </a>
 </g>
</svg>

<style type='text/css'>
<![CDATA[
[data-mouse-over-selected='false'] { opacity: 0.7; }
[data-mouse-over-selected='true']  { opacity: 1.0; }
]]>
</style>
<script type="application/ecmascript"><![CDATA[
document.addEventListener('DOMContentLoaded', (event) => {
  highlightEdges();
  highlightAdjacentNodes();
});
]]></script>
</svg>
