<?xml version="1.0" encoding="UTF-8" standalone="no"?>
<!DOCTYPE svg PUBLIC "-//W3C//DTD SVG 1.1//EN"
 "http://www.w3.org/Graphics/SVG/1.1/DTD/svg11.dtd">
<!-- Generated by graphviz version 9.0.0 (20230911.1827)
 -->
<!-- Title: C:/Users/STRIDER/source/repos/AinslieAPI Pages: 1 -->
<!--zoomable 96 -->

<svg id="main" version="1.1" xmlns="http://www.w3.org/2000/svg" xmlns:xlink="http://www.w3.org/1999/xlink" xml:space="preserve" onload="init(evt)">
<style type="text/css"><![CDATA[
.node, .edge {opacity: 0.7;}
.node.selected, .edge.selected {opacity: 1;}
.edge:hover path { stroke: red; }
.edge:hover polygon { stroke: red; fill: red; }
]]></style>

<defs>
  <circle id="rim" cx="0" cy="0" r="7"/>
  <circle id="rim2" cx="0" cy="0" r="3.5"/>
  <g id="zoomPlus">
    <use xlink:href="#rim" fill="#404040"><set attributeName="fill" to="#808080" begin="zoomplus.mouseover" end="zoomplus.mouseout"/></use>
    <path d="M-4,0h8M0,-4v8" fill="none" stroke="white" stroke-width="1.5" pointer-events="none"/>
  </g>
  <g id="zoomMin">
    <use xlink:href="#rim" fill="#404040"><set attributeName="fill" to="#808080" begin="zoomminus.mouseover" end="zoomminus.mouseout"/></use>
    <path d="M-4,0h8" fill="none" stroke="white" stroke-width="1.5" pointer-events="none"/>
  </g>
  <g id="arrowUp" transform="translate(30 24)">
    <use xlink:href="#rim"/>
    <path pointer-events="none" fill="none" stroke="white" stroke-width="1.5" d="M0,-3.0v7 M-2.5,-0.5L0,-3.0L2.5,-0.5"/>
  </g>
  <g id="arrowRight" transform="rotate(90) translate(36 -43)">
    <use xlink:href="#rim"/>
    <path pointer-events="none" fill="none" stroke="white" stroke-width="1.5" d="M0,-3.0v7 M-2.5,-0.5L0,-3.0L2.5,-0.5"/>
  </g>
  <g id="arrowDown" transform="rotate(180) translate(-30 -48)">
    <use xlink:href="#rim"/>
    <path pointer-events="none" fill="none" stroke="white" stroke-width="1.5" d="M0,-3.0v7 M-2.5,-0.5L0,-3.0L2.5,-0.5"/>
  </g>
  <g id="arrowLeft" transform="rotate(270) translate(-36 17)">
    <use xlink:href="#rim"/>
    <path pointer-events="none" fill="none" stroke="white" stroke-width="1.5" d="M0,-3.0v7 M-2.5,-0.5L0,-3.0L2.5,-0.5"/>
  </g>
  <g id="resetDef">
    <use xlink:href="#rim2" fill="#404040"><set attributeName="fill" to="#808080" begin="reset.mouseover" end="reset.mouseout"/></use>
  </g>
</defs>
<script type="application/ecmascript">
var viewWidth = 730;
var viewHeight = 96;
var sectionId = 'dynsection-0';
</script>
<script type="application/ecmascript" xlink:href="svg.min.js"/>
<svg id="graph" class="graph">
<g id="viewport">
<title>C:/Users/STRIDER/source/repos/AinslieAPI</title>
<g id="clust1" class="cluster">
<title>clusterdir_da92606663f4ecb03aa66c183f15dac3</title>
<g id="a_clust1"><a xlink:href="dir_da92606663f4ecb03aa66c183f15dac3.html" target="_top" xlink:title="repos">
<polygon fill="#edf0f7" stroke="#7f7f7f" stroke-dasharray="5,2" points="8,-8 8,-80 714,-80 714,-8 8,-8"/>
<text text-anchor="middle" x="361" y="-66.5" font-family="Helvetica,sans-Serif" font-size="10.00">repos</text>
</a>
</g>
</g>
<g id="clust2" class="cluster">
<title>clusterdir_e5b579712323dc20d096970fc4c8cb37</title>
<g id="a_clust2"><a xlink:href="dir_e5b579712323dc20d096970fc4c8cb37.html" target="_top">
<polygon fill="#edf0f7" stroke="#404040" stroke-width="2" points="16,-16 16,-52 706,-52 706,-16 16,-16"/>
</a>
</g>
</g>
<!-- dir_e5b579712323dc20d096970fc4c8cb37 -->
<g id="node1" class="node">
<title>dir_e5b579712323dc20d096970fc4c8cb37</title>
<text text-anchor="middle" x="667" y="-30.5" font-family="Helvetica,sans-Serif" font-size="10.00">AinslieAPI</text>
</g>
<!-- dir_d5a35239ed8a3f3846a2ec99012cf862 -->
<g id="node2" class="node">
<title>dir_d5a35239ed8a3f3846a2ec99012cf862</title>
<g id="a_node2"><a xlink:href="dir_d5a35239ed8a3f3846a2ec99012cf862.html" target="_top" xlink:title="Authentication">
<polygon fill="#a2b4d6" stroke="#404040" points="618.12,-44 539.88,-44 539.88,-24 618.12,-24 618.12,-44"/>
<text text-anchor="middle" x="579" y="-30.5" font-family="Helvetica,sans-Serif" font-size="10.00">Authentication</text>
</a>
</g>
</g>
<!-- dir_6c29d4979ca85afa1ee7842e55a75c18 -->
<g id="node3" class="node">
<title>dir_6c29d4979ca85afa1ee7842e55a75c18</title>
<g id="a_node3"><a xlink:href="dir_6c29d4979ca85afa1ee7842e55a75c18.html" target="_top" xlink:title="Controllers">
<polygon fill="#a2b4d6" stroke="#404040" points="522.25,-44 459.75,-44 459.75,-24 522.25,-24 522.25,-44"/>
<text text-anchor="middle" x="491" y="-30.5" font-family="Helvetica,sans-Serif" font-size="10.00">Controllers</text>
</a>
</g>
</g>
<!-- dir_03b0d9eef2fefac2665994ddcf9364d9 -->
<g id="node4" class="node">
<title>dir_03b0d9eef2fefac2665994ddcf9364d9</title>
<g id="a_node4"><a xlink:href="dir_03b0d9eef2fefac2665994ddcf9364d9.html" target="_top" xlink:title="Data">
<polygon fill="#a2b4d6" stroke="#404040" points="442.12,-44 405.88,-44 405.88,-24 442.12,-24 442.12,-44"/>
<text text-anchor="middle" x="424" y="-30.5" font-family="Helvetica,sans-Serif" font-size="10.00">Data</text>
</a>
</g>
</g>
<!-- dir_929461752afe174339a8fe51130d3cfc -->
<g id="node5" class="node">
<title>dir_929461752afe174339a8fe51130d3cfc</title>
<g id="a_node5"><a xlink:href="dir_929461752afe174339a8fe51130d3cfc.html" target="_top" xlink:title="DTO">
<polygon fill="#a2b4d6" stroke="#404040" points="387.75,-44 352.25,-44 352.25,-24 387.75,-24 387.75,-44"/>
<text text-anchor="middle" x="370" y="-30.5" font-family="Helvetica,sans-Serif" font-size="10.00">DTO</text>
</a>
</g>
</g>
<!-- dir_6af6a44c4abf3fcc456a7c954d0dc3f6 -->
<g id="node6" class="node">
<title>dir_6af6a44c4abf3fcc456a7c954d0dc3f6</title>
<g id="a_node6"><a xlink:href="dir_6af6a44c4abf3fcc456a7c954d0dc3f6.html" target="_top" xlink:title="Helpers">
<polygon fill="#a2b4d6" stroke="#404040" points="334.5,-44 285.5,-44 285.5,-24 334.5,-24 334.5,-44"/>
<text text-anchor="middle" x="310" y="-30.5" font-family="Helvetica,sans-Serif" font-size="10.00">Helpers</text>
</a>
</g>
</g>
<!-- dir_1e643c15465255908e1dd6b43b832768 -->
<g id="node7" class="node">
<title>dir_1e643c15465255908e1dd6b43b832768</title>
<g id="a_node7"><a xlink:href="dir_1e643c15465255908e1dd6b43b832768.html" target="_top" xlink:title="Migrations">
<polygon fill="#a2b4d6" stroke="#404040" points="267.5,-44 206.5,-44 206.5,-24 267.5,-24 267.5,-44"/>
<text text-anchor="middle" x="237" y="-30.5" font-family="Helvetica,sans-Serif" font-size="10.00">Migrations</text>
</a>
</g>
</g>
<!-- dir_0616951610be99f512cb5b4cf3aace9b -->
<g id="node8" class="node">
<title>dir_0616951610be99f512cb5b4cf3aace9b</title>
<g id="a_node8"><a xlink:href="dir_0616951610be99f512cb5b4cf3aace9b.html" target="_top" xlink:title="Models">
<polygon fill="#a2b4d6" stroke="#404040" points="188.75,-44 141.25,-44 141.25,-24 188.75,-24 188.75,-44"/>
<text text-anchor="middle" x="165" y="-30.5" font-family="Helvetica,sans-Serif" font-size="10.00">Models</text>
</a>
</g>
</g>
<!-- dir_1e991ae963838b31373615377490190f -->
<g id="node9" class="node">
<title>dir_1e991ae963838b31373615377490190f</title>
<g id="a_node9"><a xlink:href="dir_1e991ae963838b31373615377490190f.html" target="_top" xlink:title="obj">
<polygon fill="#a2b4d6" stroke="#404040" points="123.4,-44 94.6,-44 94.6,-24 123.4,-24 123.4,-44"/>
<text text-anchor="middle" x="109" y="-30.5" font-family="Helvetica,sans-Serif" font-size="10.00">obj</text>
</a>
</g>
</g>
<!-- dir_39832828939f87d2b79939de885e8daa -->
<g id="node10" class="node">
<title>dir_39832828939f87d2b79939de885e8daa</title>
<g id="a_node10"><a xlink:href="dir_39832828939f87d2b79939de885e8daa.html" target="_top" xlink:title="Services">
<polygon fill="#a2b4d6" stroke="#404040" points="76.38,-44 23.62,-44 23.62,-24 76.38,-24 76.38,-44"/>
<text text-anchor="middle" x="50" y="-30.5" font-family="Helvetica,sans-Serif" font-size="10.00">Services</text>
</a>
</g>
</g>
</g>
</svg>

<g id="navigator" transform="translate(0 0)" fill="#404254">
  <rect fill="#f2f5e9" fill-opacity="0.5" stroke="#606060" stroke-width=".5" x="0" y="0" width="60" height="60"/>
  <use id="zoomplus" xlink:href="#zoomPlus" x="17" y="9" onmousedown="handleZoom(evt,'in')"/>
  <use id="zoomminus" xlink:href="#zoomMin" x="42" y="9" onmousedown="handleZoom(evt,'out')"/>
  <use id="reset" xlink:href="#resetDef" x="30" y="36" onmousedown="handleReset()"/>
   <use id="arrowup" xlink:href="#arrowUp" x="0" y="0" onmousedown="handlePan(0,-1)"/>
  <use id="arrowright" xlink:href="#arrowRight" x="0" y="0" onmousedown="handlePan(1,0)"/>
  <use id="arrowdown" xlink:href="#arrowDown" x="0" y="0" onmousedown="handlePan(0,1)"/>
  <use id="arrowleft" xlink:href="#arrowLeft" x="0" y="0" onmousedown="handlePan(-1,0)"/>
</g>
<svg viewBox="0 0 15 15" width="100%" height="30px" preserveAspectRatio="xMaxYMin meet">
 <g id="arrow_out" transform="scale(0.3 0.3)">
  <a xlink:href="dir_e5b579712323dc20d096970fc4c8cb37_dep_org.svg" target="_base">
   <rect id="button" ry="5" rx="5" y="6" x="6" height="38" width="38"
        fill="#f2f5e9" fill-opacity="0.5" stroke="#606060" stroke-width="1.0"/>
   <path id="arrow"
     d="M 11.500037,31.436501 C 11.940474,20.09759 22.043105,11.32322 32.158766,21.979434 L 37.068811,17.246167 C 37.068811,17.246167 37.088388,32 37.088388,32 L 22.160133,31.978069 C 22.160133,31.978069 26.997745,27.140456 26.997745,27.140456 C 18.528582,18.264221 13.291696,25.230495 11.500037,31.436501 z"
     style="fill:#404040;"/>
  </a>
 </g>
</svg>

<style type='text/css'>
<![CDATA[
[data-mouse-over-selected='false'] { opacity: 0.7; }
[data-mouse-over-selected='true']  { opacity: 1.0; }
]]>
</style>
<script type="application/ecmascript"><![CDATA[
document.addEventListener('DOMContentLoaded', (event) => {
  highlightEdges();
  highlightAdjacentNodes();
});
]]></script>
</svg>
