<?xml version="1.0" encoding="UTF-8" standalone="no"?>
<!DOCTYPE svg PUBLIC "-//W3C//DTD SVG 1.1//EN"
 "http://www.w3.org/Graphics/SVG/1.1/DTD/svg11.dtd">
<!-- Generated by graphviz version 9.0.0 (20230911.1827)
 -->
<!-- Title: C:/Users/STRIDER/source/repos/AinslieAPI/wwwroot/lib/jquery&#45;ui/node_modules/bower/lib/node_modules/inquirer/node_modules Pages: 1 -->
<!--zoomable 96 -->

<svg id="main" version="1.1" xmlns="http://www.w3.org/2000/svg" xmlns:xlink="http://www.w3.org/1999/xlink" xml:space="preserve" onload="init(evt)">
<style type="text/css"><![CDATA[
.node, .edge {opacity: 0.7;}
.node.selected, .edge.selected {opacity: 1;}
.edge:hover path { stroke: red; }
.edge:hover polygon { stroke: red; fill: red; }
]]></style>

<defs>
  <circle id="rim" cx="0" cy="0" r="7"/>
  <circle id="rim2" cx="0" cy="0" r="3.5"/>
  <g id="zoomPlus">
    <use xlink:href="#rim" fill="#404040"><set attributeName="fill" to="#808080" begin="zoomplus.mouseover" end="zoomplus.mouseout"/></use>
    <path d="M-4,0h8M0,-4v8" fill="none" stroke="white" stroke-width="1.5" pointer-events="none"/>
  </g>
  <g id="zoomMin">
    <use xlink:href="#rim" fill="#404040"><set attributeName="fill" to="#808080" begin="zoomminus.mouseover" end="zoomminus.mouseout"/></use>
    <path d="M-4,0h8" fill="none" stroke="white" stroke-width="1.5" pointer-events="none"/>
  </g>
  <g id="arrowUp" transform="translate(30 24)">
    <use xlink:href="#rim"/>
    <path pointer-events="none" fill="none" stroke="white" stroke-width="1.5" d="M0,-3.0v7 M-2.5,-0.5L0,-3.0L2.5,-0.5"/>
  </g>
  <g id="arrowRight" transform="rotate(90) translate(36 -43)">
    <use xlink:href="#rim"/>
    <path pointer-events="none" fill="none" stroke="white" stroke-width="1.5" d="M0,-3.0v7 M-2.5,-0.5L0,-3.0L2.5,-0.5"/>
  </g>
  <g id="arrowDown" transform="rotate(180) translate(-30 -48)">
    <use xlink:href="#rim"/>
    <path pointer-events="none" fill="none" stroke="white" stroke-width="1.5" d="M0,-3.0v7 M-2.5,-0.5L0,-3.0L2.5,-0.5"/>
  </g>
  <g id="arrowLeft" transform="rotate(270) translate(-36 17)">
    <use xlink:href="#rim"/>
    <path pointer-events="none" fill="none" stroke="white" stroke-width="1.5" d="M0,-3.0v7 M-2.5,-0.5L0,-3.0L2.5,-0.5"/>
  </g>
  <g id="resetDef">
    <use xlink:href="#rim2" fill="#404040"><set attributeName="fill" to="#808080" begin="reset.mouseover" end="reset.mouseout"/></use>
  </g>
</defs>
<script type="application/ecmascript">
var viewWidth = 584;
var viewHeight = 96;
var sectionId = 'dynsection-0';
</script>
<script type="application/ecmascript" xlink:href="svg.min.js"/>
<svg id="graph" class="graph">
<g id="viewport">
<title>C:/Users/STRIDER/source/repos/AinslieAPI/wwwroot/lib/jquery&#45;ui/node_modules/bower/lib/node_modules/inquirer/node_modules</title>
<g id="clust1" class="cluster">
<title>clusterdir_ab554da38561612e0710796a37730650</title>
<g id="a_clust1"><a xlink:href="dir_ab554da38561612e0710796a37730650.html" target="_top" xlink:title="inquirer">
<polygon fill="#edf0f7" stroke="#7f7f7f" stroke-dasharray="5,2" points="8,-8 8,-80 568,-80 568,-8 8,-8"/>
<text text-anchor="middle" x="288" y="-66.5" font-family="Helvetica,sans-Serif" font-size="10.00">inquirer</text>
</a>
</g>
</g>
<g id="clust2" class="cluster">
<title>clusterdir_51a518b1ecc745045c5ce39f443355b6</title>
<g id="a_clust2"><a xlink:href="dir_51a518b1ecc745045c5ce39f443355b6.html" target="_top">
<polygon fill="#edf0f7" stroke="#404040" stroke-width="2" points="16,-16 16,-52 560,-52 560,-16 16,-16"/>
</a>
</g>
</g>
<!-- dir_51a518b1ecc745045c5ce39f443355b6 -->
<g id="node1" class="node">
<title>dir_51a518b1ecc745045c5ce39f443355b6</title>
<text text-anchor="middle" x="512" y="-30.5" font-family="Helvetica,sans-Serif" font-size="10.00">node_modules</text>
</g>
<!-- dir_4cf0534bc0d64a9ab53fbb3a1f79859b -->
<g id="node2" class="node">
<title>dir_4cf0534bc0d64a9ab53fbb3a1f79859b</title>
<g id="a_node2"><a xlink:href="dir_4cf0534bc0d64a9ab53fbb3a1f79859b.html" target="_top" xlink:title="ansi&#45;escapes">
<polygon fill="#a2b4d6" stroke="#404040" points="454.88,-44 381.12,-44 381.12,-24 454.88,-24 454.88,-44"/>
<text text-anchor="middle" x="418" y="-30.5" font-family="Helvetica,sans-Serif" font-size="10.00">ansi&#45;escapes</text>
</a>
</g>
</g>
<!-- dir_161827f733fb24f61d773f3ce28aa5e7 -->
<g id="node3" class="node">
<title>dir_161827f733fb24f61d773f3ce28aa5e7</title>
<g id="a_node3"><a xlink:href="dir_161827f733fb24f61d773f3ce28aa5e7.html" target="_top" xlink:title="cli&#45;cursor">
<polygon fill="#a2b4d6" stroke="#404040" points="362.88,-44 307.12,-44 307.12,-24 362.88,-24 362.88,-44"/>
<text text-anchor="middle" x="335" y="-30.5" font-family="Helvetica,sans-Serif" font-size="10.00">cli&#45;cursor</text>
</a>
</g>
</g>
<!-- dir_f794ff9bcbae318e3cfa115c59895db3 -->
<g id="node4" class="node">
<title>dir_f794ff9bcbae318e3cfa115c59895db3</title>
<g id="a_node4"><a xlink:href="dir_f794ff9bcbae318e3cfa115c59895db3.html" target="_top" xlink:title="lodash">
<polygon fill="#a2b4d6" stroke="#404040" points="289.25,-44 244.75,-44 244.75,-24 289.25,-24 289.25,-44"/>
<text text-anchor="middle" x="267" y="-30.5" font-family="Helvetica,sans-Serif" font-size="10.00">lodash</text>
</a>
</g>
</g>
<!-- dir_562046a12ea7d008188db39b0049a0fe -->
<g id="node5" class="node">
<title>dir_562046a12ea7d008188db39b0049a0fe</title>
<g id="a_node5"><a xlink:href="dir_562046a12ea7d008188db39b0049a0fe.html" target="_top" xlink:title="onetime">
<polygon fill="#a2b4d6" stroke="#404040" points="226.25,-44 175.75,-44 175.75,-24 226.25,-24 226.25,-44"/>
<text text-anchor="middle" x="201" y="-30.5" font-family="Helvetica,sans-Serif" font-size="10.00">onetime</text>
</a>
</g>
</g>
<!-- dir_0064223f689d3eb2997808b807802f50 -->
<g id="node6" class="node">
<title>dir_0064223f689d3eb2997808b807802f50</title>
<g id="a_node6"><a xlink:href="dir_0064223f689d3eb2997808b807802f50.html" target="_top" xlink:title="restore&#45;cursor">
<polygon fill="#a2b4d6" stroke="#404040" points="158,-44 82,-44 82,-24 158,-24 158,-44"/>
<text text-anchor="middle" x="120" y="-30.5" font-family="Helvetica,sans-Serif" font-size="10.00">restore&#45;cursor</text>
</a>
</g>
</g>
<!-- dir_89ef102ca706cee6a80065f4157cbccd -->
<g id="node7" class="node">
<title>dir_89ef102ca706cee6a80065f4157cbccd</title>
<g id="a_node7"><a xlink:href="dir_89ef102ca706cee6a80065f4157cbccd.html" target="_top" xlink:title="rx&#45;lite">
<polygon fill="#a2b4d6" stroke="#404040" points="64,-44 24,-44 24,-24 64,-24 64,-44"/>
<text text-anchor="middle" x="44" y="-30.5" font-family="Helvetica,sans-Serif" font-size="10.00">rx&#45;lite</text>
</a>
</g>
</g>
</g>
</svg>

<g id="navigator" transform="translate(0 0)" fill="#404254">
  <rect fill="#f2f5e9" fill-opacity="0.5" stroke="#606060" stroke-width=".5" x="0" y="0" width="60" height="60"/>
  <use id="zoomplus" xlink:href="#zoomPlus" x="17" y="9" onmousedown="handleZoom(evt,'in')"/>
  <use id="zoomminus" xlink:href="#zoomMin" x="42" y="9" onmousedown="handleZoom(evt,'out')"/>
  <use id="reset" xlink:href="#resetDef" x="30" y="36" onmousedown="handleReset()"/>
   <use id="arrowup" xlink:href="#arrowUp" x="0" y="0" onmousedown="handlePan(0,-1)"/>
  <use id="arrowright" xlink:href="#arrowRight" x="0" y="0" onmousedown="handlePan(1,0)"/>
  <use id="arrowdown" xlink:href="#arrowDown" x="0" y="0" onmousedown="handlePan(0,1)"/>
  <use id="arrowleft" xlink:href="#arrowLeft" x="0" y="0" onmousedown="handlePan(-1,0)"/>
</g>
<svg viewBox="0 0 15 15" width="100%" height="30px" preserveAspectRatio="xMaxYMin meet">
 <g id="arrow_out" transform="scale(0.3 0.3)">
  <a xlink:href="dir_51a518b1ecc745045c5ce39f443355b6_dep_org.svg" target="_base">
   <rect id="button" ry="5" rx="5" y="6" x="6" height="38" width="38"
        fill="#f2f5e9" fill-opacity="0.5" stroke="#606060" stroke-width="1.0"/>
   <path id="arrow"
     d="M 11.500037,31.436501 C 11.940474,20.09759 22.043105,11.32322 32.158766,21.979434 L 37.068811,17.246167 C 37.068811,17.246167 37.088388,32 37.088388,32 L 22.160133,31.978069 C 22.160133,31.978069 26.997745,27.140456 26.997745,27.140456 C 18.528582,18.264221 13.291696,25.230495 11.500037,31.436501 z"
     style="fill:#404040;"/>
  </a>
 </g>
</svg>

<style type='text/css'>
<![CDATA[
[data-mouse-over-selected='false'] { opacity: 0.7; }
[data-mouse-over-selected='true']  { opacity: 1.0; }
]]>
</style>
<script type="application/ecmascript"><![CDATA[
document.addEventListener('DOMContentLoaded', (event) => {
  highlightEdges();
  highlightAdjacentNodes();
});
]]></script>
</svg>
