<?xml version="1.0" encoding="UTF-8" standalone="no"?>
<!DOCTYPE svg PUBLIC "-//W3C//DTD SVG 1.1//EN"
 "http://www.w3.org/Graphics/SVG/1.1/DTD/svg11.dtd">
<!-- Generated by graphviz version 9.0.0 (20230911.1827)
 -->
<!-- Title: C:/Users/STRIDER/source/repos/AinslieAPI/wwwroot/lib/jquery&#45;ui/node_modules/grunt&#45;eslint/node_modules Pages: 1 -->
<!--zoomable 96 -->

<svg id="main" version="1.1" xmlns="http://www.w3.org/2000/svg" xmlns:xlink="http://www.w3.org/1999/xlink" xml:space="preserve" onload="init(evt)">
<style type="text/css"><![CDATA[
.node, .edge {opacity: 0.7;}
.node.selected, .edge.selected {opacity: 1;}
.edge:hover path { stroke: red; }
.edge:hover polygon { stroke: red; fill: red; }
]]></style>

<defs>
  <circle id="rim" cx="0" cy="0" r="7"/>
  <circle id="rim2" cx="0" cy="0" r="3.5"/>
  <g id="zoomPlus">
    <use xlink:href="#rim" fill="#404040"><set attributeName="fill" to="#808080" begin="zoomplus.mouseover" end="zoomplus.mouseout"/></use>
    <path d="M-4,0h8M0,-4v8" fill="none" stroke="white" stroke-width="1.5" pointer-events="none"/>
  </g>
  <g id="zoomMin">
    <use xlink:href="#rim" fill="#404040"><set attributeName="fill" to="#808080" begin="zoomminus.mouseover" end="zoomminus.mouseout"/></use>
    <path d="M-4,0h8" fill="none" stroke="white" stroke-width="1.5" pointer-events="none"/>
  </g>
  <g id="arrowUp" transform="translate(30 24)">
    <use xlink:href="#rim"/>
    <path pointer-events="none" fill="none" stroke="white" stroke-width="1.5" d="M0,-3.0v7 M-2.5,-0.5L0,-3.0L2.5,-0.5"/>
  </g>
  <g id="arrowRight" transform="rotate(90) translate(36 -43)">
    <use xlink:href="#rim"/>
    <path pointer-events="none" fill="none" stroke="white" stroke-width="1.5" d="M0,-3.0v7 M-2.5,-0.5L0,-3.0L2.5,-0.5"/>
  </g>
  <g id="arrowDown" transform="rotate(180) translate(-30 -48)">
    <use xlink:href="#rim"/>
    <path pointer-events="none" fill="none" stroke="white" stroke-width="1.5" d="M0,-3.0v7 M-2.5,-0.5L0,-3.0L2.5,-0.5"/>
  </g>
  <g id="arrowLeft" transform="rotate(270) translate(-36 17)">
    <use xlink:href="#rim"/>
    <path pointer-events="none" fill="none" stroke="white" stroke-width="1.5" d="M0,-3.0v7 M-2.5,-0.5L0,-3.0L2.5,-0.5"/>
  </g>
  <g id="resetDef">
    <use xlink:href="#rim2" fill="#404040"><set attributeName="fill" to="#808080" begin="reset.mouseover" end="reset.mouseout"/></use>
  </g>
</defs>
<script type="application/ecmascript">
var viewWidth = 608;
var viewHeight = 96;
var sectionId = 'dynsection-0';
</script>
<script type="application/ecmascript" xlink:href="svg.min.js"/>
<svg id="graph" class="graph">
<g id="viewport">
<title>C:/Users/STRIDER/source/repos/AinslieAPI/wwwroot/lib/jquery&#45;ui/node_modules/grunt&#45;eslint/node_modules</title>
<g id="clust1" class="cluster">
<title>clusterdir_6e64e5f5e1f1124c9c965e2b3d0d0da3</title>
<g id="a_clust1"><a xlink:href="dir_6e64e5f5e1f1124c9c965e2b3d0d0da3.html" target="_top" xlink:title="grunt&#45;eslint">
<polygon fill="#edf0f7" stroke="#7f7f7f" stroke-dasharray="5,2" points="8,-8 8,-80 592,-80 592,-8 8,-8"/>
<text text-anchor="middle" x="300" y="-66.5" font-family="Helvetica,sans-Serif" font-size="10.00">grunt&#45;eslint</text>
</a>
</g>
</g>
<g id="clust2" class="cluster">
<title>clusterdir_be84fa28178737e7143ded1cb54635e8</title>
<g id="a_clust2"><a xlink:href="dir_be84fa28178737e7143ded1cb54635e8.html" target="_top">
<polygon fill="#edf0f7" stroke="#404040" stroke-width="2" points="16,-16 16,-52 584,-52 584,-16 16,-16"/>
</a>
</g>
</g>
<!-- dir_be84fa28178737e7143ded1cb54635e8 -->
<g id="node1" class="node">
<title>dir_be84fa28178737e7143ded1cb54635e8</title>
<text text-anchor="middle" x="536" y="-30.5" font-family="Helvetica,sans-Serif" font-size="10.00">node_modules</text>
</g>
<!-- dir_e6b80cd3615ff3d8fc61704e1b555da0 -->
<g id="node2" class="node">
<title>dir_e6b80cd3615ff3d8fc61704e1b555da0</title>
<g id="a_node2"><a xlink:href="dir_e6b80cd3615ff3d8fc61704e1b555da0.html" target="_top" xlink:title="ansi&#45;styles">
<polygon fill="#a2b4d6" stroke="#404040" points="478.62,-44 415.38,-44 415.38,-24 478.62,-24 478.62,-44"/>
<text text-anchor="middle" x="447" y="-30.5" font-family="Helvetica,sans-Serif" font-size="10.00">ansi&#45;styles</text>
</a>
</g>
</g>
<!-- dir_4f509061ef2b9fb08b72c5222fa429f1 -->
<g id="node3" class="node">
<title>dir_4f509061ef2b9fb08b72c5222fa429f1</title>
<g id="a_node3"><a xlink:href="dir_4f509061ef2b9fb08b72c5222fa429f1.html" target="_top" xlink:title="chalk">
<polygon fill="#a2b4d6" stroke="#404040" points="397.62,-44 358.38,-44 358.38,-24 397.62,-24 397.62,-44"/>
<text text-anchor="middle" x="378" y="-30.5" font-family="Helvetica,sans-Serif" font-size="10.00">chalk</text>
</a>
</g>
</g>
<!-- dir_2e20af012ef9b9d8d9f9d67d594c30f5 -->
<g id="node4" class="node">
<title>dir_2e20af012ef9b9d8d9f9d67d594c30f5</title>
<g id="a_node4"><a xlink:href="dir_2e20af012ef9b9d8d9f9d67d594c30f5.html" target="_top" xlink:title="color&#45;convert">
<polygon fill="#a2b4d6" stroke="#404040" points="340.38,-44 269.62,-44 269.62,-24 340.38,-24 340.38,-44"/>
<text text-anchor="middle" x="305" y="-30.5" font-family="Helvetica,sans-Serif" font-size="10.00">color&#45;convert</text>
</a>
</g>
</g>
<!-- dir_e36372891f116eb456a6fa66771d14ca -->
<g id="node5" class="node">
<title>dir_e36372891f116eb456a6fa66771d14ca</title>
<g id="a_node5"><a xlink:href="dir_e36372891f116eb456a6fa66771d14ca.html" target="_top" xlink:title="color&#45;name">
<polygon fill="#a2b4d6" stroke="#404040" points="252,-44 188,-44 188,-24 252,-24 252,-44"/>
<text text-anchor="middle" x="220" y="-30.5" font-family="Helvetica,sans-Serif" font-size="10.00">color&#45;name</text>
</a>
</g>
</g>
<!-- dir_8a5715621163b534fdf3df1c9bc38980 -->
<g id="node6" class="node">
<title>dir_8a5715621163b534fdf3df1c9bc38980</title>
<g id="a_node6"><a xlink:href="dir_8a5715621163b534fdf3df1c9bc38980.html" target="_top" xlink:title="has&#45;flag">
<polygon fill="#a2b4d6" stroke="#404040" points="169.88,-44 120.12,-44 120.12,-24 169.88,-24 169.88,-44"/>
<text text-anchor="middle" x="145" y="-30.5" font-family="Helvetica,sans-Serif" font-size="10.00">has&#45;flag</text>
</a>
</g>
</g>
<!-- dir_bd8278ec1034d6bef41b344c25b03e07 -->
<g id="node7" class="node">
<title>dir_bd8278ec1034d6bef41b344c25b03e07</title>
<g id="a_node7"><a xlink:href="dir_bd8278ec1034d6bef41b344c25b03e07.html" target="_top" xlink:title="supports&#45;color">
<polygon fill="#a2b4d6" stroke="#404040" points="101.75,-44 24.25,-44 24.25,-24 101.75,-24 101.75,-44"/>
<text text-anchor="middle" x="63" y="-30.5" font-family="Helvetica,sans-Serif" font-size="10.00">supports&#45;color</text>
</a>
</g>
</g>
</g>
</svg>

<g id="navigator" transform="translate(0 0)" fill="#404254">
  <rect fill="#f2f5e9" fill-opacity="0.5" stroke="#606060" stroke-width=".5" x="0" y="0" width="60" height="60"/>
  <use id="zoomplus" xlink:href="#zoomPlus" x="17" y="9" onmousedown="handleZoom(evt,'in')"/>
  <use id="zoomminus" xlink:href="#zoomMin" x="42" y="9" onmousedown="handleZoom(evt,'out')"/>
  <use id="reset" xlink:href="#resetDef" x="30" y="36" onmousedown="handleReset()"/>
   <use id="arrowup" xlink:href="#arrowUp" x="0" y="0" onmousedown="handlePan(0,-1)"/>
  <use id="arrowright" xlink:href="#arrowRight" x="0" y="0" onmousedown="handlePan(1,0)"/>
  <use id="arrowdown" xlink:href="#arrowDown" x="0" y="0" onmousedown="handlePan(0,1)"/>
  <use id="arrowleft" xlink:href="#arrowLeft" x="0" y="0" onmousedown="handlePan(-1,0)"/>
</g>
<svg viewBox="0 0 15 15" width="100%" height="30px" preserveAspectRatio="xMaxYMin meet">
 <g id="arrow_out" transform="scale(0.3 0.3)">
  <a xlink:href="dir_be84fa28178737e7143ded1cb54635e8_dep_org.svg" target="_base">
   <rect id="button" ry="5" rx="5" y="6" x="6" height="38" width="38"
        fill="#f2f5e9" fill-opacity="0.5" stroke="#606060" stroke-width="1.0"/>
   <path id="arrow"
     d="M 11.500037,31.436501 C 11.940474,20.09759 22.043105,11.32322 32.158766,21.979434 L 37.068811,17.246167 C 37.068811,17.246167 37.088388,32 37.088388,32 L 22.160133,31.978069 C 22.160133,31.978069 26.997745,27.140456 26.997745,27.140456 C 18.528582,18.264221 13.291696,25.230495 11.500037,31.436501 z"
     style="fill:#404040;"/>
  </a>
 </g>
</svg>

<style type='text/css'>
<![CDATA[
[data-mouse-over-selected='false'] { opacity: 0.7; }
[data-mouse-over-selected='true']  { opacity: 1.0; }
]]>
</style>
<script type="application/ecmascript"><![CDATA[
document.addEventListener('DOMContentLoaded', (event) => {
  highlightEdges();
  highlightAdjacentNodes();
});
]]></script>
</svg>
