<?xml version="1.0" encoding="UTF-8" standalone="no"?>
<!DOCTYPE svg PUBLIC "-//W3C//DTD SVG 1.1//EN"
 "http://www.w3.org/Graphics/SVG/1.1/DTD/svg11.dtd">
<!-- Generated by graphviz version 9.0.0 (20230911.1827)
 -->
<!-- Title: C:/Users/STRIDER/source/repos/AinslieAPI/wwwroot/lib/jquery&#45;ui/node_modules/eslint/node_modules Pages: 1 -->
<!--zoomable 96 -->

<svg id="main" version="1.1" xmlns="http://www.w3.org/2000/svg" xmlns:xlink="http://www.w3.org/1999/xlink" xml:space="preserve" onload="init(evt)">
<style type="text/css"><![CDATA[
.node, .edge {opacity: 0.7;}
.node.selected, .edge.selected {opacity: 1;}
.edge:hover path { stroke: red; }
.edge:hover polygon { stroke: red; fill: red; }
]]></style>

<defs>
  <circle id="rim" cx="0" cy="0" r="7"/>
  <circle id="rim2" cx="0" cy="0" r="3.5"/>
  <g id="zoomPlus">
    <use xlink:href="#rim" fill="#404040"><set attributeName="fill" to="#808080" begin="zoomplus.mouseover" end="zoomplus.mouseout"/></use>
    <path d="M-4,0h8M0,-4v8" fill="none" stroke="white" stroke-width="1.5" pointer-events="none"/>
  </g>
  <g id="zoomMin">
    <use xlink:href="#rim" fill="#404040"><set attributeName="fill" to="#808080" begin="zoomminus.mouseover" end="zoomminus.mouseout"/></use>
    <path d="M-4,0h8" fill="none" stroke="white" stroke-width="1.5" pointer-events="none"/>
  </g>
  <g id="arrowUp" transform="translate(30 24)">
    <use xlink:href="#rim"/>
    <path pointer-events="none" fill="none" stroke="white" stroke-width="1.5" d="M0,-3.0v7 M-2.5,-0.5L0,-3.0L2.5,-0.5"/>
  </g>
  <g id="arrowRight" transform="rotate(90) translate(36 -43)">
    <use xlink:href="#rim"/>
    <path pointer-events="none" fill="none" stroke="white" stroke-width="1.5" d="M0,-3.0v7 M-2.5,-0.5L0,-3.0L2.5,-0.5"/>
  </g>
  <g id="arrowDown" transform="rotate(180) translate(-30 -48)">
    <use xlink:href="#rim"/>
    <path pointer-events="none" fill="none" stroke="white" stroke-width="1.5" d="M0,-3.0v7 M-2.5,-0.5L0,-3.0L2.5,-0.5"/>
  </g>
  <g id="arrowLeft" transform="rotate(270) translate(-36 17)">
    <use xlink:href="#rim"/>
    <path pointer-events="none" fill="none" stroke="white" stroke-width="1.5" d="M0,-3.0v7 M-2.5,-0.5L0,-3.0L2.5,-0.5"/>
  </g>
  <g id="resetDef">
    <use xlink:href="#rim2" fill="#404040"><set attributeName="fill" to="#808080" begin="reset.mouseover" end="reset.mouseout"/></use>
  </g>
</defs>
<script type="application/ecmascript">
var viewWidth = 1071;
var viewHeight = 96;
var sectionId = 'dynsection-0';
</script>
<script type="application/ecmascript" xlink:href="svg.min.js"/>
<svg id="graph" class="graph">
<g id="viewport">
<title>C:/Users/STRIDER/source/repos/AinslieAPI/wwwroot/lib/jquery&#45;ui/node_modules/eslint/node_modules</title>
<g id="clust1" class="cluster">
<title>clusterdir_d7ad0a8275697eff047ff8f4f5ad3da5</title>
<g id="a_clust1"><a xlink:href="dir_d7ad0a8275697eff047ff8f4f5ad3da5.html" target="_top" xlink:title="eslint">
<polygon fill="#edf0f7" stroke="#7f7f7f" stroke-dasharray="5,2" points="8,-8 8,-80 1055,-80 1055,-8 8,-8"/>
<text text-anchor="middle" x="531.5" y="-66.5" font-family="Helvetica,sans-Serif" font-size="10.00">eslint</text>
</a>
</g>
</g>
<g id="clust2" class="cluster">
<title>clusterdir_a913d9c392b1aabbc6fe85c4c7452923</title>
<g id="a_clust2"><a xlink:href="dir_a913d9c392b1aabbc6fe85c4c7452923.html" target="_top">
<polygon fill="#edf0f7" stroke="#404040" stroke-width="2" points="16,-16 16,-52 1047,-52 1047,-16 16,-16"/>
</a>
</g>
</g>
<!-- dir_a913d9c392b1aabbc6fe85c4c7452923 -->
<g id="node1" class="node">
<title>dir_a913d9c392b1aabbc6fe85c4c7452923</title>
<text text-anchor="middle" x="999" y="-30.5" font-family="Helvetica,sans-Serif" font-size="10.00">node_modules</text>
</g>
<!-- dir_7f3494dd8ee099dbbd53f00b8fe433e3 -->
<g id="node2" class="node">
<title>dir_7f3494dd8ee099dbbd53f00b8fe433e3</title>
<g id="a_node2"><a xlink:href="dir_7f3494dd8ee099dbbd53f00b8fe433e3.html" target="_top" xlink:title="ansi&#45;regex">
<polygon fill="#a2b4d6" stroke="#404040" points="941.5,-44 880.5,-44 880.5,-24 941.5,-24 941.5,-44"/>
<text text-anchor="middle" x="911" y="-30.5" font-family="Helvetica,sans-Serif" font-size="10.00">ansi&#45;regex</text>
</a>
</g>
</g>
<!-- dir_ecc09ebeed8ed3074104abca41de1700 -->
<g id="node3" class="node">
<title>dir_ecc09ebeed8ed3074104abca41de1700</title>
<g id="a_node3"><a xlink:href="dir_ecc09ebeed8ed3074104abca41de1700.html" target="_top" xlink:title="ansi&#45;styles">
<polygon fill="#a2b4d6" stroke="#404040" points="862.62,-44 799.38,-44 799.38,-24 862.62,-24 862.62,-44"/>
<text text-anchor="middle" x="831" y="-30.5" font-family="Helvetica,sans-Serif" font-size="10.00">ansi&#45;styles</text>
</a>
</g>
</g>
<!-- dir_db6ad24fbf2f1877ee3c843c00f562d7 -->
<g id="node4" class="node">
<title>dir_db6ad24fbf2f1877ee3c843c00f562d7</title>
<g id="a_node4"><a xlink:href="dir_db6ad24fbf2f1877ee3c843c00f562d7.html" target="_top" xlink:title="chalk">
<polygon fill="#a2b4d6" stroke="#404040" points="781.62,-44 742.38,-44 742.38,-24 781.62,-24 781.62,-44"/>
<text text-anchor="middle" x="762" y="-30.5" font-family="Helvetica,sans-Serif" font-size="10.00">chalk</text>
</a>
</g>
</g>
<!-- dir_49daa8c7c0dae2185b226f5fc4a4aa79 -->
<g id="node5" class="node">
<title>dir_49daa8c7c0dae2185b226f5fc4a4aa79</title>
<g id="a_node5"><a xlink:href="dir_49daa8c7c0dae2185b226f5fc4a4aa79.html" target="_top" xlink:title="color&#45;convert">
<polygon fill="#a2b4d6" stroke="#404040" points="724.38,-44 653.62,-44 653.62,-24 724.38,-24 724.38,-44"/>
<text text-anchor="middle" x="689" y="-30.5" font-family="Helvetica,sans-Serif" font-size="10.00">color&#45;convert</text>
</a>
</g>
</g>
<!-- dir_d35d1b8e74c195afe8cdabfcc6ffb900 -->
<g id="node6" class="node">
<title>dir_d35d1b8e74c195afe8cdabfcc6ffb900</title>
<g id="a_node6"><a xlink:href="dir_d35d1b8e74c195afe8cdabfcc6ffb900.html" target="_top" xlink:title="color&#45;name">
<polygon fill="#a2b4d6" stroke="#404040" points="636,-44 572,-44 572,-24 636,-24 636,-44"/>
<text text-anchor="middle" x="604" y="-30.5" font-family="Helvetica,sans-Serif" font-size="10.00">color&#45;name</text>
</a>
</g>
</g>
<!-- dir_d19269d13b351855803df7bf772f6fbd -->
<g id="node7" class="node">
<title>dir_d19269d13b351855803df7bf772f6fbd</title>
<g id="a_node7"><a xlink:href="dir_d19269d13b351855803df7bf772f6fbd.html" target="_top" xlink:title="escape&#45;string&#45;regexp">
<polygon fill="#a2b4d6" stroke="#404040" points="554.38,-44 447.62,-44 447.62,-24 554.38,-24 554.38,-44"/>
<text text-anchor="middle" x="501" y="-30.5" font-family="Helvetica,sans-Serif" font-size="10.00">escape&#45;string&#45;regexp</text>
</a>
</g>
</g>
<!-- dir_8d558b7badab9385164cd12d7fee58b6 -->
<g id="node8" class="node">
<title>dir_8d558b7badab9385164cd12d7fee58b6</title>
<g id="a_node8"><a xlink:href="dir_8d558b7badab9385164cd12d7fee58b6.html" target="_top" xlink:title="has&#45;flag">
<polygon fill="#a2b4d6" stroke="#404040" points="429.88,-44 380.12,-44 380.12,-24 429.88,-24 429.88,-44"/>
<text text-anchor="middle" x="405" y="-30.5" font-family="Helvetica,sans-Serif" font-size="10.00">has&#45;flag</text>
</a>
</g>
</g>
<!-- dir_c1634262cff26790da5c57fc29fbf9ab -->
<g id="node9" class="node">
<title>dir_c1634262cff26790da5c57fc29fbf9ab</title>
<g id="a_node9"><a xlink:href="dir_c1634262cff26790da5c57fc29fbf9ab.html" target="_top" xlink:title="semver">
<polygon fill="#a2b4d6" stroke="#404040" points="362.38,-44 315.62,-44 315.62,-24 362.38,-24 362.38,-44"/>
<text text-anchor="middle" x="339" y="-30.5" font-family="Helvetica,sans-Serif" font-size="10.00">semver</text>
</a>
</g>
</g>
<!-- dir_2658ac71bef1eb6c563c9b8f791a5fef -->
<g id="node10" class="node">
<title>dir_2658ac71bef1eb6c563c9b8f791a5fef</title>
<g id="a_node10"><a xlink:href="dir_2658ac71bef1eb6c563c9b8f791a5fef.html" target="_top" xlink:title="strip&#45;ansi">
<polygon fill="#a2b4d6" stroke="#404040" points="297.88,-44 242.12,-44 242.12,-24 297.88,-24 297.88,-44"/>
<text text-anchor="middle" x="270" y="-30.5" font-family="Helvetica,sans-Serif" font-size="10.00">strip&#45;ansi</text>
</a>
</g>
</g>
<!-- dir_1a269b1c36acff025fb031bd79e23345 -->
<g id="node11" class="node">
<title>dir_1a269b1c36acff025fb031bd79e23345</title>
<g id="a_node11"><a xlink:href="dir_1a269b1c36acff025fb031bd79e23345.html" target="_top" xlink:title="strip&#45;json&#45;comments">
<polygon fill="#a2b4d6" stroke="#404040" points="224.25,-44 119.75,-44 119.75,-24 224.25,-24 224.25,-44"/>
<text text-anchor="middle" x="172" y="-30.5" font-family="Helvetica,sans-Serif" font-size="10.00">strip&#45;json&#45;comments</text>
</a>
</g>
</g>
<!-- dir_f478d35fb206485793729c7cb7b7f986 -->
<g id="node12" class="node">
<title>dir_f478d35fb206485793729c7cb7b7f986</title>
<g id="a_node12"><a xlink:href="dir_f478d35fb206485793729c7cb7b7f986.html" target="_top" xlink:title="supports&#45;color">
<polygon fill="#a2b4d6" stroke="#404040" points="101.75,-44 24.25,-44 24.25,-24 101.75,-24 101.75,-44"/>
<text text-anchor="middle" x="63" y="-30.5" font-family="Helvetica,sans-Serif" font-size="10.00">supports&#45;color</text>
</a>
</g>
</g>
</g>
</svg>

<g id="navigator" transform="translate(0 0)" fill="#404254">
  <rect fill="#f2f5e9" fill-opacity="0.5" stroke="#606060" stroke-width=".5" x="0" y="0" width="60" height="60"/>
  <use id="zoomplus" xlink:href="#zoomPlus" x="17" y="9" onmousedown="handleZoom(evt,'in')"/>
  <use id="zoomminus" xlink:href="#zoomMin" x="42" y="9" onmousedown="handleZoom(evt,'out')"/>
  <use id="reset" xlink:href="#resetDef" x="30" y="36" onmousedown="handleReset()"/>
   <use id="arrowup" xlink:href="#arrowUp" x="0" y="0" onmousedown="handlePan(0,-1)"/>
  <use id="arrowright" xlink:href="#arrowRight" x="0" y="0" onmousedown="handlePan(1,0)"/>
  <use id="arrowdown" xlink:href="#arrowDown" x="0" y="0" onmousedown="handlePan(0,1)"/>
  <use id="arrowleft" xlink:href="#arrowLeft" x="0" y="0" onmousedown="handlePan(-1,0)"/>
</g>
<svg viewBox="0 0 15 15" width="100%" height="30px" preserveAspectRatio="xMaxYMin meet">
 <g id="arrow_out" transform="scale(0.3 0.3)">
  <a xlink:href="dir_a913d9c392b1aabbc6fe85c4c7452923_dep_org.svg" target="_base">
   <rect id="button" ry="5" rx="5" y="6" x="6" height="38" width="38"
        fill="#f2f5e9" fill-opacity="0.5" stroke="#606060" stroke-width="1.0"/>
   <path id="arrow"
     d="M 11.500037,31.436501 C 11.940474,20.09759 22.043105,11.32322 32.158766,21.979434 L 37.068811,17.246167 C 37.068811,17.246167 37.088388,32 37.088388,32 L 22.160133,31.978069 C 22.160133,31.978069 26.997745,27.140456 26.997745,27.140456 C 18.528582,18.264221 13.291696,25.230495 11.500037,31.436501 z"
     style="fill:#404040;"/>
  </a>
 </g>
</svg>

<style type='text/css'>
<![CDATA[
[data-mouse-over-selected='false'] { opacity: 0.7; }
[data-mouse-over-selected='true']  { opacity: 1.0; }
]]>
</style>
<script type="application/ecmascript"><![CDATA[
document.addEventListener('DOMContentLoaded', (event) => {
  highlightEdges();
  highlightAdjacentNodes();
});
]]></script>
</svg>
