<?xml version="1.0" encoding="UTF-8" standalone="no"?>
<!DOCTYPE svg PUBLIC "-//W3C//DTD SVG 1.1//EN"
 "http://www.w3.org/Graphics/SVG/1.1/DTD/svg11.dtd">
<!-- Generated by graphviz version 9.0.0 (20230911.1827)
 -->
<!-- Title: C:/Users/STRIDER/source/repos/AinslieAPI/wwwroot/lib/jquery&#45;ui/node_modules/bower/lib/node_modules/bower&#45;registry&#45;client/node_modules Pages: 1 -->
<!--zoomable 96 -->

<svg id="main" version="1.1" xmlns="http://www.w3.org/2000/svg" xmlns:xlink="http://www.w3.org/1999/xlink" xml:space="preserve" onload="init(evt)">
<style type="text/css"><![CDATA[
.node, .edge {opacity: 0.7;}
.node.selected, .edge.selected {opacity: 1;}
.edge:hover path { stroke: red; }
.edge:hover polygon { stroke: red; fill: red; }
]]></style>

<defs>
  <circle id="rim" cx="0" cy="0" r="7"/>
  <circle id="rim2" cx="0" cy="0" r="3.5"/>
  <g id="zoomPlus">
    <use xlink:href="#rim" fill="#404040"><set attributeName="fill" to="#808080" begin="zoomplus.mouseover" end="zoomplus.mouseout"/></use>
    <path d="M-4,0h8M0,-4v8" fill="none" stroke="white" stroke-width="1.5" pointer-events="none"/>
  </g>
  <g id="zoomMin">
    <use xlink:href="#rim" fill="#404040"><set attributeName="fill" to="#808080" begin="zoomminus.mouseover" end="zoomminus.mouseout"/></use>
    <path d="M-4,0h8" fill="none" stroke="white" stroke-width="1.5" pointer-events="none"/>
  </g>
  <g id="arrowUp" transform="translate(30 24)">
    <use xlink:href="#rim"/>
    <path pointer-events="none" fill="none" stroke="white" stroke-width="1.5" d="M0,-3.0v7 M-2.5,-0.5L0,-3.0L2.5,-0.5"/>
  </g>
  <g id="arrowRight" transform="rotate(90) translate(36 -43)">
    <use xlink:href="#rim"/>
    <path pointer-events="none" fill="none" stroke="white" stroke-width="1.5" d="M0,-3.0v7 M-2.5,-0.5L0,-3.0L2.5,-0.5"/>
  </g>
  <g id="arrowDown" transform="rotate(180) translate(-30 -48)">
    <use xlink:href="#rim"/>
    <path pointer-events="none" fill="none" stroke="white" stroke-width="1.5" d="M0,-3.0v7 M-2.5,-0.5L0,-3.0L2.5,-0.5"/>
  </g>
  <g id="arrowLeft" transform="rotate(270) translate(-36 17)">
    <use xlink:href="#rim"/>
    <path pointer-events="none" fill="none" stroke="white" stroke-width="1.5" d="M0,-3.0v7 M-2.5,-0.5L0,-3.0L2.5,-0.5"/>
  </g>
  <g id="resetDef">
    <use xlink:href="#rim2" fill="#404040"><set attributeName="fill" to="#808080" begin="reset.mouseover" end="reset.mouseout"/></use>
  </g>
</defs>
<script type="application/ecmascript">
var viewWidth = 822;
var viewHeight = 96;
var sectionId = 'dynsection-0';
</script>
<script type="application/ecmascript" xlink:href="svg.min.js"/>
<svg id="graph" class="graph">
<g id="viewport">
<title>C:/Users/STRIDER/source/repos/AinslieAPI/wwwroot/lib/jquery&#45;ui/node_modules/bower/lib/node_modules/bower&#45;registry&#45;client/node_modules</title>
<g id="clust1" class="cluster">
<title>clusterdir_039ed5f2e87261f6066e8a35cca3afe2</title>
<g id="a_clust1"><a xlink:href="dir_039ed5f2e87261f6066e8a35cca3afe2.html" target="_top" xlink:title="bower&#45;registry&#45;client">
<polygon fill="#edf0f7" stroke="#7f7f7f" stroke-dasharray="5,2" points="8,-8 8,-80 806,-80 806,-8 8,-8"/>
<text text-anchor="middle" x="407" y="-66.5" font-family="Helvetica,sans-Serif" font-size="10.00">bower&#45;registry&#45;client</text>
</a>
</g>
</g>
<g id="clust2" class="cluster">
<title>clusterdir_91a1d84146dd1ec96f8d75c7b343daba</title>
<g id="a_clust2"><a xlink:href="dir_91a1d84146dd1ec96f8d75c7b343daba.html" target="_top">
<polygon fill="#edf0f7" stroke="#404040" stroke-width="2" points="16,-16 16,-52 798,-52 798,-16 16,-16"/>
</a>
</g>
</g>
<!-- dir_91a1d84146dd1ec96f8d75c7b343daba -->
<g id="node1" class="node">
<title>dir_91a1d84146dd1ec96f8d75c7b343daba</title>
<text text-anchor="middle" x="750" y="-30.5" font-family="Helvetica,sans-Serif" font-size="10.00">node_modules</text>
</g>
<!-- dir_d5585da7609516ab28a6eb6ffe7761b4 -->
<g id="node2" class="node">
<title>dir_d5585da7609516ab28a6eb6ffe7761b4</title>
<g id="a_node2"><a xlink:href="dir_d5585da7609516ab28a6eb6ffe7761b4.html" target="_top" xlink:title="ajv">
<polygon fill="#a2b4d6" stroke="#404040" points="692.4,-44 663.6,-44 663.6,-24 692.4,-24 692.4,-44"/>
<text text-anchor="middle" x="678" y="-30.5" font-family="Helvetica,sans-Serif" font-size="10.00">ajv</text>
</a>
</g>
</g>
<!-- dir_7f7cefd6085632dfecb130508f5a6105 -->
<g id="node3" class="node">
<title>dir_7f7cefd6085632dfecb130508f5a6105</title>
<g id="a_node3"><a xlink:href="dir_7f7cefd6085632dfecb130508f5a6105.html" target="_top" xlink:title="caseless">
<polygon fill="#a2b4d6" stroke="#404040" points="645.5,-44 590.5,-44 590.5,-24 645.5,-24 645.5,-44"/>
<text text-anchor="middle" x="618" y="-30.5" font-family="Helvetica,sans-Serif" font-size="10.00">caseless</text>
</a>
</g>
</g>
<!-- dir_7307be1cac511ff05a2f757fbfa171b1 -->
<g id="node4" class="node">
<title>dir_7307be1cac511ff05a2f757fbfa171b1</title>
<g id="a_node4"><a xlink:href="dir_7307be1cac511ff05a2f757fbfa171b1.html" target="_top" xlink:title="form&#45;data">
<polygon fill="#a2b4d6" stroke="#404040" points="572.25,-44 515.75,-44 515.75,-24 572.25,-24 572.25,-44"/>
<text text-anchor="middle" x="544" y="-30.5" font-family="Helvetica,sans-Serif" font-size="10.00">form&#45;data</text>
</a>
</g>
</g>
<!-- dir_0f5f6bcf7022f5423089ea7a32cc241c -->
<g id="node5" class="node">
<title>dir_0f5f6bcf7022f5423089ea7a32cc241c</title>
<g id="a_node5"><a xlink:href="dir_0f5f6bcf7022f5423089ea7a32cc241c.html" target="_top" xlink:title="har&#45;validator">
<polygon fill="#a2b4d6" stroke="#404040" points="497.88,-44 430.12,-44 430.12,-24 497.88,-24 497.88,-44"/>
<text text-anchor="middle" x="464" y="-30.5" font-family="Helvetica,sans-Serif" font-size="10.00">har&#45;validator</text>
</a>
</g>
</g>
<!-- dir_56056e9302d9803af5ab9385f63f0d6e -->
<g id="node6" class="node">
<title>dir_56056e9302d9803af5ab9385f63f0d6e</title>
<g id="a_node6"><a xlink:href="dir_56056e9302d9803af5ab9385f63f0d6e.html" target="_top" xlink:title="mkdirp">
<polygon fill="#a2b4d6" stroke="#404040" points="411.62,-44 366.38,-44 366.38,-24 411.62,-24 411.62,-44"/>
<text text-anchor="middle" x="389" y="-30.5" font-family="Helvetica,sans-Serif" font-size="10.00">mkdirp</text>
</a>
</g>
</g>
<!-- dir_371c52f7b11c100d76099a07b2868f5b -->
<g id="node7" class="node">
<title>dir_371c52f7b11c100d76099a07b2868f5b</title>
<g id="a_node7"><a xlink:href="dir_371c52f7b11c100d76099a07b2868f5b.html" target="_top" xlink:title="qs">
<polygon fill="#a2b4d6" stroke="#404040" points="348.4,-44 319.6,-44 319.6,-24 348.4,-24 348.4,-44"/>
<text text-anchor="middle" x="334" y="-30.5" font-family="Helvetica,sans-Serif" font-size="10.00">qs</text>
</a>
</g>
</g>
<!-- dir_dab7dd11aa2d948030a3fc2d7355f90e -->
<g id="node8" class="node">
<title>dir_dab7dd11aa2d948030a3fc2d7355f90e</title>
<g id="a_node8"><a xlink:href="dir_dab7dd11aa2d948030a3fc2d7355f90e.html" target="_top" xlink:title="request">
<polygon fill="#a2b4d6" stroke="#404040" points="301.12,-44 252.88,-44 252.88,-24 301.12,-24 301.12,-44"/>
<text text-anchor="middle" x="277" y="-30.5" font-family="Helvetica,sans-Serif" font-size="10.00">request</text>
</a>
</g>
</g>
<!-- dir_7bed43d9c51d8466ed5e7b29c1f4fad4 -->
<g id="node9" class="node">
<title>dir_7bed43d9c51d8466ed5e7b29c1f4fad4</title>
<g id="a_node9"><a xlink:href="dir_7bed43d9c51d8466ed5e7b29c1f4fad4.html" target="_top" xlink:title="tough&#45;cookie">
<polygon fill="#a2b4d6" stroke="#404040" points="234.75,-44 163.25,-44 163.25,-24 234.75,-24 234.75,-44"/>
<text text-anchor="middle" x="199" y="-30.5" font-family="Helvetica,sans-Serif" font-size="10.00">tough&#45;cookie</text>
</a>
</g>
</g>
<!-- dir_9547c938e18337d168eab4bfc3dbdc55 -->
<g id="node10" class="node">
<title>dir_9547c938e18337d168eab4bfc3dbdc55</title>
<g id="a_node10"><a xlink:href="dir_9547c938e18337d168eab4bfc3dbdc55.html" target="_top" xlink:title="tunnel&#45;agent">
<polygon fill="#a2b4d6" stroke="#404040" points="145.62,-44 76.38,-44 76.38,-24 145.62,-24 145.62,-44"/>
<text text-anchor="middle" x="111" y="-30.5" font-family="Helvetica,sans-Serif" font-size="10.00">tunnel&#45;agent</text>
</a>
</g>
</g>
<!-- dir_7b2180c5a5052535ffecee4427edc479 -->
<g id="node11" class="node">
<title>dir_7b2180c5a5052535ffecee4427edc479</title>
<g id="a_node11"><a xlink:href="dir_7b2180c5a5052535ffecee4427edc479.html" target="_top" xlink:title="uuid">
<polygon fill="#a2b4d6" stroke="#404040" points="58,-44 24,-44 24,-24 58,-24 58,-44"/>
<text text-anchor="middle" x="41" y="-30.5" font-family="Helvetica,sans-Serif" font-size="10.00">uuid</text>
</a>
</g>
</g>
</g>
</svg>

<g id="navigator" transform="translate(0 0)" fill="#404254">
  <rect fill="#f2f5e9" fill-opacity="0.5" stroke="#606060" stroke-width=".5" x="0" y="0" width="60" height="60"/>
  <use id="zoomplus" xlink:href="#zoomPlus" x="17" y="9" onmousedown="handleZoom(evt,'in')"/>
  <use id="zoomminus" xlink:href="#zoomMin" x="42" y="9" onmousedown="handleZoom(evt,'out')"/>
  <use id="reset" xlink:href="#resetDef" x="30" y="36" onmousedown="handleReset()"/>
   <use id="arrowup" xlink:href="#arrowUp" x="0" y="0" onmousedown="handlePan(0,-1)"/>
  <use id="arrowright" xlink:href="#arrowRight" x="0" y="0" onmousedown="handlePan(1,0)"/>
  <use id="arrowdown" xlink:href="#arrowDown" x="0" y="0" onmousedown="handlePan(0,1)"/>
  <use id="arrowleft" xlink:href="#arrowLeft" x="0" y="0" onmousedown="handlePan(-1,0)"/>
</g>
<svg viewBox="0 0 15 15" width="100%" height="30px" preserveAspectRatio="xMaxYMin meet">
 <g id="arrow_out" transform="scale(0.3 0.3)">
  <a xlink:href="dir_91a1d84146dd1ec96f8d75c7b343daba_dep_org.svg" target="_base">
   <rect id="button" ry="5" rx="5" y="6" x="6" height="38" width="38"
        fill="#f2f5e9" fill-opacity="0.5" stroke="#606060" stroke-width="1.0"/>
   <path id="arrow"
     d="M 11.500037,31.436501 C 11.940474,20.09759 22.043105,11.32322 32.158766,21.979434 L 37.068811,17.246167 C 37.068811,17.246167 37.088388,32 37.088388,32 L 22.160133,31.978069 C 22.160133,31.978069 26.997745,27.140456 26.997745,27.140456 C 18.528582,18.264221 13.291696,25.230495 11.500037,31.436501 z"
     style="fill:#404040;"/>
  </a>
 </g>
</svg>

<style type='text/css'>
<![CDATA[
[data-mouse-over-selected='false'] { opacity: 0.7; }
[data-mouse-over-selected='true']  { opacity: 1.0; }
]]>
</style>
<script type="application/ecmascript"><![CDATA[
document.addEventListener('DOMContentLoaded', (event) => {
  highlightEdges();
  highlightAdjacentNodes();
});
]]></script>
</svg>
