<?xml version="1.0" encoding="UTF-8" standalone="no"?>
<!DOCTYPE svg PUBLIC "-//W3C//DTD SVG 1.1//EN"
 "http://www.w3.org/Graphics/SVG/1.1/DTD/svg11.dtd">
<!-- Generated by graphviz version 9.0.0 (20230911.1827)
 -->
<!-- Title: Graphical Class Hierarchy Pages: 1 -->
<svg width="352pt" height="294pt"
 viewBox="0.00 0.00 352.00 294.00" xmlns="http://www.w3.org/2000/svg" xmlns:xlink="http://www.w3.org/1999/xlink">
<g id="graph0" class="graph" transform="scale(1 1) rotate(0) translate(4 290)">
<title>Graphical Class Hierarchy</title>
<!-- Node0 -->
<g id="Node000000" class="node">
<title>Node0</title>
<g id="a_Node000000"><a xlink:title=" ">
<polygon fill="#e0e0e0" stroke="#999999" points="55.75,-153 0,-153 0,-133 55.75,-133 55.75,-153"/>
<text text-anchor="middle" x="27.88" y="-139.5" font-family="Helvetica,sans-Serif" font-size="10.00">Migration</text>
</a>
</g>
</g>
<!-- Node1 -->
<g id="Node000001" class="node">
<title>Node1</title>
<g id="a_Node000001"><a xlink:href="class_ainslie_a_p_i_1_1_migrations_1_1_tdcr_1_1adjusttdcrdecimalprecision.html" target="_top" xlink:title=" ">
<polygon fill="white" stroke="#666666" points="342.5,-286 93.25,-286 93.25,-266 342.5,-266 342.5,-286"/>
<text text-anchor="middle" x="217.88" y="-272.5" font-family="Helvetica,sans-Serif" font-size="10.00">AinslieAPI.Migrations.Tdcr.adjusttdcrdecimalprecision</text>
</a>
</g>
</g>
<!-- Node0&#45;&gt;Node1 -->
<g id="edge15_Node000000_Node000001" class="edge">
<title>Node0&#45;&gt;Node1</title>
<g id="a_edge15_Node000000_Node000001"><a xlink:title=" ">
<path fill="none" stroke="#63b8ff" d="M34.35,-164.29C42.3,-190.62 59.74,-234.68 91.75,-257 96.53,-260.33 101.66,-263.17 107.01,-265.6"/>
<polygon fill="#63b8ff" stroke="#63b8ff" points="37.74,-163.41 31.67,-154.73 31,-165.3 37.74,-163.41"/>
</a>
</g>
</g>
<!-- Node2 -->
<g id="Node000002" class="node">
<title>Node2</title>
<g id="a_Node000002"><a xlink:href="class_ainslie_a_p_i_1_1_migrations_1_1_tdcr_1_1initial.html" target="_top" xlink:title=" ">
<polygon fill="white" stroke="#666666" points="296,-248 139.75,-248 139.75,-228 296,-228 296,-248"/>
<text text-anchor="middle" x="217.88" y="-234.5" font-family="Helvetica,sans-Serif" font-size="10.00">AinslieAPI.Migrations.Tdcr.initial</text>
</a>
</g>
</g>
<!-- Node0&#45;&gt;Node2 -->
<g id="edge16_Node000000_Node000002" class="edge">
<title>Node0&#45;&gt;Node2</title>
<g id="a_edge16_Node000000_Node000002"><a xlink:title=" ">
<path fill="none" stroke="#63b8ff" d="M39.93,-163.38C50.7,-181.13 68.8,-206 91.75,-219 106.19,-227.17 122.99,-232.18 139.51,-235.17"/>
<polygon fill="#63b8ff" stroke="#63b8ff" points="42.97,-161.65 34.95,-154.73 36.9,-165.14 42.97,-161.65"/>
</a>
</g>
</g>
<!-- Node3 -->
<g id="Node000003" class="node">
<title>Node3</title>
<g id="a_Node000003"><a xlink:href="class_ainslie_a_p_i_1_1_migrations_1_1_tdcr_1_1livecomparisonpriceaud.html" target="_top" xlink:title=" ">
<polygon fill="white" stroke="#666666" points="335,-210 100.75,-210 100.75,-190 335,-190 335,-210"/>
<text text-anchor="middle" x="217.88" y="-196.5" font-family="Helvetica,sans-Serif" font-size="10.00">AinslieAPI.Migrations.Tdcr.livecomparisonpriceaud</text>
</a>
</g>
</g>
<!-- Node0&#45;&gt;Node3 -->
<g id="edge17_Node000000_Node000003" class="edge">
<title>Node0&#45;&gt;Node3</title>
<g id="a_edge17_Node000000_Node000003"><a xlink:title=" ">
<path fill="none" stroke="#63b8ff" d="M51.78,-159.84C63.24,-167.47 77.65,-175.9 91.75,-181 101.25,-184.44 111.38,-187.26 121.6,-189.56"/>
<polygon fill="#63b8ff" stroke="#63b8ff" points="54.01,-157.13 43.79,-154.31 50.02,-162.88 54.01,-157.13"/>
</a>
</g>
</g>
<!-- Node4 -->
<g id="Node000004" class="node">
<title>Node4</title>
<g id="a_Node000004"><a xlink:href="class_ainslie_a_p_i_1_1_migrations_1_1_tdcr_1_1tdcraud.html" target="_top" xlink:title=" ">
<polygon fill="white" stroke="#666666" points="300.88,-172 134.88,-172 134.88,-152 300.88,-152 300.88,-172"/>
<text text-anchor="middle" x="217.88" y="-158.5" font-family="Helvetica,sans-Serif" font-size="10.00">AinslieAPI.Migrations.Tdcr.tdcraud</text>
</a>
</g>
</g>
<!-- Node0&#45;&gt;Node4 -->
<g id="edge18_Node000000_Node000004" class="edge">
<title>Node0&#45;&gt;Node4</title>
<g id="a_edge18_Node000000_Node000004"><a xlink:title=" ">
<path fill="none" stroke="#63b8ff" d="M67.6,-146.91C87,-148.87 111.25,-151.33 134.54,-153.68"/>
<polygon fill="#63b8ff" stroke="#63b8ff" points="68.02,-143.44 57.72,-145.91 67.32,-150.4 68.02,-143.44"/>
</a>
</g>
</g>
<!-- Node5 -->
<g id="Node000005" class="node">
<title>Node5</title>
<g id="a_Node000005"><a xlink:href="class_ainslie_a_p_i_1_1_migrations_1_1_tdcr_1_1tdcraudusd.html" target="_top" xlink:title=" ">
<polygon fill="white" stroke="#666666" points="308.75,-134 127,-134 127,-114 308.75,-114 308.75,-134"/>
<text text-anchor="middle" x="217.88" y="-120.5" font-family="Helvetica,sans-Serif" font-size="10.00">AinslieAPI.Migrations.Tdcr.tdcraudusd</text>
</a>
</g>
</g>
<!-- Node0&#45;&gt;Node5 -->
<g id="edge19_Node000000_Node000005" class="edge">
<title>Node0&#45;&gt;Node5</title>
<g id="a_edge19_Node000000_Node000005"><a xlink:title=" ">
<path fill="none" stroke="#63b8ff" d="M67.47,-139.1C84.69,-137.36 105.78,-135.23 126.62,-133.12"/>
<polygon fill="#63b8ff" stroke="#63b8ff" points="67.32,-135.6 57.72,-140.09 68.02,-142.56 67.32,-135.6"/>
</a>
</g>
</g>
<!-- Node6 -->
<g id="Node000006" class="node">
<title>Node6</title>
<g id="a_Node000006"><a xlink:href="class_ainslie_a_p_i_1_1_migrations_1_1_tdcr_1_1updatetdcrdecimalprecision.html" target="_top" xlink:title=" ">
<polygon fill="white" stroke="#666666" points="344,-96 91.75,-96 91.75,-76 344,-76 344,-96"/>
<text text-anchor="middle" x="217.88" y="-82.5" font-family="Helvetica,sans-Serif" font-size="10.00">AinslieAPI.Migrations.Tdcr.updatetdcrdecimalprecision</text>
</a>
</g>
</g>
<!-- Node0&#45;&gt;Node6 -->
<g id="edge20_Node000000_Node000006" class="edge">
<title>Node0&#45;&gt;Node6</title>
<g id="a_edge20_Node000000_Node000006"><a xlink:title=" ">
<path fill="none" stroke="#63b8ff" d="M51.78,-126.16C63.24,-118.53 77.65,-110.1 91.75,-105 101.25,-101.56 111.38,-98.74 121.6,-96.44"/>
<polygon fill="#63b8ff" stroke="#63b8ff" points="50.02,-123.12 43.79,-131.69 54.01,-128.87 50.02,-123.12"/>
</a>
</g>
</g>
<!-- Node7 -->
<g id="Node000007" class="node">
<title>Node7</title>
<g id="a_Node000007"><a xlink:href="class_ainslie_a_p_i_1_1_migrations_1_1_tdcr_1_1updatetdcrordercompleted.html" target="_top" xlink:title=" ">
<polygon fill="white" stroke="#666666" points="341,-58 94.75,-58 94.75,-38 341,-38 341,-58"/>
<text text-anchor="middle" x="217.88" y="-44.5" font-family="Helvetica,sans-Serif" font-size="10.00">AinslieAPI.Migrations.Tdcr.updatetdcrordercompleted</text>
</a>
</g>
</g>
<!-- Node0&#45;&gt;Node7 -->
<g id="edge21_Node000000_Node000007" class="edge">
<title>Node0&#45;&gt;Node7</title>
<g id="a_edge21_Node000000_Node000007"><a xlink:title=" ">
<path fill="none" stroke="#63b8ff" d="M39.93,-122.62C50.7,-104.87 68.8,-80 91.75,-67 97.68,-63.64 104,-60.82 110.55,-58.45"/>
<polygon fill="#63b8ff" stroke="#63b8ff" points="36.9,-120.86 34.95,-131.27 42.97,-124.35 36.9,-120.86"/>
</a>
</g>
</g>
<!-- Node8 -->
<g id="Node000008" class="node">
<title>Node8</title>
<g id="a_Node000008"><a xlink:href="class_ainslie_a_p_i_1_1_migrations_1_1initial.html" target="_top" xlink:title=" ">
<polygon fill="white" stroke="#666666" points="285.12,-20 150.62,-20 150.62,0 285.12,0 285.12,-20"/>
<text text-anchor="middle" x="217.88" y="-6.5" font-family="Helvetica,sans-Serif" font-size="10.00">AinslieAPI.Migrations.initial</text>
</a>
</g>
</g>
<!-- Node0&#45;&gt;Node8 -->
<g id="edge22_Node000000_Node000008" class="edge">
<title>Node0&#45;&gt;Node8</title>
<g id="a_edge22_Node000000_Node000008"><a xlink:title=" ">
<path fill="none" stroke="#63b8ff" d="M34.35,-121.71C42.3,-95.38 59.74,-51.32 91.75,-29 108.69,-17.19 130.06,-11.49 150.33,-9.01"/>
<polygon fill="#63b8ff" stroke="#63b8ff" points="31,-120.7 31.67,-131.27 37.74,-122.59 31,-120.7"/>
</a>
</g>
</g>
</g>
</svg>
