<?xml version="1.0" encoding="UTF-8" standalone="no"?>
<!DOCTYPE svg PUBLIC "-//W3C//DTD SVG 1.1//EN"
 "http://www.w3.org/Graphics/SVG/1.1/DTD/svg11.dtd">
<!-- Generated by graphviz version 9.0.0 (20230911.1827)
 -->
<!-- Title: Graphical Class Hierarchy Pages: 1 -->
<svg width="240pt" height="78pt"
 viewBox="0.00 0.00 240.25 78.00" xmlns="http://www.w3.org/2000/svg" xmlns:xlink="http://www.w3.org/1999/xlink">
<g id="graph0" class="graph" transform="scale(1 1) rotate(0) translate(4 74)">
<title>Graphical Class Hierarchy</title>
<!-- Node0 -->
<g id="Node000000" class="node">
<title>Node0</title>
<g id="a_Node000000"><a xlink:title=" ">
<polygon fill="#e0e0e0" stroke="#999999" points="57.25,-48 0,-48 0,-28 57.25,-28 57.25,-48"/>
<text text-anchor="middle" x="28.62" y="-34.5" font-family="Helvetica,sans-Serif" font-size="10.00">Controller</text>
</a>
</g>
</g>
<!-- Node1 -->
<g id="Node000001" class="node">
<title>Node1</title>
<g id="a_Node000001"><a xlink:href="class_account_controller.html" target="_top" xlink:title="Controller responsible for handling account&#45;related actions such as login, logout,...">
<polygon fill="white" stroke="#666666" points="209.38,-70 116.12,-70 116.12,-50 209.38,-50 209.38,-70"/>
<text text-anchor="middle" x="162.75" y="-56.5" font-family="Helvetica,sans-Serif" font-size="10.00">AccountController</text>
</a>
</g>
</g>
<!-- Node0&#45;&gt;Node1 -->
<g id="edge4_Node000000_Node000001" class="edge">
<title>Node0&#45;&gt;Node1</title>
<g id="a_edge4_Node000000_Node000001"><a xlink:title=" ">
<path fill="none" stroke="#63b8ff" d="M68.94,-44.55C83.67,-47 100.55,-49.81 115.83,-52.35"/>
<polygon fill="#63b8ff" stroke="#63b8ff" points="69.58,-41.1 59.14,-42.91 68.43,-48.01 69.58,-41.1"/>
</a>
</g>
</g>
<!-- Node2 -->
<g id="Node000002" class="node">
<title>Node2</title>
<g id="a_Node000002"><a xlink:href="class_ainslie_a_p_i_1_1_controllers_1_1_home_controller.html" target="_top" xlink:title="Serves the home page of the application.">
<polygon fill="white" stroke="#666666" points="232.25,-32 93.25,-32 93.25,0 232.25,0 232.25,-32"/>
<text text-anchor="start" x="101.25" y="-18.5" font-family="Helvetica,sans-Serif" font-size="10.00">AinslieAPI.Controllers.Home</text>
<text text-anchor="middle" x="162.75" y="-6.5" font-family="Helvetica,sans-Serif" font-size="10.00">Controller</text>
</a>
</g>
</g>
<!-- Node0&#45;&gt;Node2 -->
<g id="edge5_Node000000_Node000002" class="edge">
<title>Node0&#45;&gt;Node2</title>
<g id="a_edge5_Node000000_Node000002"><a xlink:title=" ">
<path fill="none" stroke="#63b8ff" d="M68.76,-31.48C76.43,-30.21 84.68,-28.83 92.99,-27.45"/>
<polygon fill="#63b8ff" stroke="#63b8ff" points="68.43,-27.99 59.14,-33.09 69.58,-34.9 68.43,-27.99"/>
</a>
</g>
</g>
</g>
</svg>
