<?xml version="1.0" encoding="UTF-8" standalone="no"?>
<!DOCTYPE svg PUBLIC "-//W3C//DTD SVG 1.1//EN"
 "http://www.w3.org/Graphics/SVG/1.1/DTD/svg11.dtd">
<!-- Generated by graphviz version 9.0.0 (20230911.1827)
 -->
<!-- Title: Graphical Class Hierarchy Pages: 1 -->
<svg width="235pt" height="90pt"
 viewBox="0.00 0.00 235.00 90.00" xmlns="http://www.w3.org/2000/svg" xmlns:xlink="http://www.w3.org/1999/xlink">
<g id="graph0" class="graph" transform="scale(1 1) rotate(0) translate(4 86)">
<title>Graphical Class Hierarchy</title>
<!-- Node0 -->
<g id="Node000000" class="node">
<title>Node0</title>
<g id="a_Node000000"><a xlink:title=" ">
<polygon fill="#e0e0e0" stroke="#999999" points="61.75,-51 0,-51 0,-31 61.75,-31 61.75,-51"/>
<text text-anchor="middle" x="30.88" y="-37.5" font-family="Helvetica,sans-Serif" font-size="10.00">DbContext</text>
</a>
</g>
</g>
<!-- Node1 -->
<g id="Node000001" class="node">
<title>Node1</title>
<g id="a_Node000001"><a xlink:href="class_ainslie_a_p_i_1_1_data_1_1_contexts_1_1_local_context.html" target="_top" xlink:title=" ">
<polygon fill="white" stroke="#666666" points="227,-82 97.75,-82 97.75,-50 227,-50 227,-82"/>
<text text-anchor="start" x="105.75" y="-68.5" font-family="Helvetica,sans-Serif" font-size="10.00">AinslieAPI.Data.Contexts.</text>
<text text-anchor="middle" x="162.38" y="-56.5" font-family="Helvetica,sans-Serif" font-size="10.00">LocalContext</text>
</a>
</g>
</g>
<!-- Node0&#45;&gt;Node1 -->
<g id="edge13_Node000000_Node000001" class="edge">
<title>Node0&#45;&gt;Node1</title>
<g id="a_edge13_Node000000_Node000001"><a xlink:title=" ">
<path fill="none" stroke="#63b8ff" d="M73.37,-49.01C81.01,-50.49 89.14,-52.05 97.26,-53.62"/>
<polygon fill="#63b8ff" stroke="#63b8ff" points="74.21,-45.61 63.72,-47.15 72.88,-52.48 74.21,-45.61"/>
</a>
</g>
</g>
<!-- Node2 -->
<g id="Node000002" class="node">
<title>Node2</title>
<g id="a_Node000002"><a xlink:href="class_ainslie_a_p_i_1_1_data_1_1_contexts_1_1_tdcr_context.html" target="_top" xlink:title=" ">
<polygon fill="white" stroke="#666666" points="227,-32 97.75,-32 97.75,0 227,0 227,-32"/>
<text text-anchor="start" x="105.75" y="-18.5" font-family="Helvetica,sans-Serif" font-size="10.00">AinslieAPI.Data.Contexts.</text>
<text text-anchor="middle" x="162.38" y="-6.5" font-family="Helvetica,sans-Serif" font-size="10.00">TdcrContext</text>
</a>
</g>
</g>
<!-- Node0&#45;&gt;Node2 -->
<g id="edge14_Node000000_Node000002" class="edge">
<title>Node0&#45;&gt;Node2</title>
<g id="a_edge14_Node000000_Node000002"><a xlink:title=" ">
<path fill="none" stroke="#63b8ff" d="M73.37,-32.99C81.01,-31.51 89.14,-29.95 97.26,-28.38"/>
<polygon fill="#63b8ff" stroke="#63b8ff" points="72.88,-29.52 63.72,-34.85 74.21,-36.39 72.88,-29.52"/>
</a>
</g>
</g>
</g>
</svg>
