<?xml version="1.0" encoding="UTF-8" standalone="no"?>
<!DOCTYPE svg PUBLIC "-//W3C//DTD SVG 1.1//EN"
 "http://www.w3.org/Graphics/SVG/1.1/DTD/svg11.dtd">
<!-- Generated by graphviz version 9.0.0 (20230911.1827)
 -->
<!-- Title: Graphical Class Hierarchy Pages: 1 -->
<svg width="264pt" height="90pt"
 viewBox="0.00 0.00 263.50 90.00" xmlns="http://www.w3.org/2000/svg" xmlns:xlink="http://www.w3.org/1999/xlink">
<g id="graph0" class="graph" transform="scale(1 1) rotate(0) translate(4 86)">
<title>Graphical Class Hierarchy</title>
<!-- Node0 -->
<g id="Node000000" class="node">
<title>Node0</title>
<g id="a_Node000000"><a xlink:title=" ">
<polygon fill="#e0e0e0" stroke="#999999" points="83.5,-51 0,-51 0,-31 83.5,-31 83.5,-51"/>
<text text-anchor="middle" x="41.75" y="-37.5" font-family="Helvetica,sans-Serif" font-size="10.00">ModelSnapshot</text>
</a>
</g>
</g>
<!-- Node1 -->
<g id="Node000001" class="node">
<title>Node1</title>
<g id="a_Node000001"><a xlink:href="class_ainslie_a_p_i_1_1_migrations_1_1_local_context_model_snapshot.html" target="_top" xlink:title=" ">
<polygon fill="white" stroke="#666666" points="255.12,-82 119.88,-82 119.88,-50 255.12,-50 255.12,-82"/>
<text text-anchor="start" x="127.88" y="-68.5" font-family="Helvetica,sans-Serif" font-size="10.00">AinslieAPI.Migrations.Local</text>
<text text-anchor="middle" x="187.5" y="-56.5" font-family="Helvetica,sans-Serif" font-size="10.00">ContextModelSnapshot</text>
</a>
</g>
</g>
<!-- Node0&#45;&gt;Node1 -->
<g id="edge23_Node000000_Node000001" class="edge">
<title>Node0&#45;&gt;Node1</title>
<g id="a_edge23_Node000000_Node000001"><a xlink:title=" ">
<path fill="none" stroke="#63b8ff" d="M95.23,-50.13C103.13,-51.5 111.37,-52.93 119.52,-54.35"/>
<polygon fill="#63b8ff" stroke="#63b8ff" points="95.89,-46.69 85.43,-48.42 94.69,-53.59 95.89,-46.69"/>
</a>
</g>
</g>
<!-- Node2 -->
<g id="Node000002" class="node">
<title>Node2</title>
<g id="a_Node000002"><a xlink:href="class_ainslie_a_p_i_1_1_migrations_1_1_tdcr_1_1_tdcr_context_model_snapshot.html" target="_top" xlink:title=" ">
<polygon fill="white" stroke="#666666" points="255.5,-32 119.5,-32 119.5,0 255.5,0 255.5,-32"/>
<text text-anchor="start" x="127.5" y="-18.5" font-family="Helvetica,sans-Serif" font-size="10.00">AinslieAPI.Migrations.Tdcr.</text>
<text text-anchor="middle" x="187.5" y="-6.5" font-family="Helvetica,sans-Serif" font-size="10.00">TdcrContextModelSnapshot</text>
</a>
</g>
</g>
<!-- Node0&#45;&gt;Node2 -->
<g id="edge24_Node000000_Node000002" class="edge">
<title>Node0&#45;&gt;Node2</title>
<g id="a_edge24_Node000000_Node000002"><a xlink:title=" ">
<path fill="none" stroke="#63b8ff" d="M95.14,-31.89C102.98,-30.53 111.15,-29.1 119.25,-27.7"/>
<polygon fill="#63b8ff" stroke="#63b8ff" points="94.69,-28.41 85.43,-33.58 95.89,-35.31 94.69,-28.41"/>
</a>
</g>
</g>
</g>
</svg>
