<?xml version="1.0" encoding="UTF-8" standalone="no"?>
<!DOCTYPE svg PUBLIC "-//W3C//DTD SVG 1.1//EN"
 "http://www.w3.org/Graphics/SVG/1.1/DTD/svg11.dtd">
<!-- Generated by graphviz version 9.0.0 (20230911.1827)
 -->
<!-- Title: Graphical Class Hierarchy Pages: 1 -->
<svg width="276pt" height="340pt"
 viewBox="0.00 0.00 276.25 340.00" xmlns="http://www.w3.org/2000/svg" xmlns:xlink="http://www.w3.org/1999/xlink">
<g id="graph0" class="graph" transform="scale(1 1) rotate(0) translate(4 336)">
<title>Graphical Class Hierarchy</title>
<!-- Node0 -->
<g id="Node000000" class="node">
<title>Node0</title>
<g id="a_Node000000"><a xlink:title=" ">
<polygon fill="#e0e0e0" stroke="#999999" points="79.75,-176 0,-176 0,-156 79.75,-156 79.75,-176"/>
<text text-anchor="middle" x="39.88" y="-162.5" font-family="Helvetica,sans-Serif" font-size="10.00">ControllerBase</text>
</a>
</g>
</g>
<!-- Node1 -->
<g id="Node000001" class="node">
<title>Node1</title>
<g id="a_Node000001"><a xlink:href="class_ainslie_a_p_i_1_1_controllers_1_1_assets_controller.html" target="_top" xlink:title="Controls asset&#45;related endpoints, handling requests to fetch asset pricing data.">
<polygon fill="white" stroke="#666666" points="264.12,-332 119.88,-332 119.88,-300 264.12,-300 264.12,-332"/>
<text text-anchor="start" x="127.88" y="-318.5" font-family="Helvetica,sans-Serif" font-size="10.00">AinslieAPI.Controllers.Assets</text>
<text text-anchor="middle" x="192" y="-306.5" font-family="Helvetica,sans-Serif" font-size="10.00">Controller</text>
</a>
</g>
</g>
<!-- Node0&#45;&gt;Node1 -->
<g id="edge6_Node000000_Node000001" class="edge">
<title>Node0&#45;&gt;Node1</title>
<g id="a_edge6_Node000000_Node000001"><a xlink:title=" ">
<path fill="none" stroke="#63b8ff" d="M48.09,-186.89C58.68,-214.58 81.04,-263.17 115.75,-291 119.83,-294.27 124.36,-297.12 129.11,-299.61"/>
<polygon fill="#63b8ff" stroke="#63b8ff" points="51.5,-186.04 44.78,-177.85 44.93,-188.44 51.5,-186.04"/>
</a>
</g>
</g>
<!-- Node2 -->
<g id="Node000002" class="node">
<title>Node2</title>
<g id="a_Node000002"><a xlink:href="class_ainslie_a_p_i_1_1_controllers_1_1_auth_test_controller.html" target="_top" xlink:title=" ">
<polygon fill="white" stroke="#666666" points="258.88,-282 125.12,-282 125.12,-250 258.88,-250 258.88,-282"/>
<text text-anchor="start" x="133.12" y="-268.5" font-family="Helvetica,sans-Serif" font-size="10.00">AinslieAPI.Controllers.Auth</text>
<text text-anchor="middle" x="192" y="-256.5" font-family="Helvetica,sans-Serif" font-size="10.00">TestController</text>
</a>
</g>
</g>
<!-- Node0&#45;&gt;Node2 -->
<g id="edge7_Node000000_Node000002" class="edge">
<title>Node0&#45;&gt;Node2</title>
<g id="a_edge7_Node000000_Node000002"><a xlink:title=" ">
<path fill="none" stroke="#63b8ff" d="M55.63,-185.2C69.5,-202.05 91.68,-226.12 115.75,-241 120.9,-244.18 126.51,-247.01 132.26,-249.51"/>
<polygon fill="#63b8ff" stroke="#63b8ff" points="58.4,-183.05 49.42,-177.42 52.93,-187.42 58.4,-183.05"/>
</a>
</g>
</g>
<!-- Node3 -->
<g id="Node000003" class="node">
<title>Node3</title>
<g id="a_Node000003"><a xlink:href="class_ainslie_a_p_i_1_1_controllers_1_1_g_s_s_1_1_tdcr_controller.html" target="_top" xlink:title="Manages transactions for The Digital Currency Reserve (TDCR) within the GSS ecosystem.">
<polygon fill="white" stroke="#666666" points="260.75,-232 123.25,-232 123.25,-200 260.75,-200 260.75,-232"/>
<text text-anchor="start" x="131.25" y="-218.5" font-family="Helvetica,sans-Serif" font-size="10.00">AinslieAPI.Controllers.GSS.</text>
<text text-anchor="middle" x="192" y="-206.5" font-family="Helvetica,sans-Serif" font-size="10.00">TdcrController</text>
</a>
</g>
</g>
<!-- Node0&#45;&gt;Node3 -->
<g id="edge8_Node000000_Node000003" class="edge">
<title>Node0&#45;&gt;Node3</title>
<g id="a_edge8_Node000000_Node000003"><a xlink:title=" ">
<path fill="none" stroke="#63b8ff" d="M82.99,-180.07C93.68,-183.64 105.13,-187.46 115.75,-191 124.11,-193.78 132.99,-196.74 141.61,-199.6"/>
<polygon fill="#63b8ff" stroke="#63b8ff" points="84.23,-176.8 73.64,-176.95 82.01,-183.44 84.23,-176.8"/>
</a>
</g>
</g>
<!-- Node4 -->
<g id="Node000004" class="node">
<title>Node4</title>
<g id="a_Node000004"><a xlink:href="class_ainslie_a_p_i_1_1_controllers_1_1_green_id_controller.html" target="_top" xlink:title=" ">
<polygon fill="white" stroke="#666666" points="261.88,-182 122.12,-182 122.12,-150 261.88,-150 261.88,-182"/>
<text text-anchor="start" x="130.12" y="-168.5" font-family="Helvetica,sans-Serif" font-size="10.00">AinslieAPI.Controllers.Green</text>
<text text-anchor="middle" x="192" y="-156.5" font-family="Helvetica,sans-Serif" font-size="10.00">IdController</text>
</a>
</g>
</g>
<!-- Node0&#45;&gt;Node4 -->
<g id="edge9_Node000000_Node000004" class="edge">
<title>Node0&#45;&gt;Node4</title>
<g id="a_edge9_Node000000_Node000004"><a xlink:title=" ">
<path fill="none" stroke="#63b8ff" d="M91.17,-166C101.03,-166 111.54,-166 121.9,-166"/>
<polygon fill="#63b8ff" stroke="#63b8ff" points="91.44,-162.5 81.44,-166 91.44,-169.5 91.44,-162.5"/>
</a>
</g>
</g>
<!-- Node5 -->
<g id="Node000005" class="node">
<title>Node5</title>
<g id="a_Node000005"><a xlink:href="class_ainslie_a_p_i_1_1_controllers_1_1_logs_controller.html" target="_top" xlink:title="Controller responsible for managing log&#45;related actions, including retrieval and manipulation of log ...">
<polygon fill="white" stroke="#666666" points="259.25,-132 124.75,-132 124.75,-100 259.25,-100 259.25,-132"/>
<text text-anchor="start" x="132.75" y="-118.5" font-family="Helvetica,sans-Serif" font-size="10.00">AinslieAPI.Controllers.Logs</text>
<text text-anchor="middle" x="192" y="-106.5" font-family="Helvetica,sans-Serif" font-size="10.00">Controller</text>
</a>
</g>
</g>
<!-- Node0&#45;&gt;Node5 -->
<g id="edge10_Node000000_Node000005" class="edge">
<title>Node0&#45;&gt;Node5</title>
<g id="a_edge10_Node000000_Node000005"><a xlink:title=" ">
<path fill="none" stroke="#63b8ff" d="M82.99,-151.93C93.68,-148.36 105.13,-144.54 115.75,-141 124.11,-138.22 132.99,-135.26 141.61,-132.4"/>
<polygon fill="#63b8ff" stroke="#63b8ff" points="82.01,-148.56 73.64,-155.05 84.23,-155.2 82.01,-148.56"/>
</a>
</g>
</g>
<!-- Node6 -->
<g id="Node000006" class="node">
<title>Node6</title>
<g id="a_Node000006"><a xlink:href="class_ainslie_a_p_i_1_1_controllers_1_1_products_controller.html" target="_top" xlink:title=" ">
<polygon fill="white" stroke="#666666" points="268.25,-82 115.75,-82 115.75,-50 268.25,-50 268.25,-82"/>
<text text-anchor="start" x="123.75" y="-68.5" font-family="Helvetica,sans-Serif" font-size="10.00">AinslieAPI.Controllers.Products</text>
<text text-anchor="middle" x="192" y="-56.5" font-family="Helvetica,sans-Serif" font-size="10.00">Controller</text>
</a>
</g>
</g>
<!-- Node0&#45;&gt;Node6 -->
<g id="edge11_Node000000_Node000006" class="edge">
<title>Node0&#45;&gt;Node6</title>
<g id="a_edge11_Node000000_Node000006"><a xlink:title=" ">
<path fill="none" stroke="#63b8ff" d="M55.63,-146.8C69.5,-129.95 91.68,-105.88 115.75,-91 120.9,-87.82 126.51,-84.99 132.26,-82.49"/>
<polygon fill="#63b8ff" stroke="#63b8ff" points="52.93,-144.58 49.42,-154.58 58.4,-148.95 52.93,-144.58"/>
</a>
</g>
</g>
<!-- Node7 -->
<g id="Node000007" class="node">
<title>Node7</title>
<g id="a_Node000007"><a xlink:href="class_ainslie_a_p_i_1_1_controllers_1_1_token_controller.html" target="_top" xlink:title="Controller responsible for generating authentication tokens for authorised users.">
<polygon fill="white" stroke="#666666" points="261.88,-32 122.12,-32 122.12,0 261.88,0 261.88,-32"/>
<text text-anchor="start" x="130.12" y="-18.5" font-family="Helvetica,sans-Serif" font-size="10.00">AinslieAPI.Controllers.Token</text>
<text text-anchor="middle" x="192" y="-6.5" font-family="Helvetica,sans-Serif" font-size="10.00">Controller</text>
</a>
</g>
</g>
<!-- Node0&#45;&gt;Node7 -->
<g id="edge12_Node000000_Node000007" class="edge">
<title>Node0&#45;&gt;Node7</title>
<g id="a_edge12_Node000000_Node000007"><a xlink:title=" ">
<path fill="none" stroke="#63b8ff" d="M48.09,-145.11C58.68,-117.42 81.04,-68.83 115.75,-41 119.83,-37.73 124.36,-34.88 129.11,-32.39"/>
<polygon fill="#63b8ff" stroke="#63b8ff" points="44.93,-143.56 44.78,-154.15 51.5,-145.96 44.93,-143.56"/>
</a>
</g>
</g>
</g>
</svg>
