<?xml version="1.0" encoding="UTF-8" standalone="no"?>
<!DOCTYPE svg PUBLIC "-//W3C//DTD SVG 1.1//EN"
 "http://www.w3.org/Graphics/SVG/1.1/DTD/svg11.dtd">
<!-- Generated by graphviz version 9.0.0 (20230911.1827)
 -->
<!-- Title: Graphical Class Hierarchy Pages: 1 -->
<svg width="329pt" height="90pt"
 viewBox="0.00 0.00 328.75 90.00" xmlns="http://www.w3.org/2000/svg" xmlns:xlink="http://www.w3.org/1999/xlink">
<g id="graph0" class="graph" transform="scale(1 1) rotate(0) translate(4 86)">
<title>Graphical Class Hierarchy</title>
<!-- Node0 -->
<g id="Node000000" class="node">
<title>Node0</title>
<g id="a_Node000000"><a xlink:title=" ">
<polygon fill="#e0e0e0" stroke="#999999" points="74.88,-70 22.12,-70 22.12,-50 74.88,-50 74.88,-70"/>
<text text-anchor="middle" x="48.5" y="-56.5" font-family="Helvetica,sans-Serif" font-size="10.00">Attribute</text>
</a>
</g>
</g>
<!-- Node1 -->
<g id="Node000001" class="node">
<title>Node1</title>
<g id="a_Node000001"><a xlink:href="class_ainslie_a_p_i_1_1_authentication_1_1_authorization_1_1_allow_anonymous_attribute.html" target="_top" xlink:title=" ">
<polygon fill="white" stroke="#666666" points="320.75,-82 133,-82 133,-50 320.75,-50 320.75,-82"/>
<text text-anchor="start" x="141" y="-68.5" font-family="Helvetica,sans-Serif" font-size="10.00">AinslieAPI.Authentication.</text>
<text text-anchor="middle" x="226.88" y="-56.5" font-family="Helvetica,sans-Serif" font-size="10.00">Authorization.AllowAnonymousAttribute</text>
</a>
</g>
</g>
<!-- Node0&#45;&gt;Node1 -->
<g id="edge1_Node000000_Node000001" class="edge">
<title>Node0&#45;&gt;Node1</title>
<g id="a_edge1_Node000000_Node000001"><a xlink:title=" ">
<path fill="none" stroke="#63b8ff" d="M86.42,-61.26C100.06,-61.72 116.19,-62.27 132.57,-62.83"/>
<polygon fill="#63b8ff" stroke="#63b8ff" points="86.77,-57.77 76.66,-60.92 86.53,-64.76 86.77,-57.77"/>
</a>
</g>
</g>
<!-- Node2 -->
<g id="Node000002" class="node">
<title>Node2</title>
<g id="a_Node000002"><a xlink:href="class_ainslie_a_p_i_1_1_authentication_1_1_authorization_1_1_api_authorize_attribute.html" target="_top" xlink:title="Custom authorization attribute to enforce API access control based on user roles.">
<polygon fill="white" stroke="#666666" points="311,-32 142.75,-32 142.75,0 311,0 311,-32"/>
<text text-anchor="start" x="150.75" y="-18.5" font-family="Helvetica,sans-Serif" font-size="10.00">AinslieAPI.Authentication.</text>
<text text-anchor="middle" x="226.88" y="-6.5" font-family="Helvetica,sans-Serif" font-size="10.00">Authorization.ApiAuthorizeAttribute</text>
</a>
</g>
</g>
<!-- Node0&#45;&gt;Node2 -->
<g id="edge2_Node000000_Node000002" class="edge">
<title>Node0&#45;&gt;Node2</title>
<g id="a_edge2_Node000000_Node000002"><a xlink:title=" ">
<path fill="none" stroke="#63b8ff" d="M86.28,-50.83C107.55,-45.52 134.95,-38.68 159.83,-32.48"/>
<polygon fill="#63b8ff" stroke="#63b8ff" points="85.47,-47.42 76.61,-53.24 87.16,-54.21 85.47,-47.42"/>
</a>
</g>
</g>
<!-- Node3 -->
<g id="Node000003" class="node">
<title>Node3</title>
<g id="a_Node000003"><a xlink:title=" ">
<polygon fill="#e0e0e0" stroke="#999999" points="97,-26 0,-26 0,-6 97,-6 97,-26"/>
<text text-anchor="middle" x="48.5" y="-12.5" font-family="Helvetica,sans-Serif" font-size="10.00">IAuthorizationFilter</text>
</a>
</g>
</g>
<!-- Node3&#45;&gt;Node2 -->
<g id="edge3_Node000003_Node000002" class="edge">
<title>Node3&#45;&gt;Node2</title>
<g id="a_edge3_Node000003_Node000002"><a xlink:title=" ">
<path fill="none" stroke="#63b8ff" d="M108.7,-16C119.54,-16 131.03,-16 142.43,-16"/>
<polygon fill="#63b8ff" stroke="#63b8ff" points="108.74,-12.5 98.74,-16 108.74,-19.5 108.74,-12.5"/>
</a>
</g>
</g>
</g>
</svg>
