<?xml version="1.0" encoding="UTF-8" standalone="no"?>
<!DOCTYPE svg PUBLIC "-//W3C//DTD SVG 1.1//EN"
 "http://www.w3.org/Graphics/SVG/1.1/DTD/svg11.dtd">
<!-- Generated by graphviz version 9.0.0 (20230911.1827)
 -->
<!-- Title: flatted.stringify Pages: 1 -->
<svg width="450pt" height="142pt"
 viewBox="0.00 0.00 450.00 142.00" xmlns="http://www.w3.org/2000/svg" xmlns:xlink="http://www.w3.org/1999/xlink">

<svg id="main" version="1.1" xmlns="http://www.w3.org/2000/svg" xmlns:xlink="http://www.w3.org/1999/xlink" xml:space="preserve" onload="init(evt)">
<style type="text/css"><![CDATA[
.node, .edge {opacity: 0.7;}
.node.selected, .edge.selected {opacity: 1;}
.edge:hover path { stroke: red; }
.edge:hover polygon { stroke: red; fill: red; }
]]></style>
<script type="application/ecmascript" xlink:href="svg.min.js"/>
<svg id="graph" class="graph">
<g id="graph0" class="graph" transform="scale(1 1) rotate(0) translate(4 138)">
<title>flatted.stringify</title>
<!-- Node1 -->
<g id="Node000001" class="node">
<title>Node1</title>
<g id="a_Node000001"><a xlink:title=" ">
<polygon fill="#999999" stroke="#666666" points="79,-96 0,-96 0,-76 79,-76 79,-96"/>
<text text-anchor="middle" x="39.5" y="-82.5" font-family="Helvetica,sans-Serif" font-size="10.00">flatted.stringify</text>
</a>
</g>
</g>
<!-- Node2 -->
<g id="Node000002" class="node">
<title>Node2</title>
<g id="a_Node000002"><a xlink:href="namespaceflatted.html#af05ab31f0e87d7cccd13bde6f8c4b0bf" target="_top" xlink:title=" ">
<polygon fill="white" stroke="#666666" points="434.12,-134 360.38,-134 360.38,-114 434.12,-114 434.12,-134"/>
<text text-anchor="middle" x="397.25" y="-120.5" font-family="Helvetica,sans-Serif" font-size="10.00">flatted._index</text>
</a>
</g>
</g>
<!-- Node1&#45;&gt;Node2 -->
<g id="edge1_Node000001_Node000002" class="edge">
<title>Node1&#45;&gt;Node2</title>
<g id="a_edge1_Node000001_Node000002"><a xlink:title=" ">
<path fill="none" stroke="#63b8ff" d="M79.25,-90.14C144.84,-97.15 277.53,-111.32 348.66,-118.92"/>
<polygon fill="#63b8ff" stroke="#63b8ff" points="348.13,-122.38 358.44,-119.96 348.87,-115.42 348.13,-122.38"/>
</a>
</g>
</g>
<!-- Node3 -->
<g id="Node000003" class="node">
<title>Node3</title>
<g id="a_Node000003"><a xlink:href="namespaceflatted.html#a41da9bdca5096c88843590ce405b907f" target="_top" xlink:title=" ">
<polygon fill="white" stroke="#666666" points="206,-77 115,-77 115,-57 206,-57 206,-77"/>
<text text-anchor="middle" x="160.5" y="-63.5" font-family="Helvetica,sans-Serif" font-size="10.00">flatted._transform</text>
</a>
</g>
</g>
<!-- Node1&#45;&gt;Node3 -->
<g id="edge2_Node000001_Node000003" class="edge">
<title>Node1&#45;&gt;Node3</title>
<g id="a_edge2_Node000001_Node000003"><a xlink:title=" ">
<path fill="none" stroke="#63b8ff" d="M79.47,-79.78C87.11,-78.56 95.28,-77.25 103.36,-75.96"/>
<polygon fill="#63b8ff" stroke="#63b8ff" points="103.85,-79.43 113.17,-74.4 102.74,-72.52 103.85,-79.43"/>
</a>
</g>
</g>
<!-- Node4 -->
<g id="Node000004" class="node">
<title>Node4</title>
<g id="a_Node000004"><a xlink:href="namespaceflatted.html#aa9e0f6bdd410c981176fd35934135275" target="_top" xlink:title=" ">
<polygon fill="white" stroke="#666666" points="439.75,-20 354.75,-20 354.75,0 439.75,0 439.75,-20"/>
<text text-anchor="middle" x="397.25" y="-6.5" font-family="Helvetica,sans-Serif" font-size="10.00">flatted._is_array</text>
</a>
</g>
</g>
<!-- Node3&#45;&gt;Node4 -->
<g id="edge3_Node000003_Node000004" class="edge">
<title>Node3&#45;&gt;Node4</title>
<g id="a_edge3_Node000003_Node000004"><a xlink:title=" ">
<path fill="none" stroke="#63b8ff" d="M179.39,-56.52C195.29,-47.7 219.44,-35.53 242,-29 274.86,-19.49 313.01,-14.74 343.15,-12.36"/>
<polygon fill="#63b8ff" stroke="#63b8ff" points="343.05,-15.88 352.77,-11.67 342.55,-8.9 343.05,-15.88"/>
</a>
</g>
</g>
<!-- Node5 -->
<g id="Node000005" class="node">
<title>Node5</title>
<g id="a_Node000005"><a xlink:href="namespaceflatted.html#af2ee527c66c20e7e38440129fa094067" target="_top" xlink:title=" ">
<polygon fill="white" stroke="#666666" points="442,-96 352.5,-96 352.5,-76 442,-76 442,-96"/>
<text text-anchor="middle" x="397.25" y="-82.5" font-family="Helvetica,sans-Serif" font-size="10.00">flatted._is_object</text>
</a>
</g>
</g>
<!-- Node3&#45;&gt;Node5 -->
<g id="edge4_Node000003_Node000005" class="edge">
<title>Node3&#45;&gt;Node5</title>
<g id="a_edge4_Node000003_Node000005"><a xlink:title=" ">
<path fill="none" stroke="#63b8ff" d="M206.48,-70.64C244.74,-73.74 299.81,-78.19 340.79,-81.51"/>
<polygon fill="#63b8ff" stroke="#63b8ff" points="340.45,-85 350.7,-82.31 341.02,-78.02 340.45,-85"/>
</a>
</g>
</g>
<!-- Node6 -->
<g id="Node000006" class="node">
<title>Node6</title>
<g id="a_Node000006"><a xlink:href="namespaceflatted.html#a1c57a34a7bf724a855bd3f2a1fd98fc7" target="_top" xlink:title=" ">
<polygon fill="white" stroke="#666666" points="316.5,-58 242,-58 242,-38 316.5,-38 316.5,-58"/>
<text text-anchor="middle" x="279.25" y="-44.5" font-family="Helvetica,sans-Serif" font-size="10.00">flatted._relate</text>
</a>
</g>
</g>
<!-- Node3&#45;&gt;Node6 -->
<g id="edge5_Node000003_Node000006" class="edge">
<title>Node3&#45;&gt;Node6</title>
<g id="a_edge5_Node000003_Node000006"><a xlink:title=" ">
<path fill="none" stroke="#63b8ff" d="M206.3,-59.71C214.26,-58.41 222.57,-57.06 230.6,-55.75"/>
<polygon fill="#63b8ff" stroke="#63b8ff" points="230.9,-59.25 240.21,-54.19 229.77,-52.34 230.9,-59.25"/>
</a>
</g>
</g>
<!-- Node6&#45;&gt;Node2 -->
<g id="edge6_Node000006_Node000002" class="edge">
<title>Node6&#45;&gt;Node2</title>
<g id="a_edge6_Node000006_Node000002"><a xlink:title=" ">
<path fill="none" stroke="#63b8ff" d="M291.34,-58.26C304.98,-70.5 329.19,-91.06 352.5,-105 354.64,-106.28 356.87,-107.52 359.16,-108.71"/>
<polygon fill="#63b8ff" stroke="#63b8ff" points="357.44,-111.76 367.97,-112.96 360.48,-105.46 357.44,-111.76"/>
</a>
</g>
</g>
<!-- Node6&#45;&gt;Node4 -->
<g id="edge7_Node000006_Node000004" class="edge">
<title>Node6&#45;&gt;Node4</title>
<g id="a_edge7_Node000006_Node000004"><a xlink:title=" ">
<path fill="none" stroke="#63b8ff" d="M312.25,-37.52C325.06,-33.32 340,-28.43 353.69,-23.94"/>
<polygon fill="#63b8ff" stroke="#63b8ff" points="354.5,-27.36 362.91,-20.92 352.32,-20.71 354.5,-27.36"/>
</a>
</g>
</g>
<!-- Node6&#45;&gt;Node5 -->
<g id="edge8_Node000006_Node000005" class="edge">
<title>Node6&#45;&gt;Node5</title>
<g id="a_edge8_Node000006_Node000005"><a xlink:title=" ">
<path fill="none" stroke="#63b8ff" d="M312.25,-58.48C325.06,-62.68 340,-67.57 353.69,-72.06"/>
<polygon fill="#63b8ff" stroke="#63b8ff" points="352.32,-75.29 362.91,-75.08 354.5,-68.64 352.32,-75.29"/>
</a>
</g>
</g>
<!-- Node7 -->
<g id="Node000007" class="node">
<title>Node7</title>
<g id="a_Node000007"><a xlink:href="namespaceflatted.html#a2c64f13b3d861c205c821e03fcd4376f" target="_top" xlink:title=" ">
<polygon fill="white" stroke="#666666" points="440.88,-58 353.62,-58 353.62,-38 440.88,-38 440.88,-58"/>
<text text-anchor="middle" x="397.25" y="-44.5" font-family="Helvetica,sans-Serif" font-size="10.00">flatted._is_string</text>
</a>
</g>
</g>
<!-- Node6&#45;&gt;Node7 -->
<g id="edge9_Node000006_Node000007" class="edge">
<title>Node6&#45;&gt;Node7</title>
<g id="a_edge9_Node000006_Node000007"><a xlink:title=" ">
<path fill="none" stroke="#63b8ff" d="M316.95,-48C324.89,-48 333.45,-48 341.91,-48"/>
<polygon fill="#63b8ff" stroke="#63b8ff" points="341.79,-51.5 351.79,-48 341.79,-44.5 341.79,-51.5"/>
</a>
</g>
</g>
</g>
</svg>
</svg>

<style type='text/css'>
<![CDATA[
[data-mouse-over-selected='false'] { opacity: 0.7; }
[data-mouse-over-selected='true']  { opacity: 1.0; }
]]>
</style>
<script type="application/ecmascript"><![CDATA[
document.addEventListener('DOMContentLoaded', (event) => {
  highlightEdges();
  highlightAdjacentNodes();
});
]]></script>
</svg>
