<?xml version="1.0" encoding="UTF-8" standalone="no"?>
<!DOCTYPE svg PUBLIC "-//W3C//DTD SVG 1.1//EN"
 "http://www.w3.org/Graphics/SVG/1.1/DTD/svg11.dtd">
<!-- Generated by graphviz version 9.0.0 (20230911.1827)
 -->
<!-- Title: flatted._relate Pages: 1 -->
<svg width="208pt" height="142pt"
 viewBox="0.00 0.00 208.00 142.00" xmlns="http://www.w3.org/2000/svg" xmlns:xlink="http://www.w3.org/1999/xlink">

<svg id="main" version="1.1" xmlns="http://www.w3.org/2000/svg" xmlns:xlink="http://www.w3.org/1999/xlink" xml:space="preserve" onload="init(evt)">
<style type="text/css"><![CDATA[
.node, .edge {opacity: 0.7;}
.node.selected, .edge.selected {opacity: 1;}
.edge:hover path { stroke: red; }
.edge:hover polygon { stroke: red; fill: red; }
]]></style>
<script type="application/ecmascript" xlink:href="svg.min.js"/>
<svg id="graph" class="graph">
<g id="graph0" class="graph" transform="scale(1 1) rotate(0) translate(4 138)">
<title>flatted._relate</title>
<!-- Node1 -->
<g id="Node000001" class="node">
<title>Node1</title>
<g id="a_Node000001"><a xlink:title=" ">
<polygon fill="#999999" stroke="#666666" points="74.5,-77 0,-77 0,-57 74.5,-57 74.5,-77"/>
<text text-anchor="middle" x="37.25" y="-63.5" font-family="Helvetica,sans-Serif" font-size="10.00">flatted._relate</text>
</a>
</g>
</g>
<!-- Node2 -->
<g id="Node000002" class="node">
<title>Node2</title>
<g id="a_Node000002"><a xlink:href="namespaceflatted.html#af05ab31f0e87d7cccd13bde6f8c4b0bf" target="_top" xlink:title=" ">
<polygon fill="white" stroke="#666666" points="192.12,-134 118.38,-134 118.38,-114 192.12,-114 192.12,-134"/>
<text text-anchor="middle" x="155.25" y="-120.5" font-family="Helvetica,sans-Serif" font-size="10.00">flatted._index</text>
</a>
</g>
</g>
<!-- Node1&#45;&gt;Node2 -->
<g id="edge1_Node000001_Node000002" class="edge">
<title>Node1&#45;&gt;Node2</title>
<g id="a_edge1_Node000001_Node000002"><a xlink:title=" ">
<path fill="none" stroke="#63b8ff" d="M57.07,-77.39C71.54,-85.26 92.1,-96.18 110.5,-105 113.27,-106.33 116.17,-107.67 119.08,-109"/>
<polygon fill="#63b8ff" stroke="#63b8ff" points="117.63,-112.19 128.19,-113.05 120.48,-105.79 117.63,-112.19"/>
</a>
</g>
</g>
<!-- Node3 -->
<g id="Node000003" class="node">
<title>Node3</title>
<g id="a_Node000003"><a xlink:href="namespaceflatted.html#aa9e0f6bdd410c981176fd35934135275" target="_top" xlink:title=" ">
<polygon fill="white" stroke="#666666" points="197.75,-96 112.75,-96 112.75,-76 197.75,-76 197.75,-96"/>
<text text-anchor="middle" x="155.25" y="-82.5" font-family="Helvetica,sans-Serif" font-size="10.00">flatted._is_array</text>
</a>
</g>
</g>
<!-- Node1&#45;&gt;Node3 -->
<g id="edge2_Node000001_Node000003" class="edge">
<title>Node1&#45;&gt;Node3</title>
<g id="a_edge2_Node000001_Node000003"><a xlink:title=" ">
<path fill="none" stroke="#63b8ff" d="M74.95,-73.01C83.35,-74.39 92.45,-75.88 101.38,-77.34"/>
<polygon fill="#63b8ff" stroke="#63b8ff" points="100.61,-80.76 111.04,-78.92 101.74,-73.85 100.61,-80.76"/>
</a>
</g>
</g>
<!-- Node4 -->
<g id="Node000004" class="node">
<title>Node4</title>
<g id="a_Node000004"><a xlink:href="namespaceflatted.html#af2ee527c66c20e7e38440129fa094067" target="_top" xlink:title=" ">
<polygon fill="white" stroke="#666666" points="200,-58 110.5,-58 110.5,-38 200,-38 200,-58"/>
<text text-anchor="middle" x="155.25" y="-44.5" font-family="Helvetica,sans-Serif" font-size="10.00">flatted._is_object</text>
</a>
</g>
</g>
<!-- Node1&#45;&gt;Node4 -->
<g id="edge3_Node000001_Node000004" class="edge">
<title>Node1&#45;&gt;Node4</title>
<g id="a_edge3_Node000001_Node000004"><a xlink:title=" ">
<path fill="none" stroke="#63b8ff" d="M74.95,-60.99C82.53,-59.75 90.68,-58.41 98.75,-57.09"/>
<polygon fill="#63b8ff" stroke="#63b8ff" points="99.27,-60.55 108.57,-55.48 98.14,-53.64 99.27,-60.55"/>
</a>
</g>
</g>
<!-- Node5 -->
<g id="Node000005" class="node">
<title>Node5</title>
<g id="a_Node000005"><a xlink:href="namespaceflatted.html#a2c64f13b3d861c205c821e03fcd4376f" target="_top" xlink:title=" ">
<polygon fill="white" stroke="#666666" points="198.88,-20 111.62,-20 111.62,0 198.88,0 198.88,-20"/>
<text text-anchor="middle" x="155.25" y="-6.5" font-family="Helvetica,sans-Serif" font-size="10.00">flatted._is_string</text>
</a>
</g>
</g>
<!-- Node1&#45;&gt;Node5 -->
<g id="edge4_Node000001_Node000005" class="edge">
<title>Node1&#45;&gt;Node5</title>
<g id="a_edge4_Node000001_Node000005"><a xlink:title=" ">
<path fill="none" stroke="#63b8ff" d="M57.07,-56.61C71.54,-48.74 92.1,-37.82 110.5,-29 113.27,-27.67 116.17,-26.33 119.08,-25"/>
<polygon fill="#63b8ff" stroke="#63b8ff" points="120.48,-28.21 128.19,-20.95 117.63,-21.81 120.48,-28.21"/>
</a>
</g>
</g>
</g>
</svg>
</svg>

<style type='text/css'>
<![CDATA[
[data-mouse-over-selected='false'] { opacity: 0.7; }
[data-mouse-over-selected='true']  { opacity: 1.0; }
]]>
</style>
<script type="application/ecmascript"><![CDATA[
document.addEventListener('DOMContentLoaded', (event) => {
  highlightEdges();
  highlightAdjacentNodes();
});
]]></script>
</svg>
