<?xml version="1.0" encoding="UTF-8" standalone="no"?>
<!DOCTYPE svg PUBLIC "-//W3C//DTD SVG 1.1//EN"
 "http://www.w3.org/Graphics/SVG/1.1/DTD/svg11.dtd">
<!-- Generated by graphviz version 9.0.0 (20230911.1827)
 -->
<!-- Title: flatted._transform Pages: 1 -->
<svg width="335pt" height="142pt"
 viewBox="0.00 0.00 335.00 142.00" xmlns="http://www.w3.org/2000/svg" xmlns:xlink="http://www.w3.org/1999/xlink">

<svg id="main" version="1.1" xmlns="http://www.w3.org/2000/svg" xmlns:xlink="http://www.w3.org/1999/xlink" xml:space="preserve" onload="init(evt)">
<style type="text/css"><![CDATA[
.node, .edge {opacity: 0.7;}
.node.selected, .edge.selected {opacity: 1;}
.edge:hover path { stroke: red; }
.edge:hover polygon { stroke: red; fill: red; }
]]></style>
<script type="application/ecmascript" xlink:href="svg.min.js"/>
<svg id="graph" class="graph">
<g id="graph0" class="graph" transform="scale(1 1) rotate(0) translate(4 138)">
<title>flatted._transform</title>
<!-- Node1 -->
<g id="Node000001" class="node">
<title>Node1</title>
<g id="a_Node000001"><a xlink:title=" ">
<polygon fill="#999999" stroke="#666666" points="91,-96 0,-96 0,-76 91,-76 91,-96"/>
<text text-anchor="middle" x="45.5" y="-82.5" font-family="Helvetica,sans-Serif" font-size="10.00">flatted._transform</text>
</a>
</g>
</g>
<!-- Node2 -->
<g id="Node000002" class="node">
<title>Node2</title>
<g id="a_Node000002"><a xlink:href="namespaceflatted.html#aa9e0f6bdd410c981176fd35934135275" target="_top" xlink:title=" ">
<polygon fill="white" stroke="#666666" points="324.75,-134 239.75,-134 239.75,-114 324.75,-114 324.75,-134"/>
<text text-anchor="middle" x="282.25" y="-120.5" font-family="Helvetica,sans-Serif" font-size="10.00">flatted._is_array</text>
</a>
</g>
</g>
<!-- Node1&#45;&gt;Node2 -->
<g id="edge1_Node000001_Node000002" class="edge">
<title>Node1&#45;&gt;Node2</title>
<g id="a_edge1_Node000001_Node000002"><a xlink:title=" ">
<path fill="none" stroke="#63b8ff" d="M91.18,-93.92C102.84,-95.94 115.38,-98.09 127,-100 160.67,-105.55 198.54,-111.44 228.32,-116"/>
<polygon fill="#63b8ff" stroke="#63b8ff" points="227.41,-119.4 237.82,-117.45 228.46,-112.48 227.41,-119.4"/>
</a>
</g>
</g>
<!-- Node3 -->
<g id="Node000003" class="node">
<title>Node3</title>
<g id="a_Node000003"><a xlink:href="namespaceflatted.html#af2ee527c66c20e7e38440129fa094067" target="_top" xlink:title=" ">
<polygon fill="white" stroke="#666666" points="327,-96 237.5,-96 237.5,-76 327,-76 327,-96"/>
<text text-anchor="middle" x="282.25" y="-82.5" font-family="Helvetica,sans-Serif" font-size="10.00">flatted._is_object</text>
</a>
</g>
</g>
<!-- Node1&#45;&gt;Node3 -->
<g id="edge2_Node000001_Node000003" class="edge">
<title>Node1&#45;&gt;Node3</title>
<g id="a_edge2_Node000001_Node000003"><a xlink:title=" ">
<path fill="none" stroke="#63b8ff" d="M91.48,-86C129.74,-86 184.81,-86 225.79,-86"/>
<polygon fill="#63b8ff" stroke="#63b8ff" points="225.7,-89.5 235.7,-86 225.7,-82.5 225.7,-89.5"/>
</a>
</g>
</g>
<!-- Node4 -->
<g id="Node000004" class="node">
<title>Node4</title>
<g id="a_Node000004"><a xlink:href="namespaceflatted.html#a1c57a34a7bf724a855bd3f2a1fd98fc7" target="_top" xlink:title=" ">
<polygon fill="white" stroke="#666666" points="201.5,-58 127,-58 127,-38 201.5,-38 201.5,-58"/>
<text text-anchor="middle" x="164.25" y="-44.5" font-family="Helvetica,sans-Serif" font-size="10.00">flatted._relate</text>
</a>
</g>
</g>
<!-- Node1&#45;&gt;Node4 -->
<g id="edge3_Node000001_Node000004" class="edge">
<title>Node1&#45;&gt;Node4</title>
<g id="a_edge3_Node000001_Node000004"><a xlink:title=" ">
<path fill="none" stroke="#63b8ff" d="M78.71,-75.52C91.6,-71.32 106.63,-66.43 120.42,-61.94"/>
<polygon fill="#63b8ff" stroke="#63b8ff" points="121.28,-65.34 129.7,-58.92 119.11,-58.69 121.28,-65.34"/>
</a>
</g>
</g>
<!-- Node4&#45;&gt;Node2 -->
<g id="edge5_Node000004_Node000002" class="edge">
<title>Node4&#45;&gt;Node2</title>
<g id="a_edge5_Node000004_Node000002"><a xlink:title=" ">
<path fill="none" stroke="#63b8ff" d="M176.34,-58.26C189.98,-70.5 214.19,-91.06 237.5,-105 239.64,-106.28 241.87,-107.52 244.16,-108.71"/>
<polygon fill="#63b8ff" stroke="#63b8ff" points="242.44,-111.76 252.97,-112.96 245.48,-105.46 242.44,-111.76"/>
</a>
</g>
</g>
<!-- Node4&#45;&gt;Node3 -->
<g id="edge6_Node000004_Node000003" class="edge">
<title>Node4&#45;&gt;Node3</title>
<g id="a_edge6_Node000004_Node000003"><a xlink:title=" ">
<path fill="none" stroke="#63b8ff" d="M197.25,-58.48C210.06,-62.68 225,-67.57 238.69,-72.06"/>
<polygon fill="#63b8ff" stroke="#63b8ff" points="237.32,-75.29 247.91,-75.08 239.5,-68.64 237.32,-75.29"/>
</a>
</g>
</g>
<!-- Node5 -->
<g id="Node000005" class="node">
<title>Node5</title>
<g id="a_Node000005"><a xlink:href="namespaceflatted.html#af05ab31f0e87d7cccd13bde6f8c4b0bf" target="_top" xlink:title=" ">
<polygon fill="white" stroke="#666666" points="319.12,-58 245.38,-58 245.38,-38 319.12,-38 319.12,-58"/>
<text text-anchor="middle" x="282.25" y="-44.5" font-family="Helvetica,sans-Serif" font-size="10.00">flatted._index</text>
</a>
</g>
</g>
<!-- Node4&#45;&gt;Node5 -->
<g id="edge4_Node000004_Node000005" class="edge">
<title>Node4&#45;&gt;Node5</title>
<g id="a_edge4_Node000004_Node000005"><a xlink:title=" ">
<path fill="none" stroke="#63b8ff" d="M201.95,-48C212.09,-48 223.24,-48 233.89,-48"/>
<polygon fill="#63b8ff" stroke="#63b8ff" points="233.67,-51.5 243.67,-48 233.67,-44.5 233.67,-51.5"/>
</a>
</g>
</g>
<!-- Node6 -->
<g id="Node000006" class="node">
<title>Node6</title>
<g id="a_Node000006"><a xlink:href="namespaceflatted.html#a2c64f13b3d861c205c821e03fcd4376f" target="_top" xlink:title=" ">
<polygon fill="white" stroke="#666666" points="325.88,-20 238.62,-20 238.62,0 325.88,0 325.88,-20"/>
<text text-anchor="middle" x="282.25" y="-6.5" font-family="Helvetica,sans-Serif" font-size="10.00">flatted._is_string</text>
</a>
</g>
</g>
<!-- Node4&#45;&gt;Node6 -->
<g id="edge7_Node000004_Node000006" class="edge">
<title>Node4&#45;&gt;Node6</title>
<g id="a_edge7_Node000004_Node000006"><a xlink:title=" ">
<path fill="none" stroke="#63b8ff" d="M197.25,-37.52C210.06,-33.32 225,-28.43 238.69,-23.94"/>
<polygon fill="#63b8ff" stroke="#63b8ff" points="239.5,-27.36 247.91,-20.92 237.32,-20.71 239.5,-27.36"/>
</a>
</g>
</g>
</g>
</svg>
</svg>

<style type='text/css'>
<![CDATA[
[data-mouse-over-selected='false'] { opacity: 0.7; }
[data-mouse-over-selected='true']  { opacity: 1.0; }
]]>
</style>
<script type="application/ecmascript"><![CDATA[
document.addEventListener('DOMContentLoaded', (event) => {
  highlightEdges();
  highlightAdjacentNodes();
});
]]></script>
</svg>
