<?xml version="1.0" encoding="UTF-8" standalone="no"?>
<!DOCTYPE svg PUBLIC "-//W3C//DTD SVG 1.1//EN"
 "http://www.w3.org/Graphics/SVG/1.1/DTD/svg11.dtd">
<!-- Generated by graphviz version 9.0.0 (20230911.1827)
 -->
<!-- Title: flatted._loop Pages: 1 -->
<svg width="313pt" height="142pt"
 viewBox="0.00 0.00 312.50 142.00" xmlns="http://www.w3.org/2000/svg" xmlns:xlink="http://www.w3.org/1999/xlink">

<svg id="main" version="1.1" xmlns="http://www.w3.org/2000/svg" xmlns:xlink="http://www.w3.org/1999/xlink" xml:space="preserve" onload="init(evt)">
<style type="text/css"><![CDATA[
.node, .edge {opacity: 0.7;}
.node.selected, .edge.selected {opacity: 1;}
.edge:hover path { stroke: red; }
.edge:hover polygon { stroke: red; fill: red; }
]]></style>
<script type="application/ecmascript" xlink:href="svg.min.js"/>
<svg id="graph" class="graph">
<g id="graph0" class="graph" transform="scale(1 1) rotate(0) translate(4 138)">
<title>flatted._loop</title>
<!-- Node1 -->
<g id="Node000001" class="node">
<title>Node1</title>
<g id="a_Node000001"><a xlink:title=" ">
<polygon fill="#999999" stroke="#666666" points="68.5,-77 0,-77 0,-57 68.5,-57 68.5,-77"/>
<text text-anchor="middle" x="34.25" y="-63.5" font-family="Helvetica,sans-Serif" font-size="10.00">flatted._loop</text>
</a>
</g>
</g>
<!-- Node2 -->
<g id="Node000002" class="node">
<title>Node2</title>
<g id="a_Node000002"><a xlink:href="namespaceflatted.html#af74e45c06efe798d934f5a9a643329ec" target="_top" xlink:title=" ">
<polygon fill="white" stroke="#666666" points="165.5,-77 104.5,-77 104.5,-57 165.5,-57 165.5,-77"/>
<text text-anchor="middle" x="135" y="-63.5" font-family="Helvetica,sans-Serif" font-size="10.00">flatted._ref</text>
</a>
</g>
</g>
<!-- Node1&#45;&gt;Node2 -->
<g id="edge1_Node000001_Node000002" class="edge">
<title>Node1&#45;&gt;Node2</title>
<g id="a_edge1_Node000001_Node000002"><a xlink:title=" ">
<path fill="none" stroke="#63b8ff" d="M68.96,-60.56C76.62,-60.25 84.84,-60.17 92.77,-60.33"/>
<polygon fill="#63b8ff" stroke="#63b8ff" points="92.45,-63.82 102.57,-60.68 92.7,-56.83 92.45,-63.82"/>
</a>
</g>
</g>
<!-- Node2&#45;&gt;Node1 -->
<g id="edge5_Node000002_Node000001" class="edge">
<title>Node2&#45;&gt;Node1</title>
<g id="a_edge5_Node000002_Node000001"><a xlink:title=" ">
<path fill="none" stroke="#63b8ff" d="M104.08,-73.26C96.55,-73.66 88.29,-73.81 80.2,-73.73"/>
<polygon fill="#63b8ff" stroke="#63b8ff" points="80.56,-70.23 70.47,-73.48 80.38,-77.23 80.56,-70.23"/>
</a>
</g>
</g>
<!-- Node3 -->
<g id="Node000003" class="node">
<title>Node3</title>
<g id="a_Node000003"><a xlink:href="namespaceflatted.html#ac519e883b493d4a80b5e692279bc8cd5" target="_top" xlink:title=" ">
<polygon fill="white" stroke="#666666" points="302.25,-134 203.75,-134 203.75,-114 302.25,-114 302.25,-134"/>
<text text-anchor="middle" x="253" y="-120.5" font-family="Helvetica,sans-Serif" font-size="10.00">flatted._array_keys</text>
</a>
</g>
</g>
<!-- Node2&#45;&gt;Node3 -->
<g id="edge2_Node000002_Node000003" class="edge">
<title>Node2&#45;&gt;Node3</title>
<g id="a_edge2_Node000002_Node000003"><a xlink:title=" ">
<path fill="none" stroke="#63b8ff" d="M152.28,-77.46C165.29,-85.57 184.16,-96.78 201.5,-105 204.62,-106.48 207.88,-107.92 211.18,-109.31"/>
<polygon fill="#63b8ff" stroke="#63b8ff" points="209.76,-112.51 220.35,-112.99 212.37,-106.02 209.76,-112.51"/>
</a>
</g>
</g>
<!-- Node4 -->
<g id="Node000004" class="node">
<title>Node4</title>
<g id="a_Node000004"><a xlink:href="namespaceflatted.html#aa9e0f6bdd410c981176fd35934135275" target="_top" xlink:title=" ">
<polygon fill="white" stroke="#666666" points="295.5,-96 210.5,-96 210.5,-76 295.5,-76 295.5,-96"/>
<text text-anchor="middle" x="253" y="-82.5" font-family="Helvetica,sans-Serif" font-size="10.00">flatted._is_array</text>
</a>
</g>
</g>
<!-- Node2&#45;&gt;Node4 -->
<g id="edge3_Node000002_Node000004" class="edge">
<title>Node2&#45;&gt;Node4</title>
<g id="a_edge3_Node000002_Node000004"><a xlink:title=" ">
<path fill="none" stroke="#63b8ff" d="M165.87,-71.89C176.04,-73.56 187.74,-75.47 199.16,-77.34"/>
<polygon fill="#63b8ff" stroke="#63b8ff" points="198.5,-80.78 208.93,-78.95 199.63,-73.88 198.5,-80.78"/>
</a>
</g>
</g>
<!-- Node5 -->
<g id="Node000005" class="node">
<title>Node5</title>
<g id="a_Node000005"><a xlink:href="namespaceflatted.html#af2ee527c66c20e7e38440129fa094067" target="_top" xlink:title=" ">
<polygon fill="white" stroke="#666666" points="297.75,-58 208.25,-58 208.25,-38 297.75,-38 297.75,-58"/>
<text text-anchor="middle" x="253" y="-44.5" font-family="Helvetica,sans-Serif" font-size="10.00">flatted._is_object</text>
</a>
</g>
</g>
<!-- Node2&#45;&gt;Node5 -->
<g id="edge4_Node000002_Node000005" class="edge">
<title>Node2&#45;&gt;Node5</title>
<g id="a_edge4_Node000002_Node000005"><a xlink:title=" ">
<path fill="none" stroke="#63b8ff" d="M165.87,-62.11C175.24,-60.57 185.9,-58.83 196.45,-57.1"/>
<polygon fill="#63b8ff" stroke="#63b8ff" points="196.99,-60.56 206.29,-55.49 195.86,-53.65 196.99,-60.56"/>
</a>
</g>
</g>
<!-- Node6 -->
<g id="Node000006" class="node">
<title>Node6</title>
<g id="a_Node000006"><a xlink:href="namespaceflatted.html#a48139942bd2d19d86710899061eacba8" target="_top" xlink:title=" ">
<polygon fill="white" stroke="#666666" points="304.5,-20 201.5,-20 201.5,0 304.5,0 304.5,-20"/>
<text text-anchor="middle" x="253" y="-6.5" font-family="Helvetica,sans-Serif" font-size="10.00">flatted._object_keys</text>
</a>
</g>
</g>
<!-- Node2&#45;&gt;Node6 -->
<g id="edge6_Node000002_Node000006" class="edge">
<title>Node2&#45;&gt;Node6</title>
<g id="a_edge6_Node000002_Node000006"><a xlink:title=" ">
<path fill="none" stroke="#63b8ff" d="M152.28,-56.54C165.29,-48.43 184.16,-37.22 201.5,-29 204.62,-27.52 207.88,-26.08 211.18,-24.69"/>
<polygon fill="#63b8ff" stroke="#63b8ff" points="212.37,-27.98 220.35,-21.01 209.76,-21.49 212.37,-27.98"/>
</a>
</g>
</g>
</g>
</svg>
</svg>

<style type='text/css'>
<![CDATA[
[data-mouse-over-selected='false'] { opacity: 0.7; }
[data-mouse-over-selected='true']  { opacity: 1.0; }
]]>
</style>
<script type="application/ecmascript"><![CDATA[
document.addEventListener('DOMContentLoaded', (event) => {
  highlightEdges();
  highlightAdjacentNodes();
});
]]></script>
</svg>
