<?xml version="1.0" encoding="UTF-8" standalone="no"?>
<!DOCTYPE svg PUBLIC "-//W3C//DTD SVG 1.1//EN"
 "http://www.w3.org/Graphics/SVG/1.1/DTD/svg11.dtd">
<!-- Generated by graphviz version 9.0.0 (20230911.1827)
 -->
<!-- Title: flatted._is_array Pages: 1 -->
<svg width="446pt" height="179pt"
 viewBox="0.00 0.00 445.50 179.07" xmlns="http://www.w3.org/2000/svg" xmlns:xlink="http://www.w3.org/1999/xlink">
<g id="graph0" class="graph" transform="scale(1 1) rotate(0) translate(4 175.07)">
<title>flatted._is_array</title>
<!-- Node1 -->
<g id="Node000001" class="node">
<title>Node1</title>
<g id="a_Node000001"><a xlink:title=" ">
<polygon fill="#999999" stroke="#666666" points="437.5,-77.07 352.5,-77.07 352.5,-57.07 437.5,-57.07 437.5,-77.07"/>
<text text-anchor="middle" x="395" y="-63.57" font-family="Helvetica,sans-Serif" font-size="10.00">flatted._is_array</text>
</a>
</g>
</g>
<!-- Node2 -->
<g id="Node000002" class="node">
<title>Node2</title>
<g id="a_Node000002"><a xlink:href="namespaceflatted.html#af74e45c06efe798d934f5a9a643329ec" target="_top" xlink:title=" ">
<polygon fill="white" stroke="#666666" points="309.75,-115.07 248.75,-115.07 248.75,-95.07 309.75,-95.07 309.75,-115.07"/>
<text text-anchor="middle" x="279.25" y="-101.57" font-family="Helvetica,sans-Serif" font-size="10.00">flatted._ref</text>
</a>
</g>
</g>
<!-- Node1&#45;&gt;Node2 -->
<g id="edge1_Node000001_Node000002" class="edge">
<title>Node1&#45;&gt;Node2</title>
<g id="a_edge1_Node000001_Node000002"><a xlink:title=" ">
<path fill="none" stroke="#63b8ff" d="M351.8,-81.17C337.9,-85.81 322.74,-90.88 309.97,-95.14"/>
<polygon fill="#63b8ff" stroke="#63b8ff" points="352.8,-84.52 361.18,-78.03 350.59,-77.88 352.8,-84.52"/>
</a>
</g>
</g>
<!-- Node4 -->
<g id="Node000004" class="node">
<title>Node4</title>
<g id="a_Node000004"><a xlink:href="namespaceflatted.html#a8252c9a9e61809d65fc03c5bf815ad9e" target="_top" xlink:title=" ">
<polygon fill="white" stroke="#666666" points="74.12,-115.07 4.88,-115.07 4.88,-95.07 74.12,-95.07 74.12,-115.07"/>
<text text-anchor="middle" x="39.5" y="-101.57" font-family="Helvetica,sans-Serif" font-size="10.00">flatted.parse</text>
</a>
</g>
</g>
<!-- Node1&#45;&gt;Node4 -->
<g id="edge12_Node000001_Node000004" class="edge">
<title>Node1&#45;&gt;Node4</title>
<g id="a_edge12_Node000001_Node000004"><a xlink:title=" ">
<path fill="none" stroke="#63b8ff" d="M340.65,-67.83C284.26,-69.3 192.87,-73.59 115,-86.07 101.56,-88.22 87,-91.68 74.35,-95.05"/>
<polygon fill="#63b8ff" stroke="#63b8ff" points="340.71,-71.33 350.62,-67.59 340.54,-64.33 340.71,-71.33"/>
</a>
</g>
</g>
<!-- Node5 -->
<g id="Node000005" class="node">
<title>Node5</title>
<g id="a_Node000005"><a xlink:href="namespaceflatted.html#a1c57a34a7bf724a855bd3f2a1fd98fc7" target="_top" xlink:title=" ">
<polygon fill="white" stroke="#666666" points="316.5,-39.07 242,-39.07 242,-19.07 316.5,-19.07 316.5,-39.07"/>
<text text-anchor="middle" x="279.25" y="-25.57" font-family="Helvetica,sans-Serif" font-size="10.00">flatted._relate</text>
</a>
</g>
</g>
<!-- Node1&#45;&gt;Node5 -->
<g id="edge5_Node000001_Node000005" class="edge">
<title>Node1&#45;&gt;Node5</title>
<g id="a_edge5_Node000001_Node000005"><a xlink:title=" ">
<path fill="none" stroke="#63b8ff" d="M351.76,-52.96C338.43,-48.51 323.95,-43.67 311.53,-39.52"/>
<polygon fill="#63b8ff" stroke="#63b8ff" points="350.59,-56.26 361.18,-56.11 352.8,-49.62 350.59,-56.26"/>
</a>
</g>
</g>
<!-- Node6 -->
<g id="Node000006" class="node">
<title>Node6</title>
<g id="a_Node000006"><a xlink:href="namespaceflatted.html#a41da9bdca5096c88843590ce405b907f" target="_top" xlink:title=" ">
<polygon fill="white" stroke="#666666" points="206,-20.07 115,-20.07 115,-0.07 206,-0.07 206,-20.07"/>
<text text-anchor="middle" x="160.5" y="-6.57" font-family="Helvetica,sans-Serif" font-size="10.00">flatted._transform</text>
</a>
</g>
</g>
<!-- Node1&#45;&gt;Node6 -->
<g id="edge8_Node000001_Node000006" class="edge">
<title>Node1&#45;&gt;Node6</title>
<g id="a_edge8_Node000001_Node000006"><a xlink:title=" ">
<path fill="none" stroke="#63b8ff" d="M376.62,-49.15C362.04,-35.48 339.89,-17.75 316.5,-10.07 280.83,1.63 238.01,0.58 206.42,-2.8"/>
<polygon fill="#63b8ff" stroke="#63b8ff" points="373.98,-51.46 383.58,-55.94 378.88,-46.45 373.98,-51.46"/>
</a>
</g>
</g>
<!-- Node8 -->
<g id="Node000008" class="node">
<title>Node8</title>
<g id="a_Node000008"><a xlink:href="namespaceflatted.html#ac493ef170880e775025eb0b6f2bf3318" target="_top" xlink:title=" ">
<polygon fill="white" stroke="#666666" points="195.88,-153.07 125.12,-153.07 125.12,-133.07 195.88,-133.07 195.88,-153.07"/>
<text text-anchor="middle" x="160.5" y="-139.57" font-family="Helvetica,sans-Serif" font-size="10.00">flatted._wrap</text>
</a>
</g>
</g>
<!-- Node1&#45;&gt;Node8 -->
<g id="edge9_Node000001_Node000008" class="edge">
<title>Node1&#45;&gt;Node8</title>
<g id="a_edge9_Node000001_Node000008"><a xlink:title=" ">
<path fill="none" stroke="#63b8ff" d="M375.34,-85.13C360.61,-98.25 338.87,-115.19 316.5,-124.07 277.32,-139.63 228.55,-143.3 196.29,-143.78"/>
<polygon fill="#63b8ff" stroke="#63b8ff" points="377.46,-87.94 382.44,-78.59 372.71,-82.79 377.46,-87.94"/>
</a>
</g>
</g>
<!-- Node3 -->
<g id="Node000003" class="node">
<title>Node3</title>
<g id="a_Node000003"><a xlink:href="namespaceflatted.html#aecd75202b154514cfdaa0eee6a8dd8a0" target="_top" xlink:title=" ">
<polygon fill="white" stroke="#666666" points="194.75,-115.07 126.25,-115.07 126.25,-95.07 194.75,-95.07 194.75,-115.07"/>
<text text-anchor="middle" x="160.5" y="-101.57" font-family="Helvetica,sans-Serif" font-size="10.00">flatted._loop</text>
</a>
</g>
</g>
<!-- Node2&#45;&gt;Node3 -->
<g id="edge2_Node000002_Node000003" class="edge">
<title>Node2&#45;&gt;Node3</title>
<g id="a_edge2_Node000002_Node000003"><a xlink:title=" ">
<path fill="none" stroke="#63b8ff" d="M237.26,-98.59C223.41,-98.15 208.12,-98.25 194.92,-98.9"/>
<polygon fill="#63b8ff" stroke="#63b8ff" points="236.83,-102.08 246.97,-99.03 237.14,-95.08 236.83,-102.08"/>
</a>
</g>
</g>
<!-- Node3&#45;&gt;Node2 -->
<g id="edge3_Node000003_Node000002" class="edge">
<title>Node3&#45;&gt;Node2</title>
<g id="a_edge3_Node000003_Node000002"><a xlink:title=" ">
<path fill="none" stroke="#63b8ff" d="M206.42,-111.66C220.51,-112 235.71,-111.8 248.49,-111.04"/>
<polygon fill="#63b8ff" stroke="#63b8ff" points="206.55,-108.16 196.43,-111.29 206.3,-115.16 206.55,-108.16"/>
</a>
</g>
</g>
<!-- Node3&#45;&gt;Node4 -->
<g id="edge4_Node000003_Node000004" class="edge">
<title>Node3&#45;&gt;Node4</title>
<g id="a_edge4_Node000003_Node000004"><a xlink:title=" ">
<path fill="none" stroke="#63b8ff" d="M114.69,-105.07C101.39,-105.07 87.04,-105.07 74.54,-105.07"/>
<polygon fill="#63b8ff" stroke="#63b8ff" points="114.52,-108.57 124.52,-105.07 114.52,-101.57 114.52,-108.57"/>
</a>
</g>
</g>
<!-- Node5&#45;&gt;Node6 -->
<g id="edge6_Node000005_Node000006" class="edge">
<title>Node5&#45;&gt;Node6</title>
<g id="a_edge6_Node000005_Node000006"><a xlink:title=" ">
<path fill="none" stroke="#63b8ff" d="M230.51,-21.3C222.47,-19.99 214.15,-18.64 206.2,-17.34"/>
<polygon fill="#63b8ff" stroke="#63b8ff" points="229.7,-24.72 240.14,-22.87 230.83,-17.81 229.7,-24.72"/>
</a>
</g>
</g>
<!-- Node7 -->
<g id="Node000007" class="node">
<title>Node7</title>
<g id="a_Node000007"><a xlink:href="namespaceflatted.html#a0f956bd4567258719b6151c1cb2f3220" target="_top" xlink:title=" ">
<polygon fill="white" stroke="#666666" points="79,-20.07 0,-20.07 0,-0.07 79,-0.07 79,-20.07"/>
<text text-anchor="middle" x="39.5" y="-6.57" font-family="Helvetica,sans-Serif" font-size="10.00">flatted.stringify</text>
</a>
</g>
</g>
<!-- Node6&#45;&gt;Node7 -->
<g id="edge7_Node000006_Node000007" class="edge">
<title>Node6&#45;&gt;Node7</title>
<g id="a_edge7_Node000006_Node000007"><a xlink:title=" ">
<path fill="none" stroke="#63b8ff" d="M103.2,-10.07C95.12,-10.07 86.96,-10.07 79.32,-10.07"/>
<polygon fill="#63b8ff" stroke="#63b8ff" points="103,-13.57 113,-10.07 103,-6.57 103,-13.57"/>
</a>
</g>
</g>
<!-- Node8&#45;&gt;Node4 -->
<g id="edge11_Node000008_Node000004" class="edge">
<title>Node8&#45;&gt;Node4</title>
<g id="a_edge11_Node000008_Node000004"><a xlink:title=" ">
<path fill="none" stroke="#63b8ff" d="M115.73,-129.09C101.67,-124.6 86.35,-119.71 73.23,-115.52"/>
<polygon fill="#63b8ff" stroke="#63b8ff" points="114.64,-132.42 125.23,-132.13 116.76,-125.75 114.64,-132.42"/>
</a>
</g>
</g>
<!-- Node8&#45;&gt;Node8 -->
<g id="edge10_Node000008_Node000008" class="edge">
<title>Node8&#45;&gt;Node8</title>
<g id="a_edge10_Node000008_Node000008"><a xlink:title=" ">
<path fill="none" stroke="#63b8ff" d="M181.49,-164.51C178.78,-168.37 171.79,-171.07 160.5,-171.07 139.86,-171.07 133.57,-162.05 141.63,-153.41"/>
<polygon fill="#63b8ff" stroke="#63b8ff" points="184.97,-164.06 179.65,-154.9 178.09,-165.37 184.97,-164.06"/>
</a>
</g>
</g>
</g>
</svg>
