<?xml version="1.0" encoding="UTF-8" standalone="no"?>
<!DOCTYPE svg PUBLIC "-//W3C//DTD SVG 1.1//EN"
 "http://www.w3.org/Graphics/SVG/1.1/DTD/svg11.dtd">
<!-- Generated by graphviz version 9.0.0 (20230911.1827)
 -->
<!-- Title: flatted.parse Pages: 1 -->
<svg width="428pt" height="208pt"
 viewBox="0.00 0.00 427.50 208.00" xmlns="http://www.w3.org/2000/svg" xmlns:xlink="http://www.w3.org/1999/xlink">
<g id="graph0" class="graph" transform="scale(1 1) rotate(0) translate(4 204)">
<title>flatted.parse</title>
<!-- Node1 -->
<g id="Node000001" class="node">
<title>Node1</title>
<g id="a_Node000001"><a xlink:title=" ">
<polygon fill="#999999" stroke="#666666" points="69.25,-96 0,-96 0,-76 69.25,-76 69.25,-96"/>
<text text-anchor="middle" x="34.62" y="-82.5" font-family="Helvetica,sans-Serif" font-size="10.00">flatted.parse</text>
</a>
</g>
</g>
<!-- Node2 -->
<g id="Node000002" class="node">
<title>Node2</title>
<g id="a_Node000002"><a xlink:href="namespaceflatted.html#ac519e883b493d4a80b5e692279bc8cd5" target="_top" xlink:title=" ">
<polygon fill="white" stroke="#666666" points="417.25,-200 318.75,-200 318.75,-180 417.25,-180 417.25,-200"/>
<text text-anchor="middle" x="368" y="-186.5" font-family="Helvetica,sans-Serif" font-size="10.00">flatted._array_keys</text>
</a>
</g>
</g>
<!-- Node1&#45;&gt;Node2 -->
<g id="edge1_Node000001_Node000002" class="edge">
<title>Node1&#45;&gt;Node2</title>
<g id="a_edge1_Node000001_Node000002"><a xlink:title=" ">
<path fill="none" stroke="#63b8ff" d="M44.88,-96.3C57.27,-109.38 80.56,-131.62 105.25,-143 170.23,-172.95 252.46,-183.86 307.25,-187.81"/>
<polygon fill="#63b8ff" stroke="#63b8ff" points="306.78,-191.29 316.99,-188.45 307.24,-184.3 306.78,-191.29"/>
</a>
</g>
</g>
<!-- Node3 -->
<g id="Node000003" class="node">
<title>Node3</title>
<g id="a_Node000003"><a xlink:href="namespaceflatted.html#aa9e0f6bdd410c981176fd35934135275" target="_top" xlink:title=" ">
<polygon fill="white" stroke="#666666" points="410.5,-115 325.5,-115 325.5,-95 410.5,-95 410.5,-115"/>
<text text-anchor="middle" x="368" y="-101.5" font-family="Helvetica,sans-Serif" font-size="10.00">flatted._is_array</text>
</a>
</g>
</g>
<!-- Node1&#45;&gt;Node3 -->
<g id="edge2_Node000001_Node000003" class="edge">
<title>Node1&#45;&gt;Node3</title>
<g id="a_edge2_Node000001_Node000003"><a xlink:title=" ">
<path fill="none" stroke="#63b8ff" d="M54.7,-96.38C95.93,-117.49 196.46,-161.84 280.5,-142 297.91,-137.89 300.11,-131.16 316.5,-124 319.89,-122.52 323.44,-121.04 327.01,-119.61"/>
<polygon fill="#63b8ff" stroke="#63b8ff" points="328.23,-122.89 336.28,-115.99 325.69,-116.37 328.23,-122.89"/>
</a>
</g>
</g>
<!-- Node4 -->
<g id="Node000004" class="node">
<title>Node4</title>
<g id="a_Node000004"><a xlink:href="namespaceflatted.html#af2ee527c66c20e7e38440129fa094067" target="_top" xlink:title=" ">
<polygon fill="white" stroke="#666666" points="412.75,-77 323.25,-77 323.25,-57 412.75,-57 412.75,-77"/>
<text text-anchor="middle" x="368" y="-63.5" font-family="Helvetica,sans-Serif" font-size="10.00">flatted._is_object</text>
</a>
</g>
</g>
<!-- Node1&#45;&gt;Node4 -->
<g id="edge3_Node000001_Node000004" class="edge">
<title>Node1&#45;&gt;Node4</title>
<g id="a_edge3_Node000001_Node000004"><a xlink:title=" ">
<path fill="none" stroke="#63b8ff" d="M49.67,-75.57C63.13,-66.26 84.43,-53.31 105.25,-48 177.23,-29.64 263.69,-42.37 316.99,-54.04"/>
<polygon fill="#63b8ff" stroke="#63b8ff" points="316.17,-57.44 326.7,-56.24 317.72,-50.61 316.17,-57.44"/>
</a>
</g>
</g>
<!-- Node5 -->
<g id="Node000005" class="node">
<title>Node5</title>
<g id="a_Node000005"><a xlink:href="namespaceflatted.html#aecd75202b154514cfdaa0eee6a8dd8a0" target="_top" xlink:title=" ">
<polygon fill="white" stroke="#666666" points="173.75,-77 105.25,-77 105.25,-57 173.75,-57 173.75,-77"/>
<text text-anchor="middle" x="139.5" y="-63.5" font-family="Helvetica,sans-Serif" font-size="10.00">flatted._loop</text>
</a>
</g>
</g>
<!-- Node1&#45;&gt;Node5 -->
<g id="edge4_Node000001_Node000005" class="edge">
<title>Node1&#45;&gt;Node5</title>
<g id="a_edge4_Node000001_Node000005"><a xlink:title=" ">
<path fill="none" stroke="#63b8ff" d="M69.6,-79.73C77.31,-78.3 85.62,-76.77 93.71,-75.27"/>
<polygon fill="#63b8ff" stroke="#63b8ff" points="94.23,-78.74 103.43,-73.48 92.96,-71.85 94.23,-78.74"/>
</a>
</g>
</g>
<!-- Node7 -->
<g id="Node000007" class="node">
<title>Node7</title>
<g id="a_Node000007"><a xlink:href="namespaceflatted.html#a48139942bd2d19d86710899061eacba8" target="_top" xlink:title=" ">
<polygon fill="white" stroke="#666666" points="419.5,-20 316.5,-20 316.5,0 419.5,0 419.5,-20"/>
<text text-anchor="middle" x="368" y="-6.5" font-family="Helvetica,sans-Serif" font-size="10.00">flatted._object_keys</text>
</a>
</g>
</g>
<!-- Node1&#45;&gt;Node7 -->
<g id="edge11_Node000001_Node000007" class="edge">
<title>Node1&#45;&gt;Node7</title>
<g id="a_edge11_Node000001_Node000007"><a xlink:title=" ">
<path fill="none" stroke="#63b8ff" d="M45.86,-75.67C58.55,-63.58 81.44,-44.06 105.25,-35 170.37,-10.21 250.89,-6.1 305.3,-6.81"/>
<polygon fill="#63b8ff" stroke="#63b8ff" points="304.92,-10.31 314.98,-7 305.05,-3.31 304.92,-10.31"/>
</a>
</g>
</g>
<!-- Node8 -->
<g id="Node000008" class="node">
<title>Node8</title>
<g id="a_Node000008"><a xlink:href="namespaceflatted.html#ac493ef170880e775025eb0b6f2bf3318" target="_top" xlink:title=" ">
<polygon fill="white" stroke="#666666" points="280.5,-115 209.75,-115 209.75,-95 280.5,-95 280.5,-115"/>
<text text-anchor="middle" x="245.12" y="-101.5" font-family="Helvetica,sans-Serif" font-size="10.00">flatted._wrap</text>
</a>
</g>
</g>
<!-- Node1&#45;&gt;Node8 -->
<g id="edge12_Node000001_Node000008" class="edge">
<title>Node1&#45;&gt;Node8</title>
<g id="a_edge12_Node000001_Node000008"><a xlink:title=" ">
<path fill="none" stroke="#63b8ff" d="M69.59,-89.09C104.67,-92.29 159.62,-97.3 198.48,-100.84"/>
<polygon fill="#63b8ff" stroke="#63b8ff" points="197.7,-104.28 207.97,-101.71 198.33,-97.31 197.7,-104.28"/>
</a>
</g>
</g>
<!-- Node6 -->
<g id="Node000006" class="node">
<title>Node6</title>
<g id="a_Node000006"><a xlink:href="namespaceflatted.html#af74e45c06efe798d934f5a9a643329ec" target="_top" xlink:title=" ">
<polygon fill="white" stroke="#666666" points="275.62,-77 214.62,-77 214.62,-57 275.62,-57 275.62,-77"/>
<text text-anchor="middle" x="245.12" y="-63.5" font-family="Helvetica,sans-Serif" font-size="10.00">flatted._ref</text>
</a>
</g>
</g>
<!-- Node5&#45;&gt;Node6 -->
<g id="edge5_Node000005_Node000006" class="edge">
<title>Node5&#45;&gt;Node6</title>
<g id="a_edge5_Node000005_Node000006"><a xlink:title=" ">
<path fill="none" stroke="#63b8ff" d="M174.14,-60.63C183.3,-60.23 193.33,-60.15 202.86,-60.38"/>
<polygon fill="#63b8ff" stroke="#63b8ff" points="202.5,-63.86 212.63,-60.75 202.78,-56.87 202.5,-63.86"/>
</a>
</g>
</g>
<!-- Node6&#45;&gt;Node2 -->
<g id="edge6_Node000006_Node000002" class="edge">
<title>Node6&#45;&gt;Node2</title>
<g id="a_edge6_Node000006_Node000002"><a xlink:title=" ">
<path fill="none" stroke="#63b8ff" d="M269.73,-77.44C273.64,-79.87 277.42,-82.72 280.5,-86 306.09,-113.24 290.93,-134.74 316.5,-162 320.79,-166.57 325.99,-170.58 331.41,-174.02"/>
<polygon fill="#63b8ff" stroke="#63b8ff" points="329.5,-176.97 339.92,-178.88 332.97,-170.88 329.5,-176.97"/>
</a>
</g>
</g>
<!-- Node6&#45;&gt;Node3 -->
<g id="edge7_Node000006_Node000003" class="edge">
<title>Node6&#45;&gt;Node3</title>
<g id="a_edge7_Node000006_Node000003"><a xlink:title=" ">
<path fill="none" stroke="#63b8ff" d="M276,-76.39C290.07,-80.81 307.13,-86.18 322.66,-91.06"/>
<polygon fill="#63b8ff" stroke="#63b8ff" points="321.6,-94.4 332.19,-94.06 323.7,-87.72 321.6,-94.4"/>
</a>
</g>
</g>
<!-- Node6&#45;&gt;Node4 -->
<g id="edge8_Node000006_Node000004" class="edge">
<title>Node6&#45;&gt;Node4</title>
<g id="a_edge8_Node000006_Node000004"><a xlink:title=" ">
<path fill="none" stroke="#63b8ff" d="M276,-67C286.82,-67 299.4,-67 311.7,-67"/>
<polygon fill="#63b8ff" stroke="#63b8ff" points="311.34,-70.5 321.34,-67 311.34,-63.5 311.34,-70.5"/>
</a>
</g>
</g>
<!-- Node6&#45;&gt;Node5 -->
<g id="edge9_Node000006_Node000005" class="edge">
<title>Node6&#45;&gt;Node5</title>
<g id="a_edge9_Node000006_Node000005"><a xlink:title=" ">
<path fill="none" stroke="#63b8ff" d="M214.14,-73.19C205.15,-73.68 195.07,-73.85 185.34,-73.7"/>
<polygon fill="#63b8ff" stroke="#63b8ff" points="185.76,-70.21 175.66,-73.41 185.55,-77.2 185.76,-70.21"/>
</a>
</g>
</g>
<!-- Node6&#45;&gt;Node7 -->
<g id="edge10_Node000006_Node000007" class="edge">
<title>Node6&#45;&gt;Node7</title>
<g id="a_edge10_Node000006_Node000007"><a xlink:title=" ">
<path fill="none" stroke="#63b8ff" d="M268.3,-56.55C286.87,-47.79 313.63,-35.17 334.6,-25.28"/>
<polygon fill="#63b8ff" stroke="#63b8ff" points="336.05,-28.46 343.6,-21.03 333.06,-22.13 336.05,-28.46"/>
</a>
</g>
</g>
<!-- Node8&#45;&gt;Node3 -->
<g id="edge13_Node000008_Node000003" class="edge">
<title>Node8&#45;&gt;Node3</title>
<g id="a_edge13_Node000008_Node000003"><a xlink:title=" ">
<path fill="none" stroke="#63b8ff" d="M280.76,-105C291.01,-105 302.49,-105 313.63,-105"/>
<polygon fill="#63b8ff" stroke="#63b8ff" points="313.55,-108.5 323.55,-105 313.55,-101.5 313.55,-108.5"/>
</a>
</g>
</g>
<!-- Node8&#45;&gt;Node4 -->
<g id="edge14_Node000008_Node000004" class="edge">
<title>Node8&#45;&gt;Node4</title>
<g id="a_edge14_Node000008_Node000004"><a xlink:title=" ">
<path fill="none" stroke="#63b8ff" d="M279.47,-94.52C292.95,-90.28 308.69,-85.33 323.08,-80.81"/>
<polygon fill="#63b8ff" stroke="#63b8ff" points="323.83,-84.24 332.32,-77.9 321.73,-77.56 323.83,-84.24"/>
</a>
</g>
</g>
<!-- Node8&#45;&gt;Node8 -->
<g id="edge16_Node000008_Node000008" class="edge">
<title>Node8&#45;&gt;Node8</title>
<g id="a_edge16_Node000008_Node000008"><a xlink:title=" ">
<path fill="none" stroke="#63b8ff" d="M228.34,-115.34C221.17,-123.98 226.76,-133 245.12,-133 255.17,-133 261.39,-130.3 263.79,-126.44"/>
<polygon fill="#63b8ff" stroke="#63b8ff" points="267.29,-126.1 262.16,-116.83 260.39,-127.28 267.29,-126.1"/>
</a>
</g>
</g>
<!-- Node9 -->
<g id="Node000009" class="node">
<title>Node9</title>
<g id="a_Node000009"><a xlink:href="namespaceflatted.html#a2c64f13b3d861c205c821e03fcd4376f" target="_top" xlink:title=" ">
<polygon fill="white" stroke="#666666" points="411.62,-153 324.38,-153 324.38,-133 411.62,-133 411.62,-153"/>
<text text-anchor="middle" x="368" y="-139.5" font-family="Helvetica,sans-Serif" font-size="10.00">flatted._is_string</text>
</a>
</g>
</g>
<!-- Node8&#45;&gt;Node9 -->
<g id="edge15_Node000008_Node000009" class="edge">
<title>Node8&#45;&gt;Node9</title>
<g id="a_edge15_Node000008_Node000009"><a xlink:title=" ">
<path fill="none" stroke="#63b8ff" d="M279.47,-115.48C292.95,-119.72 308.69,-124.67 323.08,-129.19"/>
<polygon fill="#63b8ff" stroke="#63b8ff" points="321.73,-132.44 332.32,-132.1 323.83,-125.76 321.73,-132.44"/>
</a>
</g>
</g>
</g>
</svg>
