<?xml version="1.0" encoding="UTF-8" standalone="no"?>
<!DOCTYPE svg PUBLIC "-//W3C//DTD SVG 1.1//EN"
 "http://www.w3.org/Graphics/SVG/1.1/DTD/svg11.dtd">
<!-- Generated by graphviz version 9.0.0 (20230911.1827)
 -->
<!-- Title: flatted._ref Pages: 1 -->
<svg width="279pt" height="28pt"
 viewBox="0.00 0.00 278.75 28.00" xmlns="http://www.w3.org/2000/svg" xmlns:xlink="http://www.w3.org/1999/xlink">

<svg id="main" version="1.1" xmlns="http://www.w3.org/2000/svg" xmlns:xlink="http://www.w3.org/1999/xlink" xml:space="preserve" onload="init(evt)">
<style type="text/css"><![CDATA[
.node, .edge {opacity: 0.7;}
.node.selected, .edge.selected {opacity: 1;}
.edge:hover path { stroke: red; }
.edge:hover polygon { stroke: red; fill: red; }
]]></style>
<script type="application/ecmascript" xlink:href="svg.min.js"/>
<svg id="graph" class="graph">
<g id="graph0" class="graph" transform="scale(1 1) rotate(0) translate(4 24)">
<title>flatted._ref</title>
<!-- Node1 -->
<g id="Node000001" class="node">
<title>Node1</title>
<g id="a_Node000001"><a xlink:title=" ">
<polygon fill="#999999" stroke="#666666" points="270.75,-20 209.75,-20 209.75,0 270.75,0 270.75,-20"/>
<text text-anchor="middle" x="240.25" y="-6.5" font-family="Helvetica,sans-Serif" font-size="10.00">flatted._ref</text>
</a>
</g>
</g>
<!-- Node2 -->
<g id="Node000002" class="node">
<title>Node2</title>
<g id="a_Node000002"><a xlink:href="namespaceflatted.html#aecd75202b154514cfdaa0eee6a8dd8a0" target="_top" xlink:title=" ">
<polygon fill="white" stroke="#666666" points="173.75,-20 105.25,-20 105.25,0 173.75,0 173.75,-20"/>
<text text-anchor="middle" x="139.5" y="-6.5" font-family="Helvetica,sans-Serif" font-size="10.00">flatted._loop</text>
</a>
</g>
</g>
<!-- Node1&#45;&gt;Node2 -->
<g id="edge1_Node000001_Node000002" class="edge">
<title>Node1&#45;&gt;Node2</title>
<g id="a_edge1_Node000001_Node000002"><a xlink:title=" ">
<path fill="none" stroke="#63b8ff" d="M197.99,-3.33C190.03,-3.17 181.78,-3.25 174.09,-3.57"/>
<polygon fill="#63b8ff" stroke="#63b8ff" points="197.72,-6.82 207.84,-3.69 197.97,0.17 197.72,-6.82"/>
</a>
</g>
</g>
<!-- Node2&#45;&gt;Node1 -->
<g id="edge2_Node000002_Node000001" class="edge">
<title>Node2&#45;&gt;Node1</title>
<g id="a_edge2_Node000002_Node000001"><a xlink:title=" ">
<path fill="none" stroke="#63b8ff" d="M185.38,-16.73C193.5,-16.82 201.79,-16.66 209.35,-16.26"/>
<polygon fill="#63b8ff" stroke="#63b8ff" points="185.69,-13.23 175.61,-16.47 185.51,-20.23 185.69,-13.23"/>
</a>
</g>
</g>
<!-- Node3 -->
<g id="Node000003" class="node">
<title>Node3</title>
<g id="a_Node000003"><a xlink:href="namespaceflatted.html#a8252c9a9e61809d65fc03c5bf815ad9e" target="_top" xlink:title=" ">
<polygon fill="white" stroke="#666666" points="69.25,-20 0,-20 0,0 69.25,0 69.25,-20"/>
<text text-anchor="middle" x="34.62" y="-6.5" font-family="Helvetica,sans-Serif" font-size="10.00">flatted.parse</text>
</a>
</g>
</g>
<!-- Node2&#45;&gt;Node3 -->
<g id="edge3_Node000002_Node000003" class="edge">
<title>Node2&#45;&gt;Node3</title>
<g id="a_edge3_Node000002_Node000003"><a xlink:title=" ">
<path fill="none" stroke="#63b8ff" d="M93.41,-10C85.47,-10 77.32,-10 69.74,-10"/>
<polygon fill="#63b8ff" stroke="#63b8ff" points="93.3,-13.5 103.3,-10 93.3,-6.5 93.3,-13.5"/>
</a>
</g>
</g>
</g>
</svg>
</svg>

<style type='text/css'>
<![CDATA[
[data-mouse-over-selected='false'] { opacity: 0.7; }
[data-mouse-over-selected='true']  { opacity: 1.0; }
]]>
</style>
<script type="application/ecmascript"><![CDATA[
document.addEventListener('DOMContentLoaded', (event) => {
  highlightEdges();
  highlightAdjacentNodes();
});
]]></script>
</svg>
