<?xml version="1.0" encoding="UTF-8" standalone="no"?>
<!DOCTYPE svg PUBLIC "-//W3C//DTD SVG 1.1//EN"
 "http://www.w3.org/Graphics/SVG/1.1/DTD/svg11.dtd">
<!-- Generated by graphviz version 9.0.0 (20230911.1827)
 -->
<!-- Title: flatted._relate Pages: 1 -->
<svg width="325pt" height="28pt"
 viewBox="0.00 0.00 324.50 28.00" xmlns="http://www.w3.org/2000/svg" xmlns:xlink="http://www.w3.org/1999/xlink">
<g id="graph0" class="graph" transform="scale(1 1) rotate(0) translate(4 24)">
<title>flatted._relate</title>
<!-- Node1 -->
<g id="Node000001" class="node">
<title>Node1</title>
<g id="a_Node000001"><a xlink:title=" ">
<polygon fill="#999999" stroke="#666666" points="316.5,-20 242,-20 242,0 316.5,0 316.5,-20"/>
<text text-anchor="middle" x="279.25" y="-6.5" font-family="Helvetica,sans-Serif" font-size="10.00">flatted._relate</text>
</a>
</g>
</g>
<!-- Node2 -->
<g id="Node000002" class="node">
<title>Node2</title>
<g id="a_Node000002"><a xlink:href="namespaceflatted.html#a41da9bdca5096c88843590ce405b907f" target="_top" xlink:title=" ">
<polygon fill="white" stroke="#666666" points="206,-20 115,-20 115,0 206,0 206,-20"/>
<text text-anchor="middle" x="160.5" y="-6.5" font-family="Helvetica,sans-Serif" font-size="10.00">flatted._transform</text>
</a>
</g>
</g>
<!-- Node1&#45;&gt;Node2 -->
<g id="edge1_Node000001_Node000002" class="edge">
<title>Node1&#45;&gt;Node2</title>
<g id="a_edge1_Node000001_Node000002"><a xlink:title=" ">
<path fill="none" stroke="#63b8ff" d="M230.24,-10C222.28,-10 214.06,-10 206.2,-10"/>
<polygon fill="#63b8ff" stroke="#63b8ff" points="230.12,-13.5 240.12,-10 230.12,-6.5 230.12,-13.5"/>
</a>
</g>
</g>
<!-- Node3 -->
<g id="Node000003" class="node">
<title>Node3</title>
<g id="a_Node000003"><a xlink:href="namespaceflatted.html#a0f956bd4567258719b6151c1cb2f3220" target="_top" xlink:title=" ">
<polygon fill="white" stroke="#666666" points="79,-20 0,-20 0,0 79,0 79,-20"/>
<text text-anchor="middle" x="39.5" y="-6.5" font-family="Helvetica,sans-Serif" font-size="10.00">flatted.stringify</text>
</a>
</g>
</g>
<!-- Node2&#45;&gt;Node3 -->
<g id="edge2_Node000002_Node000003" class="edge">
<title>Node2&#45;&gt;Node3</title>
<g id="a_edge2_Node000002_Node000003"><a xlink:title=" ">
<path fill="none" stroke="#63b8ff" d="M103.2,-10C95.12,-10 86.96,-10 79.32,-10"/>
<polygon fill="#63b8ff" stroke="#63b8ff" points="103,-13.5 113,-10 103,-6.5 103,-13.5"/>
</a>
</g>
</g>
</g>
</svg>
