<?xml version="1.0" encoding="UTF-8" standalone="no"?>
<!DOCTYPE svg PUBLIC "-//W3C//DTD SVG 1.1//EN"
 "http://www.w3.org/Graphics/SVG/1.1/DTD/svg11.dtd">
<!-- Generated by graphviz version 9.0.0 (20230911.1827)
 -->
<!-- Title: flatted._ref Pages: 1 -->
<svg width="208pt" height="180pt"
 viewBox="0.00 0.00 208.00 180.00" xmlns="http://www.w3.org/2000/svg" xmlns:xlink="http://www.w3.org/1999/xlink">

<svg id="main" version="1.1" xmlns="http://www.w3.org/2000/svg" xmlns:xlink="http://www.w3.org/1999/xlink" xml:space="preserve" onload="init(evt)">
<style type="text/css"><![CDATA[
.node, .edge {opacity: 0.7;}
.node.selected, .edge.selected {opacity: 1;}
.edge:hover path { stroke: red; }
.edge:hover polygon { stroke: red; fill: red; }
]]></style>
<script type="application/ecmascript" xlink:href="svg.min.js"/>
<svg id="graph" class="graph">
<g id="graph0" class="graph" transform="scale(1 1) rotate(0) translate(4 176)">
<title>flatted._ref</title>
<!-- Node1 -->
<g id="Node000001" class="node">
<title>Node1</title>
<g id="a_Node000001"><a xlink:title=" ">
<polygon fill="#999999" stroke="#666666" points="61,-77 0,-77 0,-57 61,-57 61,-77"/>
<text text-anchor="middle" x="30.5" y="-63.5" font-family="Helvetica,sans-Serif" font-size="10.00">flatted._ref</text>
</a>
</g>
</g>
<!-- Node2 -->
<g id="Node000002" class="node">
<title>Node2</title>
<g id="a_Node000002"><a xlink:href="namespaceflatted.html#ac519e883b493d4a80b5e692279bc8cd5" target="_top" xlink:title=" ">
<polygon fill="white" stroke="#666666" points="197.75,-172 99.25,-172 99.25,-152 197.75,-152 197.75,-172"/>
<text text-anchor="middle" x="148.5" y="-158.5" font-family="Helvetica,sans-Serif" font-size="10.00">flatted._array_keys</text>
</a>
</g>
</g>
<!-- Node1&#45;&gt;Node2 -->
<g id="edge1_Node000001_Node000002" class="edge">
<title>Node1&#45;&gt;Node2</title>
<g id="a_edge1_Node000001_Node000002"><a xlink:title=" ">
<path fill="none" stroke="#63b8ff" d="M37.89,-77.3C48.38,-93.42 70.72,-124.65 97,-143 98.79,-144.25 100.66,-145.42 102.6,-146.53"/>
<polygon fill="#63b8ff" stroke="#63b8ff" points="100.79,-149.54 111.3,-150.86 103.9,-143.27 100.79,-149.54"/>
</a>
</g>
</g>
<!-- Node3 -->
<g id="Node000003" class="node">
<title>Node3</title>
<g id="a_Node000003"><a xlink:href="namespaceflatted.html#aa9e0f6bdd410c981176fd35934135275" target="_top" xlink:title=" ">
<polygon fill="white" stroke="#666666" points="191,-134 106,-134 106,-114 191,-114 191,-134"/>
<text text-anchor="middle" x="148.5" y="-120.5" font-family="Helvetica,sans-Serif" font-size="10.00">flatted._is_array</text>
</a>
</g>
</g>
<!-- Node1&#45;&gt;Node3 -->
<g id="edge2_Node000001_Node000003" class="edge">
<title>Node1&#45;&gt;Node3</title>
<g id="a_edge2_Node000001_Node000003"><a xlink:title=" ">
<path fill="none" stroke="#63b8ff" d="M47.78,-77.46C60.79,-85.57 79.66,-96.78 97,-105 100.12,-106.48 103.38,-107.92 106.68,-109.31"/>
<polygon fill="#63b8ff" stroke="#63b8ff" points="105.26,-112.51 115.85,-112.99 107.87,-106.02 105.26,-112.51"/>
</a>
</g>
</g>
<!-- Node4 -->
<g id="Node000004" class="node">
<title>Node4</title>
<g id="a_Node000004"><a xlink:href="namespaceflatted.html#af2ee527c66c20e7e38440129fa094067" target="_top" xlink:title=" ">
<polygon fill="white" stroke="#666666" points="193.25,-96 103.75,-96 103.75,-76 193.25,-76 193.25,-96"/>
<text text-anchor="middle" x="148.5" y="-82.5" font-family="Helvetica,sans-Serif" font-size="10.00">flatted._is_object</text>
</a>
</g>
</g>
<!-- Node1&#45;&gt;Node4 -->
<g id="edge3_Node000001_Node000004" class="edge">
<title>Node1&#45;&gt;Node4</title>
<g id="a_edge3_Node000001_Node000004"><a xlink:title=" ">
<path fill="none" stroke="#63b8ff" d="M61.37,-71.89C70.74,-73.43 81.4,-75.17 91.95,-76.9"/>
<polygon fill="#63b8ff" stroke="#63b8ff" points="91.36,-80.35 101.79,-78.51 92.49,-73.44 91.36,-80.35"/>
</a>
</g>
</g>
<!-- Node5 -->
<g id="Node000005" class="node">
<title>Node5</title>
<g id="a_Node000005"><a xlink:href="namespaceflatted.html#aecd75202b154514cfdaa0eee6a8dd8a0" target="_top" xlink:title=" ">
<polygon fill="white" stroke="#666666" points="182.75,-58 114.25,-58 114.25,-38 182.75,-38 182.75,-58"/>
<text text-anchor="middle" x="148.5" y="-44.5" font-family="Helvetica,sans-Serif" font-size="10.00">flatted._loop</text>
</a>
</g>
</g>
<!-- Node1&#45;&gt;Node5 -->
<g id="edge4_Node000001_Node000005" class="edge">
<title>Node1&#45;&gt;Node5</title>
<g id="a_edge4_Node000001_Node000005"><a xlink:title=" ">
<path fill="none" stroke="#63b8ff" d="M59.58,-56.52C72.49,-53.58 88.12,-50.78 102.61,-48.76"/>
<polygon fill="#63b8ff" stroke="#63b8ff" points="102.92,-52.25 112.4,-47.51 102.03,-45.3 102.92,-52.25"/>
</a>
</g>
</g>
<!-- Node6 -->
<g id="Node000006" class="node">
<title>Node6</title>
<g id="a_Node000006"><a xlink:href="namespaceflatted.html#a48139942bd2d19d86710899061eacba8" target="_top" xlink:title=" ">
<polygon fill="white" stroke="#666666" points="200,-20 97,-20 97,0 200,0 200,-20"/>
<text text-anchor="middle" x="148.5" y="-6.5" font-family="Helvetica,sans-Serif" font-size="10.00">flatted._object_keys</text>
</a>
</g>
</g>
<!-- Node1&#45;&gt;Node6 -->
<g id="edge6_Node000001_Node000006" class="edge">
<title>Node1&#45;&gt;Node6</title>
<g id="a_edge6_Node000001_Node000006"><a xlink:title=" ">
<path fill="none" stroke="#63b8ff" d="M47.78,-56.54C60.79,-48.43 79.66,-37.22 97,-29 100.12,-27.52 103.38,-26.08 106.68,-24.69"/>
<polygon fill="#63b8ff" stroke="#63b8ff" points="107.87,-27.98 115.85,-21.01 105.26,-21.49 107.87,-27.98"/>
</a>
</g>
</g>
<!-- Node5&#45;&gt;Node1 -->
<g id="edge5_Node000005_Node000001" class="edge">
<title>Node5&#45;&gt;Node1</title>
<g id="a_edge5_Node000005_Node000001"><a xlink:title=" ">
<path fill="none" stroke="#63b8ff" d="M119.32,-58.5C105.34,-61.68 88.18,-64.69 72.75,-66.74"/>
<polygon fill="#63b8ff" stroke="#63b8ff" points="72.39,-63.25 62.88,-67.92 73.22,-70.21 72.39,-63.25"/>
</a>
</g>
</g>
</g>
</svg>
</svg>

<style type='text/css'>
<![CDATA[
[data-mouse-over-selected='false'] { opacity: 0.7; }
[data-mouse-over-selected='true']  { opacity: 1.0; }
]]>
</style>
<script type="application/ecmascript"><![CDATA[
document.addEventListener('DOMContentLoaded', (event) => {
  highlightEdges();
  highlightAdjacentNodes();
});
]]></script>
</svg>
