<?xml version="1.0" encoding="UTF-8" standalone="no"?>
<!DOCTYPE svg PUBLIC "-//W3C//DTD SVG 1.1//EN"
 "http://www.w3.org/Graphics/SVG/1.1/DTD/svg11.dtd">
<!-- Generated by graphviz version 9.0.0 (20230911.1827)
 -->
<!-- Title: flatted._index Pages: 1 -->
<svg width="434pt" height="47pt"
 viewBox="0.00 0.00 434.25 47.00" xmlns="http://www.w3.org/2000/svg" xmlns:xlink="http://www.w3.org/1999/xlink">

<svg id="main" version="1.1" xmlns="http://www.w3.org/2000/svg" xmlns:xlink="http://www.w3.org/1999/xlink" xml:space="preserve" onload="init(evt)">
<style type="text/css"><![CDATA[
.node, .edge {opacity: 0.7;}
.node.selected, .edge.selected {opacity: 1;}
.edge:hover path { stroke: red; }
.edge:hover polygon { stroke: red; fill: red; }
]]></style>
<script type="application/ecmascript" xlink:href="svg.min.js"/>
<svg id="graph" class="graph">
<g id="graph0" class="graph" transform="scale(1 1) rotate(0) translate(4 43)">
<title>flatted._index</title>
<!-- Node1 -->
<g id="Node000001" class="node">
<title>Node1</title>
<g id="a_Node000001"><a xlink:title=" ">
<polygon fill="#999999" stroke="#666666" points="426.25,-20 352.5,-20 352.5,0 426.25,0 426.25,-20"/>
<text text-anchor="middle" x="389.38" y="-6.5" font-family="Helvetica,sans-Serif" font-size="10.00">flatted._index</text>
</a>
</g>
</g>
<!-- Node2 -->
<g id="Node000002" class="node">
<title>Node2</title>
<g id="a_Node000002"><a xlink:href="namespaceflatted.html#a1c57a34a7bf724a855bd3f2a1fd98fc7" target="_top" xlink:title=" ">
<polygon fill="white" stroke="#666666" points="316.5,-39 242,-39 242,-19 316.5,-19 316.5,-39"/>
<text text-anchor="middle" x="279.25" y="-25.5" font-family="Helvetica,sans-Serif" font-size="10.00">flatted._relate</text>
</a>
</g>
</g>
<!-- Node1&#45;&gt;Node2 -->
<g id="edge1_Node000001_Node000002" class="edge">
<title>Node1&#45;&gt;Node2</title>
<g id="a_edge1_Node000001_Node000002"><a xlink:title=" ">
<path fill="none" stroke="#63b8ff" d="M340.82,-18.36C332.71,-19.78 324.4,-21.24 316.64,-22.6"/>
<polygon fill="#63b8ff" stroke="#63b8ff" points="341.34,-21.82 350.58,-16.64 340.12,-14.93 341.34,-21.82"/>
</a>
</g>
</g>
<!-- Node4 -->
<g id="Node000004" class="node">
<title>Node4</title>
<g id="a_Node000004"><a xlink:href="namespaceflatted.html#a0f956bd4567258719b6151c1cb2f3220" target="_top" xlink:title=" ">
<polygon fill="white" stroke="#666666" points="79,-20 0,-20 0,0 79,0 79,-20"/>
<text text-anchor="middle" x="39.5" y="-6.5" font-family="Helvetica,sans-Serif" font-size="10.00">flatted.stringify</text>
</a>
</g>
</g>
<!-- Node1&#45;&gt;Node4 -->
<g id="edge4_Node000001_Node000004" class="edge">
<title>Node1&#45;&gt;Node4</title>
<g id="a_edge4_Node000001_Node000004"><a xlink:title=" ">
<path fill="none" stroke="#63b8ff" d="M340.68,-10C271.18,-10 143.4,-10 79.31,-10"/>
<polygon fill="#63b8ff" stroke="#63b8ff" points="340.62,-13.5 350.62,-10 340.62,-6.5 340.62,-13.5"/>
</a>
</g>
</g>
<!-- Node3 -->
<g id="Node000003" class="node">
<title>Node3</title>
<g id="a_Node000003"><a xlink:href="namespaceflatted.html#a41da9bdca5096c88843590ce405b907f" target="_top" xlink:title=" ">
<polygon fill="white" stroke="#666666" points="206,-39 115,-39 115,-19 206,-19 206,-39"/>
<text text-anchor="middle" x="160.5" y="-25.5" font-family="Helvetica,sans-Serif" font-size="10.00">flatted._transform</text>
</a>
</g>
</g>
<!-- Node2&#45;&gt;Node3 -->
<g id="edge2_Node000002_Node000003" class="edge">
<title>Node2&#45;&gt;Node3</title>
<g id="a_edge2_Node000002_Node000003"><a xlink:title=" ">
<path fill="none" stroke="#63b8ff" d="M230.24,-29C222.28,-29 214.06,-29 206.2,-29"/>
<polygon fill="#63b8ff" stroke="#63b8ff" points="230.12,-32.5 240.12,-29 230.12,-25.5 230.12,-32.5"/>
</a>
</g>
</g>
<!-- Node3&#45;&gt;Node4 -->
<g id="edge3_Node000003_Node000004" class="edge">
<title>Node3&#45;&gt;Node4</title>
<g id="a_edge3_Node000003_Node000004"><a xlink:title=" ">
<path fill="none" stroke="#63b8ff" d="M103.2,-20.01C95.12,-18.72 86.96,-17.42 79.32,-16.2"/>
<polygon fill="#63b8ff" stroke="#63b8ff" points="102.59,-23.46 113.02,-21.58 103.69,-16.55 102.59,-23.46"/>
</a>
</g>
</g>
</g>
</svg>
</svg>

<style type='text/css'>
<![CDATA[
[data-mouse-over-selected='false'] { opacity: 0.7; }
[data-mouse-over-selected='true']  { opacity: 1.0; }
]]>
</style>
<script type="application/ecmascript"><![CDATA[
document.addEventListener('DOMContentLoaded', (event) => {
  highlightEdges();
  highlightAdjacentNodes();
});
]]></script>
</svg>
