<?xml version="1.0" encoding="UTF-8" standalone="no"?>
<!DOCTYPE svg PUBLIC "-//W3C//DTD SVG 1.1//EN"
 "http://www.w3.org/Graphics/SVG/1.1/DTD/svg11.dtd">
<!-- Generated by graphviz version 9.0.0 (20230911.1827)
 -->
<!-- Title: flatted._is_string Pages: 1 -->
<svg width="448pt" height="84pt"
 viewBox="0.00 0.00 447.75 84.00" xmlns="http://www.w3.org/2000/svg" xmlns:xlink="http://www.w3.org/1999/xlink">

<svg id="main" version="1.1" xmlns="http://www.w3.org/2000/svg" xmlns:xlink="http://www.w3.org/1999/xlink" xml:space="preserve" onload="init(evt)">
<style type="text/css"><![CDATA[
.node, .edge {opacity: 0.7;}
.node.selected, .edge.selected {opacity: 1;}
.edge:hover path { stroke: red; }
.edge:hover polygon { stroke: red; fill: red; }
]]></style>
<script type="application/ecmascript" xlink:href="svg.min.js"/>
<svg id="graph" class="graph">
<g id="graph0" class="graph" transform="scale(1 1) rotate(0) translate(4 80)">
<title>flatted._is_string</title>
<!-- Node1 -->
<g id="Node000001" class="node">
<title>Node1</title>
<g id="a_Node000001"><a xlink:title=" ">
<polygon fill="#999999" stroke="#666666" points="439.75,-48 352.5,-48 352.5,-28 439.75,-28 439.75,-48"/>
<text text-anchor="middle" x="396.12" y="-34.5" font-family="Helvetica,sans-Serif" font-size="10.00">flatted._is_string</text>
</a>
</g>
</g>
<!-- Node2 -->
<g id="Node000002" class="node">
<title>Node2</title>
<g id="a_Node000002"><a xlink:href="namespaceflatted.html#a1c57a34a7bf724a855bd3f2a1fd98fc7" target="_top" xlink:title=" ">
<polygon fill="white" stroke="#666666" points="316.5,-76 242,-76 242,-56 316.5,-56 316.5,-76"/>
<text text-anchor="middle" x="279.25" y="-62.5" font-family="Helvetica,sans-Serif" font-size="10.00">flatted._relate</text>
</a>
</g>
</g>
<!-- Node1&#45;&gt;Node2 -->
<g id="edge1_Node000001_Node000002" class="edge">
<title>Node1&#45;&gt;Node2</title>
<g id="a_edge1_Node000001_Node000002"><a xlink:title=" ">
<path fill="none" stroke="#63b8ff" d="M341.44,-51.09C333.04,-53.13 324.54,-55.2 316.66,-57.13"/>
<polygon fill="#63b8ff" stroke="#63b8ff" points="341.99,-54.55 350.88,-48.78 340.33,-47.75 341.99,-54.55"/>
</a>
</g>
</g>
<!-- Node5 -->
<g id="Node000005" class="node">
<title>Node5</title>
<g id="a_Node000005"><a xlink:href="namespaceflatted.html#ac493ef170880e775025eb0b6f2bf3318" target="_top" xlink:title=" ">
<polygon fill="white" stroke="#666666" points="314.62,-20 243.88,-20 243.88,0 314.62,0 314.62,-20"/>
<text text-anchor="middle" x="279.25" y="-6.5" font-family="Helvetica,sans-Serif" font-size="10.00">flatted._wrap</text>
</a>
</g>
</g>
<!-- Node1&#45;&gt;Node5 -->
<g id="edge4_Node000001_Node000005" class="edge">
<title>Node1&#45;&gt;Node5</title>
<g id="a_edge4_Node000001_Node000005"><a xlink:title=" ">
<path fill="none" stroke="#63b8ff" d="M341.43,-24.91C332.39,-22.71 323.21,-20.47 314.82,-18.43"/>
<polygon fill="#63b8ff" stroke="#63b8ff" points="340.33,-28.25 350.88,-27.22 341.99,-21.45 340.33,-28.25"/>
</a>
</g>
</g>
<!-- Node3 -->
<g id="Node000003" class="node">
<title>Node3</title>
<g id="a_Node000003"><a xlink:href="namespaceflatted.html#a41da9bdca5096c88843590ce405b907f" target="_top" xlink:title=" ">
<polygon fill="white" stroke="#666666" points="206,-76 115,-76 115,-56 206,-56 206,-76"/>
<text text-anchor="middle" x="160.5" y="-62.5" font-family="Helvetica,sans-Serif" font-size="10.00">flatted._transform</text>
</a>
</g>
</g>
<!-- Node2&#45;&gt;Node3 -->
<g id="edge2_Node000002_Node000003" class="edge">
<title>Node2&#45;&gt;Node3</title>
<g id="a_edge2_Node000002_Node000003"><a xlink:title=" ">
<path fill="none" stroke="#63b8ff" d="M230.24,-66C222.28,-66 214.06,-66 206.2,-66"/>
<polygon fill="#63b8ff" stroke="#63b8ff" points="230.12,-69.5 240.12,-66 230.12,-62.5 230.12,-69.5"/>
</a>
</g>
</g>
<!-- Node4 -->
<g id="Node000004" class="node">
<title>Node4</title>
<g id="a_Node000004"><a xlink:href="namespaceflatted.html#a0f956bd4567258719b6151c1cb2f3220" target="_top" xlink:title=" ">
<polygon fill="white" stroke="#666666" points="79,-76 0,-76 0,-56 79,-56 79,-76"/>
<text text-anchor="middle" x="39.5" y="-62.5" font-family="Helvetica,sans-Serif" font-size="10.00">flatted.stringify</text>
</a>
</g>
</g>
<!-- Node3&#45;&gt;Node4 -->
<g id="edge3_Node000003_Node000004" class="edge">
<title>Node3&#45;&gt;Node4</title>
<g id="a_edge3_Node000003_Node000004"><a xlink:title=" ">
<path fill="none" stroke="#63b8ff" d="M103.2,-66C95.12,-66 86.96,-66 79.32,-66"/>
<polygon fill="#63b8ff" stroke="#63b8ff" points="103,-69.5 113,-66 103,-62.5 103,-69.5"/>
</a>
</g>
</g>
<!-- Node5&#45;&gt;Node5 -->
<g id="edge5_Node000005_Node000005" class="edge">
<title>Node5&#45;&gt;Node5</title>
<g id="a_edge5_Node000005_Node000005"><a xlink:title=" ">
<path fill="none" stroke="#63b8ff" d="M299.91,-31.44C297.25,-35.3 290.36,-38 279.25,-38 258.93,-38 252.74,-28.98 260.68,-20.34"/>
<polygon fill="#63b8ff" stroke="#63b8ff" points="303.39,-31.01 298.1,-21.83 296.51,-32.3 303.39,-31.01"/>
</a>
</g>
</g>
<!-- Node6 -->
<g id="Node000006" class="node">
<title>Node6</title>
<g id="a_Node000006"><a xlink:href="namespaceflatted.html#a8252c9a9e61809d65fc03c5bf815ad9e" target="_top" xlink:title=" ">
<polygon fill="white" stroke="#666666" points="195.12,-20 125.88,-20 125.88,0 195.12,0 195.12,-20"/>
<text text-anchor="middle" x="160.5" y="-6.5" font-family="Helvetica,sans-Serif" font-size="10.00">flatted.parse</text>
</a>
</g>
</g>
<!-- Node5&#45;&gt;Node6 -->
<g id="edge6_Node000005_Node000006" class="edge">
<title>Node5&#45;&gt;Node6</title>
<g id="a_edge6_Node000005_Node000006"><a xlink:title=" ">
<path fill="none" stroke="#63b8ff" d="M232.12,-10C219.9,-10 206.92,-10 195.48,-10"/>
<polygon fill="#63b8ff" stroke="#63b8ff" points="232.02,-13.5 242.02,-10 232.02,-6.5 232.02,-13.5"/>
</a>
</g>
</g>
</g>
</svg>
</svg>

<style type='text/css'>
<![CDATA[
[data-mouse-over-selected='false'] { opacity: 0.7; }
[data-mouse-over-selected='true']  { opacity: 1.0; }
]]>
</style>
<script type="application/ecmascript"><![CDATA[
document.addEventListener('DOMContentLoaded', (event) => {
  highlightEdges();
  highlightAdjacentNodes();
});
]]></script>
</svg>
