<?xml version="1.0" encoding="UTF-8" standalone="no"?>
<!DOCTYPE svg PUBLIC "-//W3C//DTD SVG 1.1//EN"
 "http://www.w3.org/Graphics/SVG/1.1/DTD/svg11.dtd">
<!-- Generated by graphviz version 9.0.0 (20230911.1827)
 -->
<!-- Title: flatted._array_keys Pages: 1 -->
<svg width="413pt" height="47pt"
 viewBox="0.00 0.00 413.25 47.00" xmlns="http://www.w3.org/2000/svg" xmlns:xlink="http://www.w3.org/1999/xlink">

<svg id="main" version="1.1" xmlns="http://www.w3.org/2000/svg" xmlns:xlink="http://www.w3.org/1999/xlink" xml:space="preserve" onload="init(evt)">
<style type="text/css"><![CDATA[
.node, .edge {opacity: 0.7;}
.node.selected, .edge.selected {opacity: 1;}
.edge:hover path { stroke: red; }
.edge:hover polygon { stroke: red; fill: red; }
]]></style>
<script type="application/ecmascript" xlink:href="svg.min.js"/>
<svg id="graph" class="graph">
<g id="graph0" class="graph" transform="scale(1 1) rotate(0) translate(4 43)">
<title>flatted._array_keys</title>
<!-- Node1 -->
<g id="Node000001" class="node">
<title>Node1</title>
<g id="a_Node000001"><a xlink:title=" ">
<polygon fill="#999999" stroke="#666666" points="405.25,-20 306.75,-20 306.75,0 405.25,0 405.25,-20"/>
<text text-anchor="middle" x="356" y="-6.5" font-family="Helvetica,sans-Serif" font-size="10.00">flatted._array_keys</text>
</a>
</g>
</g>
<!-- Node2 -->
<g id="Node000002" class="node">
<title>Node2</title>
<g id="a_Node000002"><a xlink:href="namespaceflatted.html#af74e45c06efe798d934f5a9a643329ec" target="_top" xlink:title=" ">
<polygon fill="white" stroke="#666666" points="270.75,-39 209.75,-39 209.75,-19 270.75,-19 270.75,-39"/>
<text text-anchor="middle" x="240.25" y="-25.5" font-family="Helvetica,sans-Serif" font-size="10.00">flatted._ref</text>
</a>
</g>
</g>
<!-- Node1&#45;&gt;Node2 -->
<g id="edge1_Node000001_Node000002" class="edge">
<title>Node1&#45;&gt;Node2</title>
<g id="a_edge1_Node000001_Node000002"><a xlink:title=" ">
<path fill="none" stroke="#63b8ff" d="M295.14,-20C286.85,-21.38 278.65,-22.75 271.24,-23.99"/>
<polygon fill="#63b8ff" stroke="#63b8ff" points="295.65,-23.46 304.94,-18.36 294.5,-16.56 295.65,-23.46"/>
</a>
</g>
</g>
<!-- Node4 -->
<g id="Node000004" class="node">
<title>Node4</title>
<g id="a_Node000004"><a xlink:href="namespaceflatted.html#a8252c9a9e61809d65fc03c5bf815ad9e" target="_top" xlink:title=" ">
<polygon fill="white" stroke="#666666" points="69.25,-20 0,-20 0,0 69.25,0 69.25,-20"/>
<text text-anchor="middle" x="34.62" y="-6.5" font-family="Helvetica,sans-Serif" font-size="10.00">flatted.parse</text>
</a>
</g>
</g>
<!-- Node1&#45;&gt;Node4 -->
<g id="edge5_Node000001_Node000004" class="edge">
<title>Node1&#45;&gt;Node4</title>
<g id="a_edge5_Node000001_Node000004"><a xlink:title=" ">
<path fill="none" stroke="#63b8ff" d="M295.33,-10C228.66,-10 123.06,-10 69.37,-10"/>
<polygon fill="#63b8ff" stroke="#63b8ff" points="294.98,-13.5 304.98,-10 294.98,-6.5 294.98,-13.5"/>
</a>
</g>
</g>
<!-- Node3 -->
<g id="Node000003" class="node">
<title>Node3</title>
<g id="a_Node000003"><a xlink:href="namespaceflatted.html#aecd75202b154514cfdaa0eee6a8dd8a0" target="_top" xlink:title=" ">
<polygon fill="white" stroke="#666666" points="173.75,-39 105.25,-39 105.25,-19 173.75,-19 173.75,-39"/>
<text text-anchor="middle" x="139.5" y="-25.5" font-family="Helvetica,sans-Serif" font-size="10.00">flatted._loop</text>
</a>
</g>
</g>
<!-- Node2&#45;&gt;Node3 -->
<g id="edge2_Node000002_Node000003" class="edge">
<title>Node2&#45;&gt;Node3</title>
<g id="a_edge2_Node000002_Node000003"><a xlink:title=" ">
<path fill="none" stroke="#63b8ff" d="M197.99,-22.33C190.03,-22.17 181.78,-22.25 174.09,-22.57"/>
<polygon fill="#63b8ff" stroke="#63b8ff" points="197.72,-25.82 207.84,-22.69 197.97,-18.83 197.72,-25.82"/>
</a>
</g>
</g>
<!-- Node3&#45;&gt;Node2 -->
<g id="edge3_Node000003_Node000002" class="edge">
<title>Node3&#45;&gt;Node2</title>
<g id="a_edge3_Node000003_Node000002"><a xlink:title=" ">
<path fill="none" stroke="#63b8ff" d="M185.38,-35.73C193.5,-35.82 201.79,-35.66 209.35,-35.26"/>
<polygon fill="#63b8ff" stroke="#63b8ff" points="185.69,-32.23 175.61,-35.47 185.51,-39.23 185.69,-32.23"/>
</a>
</g>
</g>
<!-- Node3&#45;&gt;Node4 -->
<g id="edge4_Node000003_Node000004" class="edge">
<title>Node3&#45;&gt;Node4</title>
<g id="a_edge4_Node000003_Node000004"><a xlink:title=" ">
<path fill="none" stroke="#63b8ff" d="M93.69,-20.72C85.66,-19.24 77.41,-17.72 69.74,-16.3"/>
<polygon fill="#63b8ff" stroke="#63b8ff" points="92.86,-24.13 103.33,-22.5 94.13,-17.25 92.86,-24.13"/>
</a>
</g>
</g>
</g>
</svg>
</svg>

<style type='text/css'>
<![CDATA[
[data-mouse-over-selected='false'] { opacity: 0.7; }
[data-mouse-over-selected='true']  { opacity: 1.0; }
]]>
</style>
<script type="application/ecmascript"><![CDATA[
document.addEventListener('DOMContentLoaded', (event) => {
  highlightEdges();
  highlightAdjacentNodes();
});
]]></script>
</svg>
