<?xml version="1.0" encoding="UTF-8" standalone="no"?>
<!DOCTYPE svg PUBLIC "-//W3C//DTD SVG 1.1//EN"
 "http://www.w3.org/Graphics/SVG/1.1/DTD/svg11.dtd">
<!-- Generated by graphviz version 9.0.0 (20230911.1827)
 -->
<!-- Title: flatted._is_object Pages: 1 -->
<svg width="450pt" height="179pt"
 viewBox="0.00 0.00 450.00 179.00" xmlns="http://www.w3.org/2000/svg" xmlns:xlink="http://www.w3.org/1999/xlink">

<svg id="main" version="1.1" xmlns="http://www.w3.org/2000/svg" xmlns:xlink="http://www.w3.org/1999/xlink" xml:space="preserve" onload="init(evt)">
<style type="text/css"><![CDATA[
.node, .edge {opacity: 0.7;}
.node.selected, .edge.selected {opacity: 1;}
.edge:hover path { stroke: red; }
.edge:hover polygon { stroke: red; fill: red; }
]]></style>
<script type="application/ecmascript" xlink:href="svg.min.js"/>
<svg id="graph" class="graph">
<g id="graph0" class="graph" transform="scale(1 1) rotate(0) translate(4 175)">
<title>flatted._is_object</title>
<!-- Node1 -->
<g id="Node000001" class="node">
<title>Node1</title>
<g id="a_Node000001"><a xlink:title=" ">
<polygon fill="#999999" stroke="#666666" points="442,-77 352.5,-77 352.5,-57 442,-57 442,-77"/>
<text text-anchor="middle" x="397.25" y="-63.5" font-family="Helvetica,sans-Serif" font-size="10.00">flatted._is_object</text>
</a>
</g>
</g>
<!-- Node2 -->
<g id="Node000002" class="node">
<title>Node2</title>
<g id="a_Node000002"><a xlink:href="namespaceflatted.html#af74e45c06efe798d934f5a9a643329ec" target="_top" xlink:title=" ">
<polygon fill="white" stroke="#666666" points="309.75,-115 248.75,-115 248.75,-95 309.75,-95 309.75,-115"/>
<text text-anchor="middle" x="279.25" y="-101.5" font-family="Helvetica,sans-Serif" font-size="10.00">flatted._ref</text>
</a>
</g>
</g>
<!-- Node1&#45;&gt;Node2 -->
<g id="edge1_Node000001_Node000002" class="edge">
<title>Node1&#45;&gt;Node2</title>
<g id="a_edge1_Node000001_Node000002"><a xlink:title=" ">
<path fill="none" stroke="#63b8ff" d="M353.55,-80.99C339.14,-85.71 323.37,-90.88 310.16,-95.2"/>
<polygon fill="#63b8ff" stroke="#63b8ff" points="354.39,-84.39 362.81,-77.96 352.21,-77.74 354.39,-84.39"/>
</a>
</g>
</g>
<!-- Node4 -->
<g id="Node000004" class="node">
<title>Node4</title>
<g id="a_Node000004"><a xlink:href="namespaceflatted.html#a8252c9a9e61809d65fc03c5bf815ad9e" target="_top" xlink:title=" ">
<polygon fill="white" stroke="#666666" points="74.12,-115 4.88,-115 4.88,-95 74.12,-95 74.12,-115"/>
<text text-anchor="middle" x="39.5" y="-101.5" font-family="Helvetica,sans-Serif" font-size="10.00">flatted.parse</text>
</a>
</g>
</g>
<!-- Node1&#45;&gt;Node4 -->
<g id="edge12_Node000001_Node000004" class="edge">
<title>Node1&#45;&gt;Node4</title>
<g id="a_edge12_Node000001_Node000004"><a xlink:title=" ">
<path fill="none" stroke="#63b8ff" d="M340.85,-67.77C283.89,-69.25 192.76,-73.56 115,-86 101.56,-88.15 87,-91.6 74.35,-94.98"/>
<polygon fill="#63b8ff" stroke="#63b8ff" points="340.7,-71.27 350.61,-67.54 340.53,-64.28 340.7,-71.27"/>
</a>
</g>
</g>
<!-- Node5 -->
<g id="Node000005" class="node">
<title>Node5</title>
<g id="a_Node000005"><a xlink:href="namespaceflatted.html#a1c57a34a7bf724a855bd3f2a1fd98fc7" target="_top" xlink:title=" ">
<polygon fill="white" stroke="#666666" points="316.5,-39 242,-39 242,-19 316.5,-19 316.5,-39"/>
<text text-anchor="middle" x="279.25" y="-25.5" font-family="Helvetica,sans-Serif" font-size="10.00">flatted._relate</text>
</a>
</g>
</g>
<!-- Node1&#45;&gt;Node5 -->
<g id="edge5_Node000001_Node000005" class="edge">
<title>Node1&#45;&gt;Node5</title>
<g id="a_edge5_Node000001_Node000005"><a xlink:title=" ">
<path fill="none" stroke="#63b8ff" d="M353.58,-53.02C339.88,-48.53 324.94,-43.64 312.15,-39.45"/>
<polygon fill="#63b8ff" stroke="#63b8ff" points="352.21,-56.26 362.81,-56.04 354.39,-49.61 352.21,-56.26"/>
</a>
</g>
</g>
<!-- Node6 -->
<g id="Node000006" class="node">
<title>Node6</title>
<g id="a_Node000006"><a xlink:href="namespaceflatted.html#a41da9bdca5096c88843590ce405b907f" target="_top" xlink:title=" ">
<polygon fill="white" stroke="#666666" points="206,-20 115,-20 115,0 206,0 206,-20"/>
<text text-anchor="middle" x="160.5" y="-6.5" font-family="Helvetica,sans-Serif" font-size="10.00">flatted._transform</text>
</a>
</g>
</g>
<!-- Node1&#45;&gt;Node6 -->
<g id="edge8_Node000001_Node000006" class="edge">
<title>Node1&#45;&gt;Node6</title>
<g id="a_edge8_Node000001_Node000006"><a xlink:title=" ">
<path fill="none" stroke="#63b8ff" d="M378.27,-49.07C363.21,-35.4 340.39,-17.66 316.5,-10 280.75,1.46 237.94,0.43 206.37,-2.88"/>
<polygon fill="#63b8ff" stroke="#63b8ff" points="375.81,-51.56 385.48,-55.89 380.62,-46.47 375.81,-51.56"/>
</a>
</g>
</g>
<!-- Node8 -->
<g id="Node000008" class="node">
<title>Node8</title>
<g id="a_Node000008"><a xlink:href="namespaceflatted.html#ac493ef170880e775025eb0b6f2bf3318" target="_top" xlink:title=" ">
<polygon fill="white" stroke="#666666" points="195.88,-153 125.12,-153 125.12,-133 195.88,-133 195.88,-153"/>
<text text-anchor="middle" x="160.5" y="-139.5" font-family="Helvetica,sans-Serif" font-size="10.00">flatted._wrap</text>
</a>
</g>
</g>
<!-- Node1&#45;&gt;Node8 -->
<g id="edge9_Node000001_Node000008" class="edge">
<title>Node1&#45;&gt;Node8</title>
<g id="a_edge9_Node000001_Node000008"><a xlink:title=" ">
<path fill="none" stroke="#63b8ff" d="M376.96,-85.05C361.74,-98.16 339.35,-115.1 316.5,-124 277.21,-139.29 228.47,-143.02 196.24,-143.59"/>
<polygon fill="#63b8ff" stroke="#63b8ff" points="379.17,-87.77 384.31,-78.5 374.51,-82.54 379.17,-87.77"/>
</a>
</g>
</g>
<!-- Node3 -->
<g id="Node000003" class="node">
<title>Node3</title>
<g id="a_Node000003"><a xlink:href="namespaceflatted.html#aecd75202b154514cfdaa0eee6a8dd8a0" target="_top" xlink:title=" ">
<polygon fill="white" stroke="#666666" points="194.75,-115 126.25,-115 126.25,-95 194.75,-95 194.75,-115"/>
<text text-anchor="middle" x="160.5" y="-101.5" font-family="Helvetica,sans-Serif" font-size="10.00">flatted._loop</text>
</a>
</g>
</g>
<!-- Node2&#45;&gt;Node3 -->
<g id="edge2_Node000002_Node000003" class="edge">
<title>Node2&#45;&gt;Node3</title>
<g id="a_edge2_Node000002_Node000003"><a xlink:title=" ">
<path fill="none" stroke="#63b8ff" d="M237.26,-98.52C223.41,-98.08 208.12,-98.18 194.92,-98.83"/>
<polygon fill="#63b8ff" stroke="#63b8ff" points="236.83,-102.01 246.97,-98.96 237.14,-95.01 236.83,-102.01"/>
</a>
</g>
</g>
<!-- Node3&#45;&gt;Node2 -->
<g id="edge3_Node000003_Node000002" class="edge">
<title>Node3&#45;&gt;Node2</title>
<g id="a_edge3_Node000003_Node000002"><a xlink:title=" ">
<path fill="none" stroke="#63b8ff" d="M206.42,-111.59C220.51,-111.93 235.71,-111.73 248.49,-110.97"/>
<polygon fill="#63b8ff" stroke="#63b8ff" points="206.55,-108.09 196.43,-111.22 206.3,-115.09 206.55,-108.09"/>
</a>
</g>
</g>
<!-- Node3&#45;&gt;Node4 -->
<g id="edge4_Node000003_Node000004" class="edge">
<title>Node3&#45;&gt;Node4</title>
<g id="a_edge4_Node000003_Node000004"><a xlink:title=" ">
<path fill="none" stroke="#63b8ff" d="M114.69,-105C101.39,-105 87.04,-105 74.54,-105"/>
<polygon fill="#63b8ff" stroke="#63b8ff" points="114.52,-108.5 124.52,-105 114.52,-101.5 114.52,-108.5"/>
</a>
</g>
</g>
<!-- Node5&#45;&gt;Node6 -->
<g id="edge6_Node000005_Node000006" class="edge">
<title>Node5&#45;&gt;Node6</title>
<g id="a_edge6_Node000005_Node000006"><a xlink:title=" ">
<path fill="none" stroke="#63b8ff" d="M230.51,-21.23C222.47,-19.92 214.15,-18.57 206.2,-17.27"/>
<polygon fill="#63b8ff" stroke="#63b8ff" points="229.7,-24.65 240.14,-22.8 230.83,-17.74 229.7,-24.65"/>
</a>
</g>
</g>
<!-- Node7 -->
<g id="Node000007" class="node">
<title>Node7</title>
<g id="a_Node000007"><a xlink:href="namespaceflatted.html#a0f956bd4567258719b6151c1cb2f3220" target="_top" xlink:title=" ">
<polygon fill="white" stroke="#666666" points="79,-20 0,-20 0,0 79,0 79,-20"/>
<text text-anchor="middle" x="39.5" y="-6.5" font-family="Helvetica,sans-Serif" font-size="10.00">flatted.stringify</text>
</a>
</g>
</g>
<!-- Node6&#45;&gt;Node7 -->
<g id="edge7_Node000006_Node000007" class="edge">
<title>Node6&#45;&gt;Node7</title>
<g id="a_edge7_Node000006_Node000007"><a xlink:title=" ">
<path fill="none" stroke="#63b8ff" d="M103.2,-10C95.12,-10 86.96,-10 79.32,-10"/>
<polygon fill="#63b8ff" stroke="#63b8ff" points="103,-13.5 113,-10 103,-6.5 103,-13.5"/>
</a>
</g>
</g>
<!-- Node8&#45;&gt;Node4 -->
<g id="edge11_Node000008_Node000004" class="edge">
<title>Node8&#45;&gt;Node4</title>
<g id="a_edge11_Node000008_Node000004"><a xlink:title=" ">
<path fill="none" stroke="#63b8ff" d="M115.73,-129.02C101.67,-124.53 86.35,-119.64 73.23,-115.45"/>
<polygon fill="#63b8ff" stroke="#63b8ff" points="114.64,-132.35 125.23,-132.06 116.76,-125.68 114.64,-132.35"/>
</a>
</g>
</g>
<!-- Node8&#45;&gt;Node8 -->
<g id="edge10_Node000008_Node000008" class="edge">
<title>Node8&#45;&gt;Node8</title>
<g id="a_edge10_Node000008_Node000008"><a xlink:title=" ">
<path fill="none" stroke="#63b8ff" d="M181.49,-164.44C178.78,-168.3 171.79,-171 160.5,-171 139.86,-171 133.57,-161.98 141.63,-153.34"/>
<polygon fill="#63b8ff" stroke="#63b8ff" points="184.97,-163.99 179.65,-154.83 178.09,-165.3 184.97,-163.99"/>
</a>
</g>
</g>
</g>
</svg>
</svg>

<style type='text/css'>
<![CDATA[
[data-mouse-over-selected='false'] { opacity: 0.7; }
[data-mouse-over-selected='true']  { opacity: 1.0; }
]]>
</style>
<script type="application/ecmascript"><![CDATA[
document.addEventListener('DOMContentLoaded', (event) => {
  highlightEdges();
  highlightAdjacentNodes();
});
]]></script>
</svg>
