<?xml version="1.0" encoding="UTF-8" standalone="no"?>
<!DOCTYPE svg PUBLIC "-//W3C//DTD SVG 1.1//EN"
 "http://www.w3.org/Graphics/SVG/1.1/DTD/svg11.dtd">
<!-- Generated by graphviz version 9.0.0 (20230911.1827)
 -->
<!-- Title: flatted._wrap Pages: 1 -->
<svg width="204pt" height="104pt"
 viewBox="0.00 0.00 204.25 104.00" xmlns="http://www.w3.org/2000/svg" xmlns:xlink="http://www.w3.org/1999/xlink">

<svg id="main" version="1.1" xmlns="http://www.w3.org/2000/svg" xmlns:xlink="http://www.w3.org/1999/xlink" xml:space="preserve" onload="init(evt)">
<style type="text/css"><![CDATA[
.node, .edge {opacity: 0.7;}
.node.selected, .edge.selected {opacity: 1;}
.edge:hover path { stroke: red; }
.edge:hover polygon { stroke: red; fill: red; }
]]></style>
<script type="application/ecmascript" xlink:href="svg.min.js"/>
<svg id="graph" class="graph">
<g id="graph0" class="graph" transform="scale(1 1) rotate(0) translate(4 100)">
<title>flatted._wrap</title>
<!-- Node1 -->
<g id="Node000001" class="node">
<title>Node1</title>
<g id="a_Node000001"><a xlink:title=" ">
<polygon fill="#999999" stroke="#666666" points="70.75,-58 0,-58 0,-38 70.75,-38 70.75,-58"/>
<text text-anchor="middle" x="35.38" y="-44.5" font-family="Helvetica,sans-Serif" font-size="10.00">flatted._wrap</text>
</a>
</g>
</g>
<!-- Node1&#45;&gt;Node1 -->
<g id="edge4_Node000001_Node000001" class="edge">
<title>Node1&#45;&gt;Node1</title>
<g id="a_edge4_Node000001_Node000001"><a xlink:title=" ">
<path fill="none" stroke="#63b8ff" d="M16.92,-58.34C9.04,-66.98 15.19,-76 35.38,-76 46.41,-76 53.26,-73.3 55.9,-69.44"/>
<polygon fill="#63b8ff" stroke="#63b8ff" points="59.38,-69.01 54.1,-59.83 52.5,-70.3 59.38,-69.01"/>
</a>
</g>
</g>
<!-- Node2 -->
<g id="Node000002" class="node">
<title>Node2</title>
<g id="a_Node000002"><a xlink:href="namespaceflatted.html#aa9e0f6bdd410c981176fd35934135275" target="_top" xlink:title=" ">
<polygon fill="white" stroke="#666666" points="194,-96 109,-96 109,-76 194,-76 194,-96"/>
<text text-anchor="middle" x="151.5" y="-82.5" font-family="Helvetica,sans-Serif" font-size="10.00">flatted._is_array</text>
</a>
</g>
</g>
<!-- Node1&#45;&gt;Node2 -->
<g id="edge1_Node000001_Node000002" class="edge">
<title>Node1&#45;&gt;Node2</title>
<g id="a_edge1_Node000001_Node000002"><a xlink:title=" ">
<path fill="none" stroke="#63b8ff" d="M67.86,-58.48C80.34,-62.64 94.87,-67.48 108.23,-71.93"/>
<polygon fill="#63b8ff" stroke="#63b8ff" points="107.09,-75.23 117.68,-75.07 109.3,-68.59 107.09,-75.23"/>
</a>
</g>
</g>
<!-- Node3 -->
<g id="Node000003" class="node">
<title>Node3</title>
<g id="a_Node000003"><a xlink:href="namespaceflatted.html#af2ee527c66c20e7e38440129fa094067" target="_top" xlink:title=" ">
<polygon fill="white" stroke="#666666" points="196.25,-58 106.75,-58 106.75,-38 196.25,-38 196.25,-58"/>
<text text-anchor="middle" x="151.5" y="-44.5" font-family="Helvetica,sans-Serif" font-size="10.00">flatted._is_object</text>
</a>
</g>
</g>
<!-- Node1&#45;&gt;Node3 -->
<g id="edge2_Node000001_Node000003" class="edge">
<title>Node1&#45;&gt;Node3</title>
<g id="a_edge2_Node000001_Node000003"><a xlink:title=" ">
<path fill="none" stroke="#63b8ff" d="M71.24,-48C78.81,-48 87,-48 95.15,-48"/>
<polygon fill="#63b8ff" stroke="#63b8ff" points="95.05,-51.5 105.05,-48 95.05,-44.5 95.05,-51.5"/>
</a>
</g>
</g>
<!-- Node4 -->
<g id="Node000004" class="node">
<title>Node4</title>
<g id="a_Node000004"><a xlink:href="namespaceflatted.html#a2c64f13b3d861c205c821e03fcd4376f" target="_top" xlink:title=" ">
<polygon fill="white" stroke="#666666" points="195.12,-20 107.88,-20 107.88,0 195.12,0 195.12,-20"/>
<text text-anchor="middle" x="151.5" y="-6.5" font-family="Helvetica,sans-Serif" font-size="10.00">flatted._is_string</text>
</a>
</g>
</g>
<!-- Node1&#45;&gt;Node4 -->
<g id="edge3_Node000001_Node000004" class="edge">
<title>Node1&#45;&gt;Node4</title>
<g id="a_edge3_Node000001_Node000004"><a xlink:title=" ">
<path fill="none" stroke="#63b8ff" d="M67.86,-37.52C80.34,-33.36 94.87,-28.52 108.23,-24.07"/>
<polygon fill="#63b8ff" stroke="#63b8ff" points="109.3,-27.41 117.68,-20.93 107.09,-20.77 109.3,-27.41"/>
</a>
</g>
</g>
</g>
</svg>
</svg>

<style type='text/css'>
<![CDATA[
[data-mouse-over-selected='false'] { opacity: 0.7; }
[data-mouse-over-selected='true']  { opacity: 1.0; }
]]>
</style>
<script type="application/ecmascript"><![CDATA[
document.addEventListener('DOMContentLoaded', (event) => {
  highlightEdges();
  highlightAdjacentNodes();
});
]]></script>
</svg>
