<?xml version="1.0" encoding="UTF-8" standalone="no"?>
<!DOCTYPE svg PUBLIC "-//W3C//DTD SVG 1.1//EN"
 "http://www.w3.org/Graphics/SVG/1.1/DTD/svg11.dtd">
<!-- Generated by graphviz version 9.0.0 (20230911.1827)
 -->
<!-- Title: C:/Users/STRIDER/source/repos/AinslieAPI/wwwroot/lib/jquery&#45;ui/node_modules/bower/lib/node_modules/uuid/benchmark/benchmark&#45;native.c Pages: 1 -->
<svg width="283pt" height="132pt"
 viewBox="0.00 0.00 283.25 132.00" xmlns="http://www.w3.org/2000/svg" xmlns:xlink="http://www.w3.org/1999/xlink">
<g id="graph0" class="graph" transform="scale(1 1) rotate(0) translate(4 128)">
<title>C:/Users/STRIDER/source/repos/AinslieAPI/wwwroot/lib/jquery&#45;ui/node_modules/bower/lib/node_modules/uuid/benchmark/benchmark&#45;native.c</title>
<!-- Node1 -->
<g id="Node000001" class="node">
<title>Node1</title>
<g id="a_Node000001"><a xlink:title=" ">
<polygon fill="#999999" stroke="#666666" points="202.62,-124 48.62,-124 48.62,-56 202.62,-56 202.62,-124"/>
<text text-anchor="start" x="56.62" y="-110.5" font-family="Helvetica,sans-Serif" font-size="10.00">C:/Users/STRIDER/source</text>
<text text-anchor="start" x="56.62" y="-98.5" font-family="Helvetica,sans-Serif" font-size="10.00">/repos/AinslieAPI/wwwroot</text>
<text text-anchor="start" x="56.62" y="-86.5" font-family="Helvetica,sans-Serif" font-size="10.00">/lib/jquery&#45;ui/node_modules</text>
<text text-anchor="start" x="56.62" y="-74.5" font-family="Helvetica,sans-Serif" font-size="10.00">/bower/lib/node_modules/uuid</text>
<text text-anchor="middle" x="125.62" y="-62.5" font-family="Helvetica,sans-Serif" font-size="10.00">/benchmark/benchmark&#45;native.c</text>
</a>
</g>
</g>
<!-- Node2 -->
<g id="Node000002" class="node">
<title>Node2</title>
<g id="a_Node000002"><a xlink:title=" ">
<polygon fill="#e0e0e0" stroke="#999999" points="45.25,-20 0,-20 0,0 45.25,0 45.25,-20"/>
<text text-anchor="middle" x="22.62" y="-6.5" font-family="Helvetica,sans-Serif" font-size="10.00">stdio.h</text>
</a>
</g>
</g>
<!-- Node1&#45;&gt;Node2 -->
<g id="edge1_Node000001_Node000002" class="edge">
<title>Node1&#45;&gt;Node2</title>
<g id="a_edge1_Node000001_Node000002"><a xlink:title=" ">
<path fill="none" stroke="#63b8ff" d="M81.64,-55.69C68.58,-45.8 54.86,-35.41 43.94,-27.14"/>
<polygon fill="#63b8ff" stroke="#63b8ff" points="46.09,-24.38 36,-21.13 41.86,-29.96 46.09,-24.38"/>
</a>
</g>
</g>
<!-- Node3 -->
<g id="Node000003" class="node">
<title>Node3</title>
<g id="a_Node000003"><a xlink:title=" ">
<polygon fill="#e0e0e0" stroke="#999999" points="113.88,-20 63.38,-20 63.38,0 113.88,0 113.88,-20"/>
<text text-anchor="middle" x="88.62" y="-6.5" font-family="Helvetica,sans-Serif" font-size="10.00">unistd.h</text>
</a>
</g>
</g>
<!-- Node1&#45;&gt;Node3 -->
<g id="edge2_Node000001_Node000003" class="edge">
<title>Node1&#45;&gt;Node3</title>
<g id="a_edge2_Node000001_Node000003"><a xlink:title=" ">
<path fill="none" stroke="#63b8ff" d="M109.93,-55.92C105.85,-47.32 101.59,-38.32 97.95,-30.66"/>
<polygon fill="#63b8ff" stroke="#63b8ff" points="101.12,-29.18 93.67,-21.65 94.8,-32.18 101.12,-29.18"/>
</a>
</g>
</g>
<!-- Node4 -->
<g id="Node000004" class="node">
<title>Node4</title>
<g id="a_Node000004"><a xlink:title=" ">
<polygon fill="#e0e0e0" stroke="#999999" points="193.5,-20 131.75,-20 131.75,0 193.5,0 193.5,-20"/>
<text text-anchor="middle" x="162.62" y="-6.5" font-family="Helvetica,sans-Serif" font-size="10.00">sys/time.h</text>
</a>
</g>
</g>
<!-- Node1&#45;&gt;Node4 -->
<g id="edge3_Node000001_Node000004" class="edge">
<title>Node1&#45;&gt;Node4</title>
<g id="a_edge3_Node000001_Node000004"><a xlink:title=" ">
<path fill="none" stroke="#63b8ff" d="M141.32,-55.92C145.4,-47.32 149.66,-38.32 153.3,-30.66"/>
<polygon fill="#63b8ff" stroke="#63b8ff" points="156.45,-32.18 157.58,-21.65 150.13,-29.18 156.45,-32.18"/>
</a>
</g>
</g>
<!-- Node5 -->
<g id="Node000005" class="node">
<title>Node5</title>
<g id="a_Node000005"><a xlink:title=" ">
<polygon fill="#e0e0e0" stroke="#999999" points="275.25,-20 212,-20 212,0 275.25,0 275.25,-20"/>
<text text-anchor="middle" x="243.62" y="-6.5" font-family="Helvetica,sans-Serif" font-size="10.00">uuid/uuid.h</text>
</a>
</g>
</g>
<!-- Node1&#45;&gt;Node5 -->
<g id="edge4_Node000001_Node000005" class="edge">
<title>Node1&#45;&gt;Node5</title>
<g id="a_edge4_Node000001_Node000005"><a xlink:title=" ">
<path fill="none" stroke="#63b8ff" d="M176.01,-55.69C191.33,-45.57 207.45,-34.91 220.1,-26.55"/>
<polygon fill="#63b8ff" stroke="#63b8ff" points="221.75,-29.66 228.16,-21.22 217.89,-23.82 221.75,-29.66"/>
</a>
</g>
</g>
</g>
</svg>
