<?xml version="1.0" encoding="UTF-8" standalone="no"?>
<!DOCTYPE svg PUBLIC "-//W3C//DTD SVG 1.1//EN"
 "http://www.w3.org/Graphics/SVG/1.1/DTD/svg11.dtd">
<!-- Generated by graphviz version 9.0.0 (20230911.1827)
 -->
<!-- Title: TaskAPI.Helpers.SpotHelper.IsMarketOpen Pages: 1 -->
<svg width="931pt" height="90pt"
 viewBox="0.00 0.00 931.00 90.00" xmlns="http://www.w3.org/2000/svg" xmlns:xlink="http://www.w3.org/1999/xlink">
<g id="graph0" class="graph" transform="scale(1 1) rotate(0) translate(4 86)">
<title>TaskAPI.Helpers.SpotHelper.IsMarketOpen</title>
<!-- Node1 -->
<g id="Node000001" class="node">
<title>Node1</title>
<g id="a_Node000001"><a xlink:title="Determines if the market for a specific instrument is currently open.">
<polygon fill="#999999" stroke="#666666" points="142.75,-57 0,-57 0,-25 142.75,-25 142.75,-57"/>
<text text-anchor="start" x="8" y="-43.5" font-family="Helvetica,sans-Serif" font-size="10.00">TaskAPI.Helpers.SpotHelper.</text>
<text text-anchor="middle" x="71.38" y="-31.5" font-family="Helvetica,sans-Serif" font-size="10.00">IsMarketOpen</text>
</a>
</g>
</g>
<!-- Node2 -->
<g id="Node000002" class="node">
<title>Node2</title>
<g id="a_Node000002"><a xlink:href="class_task_a_p_i_1_1_services_1_1_internal_a_p_i_service.html#aa614614518048e1244ae357de18425df" target="_top" xlink:title="Retrieves the price of a specified OANDA instrument in USD.">
<polygon fill="white" stroke="#666666" points="377.75,-57 178.75,-57 178.75,-25 377.75,-25 377.75,-57"/>
<text text-anchor="start" x="186.75" y="-43.5" font-family="Helvetica,sans-Serif" font-size="10.00">TaskAPI.Services.Internal</text>
<text text-anchor="middle" x="278.25" y="-31.5" font-family="Helvetica,sans-Serif" font-size="10.00">APIService.GetOandaInstrumentPriceUSD</text>
</a>
</g>
</g>
<!-- Node1&#45;&gt;Node2 -->
<g id="edge1_Node000001_Node000002" class="edge">
<title>Node1&#45;&gt;Node2</title>
<g id="a_edge1_Node000001_Node000002"><a xlink:title=" ">
<path fill="none" stroke="#63b8ff" d="M143.17,-41C150.87,-41 158.84,-41 166.88,-41"/>
<polygon fill="#63b8ff" stroke="#63b8ff" points="166.74,-44.5 176.74,-41 166.74,-37.5 166.74,-44.5"/>
</a>
</g>
</g>
<!-- Node3 -->
<g id="Node000003" class="node">
<title>Node3</title>
<g id="a_Node000003"><a xlink:href="class_task_a_p_i_1_1_services_1_1_log_service.html#a46dc9bf58bc9605c7e17dfee38b94354" target="_top" xlink:title="Logs an error message to the database.">
<polygon fill="white" stroke="#666666" points="559.5,-82 413.75,-82 413.75,-50 559.5,-50 559.5,-82"/>
<text text-anchor="start" x="421.75" y="-68.5" font-family="Helvetica,sans-Serif" font-size="10.00">TaskAPI.Services.LogService.</text>
<text text-anchor="middle" x="486.62" y="-56.5" font-family="Helvetica,sans-Serif" font-size="10.00">LogError</text>
</a>
</g>
</g>
<!-- Node2&#45;&gt;Node3 -->
<g id="edge2_Node000002_Node000003" class="edge">
<title>Node2&#45;&gt;Node3</title>
<g id="a_edge2_Node000002_Node000003"><a xlink:title=" ">
<path fill="none" stroke="#63b8ff" d="M378.21,-52.99C386.2,-53.96 394.23,-54.93 402.09,-55.88"/>
<polygon fill="#63b8ff" stroke="#63b8ff" points="401.64,-59.35 411.98,-57.08 402.48,-52.4 401.64,-59.35"/>
</a>
</g>
</g>
<!-- Node6 -->
<g id="Node000006" class="node">
<title>Node6</title>
<g id="a_Node000006"><a xlink:href="class_task_a_p_i_1_1_services_1_1_log_service.html#a78c9df658858fa3099eed69421423898" target="_top" xlink:title="Logs an exception to the database.">
<polygon fill="white" stroke="#666666" points="559.5,-32 413.75,-32 413.75,0 559.5,0 559.5,-32"/>
<text text-anchor="start" x="421.75" y="-18.5" font-family="Helvetica,sans-Serif" font-size="10.00">TaskAPI.Services.LogService.</text>
<text text-anchor="middle" x="486.62" y="-6.5" font-family="Helvetica,sans-Serif" font-size="10.00">LogException</text>
</a>
</g>
</g>
<!-- Node2&#45;&gt;Node6 -->
<g id="edge5_Node000002_Node000006" class="edge">
<title>Node2&#45;&gt;Node6</title>
<g id="a_edge5_Node000002_Node000006"><a xlink:title=" ">
<path fill="none" stroke="#63b8ff" d="M378.21,-29.01C386.2,-28.04 394.23,-27.07 402.09,-26.12"/>
<polygon fill="#63b8ff" stroke="#63b8ff" points="402.48,-29.6 411.98,-24.92 401.64,-22.65 402.48,-29.6"/>
</a>
</g>
</g>
<!-- Node4 -->
<g id="Node000004" class="node">
<title>Node4</title>
<g id="a_Node000004"><a xlink:href="class_task_a_p_i_1_1_services_1_1_log_service.html#a44f0fd9db1116257087ba59c836e22ea" target="_top" xlink:title="Directly inserts a log entry into the database.">
<polygon fill="white" stroke="#666666" points="741.25,-57 595.5,-57 595.5,-25 741.25,-25 741.25,-57"/>
<text text-anchor="start" x="603.5" y="-43.5" font-family="Helvetica,sans-Serif" font-size="10.00">TaskAPI.Services.LogService.</text>
<text text-anchor="middle" x="668.38" y="-31.5" font-family="Helvetica,sans-Serif" font-size="10.00">InsertLog</text>
</a>
</g>
</g>
<!-- Node3&#45;&gt;Node4 -->
<g id="edge3_Node000003_Node000004" class="edge">
<title>Node3&#45;&gt;Node4</title>
<g id="a_edge3_Node000003_Node000004"><a xlink:title=" ">
<path fill="none" stroke="#63b8ff" d="M559.96,-55.94C567.85,-54.84 575.93,-53.72 583.94,-52.6"/>
<polygon fill="#63b8ff" stroke="#63b8ff" points="584.27,-56.09 593.69,-51.25 583.3,-49.16 584.27,-56.09"/>
</a>
</g>
</g>
<!-- Node5 -->
<g id="Node000005" class="node">
<title>Node5</title>
<g id="a_Node000005"><a xlink:href="class_task_a_p_i_1_1_services_1_1_log_service.html#a20f6ab73ae5cc69273da4416da65f94d" target="_top" xlink:title="Writes a log entry to a local text file as a fallback or additional logging method.">
<polygon fill="white" stroke="#666666" points="923,-57 777.25,-57 777.25,-25 923,-25 923,-57"/>
<text text-anchor="start" x="785.25" y="-43.5" font-family="Helvetica,sans-Serif" font-size="10.00">TaskAPI.Services.LogService.</text>
<text text-anchor="middle" x="850.12" y="-31.5" font-family="Helvetica,sans-Serif" font-size="10.00">WriteLog</text>
</a>
</g>
</g>
<!-- Node4&#45;&gt;Node5 -->
<g id="edge4_Node000004_Node000005" class="edge">
<title>Node4&#45;&gt;Node5</title>
<g id="a_edge4_Node000004_Node000005"><a xlink:title=" ">
<path fill="none" stroke="#63b8ff" d="M741.71,-41C749.6,-41 757.68,-41 765.69,-41"/>
<polygon fill="#63b8ff" stroke="#63b8ff" points="765.43,-44.5 775.43,-41 765.43,-37.5 765.43,-44.5"/>
</a>
</g>
</g>
<!-- Node6&#45;&gt;Node4 -->
<g id="edge6_Node000006_Node000004" class="edge">
<title>Node6&#45;&gt;Node4</title>
<g id="a_edge6_Node000006_Node000004"><a xlink:title=" ">
<path fill="none" stroke="#63b8ff" d="M559.96,-26.06C567.85,-27.16 575.93,-28.28 583.94,-29.4"/>
<polygon fill="#63b8ff" stroke="#63b8ff" points="583.3,-32.84 593.69,-30.75 584.27,-25.91 583.3,-32.84"/>
</a>
</g>
</g>
</g>
</svg>
