<?xml version="1.0" encoding="UTF-8" standalone="no"?>
<!DOCTYPE svg PUBLIC "-//W3C//DTD SVG 1.1//EN"
 "http://www.w3.org/Graphics/SVG/1.1/DTD/svg11.dtd">
<!-- Generated by graphviz version 9.0.0 (20230911.1827)
 -->
<!-- Title: TaskAPI.Helpers.AlertHelper.FormatJsonValue Pages: 1 -->
<svg width="862pt" height="40pt"
 viewBox="0.00 0.00 862.00 40.00" xmlns="http://www.w3.org/2000/svg" xmlns:xlink="http://www.w3.org/1999/xlink">
<g id="graph0" class="graph" transform="scale(1 1) rotate(0) translate(4 36)">
<title>TaskAPI.Helpers.AlertHelper.FormatJsonValue</title>
<!-- Node1 -->
<g id="Node000001" class="node">
<title>Node1</title>
<g id="a_Node000001"><a xlink:title="Formats a JSON value for HTML presentation, applying different colors based on data types.">
<polygon fill="#999999" stroke="#666666" points="854,-32 711.25,-32 711.25,0 854,0 854,-32"/>
<text text-anchor="start" x="719.25" y="-18.5" font-family="Helvetica,sans-Serif" font-size="10.00">TaskAPI.Helpers.AlertHelper.</text>
<text text-anchor="middle" x="782.62" y="-6.5" font-family="Helvetica,sans-Serif" font-size="10.00">FormatJsonValue</text>
</a>
</g>
</g>
<!-- Node2 -->
<g id="Node000002" class="node">
<title>Node2</title>
<g id="a_Node000002"><a xlink:href="class_task_a_p_i_1_1_helpers_1_1_alert_helper.html#aab637efba5397e174f0a891ad60429cd" target="_top" xlink:title="Formats a JSON string as HTML table for better readability.">
<polygon fill="white" stroke="#666666" points="675.25,-32 532.5,-32 532.5,0 675.25,0 675.25,-32"/>
<text text-anchor="start" x="540.5" y="-18.5" font-family="Helvetica,sans-Serif" font-size="10.00">TaskAPI.Helpers.AlertHelper.</text>
<text text-anchor="middle" x="603.88" y="-6.5" font-family="Helvetica,sans-Serif" font-size="10.00">FormatJsonAsHtml</text>
</a>
</g>
</g>
<!-- Node1&#45;&gt;Node2 -->
<g id="edge1_Node000001_Node000002" class="edge">
<title>Node1&#45;&gt;Node2</title>
<g id="a_edge1_Node000001_Node000002"><a xlink:title=" ">
<path fill="none" stroke="#63b8ff" d="M699.48,-16C691.46,-16 683.37,-16 675.48,-16"/>
<polygon fill="#63b8ff" stroke="#63b8ff" points="699.24,-19.5 709.24,-16 699.24,-12.5 699.24,-19.5"/>
</a>
</g>
</g>
<!-- Node3 -->
<g id="Node000003" class="node">
<title>Node3</title>
<g id="a_Node000003"><a xlink:href="class_task_a_p_i_1_1_helpers_1_1_alert_helper.html#a5e60f4242d52c0642c789ff7ca332e51" target="_top" xlink:title="Sends alerts based on the provided list of alerts, API source, and configuration.">
<polygon fill="white" stroke="#666666" points="496.5,-32 353.75,-32 353.75,0 496.5,0 496.5,-32"/>
<text text-anchor="start" x="361.75" y="-18.5" font-family="Helvetica,sans-Serif" font-size="10.00">TaskAPI.Helpers.AlertHelper.</text>
<text text-anchor="middle" x="425.12" y="-6.5" font-family="Helvetica,sans-Serif" font-size="10.00">SendAlerts</text>
</a>
</g>
</g>
<!-- Node2&#45;&gt;Node3 -->
<g id="edge2_Node000002_Node000003" class="edge">
<title>Node2&#45;&gt;Node3</title>
<g id="a_edge2_Node000002_Node000003"><a xlink:title=" ">
<path fill="none" stroke="#63b8ff" d="M520.73,-16C512.71,-16 504.62,-16 496.73,-16"/>
<polygon fill="#63b8ff" stroke="#63b8ff" points="520.49,-19.5 530.49,-16 520.49,-12.5 520.49,-19.5"/>
</a>
</g>
</g>
<!-- Node4 -->
<g id="Node000004" class="node">
<title>Node4</title>
<g id="a_Node000004"><a xlink:href="class_task_a_p_i_1_1_helpers_1_1_alert_helper.html#acddc980d442b4344a8d9df5ba056276a" target="_top" xlink:title="Processes a single API source for alert generation.">
<polygon fill="white" stroke="#666666" points="317.75,-32 175,-32 175,0 317.75,0 317.75,-32"/>
<text text-anchor="start" x="183" y="-18.5" font-family="Helvetica,sans-Serif" font-size="10.00">TaskAPI.Helpers.AlertHelper.</text>
<text text-anchor="middle" x="246.38" y="-6.5" font-family="Helvetica,sans-Serif" font-size="10.00">ProcessApiSource</text>
</a>
</g>
</g>
<!-- Node3&#45;&gt;Node4 -->
<g id="edge3_Node000003_Node000004" class="edge">
<title>Node3&#45;&gt;Node4</title>
<g id="a_edge3_Node000003_Node000004"><a xlink:title=" ">
<path fill="none" stroke="#63b8ff" d="M341.98,-16C333.96,-16 325.87,-16 317.98,-16"/>
<polygon fill="#63b8ff" stroke="#63b8ff" points="341.74,-19.5 351.74,-16 341.74,-12.5 341.74,-19.5"/>
</a>
</g>
</g>
<!-- Node5 -->
<g id="Node000005" class="node">
<title>Node5</title>
<g id="a_Node000005"><a xlink:href="class_task_a_p_i_1_1_controllers_1_1_logs_controller.html#aa1bbb95b5f70e8d5a457fdca962479e3" target="_top" xlink:title="Checks for alerts across all configured api sources.">
<polygon fill="white" stroke="#666666" points="139,-32 0,-32 0,0 139,0 139,-32"/>
<text text-anchor="start" x="8" y="-18.5" font-family="Helvetica,sans-Serif" font-size="10.00">TaskAPI.Controllers.Logs</text>
<text text-anchor="middle" x="69.5" y="-6.5" font-family="Helvetica,sans-Serif" font-size="10.00">Controller.CheckForAllAlerts</text>
</a>
</g>
</g>
<!-- Node4&#45;&gt;Node5 -->
<g id="edge4_Node000004_Node000005" class="edge">
<title>Node4&#45;&gt;Node5</title>
<g id="a_edge4_Node000004_Node000005"><a xlink:title=" ">
<path fill="none" stroke="#63b8ff" d="M163.45,-16C155.4,-16 147.3,-16 139.4,-16"/>
<polygon fill="#63b8ff" stroke="#63b8ff" points="163.24,-19.5 173.24,-16 163.24,-12.5 163.24,-19.5"/>
</a>
</g>
</g>
</g>
</svg>
