<?xml version="1.0" encoding="UTF-8" standalone="no"?>
<!DOCTYPE svg PUBLIC "-//W3C//DTD SVG 1.1//EN"
 "http://www.w3.org/Graphics/SVG/1.1/DTD/svg11.dtd">
<!-- Generated by graphviz version 9.0.0 (20230911.1827)
 -->
<!-- Title: TaskAPI.Services.LogService.LogError Pages: 1 -->
<svg width="922pt" height="1080pt"
 viewBox="0.00 0.00 922.00 1080.28" xmlns="http://www.w3.org/2000/svg" xmlns:xlink="http://www.w3.org/1999/xlink">
<g id="graph0" class="graph" transform="scale(1 1) rotate(0) translate(4 1076.28)">
<title>TaskAPI.Services.LogService.LogError</title>
<!-- Node1 -->
<g id="Node000001" class="node">
<title>Node1</title>
<g id="a_Node000001"><a xlink:title="Logs an error message to the database.">
<polygon fill="#999999" stroke="#666666" points="914,-562 768.25,-562 768.25,-530 914,-530 914,-562"/>
<text text-anchor="start" x="776.25" y="-548.5" font-family="Helvetica,sans-Serif" font-size="10.00">TaskAPI.Services.LogService.</text>
<text text-anchor="middle" x="841.12" y="-536.5" font-family="Helvetica,sans-Serif" font-size="10.00">LogError</text>
</a>
</g>
</g>
<!-- Node2 -->
<g id="Node000002" class="node">
<title>Node2</title>
<g id="a_Node000002"><a xlink:href="class_task_a_p_i_1_1_services_1_1_internal_a_p_i_service.html#aafa740a340a6a25e1f8ac8a766d186f9" target="_top" xlink:title="Initiates a log trimming operation for AB Web logs via Internal API.">
<polygon fill="white" stroke="#666666" points="701.88,-562 563.62,-562 563.62,-530 701.88,-530 701.88,-562"/>
<text text-anchor="start" x="571.62" y="-548.5" font-family="Helvetica,sans-Serif" font-size="10.00">TaskAPI.Services.Internal</text>
<text text-anchor="middle" x="632.75" y="-536.5" font-family="Helvetica,sans-Serif" font-size="10.00">APIService.AbWebTrimLogs</text>
</a>
</g>
</g>
<!-- Node1&#45;&gt;Node2 -->
<g id="edge1_Node000001_Node000002" class="edge">
<title>Node1&#45;&gt;Node2</title>
<g id="a_edge1_Node000001_Node000002"><a xlink:title=" ">
<path fill="none" stroke="#63b8ff" d="M756.51,-546C738.42,-546 719.5,-546 702.08,-546"/>
<polygon fill="#63b8ff" stroke="#63b8ff" points="756.43,-549.5 766.43,-546 756.43,-542.5 756.43,-549.5"/>
</a>
</g>
</g>
<!-- Node4 -->
<g id="Node000004" class="node">
<title>Node4</title>
<g id="a_Node000004"><a xlink:href="class_task_a_p_i_1_1_services_1_1_internal_a_p_i_service.html#a8a31c4c8d5371ef13d5ab0da08186829" target="_top" xlink:title="Initiates a log trimming operation for Ainslie API logs via Internal API.">
<polygon fill="white" stroke="#666666" points="707.5,-462 558,-462 558,-430 707.5,-430 707.5,-462"/>
<text text-anchor="start" x="566" y="-448.5" font-family="Helvetica,sans-Serif" font-size="10.00">TaskAPI.Services.Internal</text>
<text text-anchor="middle" x="632.75" y="-436.5" font-family="Helvetica,sans-Serif" font-size="10.00">APIService.AinslieApiTrimLogs</text>
</a>
</g>
</g>
<!-- Node1&#45;&gt;Node4 -->
<g id="edge3_Node000001_Node000004" class="edge">
<title>Node1&#45;&gt;Node4</title>
<g id="a_edge3_Node000001_Node000004"><a xlink:title=" ">
<path fill="none" stroke="#63b8ff" d="M812.25,-522.4C791.41,-505.85 761.58,-484.38 732.25,-471 724.55,-467.48 716.27,-464.41 707.9,-461.73"/>
<polygon fill="#63b8ff" stroke="#63b8ff" points="810,-525.08 819.97,-528.66 814.4,-519.64 810,-525.08"/>
</a>
</g>
</g>
<!-- Node6 -->
<g id="Node000006" class="node">
<title>Node6</title>
<g id="a_Node000006"><a xlink:href="class_task_a_p_i_1_1_helpers_1_1_priceapp_helper.html#a11fefec93e8edfcd4f1d4c4d91180689" target="_top" xlink:title=" ">
<polygon fill="white" stroke="#666666" points="711.62,-412 553.88,-412 553.88,-380 711.62,-380 711.62,-412"/>
<text text-anchor="start" x="561.88" y="-398.5" font-family="Helvetica,sans-Serif" font-size="10.00">TaskAPI.Helpers.Priceapp</text>
<text text-anchor="middle" x="632.75" y="-386.5" font-family="Helvetica,sans-Serif" font-size="10.00">Helper.CreateLivePricesheetPDF</text>
</a>
</g>
</g>
<!-- Node1&#45;&gt;Node6 -->
<g id="edge5_Node000001_Node000006" class="edge">
<title>Node1&#45;&gt;Node6</title>
<g id="a_edge5_Node000001_Node000006"><a xlink:title=" ">
<path fill="none" stroke="#63b8ff" d="M824.69,-520.07C806.29,-491.45 772.86,-446.1 732.25,-421 725.95,-417.1 719.06,-413.81 711.95,-411.03"/>
<polygon fill="#63b8ff" stroke="#63b8ff" points="821.7,-521.89 829.97,-528.51 827.63,-518.18 821.7,-521.89"/>
</a>
</g>
</g>
<!-- Node8 -->
<g id="Node000008" class="node">
<title>Node8</title>
<g id="a_Node000008"><a xlink:href="class_task_a_p_i_1_1_services_1_1_internal_a_p_i_service.html#a79988bdd459de2ee2b545fa7cac3d92a" target="_top" xlink:title="Fetches daily close chart data from Internal API.">
<polygon fill="white" stroke="#666666" points="710.88,-1026 554.62,-1026 554.62,-994 710.88,-994 710.88,-1026"/>
<text text-anchor="start" x="562.62" y="-1012.5" font-family="Helvetica,sans-Serif" font-size="10.00">TaskAPI.Services.Internal</text>
<text text-anchor="middle" x="632.75" y="-1000.5" font-family="Helvetica,sans-Serif" font-size="10.00">APIService.DailyCloseChartData</text>
</a>
</g>
</g>
<!-- Node1&#45;&gt;Node8 -->
<g id="edge7_Node000001_Node000008" class="edge">
<title>Node1&#45;&gt;Node8</title>
<g id="a_edge7_Node000001_Node000008"><a xlink:title=" ">
<path fill="none" stroke="#63b8ff" d="M837.04,-573.68C826.79,-660.56 791.19,-925.61 732.25,-985 726.28,-991.01 719.09,-995.65 711.35,-999.21"/>
<polygon fill="#63b8ff" stroke="#63b8ff" points="840.49,-574.26 838.16,-563.92 833.54,-573.45 840.49,-574.26"/>
</a>
</g>
</g>
<!-- Node9 -->
<g id="Node000009" class="node">
<title>Node9</title>
<g id="a_Node000009"><a xlink:href="class_task_a_p_i_1_1_helpers_1_1_spot_helper.html#a0a13962d034427b5047452856eb3198d" target="_top" xlink:title=" ">
<polygon fill="white" stroke="#666666" points="496.88,-1048 354.12,-1048 354.12,-1016 496.88,-1016 496.88,-1048"/>
<text text-anchor="start" x="362.12" y="-1034.5" font-family="Helvetica,sans-Serif" font-size="10.00">TaskAPI.Helpers.SpotHelper.</text>
<text text-anchor="middle" x="425.5" y="-1022.5" font-family="Helvetica,sans-Serif" font-size="10.00">ExportChartData</text>
</a>
</g>
</g>
<!-- Node1&#45;&gt;Node9 -->
<g id="edge9_Node000001_Node000009" class="edge">
<title>Node1&#45;&gt;Node9</title>
<g id="a_edge9_Node000001_Node000009"><a xlink:title=" ">
<path fill="none" stroke="#63b8ff" d="M838.41,-573.71C831.93,-668.35 805.46,-976.18 732.25,-1035 657.76,-1094.85 536.86,-1069.05 471.65,-1048.46"/>
<polygon fill="#63b8ff" stroke="#63b8ff" points="841.9,-574.01 839.07,-563.81 834.92,-573.55 841.9,-574.01"/>
</a>
</g>
</g>
<!-- Node10 -->
<g id="Node000010" class="node">
<title>Node10</title>
<g id="a_Node000010"><a xlink:href="class_task_a_p_i_1_1_helpers_1_1_spot_helper.html#a2d5da5f529f7ec58c18cefb373466d99" target="_top" xlink:title="Generates special spot data entries and adds them to the final spot list.">
<polygon fill="white" stroke="#666666" points="704.12,-650 561.38,-650 561.38,-618 704.12,-618 704.12,-650"/>
<text text-anchor="start" x="569.38" y="-636.5" font-family="Helvetica,sans-Serif" font-size="10.00">TaskAPI.Helpers.SpotHelper.</text>
<text text-anchor="middle" x="632.75" y="-624.5" font-family="Helvetica,sans-Serif" font-size="10.00">GenerateSpecialData</text>
</a>
</g>
</g>
<!-- Node1&#45;&gt;Node10 -->
<g id="edge10_Node000001_Node000010" class="edge">
<title>Node1&#45;&gt;Node10</title>
<g id="a_edge10_Node000001_Node000010"><a xlink:title=" ">
<path fill="none" stroke="#63b8ff" d="M803.52,-568.02C783.04,-579.74 756.77,-593.79 732.25,-604 720.29,-608.98 707.2,-613.55 694.58,-617.53"/>
<polygon fill="#63b8ff" stroke="#63b8ff" points="805.16,-571.12 812.06,-563.07 801.65,-565.06 805.16,-571.12"/>
</a>
</g>
</g>
<!-- Node11 -->
<g id="Node000011" class="node">
<title>Node11</title>
<g id="a_Node000011"><a xlink:href="class_task_a_p_i_1_1_helpers_1_1_spot_helper.html#a7b75f44b3310036d4de7f0f2956bbac1" target="_top" xlink:title="Pulls, saves, and trims spot data from various sources.">
<polygon fill="white" stroke="#666666" points="317.75,-625 175,-625 175,-593 317.75,-593 317.75,-625"/>
<text text-anchor="start" x="183" y="-611.5" font-family="Helvetica,sans-Serif" font-size="10.00">TaskAPI.Helpers.SpotHelper.</text>
<text text-anchor="middle" x="246.38" y="-599.5" font-family="Helvetica,sans-Serif" font-size="10.00">PullSaveTrim</text>
</a>
</g>
</g>
<!-- Node1&#45;&gt;Node11 -->
<g id="edge41_Node000001_Node000011" class="edge">
<title>Node1&#45;&gt;Node11</title>
<g id="a_edge41_Node000001_Node000011"><a xlink:title=" ">
<path fill="none" stroke="#63b8ff" d="M765.33,-564.85C754.29,-567.19 743.01,-569.34 732.25,-571 586,-593.55 412.76,-603.03 318.02,-606.77"/>
<polygon fill="#63b8ff" stroke="#63b8ff" points="765.76,-568.34 774.78,-562.78 764.26,-561.5 765.76,-568.34"/>
</a>
</g>
</g>
<!-- Node13 -->
<g id="Node000013" class="node">
<title>Node13</title>
<g id="a_Node000013"><a xlink:href="class_task_a_p_i_1_1_services_1_1_internal_a_p_i_service.html#aa614614518048e1244ae357de18425df" target="_top" xlink:title="Retrieves the price of a specified OANDA instrument in USD.">
<polygon fill="white" stroke="#666666" points="732.25,-826 533.25,-826 533.25,-794 732.25,-794 732.25,-826"/>
<text text-anchor="start" x="541.25" y="-812.5" font-family="Helvetica,sans-Serif" font-size="10.00">TaskAPI.Services.Internal</text>
<text text-anchor="middle" x="632.75" y="-800.5" font-family="Helvetica,sans-Serif" font-size="10.00">APIService.GetOandaInstrumentPriceUSD</text>
</a>
</g>
</g>
<!-- Node1&#45;&gt;Node13 -->
<g id="edge13_Node000001_Node000013" class="edge">
<title>Node1&#45;&gt;Node13</title>
<g id="a_edge13_Node000001_Node000013"><a xlink:title=" ">
<path fill="none" stroke="#63b8ff" d="M835.07,-573.57C824.67,-622.4 796.27,-724.16 732.25,-780 725.92,-785.52 718.59,-790.03 710.85,-793.7"/>
<polygon fill="#63b8ff" stroke="#63b8ff" points="838.48,-574.34 837.04,-563.84 831.62,-572.95 838.48,-574.34"/>
</a>
</g>
</g>
<!-- Node16 -->
<g id="Node000016" class="node">
<title>Node16</title>
<g id="a_Node000016"><a xlink:href="class_task_a_p_i_1_1_helpers_1_1_spot_helper.html#a0fd06a80c097c9b6fcd5ddd8b1889c18" target="_top" xlink:title="Retrieves spot data from Oanda for each specified asset.">
<polygon fill="white" stroke="#666666" points="496.88,-779 354.12,-779 354.12,-747 496.88,-747 496.88,-779"/>
<text text-anchor="start" x="362.12" y="-765.5" font-family="Helvetica,sans-Serif" font-size="10.00">TaskAPI.Helpers.SpotHelper.</text>
<text text-anchor="middle" x="425.5" y="-753.5" font-family="Helvetica,sans-Serif" font-size="10.00">PullOandaData</text>
</a>
</g>
</g>
<!-- Node1&#45;&gt;Node16 -->
<g id="edge38_Node000001_Node000016" class="edge">
<title>Node1&#45;&gt;Node16</title>
<g id="a_edge38_Node000001_Node000016"><a xlink:title=" ">
<path fill="none" stroke="#63b8ff" d="M833.18,-573.22C820.78,-615.63 790.52,-696.47 732.25,-734 662.1,-779.19 563.45,-779.96 497.37,-773.74"/>
<polygon fill="#63b8ff" stroke="#63b8ff" points="836.49,-574.38 835.8,-563.81 829.74,-572.5 836.49,-574.38"/>
</a>
</g>
</g>
<!-- Node17 -->
<g id="Node000017" class="node">
<title>Node17</title>
<g id="a_Node000017"><a xlink:href="class_task_a_p_i_1_1_services_1_1_internal_a_p_i_service.html#a55b9f5404586ba97531f1cdc013ecaed" target="_top" xlink:title="Gets the market status override setting from Internal API.">
<polygon fill="white" stroke="#666666" points="722.12,-976 543.38,-976 543.38,-932 722.12,-932 722.12,-976"/>
<text text-anchor="start" x="551.38" y="-962.5" font-family="Helvetica,sans-Serif" font-size="10.00">TaskAPI.Services.Internal</text>
<text text-anchor="start" x="551.38" y="-950.5" font-family="Helvetica,sans-Serif" font-size="10.00">APIService.GetPriceappMarketStatus</text>
<text text-anchor="middle" x="632.75" y="-938.5" font-family="Helvetica,sans-Serif" font-size="10.00">Override</text>
</a>
</g>
</g>
<!-- Node1&#45;&gt;Node17 -->
<g id="edge18_Node000001_Node000017" class="edge">
<title>Node1&#45;&gt;Node17</title>
<g id="a_edge18_Node000001_Node000017"><a xlink:title=" ">
<path fill="none" stroke="#63b8ff" d="M840.58,-573.31C840.2,-641.93 829.49,-823.17 732.25,-923 729.12,-926.21 725.67,-929.09 721.98,-931.67"/>
<polygon fill="#63b8ff" stroke="#63b8ff" points="844.08,-573.72 840.56,-563.73 837.08,-573.74 844.08,-573.72"/>
</a>
</g>
</g>
<!-- Node19 -->
<g id="Node000019" class="node">
<title>Node19</title>
<g id="a_Node000019"><a xlink:href="class_task_a_p_i_1_1_services_1_1_internal_a_p_i_service.html#a01d6e21d8a6368eb448cb401630cf033" target="_top" xlink:title="Retrieves unified logs from Internal API for a specified API source.">
<polygon fill="white" stroke="#666666" points="698.88,-33 566.62,-33 566.62,-1 698.88,-1 698.88,-33"/>
<text text-anchor="start" x="574.62" y="-19.5" font-family="Helvetica,sans-Serif" font-size="10.00">TaskAPI.Services.Internal</text>
<text text-anchor="middle" x="632.75" y="-7.5" font-family="Helvetica,sans-Serif" font-size="10.00">APIService.GetUnifiedLogs</text>
</a>
</g>
</g>
<!-- Node1&#45;&gt;Node19 -->
<g id="edge21_Node000001_Node000019" class="edge">
<title>Node1&#45;&gt;Node19</title>
<g id="a_edge21_Node000001_Node000019"><a xlink:title=" ">
<path fill="none" stroke="#63b8ff" d="M837.49,-518.47C828.1,-425.71 793.53,-126.37 732.25,-55 723.47,-44.78 711.62,-37.29 699.17,-31.82"/>
<polygon fill="#63b8ff" stroke="#63b8ff" points="833.98,-518.57 838.45,-528.17 840.95,-517.87 833.98,-518.57"/>
</a>
</g>
</g>
<!-- Node23 -->
<g id="Node000023" class="node">
<title>Node23</title>
<g id="a_Node000023"><a xlink:href="class_task_a_p_i_1_1_services_1_1_internal_a_p_i_service.html#a0a18917a9a9834b9d1f62d96b3798912" target="_top" xlink:title="Initiates a log trimming operation via Internal API, targeting logs stored by Internal API itself.">
<polygon fill="white" stroke="#666666" points="709.38,-362 556.12,-362 556.12,-330 709.38,-330 709.38,-362"/>
<text text-anchor="start" x="564.12" y="-348.5" font-family="Helvetica,sans-Serif" font-size="10.00">TaskAPI.Services.Internal</text>
<text text-anchor="middle" x="632.75" y="-336.5" font-family="Helvetica,sans-Serif" font-size="10.00">APIService.InternalAPITrimLogs</text>
</a>
</g>
</g>
<!-- Node1&#45;&gt;Node23 -->
<g id="edge25_Node000001_Node000023" class="edge">
<title>Node1&#45;&gt;Node23</title>
<g id="a_edge25_Node000001_Node000023"><a xlink:title=" ">
<path fill="none" stroke="#63b8ff" d="M830.99,-519.08C816.4,-480.26 784.09,-409.07 732.25,-371 725.42,-365.99 717.7,-361.98 709.64,-358.76"/>
<polygon fill="#63b8ff" stroke="#63b8ff" points="827.58,-519.93 834.28,-528.14 834.16,-517.55 827.58,-519.93"/>
</a>
</g>
</g>
<!-- Node25 -->
<g id="Node000025" class="node">
<title>Node25</title>
<g id="a_Node000025"><a xlink:href="class_task_a_p_i_1_1_services_1_1_internal_a_p_i_service.html#a7e3600841f53749e6c915ace609dfa11" target="_top" xlink:title="Retrieves a list of Priceapp assets from Internal API.">
<polygon fill="white" stroke="#666666" points="700.38,-512 565.12,-512 565.12,-480 700.38,-480 700.38,-512"/>
<text text-anchor="start" x="573.12" y="-498.5" font-family="Helvetica,sans-Serif" font-size="10.00">TaskAPI.Services.Internal</text>
<text text-anchor="middle" x="632.75" y="-486.5" font-family="Helvetica,sans-Serif" font-size="10.00">APIService.PriceappAssets</text>
</a>
</g>
</g>
<!-- Node1&#45;&gt;Node25 -->
<g id="edge27_Node000001_Node000025" class="edge">
<title>Node1&#45;&gt;Node25</title>
<g id="a_edge27_Node000001_Node000025"><a xlink:title=" ">
<path fill="none" stroke="#63b8ff" d="M761.3,-526.9C741.28,-522.05 719.96,-516.89 700.6,-512.2"/>
<polygon fill="#63b8ff" stroke="#63b8ff" points="760.25,-530.25 770.79,-529.2 761.9,-523.45 760.25,-530.25"/>
</a>
</g>
</g>
<!-- Node26 -->
<g id="Node000026" class="node">
<title>Node26</title>
<g id="a_Node000026"><a xlink:href="class_task_a_p_i_1_1_services_1_1_internal_a_p_i_service.html#a8806289389207c5a3ed1e203f1bcbc5c" target="_top" xlink:title="Initiates a log trimming operation for Priceapp logs via Internal API.">
<polygon fill="white" stroke="#666666" points="704.88,-262 560.62,-262 560.62,-230 704.88,-230 704.88,-262"/>
<text text-anchor="start" x="568.62" y="-248.5" font-family="Helvetica,sans-Serif" font-size="10.00">TaskAPI.Services.Internal</text>
<text text-anchor="middle" x="632.75" y="-236.5" font-family="Helvetica,sans-Serif" font-size="10.00">APIService.PriceappTrimLogs</text>
</a>
</g>
</g>
<!-- Node1&#45;&gt;Node26 -->
<g id="edge28_Node000001_Node000026" class="edge">
<title>Node1&#45;&gt;Node26</title>
<g id="a_edge28_Node000001_Node000026"><a xlink:title=" ">
<path fill="none" stroke="#63b8ff" d="M837.52,-518.46C830.75,-462.98 807.52,-337.39 732.25,-271 724.51,-264.17 715.16,-259.16 705.35,-255.49"/>
<polygon fill="#63b8ff" stroke="#63b8ff" points="834.03,-518.74 838.62,-528.29 840.98,-517.96 834.03,-518.74"/>
</a>
</g>
</g>
<!-- Node28 -->
<g id="Node000028" class="node">
<title>Node28</title>
<g id="a_Node000028"><a xlink:href="class_task_a_p_i_1_1_helpers_1_1_spot_helper.html#a701fc9c0beaecff83beb2c806b8581d5" target="_top" xlink:title="Retrieves spot data from Binance for each specified asset.">
<polygon fill="white" stroke="#666666" points="496.88,-879 354.12,-879 354.12,-847 496.88,-847 496.88,-879"/>
<text text-anchor="start" x="362.12" y="-865.5" font-family="Helvetica,sans-Serif" font-size="10.00">TaskAPI.Helpers.SpotHelper.</text>
<text text-anchor="middle" x="425.5" y="-853.5" font-family="Helvetica,sans-Serif" font-size="10.00">PullBinanceData</text>
</a>
</g>
</g>
<!-- Node1&#45;&gt;Node28 -->
<g id="edge30_Node000001_Node000028" class="edge">
<title>Node1&#45;&gt;Node28</title>
<g id="a_edge30_Node000001_Node000028"><a xlink:title=" ">
<path fill="none" stroke="#63b8ff" d="M839.02,-573.52C835.03,-632.41 816.67,-770.5 732.25,-835 696.62,-862.22 575.76,-865.76 497.08,-864.98"/>
<polygon fill="#63b8ff" stroke="#63b8ff" points="842.5,-573.91 839.59,-563.72 835.52,-573.51 842.5,-573.91"/>
</a>
</g>
</g>
<!-- Node29 -->
<g id="Node000029" class="node">
<title>Node29</title>
<g id="a_Node000029"><a xlink:href="class_task_a_p_i_1_1_services_1_1_binance_service.html#a5863f72c89f66991b6ea2172de8e4687" target="_top" xlink:title="Retrieves the latest cryptocurrency data feed from Binance.">
<polygon fill="white" stroke="#666666" points="698.12,-914 567.38,-914 567.38,-882 698.12,-882 698.12,-914"/>
<text text-anchor="start" x="575.38" y="-900.5" font-family="Helvetica,sans-Serif" font-size="10.00">TaskAPI.Services.Binance</text>
<text text-anchor="middle" x="632.75" y="-888.5" font-family="Helvetica,sans-Serif" font-size="10.00">Service.PullFeed</text>
</a>
</g>
</g>
<!-- Node1&#45;&gt;Node29 -->
<g id="edge32_Node000001_Node000029" class="edge">
<title>Node1&#45;&gt;Node29</title>
<g id="a_edge32_Node000001_Node000029"><a xlink:title=" ">
<path fill="none" stroke="#63b8ff" d="M839.04,-573.54C835.1,-635.26 816.84,-785.72 732.25,-868 722.9,-877.1 710.87,-883.45 698.45,-887.88"/>
<polygon fill="#63b8ff" stroke="#63b8ff" points="842.51,-574.11 839.57,-563.93 835.52,-573.72 842.51,-574.11"/>
</a>
</g>
</g>
<!-- Node30 -->
<g id="Node000030" class="node">
<title>Node30</title>
<g id="a_Node000030"><a xlink:href="class_task_a_p_i_1_1_services_1_1_forex_service.html#a45ca436cc529b87e410d8b208abea3b1" target="_top" xlink:title="Retrieves the latest Forex data from the configured feed.">
<polygon fill="white" stroke="#666666" points="710.12,-700 555.38,-700 555.38,-668 710.12,-668 710.12,-700"/>
<text text-anchor="start" x="563.38" y="-686.5" font-family="Helvetica,sans-Serif" font-size="10.00">TaskAPI.Services.ForexService.</text>
<text text-anchor="middle" x="632.75" y="-674.5" font-family="Helvetica,sans-Serif" font-size="10.00">PullFeed</text>
</a>
</g>
</g>
<!-- Node1&#45;&gt;Node30 -->
<g id="edge34_Node000001_Node000030" class="edge">
<title>Node1&#45;&gt;Node30</title>
<g id="a_edge34_Node000001_Node000030"><a xlink:title=" ">
<path fill="none" stroke="#63b8ff" d="M822.62,-571.43C803.42,-597.35 770.25,-636.8 732.25,-659 725.47,-662.96 718.07,-666.3 710.47,-669.11"/>
<polygon fill="#63b8ff" stroke="#63b8ff" points="825.36,-573.6 828.38,-563.45 819.69,-569.5 825.36,-573.6"/>
</a>
</g>
</g>
<!-- Node31 -->
<g id="Node000031" class="node">
<title>Node31</title>
<g id="a_Node000031"><a xlink:href="class_task_a_p_i_1_1_helpers_1_1_spot_helper.html#a51135865d712678dee52479c109a61fb" target="_top" xlink:title="pull data from forexfeed in one hit, check single time variation is within threshold add items to spo...">
<polygon fill="white" stroke="#666666" points="496.88,-700 354.12,-700 354.12,-668 496.88,-668 496.88,-700"/>
<text text-anchor="start" x="362.12" y="-686.5" font-family="Helvetica,sans-Serif" font-size="10.00">TaskAPI.Helpers.SpotHelper.</text>
<text text-anchor="middle" x="425.5" y="-674.5" font-family="Helvetica,sans-Serif" font-size="10.00">PullForexData</text>
</a>
</g>
</g>
<!-- Node1&#45;&gt;Node31 -->
<g id="edge37_Node000001_Node000031" class="edge">
<title>Node1&#45;&gt;Node31</title>
<g id="a_edge37_Node000001_Node000031"><a xlink:title=" ">
<path fill="none" stroke="#63b8ff" d="M831.52,-572.79C817.6,-611.09 786.12,-680.05 732.25,-709 646.75,-754.94 528.03,-722.8 466.72,-700.47"/>
<polygon fill="#63b8ff" stroke="#63b8ff" points="834.66,-574.44 834.64,-563.84 828.04,-572.13 834.66,-574.44"/>
</a>
</g>
</g>
<!-- Node32 -->
<g id="Node000032" class="node">
<title>Node32</title>
<g id="a_Node000032"><a xlink:href="class_task_a_p_i_1_1_helpers_1_1_spot_helper.html#a2ad64affbfeec15e4217d8bfccd982ff" target="_top" xlink:title="Pulls spot data from Polygon Oracle for each specified asset.">
<polygon fill="white" stroke="#666666" points="704.12,-133 561.38,-133 561.38,-101 704.12,-101 704.12,-133"/>
<text text-anchor="start" x="569.38" y="-119.5" font-family="Helvetica,sans-Serif" font-size="10.00">TaskAPI.Helpers.SpotHelper.</text>
<text text-anchor="middle" x="632.75" y="-107.5" font-family="Helvetica,sans-Serif" font-size="10.00">PullPolygonOracleData</text>
</a>
</g>
</g>
<!-- Node1&#45;&gt;Node32 -->
<g id="edge39_Node000001_Node000032" class="edge">
<title>Node1&#45;&gt;Node32</title>
<g id="a_edge39_Node000001_Node000032"><a xlink:title=" ">
<path fill="none" stroke="#63b8ff" d="M841,-518.32C841.71,-447.04 833.55,-255.36 732.25,-149 724.56,-140.93 714.82,-134.89 704.47,-130.37"/>
<polygon fill="#63b8ff" stroke="#63b8ff" points="837.5,-518.23 840.82,-528.29 844.5,-518.36 837.5,-518.23"/>
</a>
</g>
</g>
<!-- Node33 -->
<g id="Node000033" class="node">
<title>Node33</title>
<g id="a_Node000033"><a xlink:href="class_task_a_p_i_1_1_helpers_1_1_spot_helper.html#a95400211c9214b34c8427e09776449a9" target="_top" xlink:title="Recycles the previous spot data for the given BaseSpot from the database.">
<polygon fill="white" stroke="#666666" points="496.88,-82 354.12,-82 354.12,-50 496.88,-50 496.88,-82"/>
<text text-anchor="start" x="362.12" y="-68.5" font-family="Helvetica,sans-Serif" font-size="10.00">TaskAPI.Helpers.SpotHelper.</text>
<text text-anchor="middle" x="425.5" y="-56.5" font-family="Helvetica,sans-Serif" font-size="10.00">RecyclePreviousSpot</text>
</a>
</g>
</g>
<!-- Node1&#45;&gt;Node33 -->
<g id="edge42_Node000001_Node000033" class="edge">
<title>Node1&#45;&gt;Node33</title>
<g id="a_edge42_Node000001_Node000033"><a xlink:title=" ">
<path fill="none" stroke="#63b8ff" d="M837.72,-518.44C829.3,-428.9 798.05,-148.69 732.25,-92 668.08,-36.71 565.67,-40.07 497.28,-50.56"/>
<polygon fill="#63b8ff" stroke="#63b8ff" points="834.22,-518.62 838.62,-528.26 841.19,-517.98 834.22,-518.62"/>
</a>
</g>
</g>
<!-- Node34 -->
<g id="Node000034" class="node">
<title>Node34</title>
<g id="a_Node000034"><a xlink:href="class_task_a_p_i_1_1_controllers_1_1_spot_controller.html#ac5b396e3a46352bf5dbe21701876f35c" target="_top" xlink:title="Saves daily spot data.">
<polygon fill="white" stroke="#666666" points="488.25,-220 362.75,-220 362.75,-188 488.25,-188 488.25,-220"/>
<text text-anchor="start" x="370.75" y="-206.5" font-family="Helvetica,sans-Serif" font-size="10.00">TaskAPI.Controllers.Spot</text>
<text text-anchor="middle" x="425.5" y="-194.5" font-family="Helvetica,sans-Serif" font-size="10.00">Controller.SaveDaily</text>
</a>
</g>
</g>
<!-- Node1&#45;&gt;Node34 -->
<g id="edge44_Node000001_Node000034" class="edge">
<title>Node1&#45;&gt;Node34</title>
<g id="a_edge44_Node000001_Node000034"><a xlink:title=" ">
<path fill="none" stroke="#63b8ff" d="M840.48,-518.44C839.66,-454.1 827.63,-293.95 732.25,-221 662.57,-167.71 555.7,-176.05 488.52,-188.72"/>
<polygon fill="#63b8ff" stroke="#63b8ff" points="836.98,-518.14 840.52,-528.12 843.98,-518.11 836.98,-518.14"/>
</a>
</g>
</g>
<!-- Node35 -->
<g id="Node000035" class="node">
<title>Node35</title>
<g id="a_Node000035"><a xlink:href="class_task_a_p_i_1_1_helpers_1_1_alert_helper.html#a5e60f4242d52c0642c789ff7ca332e51" target="_top" xlink:title="Sends alerts based on the provided list of alerts, API source, and configuration.">
<polygon fill="white" stroke="#666666" points="496.88,-170 354.12,-170 354.12,-138 496.88,-138 496.88,-170"/>
<text text-anchor="start" x="362.12" y="-156.5" font-family="Helvetica,sans-Serif" font-size="10.00">TaskAPI.Helpers.AlertHelper.</text>
<text text-anchor="middle" x="425.5" y="-144.5" font-family="Helvetica,sans-Serif" font-size="10.00">SendAlerts</text>
</a>
</g>
</g>
<!-- Node1&#45;&gt;Node35 -->
<g id="edge45_Node000001_Node000035" class="edge">
<title>Node1&#45;&gt;Node35</title>
<g id="a_edge45_Node000001_Node000035"><a xlink:title=" ">
<path fill="none" stroke="#63b8ff" d="M836.17,-518.56C824.33,-440.69 786.65,-221.06 732.25,-177 697.4,-148.77 575.97,-147.74 497.03,-150.33"/>
<polygon fill="#63b8ff" stroke="#63b8ff" points="832.68,-518.93 837.62,-528.3 839.6,-517.89 832.68,-518.93"/>
</a>
</g>
</g>
<!-- Node36 -->
<g id="Node000036" class="node">
<title>Node36</title>
<g id="a_Node000036"><a xlink:href="class_task_a_p_i_1_1_services_1_1_internal_a_p_i_service.html#aeffeb1d3d59aeeab65dfe72691d21600" target="_top" xlink:title="Sends an email using Internal API&#39;s email endpoint.">
<polygon fill="white" stroke="#666666" points="696.25,-312 569.25,-312 569.25,-280 696.25,-280 696.25,-312"/>
<text text-anchor="start" x="577.25" y="-298.5" font-family="Helvetica,sans-Serif" font-size="10.00">TaskAPI.Services.Internal</text>
<text text-anchor="middle" x="632.75" y="-286.5" font-family="Helvetica,sans-Serif" font-size="10.00">APIService.SendEmail</text>
</a>
</g>
</g>
<!-- Node1&#45;&gt;Node36 -->
<g id="edge47_Node000001_Node000036" class="edge">
<title>Node1&#45;&gt;Node36</title>
<g id="a_edge47_Node000001_Node000036"><a xlink:title=" ">
<path fill="none" stroke="#63b8ff" d="M834.85,-518.52C824.22,-470.84 795.61,-372.88 732.25,-321 722.08,-312.67 709.49,-307.07 696.74,-303.32"/>
<polygon fill="#63b8ff" stroke="#63b8ff" points="831.42,-519.23 836.92,-528.29 838.27,-517.78 831.42,-519.23"/>
</a>
</g>
</g>
<!-- Node3 -->
<g id="Node000003" class="node">
<title>Node3</title>
<g id="a_Node000003"><a xlink:href="class_task_a_p_i_1_1_controllers_1_1_ab_web_controller.html#a788bdc1e575ec2e04d9d2a767c68e287" target="_top" xlink:title="Trims logs for AbWeb based on predefined criteria.">
<polygon fill="white" stroke="#666666" points="494.25,-559 356.75,-559 356.75,-527 494.25,-527 494.25,-559"/>
<text text-anchor="start" x="364.75" y="-545.5" font-family="Helvetica,sans-Serif" font-size="10.00">TaskAPI.Controllers.AbWeb</text>
<text text-anchor="middle" x="425.5" y="-533.5" font-family="Helvetica,sans-Serif" font-size="10.00">Controller.TrimLogs</text>
</a>
</g>
</g>
<!-- Node2&#45;&gt;Node3 -->
<g id="edge2_Node000002_Node000003" class="edge">
<title>Node2&#45;&gt;Node3</title>
<g id="a_edge2_Node000002_Node000003"><a xlink:title=" ">
<path fill="none" stroke="#63b8ff" d="M552.06,-544.84C533.06,-544.56 512.96,-544.26 494.55,-543.99"/>
<polygon fill="#63b8ff" stroke="#63b8ff" points="551.84,-548.33 561.89,-544.98 551.94,-541.33 551.84,-548.33"/>
</a>
</g>
</g>
<!-- Node5 -->
<g id="Node000005" class="node">
<title>Node5</title>
<g id="a_Node000005"><a xlink:href="class_task_a_p_i_1_1_controllers_1_1_ainslie_api_controller.html#a6b53c8ff5898ee660ce3eec1d8e9d13e" target="_top" xlink:title="Trims logs for Ainslie API based on predefined criteria.">
<polygon fill="white" stroke="#666666" points="492.75,-508 358.25,-508 358.25,-476 492.75,-476 492.75,-508"/>
<text text-anchor="start" x="366.25" y="-494.5" font-family="Helvetica,sans-Serif" font-size="10.00">TaskAPI.Controllers.Ainslie</text>
<text text-anchor="middle" x="425.5" y="-482.5" font-family="Helvetica,sans-Serif" font-size="10.00">ApiController.TrimLogs</text>
</a>
</g>
</g>
<!-- Node4&#45;&gt;Node5 -->
<g id="edge4_Node000004_Node000005" class="edge">
<title>Node4&#45;&gt;Node5</title>
<g id="a_edge4_Node000004_Node000005"><a xlink:title=" ">
<path fill="none" stroke="#63b8ff" d="M547.12,-464.97C529.08,-469.01 510.27,-473.23 493.02,-477.09"/>
<polygon fill="#63b8ff" stroke="#63b8ff" points="547.76,-468.41 556.75,-462.81 546.23,-461.58 547.76,-468.41"/>
</a>
</g>
</g>
<!-- Node7 -->
<g id="Node000007" class="node">
<title>Node7</title>
<g id="a_Node000007"><a xlink:href="class_task_a_p_i_1_1_controllers_1_1_priceapp_controller.html#a7a554328bc2c9f53d7791b214121982f" target="_top" xlink:title="Saves the Priceapp pricesheet as a PDF.">
<polygon fill="white" stroke="#666666" points="497.25,-458 353.75,-458 353.75,-426 497.25,-426 497.25,-458"/>
<text text-anchor="start" x="361.75" y="-444.5" font-family="Helvetica,sans-Serif" font-size="10.00">TaskAPI.Controllers.Priceapp</text>
<text text-anchor="middle" x="425.5" y="-432.5" font-family="Helvetica,sans-Serif" font-size="10.00">Controller.SavePricesheet</text>
</a>
</g>
</g>
<!-- Node6&#45;&gt;Node7 -->
<g id="edge6_Node000006_Node000007" class="edge">
<title>Node6&#45;&gt;Node7</title>
<g id="a_edge6_Node000006_Node000007"><a xlink:title=" ">
<path fill="none" stroke="#63b8ff" d="M547.43,-414.9C530.82,-418.62 513.56,-422.49 497.45,-426.1"/>
<polygon fill="#63b8ff" stroke="#63b8ff" points="547.76,-418.41 556.75,-412.81 546.23,-411.58 547.76,-418.41"/>
</a>
</g>
</g>
<!-- Node8&#45;&gt;Node9 -->
<g id="edge8_Node000008_Node000009" class="edge">
<title>Node8&#45;&gt;Node9</title>
<g id="a_edge8_Node000008_Node000009"><a xlink:title=" ">
<path fill="none" stroke="#63b8ff" d="M543.06,-1019.51C527.7,-1021.15 511.91,-1022.84 497.12,-1024.43"/>
<polygon fill="#63b8ff" stroke="#63b8ff" points="543.08,-1023.02 552.65,-1018.48 542.33,-1016.06 543.08,-1023.02"/>
</a>
</g>
</g>
<!-- Node10&#45;&gt;Node11 -->
<g id="edge11_Node000010_Node000011" class="edge">
<title>Node10&#45;&gt;Node11</title>
<g id="a_edge11_Node000010_Node000011"><a xlink:title=" ">
<path fill="none" stroke="#63b8ff" d="M550.02,-628.68C481.16,-624.21 383.64,-617.86 318.08,-613.6"/>
<polygon fill="#63b8ff" stroke="#63b8ff" points="549.53,-632.16 559.74,-629.32 549.99,-625.17 549.53,-632.16"/>
</a>
</g>
</g>
<!-- Node12 -->
<g id="Node000012" class="node">
<title>Node12</title>
<g id="a_Node000012"><a xlink:href="class_task_a_p_i_1_1_controllers_1_1_spot_controller.html#adc5d733d4c39f2ecdaad8d8bf2231731" target="_top" xlink:title="Initiates synchronisation of spot data.">
<polygon fill="white" stroke="#666666" points="132.25,-625 6.75,-625 6.75,-593 132.25,-593 132.25,-625"/>
<text text-anchor="start" x="14.75" y="-611.5" font-family="Helvetica,sans-Serif" font-size="10.00">TaskAPI.Controllers.Spot</text>
<text text-anchor="middle" x="69.5" y="-599.5" font-family="Helvetica,sans-Serif" font-size="10.00">Controller.Sync</text>
</a>
</g>
</g>
<!-- Node11&#45;&gt;Node12 -->
<g id="edge12_Node000011_Node000012" class="edge">
<title>Node11&#45;&gt;Node12</title>
<g id="a_edge12_Node000011_Node000012"><a xlink:title=" ">
<path fill="none" stroke="#63b8ff" d="M163.55,-609C153.16,-609 142.67,-609 132.66,-609"/>
<polygon fill="#63b8ff" stroke="#63b8ff" points="163.24,-612.5 173.24,-609 163.24,-605.5 163.24,-612.5"/>
</a>
</g>
</g>
<!-- Node14 -->
<g id="Node000014" class="node">
<title>Node14</title>
<g id="a_Node000014"><a xlink:href="class_task_a_p_i_1_1_helpers_1_1_spot_helper.html#a249585457b73bcd269d8644a8120465e" target="_top" xlink:title="Determines if the market for a specific instrument is currently open.">
<polygon fill="white" stroke="#666666" points="496.88,-829 354.12,-829 354.12,-797 496.88,-797 496.88,-829"/>
<text text-anchor="start" x="362.12" y="-815.5" font-family="Helvetica,sans-Serif" font-size="10.00">TaskAPI.Helpers.SpotHelper.</text>
<text text-anchor="middle" x="425.5" y="-803.5" font-family="Helvetica,sans-Serif" font-size="10.00">IsMarketOpen</text>
</a>
</g>
</g>
<!-- Node13&#45;&gt;Node14 -->
<g id="edge14_Node000013_Node000014" class="edge">
<title>Node13&#45;&gt;Node14</title>
<g id="a_edge14_Node000013_Node000014"><a xlink:title=" ">
<path fill="none" stroke="#63b8ff" d="M521.67,-811.61C513.35,-811.73 505.1,-811.85 497.14,-811.97"/>
<polygon fill="#63b8ff" stroke="#63b8ff" points="521.57,-815.11 531.52,-811.47 521.47,-808.11 521.57,-815.11"/>
</a>
</g>
</g>
<!-- Node13&#45;&gt;Node16 -->
<g id="edge16_Node000013_Node000016" class="edge">
<title>Node13&#45;&gt;Node16</title>
<g id="a_edge16_Node000013_Node000016"><a xlink:title=" ">
<path fill="none" stroke="#63b8ff" d="M548.84,-791.02C531.72,-787.1 513.84,-783 497.21,-779.19"/>
<polygon fill="#63b8ff" stroke="#63b8ff" points="547.96,-794.4 558.49,-793.22 549.52,-787.58 547.96,-794.4"/>
</a>
</g>
</g>
<!-- Node15 -->
<g id="Node000015" class="node">
<title>Node15</title>
<g id="a_Node000015"><a xlink:href="class_task_a_p_i_1_1_helpers_1_1_spot_helper.html#ae5d7f0ba6759749953e94555c9557cfb" target="_top" xlink:title="Initialises a new instance of the SpotHelper class.">
<polygon fill="white" stroke="#666666" points="317.75,-890 175,-890 175,-858 317.75,-858 317.75,-890"/>
<text text-anchor="start" x="183" y="-876.5" font-family="Helvetica,sans-Serif" font-size="10.00">TaskAPI.Helpers.SpotHelper.</text>
<text text-anchor="middle" x="246.38" y="-864.5" font-family="Helvetica,sans-Serif" font-size="10.00">SpotHelper</text>
</a>
</g>
</g>
<!-- Node14&#45;&gt;Node15 -->
<g id="edge15_Node000014_Node000015" class="edge">
<title>Node14&#45;&gt;Node15</title>
<g id="a_edge15_Node000014_Node000015"><a xlink:title=" ">
<path fill="none" stroke="#63b8ff" d="M366.36,-833.02C343.33,-840.95 317.19,-849.96 295.28,-857.5"/>
<polygon fill="#63b8ff" stroke="#63b8ff" points="367.29,-836.41 375.6,-829.84 365.01,-829.79 367.29,-836.41"/>
</a>
</g>
</g>
<!-- Node16&#45;&gt;Node11 -->
<g id="edge17_Node000016_Node000011" class="edge">
<title>Node16&#45;&gt;Node11</title>
<g id="a_edge17_Node000016_Node000011"><a xlink:title=" ">
<path fill="none" stroke="#63b8ff" d="M392.68,-739.8C380.3,-730.5 366.15,-719.51 353.75,-709 320.69,-680.97 284.33,-645.77 263.83,-625.48"/>
<polygon fill="#63b8ff" stroke="#63b8ff" points="390.41,-742.48 400.52,-745.64 394.59,-736.86 390.41,-742.48"/>
</a>
</g>
</g>
<!-- Node18 -->
<g id="Node000018" class="node">
<title>Node18</title>
<g id="a_Node000018"><a xlink:href="class_task_a_p_i_1_1_helpers_1_1_spot_helper.html#a7ff886c42d0b6aba649b98f9935772bc" target="_top" xlink:title="Retrieves the current market status override from an external service.">
<polygon fill="white" stroke="#666666" points="496.88,-951 354.12,-951 354.12,-919 496.88,-919 496.88,-951"/>
<text text-anchor="start" x="362.12" y="-937.5" font-family="Helvetica,sans-Serif" font-size="10.00">TaskAPI.Helpers.SpotHelper.</text>
<text text-anchor="middle" x="425.5" y="-925.5" font-family="Helvetica,sans-Serif" font-size="10.00">MarketStatusOverride</text>
</a>
</g>
</g>
<!-- Node17&#45;&gt;Node18 -->
<g id="edge19_Node000017_Node000018" class="edge">
<title>Node17&#45;&gt;Node18</title>
<g id="a_edge19_Node000017_Node000018"><a xlink:title=" ">
<path fill="none" stroke="#63b8ff" d="M531.77,-944.74C520.1,-943.66 508.39,-942.58 497.23,-941.55"/>
<polygon fill="#63b8ff" stroke="#63b8ff" points="531.13,-948.2 541.41,-945.64 531.78,-941.23 531.13,-948.2"/>
</a>
</g>
</g>
<!-- Node18&#45;&gt;Node15 -->
<g id="edge20_Node000018_Node000015" class="edge">
<title>Node18&#45;&gt;Node15</title>
<g id="a_edge20_Node000018_Node000015"><a xlink:title=" ">
<path fill="none" stroke="#63b8ff" d="M366.36,-914.98C343.33,-907.05 317.19,-898.04 295.28,-890.5"/>
<polygon fill="#63b8ff" stroke="#63b8ff" points="365.01,-918.21 375.6,-918.16 367.29,-911.59 365.01,-918.21"/>
</a>
</g>
</g>
<!-- Node20 -->
<g id="Node000020" class="node">
<title>Node20</title>
<g id="a_Node000020"><a xlink:href="class_task_a_p_i_1_1_helpers_1_1_alert_helper.html#a6288723babbbadebdd77681b41122d79" target="_top" xlink:title="Fetches and processes log entries for a given API source based on the specified configuration.">
<polygon fill="white" stroke="#666666" points="496.88,-32 354.12,-32 354.12,0 496.88,0 496.88,-32"/>
<text text-anchor="start" x="362.12" y="-18.5" font-family="Helvetica,sans-Serif" font-size="10.00">TaskAPI.Helpers.AlertHelper.</text>
<text text-anchor="middle" x="425.5" y="-6.5" font-family="Helvetica,sans-Serif" font-size="10.00">FetchAndProcessLogs</text>
</a>
</g>
</g>
<!-- Node19&#45;&gt;Node20 -->
<g id="edge22_Node000019_Node000020" class="edge">
<title>Node19&#45;&gt;Node20</title>
<g id="a_edge22_Node000019_Node000020"><a xlink:title=" ">
<path fill="none" stroke="#63b8ff" d="M554.93,-16.63C535.95,-16.53 515.72,-16.43 497.06,-16.34"/>
<polygon fill="#63b8ff" stroke="#63b8ff" points="554.71,-20.12 564.73,-16.67 554.75,-13.12 554.71,-20.12"/>
</a>
</g>
</g>
<!-- Node21 -->
<g id="Node000021" class="node">
<title>Node21</title>
<g id="a_Node000021"><a xlink:href="class_task_a_p_i_1_1_helpers_1_1_alert_helper.html#acddc980d442b4344a8d9df5ba056276a" target="_top" xlink:title="Processes a single API source for alert generation.">
<polygon fill="white" stroke="#666666" points="317.75,-101 175,-101 175,-69 317.75,-69 317.75,-101"/>
<text text-anchor="start" x="183" y="-87.5" font-family="Helvetica,sans-Serif" font-size="10.00">TaskAPI.Helpers.AlertHelper.</text>
<text text-anchor="middle" x="246.38" y="-75.5" font-family="Helvetica,sans-Serif" font-size="10.00">ProcessApiSource</text>
</a>
</g>
</g>
<!-- Node20&#45;&gt;Node21 -->
<g id="edge23_Node000020_Node000021" class="edge">
<title>Node20&#45;&gt;Node21</title>
<g id="a_edge23_Node000020_Node000021"><a xlink:title=" ">
<path fill="none" stroke="#63b8ff" d="M366.25,-36.31C362.01,-37.87 357.81,-39.44 353.75,-41 330.98,-49.72 305.76,-60.13 285.59,-68.63"/>
<polygon fill="#63b8ff" stroke="#63b8ff" points="367.18,-39.69 375.38,-32.99 364.79,-33.12 367.18,-39.69"/>
</a>
</g>
</g>
<!-- Node22 -->
<g id="Node000022" class="node">
<title>Node22</title>
<g id="a_Node000022"><a xlink:href="class_task_a_p_i_1_1_controllers_1_1_logs_controller.html#aa1bbb95b5f70e8d5a457fdca962479e3" target="_top" xlink:title="Checks for alerts across all configured api sources.">
<polygon fill="white" stroke="#666666" points="139,-101 0,-101 0,-69 139,-69 139,-101"/>
<text text-anchor="start" x="8" y="-87.5" font-family="Helvetica,sans-Serif" font-size="10.00">TaskAPI.Controllers.Logs</text>
<text text-anchor="middle" x="69.5" y="-75.5" font-family="Helvetica,sans-Serif" font-size="10.00">Controller.CheckForAllAlerts</text>
</a>
</g>
</g>
<!-- Node21&#45;&gt;Node22 -->
<g id="edge24_Node000021_Node000022" class="edge">
<title>Node21&#45;&gt;Node22</title>
<g id="a_edge24_Node000021_Node000022"><a xlink:title=" ">
<path fill="none" stroke="#63b8ff" d="M163.45,-85C155.4,-85 147.3,-85 139.4,-85"/>
<polygon fill="#63b8ff" stroke="#63b8ff" points="163.24,-88.5 173.24,-85 163.24,-81.5 163.24,-88.5"/>
</a>
</g>
</g>
<!-- Node24 -->
<g id="Node000024" class="node">
<title>Node24</title>
<g id="a_Node000024"><a xlink:href="class_task_a_p_i_1_1_controllers_1_1_internal_a_p_i_controller.html#ad77c1d71a0a8ba5393ee56bff0b81df1" target="_top" xlink:title="Trims logs for Internal API based on predefined criteria.">
<polygon fill="white" stroke="#666666" points="493.88,-408 357.12,-408 357.12,-376 493.88,-376 493.88,-408"/>
<text text-anchor="start" x="365.12" y="-394.5" font-family="Helvetica,sans-Serif" font-size="10.00">TaskAPI.Controllers.Internal</text>
<text text-anchor="middle" x="425.5" y="-382.5" font-family="Helvetica,sans-Serif" font-size="10.00">APIController.TrimLogs</text>
</a>
</g>
</g>
<!-- Node23&#45;&gt;Node24 -->
<g id="edge26_Node000023_Node000024" class="edge">
<title>Node23&#45;&gt;Node24</title>
<g id="a_edge26_Node000023_Node000024"><a xlink:title=" ">
<path fill="none" stroke="#63b8ff" d="M547.05,-364.98C529.38,-368.94 510.98,-373.07 494.04,-376.86"/>
<polygon fill="#63b8ff" stroke="#63b8ff" points="547.76,-368.41 556.75,-362.81 546.23,-361.58 547.76,-368.41"/>
</a>
</g>
</g>
<!-- Node27 -->
<g id="Node000027" class="node">
<title>Node27</title>
<g id="a_Node000027"><a xlink:href="class_task_a_p_i_1_1_controllers_1_1_priceapp_controller.html#a25e45ae0b01fc8e2c7aa8ec7e30d59a9" target="_top" xlink:title="Trims logs for Priceapp based on predefined criteria.">
<polygon fill="white" stroke="#666666" points="497.25,-270 353.75,-270 353.75,-238 497.25,-238 497.25,-270"/>
<text text-anchor="start" x="361.75" y="-256.5" font-family="Helvetica,sans-Serif" font-size="10.00">TaskAPI.Controllers.Priceapp</text>
<text text-anchor="middle" x="425.5" y="-244.5" font-family="Helvetica,sans-Serif" font-size="10.00">Controller.TrimLogs</text>
</a>
</g>
</g>
<!-- Node26&#45;&gt;Node27 -->
<g id="edge29_Node000026_Node000027" class="edge">
<title>Node26&#45;&gt;Node27</title>
<g id="a_edge29_Node000026_Node000027"><a xlink:title=" ">
<path fill="none" stroke="#63b8ff" d="M549.19,-249.22C532.15,-249.88 514.34,-250.58 497.74,-251.22"/>
<polygon fill="#63b8ff" stroke="#63b8ff" points="548.88,-252.73 558.74,-248.85 548.61,-245.74 548.88,-252.73"/>
</a>
</g>
</g>
<!-- Node28&#45;&gt;Node11 -->
<g id="edge31_Node000028_Node000011" class="edge">
<title>Node28&#45;&gt;Node11</title>
<g id="a_edge31_Node000028_Node000011"><a xlink:title=" ">
<path fill="none" stroke="#63b8ff" d="M356.15,-840.07C355.33,-839.4 354.53,-838.71 353.75,-838 287.25,-777.55 259.04,-667.07 250.44,-625.45"/>
<polygon fill="#63b8ff" stroke="#63b8ff" points="354.11,-842.91 364.34,-845.68 358.07,-837.14 354.11,-842.91"/>
</a>
</g>
</g>
<!-- Node29&#45;&gt;Node28 -->
<g id="edge33_Node000029_Node000028" class="edge">
<title>Node29&#45;&gt;Node28</title>
<g id="a_edge33_Node000029_Node000028"><a xlink:title=" ">
<path fill="none" stroke="#63b8ff" d="M555.96,-885.08C536.75,-881.8 516.19,-878.29 497.24,-875.06"/>
<polygon fill="#63b8ff" stroke="#63b8ff" points="555.15,-888.49 565.6,-886.72 556.33,-881.59 555.15,-888.49"/>
</a>
</g>
</g>
<!-- Node30&#45;&gt;Node31 -->
<g id="edge35_Node000030_Node000031" class="edge">
<title>Node30&#45;&gt;Node31</title>
<g id="a_edge35_Node000030_Node000031"><a xlink:title=" ">
<path fill="none" stroke="#63b8ff" d="M543.83,-684C528.31,-684 512.34,-684 497.36,-684"/>
<polygon fill="#63b8ff" stroke="#63b8ff" points="543.52,-687.5 553.52,-684 543.52,-680.5 543.52,-687.5"/>
</a>
</g>
</g>
<!-- Node31&#45;&gt;Node11 -->
<g id="edge36_Node000031_Node000011" class="edge">
<title>Node31&#45;&gt;Node11</title>
<g id="a_edge36_Node000031_Node000011"><a xlink:title=" ">
<path fill="none" stroke="#63b8ff" d="M375.2,-663.13C347.08,-651.22 312.32,-636.5 286.16,-625.42"/>
<polygon fill="#63b8ff" stroke="#63b8ff" points="373.66,-666.27 384.24,-666.95 376.39,-659.83 373.66,-666.27"/>
</a>
</g>
</g>
<!-- Node32&#45;&gt;Node11 -->
<g id="edge40_Node000032_Node000011" class="edge">
<title>Node32&#45;&gt;Node11</title>
<g id="a_edge40_Node000032_Node000011"><a xlink:title=" ">
<path fill="none" stroke="#63b8ff" d="M549.74,-109.91C478.54,-105.62 382.47,-104.91 353.75,-129 280.1,-190.78 253.7,-515.45 248.42,-592.56"/>
<polygon fill="#63b8ff" stroke="#63b8ff" points="549.23,-113.39 559.43,-110.53 549.68,-106.4 549.23,-113.39"/>
</a>
</g>
</g>
<!-- Node33&#45;&gt;Node11 -->
<g id="edge43_Node000033_Node000011" class="edge">
<title>Node33&#45;&gt;Node11</title>
<g id="a_edge43_Node000033_Node000011"><a xlink:title=" ">
<path fill="none" stroke="#63b8ff" d="M360.76,-88.94C358.21,-91.09 355.85,-93.44 353.75,-96 288.63,-175.37 255.64,-513.68 248.75,-592.53"/>
<polygon fill="#63b8ff" stroke="#63b8ff" points="362.68,-91.87 368.82,-83.24 358.63,-86.16 362.68,-91.87"/>
</a>
</g>
</g>
<!-- Node35&#45;&gt;Node21 -->
<g id="edge46_Node000035_Node000021" class="edge">
<title>Node35&#45;&gt;Node21</title>
<g id="a_edge46_Node000035_Node000021"><a xlink:title=" ">
<path fill="none" stroke="#63b8ff" d="M371.99,-133.54C345.72,-123.31 314.36,-111.09 289.66,-101.47"/>
<polygon fill="#63b8ff" stroke="#63b8ff" points="370.53,-136.73 381.11,-137.1 373.07,-130.21 370.53,-136.73"/>
</a>
</g>
</g>
<!-- Node36&#45;&gt;Node3 -->
<g id="edge52_Node000036_Node000003" class="edge">
<title>Node36&#45;&gt;Node3</title>
<g id="a_edge52_Node000036_Node000003"><a xlink:title=" ">
<path fill="none" stroke="#63b8ff" d="M558.19,-304.51C548.82,-308.34 540.12,-313.65 533.25,-321 472.75,-385.69 554.32,-449.27 497.25,-517 494.13,-520.7 490.43,-523.88 486.39,-526.6"/>
<polygon fill="#63b8ff" stroke="#63b8ff" points="559.25,-307.85 567.57,-301.29 556.97,-301.23 559.25,-307.85"/>
</a>
</g>
</g>
<!-- Node36&#45;&gt;Node5 -->
<g id="edge53_Node000036_Node000005" class="edge">
<title>Node36&#45;&gt;Node5</title>
<g id="a_edge53_Node000036_Node000005"><a xlink:title=" ">
<path fill="none" stroke="#63b8ff" d="M558.23,-305.04C548.94,-308.79 540.25,-313.95 533.25,-321 486.15,-368.42 542.14,-417.49 497.25,-467 494.28,-470.28 490.84,-473.13 487.13,-475.61"/>
<polygon fill="#63b8ff" stroke="#63b8ff" points="559.17,-308.42 567.49,-301.86 556.89,-301.8 559.17,-308.42"/>
</a>
</g>
</g>
<!-- Node36&#45;&gt;Node7 -->
<g id="edge50_Node000036_Node000007" class="edge">
<title>Node36&#45;&gt;Node7</title>
<g id="a_edge50_Node000036_Node000007"><a xlink:title=" ">
<path fill="none" stroke="#63b8ff" d="M558.12,-306.14C549.03,-309.75 540.43,-314.57 533.25,-321 499.3,-351.4 529.78,-385.09 497.25,-417 493.9,-420.28 490.1,-423.14 486.03,-425.62"/>
<polygon fill="#63b8ff" stroke="#63b8ff" points="559.19,-309.47 567.52,-302.92 556.93,-302.84 559.19,-309.47"/>
</a>
</g>
</g>
<!-- Node36&#45;&gt;Node11 -->
<g id="edge48_Node000036_Node000011" class="edge">
<title>Node36&#45;&gt;Node11</title>
<g id="a_edge48_Node000036_Node000011"><a xlink:title=" ">
<path fill="none" stroke="#63b8ff" d="M557.68,-292.8C486.32,-291.24 384.74,-293.52 353.75,-317 262.37,-386.24 249.4,-541.73 247.63,-592.57"/>
<polygon fill="#63b8ff" stroke="#63b8ff" points="557.27,-296.29 567.35,-293.04 557.44,-289.29 557.27,-296.29"/>
</a>
</g>
</g>
<!-- Node36&#45;&gt;Node24 -->
<g id="edge54_Node000036_Node000024" class="edge">
<title>Node36&#45;&gt;Node24</title>
<g id="a_edge54_Node000036_Node000024"><a xlink:title=" ">
<path fill="none" stroke="#63b8ff" d="M558.2,-308.87C549.41,-312.05 540.87,-316.03 533.25,-321 511.5,-335.18 518.33,-351.85 497.25,-367 492.7,-370.27 487.68,-373.15 482.49,-375.67"/>
<polygon fill="#63b8ff" stroke="#63b8ff" points="559.13,-312.24 567.55,-305.82 556.96,-305.59 559.13,-312.24"/>
</a>
</g>
</g>
<!-- Node36&#45;&gt;Node27 -->
<g id="edge56_Node000036_Node000027" class="edge">
<title>Node36&#45;&gt;Node27</title>
<g id="a_edge56_Node000036_Node000027"><a xlink:title=" ">
<path fill="none" stroke="#63b8ff" d="M557.75,-280.86C538.15,-276.85 517.04,-272.53 497.61,-268.55"/>
<polygon fill="#63b8ff" stroke="#63b8ff" points="556.79,-284.23 567.29,-282.81 558.2,-277.38 556.79,-284.23"/>
</a>
</g>
</g>
<!-- Node36&#45;&gt;Node34 -->
<g id="edge49_Node000036_Node000034" class="edge">
<title>Node36&#45;&gt;Node34</title>
<g id="a_edge49_Node000036_Node000034"><a xlink:title=" ">
<path fill="none" stroke="#63b8ff" d="M558.22,-282.74C549.47,-279.62 540.92,-275.76 533.25,-271 512.36,-258.04 517.53,-242.9 497.25,-229 492.52,-225.76 487.33,-222.89 481.97,-220.37"/>
<polygon fill="#63b8ff" stroke="#63b8ff" points="556.94,-286 567.53,-285.74 559.08,-279.34 556.94,-286"/>
</a>
</g>
</g>
<!-- Node36&#45;&gt;Node35 -->
<g id="edge51_Node000036_Node000035" class="edge">
<title>Node36&#45;&gt;Node35</title>
<g id="a_edge51_Node000036_Node000035"><a xlink:title=" ">
<path fill="none" stroke="#63b8ff" d="M558.02,-285.7C548.99,-282.11 540.43,-277.34 533.25,-271 500.33,-241.94 528.81,-209.53 497.25,-179 493.88,-175.74 490.06,-172.9 485.98,-170.43"/>
<polygon fill="#63b8ff" stroke="#63b8ff" points="556.77,-288.97 567.36,-288.9 559.04,-282.34 556.77,-288.97"/>
</a>
</g>
</g>
<!-- Node37 -->
<g id="Node000037" class="node">
<title>Node37</title>
<g id="a_Node000037"><a xlink:href="class_task_a_p_i_1_1_controllers_1_1_logs_controller.html#af8b7f41074892eb4a70a447d64a055c6" target="_top" xlink:title="Trims logs based on predefined criteria.">
<polygon fill="white" stroke="#666666" points="488.62,-358 362.38,-358 362.38,-326 488.62,-326 488.62,-358"/>
<text text-anchor="start" x="370.38" y="-344.5" font-family="Helvetica,sans-Serif" font-size="10.00">TaskAPI.Controllers.Logs</text>
<text text-anchor="middle" x="425.5" y="-332.5" font-family="Helvetica,sans-Serif" font-size="10.00">Controller.TrimLogs</text>
</a>
</g>
</g>
<!-- Node36&#45;&gt;Node37 -->
<g id="edge55_Node000036_Node000037" class="edge">
<title>Node36&#45;&gt;Node37</title>
<g id="a_edge55_Node000036_Node000037"><a xlink:title=" ">
<path fill="none" stroke="#63b8ff" d="M557.57,-312.62C535.09,-317.66 510.64,-323.14 489,-327.99"/>
<polygon fill="#63b8ff" stroke="#63b8ff" points="558.3,-316.05 567.3,-310.45 556.77,-309.22 558.3,-316.05"/>
</a>
</g>
</g>
</g>
</svg>
