<?xml version="1.0" encoding="UTF-8" standalone="no"?>
<!DOCTYPE svg PUBLIC "-//W3C//DTD SVG 1.1//EN"
 "http://www.w3.org/Graphics/SVG/1.1/DTD/svg11.dtd">
<!-- Generated by graphviz version 9.0.0 (20230911.1827)
 -->
<!-- Title: TaskAPI.Controllers.PriceappController.TrimLogs Pages: 1 -->
<svg width="877pt" height="140pt"
 viewBox="0.00 0.00 877.00 140.00" xmlns="http://www.w3.org/2000/svg" xmlns:xlink="http://www.w3.org/1999/xlink">
<g id="graph0" class="graph" transform="scale(1 1) rotate(0) translate(4 136)">
<title>TaskAPI.Controllers.PriceappController.TrimLogs</title>
<!-- Node1 -->
<g id="Node000001" class="node">
<title>Node1</title>
<g id="a_Node000001"><a xlink:title="Trims logs for Priceapp based on predefined criteria.">
<polygon fill="#999999" stroke="#666666" points="143.5,-82 0,-82 0,-50 143.5,-50 143.5,-82"/>
<text text-anchor="start" x="8" y="-68.5" font-family="Helvetica,sans-Serif" font-size="10.00">TaskAPI.Controllers.Priceapp</text>
<text text-anchor="middle" x="71.75" y="-56.5" font-family="Helvetica,sans-Serif" font-size="10.00">Controller.TrimLogs</text>
</a>
</g>
</g>
<!-- Node2 -->
<g id="Node000002" class="node">
<title>Node2</title>
<g id="a_Node000002"><a xlink:href="class_task_a_p_i_1_1_services_1_1_log_service.html#a5c2a67dbd8beb6f821c46b8d052d59ea" target="_top" xlink:title="Logs an informational message to the database.">
<polygon fill="white" stroke="#666666" points="505.5,-132 359.75,-132 359.75,-100 505.5,-100 505.5,-132"/>
<text text-anchor="start" x="367.75" y="-118.5" font-family="Helvetica,sans-Serif" font-size="10.00">TaskAPI.Services.LogService.</text>
<text text-anchor="middle" x="432.62" y="-106.5" font-family="Helvetica,sans-Serif" font-size="10.00">LogInformation</text>
</a>
</g>
</g>
<!-- Node1&#45;&gt;Node2 -->
<g id="edge1_Node000001_Node000002" class="edge">
<title>Node1&#45;&gt;Node2</title>
<g id="a_edge1_Node000001_Node000002"><a xlink:title=" ">
<path fill="none" stroke="#63b8ff" d="M136.83,-82.44C150.82,-85.63 165.6,-88.69 179.5,-91 235.36,-100.27 298.79,-106.54 348.05,-110.48"/>
<polygon fill="#63b8ff" stroke="#63b8ff" points="347.54,-113.95 357.79,-111.24 348.09,-106.97 347.54,-113.95"/>
</a>
</g>
</g>
<!-- Node5 -->
<g id="Node000005" class="node">
<title>Node5</title>
<g id="a_Node000005"><a xlink:href="class_task_a_p_i_1_1_services_1_1_internal_a_p_i_service.html#a8806289389207c5a3ed1e203f1bcbc5c" target="_top" xlink:title="Initiates a log trimming operation for Priceapp logs via Internal API.">
<polygon fill="white" stroke="#666666" points="323.75,-32 179.5,-32 179.5,0 323.75,0 323.75,-32"/>
<text text-anchor="start" x="187.5" y="-18.5" font-family="Helvetica,sans-Serif" font-size="10.00">TaskAPI.Services.Internal</text>
<text text-anchor="middle" x="251.62" y="-6.5" font-family="Helvetica,sans-Serif" font-size="10.00">APIService.PriceappTrimLogs</text>
</a>
</g>
</g>
<!-- Node1&#45;&gt;Node5 -->
<g id="edge4_Node000001_Node000005" class="edge">
<title>Node1&#45;&gt;Node5</title>
<g id="a_edge4_Node000001_Node000005"><a xlink:title=" ">
<path fill="none" stroke="#63b8ff" d="M130.99,-49.63C147.03,-45.12 164.59,-40.18 181.2,-35.52"/>
<polygon fill="#63b8ff" stroke="#63b8ff" points="181.81,-38.98 190.49,-32.9 179.92,-32.24 181.81,-38.98"/>
</a>
</g>
</g>
<!-- Node8 -->
<g id="Node000008" class="node">
<title>Node8</title>
<g id="a_Node000008"><a xlink:href="class_task_a_p_i_1_1_services_1_1_internal_a_p_i_service.html#aeffeb1d3d59aeeab65dfe72691d21600" target="_top" xlink:title="Sends an email using Internal API&#39;s email endpoint.">
<polygon fill="white" stroke="#666666" points="315.12,-82 188.12,-82 188.12,-50 315.12,-50 315.12,-82"/>
<text text-anchor="start" x="196.12" y="-68.5" font-family="Helvetica,sans-Serif" font-size="10.00">TaskAPI.Services.Internal</text>
<text text-anchor="middle" x="251.62" y="-56.5" font-family="Helvetica,sans-Serif" font-size="10.00">APIService.SendEmail</text>
</a>
</g>
</g>
<!-- Node1&#45;&gt;Node8 -->
<g id="edge9_Node000001_Node000008" class="edge">
<title>Node1&#45;&gt;Node8</title>
<g id="a_edge9_Node000001_Node000008"><a xlink:title=" ">
<path fill="none" stroke="#63b8ff" d="M143.82,-66C154.48,-66 165.49,-66 176.22,-66"/>
<polygon fill="#63b8ff" stroke="#63b8ff" points="176.2,-69.5 186.2,-66 176.2,-62.5 176.2,-69.5"/>
</a>
</g>
</g>
<!-- Node3 -->
<g id="Node000003" class="node">
<title>Node3</title>
<g id="a_Node000003"><a xlink:href="class_task_a_p_i_1_1_services_1_1_log_service.html#a44f0fd9db1116257087ba59c836e22ea" target="_top" xlink:title="Directly inserts a log entry into the database.">
<polygon fill="white" stroke="#666666" points="687.25,-82 541.5,-82 541.5,-50 687.25,-50 687.25,-82"/>
<text text-anchor="start" x="549.5" y="-68.5" font-family="Helvetica,sans-Serif" font-size="10.00">TaskAPI.Services.LogService.</text>
<text text-anchor="middle" x="614.38" y="-56.5" font-family="Helvetica,sans-Serif" font-size="10.00">InsertLog</text>
</a>
</g>
</g>
<!-- Node2&#45;&gt;Node3 -->
<g id="edge2_Node000002_Node000003" class="edge">
<title>Node2&#45;&gt;Node3</title>
<g id="a_edge2_Node000002_Node000003"><a xlink:title=" ">
<path fill="none" stroke="#63b8ff" d="M492.48,-99.63C508.69,-95.12 526.44,-90.18 543.22,-85.52"/>
<polygon fill="#63b8ff" stroke="#63b8ff" points="543.92,-88.95 552.62,-82.9 542.05,-82.21 543.92,-88.95"/>
</a>
</g>
</g>
<!-- Node4 -->
<g id="Node000004" class="node">
<title>Node4</title>
<g id="a_Node000004"><a xlink:href="class_task_a_p_i_1_1_services_1_1_log_service.html#a20f6ab73ae5cc69273da4416da65f94d" target="_top" xlink:title="Writes a log entry to a local text file as a fallback or additional logging method.">
<polygon fill="white" stroke="#666666" points="869,-82 723.25,-82 723.25,-50 869,-50 869,-82"/>
<text text-anchor="start" x="731.25" y="-68.5" font-family="Helvetica,sans-Serif" font-size="10.00">TaskAPI.Services.LogService.</text>
<text text-anchor="middle" x="796.12" y="-56.5" font-family="Helvetica,sans-Serif" font-size="10.00">WriteLog</text>
</a>
</g>
</g>
<!-- Node3&#45;&gt;Node4 -->
<g id="edge3_Node000003_Node000004" class="edge">
<title>Node3&#45;&gt;Node4</title>
<g id="a_edge3_Node000003_Node000004"><a xlink:title=" ">
<path fill="none" stroke="#63b8ff" d="M687.71,-66C695.6,-66 703.68,-66 711.69,-66"/>
<polygon fill="#63b8ff" stroke="#63b8ff" points="711.43,-69.5 721.43,-66 711.43,-62.5 711.43,-69.5"/>
</a>
</g>
</g>
<!-- Node6 -->
<g id="Node000006" class="node">
<title>Node6</title>
<g id="a_Node000006"><a xlink:href="class_task_a_p_i_1_1_services_1_1_log_service.html#a46dc9bf58bc9605c7e17dfee38b94354" target="_top" xlink:title="Logs an error message to the database.">
<polygon fill="white" stroke="#666666" points="505.5,-32 359.75,-32 359.75,0 505.5,0 505.5,-32"/>
<text text-anchor="start" x="367.75" y="-18.5" font-family="Helvetica,sans-Serif" font-size="10.00">TaskAPI.Services.LogService.</text>
<text text-anchor="middle" x="432.62" y="-6.5" font-family="Helvetica,sans-Serif" font-size="10.00">LogError</text>
</a>
</g>
</g>
<!-- Node5&#45;&gt;Node6 -->
<g id="edge5_Node000005_Node000006" class="edge">
<title>Node5&#45;&gt;Node6</title>
<g id="a_edge5_Node000005_Node000006"><a xlink:title=" ">
<path fill="none" stroke="#63b8ff" d="M324.14,-16C332.02,-16 340.09,-16 348.09,-16"/>
<polygon fill="#63b8ff" stroke="#63b8ff" points="347.83,-19.5 357.83,-16 347.83,-12.5 347.83,-19.5"/>
</a>
</g>
</g>
<!-- Node7 -->
<g id="Node000007" class="node">
<title>Node7</title>
<g id="a_Node000007"><a xlink:href="class_task_a_p_i_1_1_services_1_1_log_service.html#a78c9df658858fa3099eed69421423898" target="_top" xlink:title="Logs an exception to the database.">
<polygon fill="white" stroke="#666666" points="505.5,-82 359.75,-82 359.75,-50 505.5,-50 505.5,-82"/>
<text text-anchor="start" x="367.75" y="-68.5" font-family="Helvetica,sans-Serif" font-size="10.00">TaskAPI.Services.LogService.</text>
<text text-anchor="middle" x="432.62" y="-56.5" font-family="Helvetica,sans-Serif" font-size="10.00">LogException</text>
</a>
</g>
</g>
<!-- Node5&#45;&gt;Node7 -->
<g id="edge7_Node000005_Node000007" class="edge">
<title>Node5&#45;&gt;Node7</title>
<g id="a_edge7_Node000005_Node000007"><a xlink:title=" ">
<path fill="none" stroke="#63b8ff" d="M311.24,-32.37C327.38,-36.88 345.05,-41.82 361.76,-46.48"/>
<polygon fill="#63b8ff" stroke="#63b8ff" points="360.55,-49.78 371.12,-49.1 362.43,-43.04 360.55,-49.78"/>
</a>
</g>
</g>
<!-- Node6&#45;&gt;Node3 -->
<g id="edge6_Node000006_Node000003" class="edge">
<title>Node6&#45;&gt;Node3</title>
<g id="a_edge6_Node000006_Node000003"><a xlink:title=" ">
<path fill="none" stroke="#63b8ff" d="M492.48,-32.37C508.69,-36.88 526.44,-41.82 543.22,-46.48"/>
<polygon fill="#63b8ff" stroke="#63b8ff" points="542.05,-49.79 552.62,-49.1 543.92,-43.05 542.05,-49.79"/>
</a>
</g>
</g>
<!-- Node7&#45;&gt;Node3 -->
<g id="edge8_Node000007_Node000003" class="edge">
<title>Node7&#45;&gt;Node3</title>
<g id="a_edge8_Node000007_Node000003"><a xlink:title=" ">
<path fill="none" stroke="#63b8ff" d="M505.96,-66C513.85,-66 521.93,-66 529.94,-66"/>
<polygon fill="#63b8ff" stroke="#63b8ff" points="529.68,-69.5 539.68,-66 529.68,-62.5 529.68,-69.5"/>
</a>
</g>
</g>
<!-- Node8&#45;&gt;Node6 -->
<g id="edge10_Node000008_Node000006" class="edge">
<title>Node8&#45;&gt;Node6</title>
<g id="a_edge10_Node000008_Node000006"><a xlink:title=" ">
<path fill="none" stroke="#63b8ff" d="M311.24,-49.63C327.38,-45.12 345.05,-40.18 361.76,-35.52"/>
<polygon fill="#63b8ff" stroke="#63b8ff" points="362.43,-38.96 371.12,-32.9 360.55,-32.22 362.43,-38.96"/>
</a>
</g>
</g>
<!-- Node8&#45;&gt;Node7 -->
<g id="edge11_Node000008_Node000007" class="edge">
<title>Node8&#45;&gt;Node7</title>
<g id="a_edge11_Node000008_Node000007"><a xlink:title=" ">
<path fill="none" stroke="#63b8ff" d="M315.48,-66C326.02,-66 337.11,-66 348.07,-66"/>
<polygon fill="#63b8ff" stroke="#63b8ff" points="347.92,-69.5 357.92,-66 347.92,-62.5 347.92,-69.5"/>
</a>
</g>
</g>
</g>
</svg>
