<?xml version="1.0" encoding="UTF-8" standalone="no"?>
<!DOCTYPE svg PUBLIC "-//W3C//DTD SVG 1.1//EN"
 "http://www.w3.org/Graphics/SVG/1.1/DTD/svg11.dtd">
<!-- Generated by graphviz version 9.0.0 (20230911.1827)
 -->
<!-- Title: TaskAPI.Helpers.AlertHelper.SendAlerts Pages: 1 -->
<svg width="878pt" height="184pt"
 viewBox="0.00 0.00 877.75 184.00" xmlns="http://www.w3.org/2000/svg" xmlns:xlink="http://www.w3.org/1999/xlink">
<g id="graph0" class="graph" transform="scale(1 1) rotate(0) translate(4 180)">
<title>TaskAPI.Helpers.AlertHelper.SendAlerts</title>
<!-- Node1 -->
<g id="Node000001" class="node">
<title>Node1</title>
<g id="a_Node000001"><a xlink:title="Sends alerts based on the provided list of alerts, API source, and configuration.">
<polygon fill="#999999" stroke="#666666" points="142.75,-98 0,-98 0,-66 142.75,-66 142.75,-98"/>
<text text-anchor="start" x="8" y="-84.5" font-family="Helvetica,sans-Serif" font-size="10.00">TaskAPI.Helpers.AlertHelper.</text>
<text text-anchor="middle" x="71.38" y="-72.5" font-family="Helvetica,sans-Serif" font-size="10.00">SendAlerts</text>
</a>
</g>
</g>
<!-- Node2 -->
<g id="Node000002" class="node">
<title>Node2</title>
<g id="a_Node000002"><a xlink:href="class_task_a_p_i_1_1_helpers_1_1_alert_helper.html#aab637efba5397e174f0a891ad60429cd" target="_top" xlink:title="Formats a JSON string as HTML table for better readability.">
<polygon fill="white" stroke="#666666" points="323,-173 180.25,-173 180.25,-141 323,-141 323,-173"/>
<text text-anchor="start" x="188.25" y="-159.5" font-family="Helvetica,sans-Serif" font-size="10.00">TaskAPI.Helpers.AlertHelper.</text>
<text text-anchor="middle" x="251.62" y="-147.5" font-family="Helvetica,sans-Serif" font-size="10.00">FormatJsonAsHtml</text>
</a>
</g>
</g>
<!-- Node1&#45;&gt;Node2 -->
<g id="edge1_Node000001_Node000002" class="edge">
<title>Node1&#45;&gt;Node2</title>
<g id="a_edge1_Node000001_Node000002"><a xlink:title=" ">
<path fill="none" stroke="#63b8ff" d="M108.63,-98.5C129.12,-107.7 155.26,-119.24 178.75,-129 184.69,-131.47 190.94,-134 197.16,-136.48"/>
<polygon fill="#63b8ff" stroke="#63b8ff" points="195.56,-139.61 206.14,-140.02 198.13,-133.1 195.56,-139.61"/>
</a>
</g>
</g>
<!-- Node4 -->
<g id="Node000004" class="node">
<title>Node4</title>
<g id="a_Node000004"><a xlink:href="class_task_a_p_i_1_1_services_1_1_log_service.html#a46dc9bf58bc9605c7e17dfee38b94354" target="_top" xlink:title="Logs an error message to the database.">
<polygon fill="white" stroke="#666666" points="506.25,-76 360.5,-76 360.5,-44 506.25,-44 506.25,-76"/>
<text text-anchor="start" x="368.5" y="-62.5" font-family="Helvetica,sans-Serif" font-size="10.00">TaskAPI.Services.LogService.</text>
<text text-anchor="middle" x="433.38" y="-50.5" font-family="Helvetica,sans-Serif" font-size="10.00">LogError</text>
</a>
</g>
</g>
<!-- Node1&#45;&gt;Node4 -->
<g id="edge3_Node000001_Node000004" class="edge">
<title>Node1&#45;&gt;Node4</title>
<g id="a_edge3_Node000001_Node000004"><a xlink:title=" ">
<path fill="none" stroke="#63b8ff" d="M143.07,-77.68C202.15,-74.07 286.53,-68.91 348.92,-65.1"/>
<polygon fill="#63b8ff" stroke="#63b8ff" points="349.02,-68.6 358.79,-64.5 348.6,-61.61 349.02,-68.6"/>
</a>
</g>
</g>
<!-- Node7 -->
<g id="Node000007" class="node">
<title>Node7</title>
<g id="a_Node000007"><a xlink:href="class_task_a_p_i_1_1_services_1_1_log_service.html#a5c2a67dbd8beb6f821c46b8d052d59ea" target="_top" xlink:title="Logs an informational message to the database.">
<polygon fill="white" stroke="#666666" points="324.5,-32 178.75,-32 178.75,0 324.5,0 324.5,-32"/>
<text text-anchor="start" x="186.75" y="-18.5" font-family="Helvetica,sans-Serif" font-size="10.00">TaskAPI.Services.LogService.</text>
<text text-anchor="middle" x="251.62" y="-6.5" font-family="Helvetica,sans-Serif" font-size="10.00">LogInformation</text>
</a>
</g>
</g>
<!-- Node1&#45;&gt;Node7 -->
<g id="edge6_Node000001_Node000007" class="edge">
<title>Node1&#45;&gt;Node7</title>
<g id="a_edge6_Node000001_Node000007"><a xlink:title=" ">
<path fill="none" stroke="#63b8ff" d="M116.9,-65.52C140.81,-56.66 170.49,-45.67 195.81,-36.3"/>
<polygon fill="#63b8ff" stroke="#63b8ff" points="196.78,-39.67 204.94,-32.91 194.35,-33.1 196.78,-39.67"/>
</a>
</g>
</g>
<!-- Node8 -->
<g id="Node000008" class="node">
<title>Node8</title>
<g id="a_Node000008"><a xlink:href="class_task_a_p_i_1_1_services_1_1_internal_a_p_i_service.html#aeffeb1d3d59aeeab65dfe72691d21600" target="_top" xlink:title="Sends an email using Internal API&#39;s email endpoint.">
<polygon fill="white" stroke="#666666" points="315.12,-120 188.12,-120 188.12,-88 315.12,-88 315.12,-120"/>
<text text-anchor="start" x="196.12" y="-106.5" font-family="Helvetica,sans-Serif" font-size="10.00">TaskAPI.Services.Internal</text>
<text text-anchor="middle" x="251.62" y="-94.5" font-family="Helvetica,sans-Serif" font-size="10.00">APIService.SendEmail</text>
</a>
</g>
</g>
<!-- Node1&#45;&gt;Node8 -->
<g id="edge8_Node000001_Node000008" class="edge">
<title>Node1&#45;&gt;Node8</title>
<g id="a_edge8_Node000001_Node000008"><a xlink:title=" ">
<path fill="none" stroke="#63b8ff" d="M143.08,-90.73C154.05,-92.08 165.4,-93.48 176.44,-94.84"/>
<polygon fill="#63b8ff" stroke="#63b8ff" points="175.94,-98.31 186.3,-96.06 176.8,-91.36 175.94,-98.31"/>
</a>
</g>
</g>
<!-- Node3 -->
<g id="Node000003" class="node">
<title>Node3</title>
<g id="a_Node000003"><a xlink:href="class_task_a_p_i_1_1_helpers_1_1_alert_helper.html#ad4d3668cc82bd01a9599f40ffed568f3" target="_top" xlink:title="Formats a JSON value for HTML presentation, applying different colors based on data types.">
<polygon fill="white" stroke="#666666" points="504.75,-176 362,-176 362,-144 504.75,-144 504.75,-176"/>
<text text-anchor="start" x="370" y="-162.5" font-family="Helvetica,sans-Serif" font-size="10.00">TaskAPI.Helpers.AlertHelper.</text>
<text text-anchor="middle" x="433.38" y="-150.5" font-family="Helvetica,sans-Serif" font-size="10.00">FormatJsonValue</text>
</a>
</g>
</g>
<!-- Node2&#45;&gt;Node3 -->
<g id="edge2_Node000002_Node000003" class="edge">
<title>Node2&#45;&gt;Node3</title>
<g id="a_edge2_Node000002_Node000003"><a xlink:title=" ">
<path fill="none" stroke="#63b8ff" d="M323.41,-158.18C332.25,-158.33 341.35,-158.48 350.35,-158.63"/>
<polygon fill="#63b8ff" stroke="#63b8ff" points="350.09,-162.13 360.14,-158.79 350.2,-155.13 350.09,-162.13"/>
</a>
</g>
</g>
<!-- Node5 -->
<g id="Node000005" class="node">
<title>Node5</title>
<g id="a_Node000005"><a xlink:href="class_task_a_p_i_1_1_services_1_1_log_service.html#a44f0fd9db1116257087ba59c836e22ea" target="_top" xlink:title="Directly inserts a log entry into the database.">
<polygon fill="white" stroke="#666666" points="688,-76 542.25,-76 542.25,-44 688,-44 688,-76"/>
<text text-anchor="start" x="550.25" y="-62.5" font-family="Helvetica,sans-Serif" font-size="10.00">TaskAPI.Services.LogService.</text>
<text text-anchor="middle" x="615.12" y="-50.5" font-family="Helvetica,sans-Serif" font-size="10.00">InsertLog</text>
</a>
</g>
</g>
<!-- Node4&#45;&gt;Node5 -->
<g id="edge4_Node000004_Node000005" class="edge">
<title>Node4&#45;&gt;Node5</title>
<g id="a_edge4_Node000004_Node000005"><a xlink:title=" ">
<path fill="none" stroke="#63b8ff" d="M506.71,-60C514.6,-60 522.68,-60 530.69,-60"/>
<polygon fill="#63b8ff" stroke="#63b8ff" points="530.43,-63.5 540.43,-60 530.43,-56.5 530.43,-63.5"/>
</a>
</g>
</g>
<!-- Node6 -->
<g id="Node000006" class="node">
<title>Node6</title>
<g id="a_Node000006"><a xlink:href="class_task_a_p_i_1_1_services_1_1_log_service.html#a20f6ab73ae5cc69273da4416da65f94d" target="_top" xlink:title="Writes a log entry to a local text file as a fallback or additional logging method.">
<polygon fill="white" stroke="#666666" points="869.75,-76 724,-76 724,-44 869.75,-44 869.75,-76"/>
<text text-anchor="start" x="732" y="-62.5" font-family="Helvetica,sans-Serif" font-size="10.00">TaskAPI.Services.LogService.</text>
<text text-anchor="middle" x="796.88" y="-50.5" font-family="Helvetica,sans-Serif" font-size="10.00">WriteLog</text>
</a>
</g>
</g>
<!-- Node5&#45;&gt;Node6 -->
<g id="edge5_Node000005_Node000006" class="edge">
<title>Node5&#45;&gt;Node6</title>
<g id="a_edge5_Node000005_Node000006"><a xlink:title=" ">
<path fill="none" stroke="#63b8ff" d="M688.46,-60C696.35,-60 704.43,-60 712.44,-60"/>
<polygon fill="#63b8ff" stroke="#63b8ff" points="712.18,-63.5 722.18,-60 712.18,-56.5 712.18,-63.5"/>
</a>
</g>
</g>
<!-- Node7&#45;&gt;Node5 -->
<g id="edge7_Node000007_Node000005" class="edge">
<title>Node7&#45;&gt;Node5</title>
<g id="a_edge7_Node000007_Node000005"><a xlink:title=" ">
<path fill="none" stroke="#63b8ff" d="M324.84,-18.47C375.77,-20.93 445.47,-25.74 506.25,-35 517.01,-36.64 528.29,-38.78 539.33,-41.11"/>
<polygon fill="#63b8ff" stroke="#63b8ff" points="538.27,-44.46 548.79,-43.18 539.76,-37.62 538.27,-44.46"/>
</a>
</g>
</g>
<!-- Node8&#45;&gt;Node4 -->
<g id="edge9_Node000008_Node000004" class="edge">
<title>Node8&#45;&gt;Node4</title>
<g id="a_edge9_Node000008_Node000004"><a xlink:title=" ">
<path fill="none" stroke="#63b8ff" d="M315.49,-88.61C328.07,-85.53 341.42,-82.26 354.44,-79.08"/>
<polygon fill="#63b8ff" stroke="#63b8ff" points="354.91,-82.57 363.79,-76.79 353.25,-75.77 354.91,-82.57"/>
</a>
</g>
</g>
<!-- Node9 -->
<g id="Node000009" class="node">
<title>Node9</title>
<g id="a_Node000009"><a xlink:href="class_task_a_p_i_1_1_services_1_1_log_service.html#a78c9df658858fa3099eed69421423898" target="_top" xlink:title="Logs an exception to the database.">
<polygon fill="white" stroke="#666666" points="506.25,-126 360.5,-126 360.5,-94 506.25,-94 506.25,-126"/>
<text text-anchor="start" x="368.5" y="-112.5" font-family="Helvetica,sans-Serif" font-size="10.00">TaskAPI.Services.LogService.</text>
<text text-anchor="middle" x="433.38" y="-100.5" font-family="Helvetica,sans-Serif" font-size="10.00">LogException</text>
</a>
</g>
</g>
<!-- Node8&#45;&gt;Node9 -->
<g id="edge10_Node000008_Node000009" class="edge">
<title>Node8&#45;&gt;Node9</title>
<g id="a_edge10_Node000008_Node000009"><a xlink:title=" ">
<path fill="none" stroke="#63b8ff" d="M315.49,-106.1C326.16,-106.45 337.39,-106.83 348.5,-107.2"/>
<polygon fill="#63b8ff" stroke="#63b8ff" points="348.38,-110.7 358.49,-107.53 348.61,-103.7 348.38,-110.7"/>
</a>
</g>
</g>
<!-- Node9&#45;&gt;Node5 -->
<g id="edge11_Node000009_Node000005" class="edge">
<title>Node9&#45;&gt;Node5</title>
<g id="a_edge11_Node000009_Node000005"><a xlink:title=" ">
<path fill="none" stroke="#63b8ff" d="M493.23,-93.63C509.44,-89.12 527.19,-84.18 543.97,-79.52"/>
<polygon fill="#63b8ff" stroke="#63b8ff" points="544.67,-82.95 553.37,-76.9 542.8,-76.21 544.67,-82.95"/>
</a>
</g>
</g>
</g>
</svg>
