<?xml version="1.0" encoding="UTF-8" standalone="no"?>
<!DOCTYPE svg PUBLIC "-//W3C//DTD SVG 1.1//EN"
 "http://www.w3.org/Graphics/SVG/1.1/DTD/svg11.dtd">
<!-- Generated by graphviz version 9.0.0 (20230911.1827)
 -->
<!-- Title: TaskAPI.Services.ForexService Pages: 1 -->
<svg width="326pt" height="233pt"
 viewBox="0.00 0.00 325.50 233.00" xmlns="http://www.w3.org/2000/svg" xmlns:xlink="http://www.w3.org/1999/xlink">

<svg id="main" version="1.1" xmlns="http://www.w3.org/2000/svg" xmlns:xlink="http://www.w3.org/1999/xlink" xml:space="preserve" onload="init(evt)">
<style type="text/css"><![CDATA[
.node, .edge {opacity: 0.7;}
.node.selected, .edge.selected {opacity: 1;}
.edge:hover path { stroke: red; }
.edge:hover polygon { stroke: red; fill: red; }
]]></style>
<script type="application/ecmascript" xlink:href="svg.min.js"/>
<svg id="graph" class="graph">
<g id="graph0" class="graph" transform="scale(1 1) rotate(0) translate(4 229)">
<title>TaskAPI.Services.ForexService</title>
<!-- Node1 -->
<g id="Node000001" class="node">
<title>Node1</title>
<g id="a_Node000001"><a xlink:title="Provides methods for interacting with a Forex data feed.">
<polygon fill="#999999" stroke="#666666" points="275,-20 123.25,-20 123.25,0 275,0 275,-20"/>
<text text-anchor="middle" x="199.12" y="-6.5" font-family="Helvetica,sans-Serif" font-size="10.00">TaskAPI.Services.ForexService</text>
</a>
</g>
</g>
<!-- Node2 -->
<g id="Node000002" class="node">
<title>Node2</title>
<g id="a_Node000002"><a xlink:href="class_task_a_p_i_1_1_services_1_1_log_service.html" target="_top" xlink:title="Provides logging services for various levels of application events, including debug,...">
<polygon fill="white" stroke="#666666" points="216.5,-88 73.75,-88 73.75,-68 216.5,-68 216.5,-88"/>
<text text-anchor="middle" x="145.12" y="-74.5" font-family="Helvetica,sans-Serif" font-size="10.00">TaskAPI.Services.LogService</text>
</a>
</g>
</g>
<!-- Node2&#45;&gt;Node1 -->
<g id="edge1_Node000001_Node000002" class="edge">
<title>Node2&#45;&gt;Node1</title>
<g id="a_edge1_Node000001_Node000002"><a xlink:title=" ">
<path fill="none" stroke="#9a32cd" stroke-dasharray="5,2" d="M159.95,-58.88C170.13,-46.44 183.23,-30.43 191.4,-20.44"/>
<polygon fill="#9a32cd" stroke="#9a32cd" points="157.44,-56.42 153.82,-66.37 162.86,-60.85 157.44,-56.42"/>
</a>
</g>
<text text-anchor="middle" x="203.38" y="-40.5" font-family="Helvetica,sans-Serif" font-size="10.00" fill="grey"> _logService</text>
</g>
<!-- Node3 -->
<g id="Node000003" class="node">
<title>Node3</title>
<g id="a_Node000003"><a xlink:href="class_task_a_p_i_1_1_contexts_1_1_task_a_p_i_context.html" target="_top" xlink:title=" ">
<polygon fill="white" stroke="#666666" points="168.25,-162 0,-162 0,-142 168.25,-142 168.25,-162"/>
<text text-anchor="middle" x="84.12" y="-148.5" font-family="Helvetica,sans-Serif" font-size="10.00">TaskAPI.Contexts.TaskAPIContext</text>
</a>
</g>
</g>
<!-- Node3&#45;&gt;Node2 -->
<g id="edge2_Node000002_Node000003" class="edge">
<title>Node3&#45;&gt;Node2</title>
<g id="a_edge2_Node000002_Node000003"><a xlink:title=" ">
<path fill="none" stroke="#9a32cd" stroke-dasharray="5,2" d="M98.54,-132.76C105.16,-124.5 113.19,-114.67 120.62,-106 125.74,-100.04 131.64,-93.52 136.38,-88.38"/>
<polygon fill="#9a32cd" stroke="#9a32cd" points="95.96,-130.38 92.47,-140.38 101.44,-134.74 95.96,-130.38"/>
</a>
</g>
<text text-anchor="middle" x="141.38" y="-108.5" font-family="Helvetica,sans-Serif" font-size="10.00" fill="grey"> _context</text>
</g>
<!-- Node4 -->
<g id="Node000004" class="node">
<title>Node4</title>
<g id="a_Node000004"><a xlink:title=" ">
<polygon fill="white" stroke="#666666" points="115,-225 53.25,-225 53.25,-205 115,-205 115,-225"/>
<text text-anchor="middle" x="84.12" y="-211.5" font-family="Helvetica,sans-Serif" font-size="10.00">DbContext</text>
</a>
</g>
</g>
<!-- Node4&#45;&gt;Node3 -->
<g id="edge3_Node000003_Node000004" class="edge">
<title>Node4&#45;&gt;Node3</title>
<g id="a_edge3_Node000003_Node000004"><a xlink:title=" ">
<path fill="none" stroke="#63b8ff" d="M84.12,-193.53C84.12,-182.98 84.12,-170.62 84.12,-162.35"/>
<polygon fill="#63b8ff" stroke="#63b8ff" points="80.63,-193.22 84.13,-203.22 87.63,-193.22 80.63,-193.22"/>
</a>
</g>
</g>
<!-- Node5 -->
<g id="Node000005" class="node">
<title>Node5</title>
<g id="a_Node000005"><a xlink:href="class_task_a_p_i_1_1_helpers_1_1_settings_1_1_task_a_p_i_settings.html" target="_top" xlink:title=" ">
<polygon fill="white" stroke="#666666" points="317.5,-168 186.75,-168 186.75,-136 317.5,-136 317.5,-168"/>
<text text-anchor="start" x="194.75" y="-154.5" font-family="Helvetica,sans-Serif" font-size="10.00">TaskAPI.Helpers.Settings.</text>
<text text-anchor="middle" x="252.12" y="-142.5" font-family="Helvetica,sans-Serif" font-size="10.00">TaskAPISettings</text>
</a>
</g>
</g>
<!-- Node5&#45;&gt;Node1 -->
<g id="edge5_Node000001_Node000005" class="edge">
<title>Node5&#45;&gt;Node1</title>
<g id="a_edge5_Node000001_Node000005"><a xlink:title=" ">
<path fill="none" stroke="#9a32cd" stroke-dasharray="5,2" d="M252.9,-124.11C252.41,-99.98 248.71,-64.41 233.12,-38 228.91,-30.86 222.04,-24.87 215.58,-20.36"/>
<polygon fill="#9a32cd" stroke="#9a32cd" points="249.4,-124.06 252.9,-134.06 256.4,-124.06 249.4,-124.06"/>
</a>
</g>
<text text-anchor="middle" x="271.5" y="-74.5" font-family="Helvetica,sans-Serif" font-size="10.00" fill="grey"> _settings</text>
</g>
<!-- Node5&#45;&gt;Node2 -->
<g id="edge4_Node000002_Node000005" class="edge">
<title>Node5&#45;&gt;Node2</title>
<g id="a_edge4_Node000002_Node000005"><a xlink:title=" ">
<path fill="none" stroke="#9a32cd" stroke-dasharray="5,2" d="M214.14,-129.86C207.79,-126.05 201.33,-122.01 195.38,-118 181.46,-108.61 166.35,-96.63 156.38,-88.43"/>
<polygon fill="#9a32cd" stroke="#9a32cd" points="212.26,-132.81 222.66,-134.85 215.8,-126.77 212.26,-132.81"/>
</a>
</g>
<text text-anchor="middle" x="217.5" y="-108.5" font-family="Helvetica,sans-Serif" font-size="10.00" fill="grey"> _settings</text>
</g>
</g>
</svg>
</svg>

<style type='text/css'>
<![CDATA[
[data-mouse-over-selected='false'] { opacity: 0.7; }
[data-mouse-over-selected='true']  { opacity: 1.0; }
]]>
</style>
<script type="application/ecmascript"><![CDATA[
document.addEventListener('DOMContentLoaded', (event) => {
  highlightEdges();
  highlightAdjacentNodes();
});
]]></script>
</svg>
