<?xml version="1.0" encoding="UTF-8" standalone="no"?>
<!DOCTYPE svg PUBLIC "-//W3C//DTD SVG 1.1//EN"
 "http://www.w3.org/Graphics/SVG/1.1/DTD/svg11.dtd">
<!-- Generated by graphviz version 9.0.0 (20230911.1827)
 -->
<!-- Title: TaskAPI.Models.DTO.InternalAPI.EmailPost Pages: 1 -->
<svg width="146pt" height="136pt"
 viewBox="0.00 0.00 146.00 136.00" xmlns="http://www.w3.org/2000/svg" xmlns:xlink="http://www.w3.org/1999/xlink">
<g id="graph0" class="graph" transform="scale(1 1) rotate(0) translate(4 132)">
<title>TaskAPI.Models.DTO.InternalAPI.EmailPost</title>
<!-- Node1 -->
<g id="Node000001" class="node">
<title>Node1</title>
<g id="a_Node000001"><a xlink:title=" ">
<polygon fill="#999999" stroke="none" points="138,-128 0,-128 0,0 138,0 138,-128"/>
<text text-anchor="start" x="4.88" y="-114.5" font-family="Helvetica,sans-Serif" font-size="10.00">TaskAPI.Models.DTO.Internal</text>
<text text-anchor="start" x="37.12" y="-102.5" font-family="Helvetica,sans-Serif" font-size="10.00">API.EmailPost</text>
<text text-anchor="start" x="15" y="-86.5" font-family="Helvetica,sans-Serif" font-size="10.00">+</text>
<text text-anchor="start" x="36" y="-86.5" font-family="Helvetica,sans-Serif" font-size="10.00">string EmailTo</text>
<text text-anchor="start" x="15" y="-70.5" font-family="Helvetica,sans-Serif" font-size="10.00">+</text>
<text text-anchor="start" x="36" y="-70.5" font-family="Helvetica,sans-Serif" font-size="10.00">string EmailFrom</text>
<text text-anchor="start" x="15" y="-54.5" font-family="Helvetica,sans-Serif" font-size="10.00">+</text>
<text text-anchor="start" x="36" y="-54.5" font-family="Helvetica,sans-Serif" font-size="10.00">string NameFrom</text>
<text text-anchor="start" x="15" y="-38.5" font-family="Helvetica,sans-Serif" font-size="10.00">+</text>
<text text-anchor="start" x="36" y="-38.5" font-family="Helvetica,sans-Serif" font-size="10.00">string Subject</text>
<text text-anchor="start" x="15" y="-22.5" font-family="Helvetica,sans-Serif" font-size="10.00">+</text>
<text text-anchor="start" x="36" y="-22.5" font-family="Helvetica,sans-Serif" font-size="10.00">string HTMLBody</text>
<text text-anchor="start" x="67.5" y="-6.5" font-family="Helvetica,sans-Serif" font-size="10.00"> </text>
<polygon fill="#666666" stroke="#666666" points="0,-98 0,-98 138,-98 138,-98 0,-98"/>
<polygon fill="#666666" stroke="#666666" points="0,-18 0,-18 34,-18 34,-18 0,-18"/>
<polygon fill="#666666" stroke="#666666" points="34,-18 34,-18 138,-18 138,-18 34,-18"/>
<polygon fill="none" stroke="#666666" points="0,0 0,-128 138,-128 138,0 0,0"/>
</a>
</g>
</g>
</g>
</svg>
