<?xml version="1.0" encoding="UTF-8" standalone="no"?>
<!DOCTYPE svg PUBLIC "-//W3C//DTD SVG 1.1//EN"
 "http://www.w3.org/Graphics/SVG/1.1/DTD/svg11.dtd">
<!-- Generated by graphviz version 9.0.0 (20230911.1827)
 -->
<!-- Title: TaskAPI.Helpers.SpotHelper.PullSaveTrim Pages: 1 -->
<svg width="1110pt" height="858pt"
 viewBox="0.00 0.00 1109.75 857.62" xmlns="http://www.w3.org/2000/svg" xmlns:xlink="http://www.w3.org/1999/xlink">
<g id="graph0" class="graph" transform="scale(1 1) rotate(0) translate(4 853.62)">
<title>TaskAPI.Helpers.SpotHelper.PullSaveTrim</title>
<!-- Node1 -->
<g id="Node000001" class="node">
<title>Node1</title>
<g id="a_Node000001"><a xlink:title="Pulls, saves, and trims spot data from various sources.">
<polygon fill="#999999" stroke="#666666" points="142.75,-466 0,-466 0,-434 142.75,-434 142.75,-466"/>
<text text-anchor="start" x="8" y="-452.5" font-family="Helvetica,sans-Serif" font-size="10.00">TaskAPI.Helpers.SpotHelper.</text>
<text text-anchor="middle" x="71.38" y="-440.5" font-family="Helvetica,sans-Serif" font-size="10.00">PullSaveTrim</text>
</a>
</g>
</g>
<!-- Node2 -->
<g id="Node000002" class="node">
<title>Node2</title>
<g id="a_Node000002"><a xlink:href="class_task_a_p_i_1_1_helpers_1_1_spot_helper.html#a2d5da5f529f7ec58c18cefb373466d99" target="_top" xlink:title="Generates special spot data entries and adds them to the final spot list.">
<polygon fill="white" stroke="#666666" points="528.38,-812 385.62,-812 385.62,-780 528.38,-780 528.38,-812"/>
<text text-anchor="start" x="393.62" y="-798.5" font-family="Helvetica,sans-Serif" font-size="10.00">TaskAPI.Helpers.SpotHelper.</text>
<text text-anchor="middle" x="457" y="-786.5" font-family="Helvetica,sans-Serif" font-size="10.00">GenerateSpecialData</text>
</a>
</g>
</g>
<!-- Node1&#45;&gt;Node2 -->
<g id="edge1_Node000001_Node000002" class="edge">
<title>Node1&#45;&gt;Node2</title>
<g id="a_edge1_Node000001_Node000002"><a xlink:title=" ">
<path fill="none" stroke="#63b8ff" d="M80.9,-466.39C97.31,-497.11 135.55,-564.6 178.75,-613 247.43,-689.95 267.81,-710.07 357.5,-761 367.15,-766.48 377.8,-771.34 388.43,-775.56"/>
<polygon fill="#63b8ff" stroke="#63b8ff" points="387.01,-778.76 397.61,-779.03 389.49,-772.21 387.01,-778.76"/>
</a>
</g>
</g>
<!-- Node3 -->
<g id="Node000003" class="node">
<title>Node3</title>
<g id="a_Node000003"><a xlink:href="class_task_a_p_i_1_1_services_1_1_log_service.html#a46dc9bf58bc9605c7e17dfee38b94354" target="_top" xlink:title="Logs an error message to the database.">
<polygon fill="white" stroke="#666666" points="738.25,-614 592.5,-614 592.5,-582 738.25,-582 738.25,-614"/>
<text text-anchor="start" x="600.5" y="-600.5" font-family="Helvetica,sans-Serif" font-size="10.00">TaskAPI.Services.LogService.</text>
<text text-anchor="middle" x="665.38" y="-588.5" font-family="Helvetica,sans-Serif" font-size="10.00">LogError</text>
</a>
</g>
</g>
<!-- Node1&#45;&gt;Node3 -->
<g id="edge7_Node000001_Node000003" class="edge">
<title>Node1&#45;&gt;Node3</title>
<g id="a_edge7_Node000001_Node000003"><a xlink:title=" ">
<path fill="none" stroke="#63b8ff" d="M76.5,-466.33C87.47,-507.35 120.58,-616.59 178.75,-689 240.6,-765.99 263.69,-790.12 357.5,-821 441.51,-848.66 481.57,-867.99 556.5,-821 626.01,-777.41 651.83,-674.95 660.47,-625.57"/>
<polygon fill="#63b8ff" stroke="#63b8ff" points="663.88,-626.42 662.03,-615.99 656.97,-625.3 663.88,-626.42"/>
</a>
</g>
</g>
<!-- Node6 -->
<g id="Node000006" class="node">
<title>Node6</title>
<g id="a_Node000006"><a xlink:href="class_task_a_p_i_1_1_services_1_1_log_service.html#a6be037b34888bbcf6b47dca8eef472de" target="_top" xlink:title="Logs a debug message to the database.">
<polygon fill="white" stroke="#666666" points="529.88,-422 384.12,-422 384.12,-390 529.88,-390 529.88,-422"/>
<text text-anchor="start" x="392.12" y="-408.5" font-family="Helvetica,sans-Serif" font-size="10.00">TaskAPI.Services.LogService.</text>
<text text-anchor="middle" x="457" y="-396.5" font-family="Helvetica,sans-Serif" font-size="10.00">LogDebug</text>
</a>
</g>
</g>
<!-- Node1&#45;&gt;Node6 -->
<g id="edge5_Node000001_Node000006" class="edge">
<title>Node1&#45;&gt;Node6</title>
<g id="a_edge5_Node000001_Node000006"><a xlink:title=" ">
<path fill="none" stroke="#63b8ff" d="M134.76,-433.55C149.13,-430.27 164.4,-427.16 178.75,-425 243.33,-415.26 317.14,-410.51 372.35,-408.2"/>
<polygon fill="#63b8ff" stroke="#63b8ff" points="372.48,-411.69 382.33,-407.8 372.2,-404.7 372.48,-411.69"/>
</a>
</g>
</g>
<!-- Node7 -->
<g id="Node000007" class="node">
<title>Node7</title>
<g id="a_Node000007"><a xlink:href="class_task_a_p_i_1_1_services_1_1_log_service.html#a5c2a67dbd8beb6f821c46b8d052d59ea" target="_top" xlink:title="Logs an informational message to the database.">
<polygon fill="white" stroke="#666666" points="738.25,-227 592.5,-227 592.5,-195 738.25,-195 738.25,-227"/>
<text text-anchor="start" x="600.5" y="-213.5" font-family="Helvetica,sans-Serif" font-size="10.00">TaskAPI.Services.LogService.</text>
<text text-anchor="middle" x="665.38" y="-201.5" font-family="Helvetica,sans-Serif" font-size="10.00">LogInformation</text>
</a>
</g>
</g>
<!-- Node1&#45;&gt;Node7 -->
<g id="edge8_Node000001_Node000007" class="edge">
<title>Node1&#45;&gt;Node7</title>
<g id="a_edge8_Node000001_Node000007"><a xlink:title=" ">
<path fill="none" stroke="#63b8ff" d="M76.65,-433.53C87.85,-392.68 121.28,-284.85 178.75,-213 240.77,-135.47 263.3,-110.39 357.5,-79 441.41,-51.04 476.59,-41.1 556.5,-79 602.63,-100.88 635.57,-153.2 652.15,-185.01"/>
<polygon fill="#63b8ff" stroke="#63b8ff" points="648.85,-186.23 656.47,-193.59 655.1,-183.08 648.85,-186.23"/>
</a>
</g>
</g>
<!-- Node8 -->
<g id="Node000008" class="node">
<title>Node8</title>
<g id="a_Node000008"><a xlink:href="class_task_a_p_i_1_1_helpers_1_1_spot_helper.html#a701fc9c0beaecff83beb2c806b8581d5" target="_top" xlink:title="Retrieves spot data from Binance for each specified asset.">
<polygon fill="white" stroke="#666666" points="321.5,-516 178.75,-516 178.75,-484 321.5,-484 321.5,-516"/>
<text text-anchor="start" x="186.75" y="-502.5" font-family="Helvetica,sans-Serif" font-size="10.00">TaskAPI.Helpers.SpotHelper.</text>
<text text-anchor="middle" x="250.12" y="-490.5" font-family="Helvetica,sans-Serif" font-size="10.00">PullBinanceData</text>
</a>
</g>
</g>
<!-- Node1&#45;&gt;Node8 -->
<g id="edge10_Node000001_Node000008" class="edge">
<title>Node1&#45;&gt;Node8</title>
<g id="a_edge10_Node000001_Node000008"><a xlink:title=" ">
<path fill="none" stroke="#63b8ff" d="M130.25,-466.37C146.19,-470.88 163.64,-475.82 180.14,-480.48"/>
<polygon fill="#63b8ff" stroke="#63b8ff" points="178.79,-483.74 189.36,-483.09 180.69,-477 178.79,-483.74"/>
</a>
</g>
</g>
<!-- Node11 -->
<g id="Node000011" class="node">
<title>Node11</title>
<g id="a_Node000011"><a xlink:href="class_task_a_p_i_1_1_helpers_1_1_spot_helper.html#a51135865d712678dee52479c109a61fb" target="_top" xlink:title="pull data from forexfeed in one hit, check single time variation is within threshold add items to spo...">
<polygon fill="white" stroke="#666666" points="321.5,-356 178.75,-356 178.75,-324 321.5,-324 321.5,-356"/>
<text text-anchor="start" x="186.75" y="-342.5" font-family="Helvetica,sans-Serif" font-size="10.00">TaskAPI.Helpers.SpotHelper.</text>
<text text-anchor="middle" x="250.12" y="-330.5" font-family="Helvetica,sans-Serif" font-size="10.00">PullForexData</text>
</a>
</g>
</g>
<!-- Node1&#45;&gt;Node11 -->
<g id="edge18_Node000001_Node000011" class="edge">
<title>Node1&#45;&gt;Node11</title>
<g id="a_edge18_Node000001_Node000011"><a xlink:title=" ">
<path fill="none" stroke="#63b8ff" d="M98.84,-433.53C129.25,-414.6 179.33,-383.44 213.24,-362.33"/>
<polygon fill="#63b8ff" stroke="#63b8ff" points="214.85,-365.46 221.49,-357.2 211.15,-359.51 214.85,-365.46"/>
</a>
</g>
</g>
<!-- Node14 -->
<g id="Node000014" class="node">
<title>Node14</title>
<g id="a_Node000014"><a xlink:href="class_task_a_p_i_1_1_helpers_1_1_spot_helper.html#a0fd06a80c097c9b6fcd5ddd8b1889c18" target="_top" xlink:title="Retrieves spot data from Oanda for each specified asset.">
<polygon fill="white" stroke="#666666" points="321.5,-466 178.75,-466 178.75,-434 321.5,-434 321.5,-466"/>
<text text-anchor="start" x="186.75" y="-452.5" font-family="Helvetica,sans-Serif" font-size="10.00">TaskAPI.Helpers.SpotHelper.</text>
<text text-anchor="middle" x="250.12" y="-440.5" font-family="Helvetica,sans-Serif" font-size="10.00">PullOandaData</text>
</a>
</g>
</g>
<!-- Node1&#45;&gt;Node14 -->
<g id="edge26_Node000001_Node000014" class="edge">
<title>Node1&#45;&gt;Node14</title>
<g id="a_edge26_Node000001_Node000014"><a xlink:title=" ">
<path fill="none" stroke="#63b8ff" d="M143.25,-450C151.15,-450 159.24,-450 167.26,-450"/>
<polygon fill="#63b8ff" stroke="#63b8ff" points="167.01,-453.5 177.01,-450 167.01,-446.5 167.01,-453.5"/>
</a>
</g>
</g>
<!-- Node16 -->
<g id="Node000016" class="node">
<title>Node16</title>
<g id="a_Node000016"><a xlink:href="class_task_a_p_i_1_1_helpers_1_1_spot_helper.html#a2ad64affbfeec15e4217d8bfccd982ff" target="_top" xlink:title="Pulls spot data from Polygon Oracle for each specified asset.">
<polygon fill="white" stroke="#666666" points="321.5,-254 178.75,-254 178.75,-222 321.5,-222 321.5,-254"/>
<text text-anchor="start" x="186.75" y="-240.5" font-family="Helvetica,sans-Serif" font-size="10.00">TaskAPI.Helpers.SpotHelper.</text>
<text text-anchor="middle" x="250.12" y="-228.5" font-family="Helvetica,sans-Serif" font-size="10.00">PullPolygonOracleData</text>
</a>
</g>
</g>
<!-- Node1&#45;&gt;Node16 -->
<g id="edge34_Node000001_Node000016" class="edge">
<title>Node1&#45;&gt;Node16</title>
<g id="a_edge34_Node000001_Node000016"><a xlink:title=" ">
<path fill="none" stroke="#63b8ff" d="M84.45,-433.9C103.81,-408.28 143.22,-356.85 178.75,-315 194.04,-297 212.01,-277.35 225.97,-262.41"/>
<polygon fill="#63b8ff" stroke="#63b8ff" points="228.34,-265 232.63,-255.31 223.24,-260.21 228.34,-265"/>
</a>
</g>
</g>
<!-- Node18 -->
<g id="Node000018" class="node">
<title>Node18</title>
<g id="a_Node000018"><a xlink:href="class_task_a_p_i_1_1_helpers_1_1_spot_helper.html#a95400211c9214b34c8427e09776449a9" target="_top" xlink:title="Recycles the previous spot data for the given BaseSpot from the database.">
<polygon fill="white" stroke="#666666" points="321.5,-604 178.75,-604 178.75,-572 321.5,-572 321.5,-604"/>
<text text-anchor="start" x="186.75" y="-590.5" font-family="Helvetica,sans-Serif" font-size="10.00">TaskAPI.Helpers.SpotHelper.</text>
<text text-anchor="middle" x="250.12" y="-578.5" font-family="Helvetica,sans-Serif" font-size="10.00">RecyclePreviousSpot</text>
</a>
</g>
</g>
<!-- Node1&#45;&gt;Node18 -->
<g id="edge41_Node000001_Node000018" class="edge">
<title>Node1&#45;&gt;Node18</title>
<g id="a_edge41_Node000001_Node000018"><a xlink:title=" ">
<path fill="none" stroke="#63b8ff" d="M84.89,-466.24C103.32,-489.24 139.82,-531.48 178.75,-558 183.37,-561.14 188.36,-564.06 193.49,-566.75"/>
<polygon fill="#63b8ff" stroke="#63b8ff" points="191.58,-569.71 202.1,-570.96 194.65,-563.42 191.58,-569.71"/>
</a>
</g>
</g>
<!-- Node19 -->
<g id="Node000019" class="node">
<title>Node19</title>
<g id="a_Node000019"><a xlink:href="class_task_a_p_i_1_1_services_1_1_internal_a_p_i_service.html#aeffeb1d3d59aeeab65dfe72691d21600" target="_top" xlink:title="Sends an email using Internal API&#39;s email endpoint.">
<polygon fill="white" stroke="#666666" points="520.5,-724 393.5,-724 393.5,-692 520.5,-692 520.5,-724"/>
<text text-anchor="start" x="401.5" y="-710.5" font-family="Helvetica,sans-Serif" font-size="10.00">TaskAPI.Services.Internal</text>
<text text-anchor="middle" x="457" y="-698.5" font-family="Helvetica,sans-Serif" font-size="10.00">APIService.SendEmail</text>
</a>
</g>
</g>
<!-- Node1&#45;&gt;Node19 -->
<g id="edge44_Node000001_Node000019" class="edge">
<title>Node1&#45;&gt;Node19</title>
<g id="a_edge44_Node000001_Node000019"><a xlink:title=" ">
<path fill="none" stroke="#63b8ff" d="M91.08,-466.33C111.38,-483.26 145.38,-509.41 178.75,-525 238.23,-552.79 273.73,-517.96 321.5,-563 358.62,-598 322,-635.36 357.5,-672 364.66,-679.39 373.47,-685.28 382.84,-689.96"/>
<polygon fill="#63b8ff" stroke="#63b8ff" points="381.24,-693.08 391.8,-693.96 384.1,-686.69 381.24,-693.08"/>
</a>
</g>
</g>
<!-- Node20 -->
<g id="Node000020" class="node">
<title>Node20</title>
<g id="a_Node000020"><a xlink:href="class_task_a_p_i_1_1_helpers_1_1_spot_helper.html#adeeda07d908e3644d9ba13213077d205" target="_top" xlink:title="Removes spot data entries older than a specified number of days from the database.">
<polygon fill="white" stroke="#666666" points="321.5,-32 178.75,-32 178.75,0 321.5,0 321.5,-32"/>
<text text-anchor="start" x="186.75" y="-18.5" font-family="Helvetica,sans-Serif" font-size="10.00">TaskAPI.Helpers.SpotHelper.</text>
<text text-anchor="middle" x="250.12" y="-6.5" font-family="Helvetica,sans-Serif" font-size="10.00">TrimSpotData</text>
</a>
</g>
</g>
<!-- Node1&#45;&gt;Node20 -->
<g id="edge47_Node000001_Node000020" class="edge">
<title>Node1&#45;&gt;Node20</title>
<g id="a_edge47_Node000001_Node000020"><a xlink:title=" ">
<path fill="none" stroke="#63b8ff" d="M71.88,-433.85C70.92,-374.48 75.37,-165.63 178.75,-46 181.02,-43.37 183.56,-40.97 186.3,-38.77"/>
<polygon fill="#63b8ff" stroke="#63b8ff" points="188.05,-41.81 194.33,-33.28 184.1,-36.03 188.05,-41.81"/>
</a>
</g>
</g>
<!-- Node2&#45;&gt;Node3 -->
<g id="edge2_Node000002_Node000003" class="edge">
<title>Node2&#45;&gt;Node3</title>
<g id="a_edge2_Node000002_Node000003"><a xlink:title=" ">
<path fill="none" stroke="#63b8ff" d="M528.79,-781.15C538.65,-777.22 548.23,-772.26 556.5,-766 605.72,-728.75 638.66,-662.03 654.16,-624.87"/>
<polygon fill="#63b8ff" stroke="#63b8ff" points="657.34,-626.33 657.84,-615.75 650.85,-623.71 657.34,-626.33"/>
</a>
</g>
</g>
<!-- Node4 -->
<g id="Node000004" class="node">
<title>Node4</title>
<g id="a_Node000004"><a xlink:href="class_task_a_p_i_1_1_services_1_1_log_service.html#a44f0fd9db1116257087ba59c836e22ea" target="_top" xlink:title="Directly inserts a log entry into the database.">
<polygon fill="white" stroke="#666666" points="920,-444 774.25,-444 774.25,-412 920,-412 920,-444"/>
<text text-anchor="start" x="782.25" y="-430.5" font-family="Helvetica,sans-Serif" font-size="10.00">TaskAPI.Services.LogService.</text>
<text text-anchor="middle" x="847.12" y="-418.5" font-family="Helvetica,sans-Serif" font-size="10.00">InsertLog</text>
</a>
</g>
</g>
<!-- Node3&#45;&gt;Node4 -->
<g id="edge3_Node000003_Node000004" class="edge">
<title>Node3&#45;&gt;Node4</title>
<g id="a_edge3_Node000003_Node000004"><a xlink:title=" ">
<path fill="none" stroke="#63b8ff" d="M683.61,-581.7C715.42,-551.62 783.48,-487.25 820.64,-452.11"/>
<polygon fill="#63b8ff" stroke="#63b8ff" points="822.98,-454.71 827.84,-445.29 818.17,-449.62 822.98,-454.71"/>
</a>
</g>
</g>
<!-- Node5 -->
<g id="Node000005" class="node">
<title>Node5</title>
<g id="a_Node000005"><a xlink:href="class_task_a_p_i_1_1_services_1_1_log_service.html#a20f6ab73ae5cc69273da4416da65f94d" target="_top" xlink:title="Writes a log entry to a local text file as a fallback or additional logging method.">
<polygon fill="white" stroke="#666666" points="1101.75,-444 956,-444 956,-412 1101.75,-412 1101.75,-444"/>
<text text-anchor="start" x="964" y="-430.5" font-family="Helvetica,sans-Serif" font-size="10.00">TaskAPI.Services.LogService.</text>
<text text-anchor="middle" x="1028.88" y="-418.5" font-family="Helvetica,sans-Serif" font-size="10.00">WriteLog</text>
</a>
</g>
</g>
<!-- Node4&#45;&gt;Node5 -->
<g id="edge4_Node000004_Node000005" class="edge">
<title>Node4&#45;&gt;Node5</title>
<g id="a_edge4_Node000004_Node000005"><a xlink:title=" ">
<path fill="none" stroke="#63b8ff" d="M920.46,-428C928.35,-428 936.43,-428 944.44,-428"/>
<polygon fill="#63b8ff" stroke="#63b8ff" points="944.18,-431.5 954.18,-428 944.18,-424.5 944.18,-431.5"/>
</a>
</g>
</g>
<!-- Node6&#45;&gt;Node4 -->
<g id="edge6_Node000006_Node000004" class="edge">
<title>Node6&#45;&gt;Node4</title>
<g id="a_edge6_Node000006_Node000004"><a xlink:title=" ">
<path fill="none" stroke="#63b8ff" d="M530.09,-410.09C595.92,-413.82 693.24,-419.33 762.47,-423.26"/>
<polygon fill="#63b8ff" stroke="#63b8ff" points="762.07,-426.74 772.25,-423.81 762.46,-419.75 762.07,-426.74"/>
</a>
</g>
</g>
<!-- Node7&#45;&gt;Node4 -->
<g id="edge9_Node000007_Node000004" class="edge">
<title>Node7&#45;&gt;Node4</title>
<g id="a_edge9_Node000007_Node000004"><a xlink:title=" ">
<path fill="none" stroke="#63b8ff" d="M679.89,-227.31C710.99,-264.85 787.82,-357.61 825.13,-402.65"/>
<polygon fill="#63b8ff" stroke="#63b8ff" points="822.42,-404.87 831.49,-410.33 827.81,-400.4 822.42,-404.87"/>
</a>
</g>
</g>
<!-- Node8&#45;&gt;Node3 -->
<g id="edge12_Node000008_Node000003" class="edge">
<title>Node8&#45;&gt;Node3</title>
<g id="a_edge12_Node000008_Node000003"><a xlink:title=" ">
<path fill="none" stroke="#63b8ff" d="M304.09,-516.42C310.55,-520.11 316.6,-524.58 321.5,-530 357.44,-569.71 314.34,-613.29 357.5,-645 438.55,-704.56 564.5,-652.31 626.82,-619.61"/>
<polygon fill="#63b8ff" stroke="#63b8ff" points="628.13,-622.88 635.29,-615.07 624.82,-616.72 628.13,-622.88"/>
</a>
</g>
</g>
<!-- Node8&#45;&gt;Node6 -->
<g id="edge11_Node000008_Node000006" class="edge">
<title>Node8&#45;&gt;Node6</title>
<g id="a_edge11_Node000008_Node000006"><a xlink:title=" ">
<path fill="none" stroke="#63b8ff" d="M299.91,-483.62C307.21,-480.9 314.6,-477.98 321.5,-475 354.36,-460.81 390.39,-442.15 416.88,-427.82"/>
<polygon fill="#63b8ff" stroke="#63b8ff" points="418.46,-430.94 425.56,-423.08 415.11,-424.8 418.46,-430.94"/>
</a>
</g>
</g>
<!-- Node9 -->
<g id="Node000009" class="node">
<title>Node9</title>
<g id="a_Node000009"><a xlink:href="class_task_a_p_i_1_1_services_1_1_log_service.html#a78c9df658858fa3099eed69421423898" target="_top" xlink:title="Logs an exception to the database.">
<polygon fill="white" stroke="#666666" points="738.25,-466 592.5,-466 592.5,-434 738.25,-434 738.25,-466"/>
<text text-anchor="start" x="600.5" y="-452.5" font-family="Helvetica,sans-Serif" font-size="10.00">TaskAPI.Services.LogService.</text>
<text text-anchor="middle" x="665.38" y="-440.5" font-family="Helvetica,sans-Serif" font-size="10.00">LogException</text>
</a>
</g>
</g>
<!-- Node8&#45;&gt;Node9 -->
<g id="edge13_Node000008_Node000009" class="edge">
<title>Node8&#45;&gt;Node9</title>
<g id="a_edge13_Node000008_Node000009"><a xlink:title=" ">
<path fill="none" stroke="#63b8ff" d="M321.81,-491.91C383.72,-484.76 476.1,-473.96 556.5,-464 564.42,-463.02 572.67,-461.98 580.92,-460.93"/>
<polygon fill="#63b8ff" stroke="#63b8ff" points="581.17,-464.43 590.65,-459.68 580.28,-457.48 581.17,-464.43"/>
</a>
</g>
</g>
<!-- Node10 -->
<g id="Node000010" class="node">
<title>Node10</title>
<g id="a_Node000010"><a xlink:href="class_task_a_p_i_1_1_services_1_1_binance_service.html#a5863f72c89f66991b6ea2172de8e4687" target="_top" xlink:title="Retrieves the latest cryptocurrency data feed from Binance.">
<polygon fill="white" stroke="#666666" points="522.38,-636 391.62,-636 391.62,-604 522.38,-604 522.38,-636"/>
<text text-anchor="start" x="399.62" y="-622.5" font-family="Helvetica,sans-Serif" font-size="10.00">TaskAPI.Services.Binance</text>
<text text-anchor="middle" x="457" y="-610.5" font-family="Helvetica,sans-Serif" font-size="10.00">Service.PullFeed</text>
</a>
</g>
</g>
<!-- Node8&#45;&gt;Node10 -->
<g id="edge15_Node000008_Node000010" class="edge">
<title>Node8&#45;&gt;Node10</title>
<g id="a_edge15_Node000008_Node000010"><a xlink:title=" ">
<path fill="none" stroke="#63b8ff" d="M300.78,-516.44C308.2,-520.19 315.39,-524.68 321.5,-530 344.95,-550.43 332.99,-570.86 357.5,-590 364.43,-595.42 372.34,-599.86 380.6,-603.5"/>
<polygon fill="#63b8ff" stroke="#63b8ff" points="379.19,-606.71 389.78,-607.14 381.77,-600.2 379.19,-606.71"/>
</a>
</g>
</g>
<!-- Node9&#45;&gt;Node4 -->
<g id="edge14_Node000009_Node000004" class="edge">
<title>Node9&#45;&gt;Node4</title>
<g id="a_edge14_Node000009_Node000004"><a xlink:title=" ">
<path fill="none" stroke="#63b8ff" d="M738.71,-441.15C746.6,-440.18 754.68,-439.19 762.69,-438.21"/>
<polygon fill="#63b8ff" stroke="#63b8ff" points="762.94,-441.71 772.44,-437.02 762.09,-434.76 762.94,-441.71"/>
</a>
</g>
</g>
<!-- Node10&#45;&gt;Node3 -->
<g id="edge16_Node000010_Node000003" class="edge">
<title>Node10&#45;&gt;Node3</title>
<g id="a_edge16_Node000010_Node000003"><a xlink:title=" ">
<path fill="none" stroke="#63b8ff" d="M522.73,-613.1C541.21,-611.13 561.61,-608.96 581.03,-606.88"/>
<polygon fill="#63b8ff" stroke="#63b8ff" points="581.26,-610.38 590.83,-605.84 580.51,-603.42 581.26,-610.38"/>
</a>
</g>
</g>
<!-- Node10&#45;&gt;Node9 -->
<g id="edge17_Node000010_Node000009" class="edge">
<title>Node10&#45;&gt;Node9</title>
<g id="a_edge17_Node000010_Node000009"><a xlink:title=" ">
<path fill="none" stroke="#63b8ff" d="M487.12,-603.6C507.33,-591.69 534.47,-574.64 556.5,-557 588.49,-531.38 621.39,-497.45 642.31,-474.73"/>
<polygon fill="#63b8ff" stroke="#63b8ff" points="644.8,-477.18 648.95,-467.43 639.63,-472.47 644.8,-477.18"/>
</a>
</g>
</g>
<!-- Node11&#45;&gt;Node3 -->
<g id="edge21_Node000011_Node000003" class="edge">
<title>Node11&#45;&gt;Node3</title>
<g id="a_edge21_Node000011_Node000003"><a xlink:title=" ">
<path fill="none" stroke="#63b8ff" d="M321.99,-345.7C406.43,-353.09 538.43,-366.71 556.5,-381 591.59,-408.75 573.15,-434.66 592.5,-475 609.16,-509.73 632.15,-547.73 647.61,-572.16"/>
<polygon fill="#63b8ff" stroke="#63b8ff" points="644.58,-573.93 652.91,-580.48 650.48,-570.17 644.58,-573.93"/>
</a>
</g>
</g>
<!-- Node11&#45;&gt;Node6 -->
<g id="edge20_Node000011_Node000006" class="edge">
<title>Node11&#45;&gt;Node6</title>
<g id="a_edge20_Node000011_Node000006"><a xlink:title=" ">
<path fill="none" stroke="#63b8ff" d="M298.68,-356.44C317.02,-362.69 338.2,-369.8 357.5,-376 368.03,-379.38 379.22,-382.89 390.15,-386.25"/>
<polygon fill="#63b8ff" stroke="#63b8ff" points="388.91,-389.53 399.5,-389.11 390.96,-382.84 388.91,-389.53"/>
</a>
</g>
</g>
<!-- Node11&#45;&gt;Node9 -->
<g id="edge22_Node000011_Node000009" class="edge">
<title>Node11&#45;&gt;Node9</title>
<g id="a_edge22_Node000011_Node000009"><a xlink:title=" ">
<path fill="none" stroke="#63b8ff" d="M262.59,-323.73C280,-300.61 315.55,-259.25 357.5,-243 439.97,-211.04 480.88,-197.13 556.5,-243 621.84,-282.63 649.46,-376.2 659.47,-422.74"/>
<polygon fill="#63b8ff" stroke="#63b8ff" points="655.98,-423.17 661.39,-432.27 662.84,-421.78 655.98,-423.17"/>
</a>
</g>
</g>
<!-- Node12 -->
<g id="Node000012" class="node">
<title>Node12</title>
<g id="a_Node000012"><a xlink:href="class_task_a_p_i_1_1_helpers_1_1_spot_helper.html#a89a665897ed47f9b7065ce771100b83c" target="_top" xlink:title="Determines whether synchronisation with the market is possible based on the current market status.">
<polygon fill="white" stroke="#666666" points="528.38,-334 385.62,-334 385.62,-302 528.38,-302 528.38,-334"/>
<text text-anchor="start" x="393.62" y="-320.5" font-family="Helvetica,sans-Serif" font-size="10.00">TaskAPI.Helpers.SpotHelper.</text>
<text text-anchor="middle" x="457" y="-308.5" font-family="Helvetica,sans-Serif" font-size="10.00">CanSync</text>
</a>
</g>
</g>
<!-- Node11&#45;&gt;Node12 -->
<g id="edge19_Node000011_Node000012" class="edge">
<title>Node11&#45;&gt;Node12</title>
<g id="a_edge19_Node000011_Node000012"><a xlink:title=" ">
<path fill="none" stroke="#63b8ff" d="M321.92,-332.4C338.71,-330.59 356.76,-328.66 374.01,-326.8"/>
<polygon fill="#63b8ff" stroke="#63b8ff" points="374.13,-330.31 383.7,-325.76 373.38,-323.35 374.13,-330.31"/>
</a>
</g>
</g>
<!-- Node13 -->
<g id="Node000013" class="node">
<title>Node13</title>
<g id="a_Node000013"><a xlink:href="class_task_a_p_i_1_1_services_1_1_forex_service.html#a45ca436cc529b87e410d8b208abea3b1" target="_top" xlink:title="Retrieves the latest Forex data from the configured feed.">
<polygon fill="white" stroke="#666666" points="534.38,-284 379.62,-284 379.62,-252 534.38,-252 534.38,-284"/>
<text text-anchor="start" x="387.62" y="-270.5" font-family="Helvetica,sans-Serif" font-size="10.00">TaskAPI.Services.ForexService.</text>
<text text-anchor="middle" x="457" y="-258.5" font-family="Helvetica,sans-Serif" font-size="10.00">PullFeed</text>
</a>
</g>
</g>
<!-- Node11&#45;&gt;Node13 -->
<g id="edge23_Node000011_Node000013" class="edge">
<title>Node11&#45;&gt;Node13</title>
<g id="a_edge23_Node000011_Node000013"><a xlink:title=" ">
<path fill="none" stroke="#63b8ff" d="M284.09,-323.72C304.81,-313.92 332.31,-301.69 357.5,-293 362.89,-291.14 368.48,-289.35 374.15,-287.65"/>
<polygon fill="#63b8ff" stroke="#63b8ff" points="375.01,-291.04 383.64,-284.9 373.06,-284.32 375.01,-291.04"/>
</a>
</g>
</g>
<!-- Node13&#45;&gt;Node3 -->
<g id="edge24_Node000013_Node000003" class="edge">
<title>Node13&#45;&gt;Node3</title>
<g id="a_edge24_Node000013_Node000003"><a xlink:title=" ">
<path fill="none" stroke="#63b8ff" d="M534.42,-277.86C542.68,-281.55 550.31,-286.47 556.5,-293 613.23,-352.84 563.29,-397.89 592.5,-475 606.07,-510.82 629.53,-548.32 645.94,-572.35"/>
<polygon fill="#63b8ff" stroke="#63b8ff" points="643.05,-574.33 651.63,-580.54 648.8,-570.33 643.05,-574.33"/>
</a>
</g>
</g>
<!-- Node13&#45;&gt;Node9 -->
<g id="edge25_Node000013_Node000009" class="edge">
<title>Node13&#45;&gt;Node9</title>
<g id="a_edge25_Node000013_Node000009"><a xlink:title=" ">
<path fill="none" stroke="#63b8ff" d="M534.66,-281.5C542.4,-284.58 549.84,-288.36 556.5,-293 604.24,-326.27 637.32,-387.98 653.33,-423.31"/>
<polygon fill="#63b8ff" stroke="#63b8ff" points="650.1,-424.65 657.32,-432.4 656.51,-421.84 650.1,-424.65"/>
</a>
</g>
</g>
<!-- Node14&#45;&gt;Node3 -->
<g id="edge32_Node000014_Node000003" class="edge">
<title>Node14&#45;&gt;Node3</title>
<g id="a_edge32_Node000014_Node000003"><a xlink:title=" ">
<path fill="none" stroke="#63b8ff" d="M309.8,-466.41C314.02,-468.89 317.99,-471.73 321.5,-475 350.64,-502.11 325.69,-533.07 357.5,-557 391.74,-582.76 502.33,-592.33 580.9,-595.89"/>
<polygon fill="#63b8ff" stroke="#63b8ff" points="580.6,-599.38 590.74,-596.31 580.9,-592.39 580.6,-599.38"/>
</a>
</g>
</g>
<!-- Node14&#45;&gt;Node6 -->
<g id="edge31_Node000014_Node000006" class="edge">
<title>Node14&#45;&gt;Node6</title>
<g id="a_edge31_Node000014_Node000006"><a xlink:title=" ">
<path fill="none" stroke="#63b8ff" d="M321.92,-434.8C338.33,-431.27 355.95,-427.49 372.84,-423.86"/>
<polygon fill="#63b8ff" stroke="#63b8ff" points="373.29,-427.34 382.33,-421.82 371.82,-420.5 373.29,-427.34"/>
</a>
</g>
</g>
<!-- Node14&#45;&gt;Node9 -->
<g id="edge33_Node000014_Node000009" class="edge">
<title>Node14&#45;&gt;Node9</title>
<g id="a_edge33_Node000014_Node000009"><a xlink:title=" ">
<path fill="none" stroke="#63b8ff" d="M321.7,-450C393.4,-450 504.45,-450 580.57,-450"/>
<polygon fill="#63b8ff" stroke="#63b8ff" points="580.5,-453.5 590.5,-450 580.5,-446.5 580.5,-453.5"/>
</a>
</g>
</g>
<!-- Node14&#45;&gt;Node12 -->
<g id="edge27_Node000014_Node000012" class="edge">
<title>Node14&#45;&gt;Node12</title>
<g id="a_edge27_Node000014_Node000012"><a xlink:title=" ">
<path fill="none" stroke="#63b8ff" d="M276.46,-433.5C297.99,-419.5 329.74,-398.88 357.5,-381 378.48,-367.49 402.01,-352.43 420.82,-340.42"/>
<polygon fill="#63b8ff" stroke="#63b8ff" points="422.64,-343.42 429.18,-335.09 418.87,-337.52 422.64,-343.42"/>
</a>
</g>
</g>
<!-- Node15 -->
<g id="Node000015" class="node">
<title>Node15</title>
<g id="a_Node000015"><a xlink:href="class_task_a_p_i_1_1_services_1_1_internal_a_p_i_service.html#aa614614518048e1244ae357de18425df" target="_top" xlink:title="Retrieves the price of a specified OANDA instrument in USD.">
<polygon fill="white" stroke="#666666" points="556.5,-548 357.5,-548 357.5,-516 556.5,-516 556.5,-548"/>
<text text-anchor="start" x="365.5" y="-534.5" font-family="Helvetica,sans-Serif" font-size="10.00">TaskAPI.Services.Internal</text>
<text text-anchor="middle" x="457" y="-522.5" font-family="Helvetica,sans-Serif" font-size="10.00">APIService.GetOandaInstrumentPriceUSD</text>
</a>
</g>
</g>
<!-- Node14&#45;&gt;Node15 -->
<g id="edge28_Node000014_Node000015" class="edge">
<title>Node14&#45;&gt;Node15</title>
<g id="a_edge28_Node000014_Node000015"><a xlink:title=" ">
<path fill="none" stroke="#63b8ff" d="M298.59,-466.43C306.28,-469.21 314.13,-472.13 321.5,-475 350.56,-486.31 382.72,-499.9 408.31,-510.97"/>
<polygon fill="#63b8ff" stroke="#63b8ff" points="406.89,-514.17 417.46,-514.95 409.68,-507.75 406.89,-514.17"/>
</a>
</g>
</g>
<!-- Node15&#45;&gt;Node3 -->
<g id="edge29_Node000015_Node000003" class="edge">
<title>Node15&#45;&gt;Node3</title>
<g id="a_edge29_Node000015_Node000003"><a xlink:title=" ">
<path fill="none" stroke="#63b8ff" d="M513.04,-548.48C527.23,-552.81 542.45,-557.52 556.5,-562 572.32,-567.05 589.38,-572.66 605.17,-577.93"/>
<polygon fill="#63b8ff" stroke="#63b8ff" points="603.84,-581.17 614.43,-581.03 606.06,-574.54 603.84,-581.17"/>
</a>
</g>
</g>
<!-- Node15&#45;&gt;Node9 -->
<g id="edge30_Node000015_Node000009" class="edge">
<title>Node15&#45;&gt;Node9</title>
<g id="a_edge30_Node000015_Node000009"><a xlink:title=" ">
<path fill="none" stroke="#63b8ff" d="M517.36,-515.53C530.39,-511.47 544.01,-506.88 556.5,-502 579.15,-493.15 603.63,-481.53 623.53,-471.52"/>
<polygon fill="#63b8ff" stroke="#63b8ff" points="625.11,-474.65 632.43,-466.99 621.93,-468.41 625.11,-474.65"/>
</a>
</g>
</g>
<!-- Node16&#45;&gt;Node3 -->
<g id="edge39_Node000016_Node000003" class="edge">
<title>Node16&#45;&gt;Node3</title>
<g id="a_edge39_Node000016_Node000003"><a xlink:title=" ">
<path fill="none" stroke="#63b8ff" d="M300.2,-221.52C366.84,-202.56 485.73,-181.36 556.5,-243 595.84,-277.27 575.03,-425.84 592.5,-475 605.38,-511.26 629.15,-548.87 645.82,-572.8"/>
<polygon fill="#63b8ff" stroke="#63b8ff" points="642.74,-574.51 651.38,-580.64 648.45,-570.46 642.74,-574.51"/>
</a>
</g>
</g>
<!-- Node16&#45;&gt;Node6 -->
<g id="edge38_Node000016_Node000006" class="edge">
<title>Node16&#45;&gt;Node6</title>
<g id="a_edge38_Node000016_Node000006"><a xlink:title=" ">
<path fill="none" stroke="#63b8ff" d="M265.68,-254.37C285.34,-276 322.02,-314.66 357.5,-343 376.19,-357.93 398.54,-372.46 417.22,-383.8"/>
<polygon fill="#63b8ff" stroke="#63b8ff" points="415.22,-386.68 425.6,-388.81 418.81,-380.67 415.22,-386.68"/>
</a>
</g>
</g>
<!-- Node16&#45;&gt;Node9 -->
<g id="edge40_Node000016_Node000009" class="edge">
<title>Node16&#45;&gt;Node9</title>
<g id="a_edge40_Node000016_Node000009"><a xlink:title=" ">
<path fill="none" stroke="#63b8ff" d="M269.92,-221.74C290.04,-205.52 323.64,-181.65 357.5,-172 442.56,-147.76 483.52,-122.04 556.5,-172 578.36,-186.97 634.24,-355.76 655.75,-422.8"/>
<polygon fill="#63b8ff" stroke="#63b8ff" points="652.4,-423.81 658.78,-432.27 659.07,-421.68 652.4,-423.81"/>
</a>
</g>
</g>
<!-- Node16&#45;&gt;Node12 -->
<g id="edge35_Node000016_Node000012" class="edge">
<title>Node16&#45;&gt;Node12</title>
<g id="a_edge35_Node000016_Node000012"><a xlink:title=" ">
<path fill="none" stroke="#63b8ff" d="M278.32,-254.27C299.35,-266.3 329.51,-282.37 357.5,-293 362.88,-295.04 368.48,-296.97 374.17,-298.78"/>
<polygon fill="#63b8ff" stroke="#63b8ff" points="373.14,-302.12 383.72,-301.67 375.17,-295.42 373.14,-302.12"/>
</a>
</g>
</g>
<!-- Node17 -->
<g id="Node000017" class="node">
<title>Node17</title>
<g id="a_Node000017"><a xlink:href="class_task_a_p_i_1_1_services_1_1_alchemy_service.html#a8db06c3be654656ef61b3177a0624787" target="_top" xlink:title="Retrieves the latest round data for a given smart contract address using the Alchemy API.">
<polygon fill="white" stroke="#666666" points="523.88,-120 390.12,-120 390.12,-88 523.88,-88 523.88,-120"/>
<text text-anchor="start" x="398.12" y="-106.5" font-family="Helvetica,sans-Serif" font-size="10.00">TaskAPI.Services.Alchemy</text>
<text text-anchor="middle" x="457" y="-94.5" font-family="Helvetica,sans-Serif" font-size="10.00">Service.LatestRoundData</text>
</a>
</g>
</g>
<!-- Node16&#45;&gt;Node17 -->
<g id="edge36_Node000016_Node000017" class="edge">
<title>Node16&#45;&gt;Node17</title>
<g id="a_edge36_Node000016_Node000017"><a xlink:title=" ">
<path fill="none" stroke="#63b8ff" d="M263.41,-221.83C281.57,-199.02 317.73,-157.57 357.5,-134 364.24,-130.01 371.56,-126.5 379.07,-123.43"/>
<polygon fill="#63b8ff" stroke="#63b8ff" points="380.23,-126.73 388.34,-119.92 377.75,-120.19 380.23,-126.73"/>
</a>
</g>
</g>
<!-- Node17&#45;&gt;Node9 -->
<g id="edge37_Node000017_Node000009" class="edge">
<title>Node17&#45;&gt;Node9</title>
<g id="a_edge37_Node000017_Node000009"><a xlink:title=" ">
<path fill="none" stroke="#63b8ff" d="M524.19,-114.72C536.07,-119.12 547.51,-125.3 556.5,-134 559.23,-136.64 629.89,-347.06 655.35,-423.03"/>
<polygon fill="#63b8ff" stroke="#63b8ff" points="651.92,-423.81 658.41,-432.18 658.55,-421.59 651.92,-423.81"/>
</a>
</g>
</g>
<!-- Node18&#45;&gt;Node3 -->
<g id="edge43_Node000018_Node000003" class="edge">
<title>Node18&#45;&gt;Node3</title>
<g id="a_edge43_Node000018_Node000003"><a xlink:title=" ">
<path fill="none" stroke="#63b8ff" d="M260.48,-604.28C280.88,-639.13 329.79,-718.96 357.5,-733 436.4,-772.97 476.8,-771.34 556.5,-733 603.14,-710.57 635.9,-657.07 652.32,-624.56"/>
<polygon fill="#63b8ff" stroke="#63b8ff" points="655.36,-626.3 656.59,-615.77 649.07,-623.23 655.36,-626.3"/>
</a>
</g>
</g>
<!-- Node18&#45;&gt;Node6 -->
<g id="edge42_Node000018_Node000006" class="edge">
<title>Node18&#45;&gt;Node6</title>
<g id="a_edge42_Node000018_Node000006"><a xlink:title=" ">
<path fill="none" stroke="#63b8ff" d="M269.67,-571.53C306.08,-539.18 387.06,-467.24 429.26,-429.75"/>
<polygon fill="#63b8ff" stroke="#63b8ff" points="431.36,-432.57 436.52,-423.31 426.71,-427.33 431.36,-432.57"/>
</a>
</g>
</g>
<!-- Node19&#45;&gt;Node3 -->
<g id="edge45_Node000019_Node000003" class="edge">
<title>Node19&#45;&gt;Node3</title>
<g id="a_edge45_Node000019_Node000003"><a xlink:title=" ">
<path fill="none" stroke="#63b8ff" d="M521,-692.34C533.08,-688.36 545.41,-683.59 556.5,-678 586.61,-662.82 617.12,-639.27 637.98,-621.64"/>
<polygon fill="#63b8ff" stroke="#63b8ff" points="640.12,-624.41 645.42,-615.24 635.56,-619.11 640.12,-624.41"/>
</a>
</g>
</g>
<!-- Node19&#45;&gt;Node9 -->
<g id="edge46_Node000019_Node000009" class="edge">
<title>Node19&#45;&gt;Node9</title>
<g id="a_edge46_Node000019_Node000009"><a xlink:title=" ">
<path fill="none" stroke="#63b8ff" d="M492.8,-691.75C513.34,-680.8 538.71,-664.77 556.5,-645 580.43,-618.4 575.47,-604.46 592.5,-573 610.94,-538.93 633.72,-500.51 648.63,-475.81"/>
<polygon fill="#63b8ff" stroke="#63b8ff" points="651.53,-477.78 653.72,-467.42 645.54,-474.16 651.53,-477.78"/>
</a>
</g>
</g>
</g>
</svg>
