<?xml version="1.0" encoding="UTF-8" standalone="no"?>
<!DOCTYPE svg PUBLIC "-//W3C//DTD SVG 1.1//EN"
 "http://www.w3.org/Graphics/SVG/1.1/DTD/svg11.dtd">
<!-- Generated by graphviz version 9.0.0 (20230911.1827)
 -->
<!-- Title: TaskAPI.Controllers.LogsController.TrimLogs Pages: 1 -->
<svg width="861pt" height="140pt"
 viewBox="0.00 0.00 861.25 140.00" xmlns="http://www.w3.org/2000/svg" xmlns:xlink="http://www.w3.org/1999/xlink">
<g id="graph0" class="graph" transform="scale(1 1) rotate(0) translate(4 136)">
<title>TaskAPI.Controllers.LogsController.TrimLogs</title>
<!-- Node1 -->
<g id="Node000001" class="node">
<title>Node1</title>
<g id="a_Node000001"><a xlink:title="Trims logs based on predefined criteria.">
<polygon fill="#999999" stroke="#666666" points="126.25,-82 0,-82 0,-50 126.25,-50 126.25,-82"/>
<text text-anchor="start" x="8" y="-68.5" font-family="Helvetica,sans-Serif" font-size="10.00">TaskAPI.Controllers.Logs</text>
<text text-anchor="middle" x="63.12" y="-56.5" font-family="Helvetica,sans-Serif" font-size="10.00">Controller.TrimLogs</text>
</a>
</g>
</g>
<!-- Node2 -->
<g id="Node000002" class="node">
<title>Node2</title>
<g id="a_Node000002"><a xlink:href="class_task_a_p_i_1_1_services_1_1_log_service.html#a5c2a67dbd8beb6f821c46b8d052d59ea" target="_top" xlink:title="Logs an informational message to the database.">
<polygon fill="white" stroke="#666666" points="489.75,-132 344,-132 344,-100 489.75,-100 489.75,-132"/>
<text text-anchor="start" x="352" y="-118.5" font-family="Helvetica,sans-Serif" font-size="10.00">TaskAPI.Services.LogService.</text>
<text text-anchor="middle" x="416.88" y="-106.5" font-family="Helvetica,sans-Serif" font-size="10.00">LogInformation</text>
</a>
</g>
</g>
<!-- Node1&#45;&gt;Node2 -->
<g id="edge1_Node000001_Node000002" class="edge">
<title>Node1&#45;&gt;Node2</title>
<g id="a_edge1_Node000001_Node000002"><a xlink:title=" ">
<path fill="none" stroke="#63b8ff" d="M122.7,-82.46C135.65,-85.67 149.35,-88.73 162.25,-91 218.55,-100.89 282.61,-107.16 332.27,-110.95"/>
<polygon fill="#63b8ff" stroke="#63b8ff" points="331.86,-114.43 342.09,-111.68 332.38,-107.45 331.86,-114.43"/>
</a>
</g>
</g>
<!-- Node5 -->
<g id="Node000005" class="node">
<title>Node5</title>
<g id="a_Node000005"><a xlink:href="class_task_a_p_i_1_1_services_1_1_internal_a_p_i_service.html#aeffeb1d3d59aeeab65dfe72691d21600" target="_top" xlink:title="Sends an email using Internal API&#39;s email endpoint.">
<polygon fill="white" stroke="#666666" points="298.62,-82 171.62,-82 171.62,-50 298.62,-50 298.62,-82"/>
<text text-anchor="start" x="179.62" y="-68.5" font-family="Helvetica,sans-Serif" font-size="10.00">TaskAPI.Services.Internal</text>
<text text-anchor="middle" x="235.12" y="-56.5" font-family="Helvetica,sans-Serif" font-size="10.00">APIService.SendEmail</text>
</a>
</g>
</g>
<!-- Node1&#45;&gt;Node5 -->
<g id="edge4_Node000001_Node000005" class="edge">
<title>Node1&#45;&gt;Node5</title>
<g id="a_edge4_Node000001_Node000005"><a xlink:title=" ">
<path fill="none" stroke="#63b8ff" d="M126.46,-66C137.29,-66 148.65,-66 159.77,-66"/>
<polygon fill="#63b8ff" stroke="#63b8ff" points="159.71,-69.5 169.71,-66 159.71,-62.5 159.71,-69.5"/>
</a>
</g>
</g>
<!-- Node8 -->
<g id="Node000008" class="node">
<title>Node8</title>
<g id="a_Node000008"><a xlink:href="class_task_a_p_i_1_1_services_1_1_log_service.html#a1b84e4b268d6eb8f21ee2569e562fceb" target="_top" xlink:title="Removes log entries older than the configured retention period.">
<polygon fill="white" stroke="#666666" points="308,-32 162.25,-32 162.25,0 308,0 308,-32"/>
<text text-anchor="start" x="170.25" y="-18.5" font-family="Helvetica,sans-Serif" font-size="10.00">TaskAPI.Services.LogService.</text>
<text text-anchor="middle" x="235.12" y="-6.5" font-family="Helvetica,sans-Serif" font-size="10.00">TrimLogs</text>
</a>
</g>
</g>
<!-- Node1&#45;&gt;Node8 -->
<g id="edge9_Node000001_Node000008" class="edge">
<title>Node1&#45;&gt;Node8</title>
<g id="a_edge9_Node000001_Node000008"><a xlink:title=" ">
<path fill="none" stroke="#63b8ff" d="M119.79,-49.63C134.97,-45.16 151.58,-40.28 167.32,-35.65"/>
<polygon fill="#63b8ff" stroke="#63b8ff" points="167.99,-39.1 176.59,-32.92 166.01,-32.39 167.99,-39.1"/>
</a>
</g>
</g>
<!-- Node3 -->
<g id="Node000003" class="node">
<title>Node3</title>
<g id="a_Node000003"><a xlink:href="class_task_a_p_i_1_1_services_1_1_log_service.html#a44f0fd9db1116257087ba59c836e22ea" target="_top" xlink:title="Directly inserts a log entry into the database.">
<polygon fill="white" stroke="#666666" points="671.5,-82 525.75,-82 525.75,-50 671.5,-50 671.5,-82"/>
<text text-anchor="start" x="533.75" y="-68.5" font-family="Helvetica,sans-Serif" font-size="10.00">TaskAPI.Services.LogService.</text>
<text text-anchor="middle" x="598.62" y="-56.5" font-family="Helvetica,sans-Serif" font-size="10.00">InsertLog</text>
</a>
</g>
</g>
<!-- Node2&#45;&gt;Node3 -->
<g id="edge2_Node000002_Node000003" class="edge">
<title>Node2&#45;&gt;Node3</title>
<g id="a_edge2_Node000002_Node000003"><a xlink:title=" ">
<path fill="none" stroke="#63b8ff" d="M476.73,-99.63C492.94,-95.12 510.69,-90.18 527.47,-85.52"/>
<polygon fill="#63b8ff" stroke="#63b8ff" points="528.17,-88.95 536.87,-82.9 526.3,-82.21 528.17,-88.95"/>
</a>
</g>
</g>
<!-- Node4 -->
<g id="Node000004" class="node">
<title>Node4</title>
<g id="a_Node000004"><a xlink:href="class_task_a_p_i_1_1_services_1_1_log_service.html#a20f6ab73ae5cc69273da4416da65f94d" target="_top" xlink:title="Writes a log entry to a local text file as a fallback or additional logging method.">
<polygon fill="white" stroke="#666666" points="853.25,-82 707.5,-82 707.5,-50 853.25,-50 853.25,-82"/>
<text text-anchor="start" x="715.5" y="-68.5" font-family="Helvetica,sans-Serif" font-size="10.00">TaskAPI.Services.LogService.</text>
<text text-anchor="middle" x="780.38" y="-56.5" font-family="Helvetica,sans-Serif" font-size="10.00">WriteLog</text>
</a>
</g>
</g>
<!-- Node3&#45;&gt;Node4 -->
<g id="edge3_Node000003_Node000004" class="edge">
<title>Node3&#45;&gt;Node4</title>
<g id="a_edge3_Node000003_Node000004"><a xlink:title=" ">
<path fill="none" stroke="#63b8ff" d="M671.96,-66C679.85,-66 687.93,-66 695.94,-66"/>
<polygon fill="#63b8ff" stroke="#63b8ff" points="695.68,-69.5 705.68,-66 695.68,-62.5 695.68,-69.5"/>
</a>
</g>
</g>
<!-- Node6 -->
<g id="Node000006" class="node">
<title>Node6</title>
<g id="a_Node000006"><a xlink:href="class_task_a_p_i_1_1_services_1_1_log_service.html#a46dc9bf58bc9605c7e17dfee38b94354" target="_top" xlink:title="Logs an error message to the database.">
<polygon fill="white" stroke="#666666" points="489.75,-82 344,-82 344,-50 489.75,-50 489.75,-82"/>
<text text-anchor="start" x="352" y="-68.5" font-family="Helvetica,sans-Serif" font-size="10.00">TaskAPI.Services.LogService.</text>
<text text-anchor="middle" x="416.88" y="-56.5" font-family="Helvetica,sans-Serif" font-size="10.00">LogError</text>
</a>
</g>
</g>
<!-- Node5&#45;&gt;Node6 -->
<g id="edge5_Node000005_Node000006" class="edge">
<title>Node5&#45;&gt;Node6</title>
<g id="a_edge5_Node000005_Node000006"><a xlink:title=" ">
<path fill="none" stroke="#63b8ff" d="M298.99,-66C309.66,-66 320.89,-66 332,-66"/>
<polygon fill="#63b8ff" stroke="#63b8ff" points="331.99,-69.5 341.99,-66 331.99,-62.5 331.99,-69.5"/>
</a>
</g>
</g>
<!-- Node7 -->
<g id="Node000007" class="node">
<title>Node7</title>
<g id="a_Node000007"><a xlink:href="class_task_a_p_i_1_1_services_1_1_log_service.html#a78c9df658858fa3099eed69421423898" target="_top" xlink:title="Logs an exception to the database.">
<polygon fill="white" stroke="#666666" points="489.75,-32 344,-32 344,0 489.75,0 489.75,-32"/>
<text text-anchor="start" x="352" y="-18.5" font-family="Helvetica,sans-Serif" font-size="10.00">TaskAPI.Services.LogService.</text>
<text text-anchor="middle" x="416.88" y="-6.5" font-family="Helvetica,sans-Serif" font-size="10.00">LogException</text>
</a>
</g>
</g>
<!-- Node5&#45;&gt;Node7 -->
<g id="edge7_Node000005_Node000007" class="edge">
<title>Node5&#45;&gt;Node7</title>
<g id="a_edge7_Node000005_Node000007"><a xlink:title=" ">
<path fill="none" stroke="#63b8ff" d="M294.98,-49.63C311.19,-45.12 328.94,-40.18 345.72,-35.52"/>
<polygon fill="#63b8ff" stroke="#63b8ff" points="346.42,-38.95 355.12,-32.9 344.55,-32.21 346.42,-38.95"/>
</a>
</g>
</g>
<!-- Node6&#45;&gt;Node3 -->
<g id="edge6_Node000006_Node000003" class="edge">
<title>Node6&#45;&gt;Node3</title>
<g id="a_edge6_Node000006_Node000003"><a xlink:title=" ">
<path fill="none" stroke="#63b8ff" d="M490.21,-66C498.1,-66 506.18,-66 514.19,-66"/>
<polygon fill="#63b8ff" stroke="#63b8ff" points="513.93,-69.5 523.93,-66 513.93,-62.5 513.93,-69.5"/>
</a>
</g>
</g>
<!-- Node7&#45;&gt;Node3 -->
<g id="edge8_Node000007_Node000003" class="edge">
<title>Node7&#45;&gt;Node3</title>
<g id="a_edge8_Node000007_Node000003"><a xlink:title=" ">
<path fill="none" stroke="#63b8ff" d="M476.73,-32.37C492.94,-36.88 510.69,-41.82 527.47,-46.48"/>
<polygon fill="#63b8ff" stroke="#63b8ff" points="526.3,-49.79 536.87,-49.1 528.17,-43.05 526.3,-49.79"/>
</a>
</g>
</g>
<!-- Node8&#45;&gt;Node7 -->
<g id="edge10_Node000008_Node000007" class="edge">
<title>Node8&#45;&gt;Node7</title>
<g id="a_edge10_Node000008_Node000007"><a xlink:title=" ">
<path fill="none" stroke="#63b8ff" d="M308.46,-16C316.35,-16 324.43,-16 332.44,-16"/>
<polygon fill="#63b8ff" stroke="#63b8ff" points="332.18,-19.5 342.18,-16 332.18,-12.5 332.18,-19.5"/>
</a>
</g>
</g>
</g>
</svg>
