<?xml version="1.0" encoding="UTF-8" standalone="no"?>
<!DOCTYPE svg PUBLIC "-//W3C//DTD SVG 1.1//EN"
 "http://www.w3.org/Graphics/SVG/1.1/DTD/svg11.dtd">
<!-- Generated by graphviz version 9.0.0 (20230911.1827)
 -->
<!-- Title: TaskAPI.Controllers.AinslieApiController.TrimLogs Pages: 1 -->
<svg width="873pt" height="140pt"
 viewBox="0.00 0.00 873.25 140.00" xmlns="http://www.w3.org/2000/svg" xmlns:xlink="http://www.w3.org/1999/xlink">
<g id="graph0" class="graph" transform="scale(1 1) rotate(0) translate(4 136)">
<title>TaskAPI.Controllers.AinslieApiController.TrimLogs</title>
<!-- Node1 -->
<g id="Node000001" class="node">
<title>Node1</title>
<g id="a_Node000001"><a xlink:title="Trims logs for Ainslie API based on predefined criteria.">
<polygon fill="#999999" stroke="#666666" points="134.5,-82 0,-82 0,-50 134.5,-50 134.5,-82"/>
<text text-anchor="start" x="8" y="-68.5" font-family="Helvetica,sans-Serif" font-size="10.00">TaskAPI.Controllers.Ainslie</text>
<text text-anchor="middle" x="67.25" y="-56.5" font-family="Helvetica,sans-Serif" font-size="10.00">ApiController.TrimLogs</text>
</a>
</g>
</g>
<!-- Node2 -->
<g id="Node000002" class="node">
<title>Node2</title>
<g id="a_Node000002"><a xlink:href="class_task_a_p_i_1_1_services_1_1_internal_a_p_i_service.html#a8a31c4c8d5371ef13d5ab0da08186829" target="_top" xlink:title="Initiates a log trimming operation for Ainslie API logs via Internal API.">
<polygon fill="white" stroke="#666666" points="320,-82 170.5,-82 170.5,-50 320,-50 320,-82"/>
<text text-anchor="start" x="178.5" y="-68.5" font-family="Helvetica,sans-Serif" font-size="10.00">TaskAPI.Services.Internal</text>
<text text-anchor="middle" x="245.25" y="-56.5" font-family="Helvetica,sans-Serif" font-size="10.00">APIService.AinslieApiTrimLogs</text>
</a>
</g>
</g>
<!-- Node1&#45;&gt;Node2 -->
<g id="edge1_Node000001_Node000002" class="edge">
<title>Node1&#45;&gt;Node2</title>
<g id="a_edge1_Node000001_Node000002"><a xlink:title=" ">
<path fill="none" stroke="#63b8ff" d="M134.79,-66C142.66,-66 150.78,-66 158.87,-66"/>
<polygon fill="#63b8ff" stroke="#63b8ff" points="158.74,-69.5 168.74,-66 158.74,-62.5 158.74,-69.5"/>
</a>
</g>
</g>
<!-- Node7 -->
<g id="Node000007" class="node">
<title>Node7</title>
<g id="a_Node000007"><a xlink:href="class_task_a_p_i_1_1_services_1_1_log_service.html#a5c2a67dbd8beb6f821c46b8d052d59ea" target="_top" xlink:title="Logs an informational message to the database.">
<polygon fill="white" stroke="#666666" points="501.75,-32 356,-32 356,0 501.75,0 501.75,-32"/>
<text text-anchor="start" x="364" y="-18.5" font-family="Helvetica,sans-Serif" font-size="10.00">TaskAPI.Services.LogService.</text>
<text text-anchor="middle" x="428.88" y="-6.5" font-family="Helvetica,sans-Serif" font-size="10.00">LogInformation</text>
</a>
</g>
</g>
<!-- Node1&#45;&gt;Node7 -->
<g id="edge7_Node000001_Node000007" class="edge">
<title>Node1&#45;&gt;Node7</title>
<g id="a_edge7_Node000001_Node000007"><a xlink:title=" ">
<path fill="none" stroke="#63b8ff" d="M129.32,-49.56C142.81,-46.35 157.08,-43.28 170.5,-41 228.21,-31.19 293.9,-24.89 344.47,-21.07"/>
<polygon fill="#63b8ff" stroke="#63b8ff" points="344.45,-24.58 354.17,-20.35 343.94,-17.6 344.45,-24.58"/>
</a>
</g>
</g>
<!-- Node8 -->
<g id="Node000008" class="node">
<title>Node8</title>
<g id="a_Node000008"><a xlink:href="class_task_a_p_i_1_1_services_1_1_internal_a_p_i_service.html#aeffeb1d3d59aeeab65dfe72691d21600" target="_top" xlink:title="Sends an email using Internal API&#39;s email endpoint.">
<polygon fill="white" stroke="#666666" points="308.75,-132 181.75,-132 181.75,-100 308.75,-100 308.75,-132"/>
<text text-anchor="start" x="189.75" y="-118.5" font-family="Helvetica,sans-Serif" font-size="10.00">TaskAPI.Services.Internal</text>
<text text-anchor="middle" x="245.25" y="-106.5" font-family="Helvetica,sans-Serif" font-size="10.00">APIService.SendEmail</text>
</a>
</g>
</g>
<!-- Node1&#45;&gt;Node8 -->
<g id="edge9_Node000001_Node000008" class="edge">
<title>Node1&#45;&gt;Node8</title>
<g id="a_edge9_Node000001_Node000008"><a xlink:title=" ">
<path fill="none" stroke="#63b8ff" d="M125.88,-82.37C141.75,-86.88 159.13,-91.82 175.56,-96.48"/>
<polygon fill="#63b8ff" stroke="#63b8ff" points="174.16,-99.73 184.73,-99.09 176.07,-92.99 174.16,-99.73"/>
</a>
</g>
</g>
<!-- Node3 -->
<g id="Node000003" class="node">
<title>Node3</title>
<g id="a_Node000003"><a xlink:href="class_task_a_p_i_1_1_services_1_1_log_service.html#a46dc9bf58bc9605c7e17dfee38b94354" target="_top" xlink:title="Logs an error message to the database.">
<polygon fill="white" stroke="#666666" points="501.75,-82 356,-82 356,-50 501.75,-50 501.75,-82"/>
<text text-anchor="start" x="364" y="-68.5" font-family="Helvetica,sans-Serif" font-size="10.00">TaskAPI.Services.LogService.</text>
<text text-anchor="middle" x="428.88" y="-56.5" font-family="Helvetica,sans-Serif" font-size="10.00">LogError</text>
</a>
</g>
</g>
<!-- Node2&#45;&gt;Node3 -->
<g id="edge2_Node000002_Node000003" class="edge">
<title>Node2&#45;&gt;Node3</title>
<g id="a_edge2_Node000002_Node000003"><a xlink:title=" ">
<path fill="none" stroke="#63b8ff" d="M320.39,-66C328.32,-66 336.43,-66 344.46,-66"/>
<polygon fill="#63b8ff" stroke="#63b8ff" points="344.22,-69.5 354.22,-66 344.22,-62.5 344.22,-69.5"/>
</a>
</g>
</g>
<!-- Node6 -->
<g id="Node000006" class="node">
<title>Node6</title>
<g id="a_Node000006"><a xlink:href="class_task_a_p_i_1_1_services_1_1_log_service.html#a78c9df658858fa3099eed69421423898" target="_top" xlink:title="Logs an exception to the database.">
<polygon fill="white" stroke="#666666" points="501.75,-132 356,-132 356,-100 501.75,-100 501.75,-132"/>
<text text-anchor="start" x="364" y="-118.5" font-family="Helvetica,sans-Serif" font-size="10.00">TaskAPI.Services.LogService.</text>
<text text-anchor="middle" x="428.88" y="-106.5" font-family="Helvetica,sans-Serif" font-size="10.00">LogException</text>
</a>
</g>
</g>
<!-- Node2&#45;&gt;Node6 -->
<g id="edge5_Node000002_Node000006" class="edge">
<title>Node2&#45;&gt;Node6</title>
<g id="a_edge5_Node000002_Node000006"><a xlink:title=" ">
<path fill="none" stroke="#63b8ff" d="M305.97,-82.44C322.34,-86.95 340.24,-91.88 357.16,-96.53"/>
<polygon fill="#63b8ff" stroke="#63b8ff" points="356.09,-99.87 366.66,-99.15 357.95,-93.12 356.09,-99.87"/>
</a>
</g>
</g>
<!-- Node4 -->
<g id="Node000004" class="node">
<title>Node4</title>
<g id="a_Node000004"><a xlink:href="class_task_a_p_i_1_1_services_1_1_log_service.html#a44f0fd9db1116257087ba59c836e22ea" target="_top" xlink:title="Directly inserts a log entry into the database.">
<polygon fill="white" stroke="#666666" points="683.5,-82 537.75,-82 537.75,-50 683.5,-50 683.5,-82"/>
<text text-anchor="start" x="545.75" y="-68.5" font-family="Helvetica,sans-Serif" font-size="10.00">TaskAPI.Services.LogService.</text>
<text text-anchor="middle" x="610.62" y="-56.5" font-family="Helvetica,sans-Serif" font-size="10.00">InsertLog</text>
</a>
</g>
</g>
<!-- Node3&#45;&gt;Node4 -->
<g id="edge3_Node000003_Node000004" class="edge">
<title>Node3&#45;&gt;Node4</title>
<g id="a_edge3_Node000003_Node000004"><a xlink:title=" ">
<path fill="none" stroke="#63b8ff" d="M502.21,-66C510.1,-66 518.18,-66 526.19,-66"/>
<polygon fill="#63b8ff" stroke="#63b8ff" points="525.93,-69.5 535.93,-66 525.93,-62.5 525.93,-69.5"/>
</a>
</g>
</g>
<!-- Node5 -->
<g id="Node000005" class="node">
<title>Node5</title>
<g id="a_Node000005"><a xlink:href="class_task_a_p_i_1_1_services_1_1_log_service.html#a20f6ab73ae5cc69273da4416da65f94d" target="_top" xlink:title="Writes a log entry to a local text file as a fallback or additional logging method.">
<polygon fill="white" stroke="#666666" points="865.25,-82 719.5,-82 719.5,-50 865.25,-50 865.25,-82"/>
<text text-anchor="start" x="727.5" y="-68.5" font-family="Helvetica,sans-Serif" font-size="10.00">TaskAPI.Services.LogService.</text>
<text text-anchor="middle" x="792.38" y="-56.5" font-family="Helvetica,sans-Serif" font-size="10.00">WriteLog</text>
</a>
</g>
</g>
<!-- Node4&#45;&gt;Node5 -->
<g id="edge4_Node000004_Node000005" class="edge">
<title>Node4&#45;&gt;Node5</title>
<g id="a_edge4_Node000004_Node000005"><a xlink:title=" ">
<path fill="none" stroke="#63b8ff" d="M683.96,-66C691.85,-66 699.93,-66 707.94,-66"/>
<polygon fill="#63b8ff" stroke="#63b8ff" points="707.68,-69.5 717.68,-66 707.68,-62.5 707.68,-69.5"/>
</a>
</g>
</g>
<!-- Node6&#45;&gt;Node4 -->
<g id="edge6_Node000006_Node000004" class="edge">
<title>Node6&#45;&gt;Node4</title>
<g id="a_edge6_Node000006_Node000004"><a xlink:title=" ">
<path fill="none" stroke="#63b8ff" d="M488.73,-99.63C504.94,-95.12 522.69,-90.18 539.47,-85.52"/>
<polygon fill="#63b8ff" stroke="#63b8ff" points="540.17,-88.95 548.87,-82.9 538.3,-82.21 540.17,-88.95"/>
</a>
</g>
</g>
<!-- Node7&#45;&gt;Node4 -->
<g id="edge8_Node000007_Node000004" class="edge">
<title>Node7&#45;&gt;Node4</title>
<g id="a_edge8_Node000007_Node000004"><a xlink:title=" ">
<path fill="none" stroke="#63b8ff" d="M488.73,-32.37C504.94,-36.88 522.69,-41.82 539.47,-46.48"/>
<polygon fill="#63b8ff" stroke="#63b8ff" points="538.3,-49.79 548.87,-49.1 540.17,-43.05 538.3,-49.79"/>
</a>
</g>
</g>
<!-- Node8&#45;&gt;Node3 -->
<g id="edge10_Node000008_Node000003" class="edge">
<title>Node8&#45;&gt;Node3</title>
<g id="a_edge10_Node000008_Node000003"><a xlink:title=" ">
<path fill="none" stroke="#63b8ff" d="M305.97,-99.56C322.34,-95.05 340.24,-90.12 357.16,-85.47"/>
<polygon fill="#63b8ff" stroke="#63b8ff" points="357.95,-88.88 366.66,-82.85 356.09,-82.13 357.95,-88.88"/>
</a>
</g>
</g>
<!-- Node8&#45;&gt;Node6 -->
<g id="edge11_Node000008_Node000006" class="edge">
<title>Node8&#45;&gt;Node6</title>
<g id="a_edge11_Node000008_Node000006"><a xlink:title=" ">
<path fill="none" stroke="#63b8ff" d="M309.01,-116C320.43,-116 332.51,-116 344.42,-116"/>
<polygon fill="#63b8ff" stroke="#63b8ff" points="344.24,-119.5 354.24,-116 344.24,-112.5 344.24,-119.5"/>
</a>
</g>
</g>
</g>
</svg>
