<?xml version="1.0" encoding="UTF-8" standalone="no"?>
<!DOCTYPE svg PUBLIC "-//W3C//DTD SVG 1.1//EN"
 "http://www.w3.org/Graphics/SVG/1.1/DTD/svg11.dtd">
<!-- Generated by graphviz version 9.0.0 (20230911.1827)
 -->
<!-- Title: TaskAPI.Helpers.Settings.TaskAPISettings.Polygonoraclesettings.ABI Pages: 1 -->
<svg width="208pt" height="136pt"
 viewBox="0.00 0.00 208.00 136.00" xmlns="http://www.w3.org/2000/svg" xmlns:xlink="http://www.w3.org/1999/xlink">
<g id="graph0" class="graph" transform="scale(1 1) rotate(0) translate(4 132)">
<title>TaskAPI.Helpers.Settings.TaskAPISettings.Polygonoraclesettings.ABI</title>
<!-- Node1 -->
<g id="Node000001" class="node">
<title>Node1</title>
<g id="a_Node000001"><a xlink:title=" ">
<polygon fill="#999999" stroke="none" points="200,-128 0,-128 0,0 200,0 200,-128"/>
<text text-anchor="start" x="4.75" y="-114.5" font-family="Helvetica,sans-Serif" font-size="10.00">TaskAPI.Helpers.Settings.</text>
<text text-anchor="start" x="4.75" y="-102.5" font-family="Helvetica,sans-Serif" font-size="10.00">TaskAPISettings.Polygonoraclesettings.ABI</text>
<text text-anchor="start" x="27" y="-86.5" font-family="Helvetica,sans-Serif" font-size="10.00">+</text>
<text text-anchor="start" x="60" y="-86.5" font-family="Helvetica,sans-Serif" font-size="10.00">Input[] inputs</text>
<text text-anchor="start" x="27" y="-70.5" font-family="Helvetica,sans-Serif" font-size="10.00">+</text>
<text text-anchor="start" x="60" y="-70.5" font-family="Helvetica,sans-Serif" font-size="10.00">string name</text>
<text text-anchor="start" x="27" y="-54.5" font-family="Helvetica,sans-Serif" font-size="10.00">+</text>
<text text-anchor="start" x="60" y="-54.5" font-family="Helvetica,sans-Serif" font-size="10.00">Output[] outputs</text>
<text text-anchor="start" x="27" y="-38.5" font-family="Helvetica,sans-Serif" font-size="10.00">+</text>
<text text-anchor="start" x="60" y="-38.5" font-family="Helvetica,sans-Serif" font-size="10.00">string stateMutability</text>
<text text-anchor="start" x="27" y="-22.5" font-family="Helvetica,sans-Serif" font-size="10.00">+</text>
<text text-anchor="start" x="60" y="-22.5" font-family="Helvetica,sans-Serif" font-size="10.00">string type</text>
<text text-anchor="start" x="98.5" y="-6.5" font-family="Helvetica,sans-Serif" font-size="10.00"> </text>
<polygon fill="#666666" stroke="#666666" points="0,-98 0,-98 200,-98 200,-98 0,-98"/>
<polygon fill="#666666" stroke="#666666" points="0,-18 0,-18 58,-18 58,-18 0,-18"/>
<polygon fill="#666666" stroke="#666666" points="58,-18 58,-18 200,-18 200,-18 58,-18"/>
<polygon fill="none" stroke="#666666" points="0,0 0,-128 200,-128 200,0 0,0"/>
</a>
</g>
</g>
</g>
</svg>
