<?xml version="1.0" encoding="UTF-8" standalone="no"?>
<!DOCTYPE svg PUBLIC "-//W3C//DTD SVG 1.1//EN"
 "http://www.w3.org/Graphics/SVG/1.1/DTD/svg11.dtd">
<!-- Generated by graphviz version 9.0.0 (20230911.1827)
 -->
<!-- Title: TaskAPI.Services.InternalAPIService.SendEmail Pages: 1 -->
<!--zoomable 440 -->

<svg id="main" version="1.1" xmlns="http://www.w3.org/2000/svg" xmlns:xlink="http://www.w3.org/1999/xlink" xml:space="preserve" onload="init(evt)">
<style type="text/css"><![CDATA[
.node, .edge {opacity: 0.7;}
.node.selected, .edge.selected {opacity: 1;}
.edge:hover path { stroke: red; }
.edge:hover polygon { stroke: red; fill: red; }
]]></style>

<defs>
  <circle id="rim" cx="0" cy="0" r="7"/>
  <circle id="rim2" cx="0" cy="0" r="3.5"/>
  <g id="zoomPlus">
    <use xlink:href="#rim" fill="#404040"><set attributeName="fill" to="#808080" begin="zoomplus.mouseover" end="zoomplus.mouseout"/></use>
    <path d="M-4,0h8M0,-4v8" fill="none" stroke="white" stroke-width="1.5" pointer-events="none"/>
  </g>
  <g id="zoomMin">
    <use xlink:href="#rim" fill="#404040"><set attributeName="fill" to="#808080" begin="zoomminus.mouseover" end="zoomminus.mouseout"/></use>
    <path d="M-4,0h8" fill="none" stroke="white" stroke-width="1.5" pointer-events="none"/>
  </g>
  <g id="arrowUp" transform="translate(30 24)">
    <use xlink:href="#rim"/>
    <path pointer-events="none" fill="none" stroke="white" stroke-width="1.5" d="M0,-3.0v7 M-2.5,-0.5L0,-3.0L2.5,-0.5"/>
  </g>
  <g id="arrowRight" transform="rotate(90) translate(36 -43)">
    <use xlink:href="#rim"/>
    <path pointer-events="none" fill="none" stroke="white" stroke-width="1.5" d="M0,-3.0v7 M-2.5,-0.5L0,-3.0L2.5,-0.5"/>
  </g>
  <g id="arrowDown" transform="rotate(180) translate(-30 -48)">
    <use xlink:href="#rim"/>
    <path pointer-events="none" fill="none" stroke="white" stroke-width="1.5" d="M0,-3.0v7 M-2.5,-0.5L0,-3.0L2.5,-0.5"/>
  </g>
  <g id="arrowLeft" transform="rotate(270) translate(-36 17)">
    <use xlink:href="#rim"/>
    <path pointer-events="none" fill="none" stroke="white" stroke-width="1.5" d="M0,-3.0v7 M-2.5,-0.5L0,-3.0L2.5,-0.5"/>
  </g>
  <g id="resetDef">
    <use xlink:href="#rim2" fill="#404040"><set attributeName="fill" to="#808080" begin="reset.mouseover" end="reset.mouseout"/></use>
  </g>
</defs>
<script type="application/ecmascript">
var viewWidth = 668;
var viewHeight = 440;
var sectionId = 'dynsection-19';
</script>
<script type="application/ecmascript" xlink:href="svg.min.js"/>
<svg id="graph" class="graph">
<g id="viewport">
<title>TaskAPI.Services.InternalAPIService.SendEmail</title>
<!-- Node1 -->
<g id="Node000001" class="node">
<title>Node1</title>
<g id="a_Node000001"><a xlink:title="Sends an email using Internal API&#39;s email endpoint.">
<polygon fill="#999999" stroke="#666666" points="660.25,-232 533.25,-232 533.25,-200 660.25,-200 660.25,-232"/>
<text text-anchor="start" x="541.25" y="-218.5" font-family="Helvetica,sans-Serif" font-size="10.00">TaskAPI.Services.Internal</text>
<text text-anchor="middle" x="596.75" y="-206.5" font-family="Helvetica,sans-Serif" font-size="10.00">APIService.SendEmail</text>
</a>
</g>
</g>
<!-- Node2 -->
<g id="Node000002" class="node">
<title>Node2</title>
<g id="a_Node000002"><a xlink:href="class_task_a_p_i_1_1_helpers_1_1_spot_helper.html#a7b75f44b3310036d4de7f0f2956bbac1" target="_top" xlink:title="Pulls, saves, and trims spot data from various sources.">
<polygon fill="white" stroke="#666666" points="496.88,-432 354.12,-432 354.12,-400 496.88,-400 496.88,-432"/>
<text text-anchor="start" x="362.12" y="-418.5" font-family="Helvetica,sans-Serif" font-size="10.00">TaskAPI.Helpers.SpotHelper.</text>
<text text-anchor="middle" x="425.5" y="-406.5" font-family="Helvetica,sans-Serif" font-size="10.00">PullSaveTrim</text>
</a>
</g>
</g>
<!-- Node1&#45;&gt;Node2 -->
<g id="edge1_Node000001_Node000002" class="edge">
<title>Node1&#45;&gt;Node2</title>
<g id="a_edge1_Node000001_Node000002"><a xlink:title=" ">
<path fill="none" stroke="#63b8ff" d="M587.34,-243.09C574.14,-281.3 545.02,-350.85 497.25,-391 493.36,-394.27 489.01,-397.12 484.44,-399.61"/>
<polygon fill="#63b8ff" stroke="#63b8ff" points="590.62,-244.33 590.45,-233.73 583.97,-242.12 590.62,-244.33"/>
</a>
</g>
</g>
<!-- Node4 -->
<g id="Node000004" class="node">
<title>Node4</title>
<g id="a_Node000004"><a xlink:href="class_task_a_p_i_1_1_controllers_1_1_spot_controller.html#ac5b396e3a46352bf5dbe21701876f35c" target="_top" xlink:title="Saves daily spot data.">
<polygon fill="white" stroke="#666666" points="488.25,-382 362.75,-382 362.75,-350 488.25,-350 488.25,-382"/>
<text text-anchor="start" x="370.75" y="-368.5" font-family="Helvetica,sans-Serif" font-size="10.00">TaskAPI.Controllers.Spot</text>
<text text-anchor="middle" x="425.5" y="-356.5" font-family="Helvetica,sans-Serif" font-size="10.00">Controller.SaveDaily</text>
</a>
</g>
</g>
<!-- Node1&#45;&gt;Node4 -->
<g id="edge3_Node000001_Node000004" class="edge">
<title>Node1&#45;&gt;Node4</title>
<g id="a_edge3_Node000001_Node000004"><a xlink:title=" ">
<path fill="none" stroke="#63b8ff" d="M581.29,-242.13C564.49,-270.24 534.3,-314.47 497.25,-341 492.7,-344.26 487.68,-347.13 482.47,-349.65"/>
<polygon fill="#63b8ff" stroke="#63b8ff" points="584.29,-243.93 586.29,-233.52 578.24,-240.41 584.29,-243.93"/>
</a>
</g>
</g>
<!-- Node5 -->
<g id="Node000005" class="node">
<title>Node5</title>
<g id="a_Node000005"><a xlink:href="class_task_a_p_i_1_1_controllers_1_1_priceapp_controller.html#a7a554328bc2c9f53d7791b214121982f" target="_top" xlink:title="Saves the Priceapp pricesheet as a PDF.">
<polygon fill="white" stroke="#666666" points="497.25,-332 353.75,-332 353.75,-300 497.25,-300 497.25,-332"/>
<text text-anchor="start" x="361.75" y="-318.5" font-family="Helvetica,sans-Serif" font-size="10.00">TaskAPI.Controllers.Priceapp</text>
<text text-anchor="middle" x="425.5" y="-306.5" font-family="Helvetica,sans-Serif" font-size="10.00">Controller.SavePricesheet</text>
</a>
</g>
</g>
<!-- Node1&#45;&gt;Node5 -->
<g id="edge4_Node000001_Node000005" class="edge">
<title>Node1&#45;&gt;Node5</title>
<g id="a_edge4_Node000001_Node000005"><a xlink:title=" ">
<path fill="none" stroke="#63b8ff" d="M569.39,-239.7C550.4,-255.85 523.58,-276.78 497.25,-291 491.52,-294.1 485.33,-296.94 479.07,-299.5"/>
<polygon fill="#63b8ff" stroke="#63b8ff" points="571.63,-242.4 576.91,-233.21 567.06,-237.1 571.63,-242.4"/>
</a>
</g>
</g>
<!-- Node6 -->
<g id="Node000006" class="node">
<title>Node6</title>
<g id="a_Node000006"><a xlink:href="class_task_a_p_i_1_1_helpers_1_1_alert_helper.html#a5e60f4242d52c0642c789ff7ca332e51" target="_top" xlink:title="Sends alerts based on the provided list of alerts, API source, and configuration.">
<polygon fill="white" stroke="#666666" points="496.88,-282 354.12,-282 354.12,-250 496.88,-250 496.88,-282"/>
<text text-anchor="start" x="362.12" y="-268.5" font-family="Helvetica,sans-Serif" font-size="10.00">TaskAPI.Helpers.AlertHelper.</text>
<text text-anchor="middle" x="425.5" y="-256.5" font-family="Helvetica,sans-Serif" font-size="10.00">SendAlerts</text>
</a>
</g>
</g>
<!-- Node1&#45;&gt;Node6 -->
<g id="edge5_Node000001_Node000006" class="edge">
<title>Node1&#45;&gt;Node6</title>
<g id="a_edge5_Node000001_Node000006"><a xlink:title=" ">
<path fill="none" stroke="#63b8ff" d="M529.67,-235.52C514.02,-240.15 497.48,-245.03 482.33,-249.51"/>
<polygon fill="#63b8ff" stroke="#63b8ff" points="530.28,-238.99 538.88,-232.8 528.3,-232.28 530.28,-238.99"/>
</a>
</g>
</g>
<!-- Node9 -->
<g id="Node000009" class="node">
<title>Node9</title>
<g id="a_Node000009"><a xlink:href="class_task_a_p_i_1_1_controllers_1_1_ab_web_controller.html#a788bdc1e575ec2e04d9d2a767c68e287" target="_top" xlink:title="Trims logs for AbWeb based on predefined criteria.">
<polygon fill="white" stroke="#666666" points="494.25,-232 356.75,-232 356.75,-200 494.25,-200 494.25,-232"/>
<text text-anchor="start" x="364.75" y="-218.5" font-family="Helvetica,sans-Serif" font-size="10.00">TaskAPI.Controllers.AbWeb</text>
<text text-anchor="middle" x="425.5" y="-206.5" font-family="Helvetica,sans-Serif" font-size="10.00">Controller.TrimLogs</text>
</a>
</g>
</g>
<!-- Node1&#45;&gt;Node9 -->
<g id="edge8_Node000001_Node000009" class="edge">
<title>Node1&#45;&gt;Node9</title>
<g id="a_edge8_Node000001_Node000009"><a xlink:title=" ">
<path fill="none" stroke="#63b8ff" d="M521.82,-216C512.73,-216 503.47,-216 494.47,-216"/>
<polygon fill="#63b8ff" stroke="#63b8ff" points="521.69,-219.5 531.69,-216 521.69,-212.5 521.69,-219.5"/>
</a>
</g>
</g>
<!-- Node10 -->
<g id="Node000010" class="node">
<title>Node10</title>
<g id="a_Node000010"><a xlink:href="class_task_a_p_i_1_1_controllers_1_1_ainslie_api_controller.html#a6b53c8ff5898ee660ce3eec1d8e9d13e" target="_top" xlink:title="Trims logs for Ainslie API based on predefined criteria.">
<polygon fill="white" stroke="#666666" points="492.75,-182 358.25,-182 358.25,-150 492.75,-150 492.75,-182"/>
<text text-anchor="start" x="366.25" y="-168.5" font-family="Helvetica,sans-Serif" font-size="10.00">TaskAPI.Controllers.Ainslie</text>
<text text-anchor="middle" x="425.5" y="-156.5" font-family="Helvetica,sans-Serif" font-size="10.00">ApiController.TrimLogs</text>
</a>
</g>
</g>
<!-- Node1&#45;&gt;Node10 -->
<g id="edge9_Node000001_Node000010" class="edge">
<title>Node1&#45;&gt;Node10</title>
<g id="a_edge9_Node000001_Node000010"><a xlink:title=" ">
<path fill="none" stroke="#63b8ff" d="M529.67,-196.48C514.02,-191.85 497.48,-186.97 482.33,-182.49"/>
<polygon fill="#63b8ff" stroke="#63b8ff" points="528.3,-199.72 538.88,-199.2 530.28,-193.01 528.3,-199.72"/>
</a>
</g>
</g>
<!-- Node11 -->
<g id="Node000011" class="node">
<title>Node11</title>
<g id="a_Node000011"><a xlink:href="class_task_a_p_i_1_1_controllers_1_1_internal_a_p_i_controller.html#ad77c1d71a0a8ba5393ee56bff0b81df1" target="_top" xlink:title="Trims logs for Internal API based on predefined criteria.">
<polygon fill="white" stroke="#666666" points="493.88,-132 357.12,-132 357.12,-100 493.88,-100 493.88,-132"/>
<text text-anchor="start" x="365.12" y="-118.5" font-family="Helvetica,sans-Serif" font-size="10.00">TaskAPI.Controllers.Internal</text>
<text text-anchor="middle" x="425.5" y="-106.5" font-family="Helvetica,sans-Serif" font-size="10.00">APIController.TrimLogs</text>
</a>
</g>
</g>
<!-- Node1&#45;&gt;Node11 -->
<g id="edge10_Node000001_Node000011" class="edge">
<title>Node1&#45;&gt;Node11</title>
<g id="a_edge10_Node000001_Node000011"><a xlink:title=" ">
<path fill="none" stroke="#63b8ff" d="M569.39,-192.3C550.4,-176.15 523.58,-155.22 497.25,-141 491.52,-137.9 485.33,-135.06 479.07,-132.5"/>
<polygon fill="#63b8ff" stroke="#63b8ff" points="567.06,-194.9 576.91,-198.79 571.63,-189.6 567.06,-194.9"/>
</a>
</g>
</g>
<!-- Node12 -->
<g id="Node000012" class="node">
<title>Node12</title>
<g id="a_Node000012"><a xlink:href="class_task_a_p_i_1_1_controllers_1_1_logs_controller.html#af8b7f41074892eb4a70a447d64a055c6" target="_top" xlink:title="Trims logs based on predefined criteria.">
<polygon fill="white" stroke="#666666" points="488.62,-82 362.38,-82 362.38,-50 488.62,-50 488.62,-82"/>
<text text-anchor="start" x="370.38" y="-68.5" font-family="Helvetica,sans-Serif" font-size="10.00">TaskAPI.Controllers.Logs</text>
<text text-anchor="middle" x="425.5" y="-56.5" font-family="Helvetica,sans-Serif" font-size="10.00">Controller.TrimLogs</text>
</a>
</g>
</g>
<!-- Node1&#45;&gt;Node12 -->
<g id="edge11_Node000001_Node000012" class="edge">
<title>Node1&#45;&gt;Node12</title>
<g id="a_edge11_Node000001_Node000012"><a xlink:title=" ">
<path fill="none" stroke="#63b8ff" d="M581.29,-189.87C564.49,-161.76 534.3,-117.53 497.25,-91 492.7,-87.74 487.68,-84.87 482.47,-82.35"/>
<polygon fill="#63b8ff" stroke="#63b8ff" points="578.24,-191.59 586.29,-198.48 584.29,-188.07 578.24,-191.59"/>
</a>
</g>
</g>
<!-- Node13 -->
<g id="Node000013" class="node">
<title>Node13</title>
<g id="a_Node000013"><a xlink:href="class_task_a_p_i_1_1_controllers_1_1_priceapp_controller.html#a25e45ae0b01fc8e2c7aa8ec7e30d59a9" target="_top" xlink:title="Trims logs for Priceapp based on predefined criteria.">
<polygon fill="white" stroke="#666666" points="497.25,-32 353.75,-32 353.75,0 497.25,0 497.25,-32"/>
<text text-anchor="start" x="361.75" y="-18.5" font-family="Helvetica,sans-Serif" font-size="10.00">TaskAPI.Controllers.Priceapp</text>
<text text-anchor="middle" x="425.5" y="-6.5" font-family="Helvetica,sans-Serif" font-size="10.00">Controller.TrimLogs</text>
</a>
</g>
</g>
<!-- Node1&#45;&gt;Node13 -->
<g id="edge12_Node000001_Node000013" class="edge">
<title>Node1&#45;&gt;Node13</title>
<g id="a_edge12_Node000001_Node000013"><a xlink:title=" ">
<path fill="none" stroke="#63b8ff" d="M587.34,-188.91C574.14,-150.7 545.02,-81.15 497.25,-41 493.36,-37.73 489.01,-34.88 484.44,-32.39"/>
<polygon fill="#63b8ff" stroke="#63b8ff" points="583.97,-189.88 590.45,-198.27 590.62,-187.67 583.97,-189.88"/>
</a>
</g>
</g>
<!-- Node3 -->
<g id="Node000003" class="node">
<title>Node3</title>
<g id="a_Node000003"><a xlink:href="class_task_a_p_i_1_1_controllers_1_1_spot_controller.html#adc5d733d4c39f2ecdaad8d8bf2231731" target="_top" xlink:title="Initiates synchronisation of spot data.">
<polygon fill="white" stroke="#666666" points="309.12,-432 183.62,-432 183.62,-400 309.12,-400 309.12,-432"/>
<text text-anchor="start" x="191.62" y="-418.5" font-family="Helvetica,sans-Serif" font-size="10.00">TaskAPI.Controllers.Spot</text>
<text text-anchor="middle" x="246.38" y="-406.5" font-family="Helvetica,sans-Serif" font-size="10.00">Controller.Sync</text>
</a>
</g>
</g>
<!-- Node2&#45;&gt;Node3 -->
<g id="edge2_Node000002_Node000003" class="edge">
<title>Node2&#45;&gt;Node3</title>
<g id="a_edge2_Node000002_Node000003"><a xlink:title=" ">
<path fill="none" stroke="#63b8ff" d="M342.3,-416C331.25,-416 320.07,-416 309.45,-416"/>
<polygon fill="#63b8ff" stroke="#63b8ff" points="342.22,-419.5 352.22,-416 342.22,-412.5 342.22,-419.5"/>
</a>
</g>
</g>
<!-- Node7 -->
<g id="Node000007" class="node">
<title>Node7</title>
<g id="a_Node000007"><a xlink:href="class_task_a_p_i_1_1_helpers_1_1_alert_helper.html#acddc980d442b4344a8d9df5ba056276a" target="_top" xlink:title="Processes a single API source for alert generation.">
<polygon fill="white" stroke="#666666" points="317.75,-282 175,-282 175,-250 317.75,-250 317.75,-282"/>
<text text-anchor="start" x="183" y="-268.5" font-family="Helvetica,sans-Serif" font-size="10.00">TaskAPI.Helpers.AlertHelper.</text>
<text text-anchor="middle" x="246.38" y="-256.5" font-family="Helvetica,sans-Serif" font-size="10.00">ProcessApiSource</text>
</a>
</g>
</g>
<!-- Node6&#45;&gt;Node7 -->
<g id="edge6_Node000006_Node000007" class="edge">
<title>Node6&#45;&gt;Node7</title>
<g id="a_edge6_Node000006_Node000007"><a xlink:title=" ">
<path fill="none" stroke="#63b8ff" d="M342.33,-266C334.21,-266 326.02,-266 318.03,-266"/>
<polygon fill="#63b8ff" stroke="#63b8ff" points="342.22,-269.5 352.22,-266 342.22,-262.5 342.22,-269.5"/>
</a>
</g>
</g>
<!-- Node8 -->
<g id="Node000008" class="node">
<title>Node8</title>
<g id="a_Node000008"><a xlink:href="class_task_a_p_i_1_1_controllers_1_1_logs_controller.html#aa1bbb95b5f70e8d5a457fdca962479e3" target="_top" xlink:title="Checks for alerts across all configured api sources.">
<polygon fill="white" stroke="#666666" points="139,-282 0,-282 0,-250 139,-250 139,-282"/>
<text text-anchor="start" x="8" y="-268.5" font-family="Helvetica,sans-Serif" font-size="10.00">TaskAPI.Controllers.Logs</text>
<text text-anchor="middle" x="69.5" y="-256.5" font-family="Helvetica,sans-Serif" font-size="10.00">Controller.CheckForAllAlerts</text>
</a>
</g>
</g>
<!-- Node7&#45;&gt;Node8 -->
<g id="edge7_Node000007_Node000008" class="edge">
<title>Node7&#45;&gt;Node8</title>
<g id="a_edge7_Node000007_Node000008"><a xlink:title=" ">
<path fill="none" stroke="#63b8ff" d="M163.45,-266C155.4,-266 147.3,-266 139.4,-266"/>
<polygon fill="#63b8ff" stroke="#63b8ff" points="163.24,-269.5 173.24,-266 163.24,-262.5 163.24,-269.5"/>
</a>
</g>
</g>
</g>
</svg>

<g id="navigator" transform="translate(0 0)" fill="#404254">
  <rect fill="#f2f5e9" fill-opacity="0.5" stroke="#606060" stroke-width=".5" x="0" y="0" width="60" height="60"/>
  <use id="zoomplus" xlink:href="#zoomPlus" x="17" y="9" onmousedown="handleZoom(evt,'in')"/>
  <use id="zoomminus" xlink:href="#zoomMin" x="42" y="9" onmousedown="handleZoom(evt,'out')"/>
  <use id="reset" xlink:href="#resetDef" x="30" y="36" onmousedown="handleReset()"/>
   <use id="arrowup" xlink:href="#arrowUp" x="0" y="0" onmousedown="handlePan(0,-1)"/>
  <use id="arrowright" xlink:href="#arrowRight" x="0" y="0" onmousedown="handlePan(1,0)"/>
  <use id="arrowdown" xlink:href="#arrowDown" x="0" y="0" onmousedown="handlePan(0,1)"/>
  <use id="arrowleft" xlink:href="#arrowLeft" x="0" y="0" onmousedown="handlePan(-1,0)"/>
</g>
<svg viewBox="0 0 15 15" width="100%" height="30px" preserveAspectRatio="xMaxYMin meet">
 <g id="arrow_out" transform="scale(0.3 0.3)">
  <a xlink:href="class_task_a_p_i_1_1_services_1_1_internal_a_p_i_service_aeffeb1d3d59aeeab65dfe72691d21600_icgraph_org.svg" target="_base">
   <rect id="button" ry="5" rx="5" y="6" x="6" height="38" width="38"
        fill="#f2f5e9" fill-opacity="0.5" stroke="#606060" stroke-width="1.0"/>
   <path id="arrow"
     d="M 11.500037,31.436501 C 11.940474,20.09759 22.043105,11.32322 32.158766,21.979434 L 37.068811,17.246167 C 37.068811,17.246167 37.088388,32 37.088388,32 L 22.160133,31.978069 C 22.160133,31.978069 26.997745,27.140456 26.997745,27.140456 C 18.528582,18.264221 13.291696,25.230495 11.500037,31.436501 z"
     style="fill:#404040;"/>
  </a>
 </g>
</svg>

<style type='text/css'>
<![CDATA[
[data-mouse-over-selected='false'] { opacity: 0.7; }
[data-mouse-over-selected='true']  { opacity: 1.0; }
]]>
</style>
<script type="application/ecmascript"><![CDATA[
document.addEventListener('DOMContentLoaded', (event) => {
  highlightEdges();
  highlightAdjacentNodes();
});
]]></script>
</svg>
