<?xml version="1.0" encoding="UTF-8" standalone="no"?>
<!DOCTYPE svg PUBLIC "-//W3C//DTD SVG 1.1//EN"
 "http://www.w3.org/Graphics/SVG/1.1/DTD/svg11.dtd">
<!-- Generated by graphviz version 9.0.0 (20230911.1827)
 -->
<!-- Title: TaskAPI.Helpers.SpotHelper Pages: 1 -->
<svg width="1082pt" height="352pt"
 viewBox="0.00 0.00 1082.25 352.24" xmlns="http://www.w3.org/2000/svg" xmlns:xlink="http://www.w3.org/1999/xlink">
<g id="graph0" class="graph" transform="scale(1 1) rotate(0) translate(4 348.24)">
<title>TaskAPI.Helpers.SpotHelper</title>
<!-- Node1 -->
<g id="Node000001" class="node">
<title>Node1</title>
<g id="a_Node000001"><a xlink:title="Helper class for managing operations related to spot prices.">
<polygon fill="#999999" stroke="#666666" points="1074.25,-190.24 934.5,-190.24 934.5,-170.24 1074.25,-170.24 1074.25,-190.24"/>
<text text-anchor="middle" x="1004.38" y="-176.74" font-family="Helvetica,sans-Serif" font-size="10.00">TaskAPI.Helpers.SpotHelper</text>
</a>
</g>
</g>
<!-- Node2 -->
<g id="Node000002" class="node">
<title>Node2</title>
<g id="a_Node000002"><a xlink:href="class_task_a_p_i_1_1_services_1_1_log_service.html" target="_top" xlink:title="Provides logging services for various levels of application events, including debug,...">
<polygon fill="white" stroke="#666666" points="581.75,-294.24 439,-294.24 439,-274.24 581.75,-274.24 581.75,-294.24"/>
<text text-anchor="middle" x="510.38" y="-280.74" font-family="Helvetica,sans-Serif" font-size="10.00">TaskAPI.Services.LogService</text>
</a>
</g>
</g>
<!-- Node2&#45;&gt;Node1 -->
<g id="edge1_Node000001_Node000002" class="edge">
<title>Node2&#45;&gt;Node1</title>
<g id="a_edge1_Node000001_Node000002"><a xlink:title=" ">
<path fill="none" stroke="#9a32cd" stroke-dasharray="5,2" d="M546.87,-298.61C562.78,-304.45 581.94,-310.65 599.75,-314.24 696.6,-333.77 725.72,-341.43 822,-319.24 867.52,-308.75 878.93,-300.99 916.5,-273.24 950.27,-248.3 981.77,-209.15 995.76,-190.62"/>
<polygon fill="#9a32cd" stroke="#9a32cd" points="548.43,-295.46 537.84,-295.2 545.96,-302.01 548.43,-295.46"/>
</a>
</g>
<text text-anchor="middle" x="746.12" y="-334.74" font-family="Helvetica,sans-Serif" font-size="10.00" fill="grey"> _logService</text>
</g>
<!-- Node6 -->
<g id="Node000006" class="node">
<title>Node6</title>
<g id="a_Node000006"><a xlink:href="class_task_a_p_i_1_1_services_1_1_forex_service.html" target="_top" xlink:title="Provides methods for interacting with a Forex data feed.">
<polygon fill="white" stroke="#666666" points="822,-146.24 670.25,-146.24 670.25,-126.24 822,-126.24 822,-146.24"/>
<text text-anchor="middle" x="746.12" y="-132.74" font-family="Helvetica,sans-Serif" font-size="10.00">TaskAPI.Services.ForexService</text>
</a>
</g>
</g>
<!-- Node2&#45;&gt;Node6 -->
<g id="edge6_Node000006_Node000002" class="edge">
<title>Node2&#45;&gt;Node6</title>
<g id="a_edge6_Node000006_Node000002"><a xlink:title=" ">
<path fill="none" stroke="#9a32cd" stroke-dasharray="5,2" d="M539.54,-267.66C553.46,-258.49 569.79,-246.14 581.75,-232.24 592.9,-219.28 588.03,-210.69 599.75,-198.24 624.9,-171.51 636.42,-169.47 670.25,-155.24 678.16,-151.91 686.8,-149.06 695.3,-146.66"/>
<polygon fill="#9a32cd" stroke="#9a32cd" points="537.78,-264.64 531.21,-272.95 541.53,-270.55 537.78,-264.64"/>
</a>
</g>
<text text-anchor="middle" x="626" y="-200.74" font-family="Helvetica,sans-Serif" font-size="10.00" fill="grey"> _logService</text>
</g>
<!-- Node7 -->
<g id="Node000007" class="node">
<title>Node7</title>
<g id="a_Node000007"><a xlink:href="class_task_a_p_i_1_1_services_1_1_alchemy_service.html" target="_top" xlink:title="Provides functionality to interact with the Alchemy API for blockchain data retrieval.">
<polygon fill="white" stroke="#666666" points="813,-246.24 679.25,-246.24 679.25,-214.24 813,-214.24 813,-246.24"/>
<text text-anchor="start" x="687.25" y="-232.74" font-family="Helvetica,sans-Serif" font-size="10.00">TaskAPI.Services.Alchemy</text>
<text text-anchor="middle" x="746.12" y="-220.74" font-family="Helvetica,sans-Serif" font-size="10.00">Service</text>
</a>
</g>
</g>
<!-- Node2&#45;&gt;Node7 -->
<g id="edge9_Node000007_Node000002" class="edge">
<title>Node2&#45;&gt;Node7</title>
<g id="a_edge9_Node000007_Node000002"><a xlink:title=" ">
<path fill="none" stroke="#9a32cd" stroke-dasharray="5,2" d="M593.38,-273.94C612.81,-270.81 633.37,-266.93 652.25,-262.24 668.97,-258.09 686.95,-252.23 702.6,-246.66"/>
<polygon fill="#9a32cd" stroke="#9a32cd" points="592.93,-270.47 583.58,-275.46 594,-277.38 592.93,-270.47"/>
</a>
</g>
<text text-anchor="middle" x="626" y="-274.74" font-family="Helvetica,sans-Serif" font-size="10.00" fill="grey"> _logService</text>
</g>
<!-- Node8 -->
<g id="Node000008" class="node">
<title>Node8</title>
<g id="a_Node000008"><a xlink:href="class_task_a_p_i_1_1_services_1_1_binance_service.html" target="_top" xlink:title="Provides access to Binance cryptocurrency data.">
<polygon fill="white" stroke="#666666" points="811.5,-196.24 680.75,-196.24 680.75,-164.24 811.5,-164.24 811.5,-196.24"/>
<text text-anchor="start" x="688.75" y="-182.74" font-family="Helvetica,sans-Serif" font-size="10.00">TaskAPI.Services.Binance</text>
<text text-anchor="middle" x="746.12" y="-170.74" font-family="Helvetica,sans-Serif" font-size="10.00">Service</text>
</a>
</g>
</g>
<!-- Node2&#45;&gt;Node8 -->
<g id="edge12_Node000008_Node000002" class="edge">
<title>Node2&#45;&gt;Node8</title>
<g id="a_edge12_Node000008_Node000002"><a xlink:title=" ">
<path fill="none" stroke="#9a32cd" stroke-dasharray="5,2" d="M539.86,-268.57C571.23,-251.66 623.44,-224.58 670.25,-205.24 677.47,-202.26 685.19,-199.36 692.82,-196.67"/>
<polygon fill="#9a32cd" stroke="#9a32cd" points="538.51,-265.32 531.38,-273.16 541.84,-271.47 538.51,-265.32"/>
</a>
</g>
<text text-anchor="middle" x="626" y="-237.74" font-family="Helvetica,sans-Serif" font-size="10.00" fill="grey"> _logService</text>
</g>
<!-- Node10 -->
<g id="Node000010" class="node">
<title>Node10</title>
<g id="a_Node000010"><a xlink:href="class_task_a_p_i_1_1_services_1_1_internal_a_p_i_service.html" target="_top" xlink:title="Provides a collection of services for interacting with internal API endpoints, including sending emai...">
<polygon fill="white" stroke="#666666" points="809.62,-310.24 682.62,-310.24 682.62,-278.24 809.62,-278.24 809.62,-310.24"/>
<text text-anchor="start" x="690.62" y="-296.74" font-family="Helvetica,sans-Serif" font-size="10.00">TaskAPI.Services.Internal</text>
<text text-anchor="middle" x="746.12" y="-284.74" font-family="Helvetica,sans-Serif" font-size="10.00">APIService</text>
</a>
</g>
</g>
<!-- Node2&#45;&gt;Node10 -->
<g id="edge18_Node000010_Node000002" class="edge">
<title>Node2&#45;&gt;Node10</title>
<g id="a_edge18_Node000010_Node000002"><a xlink:title=" ">
<path fill="none" stroke="#9a32cd" stroke-dasharray="5,2" d="M586.29,-296.03C590.84,-296.51 595.35,-296.92 599.75,-297.24 626.82,-299.22 656.78,-299.01 682.45,-298.1"/>
<polygon fill="#9a32cd" stroke="#9a32cd" points="586.81,-292.57 576.47,-294.9 586.01,-299.52 586.81,-292.57"/>
</a>
</g>
<text text-anchor="middle" x="626" y="-300.74" font-family="Helvetica,sans-Serif" font-size="10.00" fill="grey"> _logService</text>
</g>
<!-- Node3 -->
<g id="Node000003" class="node">
<title>Node3</title>
<g id="a_Node000003"><a xlink:href="class_task_a_p_i_1_1_contexts_1_1_task_a_p_i_context.html" target="_top" xlink:title=" ">
<polygon fill="white" stroke="#666666" points="267,-330.24 98.75,-330.24 98.75,-310.24 267,-310.24 267,-330.24"/>
<text text-anchor="middle" x="182.88" y="-316.74" font-family="Helvetica,sans-Serif" font-size="10.00">TaskAPI.Contexts.TaskAPIContext</text>
</a>
</g>
</g>
<!-- Node3&#45;&gt;Node2 -->
<g id="edge2_Node000002_Node000003" class="edge">
<title>Node3&#45;&gt;Node2</title>
<g id="a_edge2_Node000002_Node000003"><a xlink:title=" ">
<path fill="none" stroke="#9a32cd" stroke-dasharray="5,2" d="M278.67,-309.76C329.76,-304.1 391.74,-297.25 438.59,-292.07"/>
<polygon fill="#9a32cd" stroke="#9a32cd" points="278.34,-306.27 268.78,-310.85 279.11,-313.23 278.34,-306.27"/>
</a>
</g>
<text text-anchor="middle" x="353" y="-310.74" font-family="Helvetica,sans-Serif" font-size="10.00" fill="grey"> _context</text>
</g>
<!-- Node4 -->
<g id="Node000004" class="node">
<title>Node4</title>
<g id="a_Node000004"><a xlink:title=" ">
<polygon fill="white" stroke="#666666" points="61.75,-130.24 0,-130.24 0,-110.24 61.75,-110.24 61.75,-130.24"/>
<text text-anchor="middle" x="30.88" y="-116.74" font-family="Helvetica,sans-Serif" font-size="10.00">DbContext</text>
</a>
</g>
</g>
<!-- Node4&#45;&gt;Node3 -->
<g id="edge3_Node000003_Node000004" class="edge">
<title>Node4&#45;&gt;Node3</title>
<g id="a_edge3_Node000003_Node000004"><a xlink:title=" ">
<path fill="none" stroke="#63b8ff" d="M44.93,-140.11C58.11,-159.93 79.25,-191.12 98.75,-217.24 124.73,-252.04 157.66,-291.6 173.11,-309.92"/>
<polygon fill="#63b8ff" stroke="#63b8ff" points="47.93,-138.29 39.49,-131.88 42.09,-142.15 47.93,-138.29"/>
</a>
</g>
</g>
<!-- Node9 -->
<g id="Node000009" class="node">
<title>Node9</title>
<g id="a_Node000009"><a xlink:href="class_task_a_p_i_1_1_contexts_1_1_priceapp_context.html" target="_top" xlink:title=" ">
<polygon fill="white" stroke="#666666" points="421,-56.24 285,-56.24 285,-24.24 421,-24.24 421,-56.24"/>
<text text-anchor="start" x="293" y="-42.74" font-family="Helvetica,sans-Serif" font-size="10.00">TaskAPI.Contexts.Priceapp</text>
<text text-anchor="middle" x="353" y="-30.74" font-family="Helvetica,sans-Serif" font-size="10.00">Context</text>
</a>
</g>
</g>
<!-- Node4&#45;&gt;Node9 -->
<g id="edge16_Node000009_Node000004" class="edge">
<title>Node4&#45;&gt;Node9</title>
<g id="a_edge16_Node000009_Node000004"><a xlink:title=" ">
<path fill="none" stroke="#63b8ff" d="M72.83,-110.01C126.68,-96.55 221.94,-72.74 286.02,-56.73"/>
<polygon fill="#63b8ff" stroke="#63b8ff" points="72.31,-106.53 63.46,-112.35 74.01,-113.32 72.31,-106.53"/>
</a>
</g>
</g>
<!-- Node5 -->
<g id="Node000005" class="node">
<title>Node5</title>
<g id="a_Node000005"><a xlink:href="class_task_a_p_i_1_1_helpers_1_1_settings_1_1_task_a_p_i_settings.html" target="_top" xlink:title=" ">
<polygon fill="white" stroke="#666666" points="248.25,-208.24 117.5,-208.24 117.5,-176.24 248.25,-176.24 248.25,-208.24"/>
<text text-anchor="start" x="125.5" y="-194.74" font-family="Helvetica,sans-Serif" font-size="10.00">TaskAPI.Helpers.Settings.</text>
<text text-anchor="middle" x="182.88" y="-182.74" font-family="Helvetica,sans-Serif" font-size="10.00">TaskAPISettings</text>
</a>
</g>
</g>
<!-- Node5&#45;&gt;Node1 -->
<g id="edge14_Node000001_Node000005" class="edge">
<title>Node5&#45;&gt;Node1</title>
<g id="a_edge14_Node000001_Node000005"><a xlink:title=" ">
<path fill="none" stroke="#9a32cd" stroke-dasharray="5,2" d="M227.65,-171.18C245.11,-163.67 265.63,-155.92 285,-151.24 517.46,-95.1 585.67,-80.63 822,-117.24 881.95,-126.53 948.33,-154.45 981.7,-169.82"/>
<polygon fill="#9a32cd" stroke="#9a32cd" points="226.33,-167.94 218.6,-175.19 229.16,-174.34 226.33,-167.94"/>
</a>
</g>
<text text-anchor="middle" x="626" y="-99.74" font-family="Helvetica,sans-Serif" font-size="10.00" fill="grey"> _settings</text>
</g>
<!-- Node5&#45;&gt;Node2 -->
<g id="edge4_Node000002_Node000005" class="edge">
<title>Node5&#45;&gt;Node2</title>
<g id="a_edge4_Node000002_Node000005"><a xlink:title=" ">
<path fill="none" stroke="#9a32cd" stroke-dasharray="5,2" d="M234.57,-212.69C250.56,-218.76 268.39,-225.14 285,-230.24 343.6,-248.23 412.3,-264 458.1,-273.78"/>
<polygon fill="#9a32cd" stroke="#9a32cd" points="235.84,-209.42 225.25,-209.1 233.32,-215.96 235.84,-209.42"/>
</a>
</g>
<text text-anchor="middle" x="353" y="-266.74" font-family="Helvetica,sans-Serif" font-size="10.00" fill="grey"> _settings</text>
</g>
<!-- Node5&#45;&gt;Node6 -->
<g id="edge7_Node000006_Node000005" class="edge">
<title>Node5&#45;&gt;Node6</title>
<g id="a_edge7_Node000006_Node000005"><a xlink:title=" ">
<path fill="none" stroke="#9a32cd" stroke-dasharray="5,2" d="M259.66,-177.46C268.2,-175.96 276.78,-174.52 285,-173.24 353.14,-162.64 370.32,-160.49 439,-154.24 517.6,-147.09 607.83,-142.18 669.86,-139.32"/>
<polygon fill="#9a32cd" stroke="#9a32cd" points="259.22,-173.99 250,-179.2 260.46,-180.88 259.22,-173.99"/>
</a>
</g>
<text text-anchor="middle" x="510.38" y="-156.74" font-family="Helvetica,sans-Serif" font-size="10.00" fill="grey"> _settings</text>
</g>
<!-- Node5&#45;&gt;Node7 -->
<g id="edge10_Node000007_Node000005" class="edge">
<title>Node5&#45;&gt;Node7</title>
<g id="a_edge10_Node000007_Node000005"><a xlink:title=" ">
<path fill="none" stroke="#9a32cd" stroke-dasharray="5,2" d="M259.92,-197.39C370.58,-204.88 574.18,-218.67 678.97,-225.76"/>
<polygon fill="#9a32cd" stroke="#9a32cd" points="260.26,-193.9 250.04,-196.72 259.78,-200.89 260.26,-193.9"/>
</a>
</g>
<text text-anchor="middle" x="510.38" y="-220.74" font-family="Helvetica,sans-Serif" font-size="10.00" fill="grey"> _settings</text>
</g>
<!-- Node5&#45;&gt;Node8 -->
<g id="edge13_Node000008_Node000005" class="edge">
<title>Node5&#45;&gt;Node8</title>
<g id="a_edge13_Node000008_Node000005"><a xlink:title=" ">
<path fill="none" stroke="#9a32cd" stroke-dasharray="5,2" d="M260.06,-187C343.42,-181.55 481.02,-173.38 599.75,-170.24 623.08,-169.62 628.95,-168.99 652.25,-170.24 661.4,-170.73 671.03,-171.49 680.49,-172.38"/>
<polygon fill="#9a32cd" stroke="#9a32cd" points="259.92,-183.5 250.17,-187.65 260.38,-190.49 259.92,-183.5"/>
</a>
</g>
<text text-anchor="middle" x="510.38" y="-178.74" font-family="Helvetica,sans-Serif" font-size="10.00" fill="grey"> _settings</text>
</g>
<!-- Node5&#45;&gt;Node10 -->
<g id="edge19_Node000010_Node000005" class="edge">
<title>Node5&#45;&gt;Node10</title>
<g id="a_edge19_Node000010_Node000005"><a xlink:title=" ">
<path fill="none" stroke="#9a32cd" stroke-dasharray="5,2" d="M204.96,-217.2C223.76,-237.66 253.15,-265.55 285,-280.24 433.85,-348.9 489.25,-331.59 652.25,-314.24 662.01,-313.2 672.25,-311.56 682.22,-309.66"/>
<polygon fill="#9a32cd" stroke="#9a32cd" points="207.62,-214.93 198.35,-209.8 202.41,-219.59 207.62,-214.93"/>
</a>
</g>
<text text-anchor="middle" x="510.38" y="-331.74" font-family="Helvetica,sans-Serif" font-size="10.00" fill="grey"> _settings</text>
</g>
<!-- Node6&#45;&gt;Node1 -->
<g id="edge5_Node000001_Node000006" class="edge">
<title>Node6&#45;&gt;Node1</title>
<g id="a_edge5_Node000001_Node000006"><a xlink:title=" ">
<path fill="none" stroke="#9a32cd" stroke-dasharray="5,2" d="M823.66,-148.59C852.75,-153.36 886.17,-158.94 916.5,-164.24 926.47,-165.98 937.07,-167.89 947.32,-169.76"/>
<polygon fill="#9a32cd" stroke="#9a32cd" points="824.25,-145.14 813.81,-146.98 823.12,-152.04 824.25,-145.14"/>
</a>
</g>
<text text-anchor="middle" x="878.25" y="-166.74" font-family="Helvetica,sans-Serif" font-size="10.00" fill="grey"> _forexService</text>
</g>
<!-- Node7&#45;&gt;Node1 -->
<g id="edge8_Node000001_Node000007" class="edge">
<title>Node7&#45;&gt;Node1</title>
<g id="a_edge8_Node000001_Node000007"><a xlink:title=" ">
<path fill="none" stroke="#9a32cd" stroke-dasharray="5,2" d="M824.63,-215.12C865.08,-207.22 913.56,-197.76 949.82,-190.69"/>
<polygon fill="#9a32cd" stroke="#9a32cd" points="824.08,-211.66 814.93,-217.01 825.42,-218.53 824.08,-211.66"/>
</a>
</g>
<text text-anchor="middle" x="878.25" y="-212.74" font-family="Helvetica,sans-Serif" font-size="10.00" fill="grey"> _alchemyService</text>
</g>
<!-- Node8&#45;&gt;Node1 -->
<g id="edge11_Node000001_Node000008" class="edge">
<title>Node8&#45;&gt;Node1</title>
<g id="a_edge11_Node000001_Node000008"><a xlink:title=" ">
<path fill="none" stroke="#9a32cd" stroke-dasharray="5,2" d="M822.99,-180.24C858.24,-180.24 899.87,-180.24 934.24,-180.24"/>
<polygon fill="#9a32cd" stroke="#9a32cd" points="823.3,-176.74 813.3,-180.24 823.3,-183.74 823.3,-176.74"/>
</a>
</g>
<text text-anchor="middle" x="878.25" y="-182.74" font-family="Helvetica,sans-Serif" font-size="10.00" fill="grey"> _binanceService</text>
</g>
<!-- Node9&#45;&gt;Node1 -->
<g id="edge15_Node000001_Node000009" class="edge">
<title>Node9&#45;&gt;Node1</title>
<g id="a_edge15_Node000001_Node000009"><a xlink:title=" ">
<path fill="none" stroke="#9a32cd" stroke-dasharray="5,2" d="M432.23,-21.88C546.66,0.55 762.77,25.72 916.5,-60.24 961.85,-85.6 989.72,-145.65 999.46,-169.86"/>
<polygon fill="#9a32cd" stroke="#9a32cd" points="431.74,-18.4 422.62,-23.8 433.12,-25.27 431.74,-18.4"/>
</a>
</g>
<text text-anchor="middle" x="626" y="-3.74" font-family="Helvetica,sans-Serif" font-size="10.00" fill="grey"> _context</text>
</g>
<!-- Node10&#45;&gt;Node1 -->
<g id="edge17_Node000001_Node000010" class="edge">
<title>Node10&#45;&gt;Node1</title>
<g id="a_edge17_Node000001_Node000010"><a xlink:title=" ">
<path fill="none" stroke="#9a32cd" stroke-dasharray="5,2" d="M802.37,-273.75C835.78,-260.94 879.02,-243.63 916.5,-226.24 940.65,-215.04 967.63,-200.4 985.02,-190.68"/>
<polygon fill="#9a32cd" stroke="#9a32cd" points="801.4,-270.37 793.3,-277.2 803.9,-276.91 801.4,-270.37"/>
</a>
</g>
<text text-anchor="middle" x="878.25" y="-259.74" font-family="Helvetica,sans-Serif" font-size="10.00" fill="grey"> _iapiService</text>
</g>
</g>
</svg>
