<?xml version="1.0" encoding="UTF-8" standalone="no"?>
<!DOCTYPE svg PUBLIC "-//W3C//DTD SVG 1.1//EN"
 "http://www.w3.org/Graphics/SVG/1.1/DTD/svg11.dtd">
<!-- Generated by graphviz version 9.0.0 (20230911.1827)
 -->
<!-- Title: TaskAPI.Helpers.Settings.TaskAPISettings.Polygonoraclesettings.ABI.Input Pages: 1 -->
<svg width="192pt" height="132pt"
 viewBox="0.00 0.00 192.00 132.00" xmlns="http://www.w3.org/2000/svg" xmlns:xlink="http://www.w3.org/1999/xlink">
<g id="graph0" class="graph" transform="scale(1 1) rotate(0) translate(4 128)">
<title>TaskAPI.Helpers.Settings.TaskAPISettings.Polygonoraclesettings.ABI.Input</title>
<!-- Node1 -->
<g id="Node000001" class="node">
<title>Node1</title>
<g id="a_Node000001"><a xlink:title=" ">
<polygon fill="#999999" stroke="none" points="184,-124 0,-124 0,0 184,0 184,-124"/>
<text text-anchor="start" x="4.62" y="-110.5" font-family="Helvetica,sans-Serif" font-size="10.00">TaskAPI.Helpers.Settings.</text>
<text text-anchor="start" x="4.62" y="-98.5" font-family="Helvetica,sans-Serif" font-size="10.00">TaskAPISettings.Polygonoraclesettings.</text>
<text text-anchor="start" x="72.12" y="-86.5" font-family="Helvetica,sans-Serif" font-size="10.00">ABI.Input</text>
<text text-anchor="start" x="25.5" y="-70.5" font-family="Helvetica,sans-Serif" font-size="10.00">+</text>
<text text-anchor="start" x="57" y="-70.5" font-family="Helvetica,sans-Serif" font-size="10.00">bool indexed</text>
<text text-anchor="start" x="25.5" y="-54.5" font-family="Helvetica,sans-Serif" font-size="10.00">+</text>
<text text-anchor="start" x="57" y="-54.5" font-family="Helvetica,sans-Serif" font-size="10.00">string internalType</text>
<text text-anchor="start" x="25.5" y="-38.5" font-family="Helvetica,sans-Serif" font-size="10.00">+</text>
<text text-anchor="start" x="57" y="-38.5" font-family="Helvetica,sans-Serif" font-size="10.00">string name</text>
<text text-anchor="start" x="25.5" y="-22.5" font-family="Helvetica,sans-Serif" font-size="10.00">+</text>
<text text-anchor="start" x="57" y="-22.5" font-family="Helvetica,sans-Serif" font-size="10.00">string type</text>
<text text-anchor="start" x="90.5" y="-6.5" font-family="Helvetica,sans-Serif" font-size="10.00"> </text>
<polygon fill="#666666" stroke="#666666" points="0,-82 0,-82 184,-82 184,-82 0,-82"/>
<polygon fill="#666666" stroke="#666666" points="0,-18 0,-18 55,-18 55,-18 0,-18"/>
<polygon fill="#666666" stroke="#666666" points="55,-18 55,-18 184,-18 184,-18 55,-18"/>
<polygon fill="none" stroke="#666666" points="0,0 0,-124 184,-124 184,0 0,0"/>
</a>
</g>
</g>
</g>
</svg>
