<?xml version="1.0" encoding="UTF-8" standalone="no"?>
<!DOCTYPE svg PUBLIC "-//W3C//DTD SVG 1.1//EN"
 "http://www.w3.org/Graphics/SVG/1.1/DTD/svg11.dtd">
<!-- Generated by graphviz version 9.0.0 (20230911.1827)
 -->
<!-- Title: TaskAPI.Services.LogService.LogInformation Pages: 1 -->
<!--zoomable 566 -->

<svg id="main" version="1.1" xmlns="http://www.w3.org/2000/svg" xmlns:xlink="http://www.w3.org/1999/xlink" xml:space="preserve" onload="init(evt)">
<style type="text/css"><![CDATA[
.node, .edge {opacity: 0.7;}
.node.selected, .edge.selected {opacity: 1;}
.edge:hover path { stroke: red; }
.edge:hover polygon { stroke: red; fill: red; }
]]></style>

<defs>
  <circle id="rim" cx="0" cy="0" r="7"/>
  <circle id="rim2" cx="0" cy="0" r="3.5"/>
  <g id="zoomPlus">
    <use xlink:href="#rim" fill="#404040"><set attributeName="fill" to="#808080" begin="zoomplus.mouseover" end="zoomplus.mouseout"/></use>
    <path d="M-4,0h8M0,-4v8" fill="none" stroke="white" stroke-width="1.5" pointer-events="none"/>
  </g>
  <g id="zoomMin">
    <use xlink:href="#rim" fill="#404040"><set attributeName="fill" to="#808080" begin="zoomminus.mouseover" end="zoomminus.mouseout"/></use>
    <path d="M-4,0h8" fill="none" stroke="white" stroke-width="1.5" pointer-events="none"/>
  </g>
  <g id="arrowUp" transform="translate(30 24)">
    <use xlink:href="#rim"/>
    <path pointer-events="none" fill="none" stroke="white" stroke-width="1.5" d="M0,-3.0v7 M-2.5,-0.5L0,-3.0L2.5,-0.5"/>
  </g>
  <g id="arrowRight" transform="rotate(90) translate(36 -43)">
    <use xlink:href="#rim"/>
    <path pointer-events="none" fill="none" stroke="white" stroke-width="1.5" d="M0,-3.0v7 M-2.5,-0.5L0,-3.0L2.5,-0.5"/>
  </g>
  <g id="arrowDown" transform="rotate(180) translate(-30 -48)">
    <use xlink:href="#rim"/>
    <path pointer-events="none" fill="none" stroke="white" stroke-width="1.5" d="M0,-3.0v7 M-2.5,-0.5L0,-3.0L2.5,-0.5"/>
  </g>
  <g id="arrowLeft" transform="rotate(270) translate(-36 17)">
    <use xlink:href="#rim"/>
    <path pointer-events="none" fill="none" stroke="white" stroke-width="1.5" d="M0,-3.0v7 M-2.5,-0.5L0,-3.0L2.5,-0.5"/>
  </g>
  <g id="resetDef">
    <use xlink:href="#rim2" fill="#404040"><set attributeName="fill" to="#808080" begin="reset.mouseover" end="reset.mouseout"/></use>
  </g>
</defs>
<script type="application/ecmascript">
var viewWidth = 689;
var viewHeight = 566;
var sectionId = 'dynsection-11';
</script>
<script type="application/ecmascript" xlink:href="svg.min.js"/>
<svg id="graph" class="graph">
<g id="viewport">
<title>TaskAPI.Services.LogService.LogInformation</title>
<!-- Node1 -->
<g id="Node000001" class="node">
<title>Node1</title>
<g id="a_Node000001"><a xlink:title="Logs an informational message to the database.">
<polygon fill="#999999" stroke="#666666" points="680.5,-307 534.75,-307 534.75,-275 680.5,-275 680.5,-307"/>
<text text-anchor="start" x="542.75" y="-293.5" font-family="Helvetica,sans-Serif" font-size="10.00">TaskAPI.Services.LogService.</text>
<text text-anchor="middle" x="607.62" y="-281.5" font-family="Helvetica,sans-Serif" font-size="10.00">LogInformation</text>
</a>
</g>
</g>
<!-- Node2 -->
<g id="Node000002" class="node">
<title>Node2</title>
<g id="a_Node000002"><a xlink:href="class_task_a_p_i_1_1_helpers_1_1_alert_helper.html#a8ee2d4a6c728bc688207f3e0f777b03f" target="_top" xlink:title="Analyses a list of log entries against specified thresholds to determine if alerts should be generate...">
<polygon fill="white" stroke="#666666" points="498.75,-558 353.75,-558 353.75,-526 498.75,-526 498.75,-558"/>
<text text-anchor="start" x="361.75" y="-544.5" font-family="Helvetica,sans-Serif" font-size="10.00">TaskAPI.Helpers.AlertHelper.</text>
<text text-anchor="middle" x="426.25" y="-532.5" font-family="Helvetica,sans-Serif" font-size="10.00">CheckLogsAgainstThresholds</text>
</a>
</g>
</g>
<!-- Node1&#45;&gt;Node2 -->
<g id="edge1_Node000001_Node000002" class="edge">
<title>Node1&#45;&gt;Node2</title>
<g id="a_edge1_Node000001_Node000002"><a xlink:title=" ">
<path fill="none" stroke="#63b8ff" d="M600.04,-318.37C587.68,-364.26 556.87,-457.09 498.75,-512 493.07,-517.36 486.3,-521.83 479.22,-525.54"/>
<polygon fill="#63b8ff" stroke="#63b8ff" points="603.42,-319.27 602.54,-308.71 596.64,-317.52 603.42,-319.27"/>
</a>
</g>
</g>
<!-- Node3 -->
<g id="Node000003" class="node">
<title>Node3</title>
<g id="a_Node000003"><a xlink:href="class_task_a_p_i_1_1_helpers_1_1_alert_helper.html#acddc980d442b4344a8d9df5ba056276a" target="_top" xlink:title="Processes a single API source for alert generation.">
<polygon fill="white" stroke="#666666" points="317.75,-514 175,-514 175,-482 317.75,-482 317.75,-514"/>
<text text-anchor="start" x="183" y="-500.5" font-family="Helvetica,sans-Serif" font-size="10.00">TaskAPI.Helpers.AlertHelper.</text>
<text text-anchor="middle" x="246.38" y="-488.5" font-family="Helvetica,sans-Serif" font-size="10.00">ProcessApiSource</text>
</a>
</g>
</g>
<!-- Node1&#45;&gt;Node3 -->
<g id="edge4_Node000001_Node000003" class="edge">
<title>Node1&#45;&gt;Node3</title>
<g id="a_edge4_Node000001_Node000003"><a xlink:title=" ">
<path fill="none" stroke="#63b8ff" d="M599.76,-318.36C587.48,-360.94 557.37,-442.03 498.75,-479 445.16,-512.79 371.81,-514.45 318.17,-509.5"/>
<polygon fill="#63b8ff" stroke="#63b8ff" points="603.09,-319.46 602.36,-308.89 596.34,-317.61 603.09,-319.46"/>
</a>
</g>
</g>
<!-- Node5 -->
<g id="Node000005" class="node">
<title>Node5</title>
<g id="a_Node000005"><a xlink:href="class_task_a_p_i_1_1_helpers_1_1_spot_helper.html#a7b75f44b3310036d4de7f0f2956bbac1" target="_top" xlink:title="Pulls, saves, and trims spot data from various sources.">
<polygon fill="white" stroke="#666666" points="497.62,-282 354.88,-282 354.88,-250 497.62,-250 497.62,-282"/>
<text text-anchor="start" x="362.88" y="-268.5" font-family="Helvetica,sans-Serif" font-size="10.00">TaskAPI.Helpers.SpotHelper.</text>
<text text-anchor="middle" x="426.25" y="-256.5" font-family="Helvetica,sans-Serif" font-size="10.00">PullSaveTrim</text>
</a>
</g>
</g>
<!-- Node1&#45;&gt;Node5 -->
<g id="edge5_Node000001_Node000005" class="edge">
<title>Node1&#45;&gt;Node5</title>
<g id="a_edge5_Node000001_Node000005"><a xlink:title=" ">
<path fill="none" stroke="#63b8ff" d="M523.12,-279.36C514.76,-278.2 506.33,-277.02 498.12,-275.88"/>
<polygon fill="#63b8ff" stroke="#63b8ff" points="522.56,-282.82 532.94,-280.73 523.52,-275.88 522.56,-282.82"/>
</a>
</g>
</g>
<!-- Node6 -->
<g id="Node000006" class="node">
<title>Node6</title>
<g id="a_Node000006"><a xlink:href="class_task_a_p_i_1_1_controllers_1_1_spot_controller.html#adc5d733d4c39f2ecdaad8d8bf2231731" target="_top" xlink:title="Initiates synchronisation of spot data.">
<polygon fill="white" stroke="#666666" points="309.12,-354 183.62,-354 183.62,-322 309.12,-322 309.12,-354"/>
<text text-anchor="start" x="191.62" y="-340.5" font-family="Helvetica,sans-Serif" font-size="10.00">TaskAPI.Controllers.Spot</text>
<text text-anchor="middle" x="246.38" y="-328.5" font-family="Helvetica,sans-Serif" font-size="10.00">Controller.Sync</text>
</a>
</g>
</g>
<!-- Node1&#45;&gt;Node6 -->
<g id="edge11_Node000001_Node000006" class="edge">
<title>Node1&#45;&gt;Node6</title>
<g id="a_edge11_Node000001_Node000006"><a xlink:title=" ">
<path fill="none" stroke="#63b8ff" d="M588.46,-316.44C569.33,-340.84 536.74,-376.1 498.75,-391 438.75,-414.53 416.48,-405.76 353.75,-391 323.82,-383.96 292.7,-367.16 271.91,-354.35"/>
<polygon fill="#63b8ff" stroke="#63b8ff" points="591.18,-318.66 594.44,-308.58 585.6,-314.43 591.18,-318.66"/>
</a>
</g>
</g>
<!-- Node7 -->
<g id="Node000007" class="node">
<title>Node7</title>
<g id="a_Node000007"><a xlink:href="class_task_a_p_i_1_1_controllers_1_1_spot_controller.html#ac5b396e3a46352bf5dbe21701876f35c" target="_top" xlink:title="Saves daily spot data.">
<polygon fill="white" stroke="#666666" points="489,-382 363.5,-382 363.5,-350 489,-350 489,-382"/>
<text text-anchor="start" x="371.5" y="-368.5" font-family="Helvetica,sans-Serif" font-size="10.00">TaskAPI.Controllers.Spot</text>
<text text-anchor="middle" x="426.25" y="-356.5" font-family="Helvetica,sans-Serif" font-size="10.00">Controller.SaveDaily</text>
</a>
</g>
</g>
<!-- Node1&#45;&gt;Node7 -->
<g id="edge7_Node000001_Node000007" class="edge">
<title>Node1&#45;&gt;Node7</title>
<g id="a_edge7_Node000001_Node000007"><a xlink:title=" ">
<path fill="none" stroke="#63b8ff" d="M563.35,-312.23C543.81,-321.52 520.32,-332.26 498.75,-341 491.56,-343.92 483.89,-346.81 476.33,-349.55"/>
<polygon fill="#63b8ff" stroke="#63b8ff" points="564.59,-315.52 572.1,-308.05 561.57,-309.21 564.59,-315.52"/>
</a>
</g>
</g>
<!-- Node8 -->
<g id="Node000008" class="node">
<title>Node8</title>
<g id="a_Node000008"><a xlink:href="class_task_a_p_i_1_1_controllers_1_1_priceapp_controller.html#a7a554328bc2c9f53d7791b214121982f" target="_top" xlink:title="Saves the Priceapp pricesheet as a PDF.">
<polygon fill="white" stroke="#666666" points="498,-332 354.5,-332 354.5,-300 498,-300 498,-332"/>
<text text-anchor="start" x="362.5" y="-318.5" font-family="Helvetica,sans-Serif" font-size="10.00">TaskAPI.Controllers.Priceapp</text>
<text text-anchor="middle" x="426.25" y="-306.5" font-family="Helvetica,sans-Serif" font-size="10.00">Controller.SavePricesheet</text>
</a>
</g>
</g>
<!-- Node1&#45;&gt;Node8 -->
<g id="edge8_Node000001_Node000008" class="edge">
<title>Node1&#45;&gt;Node8</title>
<g id="a_edge8_Node000001_Node000008"><a xlink:title=" ">
<path fill="none" stroke="#63b8ff" d="M523.21,-302.63C514.92,-303.78 506.56,-304.95 498.41,-306.08"/>
<polygon fill="#63b8ff" stroke="#63b8ff" points="523.52,-306.12 532.94,-301.27 522.56,-299.18 523.52,-306.12"/>
</a>
</g>
</g>
<!-- Node9 -->
<g id="Node000009" class="node">
<title>Node9</title>
<g id="a_Node000009"><a xlink:href="class_task_a_p_i_1_1_helpers_1_1_alert_helper.html#a5e60f4242d52c0642c789ff7ca332e51" target="_top" xlink:title="Sends alerts based on the provided list of alerts, API source, and configuration.">
<polygon fill="white" stroke="#666666" points="497.62,-470 354.88,-470 354.88,-438 497.62,-438 497.62,-470"/>
<text text-anchor="start" x="362.88" y="-456.5" font-family="Helvetica,sans-Serif" font-size="10.00">TaskAPI.Helpers.AlertHelper.</text>
<text text-anchor="middle" x="426.25" y="-444.5" font-family="Helvetica,sans-Serif" font-size="10.00">SendAlerts</text>
</a>
</g>
</g>
<!-- Node1&#45;&gt;Node9 -->
<g id="edge9_Node000001_Node000009" class="edge">
<title>Node1&#45;&gt;Node9</title>
<g id="a_edge9_Node000001_Node000009"><a xlink:title=" ">
<path fill="none" stroke="#63b8ff" d="M591.37,-316.63C572.75,-346.03 538.75,-394.01 498.75,-424 491.75,-429.25 483.69,-433.77 475.57,-437.59"/>
<polygon fill="#63b8ff" stroke="#63b8ff" points="594.21,-318.7 596.5,-308.36 588.26,-315.01 594.21,-318.7"/>
</a>
</g>
</g>
<!-- Node10 -->
<g id="Node000010" class="node">
<title>Node10</title>
<g id="a_Node000010"><a xlink:href="class_task_a_p_i_1_1_controllers_1_1_ab_web_controller.html#a788bdc1e575ec2e04d9d2a767c68e287" target="_top" xlink:title="Trims logs for AbWeb based on predefined criteria.">
<polygon fill="white" stroke="#666666" points="495,-232 357.5,-232 357.5,-200 495,-200 495,-232"/>
<text text-anchor="start" x="365.5" y="-218.5" font-family="Helvetica,sans-Serif" font-size="10.00">TaskAPI.Controllers.AbWeb</text>
<text text-anchor="middle" x="426.25" y="-206.5" font-family="Helvetica,sans-Serif" font-size="10.00">Controller.TrimLogs</text>
</a>
</g>
</g>
<!-- Node1&#45;&gt;Node10 -->
<g id="edge12_Node000001_Node000010" class="edge">
<title>Node1&#45;&gt;Node10</title>
<g id="a_edge12_Node000001_Node000010"><a xlink:title=" ">
<path fill="none" stroke="#63b8ff" d="M563.35,-269.77C543.81,-260.48 520.32,-249.74 498.75,-241 491.56,-238.08 483.89,-235.19 476.33,-232.45"/>
<polygon fill="#63b8ff" stroke="#63b8ff" points="561.57,-272.79 572.1,-273.95 564.59,-266.48 561.57,-272.79"/>
</a>
</g>
</g>
<!-- Node11 -->
<g id="Node000011" class="node">
<title>Node11</title>
<g id="a_Node000011"><a xlink:href="class_task_a_p_i_1_1_controllers_1_1_ainslie_api_controller.html#a6b53c8ff5898ee660ce3eec1d8e9d13e" target="_top" xlink:title="Trims logs for Ainslie API based on predefined criteria.">
<polygon fill="white" stroke="#666666" points="493.5,-182 359,-182 359,-150 493.5,-150 493.5,-182"/>
<text text-anchor="start" x="367" y="-168.5" font-family="Helvetica,sans-Serif" font-size="10.00">TaskAPI.Controllers.Ainslie</text>
<text text-anchor="middle" x="426.25" y="-156.5" font-family="Helvetica,sans-Serif" font-size="10.00">ApiController.TrimLogs</text>
</a>
</g>
</g>
<!-- Node1&#45;&gt;Node11 -->
<g id="edge13_Node000001_Node000011" class="edge">
<title>Node1&#45;&gt;Node11</title>
<g id="a_edge13_Node000001_Node000011"><a xlink:title=" ">
<path fill="none" stroke="#63b8ff" d="M585.48,-266.28C565.21,-243.93 532.74,-211.47 498.75,-191 493.46,-187.81 487.69,-184.95 481.82,-182.41"/>
<polygon fill="#63b8ff" stroke="#63b8ff" points="582.62,-268.33 591.88,-273.47 587.85,-263.67 582.62,-268.33"/>
</a>
</g>
</g>
<!-- Node12 -->
<g id="Node000012" class="node">
<title>Node12</title>
<g id="a_Node000012"><a xlink:href="class_task_a_p_i_1_1_controllers_1_1_internal_a_p_i_controller.html#ad77c1d71a0a8ba5393ee56bff0b81df1" target="_top" xlink:title="Trims logs for Internal API based on predefined criteria.">
<polygon fill="white" stroke="#666666" points="494.62,-132 357.88,-132 357.88,-100 494.62,-100 494.62,-132"/>
<text text-anchor="start" x="365.88" y="-118.5" font-family="Helvetica,sans-Serif" font-size="10.00">TaskAPI.Controllers.Internal</text>
<text text-anchor="middle" x="426.25" y="-106.5" font-family="Helvetica,sans-Serif" font-size="10.00">APIController.TrimLogs</text>
</a>
</g>
</g>
<!-- Node1&#45;&gt;Node12 -->
<g id="edge14_Node000001_Node000012" class="edge">
<title>Node1&#45;&gt;Node12</title>
<g id="a_edge14_Node000001_Node000012"><a xlink:title=" ">
<path fill="none" stroke="#63b8ff" d="M594.32,-265.06C577.28,-231.8 543.5,-174.44 498.75,-141 494.43,-137.77 489.66,-134.94 484.7,-132.45"/>
<polygon fill="#63b8ff" stroke="#63b8ff" points="590.98,-266.21 598.57,-273.6 597.24,-263.09 590.98,-266.21"/>
</a>
</g>
</g>
<!-- Node13 -->
<g id="Node000013" class="node">
<title>Node13</title>
<g id="a_Node000013"><a xlink:href="class_task_a_p_i_1_1_controllers_1_1_logs_controller.html#af8b7f41074892eb4a70a447d64a055c6" target="_top" xlink:title="Trims logs based on predefined criteria.">
<polygon fill="white" stroke="#666666" points="489.38,-82 363.12,-82 363.12,-50 489.38,-50 489.38,-82"/>
<text text-anchor="start" x="371.12" y="-68.5" font-family="Helvetica,sans-Serif" font-size="10.00">TaskAPI.Controllers.Logs</text>
<text text-anchor="middle" x="426.25" y="-56.5" font-family="Helvetica,sans-Serif" font-size="10.00">Controller.TrimLogs</text>
</a>
</g>
</g>
<!-- Node1&#45;&gt;Node13 -->
<g id="edge15_Node000001_Node000013" class="edge">
<title>Node1&#45;&gt;Node13</title>
<g id="a_edge15_Node000001_Node000013"><a xlink:title=" ">
<path fill="none" stroke="#63b8ff" d="M598.97,-263.75C585.61,-220.98 554.03,-138.16 498.75,-91 494.95,-87.76 490.7,-84.93 486.22,-82.46"/>
<polygon fill="#63b8ff" stroke="#63b8ff" points="595.59,-264.66 601.83,-273.23 602.3,-262.65 595.59,-264.66"/>
</a>
</g>
</g>
<!-- Node14 -->
<g id="Node000014" class="node">
<title>Node14</title>
<g id="a_Node000014"><a xlink:href="class_task_a_p_i_1_1_controllers_1_1_priceapp_controller.html#a25e45ae0b01fc8e2c7aa8ec7e30d59a9" target="_top" xlink:title="Trims logs for Priceapp based on predefined criteria.">
<polygon fill="white" stroke="#666666" points="498,-32 354.5,-32 354.5,0 498,0 498,-32"/>
<text text-anchor="start" x="362.5" y="-18.5" font-family="Helvetica,sans-Serif" font-size="10.00">TaskAPI.Controllers.Priceapp</text>
<text text-anchor="middle" x="426.25" y="-6.5" font-family="Helvetica,sans-Serif" font-size="10.00">Controller.TrimLogs</text>
</a>
</g>
</g>
<!-- Node1&#45;&gt;Node14 -->
<g id="edge16_Node000001_Node000014" class="edge">
<title>Node1&#45;&gt;Node14</title>
<g id="a_edge16_Node000001_Node000014"><a xlink:title=" ">
<path fill="none" stroke="#63b8ff" d="M602.24,-263.62C592.67,-212.67 565.2,-102.89 498.75,-41 495.19,-37.68 491.16,-34.8 486.88,-32.3"/>
<polygon fill="#63b8ff" stroke="#63b8ff" points="598.74,-263.96 603.94,-273.19 605.63,-262.73 598.74,-263.96"/>
</a>
</g>
</g>
<!-- Node2&#45;&gt;Node3 -->
<g id="edge2_Node000002_Node000003" class="edge">
<title>Node2&#45;&gt;Node3</title>
<g id="a_edge2_Node000002_Node000003"><a xlink:title=" ">
<path fill="none" stroke="#63b8ff" d="M347.67,-522.81C336.48,-520.04 325.04,-517.21 314.08,-514.5"/>
<polygon fill="#63b8ff" stroke="#63b8ff" points="346.75,-526.19 357.29,-525.19 348.43,-519.39 346.75,-526.19"/>
</a>
</g>
</g>
<!-- Node4 -->
<g id="Node000004" class="node">
<title>Node4</title>
<g id="a_Node000004"><a xlink:href="class_task_a_p_i_1_1_controllers_1_1_logs_controller.html#aa1bbb95b5f70e8d5a457fdca962479e3" target="_top" xlink:title="Checks for alerts across all configured api sources.">
<polygon fill="white" stroke="#666666" points="139,-514 0,-514 0,-482 139,-482 139,-514"/>
<text text-anchor="start" x="8" y="-500.5" font-family="Helvetica,sans-Serif" font-size="10.00">TaskAPI.Controllers.Logs</text>
<text text-anchor="middle" x="69.5" y="-488.5" font-family="Helvetica,sans-Serif" font-size="10.00">Controller.CheckForAllAlerts</text>
</a>
</g>
</g>
<!-- Node3&#45;&gt;Node4 -->
<g id="edge3_Node000003_Node000004" class="edge">
<title>Node3&#45;&gt;Node4</title>
<g id="a_edge3_Node000003_Node000004"><a xlink:title=" ">
<path fill="none" stroke="#63b8ff" d="M163.45,-498C155.4,-498 147.3,-498 139.4,-498"/>
<polygon fill="#63b8ff" stroke="#63b8ff" points="163.24,-501.5 173.24,-498 163.24,-494.5 163.24,-501.5"/>
</a>
</g>
</g>
<!-- Node5&#45;&gt;Node6 -->
<g id="edge6_Node000005_Node000006" class="edge">
<title>Node5&#45;&gt;Node6</title>
<g id="a_edge6_Node000005_Node000006"><a xlink:title=" ">
<path fill="none" stroke="#63b8ff" d="M366.12,-286.26C361.92,-287.83 357.76,-289.41 353.75,-291 329.71,-300.49 303.12,-312.24 282.54,-321.62"/>
<polygon fill="#63b8ff" stroke="#63b8ff" points="366.99,-289.67 375.18,-282.95 364.58,-283.1 366.99,-289.67"/>
</a>
</g>
</g>
<!-- Node9&#45;&gt;Node3 -->
<g id="edge10_Node000009_Node000003" class="edge">
<title>Node9&#45;&gt;Node3</title>
<g id="a_edge10_Node000009_Node000003"><a xlink:title=" ">
<path fill="none" stroke="#63b8ff" d="M347.67,-473.19C336.48,-475.96 325.04,-478.79 314.08,-481.5"/>
<polygon fill="#63b8ff" stroke="#63b8ff" points="348.43,-476.61 357.29,-470.81 346.75,-469.81 348.43,-476.61"/>
</a>
</g>
</g>
</g>
</svg>

<g id="navigator" transform="translate(0 0)" fill="#404254">
  <rect fill="#f2f5e9" fill-opacity="0.5" stroke="#606060" stroke-width=".5" x="0" y="0" width="60" height="60"/>
  <use id="zoomplus" xlink:href="#zoomPlus" x="17" y="9" onmousedown="handleZoom(evt,'in')"/>
  <use id="zoomminus" xlink:href="#zoomMin" x="42" y="9" onmousedown="handleZoom(evt,'out')"/>
  <use id="reset" xlink:href="#resetDef" x="30" y="36" onmousedown="handleReset()"/>
   <use id="arrowup" xlink:href="#arrowUp" x="0" y="0" onmousedown="handlePan(0,-1)"/>
  <use id="arrowright" xlink:href="#arrowRight" x="0" y="0" onmousedown="handlePan(1,0)"/>
  <use id="arrowdown" xlink:href="#arrowDown" x="0" y="0" onmousedown="handlePan(0,1)"/>
  <use id="arrowleft" xlink:href="#arrowLeft" x="0" y="0" onmousedown="handlePan(-1,0)"/>
</g>
<svg viewBox="0 0 15 15" width="100%" height="30px" preserveAspectRatio="xMaxYMin meet">
 <g id="arrow_out" transform="scale(0.3 0.3)">
  <a xlink:href="class_task_a_p_i_1_1_services_1_1_log_service_a5c2a67dbd8beb6f821c46b8d052d59ea_icgraph_org.svg" target="_base">
   <rect id="button" ry="5" rx="5" y="6" x="6" height="38" width="38"
        fill="#f2f5e9" fill-opacity="0.5" stroke="#606060" stroke-width="1.0"/>
   <path id="arrow"
     d="M 11.500037,31.436501 C 11.940474,20.09759 22.043105,11.32322 32.158766,21.979434 L 37.068811,17.246167 C 37.068811,17.246167 37.088388,32 37.088388,32 L 22.160133,31.978069 C 22.160133,31.978069 26.997745,27.140456 26.997745,27.140456 C 18.528582,18.264221 13.291696,25.230495 11.500037,31.436501 z"
     style="fill:#404040;"/>
  </a>
 </g>
</svg>

<style type='text/css'>
<![CDATA[
[data-mouse-over-selected='false'] { opacity: 0.7; }
[data-mouse-over-selected='true']  { opacity: 1.0; }
]]>
</style>
<script type="application/ecmascript"><![CDATA[
document.addEventListener('DOMContentLoaded', (event) => {
  highlightEdges();
  highlightAdjacentNodes();
});
]]></script>
</svg>
