<?xml version="1.0" encoding="UTF-8" standalone="no"?>
<!DOCTYPE svg PUBLIC "-//W3C//DTD SVG 1.1//EN"
 "http://www.w3.org/Graphics/SVG/1.1/DTD/svg11.dtd">
<!-- Generated by graphviz version 9.0.0 (20230911.1827)
 -->
<!-- Title: TaskAPI.Services.LogService.LogDebug Pages: 1 -->
<!--zoomable 328 -->

<svg id="main" version="1.1" xmlns="http://www.w3.org/2000/svg" xmlns:xlink="http://www.w3.org/1999/xlink" xml:space="preserve" onload="init(evt)">
<style type="text/css"><![CDATA[
.node, .edge {opacity: 0.7;}
.node.selected, .edge.selected {opacity: 1;}
.edge:hover path { stroke: red; }
.edge:hover polygon { stroke: red; fill: red; }
]]></style>

<defs>
  <circle id="rim" cx="0" cy="0" r="7"/>
  <circle id="rim2" cx="0" cy="0" r="3.5"/>
  <g id="zoomPlus">
    <use xlink:href="#rim" fill="#404040"><set attributeName="fill" to="#808080" begin="zoomplus.mouseover" end="zoomplus.mouseout"/></use>
    <path d="M-4,0h8M0,-4v8" fill="none" stroke="white" stroke-width="1.5" pointer-events="none"/>
  </g>
  <g id="zoomMin">
    <use xlink:href="#rim" fill="#404040"><set attributeName="fill" to="#808080" begin="zoomminus.mouseover" end="zoomminus.mouseout"/></use>
    <path d="M-4,0h8" fill="none" stroke="white" stroke-width="1.5" pointer-events="none"/>
  </g>
  <g id="arrowUp" transform="translate(30 24)">
    <use xlink:href="#rim"/>
    <path pointer-events="none" fill="none" stroke="white" stroke-width="1.5" d="M0,-3.0v7 M-2.5,-0.5L0,-3.0L2.5,-0.5"/>
  </g>
  <g id="arrowRight" transform="rotate(90) translate(36 -43)">
    <use xlink:href="#rim"/>
    <path pointer-events="none" fill="none" stroke="white" stroke-width="1.5" d="M0,-3.0v7 M-2.5,-0.5L0,-3.0L2.5,-0.5"/>
  </g>
  <g id="arrowDown" transform="rotate(180) translate(-30 -48)">
    <use xlink:href="#rim"/>
    <path pointer-events="none" fill="none" stroke="white" stroke-width="1.5" d="M0,-3.0v7 M-2.5,-0.5L0,-3.0L2.5,-0.5"/>
  </g>
  <g id="arrowLeft" transform="rotate(270) translate(-36 17)">
    <use xlink:href="#rim"/>
    <path pointer-events="none" fill="none" stroke="white" stroke-width="1.5" d="M0,-3.0v7 M-2.5,-0.5L0,-3.0L2.5,-0.5"/>
  </g>
  <g id="resetDef">
    <use xlink:href="#rim2" fill="#404040"><set attributeName="fill" to="#808080" begin="reset.mouseover" end="reset.mouseout"/></use>
  </g>
</defs>
<script type="application/ecmascript">
var viewWidth = 673;
var viewHeight = 328;
var sectionId = 'dynsection-5';
</script>
<script type="application/ecmascript" xlink:href="svg.min.js"/>
<svg id="graph" class="graph">
<g id="viewport">
<title>TaskAPI.Services.LogService.LogDebug</title>
<!-- Node1 -->
<g id="Node000001" class="node">
<title>Node1</title>
<g id="a_Node000001"><a xlink:title="Logs a debug message to the database.">
<polygon fill="#999999" stroke="#666666" points="664.75,-182 519,-182 519,-150 664.75,-150 664.75,-182"/>
<text text-anchor="start" x="527" y="-168.5" font-family="Helvetica,sans-Serif" font-size="10.00">TaskAPI.Services.LogService.</text>
<text text-anchor="middle" x="591.88" y="-156.5" font-family="Helvetica,sans-Serif" font-size="10.00">LogDebug</text>
</a>
</g>
</g>
<!-- Node2 -->
<g id="Node000002" class="node">
<title>Node2</title>
<g id="a_Node000002"><a xlink:href="class_task_a_p_i_1_1_helpers_1_1_spot_helper.html#a0a13962d034427b5047452856eb3198d" target="_top" xlink:title=" ">
<polygon fill="white" stroke="#666666" points="483,-320 340.25,-320 340.25,-288 483,-288 483,-320"/>
<text text-anchor="start" x="348.25" y="-306.5" font-family="Helvetica,sans-Serif" font-size="10.00">TaskAPI.Helpers.SpotHelper.</text>
<text text-anchor="middle" x="411.62" y="-294.5" font-family="Helvetica,sans-Serif" font-size="10.00">ExportChartData</text>
</a>
</g>
</g>
<!-- Node1&#45;&gt;Node2 -->
<g id="edge1_Node000001_Node000002" class="edge">
<title>Node1&#45;&gt;Node2</title>
<g id="a_edge1_Node000001_Node000002"><a xlink:title=" ">
<path fill="none" stroke="#63b8ff" d="M572.61,-191.14C553.02,-216.5 519.73,-255.2 483,-279 478.1,-282.17 472.75,-285 467.26,-287.51"/>
<polygon fill="#63b8ff" stroke="#63b8ff" points="575.27,-193.43 578.52,-183.35 569.69,-189.21 575.27,-193.43"/>
</a>
</g>
</g>
<!-- Node3 -->
<g id="Node000003" class="node">
<title>Node3</title>
<g id="a_Node000003"><a xlink:href="class_task_a_p_i_1_1_helpers_1_1_spot_helper.html#a701fc9c0beaecff83beb2c806b8581d5" target="_top" xlink:title="Retrieves spot data from Binance for each specified asset.">
<polygon fill="white" stroke="#666666" points="483,-270 340.25,-270 340.25,-238 483,-238 483,-270"/>
<text text-anchor="start" x="348.25" y="-256.5" font-family="Helvetica,sans-Serif" font-size="10.00">TaskAPI.Helpers.SpotHelper.</text>
<text text-anchor="middle" x="411.62" y="-244.5" font-family="Helvetica,sans-Serif" font-size="10.00">PullBinanceData</text>
</a>
</g>
</g>
<!-- Node1&#45;&gt;Node3 -->
<g id="edge2_Node000001_Node000003" class="edge">
<title>Node1&#45;&gt;Node3</title>
<g id="a_edge2_Node000001_Node000003"><a xlink:title=" ">
<path fill="none" stroke="#63b8ff" d="M552.1,-187.94C531.76,-199.18 506.28,-212.81 483,-224 473.3,-228.66 462.7,-233.38 452.73,-237.64"/>
<polygon fill="#63b8ff" stroke="#63b8ff" points="553.58,-191.13 560.62,-183.21 550.18,-185.01 553.58,-191.13"/>
</a>
</g>
</g>
<!-- Node4 -->
<g id="Node000004" class="node">
<title>Node4</title>
<g id="a_Node000004"><a xlink:href="class_task_a_p_i_1_1_helpers_1_1_spot_helper.html#a7b75f44b3310036d4de7f0f2956bbac1" target="_top" xlink:title="Pulls, saves, and trims spot data from various sources.">
<polygon fill="white" stroke="#666666" points="304.25,-157 161.5,-157 161.5,-125 304.25,-125 304.25,-157"/>
<text text-anchor="start" x="169.5" y="-143.5" font-family="Helvetica,sans-Serif" font-size="10.00">TaskAPI.Helpers.SpotHelper.</text>
<text text-anchor="middle" x="232.88" y="-131.5" font-family="Helvetica,sans-Serif" font-size="10.00">PullSaveTrim</text>
</a>
</g>
</g>
<!-- Node1&#45;&gt;Node4 -->
<g id="edge11_Node000001_Node000004" class="edge">
<title>Node1&#45;&gt;Node4</title>
<g id="a_edge11_Node000001_Node000004"><a xlink:title=" ">
<path fill="none" stroke="#63b8ff" d="M520.1,-184.93C469.5,-195.6 400.06,-204.36 340.25,-191 311.37,-184.55 281.08,-169.37 260.24,-157.41"/>
<polygon fill="#63b8ff" stroke="#63b8ff" points="520.75,-188.37 529.76,-182.81 519.25,-181.53 520.75,-188.37"/>
</a>
</g>
</g>
<!-- Node6 -->
<g id="Node000006" class="node">
<title>Node6</title>
<g id="a_Node000006"><a xlink:href="class_task_a_p_i_1_1_helpers_1_1_spot_helper.html#a51135865d712678dee52479c109a61fb" target="_top" xlink:title="pull data from forexfeed in one hit, check single time variation is within threshold add items to spo...">
<polygon fill="white" stroke="#666666" points="483,-182 340.25,-182 340.25,-150 483,-150 483,-182"/>
<text text-anchor="start" x="348.25" y="-168.5" font-family="Helvetica,sans-Serif" font-size="10.00">TaskAPI.Helpers.SpotHelper.</text>
<text text-anchor="middle" x="411.62" y="-156.5" font-family="Helvetica,sans-Serif" font-size="10.00">PullForexData</text>
</a>
</g>
</g>
<!-- Node1&#45;&gt;Node6 -->
<g id="edge5_Node000001_Node000006" class="edge">
<title>Node1&#45;&gt;Node6</title>
<g id="a_edge5_Node000001_Node000006"><a xlink:title=" ">
<path fill="none" stroke="#63b8ff" d="M507.31,-166C499.26,-166 491.15,-166 483.24,-166"/>
<polygon fill="#63b8ff" stroke="#63b8ff" points="507.12,-169.5 517.12,-166 507.12,-162.5 507.12,-169.5"/>
</a>
</g>
</g>
<!-- Node7 -->
<g id="Node000007" class="node">
<title>Node7</title>
<g id="a_Node000007"><a xlink:href="class_task_a_p_i_1_1_helpers_1_1_spot_helper.html#a0fd06a80c097c9b6fcd5ddd8b1889c18" target="_top" xlink:title="Retrieves spot data from Oanda for each specified asset.">
<polygon fill="white" stroke="#666666" points="483,-132 340.25,-132 340.25,-100 483,-100 483,-132"/>
<text text-anchor="start" x="348.25" y="-118.5" font-family="Helvetica,sans-Serif" font-size="10.00">TaskAPI.Helpers.SpotHelper.</text>
<text text-anchor="middle" x="411.62" y="-106.5" font-family="Helvetica,sans-Serif" font-size="10.00">PullOandaData</text>
</a>
</g>
</g>
<!-- Node1&#45;&gt;Node7 -->
<g id="edge7_Node000001_Node000007" class="edge">
<title>Node1&#45;&gt;Node7</title>
<g id="a_edge7_Node000001_Node000007"><a xlink:title=" ">
<path fill="none" stroke="#63b8ff" d="M521.75,-146.61C505.13,-141.95 487.53,-137.01 471.43,-132.49"/>
<polygon fill="#63b8ff" stroke="#63b8ff" points="520.48,-149.89 531.05,-149.22 522.37,-143.15 520.48,-149.89"/>
</a>
</g>
</g>
<!-- Node8 -->
<g id="Node000008" class="node">
<title>Node8</title>
<g id="a_Node000008"><a xlink:href="class_task_a_p_i_1_1_helpers_1_1_spot_helper.html#a2ad64affbfeec15e4217d8bfccd982ff" target="_top" xlink:title="Pulls spot data from Polygon Oracle for each specified asset.">
<polygon fill="white" stroke="#666666" points="483,-82 340.25,-82 340.25,-50 483,-50 483,-82"/>
<text text-anchor="start" x="348.25" y="-68.5" font-family="Helvetica,sans-Serif" font-size="10.00">TaskAPI.Helpers.SpotHelper.</text>
<text text-anchor="middle" x="411.62" y="-56.5" font-family="Helvetica,sans-Serif" font-size="10.00">PullPolygonOracleData</text>
</a>
</g>
</g>
<!-- Node1&#45;&gt;Node8 -->
<g id="edge9_Node000001_Node000008" class="edge">
<title>Node1&#45;&gt;Node8</title>
<g id="a_edge9_Node000001_Node000008"><a xlink:title=" ">
<path fill="none" stroke="#63b8ff" d="M561.83,-142.61C540.84,-126.54 511.33,-105.55 483,-91 477,-87.92 470.54,-85.06 464.04,-82.46"/>
<polygon fill="#63b8ff" stroke="#63b8ff" points="559.59,-145.31 569.64,-148.68 563.89,-139.78 559.59,-145.31"/>
</a>
</g>
</g>
<!-- Node9 -->
<g id="Node000009" class="node">
<title>Node9</title>
<g id="a_Node000009"><a xlink:href="class_task_a_p_i_1_1_helpers_1_1_spot_helper.html#a95400211c9214b34c8427e09776449a9" target="_top" xlink:title="Recycles the previous spot data for the given BaseSpot from the database.">
<polygon fill="white" stroke="#666666" points="483,-32 340.25,-32 340.25,0 483,0 483,-32"/>
<text text-anchor="start" x="348.25" y="-18.5" font-family="Helvetica,sans-Serif" font-size="10.00">TaskAPI.Helpers.SpotHelper.</text>
<text text-anchor="middle" x="411.62" y="-6.5" font-family="Helvetica,sans-Serif" font-size="10.00">RecyclePreviousSpot</text>
</a>
</g>
</g>
<!-- Node1&#45;&gt;Node9 -->
<g id="edge12_Node000001_Node000009" class="edge">
<title>Node1&#45;&gt;Node9</title>
<g id="a_edge12_Node000001_Node000009"><a xlink:title=" ">
<path fill="none" stroke="#63b8ff" d="M574.69,-140.3C555.83,-112.27 522.19,-67.82 483,-41 478.29,-37.78 473.12,-34.93 467.79,-32.41"/>
<polygon fill="#63b8ff" stroke="#63b8ff" points="571.71,-142.13 580.13,-148.56 577.56,-138.28 571.71,-142.13"/>
</a>
</g>
</g>
<!-- Node3&#45;&gt;Node4 -->
<g id="edge3_Node000003_Node000004" class="edge">
<title>Node3&#45;&gt;Node4</title>
<g id="a_edge3_Node000003_Node000004"><a xlink:title=" ">
<path fill="none" stroke="#63b8ff" d="M356.97,-232.87C351.22,-230.09 345.54,-227.12 340.25,-224 306.75,-204.25 271.97,-175.21 251.65,-157.24"/>
<polygon fill="#63b8ff" stroke="#63b8ff" points="355.41,-236 365.95,-237.01 358.34,-229.64 355.41,-236"/>
</a>
</g>
</g>
<!-- Node5 -->
<g id="Node000005" class="node">
<title>Node5</title>
<g id="a_Node000005"><a xlink:href="class_task_a_p_i_1_1_controllers_1_1_spot_controller.html#adc5d733d4c39f2ecdaad8d8bf2231731" target="_top" xlink:title="Initiates synchronisation of spot data.">
<polygon fill="white" stroke="#666666" points="125.5,-157 0,-157 0,-125 125.5,-125 125.5,-157"/>
<text text-anchor="start" x="8" y="-143.5" font-family="Helvetica,sans-Serif" font-size="10.00">TaskAPI.Controllers.Spot</text>
<text text-anchor="middle" x="62.75" y="-131.5" font-family="Helvetica,sans-Serif" font-size="10.00">Controller.Sync</text>
</a>
</g>
</g>
<!-- Node4&#45;&gt;Node5 -->
<g id="edge4_Node000004_Node000005" class="edge">
<title>Node4&#45;&gt;Node5</title>
<g id="a_edge4_Node000004_Node000005"><a xlink:title=" ">
<path fill="none" stroke="#63b8ff" d="M149.77,-141C141.76,-141 133.72,-141 125.94,-141"/>
<polygon fill="#63b8ff" stroke="#63b8ff" points="149.55,-144.5 159.55,-141 149.55,-137.5 149.55,-144.5"/>
</a>
</g>
</g>
<!-- Node6&#45;&gt;Node4 -->
<g id="edge6_Node000006_Node000004" class="edge">
<title>Node6&#45;&gt;Node4</title>
<g id="a_edge6_Node000006_Node000004"><a xlink:title=" ">
<path fill="none" stroke="#63b8ff" d="M328.48,-154.38C320.46,-153.25 312.37,-152.1 304.48,-150.99"/>
<polygon fill="#63b8ff" stroke="#63b8ff" points="327.86,-157.83 338.25,-155.76 328.84,-150.9 327.86,-157.83"/>
</a>
</g>
</g>
<!-- Node7&#45;&gt;Node4 -->
<g id="edge8_Node000007_Node000004" class="edge">
<title>Node7&#45;&gt;Node4</title>
<g id="a_edge8_Node000007_Node000004"><a xlink:title=" ">
<path fill="none" stroke="#63b8ff" d="M328.48,-127.62C320.46,-128.75 312.37,-129.9 304.48,-131.01"/>
<polygon fill="#63b8ff" stroke="#63b8ff" points="328.84,-131.1 338.25,-126.24 327.86,-124.17 328.84,-131.1"/>
</a>
</g>
</g>
<!-- Node8&#45;&gt;Node4 -->
<g id="edge10_Node000008_Node000004" class="edge">
<title>Node8&#45;&gt;Node4</title>
<g id="a_edge10_Node000008_Node000004"><a xlink:title=" ">
<path fill="none" stroke="#63b8ff" d="M351.84,-86.39C347.9,-87.91 344.01,-89.45 340.25,-91 315.15,-101.33 287.42,-114.42 266.57,-124.62"/>
<polygon fill="#63b8ff" stroke="#63b8ff" points="352.76,-89.79 360.89,-82.99 350.3,-83.23 352.76,-89.79"/>
</a>
</g>
</g>
<!-- Node9&#45;&gt;Node4 -->
<g id="edge13_Node000009_Node000004" class="edge">
<title>Node9&#45;&gt;Node4</title>
<g id="a_edge13_Node000009_Node000004"><a xlink:title=" ">
<path fill="none" stroke="#63b8ff" d="M346.54,-37.43C344.38,-38.57 342.28,-39.76 340.25,-41 302.17,-64.24 266.17,-102.79 247.39,-124.61"/>
<polygon fill="#63b8ff" stroke="#63b8ff" points="348.04,-40.59 355.53,-33.09 345.01,-34.28 348.04,-40.59"/>
</a>
</g>
</g>
</g>
</svg>

<g id="navigator" transform="translate(0 0)" fill="#404254">
  <rect fill="#f2f5e9" fill-opacity="0.5" stroke="#606060" stroke-width=".5" x="0" y="0" width="60" height="60"/>
  <use id="zoomplus" xlink:href="#zoomPlus" x="17" y="9" onmousedown="handleZoom(evt,'in')"/>
  <use id="zoomminus" xlink:href="#zoomMin" x="42" y="9" onmousedown="handleZoom(evt,'out')"/>
  <use id="reset" xlink:href="#resetDef" x="30" y="36" onmousedown="handleReset()"/>
   <use id="arrowup" xlink:href="#arrowUp" x="0" y="0" onmousedown="handlePan(0,-1)"/>
  <use id="arrowright" xlink:href="#arrowRight" x="0" y="0" onmousedown="handlePan(1,0)"/>
  <use id="arrowdown" xlink:href="#arrowDown" x="0" y="0" onmousedown="handlePan(0,1)"/>
  <use id="arrowleft" xlink:href="#arrowLeft" x="0" y="0" onmousedown="handlePan(-1,0)"/>
</g>
<svg viewBox="0 0 15 15" width="100%" height="30px" preserveAspectRatio="xMaxYMin meet">
 <g id="arrow_out" transform="scale(0.3 0.3)">
  <a xlink:href="class_task_a_p_i_1_1_services_1_1_log_service_a6be037b34888bbcf6b47dca8eef472de_icgraph_org.svg" target="_base">
   <rect id="button" ry="5" rx="5" y="6" x="6" height="38" width="38"
        fill="#f2f5e9" fill-opacity="0.5" stroke="#606060" stroke-width="1.0"/>
   <path id="arrow"
     d="M 11.500037,31.436501 C 11.940474,20.09759 22.043105,11.32322 32.158766,21.979434 L 37.068811,17.246167 C 37.068811,17.246167 37.088388,32 37.088388,32 L 22.160133,31.978069 C 22.160133,31.978069 26.997745,27.140456 26.997745,27.140456 C 18.528582,18.264221 13.291696,25.230495 11.500037,31.436501 z"
     style="fill:#404040;"/>
  </a>
 </g>
</svg>

<style type='text/css'>
<![CDATA[
[data-mouse-over-selected='false'] { opacity: 0.7; }
[data-mouse-over-selected='true']  { opacity: 1.0; }
]]>
</style>
<script type="application/ecmascript"><![CDATA[
document.addEventListener('DOMContentLoaded', (event) => {
  highlightEdges();
  highlightAdjacentNodes();
});
]]></script>
</svg>
