<?xml version="1.0" encoding="UTF-8" standalone="no"?>
<!DOCTYPE svg PUBLIC "-//W3C//DTD SVG 1.1//EN"
 "http://www.w3.org/Graphics/SVG/1.1/DTD/svg11.dtd">
<!-- Generated by graphviz version 9.0.0 (20230911.1827)
 -->
<!-- Title: TaskAPI.Models.DTO.InternalAPI.DailyCloseChartItem Pages: 1 -->
<svg width="146pt" height="120pt"
 viewBox="0.00 0.00 146.00 120.00" xmlns="http://www.w3.org/2000/svg" xmlns:xlink="http://www.w3.org/1999/xlink">
<g id="graph0" class="graph" transform="scale(1 1) rotate(0) translate(4 116)">
<title>TaskAPI.Models.DTO.InternalAPI.DailyCloseChartItem</title>
<!-- Node1 -->
<g id="Node000001" class="node">
<title>Node1</title>
<g id="a_Node000001"><a xlink:title=" ">
<polygon fill="#999999" stroke="none" points="138,-112 0,-112 0,0 138,0 138,-112"/>
<text text-anchor="start" x="4.88" y="-98.5" font-family="Helvetica,sans-Serif" font-size="10.00">TaskAPI.Models.DTO.Internal</text>
<text text-anchor="start" x="15.38" y="-86.5" font-family="Helvetica,sans-Serif" font-size="10.00">API.DailyCloseChartItem</text>
<text text-anchor="start" x="16.5" y="-70.5" font-family="Helvetica,sans-Serif" font-size="10.00">+</text>
<text text-anchor="start" x="39" y="-70.5" font-family="Helvetica,sans-Serif" font-size="10.00">long Timestamp</text>
<text text-anchor="start" x="16.5" y="-54.5" font-family="Helvetica,sans-Serif" font-size="10.00">+</text>
<text text-anchor="start" x="39" y="-54.5" font-family="Helvetica,sans-Serif" font-size="10.00">string Metal</text>
<text text-anchor="start" x="16.5" y="-38.5" font-family="Helvetica,sans-Serif" font-size="10.00">+</text>
<text text-anchor="start" x="39" y="-38.5" font-family="Helvetica,sans-Serif" font-size="10.00">string Currency</text>
<text text-anchor="start" x="16.5" y="-22.5" font-family="Helvetica,sans-Serif" font-size="10.00">+</text>
<text text-anchor="start" x="39" y="-22.5" font-family="Helvetica,sans-Serif" font-size="10.00">decimal Spot</text>
<text text-anchor="start" x="67.5" y="-6.5" font-family="Helvetica,sans-Serif" font-size="10.00"> </text>
<polygon fill="#666666" stroke="#666666" points="0,-82 0,-82 138,-82 138,-82 0,-82"/>
<polygon fill="#666666" stroke="#666666" points="0,-18 0,-18 37,-18 37,-18 0,-18"/>
<polygon fill="#666666" stroke="#666666" points="37,-18 37,-18 138,-18 138,-18 37,-18"/>
<polygon fill="none" stroke="#666666" points="0,0 0,-112 138,-112 138,0 0,0"/>
</a>
</g>
</g>
</g>
</svg>
