<?xml version="1.0" encoding="UTF-8" standalone="no"?>
<!DOCTYPE svg PUBLIC "-//W3C//DTD SVG 1.1//EN"
 "http://www.w3.org/Graphics/SVG/1.1/DTD/svg11.dtd">
<!-- Generated by graphviz version 9.0.0 (20230911.1827)
 -->
<!-- Title: TaskAPI.Helpers.PriceappHelper Pages: 1 -->
<!--zoomable 354 -->

<svg id="main" version="1.1" xmlns="http://www.w3.org/2000/svg" xmlns:xlink="http://www.w3.org/1999/xlink" xml:space="preserve" onload="init(evt)">
<style type="text/css"><![CDATA[
.node, .edge {opacity: 0.7;}
.node.selected, .edge.selected {opacity: 1;}
.edge:hover path { stroke: red; }
.edge:hover polygon { stroke: red; fill: red; }
]]></style>

<defs>
  <circle id="rim" cx="0" cy="0" r="7"/>
  <circle id="rim2" cx="0" cy="0" r="3.5"/>
  <g id="zoomPlus">
    <use xlink:href="#rim" fill="#404040"><set attributeName="fill" to="#808080" begin="zoomplus.mouseover" end="zoomplus.mouseout"/></use>
    <path d="M-4,0h8M0,-4v8" fill="none" stroke="white" stroke-width="1.5" pointer-events="none"/>
  </g>
  <g id="zoomMin">
    <use xlink:href="#rim" fill="#404040"><set attributeName="fill" to="#808080" begin="zoomminus.mouseover" end="zoomminus.mouseout"/></use>
    <path d="M-4,0h8" fill="none" stroke="white" stroke-width="1.5" pointer-events="none"/>
  </g>
  <g id="arrowUp" transform="translate(30 24)">
    <use xlink:href="#rim"/>
    <path pointer-events="none" fill="none" stroke="white" stroke-width="1.5" d="M0,-3.0v7 M-2.5,-0.5L0,-3.0L2.5,-0.5"/>
  </g>
  <g id="arrowRight" transform="rotate(90) translate(36 -43)">
    <use xlink:href="#rim"/>
    <path pointer-events="none" fill="none" stroke="white" stroke-width="1.5" d="M0,-3.0v7 M-2.5,-0.5L0,-3.0L2.5,-0.5"/>
  </g>
  <g id="arrowDown" transform="rotate(180) translate(-30 -48)">
    <use xlink:href="#rim"/>
    <path pointer-events="none" fill="none" stroke="white" stroke-width="1.5" d="M0,-3.0v7 M-2.5,-0.5L0,-3.0L2.5,-0.5"/>
  </g>
  <g id="arrowLeft" transform="rotate(270) translate(-36 17)">
    <use xlink:href="#rim"/>
    <path pointer-events="none" fill="none" stroke="white" stroke-width="1.5" d="M0,-3.0v7 M-2.5,-0.5L0,-3.0L2.5,-0.5"/>
  </g>
  <g id="resetDef">
    <use xlink:href="#rim2" fill="#404040"><set attributeName="fill" to="#808080" begin="reset.mouseover" end="reset.mouseout"/></use>
  </g>
</defs>
<script type="application/ecmascript">
var viewWidth = 1073;
var viewHeight = 354;
var sectionId = 'dynsection-0';
</script>
<script type="application/ecmascript" xlink:href="svg.min.js"/>
<svg id="graph" class="graph">
<g id="viewport">
<title>TaskAPI.Helpers.PriceappHelper</title>
<!-- Node1 -->
<g id="Node000001" class="node">
<title>Node1</title>
<g id="a_Node000001"><a xlink:title="Helper class for managing operations related to the Priceapp functionality.">
<polygon fill="#999999" stroke="#666666" points="1064.5,-197.54 934.5,-197.54 934.5,-165.54 1064.5,-165.54 1064.5,-197.54"/>
<text text-anchor="start" x="942.5" y="-184.04" font-family="Helvetica,sans-Serif" font-size="10.00">TaskAPI.Helpers.Priceapp</text>
<text text-anchor="middle" x="999.5" y="-172.04" font-family="Helvetica,sans-Serif" font-size="10.00">Helper</text>
</a>
</g>
</g>
<!-- Node2 -->
<g id="Node000002" class="node">
<title>Node2</title>
<g id="a_Node000002"><a xlink:href="class_task_a_p_i_1_1_services_1_1_log_service.html" target="_top" xlink:title="Provides logging services for various levels of application events, including debug,...">
<polygon fill="white" stroke="#666666" points="581.75,-295.54 439,-295.54 439,-275.54 581.75,-275.54 581.75,-295.54"/>
<text text-anchor="middle" x="510.38" y="-282.04" font-family="Helvetica,sans-Serif" font-size="10.00">TaskAPI.Services.LogService</text>
</a>
</g>
</g>
<!-- Node2&#45;&gt;Node1 -->
<g id="edge1_Node000001_Node000002" class="edge">
<title>Node2&#45;&gt;Node1</title>
<g id="a_edge1_Node000001_Node000002"><a xlink:title=" ">
<path fill="none" stroke="#9a32cd" stroke-dasharray="5,2" d="M546.87,-299.91C562.78,-305.74 581.94,-311.94 599.75,-315.54 696.6,-335.07 725.72,-342.72 822,-320.54 867.52,-310.05 879.33,-302.83 916.5,-274.54 945.96,-252.11 972.85,-217.84 987.32,-197.76"/>
<polygon fill="#9a32cd" stroke="#9a32cd" points="548.43,-296.76 537.84,-296.5 545.96,-303.31 548.43,-296.76"/>
</a>
</g>
<text text-anchor="middle" x="746.12" y="-336.04" font-family="Helvetica,sans-Serif" font-size="10.00" fill="grey"> _logService</text>
</g>
<!-- Node6 -->
<g id="Node000006" class="node">
<title>Node6</title>
<g id="a_Node000006"><a xlink:href="class_task_a_p_i_1_1_services_1_1_forex_service.html" target="_top" xlink:title="Provides methods for interacting with a Forex data feed.">
<polygon fill="white" stroke="#666666" points="822,-147.54 670.25,-147.54 670.25,-127.54 822,-127.54 822,-147.54"/>
<text text-anchor="middle" x="746.12" y="-134.04" font-family="Helvetica,sans-Serif" font-size="10.00">TaskAPI.Services.ForexService</text>
</a>
</g>
</g>
<!-- Node2&#45;&gt;Node6 -->
<g id="edge6_Node000006_Node000002" class="edge">
<title>Node2&#45;&gt;Node6</title>
<g id="a_edge6_Node000006_Node000002"><a xlink:title=" ">
<path fill="none" stroke="#9a32cd" stroke-dasharray="5,2" d="M539.54,-268.96C553.46,-259.79 569.79,-247.43 581.75,-233.54 592.9,-220.58 588.03,-211.99 599.75,-199.54 624.9,-172.81 636.42,-170.76 670.25,-156.54 678.16,-153.21 686.8,-150.36 695.3,-147.95"/>
<polygon fill="#9a32cd" stroke="#9a32cd" points="537.78,-265.93 531.21,-274.25 541.53,-271.84 537.78,-265.93"/>
</a>
</g>
<text text-anchor="middle" x="626" y="-202.04" font-family="Helvetica,sans-Serif" font-size="10.00" fill="grey"> _logService</text>
</g>
<!-- Node7 -->
<g id="Node000007" class="node">
<title>Node7</title>
<g id="a_Node000007"><a xlink:href="class_task_a_p_i_1_1_services_1_1_alchemy_service.html" target="_top" xlink:title="Provides functionality to interact with the Alchemy API for blockchain data retrieval.">
<polygon fill="white" stroke="#666666" points="813,-247.54 679.25,-247.54 679.25,-215.54 813,-215.54 813,-247.54"/>
<text text-anchor="start" x="687.25" y="-234.04" font-family="Helvetica,sans-Serif" font-size="10.00">TaskAPI.Services.Alchemy</text>
<text text-anchor="middle" x="746.12" y="-222.04" font-family="Helvetica,sans-Serif" font-size="10.00">Service</text>
</a>
</g>
</g>
<!-- Node2&#45;&gt;Node7 -->
<g id="edge9_Node000007_Node000002" class="edge">
<title>Node2&#45;&gt;Node7</title>
<g id="a_edge9_Node000007_Node000002"><a xlink:title=" ">
<path fill="none" stroke="#9a32cd" stroke-dasharray="5,2" d="M593.38,-275.24C612.81,-272.11 633.37,-268.22 652.25,-263.54 668.97,-259.38 686.95,-253.53 702.6,-247.96"/>
<polygon fill="#9a32cd" stroke="#9a32cd" points="592.93,-271.76 583.58,-276.76 594,-278.68 592.93,-271.76"/>
</a>
</g>
<text text-anchor="middle" x="626" y="-276.04" font-family="Helvetica,sans-Serif" font-size="10.00" fill="grey"> _logService</text>
</g>
<!-- Node8 -->
<g id="Node000008" class="node">
<title>Node8</title>
<g id="a_Node000008"><a xlink:href="class_task_a_p_i_1_1_services_1_1_binance_service.html" target="_top" xlink:title="Provides access to Binance cryptocurrency data.">
<polygon fill="white" stroke="#666666" points="811.5,-197.54 680.75,-197.54 680.75,-165.54 811.5,-165.54 811.5,-197.54"/>
<text text-anchor="start" x="688.75" y="-184.04" font-family="Helvetica,sans-Serif" font-size="10.00">TaskAPI.Services.Binance</text>
<text text-anchor="middle" x="746.12" y="-172.04" font-family="Helvetica,sans-Serif" font-size="10.00">Service</text>
</a>
</g>
</g>
<!-- Node2&#45;&gt;Node8 -->
<g id="edge12_Node000008_Node000002" class="edge">
<title>Node2&#45;&gt;Node8</title>
<g id="a_edge12_Node000008_Node000002"><a xlink:title=" ">
<path fill="none" stroke="#9a32cd" stroke-dasharray="5,2" d="M539.86,-269.86C571.23,-252.96 623.44,-225.88 670.25,-206.54 677.47,-203.55 685.19,-200.66 692.82,-197.96"/>
<polygon fill="#9a32cd" stroke="#9a32cd" points="538.51,-266.61 531.38,-274.46 541.84,-272.77 538.51,-266.61"/>
</a>
</g>
<text text-anchor="middle" x="626" y="-239.04" font-family="Helvetica,sans-Serif" font-size="10.00" fill="grey"> _logService</text>
</g>
<!-- Node10 -->
<g id="Node000010" class="node">
<title>Node10</title>
<g id="a_Node000010"><a xlink:href="class_task_a_p_i_1_1_services_1_1_internal_a_p_i_service.html" target="_top" xlink:title="Provides a collection of services for interacting with internal API endpoints, including sending emai...">
<polygon fill="white" stroke="#666666" points="809.62,-311.54 682.62,-311.54 682.62,-279.54 809.62,-279.54 809.62,-311.54"/>
<text text-anchor="start" x="690.62" y="-298.04" font-family="Helvetica,sans-Serif" font-size="10.00">TaskAPI.Services.Internal</text>
<text text-anchor="middle" x="746.12" y="-286.04" font-family="Helvetica,sans-Serif" font-size="10.00">APIService</text>
</a>
</g>
</g>
<!-- Node2&#45;&gt;Node10 -->
<g id="edge18_Node000010_Node000002" class="edge">
<title>Node2&#45;&gt;Node10</title>
<g id="a_edge18_Node000010_Node000002"><a xlink:title=" ">
<path fill="none" stroke="#9a32cd" stroke-dasharray="5,2" d="M586.29,-297.33C590.84,-297.8 595.35,-298.21 599.75,-298.54 626.82,-300.52 656.78,-300.3 682.45,-299.39"/>
<polygon fill="#9a32cd" stroke="#9a32cd" points="586.81,-293.86 576.47,-296.2 586.01,-300.82 586.81,-293.86"/>
</a>
</g>
<text text-anchor="middle" x="626" y="-302.04" font-family="Helvetica,sans-Serif" font-size="10.00" fill="grey"> _logService</text>
</g>
<!-- Node3 -->
<g id="Node000003" class="node">
<title>Node3</title>
<g id="a_Node000003"><a xlink:href="class_task_a_p_i_1_1_contexts_1_1_task_a_p_i_context.html" target="_top" xlink:title=" ">
<polygon fill="white" stroke="#666666" points="267,-331.54 98.75,-331.54 98.75,-311.54 267,-311.54 267,-331.54"/>
<text text-anchor="middle" x="182.88" y="-318.04" font-family="Helvetica,sans-Serif" font-size="10.00">TaskAPI.Contexts.TaskAPIContext</text>
</a>
</g>
</g>
<!-- Node3&#45;&gt;Node2 -->
<g id="edge2_Node000002_Node000003" class="edge">
<title>Node3&#45;&gt;Node2</title>
<g id="a_edge2_Node000002_Node000003"><a xlink:title=" ">
<path fill="none" stroke="#9a32cd" stroke-dasharray="5,2" d="M278.67,-311.05C329.76,-305.4 391.74,-298.55 438.59,-293.36"/>
<polygon fill="#9a32cd" stroke="#9a32cd" points="278.34,-307.57 268.78,-312.14 279.11,-314.52 278.34,-307.57"/>
</a>
</g>
<text text-anchor="middle" x="353" y="-312.04" font-family="Helvetica,sans-Serif" font-size="10.00" fill="grey"> _context</text>
</g>
<!-- Node4 -->
<g id="Node000004" class="node">
<title>Node4</title>
<g id="a_Node000004"><a xlink:title=" ">
<polygon fill="white" stroke="#666666" points="61.75,-131.54 0,-131.54 0,-111.54 61.75,-111.54 61.75,-131.54"/>
<text text-anchor="middle" x="30.88" y="-118.04" font-family="Helvetica,sans-Serif" font-size="10.00">DbContext</text>
</a>
</g>
</g>
<!-- Node4&#45;&gt;Node3 -->
<g id="edge3_Node000003_Node000004" class="edge">
<title>Node4&#45;&gt;Node3</title>
<g id="a_edge3_Node000003_Node000004"><a xlink:title=" ">
<path fill="none" stroke="#63b8ff" d="M44.93,-141.4C58.11,-161.23 79.25,-192.42 98.75,-218.54 124.73,-253.34 157.66,-292.89 173.11,-311.21"/>
<polygon fill="#63b8ff" stroke="#63b8ff" points="47.93,-139.58 39.49,-133.17 42.09,-143.44 47.93,-139.58"/>
</a>
</g>
</g>
<!-- Node9 -->
<g id="Node000009" class="node">
<title>Node9</title>
<g id="a_Node000009"><a xlink:href="class_task_a_p_i_1_1_contexts_1_1_priceapp_context.html" target="_top" xlink:title=" ">
<polygon fill="white" stroke="#666666" points="421,-57.54 285,-57.54 285,-25.54 421,-25.54 421,-57.54"/>
<text text-anchor="start" x="293" y="-44.04" font-family="Helvetica,sans-Serif" font-size="10.00">TaskAPI.Contexts.Priceapp</text>
<text text-anchor="middle" x="353" y="-32.04" font-family="Helvetica,sans-Serif" font-size="10.00">Context</text>
</a>
</g>
</g>
<!-- Node4&#45;&gt;Node9 -->
<g id="edge16_Node000009_Node000004" class="edge">
<title>Node4&#45;&gt;Node9</title>
<g id="a_edge16_Node000009_Node000004"><a xlink:title=" ">
<path fill="none" stroke="#63b8ff" d="M72.83,-111.3C126.68,-97.84 221.94,-74.04 286.02,-58.02"/>
<polygon fill="#63b8ff" stroke="#63b8ff" points="72.31,-107.82 63.46,-113.64 74.01,-114.61 72.31,-107.82"/>
</a>
</g>
</g>
<!-- Node5 -->
<g id="Node000005" class="node">
<title>Node5</title>
<g id="a_Node000005"><a xlink:href="class_task_a_p_i_1_1_helpers_1_1_settings_1_1_task_a_p_i_settings.html" target="_top" xlink:title=" ">
<polygon fill="white" stroke="#666666" points="248.25,-209.54 117.5,-209.54 117.5,-177.54 248.25,-177.54 248.25,-209.54"/>
<text text-anchor="start" x="125.5" y="-196.04" font-family="Helvetica,sans-Serif" font-size="10.00">TaskAPI.Helpers.Settings.</text>
<text text-anchor="middle" x="182.88" y="-184.04" font-family="Helvetica,sans-Serif" font-size="10.00">TaskAPISettings</text>
</a>
</g>
</g>
<!-- Node5&#45;&gt;Node1 -->
<g id="edge14_Node000001_Node000005" class="edge">
<title>Node5&#45;&gt;Node1</title>
<g id="a_edge14_Node000001_Node000005"><a xlink:title=" ">
<path fill="none" stroke="#9a32cd" stroke-dasharray="5,2" d="M227.65,-172.48C245.11,-164.97 265.63,-157.21 285,-152.54 517.46,-96.4 585.67,-81.92 822,-118.54 873.6,-126.53 929.88,-149.26 964.68,-165.11"/>
<polygon fill="#9a32cd" stroke="#9a32cd" points="226.33,-169.24 218.6,-176.49 229.16,-175.64 226.33,-169.24"/>
</a>
</g>
<text text-anchor="middle" x="626" y="-101.04" font-family="Helvetica,sans-Serif" font-size="10.00" fill="grey"> _settings</text>
</g>
<!-- Node5&#45;&gt;Node2 -->
<g id="edge4_Node000002_Node000005" class="edge">
<title>Node5&#45;&gt;Node2</title>
<g id="a_edge4_Node000002_Node000005"><a xlink:title=" ">
<path fill="none" stroke="#9a32cd" stroke-dasharray="5,2" d="M234.57,-213.98C250.56,-220.05 268.39,-226.44 285,-231.54 343.6,-249.52 412.3,-265.3 458.1,-275.08"/>
<polygon fill="#9a32cd" stroke="#9a32cd" points="235.84,-210.72 225.25,-210.39 233.32,-217.25 235.84,-210.72"/>
</a>
</g>
<text text-anchor="middle" x="353" y="-268.04" font-family="Helvetica,sans-Serif" font-size="10.00" fill="grey"> _settings</text>
</g>
<!-- Node5&#45;&gt;Node6 -->
<g id="edge7_Node000006_Node000005" class="edge">
<title>Node5&#45;&gt;Node6</title>
<g id="a_edge7_Node000006_Node000005"><a xlink:title=" ">
<path fill="none" stroke="#9a32cd" stroke-dasharray="5,2" d="M259.66,-178.76C268.2,-177.26 276.78,-175.81 285,-174.54 353.14,-163.94 370.32,-161.78 439,-155.54 517.6,-148.38 607.83,-143.48 669.86,-140.62"/>
<polygon fill="#9a32cd" stroke="#9a32cd" points="259.22,-175.28 250,-180.5 260.46,-182.17 259.22,-175.28"/>
</a>
</g>
<text text-anchor="middle" x="510.38" y="-158.04" font-family="Helvetica,sans-Serif" font-size="10.00" fill="grey"> _settings</text>
</g>
<!-- Node5&#45;&gt;Node7 -->
<g id="edge10_Node000007_Node000005" class="edge">
<title>Node5&#45;&gt;Node7</title>
<g id="a_edge10_Node000007_Node000005"><a xlink:title=" ">
<path fill="none" stroke="#9a32cd" stroke-dasharray="5,2" d="M259.92,-198.68C370.58,-206.18 574.18,-219.96 678.97,-227.06"/>
<polygon fill="#9a32cd" stroke="#9a32cd" points="260.26,-195.2 250.04,-198.02 259.78,-202.18 260.26,-195.2"/>
</a>
</g>
<text text-anchor="middle" x="510.38" y="-222.04" font-family="Helvetica,sans-Serif" font-size="10.00" fill="grey"> _settings</text>
</g>
<!-- Node5&#45;&gt;Node8 -->
<g id="edge13_Node000008_Node000005" class="edge">
<title>Node5&#45;&gt;Node8</title>
<g id="a_edge13_Node000008_Node000005"><a xlink:title=" ">
<path fill="none" stroke="#9a32cd" stroke-dasharray="5,2" d="M260.06,-188.29C343.42,-182.84 481.02,-174.67 599.75,-171.54 623.08,-170.92 628.95,-170.28 652.25,-171.54 661.4,-172.03 671.03,-172.79 680.49,-173.68"/>
<polygon fill="#9a32cd" stroke="#9a32cd" points="259.92,-184.8 250.17,-188.95 260.38,-191.78 259.92,-184.8"/>
</a>
</g>
<text text-anchor="middle" x="510.38" y="-180.04" font-family="Helvetica,sans-Serif" font-size="10.00" fill="grey"> _settings</text>
</g>
<!-- Node5&#45;&gt;Node10 -->
<g id="edge19_Node000010_Node000005" class="edge">
<title>Node5&#45;&gt;Node10</title>
<g id="a_edge19_Node000010_Node000005"><a xlink:title=" ">
<path fill="none" stroke="#9a32cd" stroke-dasharray="5,2" d="M204.96,-218.5C223.76,-238.96 253.15,-266.85 285,-281.54 433.85,-350.19 489.25,-332.89 652.25,-315.54 662.01,-314.5 672.25,-312.86 682.22,-310.96"/>
<polygon fill="#9a32cd" stroke="#9a32cd" points="207.62,-216.22 198.35,-211.1 202.41,-220.89 207.62,-216.22"/>
</a>
</g>
<text text-anchor="middle" x="510.38" y="-333.04" font-family="Helvetica,sans-Serif" font-size="10.00" fill="grey"> _settings</text>
</g>
<!-- Node6&#45;&gt;Node1 -->
<g id="edge5_Node000001_Node000006" class="edge">
<title>Node6&#45;&gt;Node1</title>
<g id="a_edge5_Node000001_Node000006"><a xlink:title=" ">
<path fill="none" stroke="#9a32cd" stroke-dasharray="5,2" d="M824.44,-149.83C853.35,-154.56 886.46,-160.12 916.5,-165.54 922.21,-166.56 928.14,-167.66 934.08,-168.78"/>
<polygon fill="#9a32cd" stroke="#9a32cd" points="825.09,-146.39 814.65,-148.24 823.96,-153.3 825.09,-146.39"/>
</a>
</g>
<text text-anchor="middle" x="878.25" y="-168.04" font-family="Helvetica,sans-Serif" font-size="10.00" fill="grey"> _forexService</text>
</g>
<!-- Node7&#45;&gt;Node1 -->
<g id="edge8_Node000001_Node000007" class="edge">
<title>Node7&#45;&gt;Node1</title>
<g id="a_edge8_Node000001_Node000007"><a xlink:title=" ">
<path fill="none" stroke="#9a32cd" stroke-dasharray="5,2" d="M824.69,-216.11C859.87,-209.11 900.96,-200.94 934.36,-194.29"/>
<polygon fill="#9a32cd" stroke="#9a32cd" points="824.11,-212.65 814.98,-218.04 825.47,-219.52 824.11,-212.65"/>
</a>
</g>
<text text-anchor="middle" x="878.25" y="-214.04" font-family="Helvetica,sans-Serif" font-size="10.00" fill="grey"> _alchemyService</text>
</g>
<!-- Node8&#45;&gt;Node1 -->
<g id="edge11_Node000001_Node000008" class="edge">
<title>Node8&#45;&gt;Node1</title>
<g id="a_edge11_Node000001_Node000008"><a xlink:title=" ">
<path fill="none" stroke="#9a32cd" stroke-dasharray="5,2" d="M823.16,-181.54C858.69,-181.54 900.52,-181.54 934.42,-181.54"/>
<polygon fill="#9a32cd" stroke="#9a32cd" points="823.37,-178.04 813.37,-181.54 823.37,-185.04 823.37,-178.04"/>
</a>
</g>
<text text-anchor="middle" x="878.25" y="-184.04" font-family="Helvetica,sans-Serif" font-size="10.00" fill="grey"> _binanceService</text>
</g>
<!-- Node9&#45;&gt;Node1 -->
<g id="edge15_Node000001_Node000009" class="edge">
<title>Node9&#45;&gt;Node1</title>
<g id="a_edge15_Node000001_Node000009"><a xlink:title=" ">
<path fill="none" stroke="#9a32cd" stroke-dasharray="5,2" d="M431.62,-22.81C546.2,0.34 763.54,26.74 916.5,-61.54 957.37,-85.12 982.28,-138.28 992.75,-165.22"/>
<polygon fill="#9a32cd" stroke="#9a32cd" points="431.08,-19.35 422,-24.8 432.5,-26.2 431.08,-19.35"/>
</a>
</g>
<text text-anchor="middle" x="626" y="-4.04" font-family="Helvetica,sans-Serif" font-size="10.00" fill="grey"> _context</text>
</g>
<!-- Node10&#45;&gt;Node1 -->
<g id="edge17_Node000001_Node000010" class="edge">
<title>Node10&#45;&gt;Node1</title>
<g id="a_edge17_Node000001_Node000010"><a xlink:title=" ">
<path fill="none" stroke="#9a32cd" stroke-dasharray="5,2" d="M803.22,-275.11C836.59,-262.44 879.49,-245.25 916.5,-227.54 935.2,-218.58 955.53,-207.19 971.26,-197.99"/>
<polygon fill="#9a32cd" stroke="#9a32cd" points="802.28,-271.72 794.16,-278.52 804.75,-278.27 802.28,-271.72"/>
</a>
</g>
<text text-anchor="middle" x="878.25" y="-261.04" font-family="Helvetica,sans-Serif" font-size="10.00" fill="grey"> _iapiService</text>
</g>
</g>
</svg>

<g id="navigator" transform="translate(0 0)" fill="#404254">
  <rect fill="#f2f5e9" fill-opacity="0.5" stroke="#606060" stroke-width=".5" x="0" y="0" width="60" height="60"/>
  <use id="zoomplus" xlink:href="#zoomPlus" x="17" y="9" onmousedown="handleZoom(evt,'in')"/>
  <use id="zoomminus" xlink:href="#zoomMin" x="42" y="9" onmousedown="handleZoom(evt,'out')"/>
  <use id="reset" xlink:href="#resetDef" x="30" y="36" onmousedown="handleReset()"/>
   <use id="arrowup" xlink:href="#arrowUp" x="0" y="0" onmousedown="handlePan(0,-1)"/>
  <use id="arrowright" xlink:href="#arrowRight" x="0" y="0" onmousedown="handlePan(1,0)"/>
  <use id="arrowdown" xlink:href="#arrowDown" x="0" y="0" onmousedown="handlePan(0,1)"/>
  <use id="arrowleft" xlink:href="#arrowLeft" x="0" y="0" onmousedown="handlePan(-1,0)"/>
</g>
<svg viewBox="0 0 15 15" width="100%" height="30px" preserveAspectRatio="xMaxYMin meet">
 <g id="arrow_out" transform="scale(0.3 0.3)">
  <a xlink:href="class_task_a_p_i_1_1_helpers_1_1_priceapp_helper__coll__graph_org.svg" target="_base">
   <rect id="button" ry="5" rx="5" y="6" x="6" height="38" width="38"
        fill="#f2f5e9" fill-opacity="0.5" stroke="#606060" stroke-width="1.0"/>
   <path id="arrow"
     d="M 11.500037,31.436501 C 11.940474,20.09759 22.043105,11.32322 32.158766,21.979434 L 37.068811,17.246167 C 37.068811,17.246167 37.088388,32 37.088388,32 L 22.160133,31.978069 C 22.160133,31.978069 26.997745,27.140456 26.997745,27.140456 C 18.528582,18.264221 13.291696,25.230495 11.500037,31.436501 z"
     style="fill:#404040;"/>
  </a>
 </g>
</svg>

<style type='text/css'>
<![CDATA[
[data-mouse-over-selected='false'] { opacity: 0.7; }
[data-mouse-over-selected='true']  { opacity: 1.0; }
]]>
</style>
<script type="application/ecmascript"><![CDATA[
document.addEventListener('DOMContentLoaded', (event) => {
  highlightEdges();
  highlightAdjacentNodes();
});
]]></script>
</svg>
