<?xml version="1.0" encoding="UTF-8" standalone="no"?>
<!DOCTYPE svg PUBLIC "-//W3C//DTD SVG 1.1//EN"
 "http://www.w3.org/Graphics/SVG/1.1/DTD/svg11.dtd">
<!-- Generated by graphviz version 9.0.0 (20230911.1827)
 -->
<!-- Title: TaskAPI.Controllers.AbWebController Pages: 1 -->
<svg width="940pt" height="168pt"
 viewBox="0.00 0.00 940.25 168.00" xmlns="http://www.w3.org/2000/svg" xmlns:xlink="http://www.w3.org/1999/xlink">
<g id="graph0" class="graph" transform="scale(1 1) rotate(0) translate(4 164)">
<title>TaskAPI.Controllers.AbWebController</title>
<!-- Node1 -->
<g id="Node000001" class="node">
<title>Node1</title>
<g id="a_Node000001"><a xlink:title="Controller responsible for managing ABWeb application logs.">
<polygon fill="#999999" stroke="#666666" points="932.25,-114 794.75,-114 794.75,-82 932.25,-82 932.25,-114"/>
<text text-anchor="start" x="802.75" y="-100.5" font-family="Helvetica,sans-Serif" font-size="10.00">TaskAPI.Controllers.AbWeb</text>
<text text-anchor="middle" x="863.5" y="-88.5" font-family="Helvetica,sans-Serif" font-size="10.00">Controller</text>
</a>
</g>
</g>
<!-- Node2 -->
<g id="Node000002" class="node">
<title>Node2</title>
<g id="a_Node000002"><a xlink:title=" ">
<polygon fill="white" stroke="#666666" points="680.38,-160 600.62,-160 600.62,-140 680.38,-140 680.38,-160"/>
<text text-anchor="middle" x="640.5" y="-146.5" font-family="Helvetica,sans-Serif" font-size="10.00">ControllerBase</text>
</a>
</g>
</g>
<!-- Node2&#45;&gt;Node1 -->
<g id="edge1_Node000001_Node000002" class="edge">
<title>Node2&#45;&gt;Node1</title>
<g id="a_edge1_Node000001_Node000002"><a xlink:title=" ">
<path fill="none" stroke="#63b8ff" d="M692.16,-142.73C717.71,-138.64 749.07,-132.94 776.75,-126 789.66,-122.76 803.45,-118.59 816.12,-114.46"/>
<polygon fill="#63b8ff" stroke="#63b8ff" points="691.7,-139.26 682.36,-144.27 692.79,-146.18 691.7,-139.26"/>
</a>
</g>
</g>
<!-- Node3 -->
<g id="Node000003" class="node">
<title>Node3</title>
<g id="a_Node000003"><a xlink:href="class_task_a_p_i_1_1_services_1_1_log_service.html" target="_top" xlink:title="Provides logging services for various levels of application events, including debug,...">
<polygon fill="white" stroke="#666666" points="488.5,-29 345.75,-29 345.75,-9 488.5,-9 488.5,-29"/>
<text text-anchor="middle" x="417.12" y="-15.5" font-family="Helvetica,sans-Serif" font-size="10.00">TaskAPI.Services.LogService</text>
</a>
</g>
</g>
<!-- Node3&#45;&gt;Node1 -->
<g id="edge2_Node000001_Node000003" class="edge">
<title>Node3&#45;&gt;Node1</title>
<g id="a_edge2_Node000001_Node000003"><a xlink:title=" ">
<path fill="none" stroke="#9a32cd" stroke-dasharray="5,2" d="M500.19,-14.75C557.89,-13.62 636.52,-15.84 704,-31 750.93,-41.54 801.52,-65.32 832.61,-81.52"/>
<polygon fill="#9a32cd" stroke="#9a32cd" points="500.37,-11.25 490.46,-14.98 500.54,-18.24 500.37,-11.25"/>
</a>
</g>
<text text-anchor="middle" x="640.5" y="-33.5" font-family="Helvetica,sans-Serif" font-size="10.00" fill="grey"> _logService</text>
</g>
<!-- Node7 -->
<g id="Node000007" class="node">
<title>Node7</title>
<g id="a_Node000007"><a xlink:href="class_task_a_p_i_1_1_services_1_1_internal_a_p_i_service.html" target="_top" xlink:title="Provides a collection of services for interacting with internal API endpoints, including sending emai...">
<polygon fill="white" stroke="#666666" points="704,-84 577,-84 577,-52 704,-52 704,-84"/>
<text text-anchor="start" x="585" y="-70.5" font-family="Helvetica,sans-Serif" font-size="10.00">TaskAPI.Services.Internal</text>
<text text-anchor="middle" x="640.5" y="-58.5" font-family="Helvetica,sans-Serif" font-size="10.00">APIService</text>
</a>
</g>
</g>
<!-- Node3&#45;&gt;Node7 -->
<g id="edge7_Node000007_Node000003" class="edge">
<title>Node3&#45;&gt;Node7</title>
<g id="a_edge7_Node000007_Node000003"><a xlink:title=" ">
<path fill="none" stroke="#9a32cd" stroke-dasharray="5,2" d="M489.43,-31.56C511.78,-35.79 536.48,-40.77 559,-46 566.34,-47.7 574.02,-49.62 581.6,-51.6"/>
<polygon fill="#9a32cd" stroke="#9a32cd" points="490.28,-28.15 479.81,-29.76 488.99,-35.04 490.28,-28.15"/>
</a>
</g>
<text text-anchor="middle" x="532.75" y="-48.5" font-family="Helvetica,sans-Serif" font-size="10.00" fill="grey"> _logService</text>
</g>
<!-- Node4 -->
<g id="Node000004" class="node">
<title>Node4</title>
<g id="a_Node000004"><a xlink:href="class_task_a_p_i_1_1_contexts_1_1_task_a_p_i_context.html" target="_top" xlink:title=" ">
<polygon fill="white" stroke="#666666" points="267,-20 98.75,-20 98.75,0 267,0 267,-20"/>
<text text-anchor="middle" x="182.88" y="-6.5" font-family="Helvetica,sans-Serif" font-size="10.00">TaskAPI.Contexts.TaskAPIContext</text>
</a>
</g>
</g>
<!-- Node4&#45;&gt;Node3 -->
<g id="edge3_Node000003_Node000004" class="edge">
<title>Node4&#45;&gt;Node3</title>
<g id="a_edge3_Node000003_Node000004"><a xlink:title=" ">
<path fill="none" stroke="#9a32cd" stroke-dasharray="5,2" d="M278.49,-9.54C294.92,-9.78 311.84,-10.23 327.75,-11 333.44,-11.28 339.34,-11.64 345.25,-12.06"/>
<polygon fill="#9a32cd" stroke="#9a32cd" points="278.77,-6.04 268.73,-9.42 278.69,-13.04 278.77,-6.04"/>
</a>
</g>
<text text-anchor="middle" x="306.38" y="-13.5" font-family="Helvetica,sans-Serif" font-size="10.00" fill="grey"> _context</text>
</g>
<!-- Node5 -->
<g id="Node000005" class="node">
<title>Node5</title>
<g id="a_Node000005"><a xlink:title=" ">
<polygon fill="white" stroke="#666666" points="61.75,-20 0,-20 0,0 61.75,0 61.75,-20"/>
<text text-anchor="middle" x="30.88" y="-6.5" font-family="Helvetica,sans-Serif" font-size="10.00">DbContext</text>
</a>
</g>
</g>
<!-- Node5&#45;&gt;Node4 -->
<g id="edge4_Node000004_Node000005" class="edge">
<title>Node5&#45;&gt;Node4</title>
<g id="a_edge4_Node000004_Node000005"><a xlink:title=" ">
<path fill="none" stroke="#63b8ff" d="M73.6,-10C81.44,-10 89.89,-10 98.48,-10"/>
<polygon fill="#63b8ff" stroke="#63b8ff" points="73.74,-6.5 63.74,-10 73.74,-13.5 73.74,-6.5"/>
</a>
</g>
</g>
<!-- Node6 -->
<g id="Node000006" class="node">
<title>Node6</title>
<g id="a_Node000006"><a xlink:href="class_task_a_p_i_1_1_helpers_1_1_settings_1_1_task_a_p_i_settings.html" target="_top" xlink:title=" ">
<polygon fill="white" stroke="#666666" points="248.25,-88 117.5,-88 117.5,-56 248.25,-56 248.25,-88"/>
<text text-anchor="start" x="125.5" y="-74.5" font-family="Helvetica,sans-Serif" font-size="10.00">TaskAPI.Helpers.Settings.</text>
<text text-anchor="middle" x="182.88" y="-62.5" font-family="Helvetica,sans-Serif" font-size="10.00">TaskAPISettings</text>
</a>
</g>
</g>
<!-- Node6&#45;&gt;Node1 -->
<g id="edge9_Node000001_Node000006" class="edge">
<title>Node6&#45;&gt;Node1</title>
<g id="a_edge9_Node000001_Node000006"><a xlink:title=" ">
<path fill="none" stroke="#9a32cd" stroke-dasharray="5,2" d="M259.97,-81.73C268.41,-82.6 276.88,-83.39 285,-84 478.77,-98.66 527.7,-94.9 722,-98 745.54,-98.38 771.29,-98.47 794.25,-98.44"/>
<polygon fill="#9a32cd" stroke="#9a32cd" points="260.35,-78.26 250.04,-80.67 259.6,-85.22 260.35,-78.26"/>
</a>
</g>
<text text-anchor="middle" x="532.75" y="-98.5" font-family="Helvetica,sans-Serif" font-size="10.00" fill="grey"> _settings</text>
</g>
<!-- Node6&#45;&gt;Node3 -->
<g id="edge5_Node000003_Node000006" class="edge">
<title>Node6&#45;&gt;Node3</title>
<g id="a_edge5_Node000003_Node000006"><a xlink:title=" ">
<path fill="none" stroke="#9a32cd" stroke-dasharray="5,2" d="M257.02,-52.75C266.42,-50.4 275.92,-48.1 285,-46 310.36,-40.13 338.63,-34.23 362.41,-29.45"/>
<polygon fill="#9a32cd" stroke="#9a32cd" points="256.38,-49.3 247.53,-55.13 258.08,-56.09 256.38,-49.3"/>
</a>
</g>
<text text-anchor="middle" x="306.38" y="-48.5" font-family="Helvetica,sans-Serif" font-size="10.00" fill="grey"> _settings</text>
</g>
<!-- Node6&#45;&gt;Node7 -->
<g id="edge8_Node000007_Node000006" class="edge">
<title>Node6&#45;&gt;Node7</title>
<g id="a_edge8_Node000007_Node000006"><a xlink:title=" ">
<path fill="none" stroke="#9a32cd" stroke-dasharray="5,2" d="M260.02,-71.33C348.86,-70.55 494.11,-69.28 576.76,-68.55"/>
<polygon fill="#9a32cd" stroke="#9a32cd" points="260.15,-67.83 250.18,-71.42 260.21,-74.83 260.15,-67.83"/>
</a>
</g>
<text text-anchor="middle" x="417.12" y="-72.5" font-family="Helvetica,sans-Serif" font-size="10.00" fill="grey"> _settings</text>
</g>
<!-- Node7&#45;&gt;Node1 -->
<g id="edge6_Node000001_Node000007" class="edge">
<title>Node7&#45;&gt;Node1</title>
<g id="a_edge6_Node000001_Node000007"><a xlink:title=" ">
<path fill="none" stroke="#9a32cd" stroke-dasharray="5,2" d="M715.64,-77.78C735.49,-80.42 756.94,-83.3 776.75,-86 782.56,-86.79 788.59,-87.62 794.64,-88.46"/>
<polygon fill="#9a32cd" stroke="#9a32cd" points="716.35,-74.34 705.97,-76.49 715.43,-81.28 716.35,-74.34"/>
</a>
</g>
<text text-anchor="middle" x="749.38" y="-88.5" font-family="Helvetica,sans-Serif" font-size="10.00" fill="grey"> _iapiService</text>
</g>
</g>
</svg>
