<?xml version="1.0" encoding="UTF-8" standalone="no"?>
<!DOCTYPE svg PUBLIC "-//W3C//DTD SVG 1.1//EN"
 "http://www.w3.org/Graphics/SVG/1.1/DTD/svg11.dtd">
<!-- Generated by graphviz version 9.0.0 (20230911.1827)
 -->
<!-- Title: TaskAPI.Models.DTO.Oanda.InstrumentPrice.Price.Bid Pages: 1 -->
<svg width="146pt" height="88pt"
 viewBox="0.00 0.00 146.00 88.00" xmlns="http://www.w3.org/2000/svg" xmlns:xlink="http://www.w3.org/1999/xlink">
<g id="graph0" class="graph" transform="scale(1 1) rotate(0) translate(4 84)">
<title>TaskAPI.Models.DTO.Oanda.InstrumentPrice.Price.Bid</title>
<!-- Node1 -->
<g id="Node000001" class="node">
<title>Node1</title>
<g id="a_Node000001"><a xlink:title=" ">
<polygon fill="#999999" stroke="none" points="138,-80 0,-80 0,0 138,0 138,-80"/>
<text text-anchor="start" x="4.88" y="-66.5" font-family="Helvetica,sans-Serif" font-size="10.00">TaskAPI.Models.DTO.Oanda.</text>
<text text-anchor="start" x="13.5" y="-54.5" font-family="Helvetica,sans-Serif" font-size="10.00">InstrumentPrice.Price.Bid</text>
<text text-anchor="start" x="18" y="-38.5" font-family="Helvetica,sans-Serif" font-size="10.00">+</text>
<text text-anchor="start" x="42" y="-38.5" font-family="Helvetica,sans-Serif" font-size="10.00">string price</text>
<text text-anchor="start" x="18" y="-22.5" font-family="Helvetica,sans-Serif" font-size="10.00">+</text>
<text text-anchor="start" x="42" y="-22.5" font-family="Helvetica,sans-Serif" font-size="10.00">double liquidity</text>
<text text-anchor="start" x="67.5" y="-6.5" font-family="Helvetica,sans-Serif" font-size="10.00"> </text>
<polygon fill="#666666" stroke="#666666" points="0,-50 0,-50 138,-50 138,-50 0,-50"/>
<polygon fill="#666666" stroke="#666666" points="0,-18 0,-18 40,-18 40,-18 0,-18"/>
<polygon fill="#666666" stroke="#666666" points="40,-18 40,-18 138,-18 138,-18 40,-18"/>
<polygon fill="none" stroke="#666666" points="0,0 0,-80 138,-80 138,0 0,0"/>
</a>
</g>
</g>
</g>
</svg>
