<?xml version="1.0" encoding="UTF-8" standalone="no"?>
<!DOCTYPE svg PUBLIC "-//W3C//DTD SVG 1.1//EN"
 "http://www.w3.org/Graphics/SVG/1.1/DTD/svg11.dtd">
<!-- Generated by graphviz version 9.0.0 (20230911.1827)
 -->
<!-- Title: TaskAPI.Helpers.SpotHelper.PullPolygonOracleData Pages: 1 -->
<svg width="875pt" height="219pt"
 viewBox="0.00 0.00 874.75 219.00" xmlns="http://www.w3.org/2000/svg" xmlns:xlink="http://www.w3.org/1999/xlink">
<g id="graph0" class="graph" transform="scale(1 1) rotate(0) translate(4 215)">
<title>TaskAPI.Helpers.SpotHelper.PullPolygonOracleData</title>
<!-- Node1 -->
<g id="Node000001" class="node">
<title>Node1</title>
<g id="a_Node000001"><a xlink:title="Pulls spot data from Polygon Oracle for each specified asset.">
<polygon fill="#999999" stroke="#666666" points="142.75,-117 0,-117 0,-85 142.75,-85 142.75,-117"/>
<text text-anchor="start" x="8" y="-103.5" font-family="Helvetica,sans-Serif" font-size="10.00">TaskAPI.Helpers.SpotHelper.</text>
<text text-anchor="middle" x="71.38" y="-91.5" font-family="Helvetica,sans-Serif" font-size="10.00">PullPolygonOracleData</text>
</a>
</g>
</g>
<!-- Node2 -->
<g id="Node000002" class="node">
<title>Node2</title>
<g id="a_Node000002"><a xlink:href="class_task_a_p_i_1_1_helpers_1_1_spot_helper.html#a89a665897ed47f9b7065ce771100b83c" target="_top" xlink:title="Determines whether synchronisation with the market is possible based on the current market status.">
<polygon fill="white" stroke="#666666" points="321.5,-211 178.75,-211 178.75,-179 321.5,-179 321.5,-211"/>
<text text-anchor="start" x="186.75" y="-197.5" font-family="Helvetica,sans-Serif" font-size="10.00">TaskAPI.Helpers.SpotHelper.</text>
<text text-anchor="middle" x="250.12" y="-185.5" font-family="Helvetica,sans-Serif" font-size="10.00">CanSync</text>
</a>
</g>
</g>
<!-- Node1&#45;&gt;Node2 -->
<g id="edge1_Node000001_Node000002" class="edge">
<title>Node1&#45;&gt;Node2</title>
<g id="a_edge1_Node000001_Node000002"><a xlink:title=" ">
<path fill="none" stroke="#63b8ff" d="M94.29,-117.4C115.19,-132.51 147.95,-154.8 178.75,-170 181.64,-171.43 184.63,-172.81 187.68,-174.15"/>
<polygon fill="#63b8ff" stroke="#63b8ff" points="186.2,-177.32 196.78,-177.93 188.88,-170.86 186.2,-177.32"/>
</a>
</g>
</g>
<!-- Node3 -->
<g id="Node000003" class="node">
<title>Node3</title>
<g id="a_Node000003"><a xlink:href="class_task_a_p_i_1_1_services_1_1_alchemy_service.html#a8db06c3be654656ef61b3177a0624787" target="_top" xlink:title="Retrieves the latest round data for a given smart contract address using the Alchemy API.">
<polygon fill="white" stroke="#666666" points="317,-161 183.25,-161 183.25,-129 317,-129 317,-161"/>
<text text-anchor="start" x="191.25" y="-147.5" font-family="Helvetica,sans-Serif" font-size="10.00">TaskAPI.Services.Alchemy</text>
<text text-anchor="middle" x="250.12" y="-135.5" font-family="Helvetica,sans-Serif" font-size="10.00">Service.LatestRoundData</text>
</a>
</g>
</g>
<!-- Node1&#45;&gt;Node3 -->
<g id="edge2_Node000001_Node000003" class="edge">
<title>Node1&#45;&gt;Node3</title>
<g id="a_edge2_Node000001_Node000003"><a xlink:title=" ">
<path fill="none" stroke="#63b8ff" d="M138.44,-117.45C149.33,-120.16 160.69,-122.99 171.82,-125.76"/>
<polygon fill="#63b8ff" stroke="#63b8ff" points="170.83,-129.12 181.38,-128.13 172.52,-122.32 170.83,-129.12"/>
</a>
</g>
</g>
<!-- Node4 -->
<g id="Node000004" class="node">
<title>Node4</title>
<g id="a_Node000004"><a xlink:href="class_task_a_p_i_1_1_services_1_1_log_service.html#a78c9df658858fa3099eed69421423898" target="_top" xlink:title="Logs an exception to the database.">
<polygon fill="white" stroke="#666666" points="503.25,-132 357.5,-132 357.5,-100 503.25,-100 503.25,-132"/>
<text text-anchor="start" x="365.5" y="-118.5" font-family="Helvetica,sans-Serif" font-size="10.00">TaskAPI.Services.LogService.</text>
<text text-anchor="middle" x="430.38" y="-106.5" font-family="Helvetica,sans-Serif" font-size="10.00">LogException</text>
</a>
</g>
</g>
<!-- Node1&#45;&gt;Node4 -->
<g id="edge10_Node000001_Node000004" class="edge">
<title>Node1&#45;&gt;Node4</title>
<g id="a_edge10_Node000001_Node000004"><a xlink:title=" ">
<path fill="none" stroke="#63b8ff" d="M142.91,-103.96C201.25,-106.42 284.25,-109.9 345.9,-112.49"/>
<polygon fill="#63b8ff" stroke="#63b8ff" points="345.5,-115.98 355.64,-112.9 345.8,-108.99 345.5,-115.98"/>
</a>
</g>
</g>
<!-- Node7 -->
<g id="Node000007" class="node">
<title>Node7</title>
<g id="a_Node000007"><a xlink:href="class_task_a_p_i_1_1_services_1_1_log_service.html#a6be037b34888bbcf6b47dca8eef472de" target="_top" xlink:title="Logs a debug message to the database.">
<polygon fill="white" stroke="#666666" points="503.25,-82 357.5,-82 357.5,-50 503.25,-50 503.25,-82"/>
<text text-anchor="start" x="365.5" y="-68.5" font-family="Helvetica,sans-Serif" font-size="10.00">TaskAPI.Services.LogService.</text>
<text text-anchor="middle" x="430.38" y="-56.5" font-family="Helvetica,sans-Serif" font-size="10.00">LogDebug</text>
</a>
</g>
</g>
<!-- Node1&#45;&gt;Node7 -->
<g id="edge6_Node000001_Node000007" class="edge">
<title>Node1&#45;&gt;Node7</title>
<g id="a_edge6_Node000001_Node000007"><a xlink:title=" ">
<path fill="none" stroke="#63b8ff" d="M142.91,-94.09C201.25,-88.36 284.25,-80.23 345.9,-74.18"/>
<polygon fill="#63b8ff" stroke="#63b8ff" points="346.04,-77.69 355.65,-73.23 345.35,-70.72 346.04,-77.69"/>
</a>
</g>
</g>
<!-- Node8 -->
<g id="Node000008" class="node">
<title>Node8</title>
<g id="a_Node000008"><a xlink:href="class_task_a_p_i_1_1_services_1_1_log_service.html#a46dc9bf58bc9605c7e17dfee38b94354" target="_top" xlink:title="Logs an error message to the database.">
<polygon fill="white" stroke="#666666" points="503.25,-32 357.5,-32 357.5,0 503.25,0 503.25,-32"/>
<text text-anchor="start" x="365.5" y="-18.5" font-family="Helvetica,sans-Serif" font-size="10.00">TaskAPI.Services.LogService.</text>
<text text-anchor="middle" x="430.38" y="-6.5" font-family="Helvetica,sans-Serif" font-size="10.00">LogError</text>
</a>
</g>
</g>
<!-- Node1&#45;&gt;Node8 -->
<g id="edge8_Node000001_Node000008" class="edge">
<title>Node1&#45;&gt;Node8</title>
<g id="a_edge8_Node000001_Node000008"><a xlink:title=" ">
<path fill="none" stroke="#63b8ff" d="M133.6,-84.51C148.36,-80.64 164.1,-76.59 178.75,-73 234.34,-59.37 297.13,-45.09 345.96,-34.23"/>
<polygon fill="#63b8ff" stroke="#63b8ff" points="346.63,-37.67 355.63,-32.09 345.11,-30.83 346.63,-37.67"/>
</a>
</g>
</g>
<!-- Node3&#45;&gt;Node4 -->
<g id="edge3_Node000003_Node000004" class="edge">
<title>Node3&#45;&gt;Node4</title>
<g id="a_edge3_Node000003_Node000004"><a xlink:title=" ">
<path fill="none" stroke="#63b8ff" d="M317.5,-134.2C326.82,-132.69 336.49,-131.11 346.08,-129.55"/>
<polygon fill="#63b8ff" stroke="#63b8ff" points="346.46,-133.04 355.77,-127.98 345.34,-126.13 346.46,-133.04"/>
</a>
</g>
</g>
<!-- Node5 -->
<g id="Node000005" class="node">
<title>Node5</title>
<g id="a_Node000005"><a xlink:href="class_task_a_p_i_1_1_services_1_1_log_service.html#a44f0fd9db1116257087ba59c836e22ea" target="_top" xlink:title="Directly inserts a log entry into the database.">
<polygon fill="white" stroke="#666666" points="685,-82 539.25,-82 539.25,-50 685,-50 685,-82"/>
<text text-anchor="start" x="547.25" y="-68.5" font-family="Helvetica,sans-Serif" font-size="10.00">TaskAPI.Services.LogService.</text>
<text text-anchor="middle" x="612.12" y="-56.5" font-family="Helvetica,sans-Serif" font-size="10.00">InsertLog</text>
</a>
</g>
</g>
<!-- Node4&#45;&gt;Node5 -->
<g id="edge4_Node000004_Node000005" class="edge">
<title>Node4&#45;&gt;Node5</title>
<g id="a_edge4_Node000004_Node000005"><a xlink:title=" ">
<path fill="none" stroke="#63b8ff" d="M490.23,-99.63C506.44,-95.12 524.19,-90.18 540.97,-85.52"/>
<polygon fill="#63b8ff" stroke="#63b8ff" points="541.67,-88.95 550.37,-82.9 539.8,-82.21 541.67,-88.95"/>
</a>
</g>
</g>
<!-- Node6 -->
<g id="Node000006" class="node">
<title>Node6</title>
<g id="a_Node000006"><a xlink:href="class_task_a_p_i_1_1_services_1_1_log_service.html#a20f6ab73ae5cc69273da4416da65f94d" target="_top" xlink:title="Writes a log entry to a local text file as a fallback or additional logging method.">
<polygon fill="white" stroke="#666666" points="866.75,-82 721,-82 721,-50 866.75,-50 866.75,-82"/>
<text text-anchor="start" x="729" y="-68.5" font-family="Helvetica,sans-Serif" font-size="10.00">TaskAPI.Services.LogService.</text>
<text text-anchor="middle" x="793.88" y="-56.5" font-family="Helvetica,sans-Serif" font-size="10.00">WriteLog</text>
</a>
</g>
</g>
<!-- Node5&#45;&gt;Node6 -->
<g id="edge5_Node000005_Node000006" class="edge">
<title>Node5&#45;&gt;Node6</title>
<g id="a_edge5_Node000005_Node000006"><a xlink:title=" ">
<path fill="none" stroke="#63b8ff" d="M685.46,-66C693.35,-66 701.43,-66 709.44,-66"/>
<polygon fill="#63b8ff" stroke="#63b8ff" points="709.18,-69.5 719.18,-66 709.18,-62.5 709.18,-69.5"/>
</a>
</g>
</g>
<!-- Node7&#45;&gt;Node5 -->
<g id="edge7_Node000007_Node000005" class="edge">
<title>Node7&#45;&gt;Node5</title>
<g id="a_edge7_Node000007_Node000005"><a xlink:title=" ">
<path fill="none" stroke="#63b8ff" d="M503.71,-66C511.6,-66 519.68,-66 527.69,-66"/>
<polygon fill="#63b8ff" stroke="#63b8ff" points="527.43,-69.5 537.43,-66 527.43,-62.5 527.43,-69.5"/>
</a>
</g>
</g>
<!-- Node8&#45;&gt;Node5 -->
<g id="edge9_Node000008_Node000005" class="edge">
<title>Node8&#45;&gt;Node5</title>
<g id="a_edge9_Node000008_Node000005"><a xlink:title=" ">
<path fill="none" stroke="#63b8ff" d="M490.23,-32.37C506.44,-36.88 524.19,-41.82 540.97,-46.48"/>
<polygon fill="#63b8ff" stroke="#63b8ff" points="539.8,-49.79 550.37,-49.1 541.67,-43.05 539.8,-49.79"/>
</a>
</g>
</g>
</g>
</svg>
