<?xml version="1.0" encoding="UTF-8" standalone="no"?>
<!DOCTYPE svg PUBLIC "-//W3C//DTD SVG 1.1//EN"
 "http://www.w3.org/Graphics/SVG/1.1/DTD/svg11.dtd">
<!-- Generated by graphviz version 9.0.0 (20230911.1827)
 -->
<!-- Title: TaskAPI.Controllers.InternalAPIController Pages: 1 -->
<svg width="940pt" height="194pt"
 viewBox="0.00 0.00 939.50 194.00" xmlns="http://www.w3.org/2000/svg" xmlns:xlink="http://www.w3.org/1999/xlink">
<g id="graph0" class="graph" transform="scale(1 1) rotate(0) translate(4 190)">
<title>TaskAPI.Controllers.InternalAPIController</title>
<!-- Node1 -->
<g id="Node000001" class="node">
<title>Node1</title>
<g id="a_Node000001"><a xlink:title="Manages log trimming and email notifications for Internal API.">
<polygon fill="#999999" stroke="#666666" points="931.5,-105 794.75,-105 794.75,-73 931.5,-73 931.5,-105"/>
<text text-anchor="start" x="802.75" y="-91.5" font-family="Helvetica,sans-Serif" font-size="10.00">TaskAPI.Controllers.Internal</text>
<text text-anchor="middle" x="863.12" y="-79.5" font-family="Helvetica,sans-Serif" font-size="10.00">APIController</text>
</a>
</g>
</g>
<!-- Node2 -->
<g id="Node000002" class="node">
<title>Node2</title>
<g id="a_Node000002"><a xlink:title=" ">
<polygon fill="white" stroke="#666666" points="680.38,-186 600.62,-186 600.62,-166 680.38,-166 680.38,-186"/>
<text text-anchor="middle" x="640.5" y="-172.5" font-family="Helvetica,sans-Serif" font-size="10.00">ControllerBase</text>
</a>
</g>
</g>
<!-- Node2&#45;&gt;Node1 -->
<g id="edge1_Node000001_Node000002" class="edge">
<title>Node2&#45;&gt;Node1</title>
<g id="a_edge1_Node000001_Node000002"><a xlink:title=" ">
<path fill="none" stroke="#63b8ff" d="M691.93,-172.59C718.07,-169.47 750.03,-163.48 776.75,-152 802.98,-140.73 828.75,-120.01 844.99,-105.42"/>
<polygon fill="#63b8ff" stroke="#63b8ff" points="691.82,-169.08 682.25,-173.64 692.57,-176.04 691.82,-169.08"/>
</a>
</g>
</g>
<!-- Node3 -->
<g id="Node000003" class="node">
<title>Node3</title>
<g id="a_Node000003"><a xlink:href="class_task_a_p_i_1_1_services_1_1_log_service.html" target="_top" xlink:title="Provides logging services for various levels of application events, including debug,...">
<polygon fill="white" stroke="#666666" points="488.5,-55 345.75,-55 345.75,-35 488.5,-35 488.5,-55"/>
<text text-anchor="middle" x="417.12" y="-41.5" font-family="Helvetica,sans-Serif" font-size="10.00">TaskAPI.Services.LogService</text>
</a>
</g>
</g>
<!-- Node3&#45;&gt;Node1 -->
<g id="edge2_Node000001_Node000003" class="edge">
<title>Node3&#45;&gt;Node1</title>
<g id="a_edge2_Node000001_Node000003"><a xlink:title=" ">
<path fill="none" stroke="#9a32cd" stroke-dasharray="5,2" d="M500.1,-42.56C557.43,-41.94 635.67,-43.26 704,-52 737.84,-56.33 775.02,-64.83 804.81,-72.59"/>
<polygon fill="#9a32cd" stroke="#9a32cd" points="500.39,-39.06 490.43,-42.69 500.48,-46.06 500.39,-39.06"/>
</a>
</g>
<text text-anchor="middle" x="640.5" y="-54.5" font-family="Helvetica,sans-Serif" font-size="10.00" fill="grey"> _logService</text>
</g>
<!-- Node7 -->
<g id="Node000007" class="node">
<title>Node7</title>
<g id="a_Node000007"><a xlink:href="class_task_a_p_i_1_1_services_1_1_internal_a_p_i_service.html" target="_top" xlink:title="Provides a collection of services for interacting with internal API endpoints, including sending emai...">
<polygon fill="white" stroke="#666666" points="704,-105 577,-105 577,-73 704,-73 704,-105"/>
<text text-anchor="start" x="585" y="-91.5" font-family="Helvetica,sans-Serif" font-size="10.00">TaskAPI.Services.Internal</text>
<text text-anchor="middle" x="640.5" y="-79.5" font-family="Helvetica,sans-Serif" font-size="10.00">APIService</text>
</a>
</g>
</g>
<!-- Node3&#45;&gt;Node7 -->
<g id="edge8_Node000007_Node000003" class="edge">
<title>Node3&#45;&gt;Node7</title>
<g id="a_edge8_Node000007_Node000003"><a xlink:title=" ">
<path fill="none" stroke="#9a32cd" stroke-dasharray="5,2" d="M485.25,-57.6C508.61,-62.05 534.98,-67.16 559,-72 564.74,-73.16 570.71,-74.38 576.68,-75.62"/>
<polygon fill="#9a32cd" stroke="#9a32cd" points="486.01,-54.18 475.53,-55.75 484.7,-61.06 486.01,-54.18"/>
</a>
</g>
<text text-anchor="middle" x="532.75" y="-74.5" font-family="Helvetica,sans-Serif" font-size="10.00" fill="grey"> _logService</text>
</g>
<!-- Node4 -->
<g id="Node000004" class="node">
<title>Node4</title>
<g id="a_Node000004"><a xlink:href="class_task_a_p_i_1_1_contexts_1_1_task_a_p_i_context.html" target="_top" xlink:title=" ">
<polygon fill="white" stroke="#666666" points="267,-20 98.75,-20 98.75,0 267,0 267,-20"/>
<text text-anchor="middle" x="182.88" y="-6.5" font-family="Helvetica,sans-Serif" font-size="10.00">TaskAPI.Contexts.TaskAPIContext</text>
</a>
</g>
</g>
<!-- Node4&#45;&gt;Node1 -->
<g id="edge6_Node000001_Node000004" class="edge">
<title>Node4&#45;&gt;Node1</title>
<g id="a_edge6_Node000001_Node000004"><a xlink:title=" ">
<path fill="none" stroke="#9a32cd" stroke-dasharray="5,2" d="M278.95,-11.65C383.48,-14.31 556.22,-21.22 704,-39 736.47,-42.91 745.41,-40.67 776.75,-50 795.65,-55.62 815.75,-64.65 831.71,-72.59"/>
<polygon fill="#9a32cd" stroke="#9a32cd" points="279.09,-8.15 269,-11.41 278.91,-15.15 279.09,-8.15"/>
</a>
</g>
<text text-anchor="middle" x="532.75" y="-26.5" font-family="Helvetica,sans-Serif" font-size="10.00" fill="grey"> _context</text>
</g>
<!-- Node4&#45;&gt;Node3 -->
<g id="edge3_Node000003_Node000004" class="edge">
<title>Node4&#45;&gt;Node3</title>
<g id="a_edge3_Node000003_Node000004"><a xlink:title=" ">
<path fill="none" stroke="#9a32cd" stroke-dasharray="5,2" d="M264.53,-22.15C291.3,-26.19 320.86,-30.64 346.71,-34.54"/>
<polygon fill="#9a32cd" stroke="#9a32cd" points="265.15,-18.71 254.74,-20.68 264.11,-25.63 265.15,-18.71"/>
</a>
</g>
<text text-anchor="middle" x="306.38" y="-33.5" font-family="Helvetica,sans-Serif" font-size="10.00" fill="grey"> _context</text>
</g>
<!-- Node5 -->
<g id="Node000005" class="node">
<title>Node5</title>
<g id="a_Node000005"><a xlink:title=" ">
<polygon fill="white" stroke="#666666" points="61.75,-20 0,-20 0,0 61.75,0 61.75,-20"/>
<text text-anchor="middle" x="30.88" y="-6.5" font-family="Helvetica,sans-Serif" font-size="10.00">DbContext</text>
</a>
</g>
</g>
<!-- Node5&#45;&gt;Node4 -->
<g id="edge4_Node000004_Node000005" class="edge">
<title>Node5&#45;&gt;Node4</title>
<g id="a_edge4_Node000004_Node000005"><a xlink:title=" ">
<path fill="none" stroke="#63b8ff" d="M73.6,-10C81.44,-10 89.89,-10 98.48,-10"/>
<polygon fill="#63b8ff" stroke="#63b8ff" points="73.74,-6.5 63.74,-10 73.74,-13.5 73.74,-6.5"/>
</a>
</g>
</g>
<!-- Node6 -->
<g id="Node000006" class="node">
<title>Node6</title>
<g id="a_Node000006"><a xlink:href="class_task_a_p_i_1_1_helpers_1_1_settings_1_1_task_a_p_i_settings.html" target="_top" xlink:title=" ">
<polygon fill="white" stroke="#666666" points="248.25,-114 117.5,-114 117.5,-82 248.25,-82 248.25,-114"/>
<text text-anchor="start" x="125.5" y="-100.5" font-family="Helvetica,sans-Serif" font-size="10.00">TaskAPI.Helpers.Settings.</text>
<text text-anchor="middle" x="182.88" y="-88.5" font-family="Helvetica,sans-Serif" font-size="10.00">TaskAPISettings</text>
</a>
</g>
</g>
<!-- Node6&#45;&gt;Node1 -->
<g id="edge10_Node000001_Node000006" class="edge">
<title>Node6&#45;&gt;Node1</title>
<g id="a_edge10_Node000001_Node000006"><a xlink:title=" ">
<path fill="none" stroke="#9a32cd" stroke-dasharray="5,2" d="M259.98,-107.03C268.41,-107.81 276.88,-108.49 285,-109 470.87,-120.68 518.12,-125.45 704,-114 733.82,-112.16 766.48,-107.46 794.34,-102.62"/>
<polygon fill="#9a32cd" stroke="#9a32cd" points="260.33,-103.55 250.04,-106.07 259.66,-110.52 260.33,-103.55"/>
</a>
</g>
<text text-anchor="middle" x="532.75" y="-122.5" font-family="Helvetica,sans-Serif" font-size="10.00" fill="grey"> _settings</text>
</g>
<!-- Node6&#45;&gt;Node3 -->
<g id="edge5_Node000003_Node000006" class="edge">
<title>Node6&#45;&gt;Node3</title>
<g id="a_edge5_Node000003_Node000006"><a xlink:title=" ">
<path fill="none" stroke="#9a32cd" stroke-dasharray="5,2" d="M257.02,-78.75C266.42,-76.4 275.92,-74.1 285,-72 310.36,-66.13 338.63,-60.23 362.41,-55.45"/>
<polygon fill="#9a32cd" stroke="#9a32cd" points="256.38,-75.3 247.53,-81.13 258.08,-82.09 256.38,-75.3"/>
</a>
</g>
<text text-anchor="middle" x="306.38" y="-74.5" font-family="Helvetica,sans-Serif" font-size="10.00" fill="grey"> _settings</text>
</g>
<!-- Node6&#45;&gt;Node7 -->
<g id="edge9_Node000007_Node000006" class="edge">
<title>Node6&#45;&gt;Node7</title>
<g id="a_edge9_Node000007_Node000006"><a xlink:title=" ">
<path fill="none" stroke="#9a32cd" stroke-dasharray="5,2" d="M260.02,-96.5C348.86,-94.74 494.11,-91.87 576.76,-90.24"/>
<polygon fill="#9a32cd" stroke="#9a32cd" points="260.11,-92.99 250.18,-96.69 260.25,-99.99 260.11,-92.99"/>
</a>
</g>
<text text-anchor="middle" x="417.12" y="-96.5" font-family="Helvetica,sans-Serif" font-size="10.00" fill="grey"> _settings</text>
</g>
<!-- Node7&#45;&gt;Node1 -->
<g id="edge7_Node000001_Node000007" class="edge">
<title>Node7&#45;&gt;Node1</title>
<g id="a_edge7_Node000001_Node000007"><a xlink:title=" ">
<path fill="none" stroke="#9a32cd" stroke-dasharray="5,2" d="M715.89,-89C741.32,-89 769.61,-89 794.48,-89"/>
<polygon fill="#9a32cd" stroke="#9a32cd" points="715.94,-85.5 705.94,-89 715.94,-92.5 715.94,-85.5"/>
</a>
</g>
<text text-anchor="middle" x="749.38" y="-91.5" font-family="Helvetica,sans-Serif" font-size="10.00" fill="grey"> _iapiService</text>
</g>
</g>
</svg>
