<?xml version="1.0" encoding="UTF-8" standalone="no"?>
<!DOCTYPE svg PUBLIC "-//W3C//DTD SVG 1.1//EN"
 "http://www.w3.org/Graphics/SVG/1.1/DTD/svg11.dtd">
<!-- Generated by graphviz version 9.0.0 (20230911.1827)
 -->
<!-- Title: TaskAPI.Controllers.InternalAPIController Pages: 1 -->
<!--zoomable 194 -->

<svg id="main" version="1.1" xmlns="http://www.w3.org/2000/svg" xmlns:xlink="http://www.w3.org/1999/xlink" xml:space="preserve" onload="init(evt)">
<style type="text/css"><![CDATA[
.node, .edge {opacity: 0.7;}
.node.selected, .edge.selected {opacity: 1;}
.edge:hover path { stroke: red; }
.edge:hover polygon { stroke: red; fill: red; }
]]></style>

<defs>
  <circle id="rim" cx="0" cy="0" r="7"/>
  <circle id="rim2" cx="0" cy="0" r="3.5"/>
  <g id="zoomPlus">
    <use xlink:href="#rim" fill="#404040"><set attributeName="fill" to="#808080" begin="zoomplus.mouseover" end="zoomplus.mouseout"/></use>
    <path d="M-4,0h8M0,-4v8" fill="none" stroke="white" stroke-width="1.5" pointer-events="none"/>
  </g>
  <g id="zoomMin">
    <use xlink:href="#rim" fill="#404040"><set attributeName="fill" to="#808080" begin="zoomminus.mouseover" end="zoomminus.mouseout"/></use>
    <path d="M-4,0h8" fill="none" stroke="white" stroke-width="1.5" pointer-events="none"/>
  </g>
  <g id="arrowUp" transform="translate(30 24)">
    <use xlink:href="#rim"/>
    <path pointer-events="none" fill="none" stroke="white" stroke-width="1.5" d="M0,-3.0v7 M-2.5,-0.5L0,-3.0L2.5,-0.5"/>
  </g>
  <g id="arrowRight" transform="rotate(90) translate(36 -43)">
    <use xlink:href="#rim"/>
    <path pointer-events="none" fill="none" stroke="white" stroke-width="1.5" d="M0,-3.0v7 M-2.5,-0.5L0,-3.0L2.5,-0.5"/>
  </g>
  <g id="arrowDown" transform="rotate(180) translate(-30 -48)">
    <use xlink:href="#rim"/>
    <path pointer-events="none" fill="none" stroke="white" stroke-width="1.5" d="M0,-3.0v7 M-2.5,-0.5L0,-3.0L2.5,-0.5"/>
  </g>
  <g id="arrowLeft" transform="rotate(270) translate(-36 17)">
    <use xlink:href="#rim"/>
    <path pointer-events="none" fill="none" stroke="white" stroke-width="1.5" d="M0,-3.0v7 M-2.5,-0.5L0,-3.0L2.5,-0.5"/>
  </g>
  <g id="resetDef">
    <use xlink:href="#rim2" fill="#404040"><set attributeName="fill" to="#808080" begin="reset.mouseover" end="reset.mouseout"/></use>
  </g>
</defs>
<script type="application/ecmascript">
var viewWidth = 940;
var viewHeight = 194;
var sectionId = 'dynsection-1';
</script>
<script type="application/ecmascript" xlink:href="svg.min.js"/>
<svg id="graph" class="graph">
<g id="viewport">
<title>TaskAPI.Controllers.InternalAPIController</title>
<!-- Node1 -->
<g id="Node000001" class="node">
<title>Node1</title>
<g id="a_Node000001"><a xlink:title="Manages log trimming and email notifications for Internal API.">
<polygon fill="#999999" stroke="#666666" points="931.5,-105 794.75,-105 794.75,-73 931.5,-73 931.5,-105"/>
<text text-anchor="start" x="802.75" y="-91.5" font-family="Helvetica,sans-Serif" font-size="10.00">TaskAPI.Controllers.Internal</text>
<text text-anchor="middle" x="863.12" y="-79.5" font-family="Helvetica,sans-Serif" font-size="10.00">APIController</text>
</a>
</g>
</g>
<!-- Node2 -->
<g id="Node000002" class="node">
<title>Node2</title>
<g id="a_Node000002"><a xlink:title=" ">
<polygon fill="white" stroke="#666666" points="680.38,-186 600.62,-186 600.62,-166 680.38,-166 680.38,-186"/>
<text text-anchor="middle" x="640.5" y="-172.5" font-family="Helvetica,sans-Serif" font-size="10.00">ControllerBase</text>
</a>
</g>
</g>
<!-- Node2&#45;&gt;Node1 -->
<g id="edge1_Node000001_Node000002" class="edge">
<title>Node2&#45;&gt;Node1</title>
<g id="a_edge1_Node000001_Node000002"><a xlink:title=" ">
<path fill="none" stroke="#63b8ff" d="M691.93,-172.59C718.07,-169.47 750.03,-163.48 776.75,-152 802.98,-140.73 828.75,-120.01 844.99,-105.42"/>
<polygon fill="#63b8ff" stroke="#63b8ff" points="691.82,-169.08 682.25,-173.64 692.57,-176.04 691.82,-169.08"/>
</a>
</g>
</g>
<!-- Node3 -->
<g id="Node000003" class="node">
<title>Node3</title>
<g id="a_Node000003"><a xlink:href="class_task_a_p_i_1_1_services_1_1_log_service.html" target="_top" xlink:title="Provides logging services for various levels of application events, including debug,...">
<polygon fill="white" stroke="#666666" points="488.5,-55 345.75,-55 345.75,-35 488.5,-35 488.5,-55"/>
<text text-anchor="middle" x="417.12" y="-41.5" font-family="Helvetica,sans-Serif" font-size="10.00">TaskAPI.Services.LogService</text>
</a>
</g>
</g>
<!-- Node3&#45;&gt;Node1 -->
<g id="edge2_Node000001_Node000003" class="edge">
<title>Node3&#45;&gt;Node1</title>
<g id="a_edge2_Node000001_Node000003"><a xlink:title=" ">
<path fill="none" stroke="#9a32cd" stroke-dasharray="5,2" d="M500.1,-42.56C557.43,-41.94 635.67,-43.26 704,-52 737.84,-56.33 775.02,-64.83 804.81,-72.59"/>
<polygon fill="#9a32cd" stroke="#9a32cd" points="500.39,-39.06 490.43,-42.69 500.48,-46.06 500.39,-39.06"/>
</a>
</g>
<text text-anchor="middle" x="640.5" y="-54.5" font-family="Helvetica,sans-Serif" font-size="10.00" fill="grey"> _logService</text>
</g>
<!-- Node7 -->
<g id="Node000007" class="node">
<title>Node7</title>
<g id="a_Node000007"><a xlink:href="class_task_a_p_i_1_1_services_1_1_internal_a_p_i_service.html" target="_top" xlink:title="Provides a collection of services for interacting with internal API endpoints, including sending emai...">
<polygon fill="white" stroke="#666666" points="704,-105 577,-105 577,-73 704,-73 704,-105"/>
<text text-anchor="start" x="585" y="-91.5" font-family="Helvetica,sans-Serif" font-size="10.00">TaskAPI.Services.Internal</text>
<text text-anchor="middle" x="640.5" y="-79.5" font-family="Helvetica,sans-Serif" font-size="10.00">APIService</text>
</a>
</g>
</g>
<!-- Node3&#45;&gt;Node7 -->
<g id="edge8_Node000007_Node000003" class="edge">
<title>Node3&#45;&gt;Node7</title>
<g id="a_edge8_Node000007_Node000003"><a xlink:title=" ">
<path fill="none" stroke="#9a32cd" stroke-dasharray="5,2" d="M485.25,-57.6C508.61,-62.05 534.98,-67.16 559,-72 564.74,-73.16 570.71,-74.38 576.68,-75.62"/>
<polygon fill="#9a32cd" stroke="#9a32cd" points="486.01,-54.18 475.53,-55.75 484.7,-61.06 486.01,-54.18"/>
</a>
</g>
<text text-anchor="middle" x="532.75" y="-74.5" font-family="Helvetica,sans-Serif" font-size="10.00" fill="grey"> _logService</text>
</g>
<!-- Node4 -->
<g id="Node000004" class="node">
<title>Node4</title>
<g id="a_Node000004"><a xlink:href="class_task_a_p_i_1_1_contexts_1_1_task_a_p_i_context.html" target="_top" xlink:title=" ">
<polygon fill="white" stroke="#666666" points="267,-20 98.75,-20 98.75,0 267,0 267,-20"/>
<text text-anchor="middle" x="182.88" y="-6.5" font-family="Helvetica,sans-Serif" font-size="10.00">TaskAPI.Contexts.TaskAPIContext</text>
</a>
</g>
</g>
<!-- Node4&#45;&gt;Node1 -->
<g id="edge6_Node000001_Node000004" class="edge">
<title>Node4&#45;&gt;Node1</title>
<g id="a_edge6_Node000001_Node000004"><a xlink:title=" ">
<path fill="none" stroke="#9a32cd" stroke-dasharray="5,2" d="M278.95,-11.65C383.48,-14.31 556.22,-21.22 704,-39 736.47,-42.91 745.41,-40.67 776.75,-50 795.65,-55.62 815.75,-64.65 831.71,-72.59"/>
<polygon fill="#9a32cd" stroke="#9a32cd" points="279.09,-8.15 269,-11.41 278.91,-15.15 279.09,-8.15"/>
</a>
</g>
<text text-anchor="middle" x="532.75" y="-26.5" font-family="Helvetica,sans-Serif" font-size="10.00" fill="grey"> _context</text>
</g>
<!-- Node4&#45;&gt;Node3 -->
<g id="edge3_Node000003_Node000004" class="edge">
<title>Node4&#45;&gt;Node3</title>
<g id="a_edge3_Node000003_Node000004"><a xlink:title=" ">
<path fill="none" stroke="#9a32cd" stroke-dasharray="5,2" d="M264.53,-22.15C291.3,-26.19 320.86,-30.64 346.71,-34.54"/>
<polygon fill="#9a32cd" stroke="#9a32cd" points="265.15,-18.71 254.74,-20.68 264.11,-25.63 265.15,-18.71"/>
</a>
</g>
<text text-anchor="middle" x="306.38" y="-33.5" font-family="Helvetica,sans-Serif" font-size="10.00" fill="grey"> _context</text>
</g>
<!-- Node5 -->
<g id="Node000005" class="node">
<title>Node5</title>
<g id="a_Node000005"><a xlink:title=" ">
<polygon fill="white" stroke="#666666" points="61.75,-20 0,-20 0,0 61.75,0 61.75,-20"/>
<text text-anchor="middle" x="30.88" y="-6.5" font-family="Helvetica,sans-Serif" font-size="10.00">DbContext</text>
</a>
</g>
</g>
<!-- Node5&#45;&gt;Node4 -->
<g id="edge4_Node000004_Node000005" class="edge">
<title>Node5&#45;&gt;Node4</title>
<g id="a_edge4_Node000004_Node000005"><a xlink:title=" ">
<path fill="none" stroke="#63b8ff" d="M73.6,-10C81.44,-10 89.89,-10 98.48,-10"/>
<polygon fill="#63b8ff" stroke="#63b8ff" points="73.74,-6.5 63.74,-10 73.74,-13.5 73.74,-6.5"/>
</a>
</g>
</g>
<!-- Node6 -->
<g id="Node000006" class="node">
<title>Node6</title>
<g id="a_Node000006"><a xlink:href="class_task_a_p_i_1_1_helpers_1_1_settings_1_1_task_a_p_i_settings.html" target="_top" xlink:title=" ">
<polygon fill="white" stroke="#666666" points="248.25,-114 117.5,-114 117.5,-82 248.25,-82 248.25,-114"/>
<text text-anchor="start" x="125.5" y="-100.5" font-family="Helvetica,sans-Serif" font-size="10.00">TaskAPI.Helpers.Settings.</text>
<text text-anchor="middle" x="182.88" y="-88.5" font-family="Helvetica,sans-Serif" font-size="10.00">TaskAPISettings</text>
</a>
</g>
</g>
<!-- Node6&#45;&gt;Node1 -->
<g id="edge10_Node000001_Node000006" class="edge">
<title>Node6&#45;&gt;Node1</title>
<g id="a_edge10_Node000001_Node000006"><a xlink:title=" ">
<path fill="none" stroke="#9a32cd" stroke-dasharray="5,2" d="M259.98,-107.03C268.41,-107.81 276.88,-108.49 285,-109 470.87,-120.68 518.12,-125.45 704,-114 733.82,-112.16 766.48,-107.46 794.34,-102.62"/>
<polygon fill="#9a32cd" stroke="#9a32cd" points="260.33,-103.55 250.04,-106.07 259.66,-110.52 260.33,-103.55"/>
</a>
</g>
<text text-anchor="middle" x="532.75" y="-122.5" font-family="Helvetica,sans-Serif" font-size="10.00" fill="grey"> _settings</text>
</g>
<!-- Node6&#45;&gt;Node3 -->
<g id="edge5_Node000003_Node000006" class="edge">
<title>Node6&#45;&gt;Node3</title>
<g id="a_edge5_Node000003_Node000006"><a xlink:title=" ">
<path fill="none" stroke="#9a32cd" stroke-dasharray="5,2" d="M257.02,-78.75C266.42,-76.4 275.92,-74.1 285,-72 310.36,-66.13 338.63,-60.23 362.41,-55.45"/>
<polygon fill="#9a32cd" stroke="#9a32cd" points="256.38,-75.3 247.53,-81.13 258.08,-82.09 256.38,-75.3"/>
</a>
</g>
<text text-anchor="middle" x="306.38" y="-74.5" font-family="Helvetica,sans-Serif" font-size="10.00" fill="grey"> _settings</text>
</g>
<!-- Node6&#45;&gt;Node7 -->
<g id="edge9_Node000007_Node000006" class="edge">
<title>Node6&#45;&gt;Node7</title>
<g id="a_edge9_Node000007_Node000006"><a xlink:title=" ">
<path fill="none" stroke="#9a32cd" stroke-dasharray="5,2" d="M260.02,-96.5C348.86,-94.74 494.11,-91.87 576.76,-90.24"/>
<polygon fill="#9a32cd" stroke="#9a32cd" points="260.11,-92.99 250.18,-96.69 260.25,-99.99 260.11,-92.99"/>
</a>
</g>
<text text-anchor="middle" x="417.12" y="-96.5" font-family="Helvetica,sans-Serif" font-size="10.00" fill="grey"> _settings</text>
</g>
<!-- Node7&#45;&gt;Node1 -->
<g id="edge7_Node000001_Node000007" class="edge">
<title>Node7&#45;&gt;Node1</title>
<g id="a_edge7_Node000001_Node000007"><a xlink:title=" ">
<path fill="none" stroke="#9a32cd" stroke-dasharray="5,2" d="M715.89,-89C741.32,-89 769.61,-89 794.48,-89"/>
<polygon fill="#9a32cd" stroke="#9a32cd" points="715.94,-85.5 705.94,-89 715.94,-92.5 715.94,-85.5"/>
</a>
</g>
<text text-anchor="middle" x="749.38" y="-91.5" font-family="Helvetica,sans-Serif" font-size="10.00" fill="grey"> _iapiService</text>
</g>
</g>
</svg>

<g id="navigator" transform="translate(0 0)" fill="#404254">
  <rect fill="#f2f5e9" fill-opacity="0.5" stroke="#606060" stroke-width=".5" x="0" y="0" width="60" height="60"/>
  <use id="zoomplus" xlink:href="#zoomPlus" x="17" y="9" onmousedown="handleZoom(evt,'in')"/>
  <use id="zoomminus" xlink:href="#zoomMin" x="42" y="9" onmousedown="handleZoom(evt,'out')"/>
  <use id="reset" xlink:href="#resetDef" x="30" y="36" onmousedown="handleReset()"/>
   <use id="arrowup" xlink:href="#arrowUp" x="0" y="0" onmousedown="handlePan(0,-1)"/>
  <use id="arrowright" xlink:href="#arrowRight" x="0" y="0" onmousedown="handlePan(1,0)"/>
  <use id="arrowdown" xlink:href="#arrowDown" x="0" y="0" onmousedown="handlePan(0,1)"/>
  <use id="arrowleft" xlink:href="#arrowLeft" x="0" y="0" onmousedown="handlePan(-1,0)"/>
</g>
<svg viewBox="0 0 15 15" width="100%" height="30px" preserveAspectRatio="xMaxYMin meet">
 <g id="arrow_out" transform="scale(0.3 0.3)">
  <a xlink:href="class_task_a_p_i_1_1_controllers_1_1_internal_a_p_i_controller__coll__graph_org.svg" target="_base">
   <rect id="button" ry="5" rx="5" y="6" x="6" height="38" width="38"
        fill="#f2f5e9" fill-opacity="0.5" stroke="#606060" stroke-width="1.0"/>
   <path id="arrow"
     d="M 11.500037,31.436501 C 11.940474,20.09759 22.043105,11.32322 32.158766,21.979434 L 37.068811,17.246167 C 37.068811,17.246167 37.088388,32 37.088388,32 L 22.160133,31.978069 C 22.160133,31.978069 26.997745,27.140456 26.997745,27.140456 C 18.528582,18.264221 13.291696,25.230495 11.500037,31.436501 z"
     style="fill:#404040;"/>
  </a>
 </g>
</svg>

<style type='text/css'>
<![CDATA[
[data-mouse-over-selected='false'] { opacity: 0.7; }
[data-mouse-over-selected='true']  { opacity: 1.0; }
]]>
</style>
<script type="application/ecmascript"><![CDATA[
document.addEventListener('DOMContentLoaded', (event) => {
  highlightEdges();
  highlightAdjacentNodes();
});
]]></script>
</svg>
