<?xml version="1.0" encoding="UTF-8" standalone="no"?>
<!DOCTYPE svg PUBLIC "-//W3C//DTD SVG 1.1//EN"
 "http://www.w3.org/Graphics/SVG/1.1/DTD/svg11.dtd">
<!-- Generated by graphviz version 9.0.0 (20230911.1827)
 -->
<!-- Title: TaskAPI.Controllers.PriceappController Pages: 1 -->
<svg width="1325pt" height="470pt"
 viewBox="0.00 0.00 1324.75 470.00" xmlns="http://www.w3.org/2000/svg" xmlns:xlink="http://www.w3.org/1999/xlink">
<g id="graph0" class="graph" transform="scale(1 1) rotate(0) translate(4 466)">
<title>TaskAPI.Controllers.PriceappController</title>
<!-- Node1 -->
<g id="Node000001" class="node">
<title>Node1</title>
<g id="a_Node000001"><a xlink:title=" ">
<polygon fill="#999999" stroke="#666666" points="1316.75,-130 1173.25,-130 1173.25,-98 1316.75,-98 1316.75,-130"/>
<text text-anchor="start" x="1181.25" y="-116.5" font-family="Helvetica,sans-Serif" font-size="10.00">TaskAPI.Controllers.Priceapp</text>
<text text-anchor="middle" x="1245" y="-104.5" font-family="Helvetica,sans-Serif" font-size="10.00">Controller</text>
</a>
</g>
</g>
<!-- Node2 -->
<g id="Node000002" class="node">
<title>Node2</title>
<g id="a_Node000002"><a xlink:title=" ">
<polygon fill="white" stroke="#666666" points="1039.38,-236 959.62,-236 959.62,-216 1039.38,-216 1039.38,-236"/>
<text text-anchor="middle" x="999.5" y="-222.5" font-family="Helvetica,sans-Serif" font-size="10.00">ControllerBase</text>
</a>
</g>
</g>
<!-- Node2&#45;&gt;Node1 -->
<g id="edge1_Node000001_Node000002" class="edge">
<title>Node2&#45;&gt;Node1</title>
<g id="a_edge1_Node000001_Node000002"><a xlink:title=" ">
<path fill="none" stroke="#63b8ff" d="M1047.87,-212.29C1053.49,-210.56 1059.13,-208.77 1064.5,-207 1105.26,-193.55 1117.02,-193.5 1155.25,-174 1179.77,-161.49 1205.6,-143.39 1223.03,-130.35"/>
<polygon fill="#63b8ff" stroke="#63b8ff" points="1047.18,-208.84 1038.62,-215.09 1049.2,-215.54 1047.18,-208.84"/>
</a>
</g>
</g>
<!-- Node3 -->
<g id="Node000003" class="node">
<title>Node3</title>
<g id="a_Node000003"><a xlink:href="class_task_a_p_i_1_1_services_1_1_log_service.html" target="_top" xlink:title="Provides logging services for various levels of application events, including debug,...">
<polygon fill="white" stroke="#666666" points="581.75,-116 439,-116 439,-96 581.75,-96 581.75,-116"/>
<text text-anchor="middle" x="510.38" y="-102.5" font-family="Helvetica,sans-Serif" font-size="10.00">TaskAPI.Services.LogService</text>
</a>
</g>
</g>
<!-- Node3&#45;&gt;Node1 -->
<g id="edge2_Node000001_Node000003" class="edge">
<title>Node3&#45;&gt;Node1</title>
<g id="a_edge2_Node000001_Node000003"><a xlink:title=" ">
<path fill="none" stroke="#9a32cd" stroke-dasharray="5,2" d="M550.56,-92.11C565.72,-87.37 583.35,-82.6 599.75,-80 630.71,-75.09 638.91,-78.44 670.25,-78 737.69,-77.04 754.59,-75.86 822,-78 945.65,-81.92 1089.05,-96.24 1172.83,-105.59"/>
<polygon fill="#9a32cd" stroke="#9a32cd" points="549.87,-88.66 541.44,-95.07 552.03,-95.32 549.87,-88.66"/>
</a>
</g>
<text text-anchor="middle" x="878.25" y="-84.5" font-family="Helvetica,sans-Serif" font-size="10.00" fill="grey"> _logService</text>
</g>
<!-- Node7 -->
<g id="Node000007" class="node">
<title>Node7</title>
<g id="a_Node000007"><a xlink:href="class_task_a_p_i_1_1_helpers_1_1_priceapp_helper.html" target="_top" xlink:title="Helper class for managing operations related to the Priceapp functionality.">
<polygon fill="white" stroke="#666666" points="1064.5,-198 934.5,-198 934.5,-166 1064.5,-166 1064.5,-198"/>
<text text-anchor="start" x="942.5" y="-184.5" font-family="Helvetica,sans-Serif" font-size="10.00">TaskAPI.Helpers.Priceapp</text>
<text text-anchor="middle" x="999.5" y="-172.5" font-family="Helvetica,sans-Serif" font-size="10.00">Helper</text>
</a>
</g>
</g>
<!-- Node3&#45;&gt;Node7 -->
<g id="edge7_Node000007_Node000003" class="edge">
<title>Node3&#45;&gt;Node7</title>
<g id="a_edge7_Node000007_Node000003"><a xlink:title=" ">
<path fill="none" stroke="#9a32cd" stroke-dasharray="5,2" d="M574.97,-93.73C638.49,-83.79 738.45,-74.49 822,-95 880.06,-109.26 941.22,-144.68 974.11,-165.66"/>
<polygon fill="#9a32cd" stroke="#9a32cd" points="574.74,-90.22 565.42,-95.28 575.86,-97.13 574.74,-90.22"/>
</a>
</g>
<text text-anchor="middle" x="746.12" y="-97.5" font-family="Helvetica,sans-Serif" font-size="10.00" fill="grey"> _logService</text>
</g>
<!-- Node8 -->
<g id="Node000008" class="node">
<title>Node8</title>
<g id="a_Node000008"><a xlink:href="class_task_a_p_i_1_1_services_1_1_forex_service.html" target="_top" xlink:title="Provides methods for interacting with a Forex data feed.">
<polygon fill="white" stroke="#666666" points="822,-186 670.25,-186 670.25,-166 822,-166 822,-186"/>
<text text-anchor="middle" x="746.12" y="-172.5" font-family="Helvetica,sans-Serif" font-size="10.00">TaskAPI.Services.ForexService</text>
</a>
</g>
</g>
<!-- Node3&#45;&gt;Node8 -->
<g id="edge9_Node000008_Node000003" class="edge">
<title>Node3&#45;&gt;Node8</title>
<g id="a_edge9_Node000008_Node000003"><a xlink:title=" ">
<path fill="none" stroke="#9a32cd" stroke-dasharray="5,2" d="M552.66,-120.03C584.6,-130.7 630.02,-145.45 670.25,-157 680.43,-159.92 691.46,-162.85 701.84,-165.5"/>
<polygon fill="#9a32cd" stroke="#9a32cd" points="553.99,-116.78 543.39,-116.92 551.76,-123.42 553.99,-116.78"/>
</a>
</g>
<text text-anchor="middle" x="626" y="-152.5" font-family="Helvetica,sans-Serif" font-size="10.00" fill="grey"> _logService</text>
</g>
<!-- Node9 -->
<g id="Node000009" class="node">
<title>Node9</title>
<g id="a_Node000009"><a xlink:href="class_task_a_p_i_1_1_services_1_1_alchemy_service.html" target="_top" xlink:title="Provides functionality to interact with the Alchemy API for blockchain data retrieval.">
<polygon fill="white" stroke="#666666" points="813,-286 679.25,-286 679.25,-254 813,-254 813,-286"/>
<text text-anchor="start" x="687.25" y="-272.5" font-family="Helvetica,sans-Serif" font-size="10.00">TaskAPI.Services.Alchemy</text>
<text text-anchor="middle" x="746.12" y="-260.5" font-family="Helvetica,sans-Serif" font-size="10.00">Service</text>
</a>
</g>
</g>
<!-- Node3&#45;&gt;Node9 -->
<g id="edge12_Node000009_Node000003" class="edge">
<title>Node3&#45;&gt;Node9</title>
<g id="a_edge12_Node000009_Node000003"><a xlink:title=" ">
<path fill="none" stroke="#9a32cd" stroke-dasharray="5,2" d="M560.12,-121.26C568.23,-125.6 575.89,-131.09 581.75,-138 601.69,-161.52 580.88,-180.61 599.75,-205 621.8,-233.49 637.34,-230.34 670.25,-245 677.13,-248.07 684.52,-250.97 691.87,-253.64"/>
<polygon fill="#9a32cd" stroke="#9a32cd" points="561.63,-118.1 551.09,-117 558.64,-124.43 561.63,-118.1"/>
</a>
</g>
<text text-anchor="middle" x="626" y="-239.5" font-family="Helvetica,sans-Serif" font-size="10.00" fill="grey"> _logService</text>
</g>
<!-- Node10 -->
<g id="Node000010" class="node">
<title>Node10</title>
<g id="a_Node000010"><a xlink:href="class_task_a_p_i_1_1_services_1_1_binance_service.html" target="_top" xlink:title="Provides access to Binance cryptocurrency data.">
<polygon fill="white" stroke="#666666" points="811.5,-236 680.75,-236 680.75,-204 811.5,-204 811.5,-236"/>
<text text-anchor="start" x="688.75" y="-222.5" font-family="Helvetica,sans-Serif" font-size="10.00">TaskAPI.Services.Binance</text>
<text text-anchor="middle" x="746.12" y="-210.5" font-family="Helvetica,sans-Serif" font-size="10.00">Service</text>
</a>
</g>
</g>
<!-- Node3&#45;&gt;Node10 -->
<g id="edge15_Node000010_Node000003" class="edge">
<title>Node3&#45;&gt;Node10</title>
<g id="a_edge15_Node000010_Node000003"><a xlink:title=" ">
<path fill="none" stroke="#9a32cd" stroke-dasharray="5,2" d="M554.7,-120.99C564.24,-125.53 573.85,-131.17 581.75,-138 592.94,-147.68 588.39,-156.53 599.75,-166 625.78,-187.69 638.5,-183.18 670.25,-195 677.96,-197.87 686.16,-200.76 694.21,-203.52"/>
<polygon fill="#9a32cd" stroke="#9a32cd" points="556.41,-117.92 545.85,-117.11 553.6,-124.33 556.41,-117.92"/>
</a>
</g>
<text text-anchor="middle" x="626" y="-191.5" font-family="Helvetica,sans-Serif" font-size="10.00" fill="grey"> _logService</text>
</g>
<!-- Node12 -->
<g id="Node000012" class="node">
<title>Node12</title>
<g id="a_Node000012"><a xlink:href="class_task_a_p_i_1_1_services_1_1_internal_a_p_i_service.html" target="_top" xlink:title="Provides a collection of services for interacting with internal API endpoints, including sending emai...">
<polygon fill="white" stroke="#666666" points="809.62,-148 682.62,-148 682.62,-116 809.62,-116 809.62,-148"/>
<text text-anchor="start" x="690.62" y="-134.5" font-family="Helvetica,sans-Serif" font-size="10.00">TaskAPI.Services.Internal</text>
<text text-anchor="middle" x="746.12" y="-122.5" font-family="Helvetica,sans-Serif" font-size="10.00">APIService</text>
</a>
</g>
</g>
<!-- Node3&#45;&gt;Node12 -->
<g id="edge21_Node000012_Node000003" class="edge">
<title>Node3&#45;&gt;Node12</title>
<g id="a_edge21_Node000012_Node000003"><a xlink:title=" ">
<path fill="none" stroke="#9a32cd" stroke-dasharray="5,2" d="M593.26,-95.86C612.69,-95.13 633.29,-95.73 652.25,-99 671.14,-102.26 691.27,-108.98 707.95,-115.51"/>
<polygon fill="#9a32cd" stroke="#9a32cd" points="593.29,-92.36 583.48,-96.36 593.64,-99.35 593.29,-92.36"/>
</a>
</g>
<text text-anchor="middle" x="626" y="-101.5" font-family="Helvetica,sans-Serif" font-size="10.00" fill="grey"> _logService</text>
</g>
<!-- Node4 -->
<g id="Node000004" class="node">
<title>Node4</title>
<g id="a_Node000004"><a xlink:href="class_task_a_p_i_1_1_contexts_1_1_task_a_p_i_context.html" target="_top" xlink:title=" ">
<polygon fill="white" stroke="#666666" points="267,-85 98.75,-85 98.75,-65 267,-65 267,-85"/>
<text text-anchor="middle" x="182.88" y="-71.5" font-family="Helvetica,sans-Serif" font-size="10.00">TaskAPI.Contexts.TaskAPIContext</text>
</a>
</g>
</g>
<!-- Node4&#45;&gt;Node3 -->
<g id="edge3_Node000003_Node000004" class="edge">
<title>Node4&#45;&gt;Node3</title>
<g id="a_edge3_Node000003_Node000004"><a xlink:title=" ">
<path fill="none" stroke="#9a32cd" stroke-dasharray="5,2" d="M278.92,-78.49C322.35,-80.73 374.39,-84.33 421,-90 432.76,-91.43 445.33,-93.42 457.19,-95.52"/>
<polygon fill="#9a32cd" stroke="#9a32cd" points="279.17,-75 269.01,-78 278.82,-81.99 279.17,-75"/>
</a>
</g>
<text text-anchor="middle" x="353" y="-92.5" font-family="Helvetica,sans-Serif" font-size="10.00" fill="grey"> _context</text>
</g>
<!-- Node5 -->
<g id="Node000005" class="node">
<title>Node5</title>
<g id="a_Node000005"><a xlink:title=" ">
<polygon fill="white" stroke="#666666" points="61.75,-291 0,-291 0,-271 61.75,-271 61.75,-291"/>
<text text-anchor="middle" x="30.88" y="-277.5" font-family="Helvetica,sans-Serif" font-size="10.00">DbContext</text>
</a>
</g>
</g>
<!-- Node5&#45;&gt;Node4 -->
<g id="edge4_Node000004_Node000005" class="edge">
<title>Node5&#45;&gt;Node4</title>
<g id="a_edge4_Node000004_Node000005"><a xlink:title=" ">
<path fill="none" stroke="#63b8ff" d="M46.15,-261.39C77.3,-218.62 150.45,-118.16 174.25,-85.48"/>
<polygon fill="#63b8ff" stroke="#63b8ff" points="43.47,-259.13 40.41,-269.28 49.13,-263.25 43.47,-259.13"/>
</a>
</g>
</g>
<!-- Node11 -->
<g id="Node000011" class="node">
<title>Node11</title>
<g id="a_Node000011"><a xlink:href="class_task_a_p_i_1_1_contexts_1_1_priceapp_context.html" target="_top" xlink:title=" ">
<polygon fill="white" stroke="#666666" points="421,-406 285,-406 285,-374 421,-374 421,-406"/>
<text text-anchor="start" x="293" y="-392.5" font-family="Helvetica,sans-Serif" font-size="10.00">TaskAPI.Contexts.Priceapp</text>
<text text-anchor="middle" x="353" y="-380.5" font-family="Helvetica,sans-Serif" font-size="10.00">Context</text>
</a>
</g>
</g>
<!-- Node5&#45;&gt;Node11 -->
<g id="edge19_Node000011_Node000005" class="edge">
<title>Node5&#45;&gt;Node11</title>
<g id="a_edge19_Node000011_Node000005"><a xlink:title=" ">
<path fill="none" stroke="#63b8ff" d="M70.74,-295.32C120.26,-313.41 208.6,-345.18 285,-370 288.58,-371.16 292.27,-372.34 296,-373.5"/>
<polygon fill="#63b8ff" stroke="#63b8ff" points="72.21,-292.13 61.62,-291.98 69.8,-298.7 72.21,-292.13"/>
</a>
</g>
</g>
<!-- Node6 -->
<g id="Node000006" class="node">
<title>Node6</title>
<g id="a_Node000006"><a xlink:href="class_task_a_p_i_1_1_helpers_1_1_settings_1_1_task_a_p_i_settings.html" target="_top" xlink:title=" ">
<polygon fill="white" stroke="#666666" points="248.25,-236 117.5,-236 117.5,-204 248.25,-204 248.25,-236"/>
<text text-anchor="start" x="125.5" y="-222.5" font-family="Helvetica,sans-Serif" font-size="10.00">TaskAPI.Helpers.Settings.</text>
<text text-anchor="middle" x="182.88" y="-210.5" font-family="Helvetica,sans-Serif" font-size="10.00">TaskAPISettings</text>
</a>
</g>
</g>
<!-- Node6&#45;&gt;Node1 -->
<g id="edge24_Node000001_Node000006" class="edge">
<title>Node6&#45;&gt;Node1</title>
<g id="a_edge24_Node000001_Node000006"><a xlink:title=" ">
<path fill="none" stroke="#9a32cd" stroke-dasharray="5,2" d="M200.48,-194.46C218.62,-168.17 249.84,-127.44 285,-101 372.41,-35.28 400.02,0 509.38,0 509.38,0 509.38,0 1000.5,0 1091.52,0 1185.16,-66.14 1224.62,-97.67"/>
<polygon fill="#9a32cd" stroke="#9a32cd" points="197.73,-192.27 195.03,-202.51 203.53,-196.19 197.73,-192.27"/>
</a>
</g>
<text text-anchor="middle" x="746.12" y="-2.5" font-family="Helvetica,sans-Serif" font-size="10.00" fill="grey"> _settings</text>
</g>
<!-- Node6&#45;&gt;Node3 -->
<g id="edge5_Node000003_Node000006" class="edge">
<title>Node6&#45;&gt;Node3</title>
<g id="a_edge5_Node000003_Node000006"><a xlink:title=" ">
<path fill="none" stroke="#9a32cd" stroke-dasharray="5,2" d="M204.99,-195.42C223.8,-175.31 253.21,-147.99 285,-134 333.42,-112.7 393.03,-106.06 438.64,-104.56"/>
<polygon fill="#9a32cd" stroke="#9a32cd" points="202.52,-192.93 198.38,-202.68 207.7,-197.64 202.52,-192.93"/>
</a>
</g>
<text text-anchor="middle" x="353" y="-136.5" font-family="Helvetica,sans-Serif" font-size="10.00" fill="grey"> _settings</text>
</g>
<!-- Node6&#45;&gt;Node7 -->
<g id="edge17_Node000007_Node000006" class="edge">
<title>Node6&#45;&gt;Node7</title>
<g id="a_edge17_Node000007_Node000006"><a xlink:title=" ">
<path fill="none" stroke="#9a32cd" stroke-dasharray="5,2" d="M209.73,-243.8C228.98,-260.03 256.73,-280.43 285,-291 349.45,-315.1 370.28,-303.44 439,-307 609.08,-315.81 654.12,-323.64 822,-295 865.18,-287.63 885.47,-297.92 916.5,-267 936.22,-247.35 915.63,-227.47 934.5,-207 937.49,-203.76 940.96,-200.93 944.69,-198.46"/>
<polygon fill="#9a32cd" stroke="#9a32cd" points="212.24,-241.35 202.39,-237.44 207.66,-246.64 212.24,-241.35"/>
</a>
</g>
<text text-anchor="middle" x="626" y="-317.5" font-family="Helvetica,sans-Serif" font-size="10.00" fill="grey"> _settings</text>
</g>
<!-- Node6&#45;&gt;Node8 -->
<g id="edge10_Node000008_Node000006" class="edge">
<title>Node6&#45;&gt;Node8</title>
<g id="a_edge10_Node000008_Node000006"><a xlink:title=" ">
<path fill="none" stroke="#9a32cd" stroke-dasharray="5,2" d="M259.96,-228.37C354,-236.29 518.06,-242.07 652.25,-205 661.07,-202.56 661.74,-198.38 670.25,-195 678.48,-191.73 687.44,-188.89 696.21,-186.47"/>
<polygon fill="#9a32cd" stroke="#9a32cd" points="260.34,-224.89 250.07,-227.51 259.73,-231.87 260.34,-224.89"/>
</a>
</g>
<text text-anchor="middle" x="510.38" y="-235.5" font-family="Helvetica,sans-Serif" font-size="10.00" fill="grey"> _settings</text>
</g>
<!-- Node6&#45;&gt;Node9 -->
<g id="edge13_Node000009_Node000006" class="edge">
<title>Node6&#45;&gt;Node9</title>
<g id="a_edge13_Node000009_Node000006"><a xlink:title=" ">
<path fill="none" stroke="#9a32cd" stroke-dasharray="5,2" d="M222.14,-241.52C240.58,-250.91 263.35,-261.1 285,-267 421.03,-304.08 588.21,-291.45 678.92,-280.04"/>
<polygon fill="#9a32cd" stroke="#9a32cd" points="223.92,-238.5 213.44,-236.97 220.68,-244.71 223.92,-238.5"/>
</a>
</g>
<text text-anchor="middle" x="510.38" y="-293.5" font-family="Helvetica,sans-Serif" font-size="10.00" fill="grey"> _settings</text>
</g>
<!-- Node6&#45;&gt;Node10 -->
<g id="edge16_Node000010_Node000006" class="edge">
<title>Node6&#45;&gt;Node10</title>
<g id="a_edge16_Node000010_Node000006"><a xlink:title=" ">
<path fill="none" stroke="#9a32cd" stroke-dasharray="5,2" d="M259.71,-238.13C353.09,-257.55 516.05,-281.9 652.25,-253 660.81,-251.18 662.09,-248.17 670.25,-245 677.79,-242.07 685.83,-239.17 693.74,-236.43"/>
<polygon fill="#9a32cd" stroke="#9a32cd" points="260.67,-234.76 250.16,-236.11 259.21,-241.61 260.67,-234.76"/>
</a>
</g>
<text text-anchor="middle" x="510.38" y="-268.5" font-family="Helvetica,sans-Serif" font-size="10.00" fill="grey"> _settings</text>
</g>
<!-- Node6&#45;&gt;Node12 -->
<g id="edge22_Node000012_Node000006" class="edge">
<title>Node6&#45;&gt;Node12</title>
<g id="a_edge22_Node000012_Node000006"><a xlink:title=" ">
<path fill="none" stroke="#9a32cd" stroke-dasharray="5,2" d="M259.71,-208.11C371.55,-190.57 578.64,-158.1 682.42,-141.83"/>
<polygon fill="#9a32cd" stroke="#9a32cd" points="259.36,-204.62 250.03,-209.63 260.45,-211.54 259.36,-204.62"/>
</a>
</g>
<text text-anchor="middle" x="510.38" y="-180.5" font-family="Helvetica,sans-Serif" font-size="10.00" fill="grey"> _settings</text>
</g>
<!-- Node7&#45;&gt;Node1 -->
<g id="edge6_Node000001_Node000007" class="edge">
<title>Node7&#45;&gt;Node1</title>
<g id="a_edge6_Node000001_Node000007"><a xlink:title=" ">
<path fill="none" stroke="#9a32cd" stroke-dasharray="5,2" d="M1070.45,-162.47C1106.76,-152.32 1150.63,-140.07 1185.18,-130.43"/>
<polygon fill="#9a32cd" stroke="#9a32cd" points="1069.59,-159.07 1060.9,-165.13 1071.48,-165.81 1069.59,-159.07"/>
</a>
</g>
<text text-anchor="middle" x="1118.88" y="-160.5" font-family="Helvetica,sans-Serif" font-size="10.00" fill="grey"> _priceappHelper</text>
</g>
<!-- Node8&#45;&gt;Node7 -->
<g id="edge8_Node000007_Node000008" class="edge">
<title>Node8&#45;&gt;Node7</title>
<g id="a_edge8_Node000007_Node000008"><a xlink:title=" ">
<path fill="none" stroke="#9a32cd" stroke-dasharray="5,2" d="M833.67,-178.07C866.58,-178.85 903.48,-179.73 934.01,-180.46"/>
<polygon fill="#9a32cd" stroke="#9a32cd" points="833.8,-174.57 823.72,-177.83 833.63,-181.57 833.8,-174.57"/>
</a>
</g>
<text text-anchor="middle" x="878.25" y="-181.5" font-family="Helvetica,sans-Serif" font-size="10.00" fill="grey"> _forexService</text>
</g>
<!-- Node9&#45;&gt;Node7 -->
<g id="edge11_Node000007_Node000009" class="edge">
<title>Node9&#45;&gt;Node7</title>
<g id="a_edge11_Node000007_Node000009"><a xlink:title=" ">
<path fill="none" stroke="#9a32cd" stroke-dasharray="5,2" d="M824.31,-255.35C854.18,-247.85 887.97,-237.05 916.5,-222 925.71,-217.14 925.53,-212.3 934.5,-207 939.74,-203.91 945.43,-201.05 951.18,-198.47"/>
<polygon fill="#9a32cd" stroke="#9a32cd" points="823.87,-251.85 814.97,-257.6 825.51,-258.65 823.87,-251.85"/>
</a>
</g>
<text text-anchor="middle" x="878.25" y="-253.5" font-family="Helvetica,sans-Serif" font-size="10.00" fill="grey"> _alchemyService</text>
</g>
<!-- Node10&#45;&gt;Node7 -->
<g id="edge14_Node000007_Node000010" class="edge">
<title>Node10&#45;&gt;Node7</title>
<g id="a_edge14_Node000007_Node000010"><a xlink:title=" ">
<path fill="none" stroke="#9a32cd" stroke-dasharray="5,2" d="M823.26,-208.94C852.43,-204.65 886.02,-199.67 916.5,-195 922.2,-194.13 928.12,-193.21 934.05,-192.28"/>
<polygon fill="#9a32cd" stroke="#9a32cd" points="822.78,-205.47 813.39,-210.39 823.79,-212.4 822.78,-205.47"/>
</a>
</g>
<text text-anchor="middle" x="878.25" y="-208.5" font-family="Helvetica,sans-Serif" font-size="10.00" fill="grey"> _binanceService</text>
</g>
<!-- Node11&#45;&gt;Node7 -->
<g id="edge18_Node000007_Node000011" class="edge">
<title>Node11&#45;&gt;Node7</title>
<g id="a_edge18_Node000007_Node000011"><a xlink:title=" ">
<path fill="none" stroke="#9a32cd" stroke-dasharray="5,2" d="M412.48,-409.72C526.07,-443.93 777.53,-498.99 916.5,-370 943.21,-345.21 912.32,-235.92 934.5,-207 937.04,-203.69 940.08,-200.81 943.44,-198.32"/>
<polygon fill="#9a32cd" stroke="#9a32cd" points="413.64,-406.42 403.05,-406.83 411.58,-413.11 413.64,-406.42"/>
</a>
</g>
<text text-anchor="middle" x="626" y="-452.5" font-family="Helvetica,sans-Serif" font-size="10.00" fill="grey"> _context</text>
</g>
<!-- Node12&#45;&gt;Node1 -->
<g id="edge23_Node000001_Node000012" class="edge">
<title>Node12&#45;&gt;Node1</title>
<g id="a_edge23_Node000001_Node000012"><a xlink:title=" ">
<path fill="none" stroke="#9a32cd" stroke-dasharray="5,2" d="M821.28,-129.31C916.14,-125.88 1079.32,-119.97 1172.76,-116.58"/>
<polygon fill="#9a32cd" stroke="#9a32cd" points="821.43,-125.81 811.57,-129.67 821.69,-132.8 821.43,-125.81"/>
</a>
</g>
<text text-anchor="middle" x="999.5" y="-127.5" font-family="Helvetica,sans-Serif" font-size="10.00" fill="grey"> _iapiService</text>
</g>
<!-- Node12&#45;&gt;Node7 -->
<g id="edge20_Node000007_Node000012" class="edge">
<title>Node12&#45;&gt;Node7</title>
<g id="a_edge20_Node000007_Node000012"><a xlink:title=" ">
<path fill="none" stroke="#9a32cd" stroke-dasharray="5,2" d="M821.18,-144.06C850.9,-149.17 885.4,-155.46 916.5,-162 922.24,-163.21 928.18,-164.52 934.13,-165.89"/>
<polygon fill="#9a32cd" stroke="#9a32cd" points="821.99,-140.65 811.54,-142.42 820.81,-147.55 821.99,-140.65"/>
</a>
</g>
<text text-anchor="middle" x="878.25" y="-164.5" font-family="Helvetica,sans-Serif" font-size="10.00" fill="grey"> _iapiService</text>
</g>
</g>
</svg>
