<?xml version="1.0" encoding="UTF-8" standalone="no"?>
<!DOCTYPE svg PUBLIC "-//W3C//DTD SVG 1.1//EN"
 "http://www.w3.org/Graphics/SVG/1.1/DTD/svg11.dtd">
<!-- Generated by graphviz version 9.0.0 (20230911.1827)
 -->
<!-- Title: TaskAPI.Services.LogService.LogException Pages: 1 -->
<svg width="922pt" height="922pt"
 viewBox="0.00 0.00 922.00 922.00" xmlns="http://www.w3.org/2000/svg" xmlns:xlink="http://www.w3.org/1999/xlink">
<g id="graph0" class="graph" transform="scale(1 1) rotate(0) translate(4 918)">
<title>TaskAPI.Services.LogService.LogException</title>
<!-- Node1 -->
<g id="Node000001" class="node">
<title>Node1</title>
<g id="a_Node000001"><a xlink:title="Logs an exception to the database.">
<polygon fill="#999999" stroke="#666666" points="914,-500 768.25,-500 768.25,-468 914,-468 914,-500"/>
<text text-anchor="start" x="776.25" y="-486.5" font-family="Helvetica,sans-Serif" font-size="10.00">TaskAPI.Services.LogService.</text>
<text text-anchor="middle" x="841.12" y="-474.5" font-family="Helvetica,sans-Serif" font-size="10.00">LogException</text>
</a>
</g>
</g>
<!-- Node2 -->
<g id="Node000002" class="node">
<title>Node2</title>
<g id="a_Node000002"><a xlink:href="class_task_a_p_i_1_1_services_1_1_internal_a_p_i_service.html#aafa740a340a6a25e1f8ac8a766d186f9" target="_top" xlink:title="Initiates a log trimming operation for AB Web logs via Internal API.">
<polygon fill="white" stroke="#666666" points="701.88,-500 563.62,-500 563.62,-468 701.88,-468 701.88,-500"/>
<text text-anchor="start" x="571.62" y="-486.5" font-family="Helvetica,sans-Serif" font-size="10.00">TaskAPI.Services.Internal</text>
<text text-anchor="middle" x="632.75" y="-474.5" font-family="Helvetica,sans-Serif" font-size="10.00">APIService.AbWebTrimLogs</text>
</a>
</g>
</g>
<!-- Node1&#45;&gt;Node2 -->
<g id="edge1_Node000001_Node000002" class="edge">
<title>Node1&#45;&gt;Node2</title>
<g id="a_edge1_Node000001_Node000002"><a xlink:title=" ">
<path fill="none" stroke="#63b8ff" d="M756.51,-484C738.42,-484 719.5,-484 702.08,-484"/>
<polygon fill="#63b8ff" stroke="#63b8ff" points="756.43,-487.5 766.43,-484 756.43,-480.5 756.43,-487.5"/>
</a>
</g>
</g>
<!-- Node4 -->
<g id="Node000004" class="node">
<title>Node4</title>
<g id="a_Node000004"><a xlink:href="class_task_a_p_i_1_1_services_1_1_internal_a_p_i_service.html#a8a31c4c8d5371ef13d5ab0da08186829" target="_top" xlink:title="Initiates a log trimming operation for Ainslie API logs via Internal API.">
<polygon fill="white" stroke="#666666" points="707.5,-450 558,-450 558,-418 707.5,-418 707.5,-450"/>
<text text-anchor="start" x="566" y="-436.5" font-family="Helvetica,sans-Serif" font-size="10.00">TaskAPI.Services.Internal</text>
<text text-anchor="middle" x="632.75" y="-424.5" font-family="Helvetica,sans-Serif" font-size="10.00">APIService.AinslieApiTrimLogs</text>
</a>
</g>
</g>
<!-- Node1&#45;&gt;Node4 -->
<g id="edge3_Node000001_Node000004" class="edge">
<title>Node1&#45;&gt;Node4</title>
<g id="a_edge3_Node000001_Node000004"><a xlink:title=" ">
<path fill="none" stroke="#63b8ff" d="M761.19,-464.88C741.56,-460.12 720.7,-455.07 701.65,-450.45"/>
<polygon fill="#63b8ff" stroke="#63b8ff" points="760.25,-468.25 770.79,-467.2 761.9,-461.45 760.25,-468.25"/>
</a>
</g>
</g>
<!-- Node6 -->
<g id="Node000006" class="node">
<title>Node6</title>
<g id="a_Node000006"><a xlink:href="class_task_a_p_i_1_1_controllers_1_1_logs_controller.html#aa1bbb95b5f70e8d5a457fdca962479e3" target="_top" xlink:title="Checks for alerts across all configured api sources.">
<polygon fill="white" stroke="#666666" points="139,-148 0,-148 0,-116 139,-116 139,-148"/>
<text text-anchor="start" x="8" y="-134.5" font-family="Helvetica,sans-Serif" font-size="10.00">TaskAPI.Controllers.Logs</text>
<text text-anchor="middle" x="69.5" y="-122.5" font-family="Helvetica,sans-Serif" font-size="10.00">Controller.CheckForAllAlerts</text>
</a>
</g>
</g>
<!-- Node1&#45;&gt;Node6 -->
<g id="edge5_Node000001_Node000006" class="edge">
<title>Node1&#45;&gt;Node6</title>
<g id="a_edge5_Node000001_Node000006"><a xlink:title=" ">
<path fill="none" stroke="#63b8ff" d="M835.95,-456.54C823.79,-380.65 785.86,-171.03 732.25,-131 640.37,-62.39 289.39,-101.39 139.27,-121.89"/>
<polygon fill="#63b8ff" stroke="#63b8ff" points="832.43,-456.69 837.44,-466.03 839.34,-455.61 832.43,-456.69"/>
</a>
</g>
</g>
<!-- Node7 -->
<g id="Node000007" class="node">
<title>Node7</title>
<g id="a_Node000007"><a xlink:href="class_task_a_p_i_1_1_services_1_1_internal_a_p_i_service.html#a79988bdd459de2ee2b545fa7cac3d92a" target="_top" xlink:title="Fetches daily close chart data from Internal API.">
<polygon fill="white" stroke="#666666" points="710.88,-82 554.62,-82 554.62,-50 710.88,-50 710.88,-82"/>
<text text-anchor="start" x="562.62" y="-68.5" font-family="Helvetica,sans-Serif" font-size="10.00">TaskAPI.Services.Internal</text>
<text text-anchor="middle" x="632.75" y="-56.5" font-family="Helvetica,sans-Serif" font-size="10.00">APIService.DailyCloseChartData</text>
</a>
</g>
</g>
<!-- Node1&#45;&gt;Node7 -->
<g id="edge6_Node000001_Node000007" class="edge">
<title>Node1&#45;&gt;Node7</title>
<g id="a_edge6_Node000001_Node000007"><a xlink:title=" ">
<path fill="none" stroke="#63b8ff" d="M840.9,-456.34C841.32,-386.01 832.44,-198.67 732.25,-96 726.26,-89.86 719.05,-84.97 711.29,-81.07"/>
<polygon fill="#63b8ff" stroke="#63b8ff" points="837.41,-456.14 840.77,-466.18 844.41,-456.23 837.41,-456.14"/>
</a>
</g>
</g>
<!-- Node9 -->
<g id="Node000009" class="node">
<title>Node9</title>
<g id="a_Node000009"><a xlink:href="class_task_a_p_i_1_1_services_1_1_internal_a_p_i_service.html#aa614614518048e1244ae357de18425df" target="_top" xlink:title="Retrieves the price of a specified OANDA instrument in USD.">
<polygon fill="white" stroke="#666666" points="732.25,-852 533.25,-852 533.25,-820 732.25,-820 732.25,-852"/>
<text text-anchor="start" x="541.25" y="-838.5" font-family="Helvetica,sans-Serif" font-size="10.00">TaskAPI.Services.Internal</text>
<text text-anchor="middle" x="632.75" y="-826.5" font-family="Helvetica,sans-Serif" font-size="10.00">APIService.GetOandaInstrumentPriceUSD</text>
</a>
</g>
</g>
<!-- Node1&#45;&gt;Node9 -->
<g id="edge8_Node000001_Node000009" class="edge">
<title>Node1&#45;&gt;Node9</title>
<g id="a_edge8_Node000001_Node000009"><a xlink:title=" ">
<path fill="none" stroke="#63b8ff" d="M839.04,-511.54C835.1,-573.26 816.84,-723.72 732.25,-806 726.61,-811.48 720,-815.97 712.92,-819.64"/>
<polygon fill="#63b8ff" stroke="#63b8ff" points="842.51,-512.11 839.57,-501.93 835.52,-511.72 842.51,-512.11"/>
</a>
</g>
</g>
<!-- Node12 -->
<g id="Node000012" class="node">
<title>Node12</title>
<g id="a_Node000012"><a xlink:href="class_task_a_p_i_1_1_helpers_1_1_spot_helper.html#a0fd06a80c097c9b6fcd5ddd8b1889c18" target="_top" xlink:title="Retrieves spot data from Oanda for each specified asset.">
<polygon fill="white" stroke="#666666" points="496.88,-808 354.12,-808 354.12,-776 496.88,-776 496.88,-808"/>
<text text-anchor="start" x="362.12" y="-794.5" font-family="Helvetica,sans-Serif" font-size="10.00">TaskAPI.Helpers.SpotHelper.</text>
<text text-anchor="middle" x="425.5" y="-782.5" font-family="Helvetica,sans-Serif" font-size="10.00">PullOandaData</text>
</a>
</g>
</g>
<!-- Node1&#45;&gt;Node12 -->
<g id="edge37_Node000001_Node000012" class="edge">
<title>Node1&#45;&gt;Node12</title>
<g id="a_edge37_Node000001_Node000012"><a xlink:title=" ">
<path fill="none" stroke="#63b8ff" d="M838.76,-511.69C834.26,-569.7 814.97,-703.75 732.25,-766 665.1,-816.53 564.61,-814.66 497.37,-805.78"/>
<polygon fill="#63b8ff" stroke="#63b8ff" points="842.25,-511.93 839.43,-501.72 835.27,-511.46 842.25,-511.93"/>
</a>
</g>
</g>
<!-- Node15 -->
<g id="Node000015" class="node">
<title>Node15</title>
<g id="a_Node000015"><a xlink:href="class_task_a_p_i_1_1_services_1_1_internal_a_p_i_service.html#a55b9f5404586ba97531f1cdc013ecaed" target="_top" xlink:title="Gets the market status override setting from Internal API.">
<polygon fill="white" stroke="#666666" points="722.12,-914 543.38,-914 543.38,-870 722.12,-870 722.12,-914"/>
<text text-anchor="start" x="551.38" y="-900.5" font-family="Helvetica,sans-Serif" font-size="10.00">TaskAPI.Services.Internal</text>
<text text-anchor="start" x="551.38" y="-888.5" font-family="Helvetica,sans-Serif" font-size="10.00">APIService.GetPriceappMarketStatus</text>
<text text-anchor="middle" x="632.75" y="-876.5" font-family="Helvetica,sans-Serif" font-size="10.00">Override</text>
</a>
</g>
</g>
<!-- Node1&#45;&gt;Node15 -->
<g id="edge14_Node000001_Node000015" class="edge">
<title>Node1&#45;&gt;Node15</title>
<g id="a_edge14_Node000001_Node000015"><a xlink:title=" ">
<path fill="none" stroke="#63b8ff" d="M840.58,-511.31C840.2,-579.93 829.49,-761.17 732.25,-861 729.12,-864.21 725.67,-867.09 721.98,-869.67"/>
<polygon fill="#63b8ff" stroke="#63b8ff" points="844.08,-511.72 840.56,-501.73 837.08,-511.74 844.08,-511.72"/>
</a>
</g>
</g>
<!-- Node17 -->
<g id="Node000017" class="node">
<title>Node17</title>
<g id="a_Node000017"><a xlink:href="class_task_a_p_i_1_1_services_1_1_internal_a_p_i_service.html#a01d6e21d8a6368eb448cb401630cf033" target="_top" xlink:title="Retrieves unified logs from Internal API for a specified API source.">
<polygon fill="white" stroke="#666666" points="698.88,-172 566.62,-172 566.62,-140 698.88,-140 698.88,-172"/>
<text text-anchor="start" x="574.62" y="-158.5" font-family="Helvetica,sans-Serif" font-size="10.00">TaskAPI.Services.Internal</text>
<text text-anchor="middle" x="632.75" y="-146.5" font-family="Helvetica,sans-Serif" font-size="10.00">APIService.GetUnifiedLogs</text>
</a>
</g>
</g>
<!-- Node1&#45;&gt;Node17 -->
<g id="edge17_Node000001_Node000017" class="edge">
<title>Node1&#45;&gt;Node17</title>
<g id="a_edge17_Node000001_Node000017"><a xlink:title=" ">
<path fill="none" stroke="#63b8ff" d="M838.26,-456.38C832.81,-397.7 811.76,-259.88 732.25,-185 723.04,-176.32 711.36,-170.23 699.29,-165.95"/>
<polygon fill="#63b8ff" stroke="#63b8ff" points="834.76,-456.47 839.08,-466.14 841.74,-455.88 834.76,-456.47"/>
</a>
</g>
</g>
<!-- Node20 -->
<g id="Node000020" class="node">
<title>Node20</title>
<g id="a_Node000020"><a xlink:href="class_task_a_p_i_1_1_services_1_1_internal_a_p_i_service.html#a0a18917a9a9834b9d1f62d96b3798912" target="_top" xlink:title="Initiates a log trimming operation via Internal API, targeting logs stored by Internal API itself.">
<polygon fill="white" stroke="#666666" points="709.38,-335 556.12,-335 556.12,-303 709.38,-303 709.38,-335"/>
<text text-anchor="start" x="564.12" y="-321.5" font-family="Helvetica,sans-Serif" font-size="10.00">TaskAPI.Services.Internal</text>
<text text-anchor="middle" x="632.75" y="-309.5" font-family="Helvetica,sans-Serif" font-size="10.00">APIService.InternalAPITrimLogs</text>
</a>
</g>
</g>
<!-- Node1&#45;&gt;Node20 -->
<g id="edge21_Node000001_Node000020" class="edge">
<title>Node1&#45;&gt;Node20</title>
<g id="a_edge21_Node000001_Node000020"><a xlink:title=" ">
<path fill="none" stroke="#63b8ff" d="M823.41,-458.18C804.29,-430.4 770.63,-386.53 732.25,-359 718.75,-349.32 702.57,-341.5 687.26,-335.43"/>
<polygon fill="#63b8ff" stroke="#63b8ff" points="820.44,-460.03 828.93,-466.37 826.24,-456.12 820.44,-460.03"/>
</a>
</g>
</g>
<!-- Node22 -->
<g id="Node000022" class="node">
<title>Node22</title>
<g id="a_Node000022"><a xlink:href="class_task_a_p_i_1_1_services_1_1_alchemy_service.html#a8db06c3be654656ef61b3177a0624787" target="_top" xlink:title="Retrieves the latest round data for a given smart contract address using the Alchemy API.">
<polygon fill="white" stroke="#666666" points="699.62,-676 565.88,-676 565.88,-644 699.62,-644 699.62,-676"/>
<text text-anchor="start" x="573.88" y="-662.5" font-family="Helvetica,sans-Serif" font-size="10.00">TaskAPI.Services.Alchemy</text>
<text text-anchor="middle" x="632.75" y="-650.5" font-family="Helvetica,sans-Serif" font-size="10.00">Service.LatestRoundData</text>
</a>
</g>
</g>
<!-- Node1&#45;&gt;Node22 -->
<g id="edge23_Node000001_Node000022" class="edge">
<title>Node1&#45;&gt;Node22</title>
<g id="a_edge23_Node000001_Node000022"><a xlink:title=" ">
<path fill="none" stroke="#63b8ff" d="M827.35,-510.45C810.2,-543.25 776.65,-598.63 732.25,-630 722.61,-636.81 711.4,-642.1 700.06,-646.2"/>
<polygon fill="#63b8ff" stroke="#63b8ff" points="830.43,-512.12 831.85,-501.62 824.2,-508.94 830.43,-512.12"/>
</a>
</g>
</g>
<!-- Node23 -->
<g id="Node000023" class="node">
<title>Node23</title>
<g id="a_Node000023"><a xlink:href="class_task_a_p_i_1_1_helpers_1_1_spot_helper.html#a2ad64affbfeec15e4217d8bfccd982ff" target="_top" xlink:title="Pulls spot data from Polygon Oracle for each specified asset.">
<polygon fill="white" stroke="#666666" points="496.88,-708 354.12,-708 354.12,-676 496.88,-676 496.88,-708"/>
<text text-anchor="start" x="362.12" y="-694.5" font-family="Helvetica,sans-Serif" font-size="10.00">TaskAPI.Helpers.SpotHelper.</text>
<text text-anchor="middle" x="425.5" y="-682.5" font-family="Helvetica,sans-Serif" font-size="10.00">PullPolygonOracleData</text>
</a>
</g>
</g>
<!-- Node1&#45;&gt;Node23 -->
<g id="edge38_Node000001_Node000023" class="edge">
<title>Node1&#45;&gt;Node23</title>
<g id="a_edge38_Node000001_Node000023"><a xlink:title=" ">
<path fill="none" stroke="#63b8ff" d="M822.34,-509.5C803.14,-535.01 770.15,-573.34 732.25,-594 652.97,-637.23 613.97,-594.51 533.25,-635 514.11,-644.6 515.69,-656.12 497.25,-667 491.86,-670.18 486.01,-673.04 480.06,-675.6"/>
<polygon fill="#63b8ff" stroke="#63b8ff" points="825.02,-511.77 828.11,-501.64 819.37,-507.63 825.02,-511.77"/>
</a>
</g>
</g>
<!-- Node24 -->
<g id="Node000024" class="node">
<title>Node24</title>
<g id="a_Node000024"><a xlink:href="class_task_a_p_i_1_1_services_1_1_internal_a_p_i_service.html#a7e3600841f53749e6c915ace609dfa11" target="_top" xlink:title="Retrieves a list of Priceapp assets from Internal API.">
<polygon fill="white" stroke="#666666" points="700.38,-32 565.12,-32 565.12,0 700.38,0 700.38,-32"/>
<text text-anchor="start" x="573.12" y="-18.5" font-family="Helvetica,sans-Serif" font-size="10.00">TaskAPI.Services.Internal</text>
<text text-anchor="middle" x="632.75" y="-6.5" font-family="Helvetica,sans-Serif" font-size="10.00">APIService.PriceappAssets</text>
</a>
</g>
</g>
<!-- Node1&#45;&gt;Node24 -->
<g id="edge26_Node000001_Node000024" class="edge">
<title>Node1&#45;&gt;Node24</title>
<g id="a_edge26_Node000001_Node000024"><a xlink:title=" ">
<path fill="none" stroke="#63b8ff" d="M837.14,-456.66C827.1,-369.6 791.77,-101.1 732.25,-41 723.62,-32.29 712.42,-26.46 700.67,-22.6"/>
<polygon fill="#63b8ff" stroke="#63b8ff" points="833.64,-456.87 838.24,-466.41 840.6,-456.08 833.64,-456.87"/>
</a>
</g>
</g>
<!-- Node25 -->
<g id="Node000025" class="node">
<title>Node25</title>
<g id="a_Node000025"><a xlink:href="class_task_a_p_i_1_1_services_1_1_internal_a_p_i_service.html#a8806289389207c5a3ed1e203f1bcbc5c" target="_top" xlink:title="Initiates a log trimming operation for Priceapp logs via Internal API.">
<polygon fill="white" stroke="#666666" points="704.88,-283 560.62,-283 560.62,-251 704.88,-251 704.88,-283"/>
<text text-anchor="start" x="568.62" y="-269.5" font-family="Helvetica,sans-Serif" font-size="10.00">TaskAPI.Services.Internal</text>
<text text-anchor="middle" x="632.75" y="-257.5" font-family="Helvetica,sans-Serif" font-size="10.00">APIService.PriceappTrimLogs</text>
</a>
</g>
</g>
<!-- Node1&#45;&gt;Node25 -->
<g id="edge27_Node000001_Node000025" class="edge">
<title>Node1&#45;&gt;Node25</title>
<g id="a_edge27_Node000001_Node000025"><a xlink:title=" ">
<path fill="none" stroke="#63b8ff" d="M832.15,-456.77C818.58,-415.29 787.01,-336.59 732.25,-294 724.27,-287.8 714.96,-283.02 705.31,-279.33"/>
<polygon fill="#63b8ff" stroke="#63b8ff" points="828.78,-457.73 835.12,-466.22 835.46,-455.63 828.78,-457.73"/>
</a>
</g>
</g>
<!-- Node27 -->
<g id="Node000027" class="node">
<title>Node27</title>
<g id="a_Node000027"><a xlink:href="class_task_a_p_i_1_1_helpers_1_1_spot_helper.html#a701fc9c0beaecff83beb2c806b8581d5" target="_top" xlink:title="Retrieves spot data from Binance for each specified asset.">
<polygon fill="white" stroke="#666666" points="496.88,-658 354.12,-658 354.12,-626 496.88,-626 496.88,-658"/>
<text text-anchor="start" x="362.12" y="-644.5" font-family="Helvetica,sans-Serif" font-size="10.00">TaskAPI.Helpers.SpotHelper.</text>
<text text-anchor="middle" x="425.5" y="-632.5" font-family="Helvetica,sans-Serif" font-size="10.00">PullBinanceData</text>
</a>
</g>
</g>
<!-- Node1&#45;&gt;Node27 -->
<g id="edge29_Node000001_Node000027" class="edge">
<title>Node1&#45;&gt;Node27</title>
<g id="a_edge29_Node000001_Node000027"><a xlink:title=" ">
<path fill="none" stroke="#63b8ff" d="M812.77,-507.61C791.99,-524.35 762,-546.06 732.25,-559 649.27,-595.08 619.59,-574.93 533.25,-602 516.71,-607.19 513.43,-610.78 497.25,-617 489.83,-619.85 481.93,-622.77 474.2,-625.55"/>
<polygon fill="#63b8ff" stroke="#63b8ff" points="814.97,-510.33 820.47,-501.28 810.52,-504.93 814.97,-510.33"/>
</a>
</g>
</g>
<!-- Node28 -->
<g id="Node000028" class="node">
<title>Node28</title>
<g id="a_Node000028"><a xlink:href="class_task_a_p_i_1_1_services_1_1_binance_service.html#a5863f72c89f66991b6ea2172de8e4687" target="_top" xlink:title="Retrieves the latest cryptocurrency data feed from Binance.">
<polygon fill="white" stroke="#666666" points="698.12,-550 567.38,-550 567.38,-518 698.12,-518 698.12,-550"/>
<text text-anchor="start" x="575.38" y="-536.5" font-family="Helvetica,sans-Serif" font-size="10.00">TaskAPI.Services.Binance</text>
<text text-anchor="middle" x="632.75" y="-524.5" font-family="Helvetica,sans-Serif" font-size="10.00">Service.PullFeed</text>
</a>
</g>
</g>
<!-- Node1&#45;&gt;Node28 -->
<g id="edge31_Node000001_Node000028" class="edge">
<title>Node1&#45;&gt;Node28</title>
<g id="a_edge31_Node000001_Node000028"><a xlink:title=" ">
<path fill="none" stroke="#63b8ff" d="M761.24,-503.11C740.51,-508.13 718.39,-513.49 698.5,-518.31"/>
<polygon fill="#63b8ff" stroke="#63b8ff" points="761.9,-506.55 770.79,-500.8 760.25,-499.75 761.9,-506.55"/>
</a>
</g>
</g>
<!-- Node29 -->
<g id="Node000029" class="node">
<title>Node29</title>
<g id="a_Node000029"><a xlink:href="class_task_a_p_i_1_1_services_1_1_forex_service.html#a45ca436cc529b87e410d8b208abea3b1" target="_top" xlink:title="Retrieves the latest Forex data from the configured feed.">
<polygon fill="white" stroke="#666666" points="710.12,-726 555.38,-726 555.38,-694 710.12,-694 710.12,-726"/>
<text text-anchor="start" x="563.38" y="-712.5" font-family="Helvetica,sans-Serif" font-size="10.00">TaskAPI.Services.ForexService.</text>
<text text-anchor="middle" x="632.75" y="-700.5" font-family="Helvetica,sans-Serif" font-size="10.00">PullFeed</text>
</a>
</g>
</g>
<!-- Node1&#45;&gt;Node29 -->
<g id="edge33_Node000001_Node000029" class="edge">
<title>Node1&#45;&gt;Node29</title>
<g id="a_edge33_Node000001_Node000029"><a xlink:title=" ">
<path fill="none" stroke="#63b8ff" d="M833.16,-511.37C820.62,-554.97 789.99,-639.87 732.25,-685 725.72,-690.11 718.26,-694.18 710.44,-697.43"/>
<polygon fill="#63b8ff" stroke="#63b8ff" points="836.48,-512.51 835.76,-501.94 829.73,-510.65 836.48,-512.51"/>
</a>
</g>
</g>
<!-- Node30 -->
<g id="Node000030" class="node">
<title>Node30</title>
<g id="a_Node000030"><a xlink:href="class_task_a_p_i_1_1_helpers_1_1_spot_helper.html#a51135865d712678dee52479c109a61fb" target="_top" xlink:title="pull data from forexfeed in one hit, check single time variation is within threshold add items to spo...">
<polygon fill="white" stroke="#666666" points="496.88,-758 354.12,-758 354.12,-726 496.88,-726 496.88,-758"/>
<text text-anchor="start" x="362.12" y="-744.5" font-family="Helvetica,sans-Serif" font-size="10.00">TaskAPI.Helpers.SpotHelper.</text>
<text text-anchor="middle" x="425.5" y="-732.5" font-family="Helvetica,sans-Serif" font-size="10.00">PullForexData</text>
</a>
</g>
</g>
<!-- Node1&#45;&gt;Node30 -->
<g id="edge36_Node000001_Node000030" class="edge">
<title>Node1&#45;&gt;Node30</title>
<g id="a_edge36_Node000001_Node000030"><a xlink:title=" ">
<path fill="none" stroke="#63b8ff" d="M837.66,-511.68C831.22,-565.48 808.65,-683.41 732.25,-735 659.53,-784.1 553.29,-772.73 487.11,-758.49"/>
<polygon fill="#63b8ff" stroke="#63b8ff" points="841.13,-512.16 838.73,-501.84 834.17,-511.4 841.13,-512.16"/>
</a>
</g>
</g>
<!-- Node31 -->
<g id="Node000031" class="node">
<title>Node31</title>
<g id="a_Node000031"><a xlink:href="class_task_a_p_i_1_1_services_1_1_internal_a_p_i_service.html#aeffeb1d3d59aeeab65dfe72691d21600" target="_top" xlink:title="Sends an email using Internal API&#39;s email endpoint.">
<polygon fill="white" stroke="#666666" points="696.25,-400 569.25,-400 569.25,-368 696.25,-368 696.25,-400"/>
<text text-anchor="start" x="577.25" y="-386.5" font-family="Helvetica,sans-Serif" font-size="10.00">TaskAPI.Services.Internal</text>
<text text-anchor="middle" x="632.75" y="-374.5" font-family="Helvetica,sans-Serif" font-size="10.00">APIService.SendEmail</text>
</a>
</g>
</g>
<!-- Node1&#45;&gt;Node31 -->
<g id="edge39_Node000001_Node000031" class="edge">
<title>Node1&#45;&gt;Node31</title>
<g id="a_edge39_Node000001_Node000031"><a xlink:title=" ">
<path fill="none" stroke="#63b8ff" d="M812.25,-460.4C791.41,-443.85 761.58,-422.38 732.25,-409 721.09,-403.91 708.74,-399.74 696.65,-396.37"/>
<polygon fill="#63b8ff" stroke="#63b8ff" points="810,-463.08 819.97,-466.66 814.4,-457.64 810,-463.08"/>
</a>
</g>
</g>
<!-- Node36 -->
<g id="Node000036" class="node">
<title>Node36</title>
<g id="a_Node000036"><a xlink:href="class_task_a_p_i_1_1_services_1_1_log_service.html#a1b84e4b268d6eb8f21ee2569e562fceb" target="_top" xlink:title="Removes log entries older than the configured retention period.">
<polygon fill="white" stroke="#666666" points="705.62,-226 559.88,-226 559.88,-194 705.62,-194 705.62,-226"/>
<text text-anchor="start" x="567.88" y="-212.5" font-family="Helvetica,sans-Serif" font-size="10.00">TaskAPI.Services.LogService.</text>
<text text-anchor="middle" x="632.75" y="-200.5" font-family="Helvetica,sans-Serif" font-size="10.00">TrimLogs</text>
</a>
</g>
</g>
<!-- Node1&#45;&gt;Node36 -->
<g id="edge50_Node000001_Node000036" class="edge">
<title>Node1&#45;&gt;Node36</title>
<g id="a_edge50_Node000001_Node000036"><a xlink:title=" ">
<path fill="none" stroke="#63b8ff" d="M835.46,-456.67C825.53,-406.81 797.64,-300.84 732.25,-242 724.63,-235.14 715.52,-229.75 705.96,-225.52"/>
<polygon fill="#63b8ff" stroke="#63b8ff" points="831.99,-457.13 837.28,-466.31 838.86,-455.83 831.99,-457.13"/>
</a>
</g>
</g>
<!-- Node3 -->
<g id="Node000003" class="node">
<title>Node3</title>
<g id="a_Node000003"><a xlink:href="class_task_a_p_i_1_1_controllers_1_1_ab_web_controller.html#a788bdc1e575ec2e04d9d2a767c68e287" target="_top" xlink:title="Trims logs for AbWeb based on predefined criteria.">
<polygon fill="white" stroke="#666666" points="494.25,-608 356.75,-608 356.75,-576 494.25,-576 494.25,-608"/>
<text text-anchor="start" x="364.75" y="-594.5" font-family="Helvetica,sans-Serif" font-size="10.00">TaskAPI.Controllers.AbWeb</text>
<text text-anchor="middle" x="425.5" y="-582.5" font-family="Helvetica,sans-Serif" font-size="10.00">Controller.TrimLogs</text>
</a>
</g>
</g>
<!-- Node2&#45;&gt;Node3 -->
<g id="edge2_Node000002_Node000003" class="edge">
<title>Node2&#45;&gt;Node3</title>
<g id="a_edge2_Node000002_Node000003"><a xlink:title=" ">
<path fill="none" stroke="#63b8ff" d="M552.86,-498.03C545.9,-501.01 539.23,-504.62 533.25,-509 508.77,-526.92 520.89,-547.98 497.25,-567 493.19,-570.27 488.67,-573.12 483.94,-575.62"/>
<polygon fill="#63b8ff" stroke="#63b8ff" points="553.72,-501.45 561.83,-494.63 551.24,-494.9 553.72,-501.45"/>
</a>
</g>
</g>
<!-- Node5 -->
<g id="Node000005" class="node">
<title>Node5</title>
<g id="a_Node000005"><a xlink:href="class_task_a_p_i_1_1_controllers_1_1_ainslie_api_controller.html#a6b53c8ff5898ee660ce3eec1d8e9d13e" target="_top" xlink:title="Trims logs for Ainslie API based on predefined criteria.">
<polygon fill="white" stroke="#666666" points="492.75,-558 358.25,-558 358.25,-526 492.75,-526 492.75,-558"/>
<text text-anchor="start" x="366.25" y="-544.5" font-family="Helvetica,sans-Serif" font-size="10.00">TaskAPI.Controllers.Ainslie</text>
<text text-anchor="middle" x="425.5" y="-532.5" font-family="Helvetica,sans-Serif" font-size="10.00">ApiController.TrimLogs</text>
</a>
</g>
</g>
<!-- Node4&#45;&gt;Node5 -->
<g id="edge4_Node000004_Node000005" class="edge">
<title>Node4&#45;&gt;Node5</title>
<g id="a_edge4_Node000004_Node000005"><a xlink:title=" ">
<path fill="none" stroke="#63b8ff" d="M547.26,-450.88C542.34,-453.24 537.62,-455.93 533.25,-459 509.93,-475.34 519.26,-493.93 497.25,-512 490.75,-517.33 483.17,-521.86 475.43,-525.65"/>
<polygon fill="#63b8ff" stroke="#63b8ff" points="548.37,-454.21 556.2,-447.08 545.63,-447.77 548.37,-454.21"/>
</a>
</g>
</g>
<!-- Node8 -->
<g id="Node000008" class="node">
<title>Node8</title>
<g id="a_Node000008"><a xlink:href="class_task_a_p_i_1_1_helpers_1_1_spot_helper.html#a0a13962d034427b5047452856eb3198d" target="_top" xlink:title=" ">
<polygon fill="white" stroke="#666666" points="496.88,-82 354.12,-82 354.12,-50 496.88,-50 496.88,-82"/>
<text text-anchor="start" x="362.12" y="-68.5" font-family="Helvetica,sans-Serif" font-size="10.00">TaskAPI.Helpers.SpotHelper.</text>
<text text-anchor="middle" x="425.5" y="-56.5" font-family="Helvetica,sans-Serif" font-size="10.00">ExportChartData</text>
</a>
</g>
</g>
<!-- Node7&#45;&gt;Node8 -->
<g id="edge7_Node000007_Node000008" class="edge">
<title>Node7&#45;&gt;Node8</title>
<g id="a_edge7_Node000007_Node000008"><a xlink:title=" ">
<path fill="none" stroke="#63b8ff" d="M543.06,-66C527.7,-66 511.91,-66 497.12,-66"/>
<polygon fill="#63b8ff" stroke="#63b8ff" points="542.64,-69.5 552.64,-66 542.64,-62.5 542.64,-69.5"/>
</a>
</g>
</g>
<!-- Node10 -->
<g id="Node000010" class="node">
<title>Node10</title>
<g id="a_Node000010"><a xlink:href="class_task_a_p_i_1_1_helpers_1_1_spot_helper.html#a249585457b73bcd269d8644a8120465e" target="_top" xlink:title="Determines if the market for a specific instrument is currently open.">
<polygon fill="white" stroke="#666666" points="496.88,-858 354.12,-858 354.12,-826 496.88,-826 496.88,-858"/>
<text text-anchor="start" x="362.12" y="-844.5" font-family="Helvetica,sans-Serif" font-size="10.00">TaskAPI.Helpers.SpotHelper.</text>
<text text-anchor="middle" x="425.5" y="-832.5" font-family="Helvetica,sans-Serif" font-size="10.00">IsMarketOpen</text>
</a>
</g>
</g>
<!-- Node9&#45;&gt;Node10 -->
<g id="edge9_Node000009_Node000010" class="edge">
<title>Node9&#45;&gt;Node10</title>
<g id="a_edge9_Node000009_Node000010"><a xlink:title=" ">
<path fill="none" stroke="#63b8ff" d="M521.67,-839.22C513.35,-839.46 505.1,-839.7 497.14,-839.94"/>
<polygon fill="#63b8ff" stroke="#63b8ff" points="521.63,-842.72 531.52,-838.93 521.42,-835.72 521.63,-842.72"/>
</a>
</g>
</g>
<!-- Node9&#45;&gt;Node12 -->
<g id="edge11_Node000009_Node000012" class="edge">
<title>Node9&#45;&gt;Node12</title>
<g id="a_edge11_Node000009_Node000012"><a xlink:title=" ">
<path fill="none" stroke="#63b8ff" d="M543.83,-817.15C528.31,-813.83 512.34,-810.4 497.36,-807.19"/>
<polygon fill="#63b8ff" stroke="#63b8ff" points="543.04,-820.56 553.55,-819.24 544.51,-813.72 543.04,-820.56"/>
</a>
</g>
</g>
<!-- Node11 -->
<g id="Node000011" class="node">
<title>Node11</title>
<g id="a_Node000011"><a xlink:href="class_task_a_p_i_1_1_helpers_1_1_spot_helper.html#ae5d7f0ba6759749953e94555c9557cfb" target="_top" xlink:title="Initialises a new instance of the SpotHelper class.">
<polygon fill="white" stroke="#666666" points="317.75,-883 175,-883 175,-851 317.75,-851 317.75,-883"/>
<text text-anchor="start" x="183" y="-869.5" font-family="Helvetica,sans-Serif" font-size="10.00">TaskAPI.Helpers.SpotHelper.</text>
<text text-anchor="middle" x="246.38" y="-857.5" font-family="Helvetica,sans-Serif" font-size="10.00">SpotHelper</text>
</a>
</g>
</g>
<!-- Node10&#45;&gt;Node11 -->
<g id="edge10_Node000010_Node000011" class="edge">
<title>Node10&#45;&gt;Node11</title>
<g id="a_edge10_Node000010_Node000011"><a xlink:title=" ">
<path fill="none" stroke="#63b8ff" d="M342.61,-853.56C334.4,-854.72 326.11,-855.89 318.03,-857.03"/>
<polygon fill="#63b8ff" stroke="#63b8ff" points="342.82,-857.06 352.23,-852.2 341.84,-850.13 342.82,-857.06"/>
</a>
</g>
</g>
<!-- Node13 -->
<g id="Node000013" class="node">
<title>Node13</title>
<g id="a_Node000013"><a xlink:href="class_task_a_p_i_1_1_helpers_1_1_spot_helper.html#a7b75f44b3310036d4de7f0f2956bbac1" target="_top" xlink:title="Pulls, saves, and trims spot data from various sources.">
<polygon fill="white" stroke="#666666" points="317.75,-708 175,-708 175,-676 317.75,-676 317.75,-708"/>
<text text-anchor="start" x="183" y="-694.5" font-family="Helvetica,sans-Serif" font-size="10.00">TaskAPI.Helpers.SpotHelper.</text>
<text text-anchor="middle" x="246.38" y="-682.5" font-family="Helvetica,sans-Serif" font-size="10.00">PullSaveTrim</text>
</a>
</g>
</g>
<!-- Node12&#45;&gt;Node13 -->
<g id="edge12_Node000012_Node000013" class="edge">
<title>Node12&#45;&gt;Node13</title>
<g id="a_edge12_Node000012_Node000013"><a xlink:title=" ">
<path fill="none" stroke="#63b8ff" d="M362.48,-771.22C359.5,-769.86 356.57,-768.46 353.75,-767 321.43,-750.3 287.69,-724.94 267.1,-708.42"/>
<polygon fill="#63b8ff" stroke="#63b8ff" points="360.82,-774.31 371.39,-775.01 363.56,-767.87 360.82,-774.31"/>
</a>
</g>
</g>
<!-- Node14 -->
<g id="Node000014" class="node">
<title>Node14</title>
<g id="a_Node000014"><a xlink:href="class_task_a_p_i_1_1_controllers_1_1_spot_controller.html#adc5d733d4c39f2ecdaad8d8bf2231731" target="_top" xlink:title="Initiates synchronisation of spot data.">
<polygon fill="white" stroke="#666666" points="132.25,-708 6.75,-708 6.75,-676 132.25,-676 132.25,-708"/>
<text text-anchor="start" x="14.75" y="-694.5" font-family="Helvetica,sans-Serif" font-size="10.00">TaskAPI.Controllers.Spot</text>
<text text-anchor="middle" x="69.5" y="-682.5" font-family="Helvetica,sans-Serif" font-size="10.00">Controller.Sync</text>
</a>
</g>
</g>
<!-- Node13&#45;&gt;Node14 -->
<g id="edge13_Node000013_Node000014" class="edge">
<title>Node13&#45;&gt;Node14</title>
<g id="a_edge13_Node000013_Node000014"><a xlink:title=" ">
<path fill="none" stroke="#63b8ff" d="M163.55,-692C153.16,-692 142.67,-692 132.66,-692"/>
<polygon fill="#63b8ff" stroke="#63b8ff" points="163.24,-695.5 173.24,-692 163.24,-688.5 163.24,-695.5"/>
</a>
</g>
</g>
<!-- Node16 -->
<g id="Node000016" class="node">
<title>Node16</title>
<g id="a_Node000016"><a xlink:href="class_task_a_p_i_1_1_helpers_1_1_spot_helper.html#a7ff886c42d0b6aba649b98f9935772bc" target="_top" xlink:title="Retrieves the current market status override from an external service.">
<polygon fill="white" stroke="#666666" points="496.88,-908 354.12,-908 354.12,-876 496.88,-876 496.88,-908"/>
<text text-anchor="start" x="362.12" y="-894.5" font-family="Helvetica,sans-Serif" font-size="10.00">TaskAPI.Helpers.SpotHelper.</text>
<text text-anchor="middle" x="425.5" y="-882.5" font-family="Helvetica,sans-Serif" font-size="10.00">MarketStatusOverride</text>
</a>
</g>
</g>
<!-- Node15&#45;&gt;Node16 -->
<g id="edge15_Node000015_Node000016" class="edge">
<title>Node15&#45;&gt;Node16</title>
<g id="a_edge15_Node000015_Node000016"><a xlink:title=" ">
<path fill="none" stroke="#63b8ff" d="M531.4,-892C519.86,-892 508.27,-892 497.23,-892"/>
<polygon fill="#63b8ff" stroke="#63b8ff" points="531.4,-895.5 541.4,-892 531.4,-888.5 531.4,-895.5"/>
</a>
</g>
</g>
<!-- Node16&#45;&gt;Node11 -->
<g id="edge16_Node000016_Node000011" class="edge">
<title>Node16&#45;&gt;Node11</title>
<g id="a_edge16_Node000016_Node000011"><a xlink:title=" ">
<path fill="none" stroke="#63b8ff" d="M342.61,-880.44C334.4,-879.28 326.11,-878.11 318.03,-876.97"/>
<polygon fill="#63b8ff" stroke="#63b8ff" points="341.84,-883.87 352.23,-881.8 342.82,-876.94 341.84,-883.87"/>
</a>
</g>
</g>
<!-- Node18 -->
<g id="Node000018" class="node">
<title>Node18</title>
<g id="a_Node000018"><a xlink:href="class_task_a_p_i_1_1_helpers_1_1_alert_helper.html#a6288723babbbadebdd77681b41122d79" target="_top" xlink:title="Fetches and processes log entries for a given API source based on the specified configuration.">
<polygon fill="white" stroke="#666666" points="496.88,-170 354.12,-170 354.12,-138 496.88,-138 496.88,-170"/>
<text text-anchor="start" x="362.12" y="-156.5" font-family="Helvetica,sans-Serif" font-size="10.00">TaskAPI.Helpers.AlertHelper.</text>
<text text-anchor="middle" x="425.5" y="-144.5" font-family="Helvetica,sans-Serif" font-size="10.00">FetchAndProcessLogs</text>
</a>
</g>
</g>
<!-- Node17&#45;&gt;Node18 -->
<g id="edge18_Node000017_Node000018" class="edge">
<title>Node17&#45;&gt;Node18</title>
<g id="a_edge18_Node000017_Node000018"><a xlink:title=" ">
<path fill="none" stroke="#63b8ff" d="M554.93,-155.25C535.95,-155.07 515.72,-154.87 497.06,-154.69"/>
<polygon fill="#63b8ff" stroke="#63b8ff" points="554.7,-158.75 564.73,-155.35 554.76,-151.75 554.7,-158.75"/>
</a>
</g>
</g>
<!-- Node19 -->
<g id="Node000019" class="node">
<title>Node19</title>
<g id="a_Node000019"><a xlink:href="class_task_a_p_i_1_1_helpers_1_1_alert_helper.html#acddc980d442b4344a8d9df5ba056276a" target="_top" xlink:title="Processes a single API source for alert generation.">
<polygon fill="white" stroke="#666666" points="317.75,-170 175,-170 175,-138 317.75,-138 317.75,-170"/>
<text text-anchor="start" x="183" y="-156.5" font-family="Helvetica,sans-Serif" font-size="10.00">TaskAPI.Helpers.AlertHelper.</text>
<text text-anchor="middle" x="246.38" y="-144.5" font-family="Helvetica,sans-Serif" font-size="10.00">ProcessApiSource</text>
</a>
</g>
</g>
<!-- Node18&#45;&gt;Node19 -->
<g id="edge19_Node000018_Node000019" class="edge">
<title>Node18&#45;&gt;Node19</title>
<g id="a_edge19_Node000018_Node000019"><a xlink:title=" ">
<path fill="none" stroke="#63b8ff" d="M342.33,-154C334.21,-154 326.02,-154 318.03,-154"/>
<polygon fill="#63b8ff" stroke="#63b8ff" points="342.22,-157.5 352.22,-154 342.22,-150.5 342.22,-157.5"/>
</a>
</g>
</g>
<!-- Node19&#45;&gt;Node6 -->
<g id="edge20_Node000019_Node000006" class="edge">
<title>Node19&#45;&gt;Node6</title>
<g id="a_edge20_Node000019_Node000006"><a xlink:title=" ">
<path fill="none" stroke="#63b8ff" d="M163.45,-143.69C155.4,-142.68 147.3,-141.66 139.4,-140.67"/>
<polygon fill="#63b8ff" stroke="#63b8ff" points="162.89,-147.15 173.25,-144.93 163.76,-140.21 162.89,-147.15"/>
</a>
</g>
</g>
<!-- Node21 -->
<g id="Node000021" class="node">
<title>Node21</title>
<g id="a_Node000021"><a xlink:href="class_task_a_p_i_1_1_controllers_1_1_internal_a_p_i_controller.html#ad77c1d71a0a8ba5393ee56bff0b81df1" target="_top" xlink:title="Trims logs for Internal API based on predefined criteria.">
<polygon fill="white" stroke="#666666" points="493.88,-320 357.12,-320 357.12,-288 493.88,-288 493.88,-320"/>
<text text-anchor="start" x="365.12" y="-306.5" font-family="Helvetica,sans-Serif" font-size="10.00">TaskAPI.Controllers.Internal</text>
<text text-anchor="middle" x="425.5" y="-294.5" font-family="Helvetica,sans-Serif" font-size="10.00">APIController.TrimLogs</text>
</a>
</g>
</g>
<!-- Node20&#45;&gt;Node21 -->
<g id="edge22_Node000020_Node000021" class="edge">
<title>Node20&#45;&gt;Node21</title>
<g id="a_edge22_Node000020_Node000021"><a xlink:title=" ">
<path fill="none" stroke="#63b8ff" d="M544.89,-312.65C527.96,-311.41 510.44,-310.13 494.24,-308.95"/>
<polygon fill="#63b8ff" stroke="#63b8ff" points="544.17,-316.11 554.4,-313.35 544.68,-309.13 544.17,-316.11"/>
</a>
</g>
</g>
<!-- Node22&#45;&gt;Node23 -->
<g id="edge24_Node000022_Node000023" class="edge">
<title>Node22&#45;&gt;Node23</title>
<g id="a_edge24_Node000022_Node000023"><a xlink:title=" ">
<path fill="none" stroke="#63b8ff" d="M554.23,-672.09C535.51,-675 515.61,-678.11 497.23,-680.97"/>
<polygon fill="#63b8ff" stroke="#63b8ff" points="554.56,-675.58 563.9,-670.58 553.48,-668.66 554.56,-675.58"/>
</a>
</g>
</g>
<!-- Node23&#45;&gt;Node13 -->
<g id="edge25_Node000023_Node000013" class="edge">
<title>Node23&#45;&gt;Node13</title>
<g id="a_edge25_Node000023_Node000013"><a xlink:title=" ">
<path fill="none" stroke="#63b8ff" d="M342.33,-692C334.21,-692 326.02,-692 318.03,-692"/>
<polygon fill="#63b8ff" stroke="#63b8ff" points="342.22,-695.5 352.22,-692 342.22,-688.5 342.22,-695.5"/>
</a>
</g>
</g>
<!-- Node26 -->
<g id="Node000026" class="node">
<title>Node26</title>
<g id="a_Node000026"><a xlink:href="class_task_a_p_i_1_1_controllers_1_1_priceapp_controller.html#a25e45ae0b01fc8e2c7aa8ec7e30d59a9" target="_top" xlink:title="Trims logs for Priceapp based on predefined criteria.">
<polygon fill="white" stroke="#666666" points="497.25,-270 353.75,-270 353.75,-238 497.25,-238 497.25,-270"/>
<text text-anchor="start" x="361.75" y="-256.5" font-family="Helvetica,sans-Serif" font-size="10.00">TaskAPI.Controllers.Priceapp</text>
<text text-anchor="middle" x="425.5" y="-244.5" font-family="Helvetica,sans-Serif" font-size="10.00">Controller.TrimLogs</text>
</a>
</g>
</g>
<!-- Node25&#45;&gt;Node26 -->
<g id="edge28_Node000025_Node000026" class="edge">
<title>Node25&#45;&gt;Node26</title>
<g id="a_edge28_Node000025_Node000026"><a xlink:title=" ">
<path fill="none" stroke="#63b8ff" d="M549.19,-261.77C532.15,-260.69 514.34,-259.56 497.74,-258.51"/>
<polygon fill="#63b8ff" stroke="#63b8ff" points="548.54,-265.24 558.74,-262.38 548.98,-258.25 548.54,-265.24"/>
</a>
</g>
</g>
<!-- Node27&#45;&gt;Node13 -->
<g id="edge30_Node000027_Node000013" class="edge">
<title>Node27&#45;&gt;Node13</title>
<g id="a_edge30_Node000027_Node000013"><a xlink:title=" ">
<path fill="none" stroke="#63b8ff" d="M355.81,-661.39C339.3,-666.05 321.81,-670.99 305.81,-675.51"/>
<polygon fill="#63b8ff" stroke="#63b8ff" points="356.37,-664.87 365.05,-658.78 354.47,-658.13 356.37,-664.87"/>
</a>
</g>
</g>
<!-- Node28&#45;&gt;Node27 -->
<g id="edge32_Node000028_Node000027" class="edge">
<title>Node28&#45;&gt;Node27</title>
<g id="a_edge32_Node000028_Node000027"><a xlink:title=" ">
<path fill="none" stroke="#63b8ff" d="M556.46,-550.96C548.22,-554.52 540.28,-558.82 533.25,-564 510.32,-580.89 519.8,-599.61 497.25,-617 493.02,-620.26 488.33,-623.12 483.44,-625.62"/>
<polygon fill="#63b8ff" stroke="#63b8ff" points="557.57,-554.29 565.6,-547.39 555.02,-547.77 557.57,-554.29"/>
</a>
</g>
</g>
<!-- Node29&#45;&gt;Node30 -->
<g id="edge34_Node000029_Node000030" class="edge">
<title>Node29&#45;&gt;Node30</title>
<g id="a_edge34_Node000029_Node000030"><a xlink:title=" ">
<path fill="none" stroke="#63b8ff" d="M543.83,-723.71C528.31,-726.13 512.34,-728.62 497.36,-730.95"/>
<polygon fill="#63b8ff" stroke="#63b8ff" points="544.19,-727.19 553.54,-722.19 543.12,-720.28 544.19,-727.19"/>
</a>
</g>
</g>
<!-- Node30&#45;&gt;Node13 -->
<g id="edge35_Node000030_Node000013" class="edge">
<title>Node30&#45;&gt;Node13</title>
<g id="a_edge35_Node000030_Node000013"><a xlink:title=" ">
<path fill="none" stroke="#63b8ff" d="M355.81,-722.61C339.3,-717.95 321.81,-713.01 305.81,-708.49"/>
<polygon fill="#63b8ff" stroke="#63b8ff" points="354.47,-725.87 365.05,-725.22 356.37,-719.13 354.47,-725.87"/>
</a>
</g>
</g>
<!-- Node31&#45;&gt;Node3 -->
<g id="edge45_Node000031_Node000003" class="edge">
<title>Node31&#45;&gt;Node3</title>
<g id="a_edge45_Node000031_Node000003"><a xlink:title=" ">
<path fill="none" stroke="#63b8ff" d="M558.11,-392.92C548.84,-396.7 540.19,-401.89 533.25,-409 482.95,-460.55 545.15,-513.21 497.25,-567 494.3,-570.31 490.89,-573.18 487.19,-575.67"/>
<polygon fill="#63b8ff" stroke="#63b8ff" points="559.05,-396.3 567.36,-389.73 556.77,-389.69 559.05,-396.3"/>
</a>
</g>
</g>
<!-- Node31&#45;&gt;Node5 -->
<g id="edge46_Node000031_Node000005" class="edge">
<title>Node31&#45;&gt;Node5</title>
<g id="a_edge46_Node000031_Node000005"><a xlink:title=" ">
<path fill="none" stroke="#63b8ff" d="M557.98,-393.99C548.92,-397.62 540.36,-402.49 533.25,-409 497.49,-441.75 530.41,-476.62 497.25,-512 492.14,-517.45 485.88,-521.95 479.22,-525.66"/>
<polygon fill="#63b8ff" stroke="#63b8ff" points="559.05,-397.32 567.37,-390.76 556.78,-390.7 559.05,-397.32"/>
</a>
</g>
</g>
<!-- Node31&#45;&gt;Node13 -->
<g id="edge40_Node000031_Node000013" class="edge">
<title>Node31&#45;&gt;Node13</title>
<g id="a_edge40_Node000031_Node000013"><a xlink:title=" ">
<path fill="none" stroke="#63b8ff" d="M558.25,-395.14C549.25,-398.6 540.64,-403.12 533.25,-409 505.88,-430.78 524.51,-457.07 497.25,-479 445.84,-520.35 406.6,-477.51 353.75,-517 297.36,-559.14 264.56,-640.78 252.6,-675.61"/>
<polygon fill="#63b8ff" stroke="#63b8ff" points="559.14,-398.53 567.5,-392.02 556.9,-391.9 559.14,-398.53"/>
</a>
</g>
</g>
<!-- Node31&#45;&gt;Node21 -->
<g id="edge47_Node000031_Node000021" class="edge">
<title>Node31&#45;&gt;Node21</title>
<g id="a_edge47_Node000031_Node000021"><a xlink:title=" ">
<path fill="none" stroke="#63b8ff" d="M580.69,-363.37C565.42,-357.17 548.64,-350.33 533.25,-344 517.22,-337.41 513.43,-335.22 497.25,-329 489.83,-326.15 481.93,-323.23 474.2,-320.45"/>
<polygon fill="#63b8ff" stroke="#63b8ff" points="579,-366.46 589.58,-366.97 581.63,-359.97 579,-366.46"/>
</a>
</g>
</g>
<!-- Node31&#45;&gt;Node26 -->
<g id="edge49_Node000031_Node000026" class="edge">
<title>Node31&#45;&gt;Node26</title>
<g id="a_edge49_Node000031_Node000026"><a xlink:title=" ">
<path fill="none" stroke="#63b8ff" d="M562.61,-363.02C552.05,-357.88 541.83,-351.61 533.25,-344 508.54,-322.09 522.46,-300.33 497.25,-279 493.37,-275.72 489.03,-272.86 484.46,-270.36"/>
<polygon fill="#63b8ff" stroke="#63b8ff" points="560.85,-366.06 571.41,-366.98 563.73,-359.68 560.85,-366.06"/>
</a>
</g>
</g>
<!-- Node32 -->
<g id="Node000032" class="node">
<title>Node32</title>
<g id="a_Node000032"><a xlink:href="class_task_a_p_i_1_1_controllers_1_1_spot_controller.html#ac5b396e3a46352bf5dbe21701876f35c" target="_top" xlink:title="Saves daily spot data.">
<polygon fill="white" stroke="#666666" points="488.25,-370 362.75,-370 362.75,-338 488.25,-338 488.25,-370"/>
<text text-anchor="start" x="370.75" y="-356.5" font-family="Helvetica,sans-Serif" font-size="10.00">TaskAPI.Controllers.Spot</text>
<text text-anchor="middle" x="425.5" y="-344.5" font-family="Helvetica,sans-Serif" font-size="10.00">Controller.SaveDaily</text>
</a>
</g>
</g>
<!-- Node31&#45;&gt;Node32 -->
<g id="edge41_Node000031_Node000032" class="edge">
<title>Node31&#45;&gt;Node32</title>
<g id="a_edge41_Node000031_Node000032"><a xlink:title=" ">
<path fill="none" stroke="#63b8ff" d="M557.52,-373.15C534.93,-369.85 510.35,-366.26 488.65,-363.08"/>
<polygon fill="#63b8ff" stroke="#63b8ff" points="556.87,-376.59 567.28,-374.58 557.89,-369.67 556.87,-376.59"/>
</a>
</g>
</g>
<!-- Node33 -->
<g id="Node000033" class="node">
<title>Node33</title>
<g id="a_Node000033"><a xlink:href="class_task_a_p_i_1_1_controllers_1_1_priceapp_controller.html#a7a554328bc2c9f53d7791b214121982f" target="_top" xlink:title="Saves the Priceapp pricesheet as a PDF.">
<polygon fill="white" stroke="#666666" points="497.25,-470 353.75,-470 353.75,-438 497.25,-438 497.25,-470"/>
<text text-anchor="start" x="361.75" y="-456.5" font-family="Helvetica,sans-Serif" font-size="10.00">TaskAPI.Controllers.Priceapp</text>
<text text-anchor="middle" x="425.5" y="-444.5" font-family="Helvetica,sans-Serif" font-size="10.00">Controller.SavePricesheet</text>
</a>
</g>
</g>
<!-- Node31&#45;&gt;Node33 -->
<g id="edge42_Node000031_Node000033" class="edge">
<title>Node31&#45;&gt;Node33</title>
<g id="a_edge42_Node000031_Node000033"><a xlink:title=" ">
<path fill="none" stroke="#63b8ff" d="M557.92,-400.51C549.5,-403.05 541.12,-405.88 533.25,-409 516.24,-415.75 513.94,-421.48 497.25,-429 490.6,-432 483.47,-434.88 476.4,-437.55"/>
<polygon fill="#63b8ff" stroke="#63b8ff" points="558.87,-403.88 567.52,-397.76 556.94,-397.15 558.87,-403.88"/>
</a>
</g>
</g>
<!-- Node34 -->
<g id="Node000034" class="node">
<title>Node34</title>
<g id="a_Node000034"><a xlink:href="class_task_a_p_i_1_1_helpers_1_1_alert_helper.html#a5e60f4242d52c0642c789ff7ca332e51" target="_top" xlink:title="Sends alerts based on the provided list of alerts, API source, and configuration.">
<polygon fill="white" stroke="#666666" points="496.88,-420 354.12,-420 354.12,-388 496.88,-388 496.88,-420"/>
<text text-anchor="start" x="362.12" y="-406.5" font-family="Helvetica,sans-Serif" font-size="10.00">TaskAPI.Helpers.AlertHelper.</text>
<text text-anchor="middle" x="425.5" y="-394.5" font-family="Helvetica,sans-Serif" font-size="10.00">SendAlerts</text>
</a>
</g>
</g>
<!-- Node31&#45;&gt;Node34 -->
<g id="edge43_Node000031_Node000034" class="edge">
<title>Node31&#45;&gt;Node34</title>
<g id="a_edge43_Node000031_Node000034"><a xlink:title=" ">
<path fill="none" stroke="#63b8ff" d="M557.42,-391.24C537.79,-393.16 516.67,-395.21 497.24,-397.11"/>
<polygon fill="#63b8ff" stroke="#63b8ff" points="557.65,-394.74 567.27,-390.28 556.97,-387.77 557.65,-394.74"/>
</a>
</g>
</g>
<!-- Node35 -->
<g id="Node000035" class="node">
<title>Node35</title>
<g id="a_Node000035"><a xlink:href="class_task_a_p_i_1_1_controllers_1_1_logs_controller.html#af8b7f41074892eb4a70a447d64a055c6" target="_top" xlink:title="Trims logs based on predefined criteria.">
<polygon fill="white" stroke="#666666" points="488.62,-220 362.38,-220 362.38,-188 488.62,-188 488.62,-220"/>
<text text-anchor="start" x="370.38" y="-206.5" font-family="Helvetica,sans-Serif" font-size="10.00">TaskAPI.Controllers.Logs</text>
<text text-anchor="middle" x="425.5" y="-194.5" font-family="Helvetica,sans-Serif" font-size="10.00">Controller.TrimLogs</text>
</a>
</g>
</g>
<!-- Node31&#45;&gt;Node35 -->
<g id="edge48_Node000031_Node000035" class="edge">
<title>Node31&#45;&gt;Node35</title>
<g id="a_edge48_Node000031_Node000035"><a xlink:title=" ">
<path fill="none" stroke="#63b8ff" d="M558.9,-363.23C549.37,-358.13 540.44,-351.81 533.25,-344 496.97,-304.6 534.43,-267.55 497.25,-229 494.08,-225.72 490.46,-222.87 486.57,-220.39"/>
<polygon fill="#63b8ff" stroke="#63b8ff" points="557.11,-366.26 567.64,-367.47 560.16,-359.96 557.11,-366.26"/>
</a>
</g>
</g>
<!-- Node34&#45;&gt;Node19 -->
<g id="edge44_Node000034_Node000019" class="edge">
<title>Node34&#45;&gt;Node19</title>
<g id="a_edge44_Node000034_Node000019"><a xlink:title=" ">
<path fill="none" stroke="#63b8ff" d="M356.16,-381.06C355.34,-380.39 354.53,-379.71 353.75,-379 288.17,-319.79 259.48,-211.6 250.6,-170.46"/>
<polygon fill="#63b8ff" stroke="#63b8ff" points="354.13,-383.91 364.36,-386.65 358.07,-378.13 354.13,-383.91"/>
</a>
</g>
</g>
<!-- Node36&#45;&gt;Node35 -->
<g id="edge51_Node000036_Node000035" class="edge">
<title>Node36&#45;&gt;Node35</title>
<g id="a_edge51_Node000036_Node000035"><a xlink:title=" ">
<path fill="none" stroke="#63b8ff" d="M547.93,-207.55C528.23,-206.97 507.59,-206.37 489.02,-205.83"/>
<polygon fill="#63b8ff" stroke="#63b8ff" points="547.78,-211.05 557.87,-207.84 547.98,-204.05 547.78,-211.05"/>
</a>
</g>
</g>
</g>
</svg>
