<?xml version="1.0" encoding="UTF-8" standalone="no"?>
<!DOCTYPE svg PUBLIC "-//W3C//DTD SVG 1.1//EN"
 "http://www.w3.org/Graphics/SVG/1.1/DTD/svg11.dtd">
<!-- Generated by graphviz version 9.0.0 (20230911.1827)
 -->
<!-- Title: TaskAPI.Helpers.SpotHelper.PullOandaData Pages: 1 -->
<svg width="931pt" height="210pt"
 viewBox="0.00 0.00 931.00 210.00" xmlns="http://www.w3.org/2000/svg" xmlns:xlink="http://www.w3.org/1999/xlink">
<g id="graph0" class="graph" transform="scale(1 1) rotate(0) translate(4 206)">
<title>TaskAPI.Helpers.SpotHelper.PullOandaData</title>
<!-- Node1 -->
<g id="Node000001" class="node">
<title>Node1</title>
<g id="a_Node000001"><a xlink:title="Retrieves spot data from Oanda for each specified asset.">
<polygon fill="#999999" stroke="#666666" points="142.75,-114 0,-114 0,-82 142.75,-82 142.75,-114"/>
<text text-anchor="start" x="8" y="-100.5" font-family="Helvetica,sans-Serif" font-size="10.00">TaskAPI.Helpers.SpotHelper.</text>
<text text-anchor="middle" x="71.38" y="-88.5" font-family="Helvetica,sans-Serif" font-size="10.00">PullOandaData</text>
</a>
</g>
</g>
<!-- Node2 -->
<g id="Node000002" class="node">
<title>Node2</title>
<g id="a_Node000002"><a xlink:href="class_task_a_p_i_1_1_helpers_1_1_spot_helper.html#a89a665897ed47f9b7065ce771100b83c" target="_top" xlink:title="Determines whether synchronisation with the market is possible based on the current market status.">
<polygon fill="white" stroke="#666666" points="349.62,-202 206.88,-202 206.88,-170 349.62,-170 349.62,-202"/>
<text text-anchor="start" x="214.88" y="-188.5" font-family="Helvetica,sans-Serif" font-size="10.00">TaskAPI.Helpers.SpotHelper.</text>
<text text-anchor="middle" x="278.25" y="-176.5" font-family="Helvetica,sans-Serif" font-size="10.00">CanSync</text>
</a>
</g>
</g>
<!-- Node1&#45;&gt;Node2 -->
<g id="edge1_Node000001_Node000002" class="edge">
<title>Node1&#45;&gt;Node2</title>
<g id="a_edge1_Node000001_Node000002"><a xlink:title=" ">
<path fill="none" stroke="#63b8ff" d="M98.73,-114.34C119.82,-126.92 150.43,-144.11 178.75,-156 187.28,-159.58 196.39,-162.94 205.49,-166.02"/>
<polygon fill="#63b8ff" stroke="#63b8ff" points="204.1,-169.25 214.7,-169.03 206.28,-162.6 204.1,-169.25"/>
</a>
</g>
</g>
<!-- Node3 -->
<g id="Node000003" class="node">
<title>Node3</title>
<g id="a_Node000003"><a xlink:href="class_task_a_p_i_1_1_services_1_1_internal_a_p_i_service.html#aa614614518048e1244ae357de18425df" target="_top" xlink:title="Retrieves the price of a specified OANDA instrument in USD.">
<polygon fill="white" stroke="#666666" points="377.75,-114 178.75,-114 178.75,-82 377.75,-82 377.75,-114"/>
<text text-anchor="start" x="186.75" y="-100.5" font-family="Helvetica,sans-Serif" font-size="10.00">TaskAPI.Services.Internal</text>
<text text-anchor="middle" x="278.25" y="-88.5" font-family="Helvetica,sans-Serif" font-size="10.00">APIService.GetOandaInstrumentPriceUSD</text>
</a>
</g>
</g>
<!-- Node1&#45;&gt;Node3 -->
<g id="edge2_Node000001_Node000003" class="edge">
<title>Node1&#45;&gt;Node3</title>
<g id="a_edge2_Node000001_Node000003"><a xlink:title=" ">
<path fill="none" stroke="#63b8ff" d="M143.17,-98C150.87,-98 158.84,-98 166.88,-98"/>
<polygon fill="#63b8ff" stroke="#63b8ff" points="166.74,-101.5 176.74,-98 166.74,-94.5 166.74,-101.5"/>
</a>
</g>
</g>
<!-- Node4 -->
<g id="Node000004" class="node">
<title>Node4</title>
<g id="a_Node000004"><a xlink:href="class_task_a_p_i_1_1_services_1_1_log_service.html#a46dc9bf58bc9605c7e17dfee38b94354" target="_top" xlink:title="Logs an error message to the database.">
<polygon fill="white" stroke="#666666" points="559.5,-132 413.75,-132 413.75,-100 559.5,-100 559.5,-132"/>
<text text-anchor="start" x="421.75" y="-118.5" font-family="Helvetica,sans-Serif" font-size="10.00">TaskAPI.Services.LogService.</text>
<text text-anchor="middle" x="486.62" y="-106.5" font-family="Helvetica,sans-Serif" font-size="10.00">LogError</text>
</a>
</g>
</g>
<!-- Node1&#45;&gt;Node4 -->
<g id="edge10_Node000001_Node000004" class="edge">
<title>Node1&#45;&gt;Node4</title>
<g id="a_edge10_Node000001_Node000004"><a xlink:title=" ">
<path fill="none" stroke="#63b8ff" d="M131.58,-114.47C146.83,-118 163.3,-121.21 178.75,-123 254,-131.72 340.3,-128.6 402.18,-124.1"/>
<polygon fill="#63b8ff" stroke="#63b8ff" points="402.22,-127.6 411.93,-123.36 401.69,-120.62 402.22,-127.6"/>
</a>
</g>
</g>
<!-- Node7 -->
<g id="Node000007" class="node">
<title>Node7</title>
<g id="a_Node000007"><a xlink:href="class_task_a_p_i_1_1_services_1_1_log_service.html#a78c9df658858fa3099eed69421423898" target="_top" xlink:title="Logs an exception to the database.">
<polygon fill="white" stroke="#666666" points="559.5,-82 413.75,-82 413.75,-50 559.5,-50 559.5,-82"/>
<text text-anchor="start" x="421.75" y="-68.5" font-family="Helvetica,sans-Serif" font-size="10.00">TaskAPI.Services.LogService.</text>
<text text-anchor="middle" x="486.62" y="-56.5" font-family="Helvetica,sans-Serif" font-size="10.00">LogException</text>
</a>
</g>
</g>
<!-- Node1&#45;&gt;Node7 -->
<g id="edge11_Node000001_Node000007" class="edge">
<title>Node1&#45;&gt;Node7</title>
<g id="a_edge11_Node000001_Node000007"><a xlink:title=" ">
<path fill="none" stroke="#63b8ff" d="M132.73,-81.52C147.66,-78.08 163.7,-74.92 178.75,-73 253.9,-63.42 340.21,-62.32 402.12,-63.24"/>
<polygon fill="#63b8ff" stroke="#63b8ff" points="401.81,-66.73 411.87,-63.4 401.93,-59.73 401.81,-66.73"/>
</a>
</g>
</g>
<!-- Node8 -->
<g id="Node000008" class="node">
<title>Node8</title>
<g id="a_Node000008"><a xlink:href="class_task_a_p_i_1_1_services_1_1_log_service.html#a6be037b34888bbcf6b47dca8eef472de" target="_top" xlink:title="Logs a debug message to the database.">
<polygon fill="white" stroke="#666666" points="559.5,-32 413.75,-32 413.75,0 559.5,0 559.5,-32"/>
<text text-anchor="start" x="421.75" y="-18.5" font-family="Helvetica,sans-Serif" font-size="10.00">TaskAPI.Services.LogService.</text>
<text text-anchor="middle" x="486.62" y="-6.5" font-family="Helvetica,sans-Serif" font-size="10.00">LogDebug</text>
</a>
</g>
</g>
<!-- Node1&#45;&gt;Node8 -->
<g id="edge8_Node000001_Node000008" class="edge">
<title>Node1&#45;&gt;Node8</title>
<g id="a_edge8_Node000001_Node000008"><a xlink:title=" ">
<path fill="none" stroke="#63b8ff" d="M109.63,-81.65C129.75,-73.42 155.22,-63.95 178.75,-58 253.1,-39.19 339.86,-28.3 402.12,-22.35"/>
<polygon fill="#63b8ff" stroke="#63b8ff" points="402.31,-25.84 411.94,-21.43 401.66,-18.87 402.31,-25.84"/>
</a>
</g>
</g>
<!-- Node3&#45;&gt;Node4 -->
<g id="edge3_Node000003_Node000004" class="edge">
<title>Node3&#45;&gt;Node4</title>
<g id="a_edge3_Node000003_Node000004"><a xlink:title=" ">
<path fill="none" stroke="#63b8ff" d="M378.21,-106.63C386.2,-107.33 394.23,-108.03 402.09,-108.71"/>
<polygon fill="#63b8ff" stroke="#63b8ff" points="401.71,-112.19 411.98,-109.58 402.32,-105.22 401.71,-112.19"/>
</a>
</g>
</g>
<!-- Node3&#45;&gt;Node7 -->
<g id="edge6_Node000003_Node000007" class="edge">
<title>Node3&#45;&gt;Node7</title>
<g id="a_edge6_Node000003_Node000007"><a xlink:title=" ">
<path fill="none" stroke="#63b8ff" d="M378.21,-82.66C386.29,-81.4 394.41,-80.14 402.37,-78.91"/>
<polygon fill="#63b8ff" stroke="#63b8ff" points="402.65,-82.41 411.99,-77.42 401.57,-75.49 402.65,-82.41"/>
</a>
</g>
</g>
<!-- Node5 -->
<g id="Node000005" class="node">
<title>Node5</title>
<g id="a_Node000005"><a xlink:href="class_task_a_p_i_1_1_services_1_1_log_service.html#a44f0fd9db1116257087ba59c836e22ea" target="_top" xlink:title="Directly inserts a log entry into the database.">
<polygon fill="white" stroke="#666666" points="741.25,-82 595.5,-82 595.5,-50 741.25,-50 741.25,-82"/>
<text text-anchor="start" x="603.5" y="-68.5" font-family="Helvetica,sans-Serif" font-size="10.00">TaskAPI.Services.LogService.</text>
<text text-anchor="middle" x="668.38" y="-56.5" font-family="Helvetica,sans-Serif" font-size="10.00">InsertLog</text>
</a>
</g>
</g>
<!-- Node4&#45;&gt;Node5 -->
<g id="edge4_Node000004_Node000005" class="edge">
<title>Node4&#45;&gt;Node5</title>
<g id="a_edge4_Node000004_Node000005"><a xlink:title=" ">
<path fill="none" stroke="#63b8ff" d="M546.48,-99.63C562.69,-95.12 580.44,-90.18 597.22,-85.52"/>
<polygon fill="#63b8ff" stroke="#63b8ff" points="597.92,-88.95 606.62,-82.9 596.05,-82.21 597.92,-88.95"/>
</a>
</g>
</g>
<!-- Node6 -->
<g id="Node000006" class="node">
<title>Node6</title>
<g id="a_Node000006"><a xlink:href="class_task_a_p_i_1_1_services_1_1_log_service.html#a20f6ab73ae5cc69273da4416da65f94d" target="_top" xlink:title="Writes a log entry to a local text file as a fallback or additional logging method.">
<polygon fill="white" stroke="#666666" points="923,-82 777.25,-82 777.25,-50 923,-50 923,-82"/>
<text text-anchor="start" x="785.25" y="-68.5" font-family="Helvetica,sans-Serif" font-size="10.00">TaskAPI.Services.LogService.</text>
<text text-anchor="middle" x="850.12" y="-56.5" font-family="Helvetica,sans-Serif" font-size="10.00">WriteLog</text>
</a>
</g>
</g>
<!-- Node5&#45;&gt;Node6 -->
<g id="edge5_Node000005_Node000006" class="edge">
<title>Node5&#45;&gt;Node6</title>
<g id="a_edge5_Node000005_Node000006"><a xlink:title=" ">
<path fill="none" stroke="#63b8ff" d="M741.71,-66C749.6,-66 757.68,-66 765.69,-66"/>
<polygon fill="#63b8ff" stroke="#63b8ff" points="765.43,-69.5 775.43,-66 765.43,-62.5 765.43,-69.5"/>
</a>
</g>
</g>
<!-- Node7&#45;&gt;Node5 -->
<g id="edge7_Node000007_Node000005" class="edge">
<title>Node7&#45;&gt;Node5</title>
<g id="a_edge7_Node000007_Node000005"><a xlink:title=" ">
<path fill="none" stroke="#63b8ff" d="M559.96,-66C567.85,-66 575.93,-66 583.94,-66"/>
<polygon fill="#63b8ff" stroke="#63b8ff" points="583.68,-69.5 593.68,-66 583.68,-62.5 583.68,-69.5"/>
</a>
</g>
</g>
<!-- Node8&#45;&gt;Node5 -->
<g id="edge9_Node000008_Node000005" class="edge">
<title>Node8&#45;&gt;Node5</title>
<g id="a_edge9_Node000008_Node000005"><a xlink:title=" ">
<path fill="none" stroke="#63b8ff" d="M546.48,-32.37C562.69,-36.88 580.44,-41.82 597.22,-46.48"/>
<polygon fill="#63b8ff" stroke="#63b8ff" points="596.05,-49.79 606.62,-49.1 597.92,-43.05 596.05,-49.79"/>
</a>
</g>
</g>
</g>
</svg>
