<?xml version="1.0" encoding="UTF-8" standalone="no"?>
<!DOCTYPE svg PUBLIC "-//W3C//DTD SVG 1.1//EN"
 "http://www.w3.org/Graphics/SVG/1.1/DTD/svg11.dtd">
<!-- Generated by graphviz version 9.0.0 (20230911.1827)
 -->
<!-- Title: TaskAPI.Services.LogService.TrimLogs Pages: 1 -->
<svg width="699pt" height="40pt"
 viewBox="0.00 0.00 699.00 40.00" xmlns="http://www.w3.org/2000/svg" xmlns:xlink="http://www.w3.org/1999/xlink">
<g id="graph0" class="graph" transform="scale(1 1) rotate(0) translate(4 36)">
<title>TaskAPI.Services.LogService.TrimLogs</title>
<!-- Node1 -->
<g id="Node000001" class="node">
<title>Node1</title>
<g id="a_Node000001"><a xlink:title="Removes log entries older than the configured retention period.">
<polygon fill="#999999" stroke="#666666" points="145.75,-32 0,-32 0,0 145.75,0 145.75,-32"/>
<text text-anchor="start" x="8" y="-18.5" font-family="Helvetica,sans-Serif" font-size="10.00">TaskAPI.Services.LogService.</text>
<text text-anchor="middle" x="72.88" y="-6.5" font-family="Helvetica,sans-Serif" font-size="10.00">TrimLogs</text>
</a>
</g>
</g>
<!-- Node2 -->
<g id="Node000002" class="node">
<title>Node2</title>
<g id="a_Node000002"><a xlink:href="class_task_a_p_i_1_1_services_1_1_log_service.html#a78c9df658858fa3099eed69421423898" target="_top" xlink:title="Logs an exception to the database.">
<polygon fill="white" stroke="#666666" points="327.5,-32 181.75,-32 181.75,0 327.5,0 327.5,-32"/>
<text text-anchor="start" x="189.75" y="-18.5" font-family="Helvetica,sans-Serif" font-size="10.00">TaskAPI.Services.LogService.</text>
<text text-anchor="middle" x="254.62" y="-6.5" font-family="Helvetica,sans-Serif" font-size="10.00">LogException</text>
</a>
</g>
</g>
<!-- Node1&#45;&gt;Node2 -->
<g id="edge1_Node000001_Node000002" class="edge">
<title>Node1&#45;&gt;Node2</title>
<g id="a_edge1_Node000001_Node000002"><a xlink:title=" ">
<path fill="none" stroke="#63b8ff" d="M146.21,-16C154.1,-16 162.18,-16 170.19,-16"/>
<polygon fill="#63b8ff" stroke="#63b8ff" points="169.93,-19.5 179.93,-16 169.93,-12.5 169.93,-19.5"/>
</a>
</g>
</g>
<!-- Node3 -->
<g id="Node000003" class="node">
<title>Node3</title>
<g id="a_Node000003"><a xlink:href="class_task_a_p_i_1_1_services_1_1_log_service.html#a44f0fd9db1116257087ba59c836e22ea" target="_top" xlink:title="Directly inserts a log entry into the database.">
<polygon fill="white" stroke="#666666" points="509.25,-32 363.5,-32 363.5,0 509.25,0 509.25,-32"/>
<text text-anchor="start" x="371.5" y="-18.5" font-family="Helvetica,sans-Serif" font-size="10.00">TaskAPI.Services.LogService.</text>
<text text-anchor="middle" x="436.38" y="-6.5" font-family="Helvetica,sans-Serif" font-size="10.00">InsertLog</text>
</a>
</g>
</g>
<!-- Node2&#45;&gt;Node3 -->
<g id="edge2_Node000002_Node000003" class="edge">
<title>Node2&#45;&gt;Node3</title>
<g id="a_edge2_Node000002_Node000003"><a xlink:title=" ">
<path fill="none" stroke="#63b8ff" d="M327.96,-16C335.85,-16 343.93,-16 351.94,-16"/>
<polygon fill="#63b8ff" stroke="#63b8ff" points="351.68,-19.5 361.68,-16 351.68,-12.5 351.68,-19.5"/>
</a>
</g>
</g>
<!-- Node4 -->
<g id="Node000004" class="node">
<title>Node4</title>
<g id="a_Node000004"><a xlink:href="class_task_a_p_i_1_1_services_1_1_log_service.html#a20f6ab73ae5cc69273da4416da65f94d" target="_top" xlink:title="Writes a log entry to a local text file as a fallback or additional logging method.">
<polygon fill="white" stroke="#666666" points="691,-32 545.25,-32 545.25,0 691,0 691,-32"/>
<text text-anchor="start" x="553.25" y="-18.5" font-family="Helvetica,sans-Serif" font-size="10.00">TaskAPI.Services.LogService.</text>
<text text-anchor="middle" x="618.12" y="-6.5" font-family="Helvetica,sans-Serif" font-size="10.00">WriteLog</text>
</a>
</g>
</g>
<!-- Node3&#45;&gt;Node4 -->
<g id="edge3_Node000003_Node000004" class="edge">
<title>Node3&#45;&gt;Node4</title>
<g id="a_edge3_Node000003_Node000004"><a xlink:title=" ">
<path fill="none" stroke="#63b8ff" d="M509.71,-16C517.6,-16 525.68,-16 533.69,-16"/>
<polygon fill="#63b8ff" stroke="#63b8ff" points="533.43,-19.5 543.43,-16 533.43,-12.5 533.43,-19.5"/>
</a>
</g>
</g>
</g>
</svg>
