<?xml version="1.0" encoding="UTF-8" standalone="no"?>
<!DOCTYPE svg PUBLIC "-//W3C//DTD SVG 1.1//EN"
 "http://www.w3.org/Graphics/SVG/1.1/DTD/svg11.dtd">
<!-- Generated by graphviz version 9.0.0 (20230911.1827)
 -->
<!-- Title: TaskAPI.Helpers.SpotHelper.CanSync Pages: 1 -->
<svg width="670pt" height="167pt"
 viewBox="0.00 0.00 669.75 166.57" xmlns="http://www.w3.org/2000/svg" xmlns:xlink="http://www.w3.org/1999/xlink">
<g id="graph0" class="graph" transform="scale(1 1) rotate(0) translate(4 162.57)">
<title>TaskAPI.Helpers.SpotHelper.CanSync</title>
<!-- Node1 -->
<g id="Node000001" class="node">
<title>Node1</title>
<g id="a_Node000001"><a xlink:title="Determines whether synchronisation with the market is possible based on the current market status.">
<polygon fill="#999999" stroke="#666666" points="661.75,-83.57 519,-83.57 519,-51.57 661.75,-51.57 661.75,-83.57"/>
<text text-anchor="start" x="527" y="-70.07" font-family="Helvetica,sans-Serif" font-size="10.00">TaskAPI.Helpers.SpotHelper.</text>
<text text-anchor="middle" x="590.38" y="-58.07" font-family="Helvetica,sans-Serif" font-size="10.00">CanSync</text>
</a>
</g>
</g>
<!-- Node2 -->
<g id="Node000002" class="node">
<title>Node2</title>
<g id="a_Node000002"><a xlink:href="class_task_a_p_i_1_1_helpers_1_1_spot_helper.html#a51135865d712678dee52479c109a61fb" target="_top" xlink:title="pull data from forexfeed in one hit, check single time variation is within threshold add items to spo...">
<polygon fill="white" stroke="#666666" points="483,-158.57 340.25,-158.57 340.25,-126.57 483,-126.57 483,-158.57"/>
<text text-anchor="start" x="348.25" y="-145.07" font-family="Helvetica,sans-Serif" font-size="10.00">TaskAPI.Helpers.SpotHelper.</text>
<text text-anchor="middle" x="411.62" y="-133.07" font-family="Helvetica,sans-Serif" font-size="10.00">PullForexData</text>
</a>
</g>
</g>
<!-- Node1&#45;&gt;Node2 -->
<g id="edge1_Node000001_Node000002" class="edge">
<title>Node1&#45;&gt;Node2</title>
<g id="a_edge1_Node000001_Node000002"><a xlink:title=" ">
<path fill="none" stroke="#63b8ff" d="M546.44,-88.93C527.23,-98.18 504.18,-108.86 483,-117.57 475.93,-120.49 468.37,-123.38 460.94,-126.12"/>
<polygon fill="#63b8ff" stroke="#63b8ff" points="547.85,-92.13 555.32,-84.62 544.8,-85.84 547.85,-92.13"/>
</a>
</g>
</g>
<!-- Node4 -->
<g id="Node000004" class="node">
<title>Node4</title>
<g id="a_Node000004"><a xlink:href="class_task_a_p_i_1_1_controllers_1_1_spot_controller.html#adc5d733d4c39f2ecdaad8d8bf2231731" target="_top" xlink:title="Initiates synchronisation of spot data.">
<polygon fill="white" stroke="#666666" points="125.5,-36.57 0,-36.57 0,-4.57 125.5,-4.57 125.5,-36.57"/>
<text text-anchor="start" x="8" y="-23.07" font-family="Helvetica,sans-Serif" font-size="10.00">TaskAPI.Controllers.Spot</text>
<text text-anchor="middle" x="62.75" y="-11.07" font-family="Helvetica,sans-Serif" font-size="10.00">Controller.Sync</text>
</a>
</g>
</g>
<!-- Node1&#45;&gt;Node4 -->
<g id="edge8_Node000001_Node000004" class="edge">
<title>Node1&#45;&gt;Node4</title>
<g id="a_edge8_Node000001_Node000004"><a xlink:title=" ">
<path fill="none" stroke="#63b8ff" d="M553.14,-45.66C533.21,-34.89 507.59,-23.07 483,-17.57 358.68,10.19 208.41,-1.41 125.77,-11.53"/>
<polygon fill="#63b8ff" stroke="#63b8ff" points="551.25,-48.62 561.69,-50.43 554.65,-42.5 551.25,-48.62"/>
</a>
</g>
</g>
<!-- Node5 -->
<g id="Node000005" class="node">
<title>Node5</title>
<g id="a_Node000005"><a xlink:href="class_task_a_p_i_1_1_helpers_1_1_spot_helper.html#a0fd06a80c097c9b6fcd5ddd8b1889c18" target="_top" xlink:title="Retrieves spot data from Oanda for each specified asset.">
<polygon fill="white" stroke="#666666" points="483,-108.57 340.25,-108.57 340.25,-76.57 483,-76.57 483,-108.57"/>
<text text-anchor="start" x="348.25" y="-95.07" font-family="Helvetica,sans-Serif" font-size="10.00">TaskAPI.Helpers.SpotHelper.</text>
<text text-anchor="middle" x="411.62" y="-83.07" font-family="Helvetica,sans-Serif" font-size="10.00">PullOandaData</text>
</a>
</g>
</g>
<!-- Node1&#45;&gt;Node5 -->
<g id="edge4_Node000001_Node000005" class="edge">
<title>Node1&#45;&gt;Node5</title>
<g id="a_edge4_Node000001_Node000005"><a xlink:title=" ">
<path fill="none" stroke="#63b8ff" d="M507.23,-79.19C499.21,-80.33 491.12,-81.47 483.23,-82.59"/>
<polygon fill="#63b8ff" stroke="#63b8ff" points="507.59,-82.68 517,-77.81 506.61,-75.75 507.59,-82.68"/>
</a>
</g>
</g>
<!-- Node6 -->
<g id="Node000006" class="node">
<title>Node6</title>
<g id="a_Node000006"><a xlink:href="class_task_a_p_i_1_1_helpers_1_1_spot_helper.html#a2ad64affbfeec15e4217d8bfccd982ff" target="_top" xlink:title="Pulls spot data from Polygon Oracle for each specified asset.">
<polygon fill="white" stroke="#666666" points="483,-58.57 340.25,-58.57 340.25,-26.57 483,-26.57 483,-58.57"/>
<text text-anchor="start" x="348.25" y="-45.07" font-family="Helvetica,sans-Serif" font-size="10.00">TaskAPI.Helpers.SpotHelper.</text>
<text text-anchor="middle" x="411.62" y="-33.07" font-family="Helvetica,sans-Serif" font-size="10.00">PullPolygonOracleData</text>
</a>
</g>
</g>
<!-- Node1&#45;&gt;Node6 -->
<g id="edge6_Node000001_Node000006" class="edge">
<title>Node1&#45;&gt;Node6</title>
<g id="a_edge6_Node000001_Node000006"><a xlink:title=" ">
<path fill="none" stroke="#63b8ff" d="M507.23,-55.96C499.21,-54.82 491.12,-53.68 483.23,-52.56"/>
<polygon fill="#63b8ff" stroke="#63b8ff" points="506.61,-59.4 517,-57.34 507.59,-52.47 506.61,-59.4"/>
</a>
</g>
</g>
<!-- Node3 -->
<g id="Node000003" class="node">
<title>Node3</title>
<g id="a_Node000003"><a xlink:href="class_task_a_p_i_1_1_helpers_1_1_spot_helper.html#a7b75f44b3310036d4de7f0f2956bbac1" target="_top" xlink:title="Pulls, saves, and trims spot data from various sources.">
<polygon fill="white" stroke="#666666" points="304.25,-83.57 161.5,-83.57 161.5,-51.57 304.25,-51.57 304.25,-83.57"/>
<text text-anchor="start" x="169.5" y="-70.07" font-family="Helvetica,sans-Serif" font-size="10.00">TaskAPI.Helpers.SpotHelper.</text>
<text text-anchor="middle" x="232.88" y="-58.07" font-family="Helvetica,sans-Serif" font-size="10.00">PullSaveTrim</text>
</a>
</g>
</g>
<!-- Node2&#45;&gt;Node3 -->
<g id="edge2_Node000002_Node000003" class="edge">
<title>Node2&#45;&gt;Node3</title>
<g id="a_edge2_Node000002_Node000003"><a xlink:title=" ">
<path fill="none" stroke="#63b8ff" d="M351.84,-122.18C347.9,-120.66 344.01,-119.12 340.25,-117.57 315.15,-107.25 287.42,-94.15 266.57,-83.96"/>
<polygon fill="#63b8ff" stroke="#63b8ff" points="350.3,-125.34 360.89,-125.58 352.76,-118.79 350.3,-125.34"/>
</a>
</g>
</g>
<!-- Node3&#45;&gt;Node4 -->
<g id="edge3_Node000003_Node000004" class="edge">
<title>Node3&#45;&gt;Node4</title>
<g id="a_edge3_Node000003_Node000004"><a xlink:title=" ">
<path fill="none" stroke="#63b8ff" d="M162.15,-48.08C148.97,-44.4 135.32,-40.58 122.52,-37"/>
<polygon fill="#63b8ff" stroke="#63b8ff" points="161.04,-51.41 171.62,-50.73 162.93,-44.67 161.04,-51.41"/>
</a>
</g>
</g>
<!-- Node5&#45;&gt;Node3 -->
<g id="edge5_Node000005_Node000003" class="edge">
<title>Node5&#45;&gt;Node3</title>
<g id="a_edge5_Node000005_Node000003"><a xlink:title=" ">
<path fill="none" stroke="#63b8ff" d="M328.48,-80.96C320.46,-79.82 312.37,-78.68 304.48,-77.56"/>
<polygon fill="#63b8ff" stroke="#63b8ff" points="327.86,-84.4 338.25,-82.34 328.84,-77.47 327.86,-84.4"/>
</a>
</g>
</g>
<!-- Node6&#45;&gt;Node3 -->
<g id="edge7_Node000006_Node000003" class="edge">
<title>Node6&#45;&gt;Node3</title>
<g id="a_edge7_Node000006_Node000003"><a xlink:title=" ">
<path fill="none" stroke="#63b8ff" d="M328.48,-54.19C320.46,-55.33 312.37,-56.47 304.48,-57.59"/>
<polygon fill="#63b8ff" stroke="#63b8ff" points="328.84,-57.68 338.25,-52.81 327.86,-50.75 328.84,-57.68"/>
</a>
</g>
</g>
</g>
</svg>
