<?xml version="1.0" encoding="UTF-8" standalone="no"?>
<!DOCTYPE svg PUBLIC "-//W3C//DTD SVG 1.1//EN"
 "http://www.w3.org/Graphics/SVG/1.1/DTD/svg11.dtd">
<!-- Generated by graphviz version 9.0.0 (20230911.1827)
 -->
<!-- Title: TaskAPI.Controllers.SpotController.SaveDaily Pages: 1 -->
<svg width="858pt" height="168pt"
 viewBox="0.00 0.00 857.50 168.00" xmlns="http://www.w3.org/2000/svg" xmlns:xlink="http://www.w3.org/1999/xlink">
<g id="graph0" class="graph" transform="scale(1 1) rotate(0) translate(4 164)">
<title>TaskAPI.Controllers.SpotController.SaveDaily</title>
<!-- Node1 -->
<g id="Node000001" class="node">
<title>Node1</title>
<g id="a_Node000001"><a xlink:title="Saves daily spot data.">
<polygon fill="#999999" stroke="#666666" points="125.5,-104 0,-104 0,-72 125.5,-72 125.5,-104"/>
<text text-anchor="start" x="8" y="-90.5" font-family="Helvetica,sans-Serif" font-size="10.00">TaskAPI.Controllers.Spot</text>
<text text-anchor="middle" x="62.75" y="-78.5" font-family="Helvetica,sans-Serif" font-size="10.00">Controller.SaveDaily</text>
</a>
</g>
</g>
<!-- Node2 -->
<g id="Node000002" class="node">
<title>Node2</title>
<g id="a_Node000002"><a xlink:href="class_task_a_p_i_1_1_services_1_1_log_service.html#a46dc9bf58bc9605c7e17dfee38b94354" target="_top" xlink:title="Logs an error message to the database.">
<polygon fill="white" stroke="#666666" points="486,-106 340.25,-106 340.25,-74 486,-74 486,-106"/>
<text text-anchor="start" x="348.25" y="-92.5" font-family="Helvetica,sans-Serif" font-size="10.00">TaskAPI.Services.LogService.</text>
<text text-anchor="middle" x="413.12" y="-80.5" font-family="Helvetica,sans-Serif" font-size="10.00">LogError</text>
</a>
</g>
</g>
<!-- Node1&#45;&gt;Node2 -->
<g id="edge1_Node000001_Node000002" class="edge">
<title>Node1&#45;&gt;Node2</title>
<g id="a_edge1_Node000001_Node000002"><a xlink:title=" ">
<path fill="none" stroke="#63b8ff" d="M125.8,-90.19C137.65,-90.53 149.96,-90.82 161.5,-91 217.18,-91.85 279.83,-91.6 328.57,-91.14"/>
<polygon fill="#63b8ff" stroke="#63b8ff" points="328.53,-94.64 338.49,-91.04 328.46,-87.64 328.53,-94.64"/>
</a>
</g>
</g>
<!-- Node5 -->
<g id="Node000005" class="node">
<title>Node5</title>
<g id="a_Node000005"><a xlink:href="class_task_a_p_i_1_1_services_1_1_log_service.html#a5c2a67dbd8beb6f821c46b8d052d59ea" target="_top" xlink:title="Logs an informational message to the database.">
<polygon fill="white" stroke="#666666" points="486,-160 340.25,-160 340.25,-128 486,-128 486,-160"/>
<text text-anchor="start" x="348.25" y="-146.5" font-family="Helvetica,sans-Serif" font-size="10.00">TaskAPI.Services.LogService.</text>
<text text-anchor="middle" x="413.12" y="-134.5" font-family="Helvetica,sans-Serif" font-size="10.00">LogInformation</text>
</a>
</g>
</g>
<!-- Node1&#45;&gt;Node5 -->
<g id="edge4_Node000001_Node000005" class="edge">
<title>Node1&#45;&gt;Node5</title>
<g id="a_edge4_Node000001_Node000005"><a xlink:title=" ">
<path fill="none" stroke="#63b8ff" d="M125.77,-98.96C137.63,-101 149.94,-103.1 161.5,-105 217.23,-114.18 280.03,-123.95 328.82,-131.42"/>
<polygon fill="#63b8ff" stroke="#63b8ff" points="328.05,-134.84 338.46,-132.89 329.1,-127.92 328.05,-134.84"/>
</a>
</g>
</g>
<!-- Node6 -->
<g id="Node000006" class="node">
<title>Node6</title>
<g id="a_Node000006"><a xlink:href="class_task_a_p_i_1_1_helpers_1_1_spot_helper.html#a6b975ced6fddc4826a8950c8a250b926" target="_top" xlink:title=" ">
<polygon fill="white" stroke="#666666" points="304.25,-82 161.5,-82 161.5,-50 304.25,-50 304.25,-82"/>
<text text-anchor="start" x="169.5" y="-68.5" font-family="Helvetica,sans-Serif" font-size="10.00">TaskAPI.Helpers.SpotHelper.</text>
<text text-anchor="middle" x="232.88" y="-56.5" font-family="Helvetica,sans-Serif" font-size="10.00">SaveDailySpot</text>
</a>
</g>
</g>
<!-- Node1&#45;&gt;Node6 -->
<g id="edge6_Node000001_Node000006" class="edge">
<title>Node1&#45;&gt;Node6</title>
<g id="a_edge6_Node000001_Node000006"><a xlink:title=" ">
<path fill="none" stroke="#63b8ff" d="M125.88,-79.87C133.7,-78.85 141.79,-77.79 149.86,-76.73"/>
<polygon fill="#63b8ff" stroke="#63b8ff" points="150.25,-80.21 159.71,-75.44 149.34,-73.27 150.25,-80.21"/>
</a>
</g>
</g>
<!-- Node7 -->
<g id="Node000007" class="node">
<title>Node7</title>
<g id="a_Node000007"><a xlink:href="class_task_a_p_i_1_1_services_1_1_internal_a_p_i_service.html#aeffeb1d3d59aeeab65dfe72691d21600" target="_top" xlink:title="Sends an email using Internal API&#39;s email endpoint.">
<polygon fill="white" stroke="#666666" points="296.38,-32 169.38,-32 169.38,0 296.38,0 296.38,-32"/>
<text text-anchor="start" x="177.38" y="-18.5" font-family="Helvetica,sans-Serif" font-size="10.00">TaskAPI.Services.Internal</text>
<text text-anchor="middle" x="232.88" y="-6.5" font-family="Helvetica,sans-Serif" font-size="10.00">APIService.SendEmail</text>
</a>
</g>
</g>
<!-- Node1&#45;&gt;Node7 -->
<g id="edge7_Node000001_Node000007" class="edge">
<title>Node1&#45;&gt;Node7</title>
<g id="a_edge7_Node000001_Node000007"><a xlink:title=" ">
<path fill="none" stroke="#63b8ff" d="M95.5,-71.67C114.43,-62.2 139.08,-50.34 161.5,-41 165.25,-39.44 169.14,-37.88 173.07,-36.36"/>
<polygon fill="#63b8ff" stroke="#63b8ff" points="174,-39.75 182.12,-32.94 171.53,-33.2 174,-39.75"/>
</a>
</g>
</g>
<!-- Node3 -->
<g id="Node000003" class="node">
<title>Node3</title>
<g id="a_Node000003"><a xlink:href="class_task_a_p_i_1_1_services_1_1_log_service.html#a44f0fd9db1116257087ba59c836e22ea" target="_top" xlink:title="Directly inserts a log entry into the database.">
<polygon fill="white" stroke="#666666" points="667.75,-106 522,-106 522,-74 667.75,-74 667.75,-106"/>
<text text-anchor="start" x="530" y="-92.5" font-family="Helvetica,sans-Serif" font-size="10.00">TaskAPI.Services.LogService.</text>
<text text-anchor="middle" x="594.88" y="-80.5" font-family="Helvetica,sans-Serif" font-size="10.00">InsertLog</text>
</a>
</g>
</g>
<!-- Node2&#45;&gt;Node3 -->
<g id="edge2_Node000002_Node000003" class="edge">
<title>Node2&#45;&gt;Node3</title>
<g id="a_edge2_Node000002_Node000003"><a xlink:title=" ">
<path fill="none" stroke="#63b8ff" d="M486.46,-90C494.35,-90 502.43,-90 510.44,-90"/>
<polygon fill="#63b8ff" stroke="#63b8ff" points="510.18,-93.5 520.18,-90 510.18,-86.5 510.18,-93.5"/>
</a>
</g>
</g>
<!-- Node4 -->
<g id="Node000004" class="node">
<title>Node4</title>
<g id="a_Node000004"><a xlink:href="class_task_a_p_i_1_1_services_1_1_log_service.html#a20f6ab73ae5cc69273da4416da65f94d" target="_top" xlink:title="Writes a log entry to a local text file as a fallback or additional logging method.">
<polygon fill="white" stroke="#666666" points="849.5,-106 703.75,-106 703.75,-74 849.5,-74 849.5,-106"/>
<text text-anchor="start" x="711.75" y="-92.5" font-family="Helvetica,sans-Serif" font-size="10.00">TaskAPI.Services.LogService.</text>
<text text-anchor="middle" x="776.62" y="-80.5" font-family="Helvetica,sans-Serif" font-size="10.00">WriteLog</text>
</a>
</g>
</g>
<!-- Node3&#45;&gt;Node4 -->
<g id="edge3_Node000003_Node000004" class="edge">
<title>Node3&#45;&gt;Node4</title>
<g id="a_edge3_Node000003_Node000004"><a xlink:title=" ">
<path fill="none" stroke="#63b8ff" d="M668.21,-90C676.1,-90 684.18,-90 692.19,-90"/>
<polygon fill="#63b8ff" stroke="#63b8ff" points="691.93,-93.5 701.93,-90 691.93,-86.5 691.93,-93.5"/>
</a>
</g>
</g>
<!-- Node5&#45;&gt;Node3 -->
<g id="edge5_Node000005_Node000003" class="edge">
<title>Node5&#45;&gt;Node3</title>
<g id="a_edge5_Node000005_Node000003"><a xlink:title=" ">
<path fill="none" stroke="#63b8ff" d="M469.03,-127.5C487.68,-121.9 508.7,-115.59 528.1,-109.76"/>
<polygon fill="#63b8ff" stroke="#63b8ff" points="528.97,-113.15 537.54,-106.92 526.96,-106.45 528.97,-113.15"/>
</a>
</g>
</g>
<!-- Node7&#45;&gt;Node2 -->
<g id="edge8_Node000007_Node000002" class="edge">
<title>Node7&#45;&gt;Node2</title>
<g id="a_edge8_Node000007_Node000002"><a xlink:title=" ">
<path fill="none" stroke="#63b8ff" d="M281.78,-32.4C289.34,-35.17 297.04,-38.09 304.25,-41 310.61,-43.57 339.59,-56.75 365.92,-68.79"/>
<polygon fill="#63b8ff" stroke="#63b8ff" points="364.28,-71.89 374.83,-72.87 367.19,-65.52 364.28,-71.89"/>
</a>
</g>
</g>
<!-- Node8 -->
<g id="Node000008" class="node">
<title>Node8</title>
<g id="a_Node000008"><a xlink:href="class_task_a_p_i_1_1_services_1_1_log_service.html#a78c9df658858fa3099eed69421423898" target="_top" xlink:title="Logs an exception to the database.">
<polygon fill="white" stroke="#666666" points="486,-48 340.25,-48 340.25,-16 486,-16 486,-48"/>
<text text-anchor="start" x="348.25" y="-34.5" font-family="Helvetica,sans-Serif" font-size="10.00">TaskAPI.Services.LogService.</text>
<text text-anchor="middle" x="413.12" y="-22.5" font-family="Helvetica,sans-Serif" font-size="10.00">LogException</text>
</a>
</g>
</g>
<!-- Node7&#45;&gt;Node8 -->
<g id="edge9_Node000007_Node000008" class="edge">
<title>Node7&#45;&gt;Node8</title>
<g id="a_edge9_Node000007_Node000008"><a xlink:title=" ">
<path fill="none" stroke="#63b8ff" d="M296.72,-21.64C307.06,-22.57 317.92,-23.54 328.67,-24.51"/>
<polygon fill="#63b8ff" stroke="#63b8ff" points="328.02,-27.96 338.29,-25.37 328.65,-20.99 328.02,-27.96"/>
</a>
</g>
</g>
<!-- Node8&#45;&gt;Node3 -->
<g id="edge10_Node000008_Node000003" class="edge">
<title>Node8&#45;&gt;Node3</title>
<g id="a_edge10_Node000008_Node000003"><a xlink:title=" ">
<path fill="none" stroke="#63b8ff" d="M465.15,-48.47C486.02,-55.2 510.34,-63.05 532.2,-70.1"/>
<polygon fill="#63b8ff" stroke="#63b8ff" points="531,-73.39 541.59,-73.13 533.15,-66.73 531,-73.39"/>
</a>
</g>
</g>
</g>
</svg>
