<?xml version="1.0" encoding="UTF-8" standalone="no"?>
<!DOCTYPE svg PUBLIC "-//W3C//DTD SVG 1.1//EN"
 "http://www.w3.org/Graphics/SVG/1.1/DTD/svg11.dtd">
<!-- Generated by graphviz version 9.0.0 (20230911.1827)
 -->
<!-- Title: TaskAPI.Helpers.SpotHelper.CanSync Pages: 1 -->
<!--zoomable 167 -->

<svg id="main" version="1.1" xmlns="http://www.w3.org/2000/svg" xmlns:xlink="http://www.w3.org/1999/xlink" xml:space="preserve" onload="init(evt)">
<style type="text/css"><![CDATA[
.node, .edge {opacity: 0.7;}
.node.selected, .edge.selected {opacity: 1;}
.edge:hover path { stroke: red; }
.edge:hover polygon { stroke: red; fill: red; }
]]></style>

<defs>
  <circle id="rim" cx="0" cy="0" r="7"/>
  <circle id="rim2" cx="0" cy="0" r="3.5"/>
  <g id="zoomPlus">
    <use xlink:href="#rim" fill="#404040"><set attributeName="fill" to="#808080" begin="zoomplus.mouseover" end="zoomplus.mouseout"/></use>
    <path d="M-4,0h8M0,-4v8" fill="none" stroke="white" stroke-width="1.5" pointer-events="none"/>
  </g>
  <g id="zoomMin">
    <use xlink:href="#rim" fill="#404040"><set attributeName="fill" to="#808080" begin="zoomminus.mouseover" end="zoomminus.mouseout"/></use>
    <path d="M-4,0h8" fill="none" stroke="white" stroke-width="1.5" pointer-events="none"/>
  </g>
  <g id="arrowUp" transform="translate(30 24)">
    <use xlink:href="#rim"/>
    <path pointer-events="none" fill="none" stroke="white" stroke-width="1.5" d="M0,-3.0v7 M-2.5,-0.5L0,-3.0L2.5,-0.5"/>
  </g>
  <g id="arrowRight" transform="rotate(90) translate(36 -43)">
    <use xlink:href="#rim"/>
    <path pointer-events="none" fill="none" stroke="white" stroke-width="1.5" d="M0,-3.0v7 M-2.5,-0.5L0,-3.0L2.5,-0.5"/>
  </g>
  <g id="arrowDown" transform="rotate(180) translate(-30 -48)">
    <use xlink:href="#rim"/>
    <path pointer-events="none" fill="none" stroke="white" stroke-width="1.5" d="M0,-3.0v7 M-2.5,-0.5L0,-3.0L2.5,-0.5"/>
  </g>
  <g id="arrowLeft" transform="rotate(270) translate(-36 17)">
    <use xlink:href="#rim"/>
    <path pointer-events="none" fill="none" stroke="white" stroke-width="1.5" d="M0,-3.0v7 M-2.5,-0.5L0,-3.0L2.5,-0.5"/>
  </g>
  <g id="resetDef">
    <use xlink:href="#rim2" fill="#404040"><set attributeName="fill" to="#808080" begin="reset.mouseover" end="reset.mouseout"/></use>
  </g>
</defs>
<script type="application/ecmascript">
var viewWidth = 670;
var viewHeight = 167;
var sectionId = 'dynsection-2';
</script>
<script type="application/ecmascript" xlink:href="svg.min.js"/>
<svg id="graph" class="graph">
<g id="viewport">
<title>TaskAPI.Helpers.SpotHelper.CanSync</title>
<!-- Node1 -->
<g id="Node000001" class="node">
<title>Node1</title>
<g id="a_Node000001"><a xlink:title="Determines whether synchronisation with the market is possible based on the current market status.">
<polygon fill="#999999" stroke="#666666" points="661.75,-83.57 519,-83.57 519,-51.57 661.75,-51.57 661.75,-83.57"/>
<text text-anchor="start" x="527" y="-70.07" font-family="Helvetica,sans-Serif" font-size="10.00">TaskAPI.Helpers.SpotHelper.</text>
<text text-anchor="middle" x="590.38" y="-58.07" font-family="Helvetica,sans-Serif" font-size="10.00">CanSync</text>
</a>
</g>
</g>
<!-- Node2 -->
<g id="Node000002" class="node">
<title>Node2</title>
<g id="a_Node000002"><a xlink:href="class_task_a_p_i_1_1_helpers_1_1_spot_helper.html#a51135865d712678dee52479c109a61fb" target="_top" xlink:title="pull data from forexfeed in one hit, check single time variation is within threshold add items to spo...">
<polygon fill="white" stroke="#666666" points="483,-158.57 340.25,-158.57 340.25,-126.57 483,-126.57 483,-158.57"/>
<text text-anchor="start" x="348.25" y="-145.07" font-family="Helvetica,sans-Serif" font-size="10.00">TaskAPI.Helpers.SpotHelper.</text>
<text text-anchor="middle" x="411.62" y="-133.07" font-family="Helvetica,sans-Serif" font-size="10.00">PullForexData</text>
</a>
</g>
</g>
<!-- Node1&#45;&gt;Node2 -->
<g id="edge1_Node000001_Node000002" class="edge">
<title>Node1&#45;&gt;Node2</title>
<g id="a_edge1_Node000001_Node000002"><a xlink:title=" ">
<path fill="none" stroke="#63b8ff" d="M546.44,-88.93C527.23,-98.18 504.18,-108.86 483,-117.57 475.93,-120.49 468.37,-123.38 460.94,-126.12"/>
<polygon fill="#63b8ff" stroke="#63b8ff" points="547.85,-92.13 555.32,-84.62 544.8,-85.84 547.85,-92.13"/>
</a>
</g>
</g>
<!-- Node4 -->
<g id="Node000004" class="node">
<title>Node4</title>
<g id="a_Node000004"><a xlink:href="class_task_a_p_i_1_1_controllers_1_1_spot_controller.html#adc5d733d4c39f2ecdaad8d8bf2231731" target="_top" xlink:title="Initiates synchronisation of spot data.">
<polygon fill="white" stroke="#666666" points="125.5,-36.57 0,-36.57 0,-4.57 125.5,-4.57 125.5,-36.57"/>
<text text-anchor="start" x="8" y="-23.07" font-family="Helvetica,sans-Serif" font-size="10.00">TaskAPI.Controllers.Spot</text>
<text text-anchor="middle" x="62.75" y="-11.07" font-family="Helvetica,sans-Serif" font-size="10.00">Controller.Sync</text>
</a>
</g>
</g>
<!-- Node1&#45;&gt;Node4 -->
<g id="edge8_Node000001_Node000004" class="edge">
<title>Node1&#45;&gt;Node4</title>
<g id="a_edge8_Node000001_Node000004"><a xlink:title=" ">
<path fill="none" stroke="#63b8ff" d="M553.14,-45.66C533.21,-34.89 507.59,-23.07 483,-17.57 358.68,10.19 208.41,-1.41 125.77,-11.53"/>
<polygon fill="#63b8ff" stroke="#63b8ff" points="551.25,-48.62 561.69,-50.43 554.65,-42.5 551.25,-48.62"/>
</a>
</g>
</g>
<!-- Node5 -->
<g id="Node000005" class="node">
<title>Node5</title>
<g id="a_Node000005"><a xlink:href="class_task_a_p_i_1_1_helpers_1_1_spot_helper.html#a0fd06a80c097c9b6fcd5ddd8b1889c18" target="_top" xlink:title="Retrieves spot data from Oanda for each specified asset.">
<polygon fill="white" stroke="#666666" points="483,-108.57 340.25,-108.57 340.25,-76.57 483,-76.57 483,-108.57"/>
<text text-anchor="start" x="348.25" y="-95.07" font-family="Helvetica,sans-Serif" font-size="10.00">TaskAPI.Helpers.SpotHelper.</text>
<text text-anchor="middle" x="411.62" y="-83.07" font-family="Helvetica,sans-Serif" font-size="10.00">PullOandaData</text>
</a>
</g>
</g>
<!-- Node1&#45;&gt;Node5 -->
<g id="edge4_Node000001_Node000005" class="edge">
<title>Node1&#45;&gt;Node5</title>
<g id="a_edge4_Node000001_Node000005"><a xlink:title=" ">
<path fill="none" stroke="#63b8ff" d="M507.23,-79.19C499.21,-80.33 491.12,-81.47 483.23,-82.59"/>
<polygon fill="#63b8ff" stroke="#63b8ff" points="507.59,-82.68 517,-77.81 506.61,-75.75 507.59,-82.68"/>
</a>
</g>
</g>
<!-- Node6 -->
<g id="Node000006" class="node">
<title>Node6</title>
<g id="a_Node000006"><a xlink:href="class_task_a_p_i_1_1_helpers_1_1_spot_helper.html#a2ad64affbfeec15e4217d8bfccd982ff" target="_top" xlink:title="Pulls spot data from Polygon Oracle for each specified asset.">
<polygon fill="white" stroke="#666666" points="483,-58.57 340.25,-58.57 340.25,-26.57 483,-26.57 483,-58.57"/>
<text text-anchor="start" x="348.25" y="-45.07" font-family="Helvetica,sans-Serif" font-size="10.00">TaskAPI.Helpers.SpotHelper.</text>
<text text-anchor="middle" x="411.62" y="-33.07" font-family="Helvetica,sans-Serif" font-size="10.00">PullPolygonOracleData</text>
</a>
</g>
</g>
<!-- Node1&#45;&gt;Node6 -->
<g id="edge6_Node000001_Node000006" class="edge">
<title>Node1&#45;&gt;Node6</title>
<g id="a_edge6_Node000001_Node000006"><a xlink:title=" ">
<path fill="none" stroke="#63b8ff" d="M507.23,-55.96C499.21,-54.82 491.12,-53.68 483.23,-52.56"/>
<polygon fill="#63b8ff" stroke="#63b8ff" points="506.61,-59.4 517,-57.34 507.59,-52.47 506.61,-59.4"/>
</a>
</g>
</g>
<!-- Node3 -->
<g id="Node000003" class="node">
<title>Node3</title>
<g id="a_Node000003"><a xlink:href="class_task_a_p_i_1_1_helpers_1_1_spot_helper.html#a7b75f44b3310036d4de7f0f2956bbac1" target="_top" xlink:title="Pulls, saves, and trims spot data from various sources.">
<polygon fill="white" stroke="#666666" points="304.25,-83.57 161.5,-83.57 161.5,-51.57 304.25,-51.57 304.25,-83.57"/>
<text text-anchor="start" x="169.5" y="-70.07" font-family="Helvetica,sans-Serif" font-size="10.00">TaskAPI.Helpers.SpotHelper.</text>
<text text-anchor="middle" x="232.88" y="-58.07" font-family="Helvetica,sans-Serif" font-size="10.00">PullSaveTrim</text>
</a>
</g>
</g>
<!-- Node2&#45;&gt;Node3 -->
<g id="edge2_Node000002_Node000003" class="edge">
<title>Node2&#45;&gt;Node3</title>
<g id="a_edge2_Node000002_Node000003"><a xlink:title=" ">
<path fill="none" stroke="#63b8ff" d="M351.84,-122.18C347.9,-120.66 344.01,-119.12 340.25,-117.57 315.15,-107.25 287.42,-94.15 266.57,-83.96"/>
<polygon fill="#63b8ff" stroke="#63b8ff" points="350.3,-125.34 360.89,-125.58 352.76,-118.79 350.3,-125.34"/>
</a>
</g>
</g>
<!-- Node3&#45;&gt;Node4 -->
<g id="edge3_Node000003_Node000004" class="edge">
<title>Node3&#45;&gt;Node4</title>
<g id="a_edge3_Node000003_Node000004"><a xlink:title=" ">
<path fill="none" stroke="#63b8ff" d="M162.15,-48.08C148.97,-44.4 135.32,-40.58 122.52,-37"/>
<polygon fill="#63b8ff" stroke="#63b8ff" points="161.04,-51.41 171.62,-50.73 162.93,-44.67 161.04,-51.41"/>
</a>
</g>
</g>
<!-- Node5&#45;&gt;Node3 -->
<g id="edge5_Node000005_Node000003" class="edge">
<title>Node5&#45;&gt;Node3</title>
<g id="a_edge5_Node000005_Node000003"><a xlink:title=" ">
<path fill="none" stroke="#63b8ff" d="M328.48,-80.96C320.46,-79.82 312.37,-78.68 304.48,-77.56"/>
<polygon fill="#63b8ff" stroke="#63b8ff" points="327.86,-84.4 338.25,-82.34 328.84,-77.47 327.86,-84.4"/>
</a>
</g>
</g>
<!-- Node6&#45;&gt;Node3 -->
<g id="edge7_Node000006_Node000003" class="edge">
<title>Node6&#45;&gt;Node3</title>
<g id="a_edge7_Node000006_Node000003"><a xlink:title=" ">
<path fill="none" stroke="#63b8ff" d="M328.48,-54.19C320.46,-55.33 312.37,-56.47 304.48,-57.59"/>
<polygon fill="#63b8ff" stroke="#63b8ff" points="328.84,-57.68 338.25,-52.81 327.86,-50.75 328.84,-57.68"/>
</a>
</g>
</g>
</g>
</svg>

<g id="navigator" transform="translate(0 0)" fill="#404254">
  <rect fill="#f2f5e9" fill-opacity="0.5" stroke="#606060" stroke-width=".5" x="0" y="0" width="60" height="60"/>
  <use id="zoomplus" xlink:href="#zoomPlus" x="17" y="9" onmousedown="handleZoom(evt,'in')"/>
  <use id="zoomminus" xlink:href="#zoomMin" x="42" y="9" onmousedown="handleZoom(evt,'out')"/>
  <use id="reset" xlink:href="#resetDef" x="30" y="36" onmousedown="handleReset()"/>
   <use id="arrowup" xlink:href="#arrowUp" x="0" y="0" onmousedown="handlePan(0,-1)"/>
  <use id="arrowright" xlink:href="#arrowRight" x="0" y="0" onmousedown="handlePan(1,0)"/>
  <use id="arrowdown" xlink:href="#arrowDown" x="0" y="0" onmousedown="handlePan(0,1)"/>
  <use id="arrowleft" xlink:href="#arrowLeft" x="0" y="0" onmousedown="handlePan(-1,0)"/>
</g>
<svg viewBox="0 0 15 15" width="100%" height="30px" preserveAspectRatio="xMaxYMin meet">
 <g id="arrow_out" transform="scale(0.3 0.3)">
  <a xlink:href="class_task_a_p_i_1_1_helpers_1_1_spot_helper_a89a665897ed47f9b7065ce771100b83c_icgraph_org.svg" target="_base">
   <rect id="button" ry="5" rx="5" y="6" x="6" height="38" width="38"
        fill="#f2f5e9" fill-opacity="0.5" stroke="#606060" stroke-width="1.0"/>
   <path id="arrow"
     d="M 11.500037,31.436501 C 11.940474,20.09759 22.043105,11.32322 32.158766,21.979434 L 37.068811,17.246167 C 37.068811,17.246167 37.088388,32 37.088388,32 L 22.160133,31.978069 C 22.160133,31.978069 26.997745,27.140456 26.997745,27.140456 C 18.528582,18.264221 13.291696,25.230495 11.500037,31.436501 z"
     style="fill:#404040;"/>
  </a>
 </g>
</svg>

<style type='text/css'>
<![CDATA[
[data-mouse-over-selected='false'] { opacity: 0.7; }
[data-mouse-over-selected='true']  { opacity: 1.0; }
]]>
</style>
<script type="application/ecmascript"><![CDATA[
document.addEventListener('DOMContentLoaded', (event) => {
  highlightEdges();
  highlightAdjacentNodes();
});
]]></script>
</svg>
