<?xml version="1.0" encoding="UTF-8" standalone="no"?>
<!DOCTYPE svg PUBLIC "-//W3C//DTD SVG 1.1//EN"
 "http://www.w3.org/Graphics/SVG/1.1/DTD/svg11.dtd">
<!-- Generated by graphviz version 9.0.0 (20230911.1827)
 -->
<!-- Title: TaskAPI.Services.LogService.FetchLogs Pages: 1 -->
<svg width="686pt" height="90pt"
 viewBox="0.00 0.00 686.25 90.00" xmlns="http://www.w3.org/2000/svg" xmlns:xlink="http://www.w3.org/1999/xlink">
<g id="graph0" class="graph" transform="scale(1 1) rotate(0) translate(4 86)">
<title>TaskAPI.Services.LogService.FetchLogs</title>
<!-- Node1 -->
<g id="Node000001" class="node">
<title>Node1</title>
<g id="a_Node000001"><a xlink:title="Fetches log entries based on specified criteria from the database.">
<polygon fill="#999999" stroke="#666666" points="678.25,-57 532.5,-57 532.5,-25 678.25,-25 678.25,-57"/>
<text text-anchor="start" x="540.5" y="-43.5" font-family="Helvetica,sans-Serif" font-size="10.00">TaskAPI.Services.LogService.</text>
<text text-anchor="middle" x="605.38" y="-31.5" font-family="Helvetica,sans-Serif" font-size="10.00">FetchLogs</text>
</a>
</g>
</g>
<!-- Node2 -->
<g id="Node000002" class="node">
<title>Node2</title>
<g id="a_Node000002"><a xlink:href="class_task_a_p_i_1_1_helpers_1_1_alert_helper.html#a6288723babbbadebdd77681b41122d79" target="_top" xlink:title="Fetches and processes log entries for a given API source based on the specified configuration.">
<polygon fill="white" stroke="#666666" points="496.5,-82 353.75,-82 353.75,-50 496.5,-50 496.5,-82"/>
<text text-anchor="start" x="361.75" y="-68.5" font-family="Helvetica,sans-Serif" font-size="10.00">TaskAPI.Helpers.AlertHelper.</text>
<text text-anchor="middle" x="425.12" y="-56.5" font-family="Helvetica,sans-Serif" font-size="10.00">FetchAndProcessLogs</text>
</a>
</g>
</g>
<!-- Node1&#45;&gt;Node2 -->
<g id="edge1_Node000001_Node000002" class="edge">
<title>Node1&#45;&gt;Node2</title>
<g id="a_edge1_Node000001_Node000002"><a xlink:title=" ">
<path fill="none" stroke="#63b8ff" d="M520.81,-52.72C512.76,-53.85 504.65,-54.99 496.74,-56.1"/>
<polygon fill="#63b8ff" stroke="#63b8ff" points="521.22,-56.2 530.63,-51.34 520.24,-49.27 521.22,-56.2"/>
</a>
</g>
</g>
<!-- Node5 -->
<g id="Node000005" class="node">
<title>Node5</title>
<g id="a_Node000005"><a xlink:href="class_task_a_p_i_1_1_controllers_1_1_logs_controller.html#a7b16dda3feb664234c4307c88b54dbc5" target="_top" xlink:title="Retrieves logs based on the provided criteria.">
<polygon fill="white" stroke="#666666" points="488.25,-32 362,-32 362,0 488.25,0 488.25,-32"/>
<text text-anchor="start" x="370" y="-18.5" font-family="Helvetica,sans-Serif" font-size="10.00">TaskAPI.Controllers.Logs</text>
<text text-anchor="middle" x="425.12" y="-6.5" font-family="Helvetica,sans-Serif" font-size="10.00">Controller.GetLogs</text>
</a>
</g>
</g>
<!-- Node1&#45;&gt;Node5 -->
<g id="edge4_Node000001_Node000005" class="edge">
<title>Node1&#45;&gt;Node5</title>
<g id="a_edge4_Node000001_Node000005"><a xlink:title=" ">
<path fill="none" stroke="#63b8ff" d="M520.92,-29.29C510.09,-27.78 499.15,-26.24 488.74,-24.78"/>
<polygon fill="#63b8ff" stroke="#63b8ff" points="520.24,-32.73 530.63,-30.66 521.22,-25.8 520.24,-32.73"/>
</a>
</g>
</g>
<!-- Node3 -->
<g id="Node000003" class="node">
<title>Node3</title>
<g id="a_Node000003"><a xlink:href="class_task_a_p_i_1_1_helpers_1_1_alert_helper.html#acddc980d442b4344a8d9df5ba056276a" target="_top" xlink:title="Processes a single API source for alert generation.">
<polygon fill="white" stroke="#666666" points="317.75,-82 175,-82 175,-50 317.75,-50 317.75,-82"/>
<text text-anchor="start" x="183" y="-68.5" font-family="Helvetica,sans-Serif" font-size="10.00">TaskAPI.Helpers.AlertHelper.</text>
<text text-anchor="middle" x="246.38" y="-56.5" font-family="Helvetica,sans-Serif" font-size="10.00">ProcessApiSource</text>
</a>
</g>
</g>
<!-- Node2&#45;&gt;Node3 -->
<g id="edge2_Node000002_Node000003" class="edge">
<title>Node2&#45;&gt;Node3</title>
<g id="a_edge2_Node000002_Node000003"><a xlink:title=" ">
<path fill="none" stroke="#63b8ff" d="M341.98,-66C333.96,-66 325.87,-66 317.98,-66"/>
<polygon fill="#63b8ff" stroke="#63b8ff" points="341.74,-69.5 351.74,-66 341.74,-62.5 341.74,-69.5"/>
</a>
</g>
</g>
<!-- Node4 -->
<g id="Node000004" class="node">
<title>Node4</title>
<g id="a_Node000004"><a xlink:href="class_task_a_p_i_1_1_controllers_1_1_logs_controller.html#aa1bbb95b5f70e8d5a457fdca962479e3" target="_top" xlink:title="Checks for alerts across all configured api sources.">
<polygon fill="white" stroke="#666666" points="139,-82 0,-82 0,-50 139,-50 139,-82"/>
<text text-anchor="start" x="8" y="-68.5" font-family="Helvetica,sans-Serif" font-size="10.00">TaskAPI.Controllers.Logs</text>
<text text-anchor="middle" x="69.5" y="-56.5" font-family="Helvetica,sans-Serif" font-size="10.00">Controller.CheckForAllAlerts</text>
</a>
</g>
</g>
<!-- Node3&#45;&gt;Node4 -->
<g id="edge3_Node000003_Node000004" class="edge">
<title>Node3&#45;&gt;Node4</title>
<g id="a_edge3_Node000003_Node000004"><a xlink:title=" ">
<path fill="none" stroke="#63b8ff" d="M163.45,-66C155.4,-66 147.3,-66 139.4,-66"/>
<polygon fill="#63b8ff" stroke="#63b8ff" points="163.24,-69.5 173.24,-66 163.24,-62.5 163.24,-69.5"/>
</a>
</g>
</g>
</g>
</svg>
