<?xml version="1.0" encoding="UTF-8" standalone="no"?>
<!DOCTYPE svg PUBLIC "-//W3C//DTD SVG 1.1//EN"
 "http://www.w3.org/Graphics/SVG/1.1/DTD/svg11.dtd">
<!-- Generated by graphviz version 9.0.0 (20230911.1827)
 -->
<!-- Title: TaskAPI.Models.LogEntry Pages: 1 -->
<svg width="131pt" height="140pt"
 viewBox="0.00 0.00 131.00 140.00" xmlns="http://www.w3.org/2000/svg" xmlns:xlink="http://www.w3.org/1999/xlink">
<g id="graph0" class="graph" transform="scale(1 1) rotate(0) translate(4 136)">
<title>TaskAPI.Models.LogEntry</title>
<!-- Node1 -->
<g id="Node000001" class="node">
<title>Node1</title>
<g id="a_Node000001"><a xlink:title=" ">
<polygon fill="#999999" stroke="none" points="123,-132 0,-132 0,0 123,0 123,-132"/>
<text text-anchor="start" x="4.88" y="-118.5" font-family="Helvetica,sans-Serif" font-size="10.00">TaskAPI.Models.LogEntry</text>
<text text-anchor="start" x="10.5" y="-102.5" font-family="Helvetica,sans-Serif" font-size="10.00">+</text>
<text text-anchor="start" x="27" y="-102.5" font-family="Helvetica,sans-Serif" font-size="10.00">int ID</text>
<text text-anchor="start" x="10.5" y="-86.5" font-family="Helvetica,sans-Serif" font-size="10.00">+</text>
<text text-anchor="start" x="27" y="-86.5" font-family="Helvetica,sans-Serif" font-size="10.00">DateTime Created</text>
<text text-anchor="start" x="10.5" y="-70.5" font-family="Helvetica,sans-Serif" font-size="10.00">+</text>
<text text-anchor="start" x="27" y="-70.5" font-family="Helvetica,sans-Serif" font-size="10.00">string Type</text>
<text text-anchor="start" x="10.5" y="-54.5" font-family="Helvetica,sans-Serif" font-size="10.00">+</text>
<text text-anchor="start" x="27" y="-54.5" font-family="Helvetica,sans-Serif" font-size="10.00">int ThreadID</text>
<text text-anchor="start" x="10.5" y="-38.5" font-family="Helvetica,sans-Serif" font-size="10.00">+</text>
<text text-anchor="start" x="27" y="-38.5" font-family="Helvetica,sans-Serif" font-size="10.00">string Source</text>
<text text-anchor="start" x="10.5" y="-22.5" font-family="Helvetica,sans-Serif" font-size="10.00">+</text>
<text text-anchor="start" x="27" y="-22.5" font-family="Helvetica,sans-Serif" font-size="10.00">string Data</text>
<text text-anchor="start" x="60" y="-6.5" font-family="Helvetica,sans-Serif" font-size="10.00"> </text>
<polygon fill="#666666" stroke="#666666" points="0,-114 0,-114 123,-114 123,-114 0,-114"/>
<polygon fill="#666666" stroke="#666666" points="0,-18 0,-18 25,-18 25,-18 0,-18"/>
<polygon fill="#666666" stroke="#666666" points="25,-18 25,-18 123,-18 123,-18 25,-18"/>
<polygon fill="none" stroke="#666666" points="0,0 0,-132 123,-132 123,0 0,0"/>
</a>
</g>
</g>
</g>
</svg>
