<?xml version="1.0" encoding="UTF-8" standalone="no"?>
<!DOCTYPE svg PUBLIC "-//W3C//DTD SVG 1.1//EN"
 "http://www.w3.org/Graphics/SVG/1.1/DTD/svg11.dtd">
<!-- Generated by graphviz version 9.0.0 (20230911.1827)
 -->
<!-- Title: TaskAPI.Helpers.Settings.TaskAPISettings.Sqlloggersettings Pages: 1 -->
<svg width="168pt" height="88pt"
 viewBox="0.00 0.00 168.00 88.00" xmlns="http://www.w3.org/2000/svg" xmlns:xlink="http://www.w3.org/1999/xlink">
<g id="graph0" class="graph" transform="scale(1 1) rotate(0) translate(4 84)">
<title>TaskAPI.Helpers.Settings.TaskAPISettings.Sqlloggersettings</title>
<!-- Node1 -->
<g id="Node000001" class="node">
<title>Node1</title>
<g id="a_Node000001"><a xlink:title=" ">
<polygon fill="#999999" stroke="none" points="160,-80 0,-80 0,0 160,0 160,-80"/>
<text text-anchor="start" x="4.62" y="-66.5" font-family="Helvetica,sans-Serif" font-size="10.00">TaskAPI.Helpers.Settings.</text>
<text text-anchor="start" x="4.62" y="-54.5" font-family="Helvetica,sans-Serif" font-size="10.00">TaskAPISettings.Sqlloggersettings</text>
<text text-anchor="start" x="18.5" y="-38.5" font-family="Helvetica,sans-Serif" font-size="10.00">+</text>
<text text-anchor="start" x="43" y="-38.5" font-family="Helvetica,sans-Serif" font-size="10.00">bool LogDebug</text>
<text text-anchor="start" x="18.5" y="-22.5" font-family="Helvetica,sans-Serif" font-size="10.00">+</text>
<text text-anchor="start" x="43" y="-22.5" font-family="Helvetica,sans-Serif" font-size="10.00">bool LogInformation</text>
<text text-anchor="start" x="78.5" y="-6.5" font-family="Helvetica,sans-Serif" font-size="10.00"> </text>
<polygon fill="#666666" stroke="#666666" points="0,-50 0,-50 160,-50 160,-50 0,-50"/>
<polygon fill="#666666" stroke="#666666" points="0,-18 0,-18 41,-18 41,-18 0,-18"/>
<polygon fill="#666666" stroke="#666666" points="41,-18 41,-18 160,-18 160,-18 41,-18"/>
<polygon fill="none" stroke="#666666" points="0,0 0,-80 160,-80 160,0 0,0"/>
</a>
</g>
</g>
</g>
</svg>
