<?xml version="1.0" encoding="UTF-8" standalone="no"?>
<!DOCTYPE svg PUBLIC "-//W3C//DTD SVG 1.1//EN"
 "http://www.w3.org/Graphics/SVG/1.1/DTD/svg11.dtd">
<!-- Generated by graphviz version 9.0.0 (20230911.1827)
 -->
<!-- Title: TaskAPI.Helpers.AlertHelper.FetchAndProcessLogs Pages: 1 -->
<svg width="878pt" height="115pt"
 viewBox="0.00 0.00 877.75 115.00" xmlns="http://www.w3.org/2000/svg" xmlns:xlink="http://www.w3.org/1999/xlink">
<g id="graph0" class="graph" transform="scale(1 1) rotate(0) translate(4 111)">
<title>TaskAPI.Helpers.AlertHelper.FetchAndProcessLogs</title>
<!-- Node1 -->
<g id="Node000001" class="node">
<title>Node1</title>
<g id="a_Node000001"><a xlink:title="Fetches and processes log entries for a given API source based on the specified configuration.">
<polygon fill="#999999" stroke="#666666" points="142.75,-82 0,-82 0,-50 142.75,-50 142.75,-82"/>
<text text-anchor="start" x="8" y="-68.5" font-family="Helvetica,sans-Serif" font-size="10.00">TaskAPI.Helpers.AlertHelper.</text>
<text text-anchor="middle" x="71.38" y="-56.5" font-family="Helvetica,sans-Serif" font-size="10.00">FetchAndProcessLogs</text>
</a>
</g>
</g>
<!-- Node2 -->
<g id="Node000002" class="node">
<title>Node2</title>
<g id="a_Node000002"><a xlink:href="class_task_a_p_i_1_1_services_1_1_log_service.html#a6fd34cc69d8b24f60a73f155365a9357" target="_top" xlink:title="Fetches log entries based on specified criteria from the database.">
<polygon fill="white" stroke="#666666" points="324.5,-107 178.75,-107 178.75,-75 324.5,-75 324.5,-107"/>
<text text-anchor="start" x="186.75" y="-93.5" font-family="Helvetica,sans-Serif" font-size="10.00">TaskAPI.Services.LogService.</text>
<text text-anchor="middle" x="251.62" y="-81.5" font-family="Helvetica,sans-Serif" font-size="10.00">FetchLogs</text>
</a>
</g>
</g>
<!-- Node1&#45;&gt;Node2 -->
<g id="edge1_Node000001_Node000002" class="edge">
<title>Node1&#45;&gt;Node2</title>
<g id="a_edge1_Node000001_Node000002"><a xlink:title=" ">
<path fill="none" stroke="#63b8ff" d="M143.08,-75.92C150.94,-77.02 159,-78.15 167.01,-79.27"/>
<polygon fill="#63b8ff" stroke="#63b8ff" points="166.36,-82.72 176.75,-80.64 167.34,-75.78 166.36,-82.72"/>
</a>
</g>
</g>
<!-- Node3 -->
<g id="Node000003" class="node">
<title>Node3</title>
<g id="a_Node000003"><a xlink:href="class_task_a_p_i_1_1_services_1_1_internal_a_p_i_service.html#a01d6e21d8a6368eb448cb401630cf033" target="_top" xlink:title="Retrieves unified logs from Internal API for a specified API source.">
<polygon fill="white" stroke="#666666" points="317.75,-57 185.5,-57 185.5,-25 317.75,-25 317.75,-57"/>
<text text-anchor="start" x="193.5" y="-43.5" font-family="Helvetica,sans-Serif" font-size="10.00">TaskAPI.Services.Internal</text>
<text text-anchor="middle" x="251.62" y="-31.5" font-family="Helvetica,sans-Serif" font-size="10.00">APIService.GetUnifiedLogs</text>
</a>
</g>
</g>
<!-- Node1&#45;&gt;Node3 -->
<g id="edge2_Node000001_Node000003" class="edge">
<title>Node1&#45;&gt;Node3</title>
<g id="a_edge2_Node000001_Node000003"><a xlink:title=" ">
<path fill="none" stroke="#63b8ff" d="M143.08,-56.08C153.29,-54.65 163.83,-53.17 174.15,-51.73"/>
<polygon fill="#63b8ff" stroke="#63b8ff" points="174.3,-55.24 183.72,-50.38 173.33,-48.31 174.3,-55.24"/>
</a>
</g>
</g>
<!-- Node4 -->
<g id="Node000004" class="node">
<title>Node4</title>
<g id="a_Node000004"><a xlink:href="class_task_a_p_i_1_1_services_1_1_log_service.html#a46dc9bf58bc9605c7e17dfee38b94354" target="_top" xlink:title="Logs an error message to the database.">
<polygon fill="white" stroke="#666666" points="506.25,-82 360.5,-82 360.5,-50 506.25,-50 506.25,-82"/>
<text text-anchor="start" x="368.5" y="-68.5" font-family="Helvetica,sans-Serif" font-size="10.00">TaskAPI.Services.LogService.</text>
<text text-anchor="middle" x="433.38" y="-56.5" font-family="Helvetica,sans-Serif" font-size="10.00">LogError</text>
</a>
</g>
</g>
<!-- Node3&#45;&gt;Node4 -->
<g id="edge3_Node000003_Node000004" class="edge">
<title>Node3&#45;&gt;Node4</title>
<g id="a_edge3_Node000003_Node000004"><a xlink:title=" ">
<path fill="none" stroke="#63b8ff" d="M318.03,-50.1C328.05,-51.49 338.52,-52.95 348.87,-54.39"/>
<polygon fill="#63b8ff" stroke="#63b8ff" points="348.15,-57.82 358.53,-55.73 349.11,-50.89 348.15,-57.82"/>
</a>
</g>
</g>
<!-- Node7 -->
<g id="Node000007" class="node">
<title>Node7</title>
<g id="a_Node000007"><a xlink:href="class_task_a_p_i_1_1_services_1_1_log_service.html#a78c9df658858fa3099eed69421423898" target="_top" xlink:title="Logs an exception to the database.">
<polygon fill="white" stroke="#666666" points="506.25,-32 360.5,-32 360.5,0 506.25,0 506.25,-32"/>
<text text-anchor="start" x="368.5" y="-18.5" font-family="Helvetica,sans-Serif" font-size="10.00">TaskAPI.Services.LogService.</text>
<text text-anchor="middle" x="433.38" y="-6.5" font-family="Helvetica,sans-Serif" font-size="10.00">LogException</text>
</a>
</g>
</g>
<!-- Node3&#45;&gt;Node7 -->
<g id="edge6_Node000003_Node000007" class="edge">
<title>Node3&#45;&gt;Node7</title>
<g id="a_edge6_Node000003_Node000007"><a xlink:title=" ">
<path fill="none" stroke="#63b8ff" d="M318.03,-31.9C328.05,-30.51 338.52,-29.05 348.87,-27.61"/>
<polygon fill="#63b8ff" stroke="#63b8ff" points="349.11,-31.11 358.53,-26.27 348.15,-24.18 349.11,-31.11"/>
</a>
</g>
</g>
<!-- Node5 -->
<g id="Node000005" class="node">
<title>Node5</title>
<g id="a_Node000005"><a xlink:href="class_task_a_p_i_1_1_services_1_1_log_service.html#a44f0fd9db1116257087ba59c836e22ea" target="_top" xlink:title="Directly inserts a log entry into the database.">
<polygon fill="white" stroke="#666666" points="688,-57 542.25,-57 542.25,-25 688,-25 688,-57"/>
<text text-anchor="start" x="550.25" y="-43.5" font-family="Helvetica,sans-Serif" font-size="10.00">TaskAPI.Services.LogService.</text>
<text text-anchor="middle" x="615.12" y="-31.5" font-family="Helvetica,sans-Serif" font-size="10.00">InsertLog</text>
</a>
</g>
</g>
<!-- Node4&#45;&gt;Node5 -->
<g id="edge4_Node000004_Node000005" class="edge">
<title>Node4&#45;&gt;Node5</title>
<g id="a_edge4_Node000004_Node000005"><a xlink:title=" ">
<path fill="none" stroke="#63b8ff" d="M506.71,-55.94C514.6,-54.84 522.68,-53.72 530.69,-52.6"/>
<polygon fill="#63b8ff" stroke="#63b8ff" points="531.02,-56.09 540.44,-51.25 530.05,-49.16 531.02,-56.09"/>
</a>
</g>
</g>
<!-- Node6 -->
<g id="Node000006" class="node">
<title>Node6</title>
<g id="a_Node000006"><a xlink:href="class_task_a_p_i_1_1_services_1_1_log_service.html#a20f6ab73ae5cc69273da4416da65f94d" target="_top" xlink:title="Writes a log entry to a local text file as a fallback or additional logging method.">
<polygon fill="white" stroke="#666666" points="869.75,-57 724,-57 724,-25 869.75,-25 869.75,-57"/>
<text text-anchor="start" x="732" y="-43.5" font-family="Helvetica,sans-Serif" font-size="10.00">TaskAPI.Services.LogService.</text>
<text text-anchor="middle" x="796.88" y="-31.5" font-family="Helvetica,sans-Serif" font-size="10.00">WriteLog</text>
</a>
</g>
</g>
<!-- Node5&#45;&gt;Node6 -->
<g id="edge5_Node000005_Node000006" class="edge">
<title>Node5&#45;&gt;Node6</title>
<g id="a_edge5_Node000005_Node000006"><a xlink:title=" ">
<path fill="none" stroke="#63b8ff" d="M688.46,-41C696.35,-41 704.43,-41 712.44,-41"/>
<polygon fill="#63b8ff" stroke="#63b8ff" points="712.18,-44.5 722.18,-41 712.18,-37.5 712.18,-44.5"/>
</a>
</g>
</g>
<!-- Node7&#45;&gt;Node5 -->
<g id="edge7_Node000007_Node000005" class="edge">
<title>Node7&#45;&gt;Node5</title>
<g id="a_edge7_Node000007_Node000005"><a xlink:title=" ">
<path fill="none" stroke="#63b8ff" d="M506.71,-26.06C514.6,-27.16 522.68,-28.28 530.69,-29.4"/>
<polygon fill="#63b8ff" stroke="#63b8ff" points="530.05,-32.84 540.44,-30.75 531.02,-25.91 530.05,-32.84"/>
</a>
</g>
</g>
</g>
</svg>
