<?xml version="1.0" encoding="UTF-8" standalone="no"?>
<!DOCTYPE svg PUBLIC "-//W3C//DTD SVG 1.1//EN"
 "http://www.w3.org/Graphics/SVG/1.1/DTD/svg11.dtd">
<!-- Generated by graphviz version 9.0.0 (20230911.1827)
 -->
<!-- Title: TaskAPI.Controllers.LogsController Pages: 1 -->
<!--zoomable 562 -->

<svg id="main" version="1.1" xmlns="http://www.w3.org/2000/svg" xmlns:xlink="http://www.w3.org/1999/xlink" xml:space="preserve" onload="init(evt)">
<style type="text/css"><![CDATA[
.node, .edge {opacity: 0.7;}
.node.selected, .edge.selected {opacity: 1;}
.edge:hover path { stroke: red; }
.edge:hover polygon { stroke: red; fill: red; }
]]></style>

<defs>
  <circle id="rim" cx="0" cy="0" r="7"/>
  <circle id="rim2" cx="0" cy="0" r="3.5"/>
  <g id="zoomPlus">
    <use xlink:href="#rim" fill="#404040"><set attributeName="fill" to="#808080" begin="zoomplus.mouseover" end="zoomplus.mouseout"/></use>
    <path d="M-4,0h8M0,-4v8" fill="none" stroke="white" stroke-width="1.5" pointer-events="none"/>
  </g>
  <g id="zoomMin">
    <use xlink:href="#rim" fill="#404040"><set attributeName="fill" to="#808080" begin="zoomminus.mouseover" end="zoomminus.mouseout"/></use>
    <path d="M-4,0h8" fill="none" stroke="white" stroke-width="1.5" pointer-events="none"/>
  </g>
  <g id="arrowUp" transform="translate(30 24)">
    <use xlink:href="#rim"/>
    <path pointer-events="none" fill="none" stroke="white" stroke-width="1.5" d="M0,-3.0v7 M-2.5,-0.5L0,-3.0L2.5,-0.5"/>
  </g>
  <g id="arrowRight" transform="rotate(90) translate(36 -43)">
    <use xlink:href="#rim"/>
    <path pointer-events="none" fill="none" stroke="white" stroke-width="1.5" d="M0,-3.0v7 M-2.5,-0.5L0,-3.0L2.5,-0.5"/>
  </g>
  <g id="arrowDown" transform="rotate(180) translate(-30 -48)">
    <use xlink:href="#rim"/>
    <path pointer-events="none" fill="none" stroke="white" stroke-width="1.5" d="M0,-3.0v7 M-2.5,-0.5L0,-3.0L2.5,-0.5"/>
  </g>
  <g id="arrowLeft" transform="rotate(270) translate(-36 17)">
    <use xlink:href="#rim"/>
    <path pointer-events="none" fill="none" stroke="white" stroke-width="1.5" d="M0,-3.0v7 M-2.5,-0.5L0,-3.0L2.5,-0.5"/>
  </g>
  <g id="resetDef">
    <use xlink:href="#rim2" fill="#404040"><set attributeName="fill" to="#808080" begin="reset.mouseover" end="reset.mouseout"/></use>
  </g>
</defs>
<script type="application/ecmascript">
var viewWidth = 1491;
var viewHeight = 562;
var sectionId = 'dynsection-1';
</script>
<script type="application/ecmascript" xlink:href="svg.min.js"/>
<svg id="graph" class="graph">
<g id="viewport">
<title>TaskAPI.Controllers.LogsController</title>
<!-- Node1 -->
<g id="Node000001" class="node">
<title>Node1</title>
<g id="a_Node000001"><a xlink:title="Controller for managing logs in TaskAPI.">
<polygon fill="#999999" stroke="#666666" points="1483.25,-220 1357,-220 1357,-188 1483.25,-188 1483.25,-220"/>
<text text-anchor="start" x="1365" y="-206.5" font-family="Helvetica,sans-Serif" font-size="10.00">TaskAPI.Controllers.Logs</text>
<text text-anchor="middle" x="1420.12" y="-194.5" font-family="Helvetica,sans-Serif" font-size="10.00">Controller</text>
</a>
</g>
</g>
<!-- Node2 -->
<g id="Node000002" class="node">
<title>Node2</title>
<g id="a_Node000002"><a xlink:title=" ">
<polygon fill="white" stroke="#666666" points="682.25,-514 602.5,-514 602.5,-494 682.25,-494 682.25,-514"/>
<text text-anchor="middle" x="642.38" y="-500.5" font-family="Helvetica,sans-Serif" font-size="10.00">ControllerBase</text>
</a>
</g>
</g>
<!-- Node2&#45;&gt;Node1 -->
<g id="edge1_Node000001_Node000002" class="edge">
<title>Node2&#45;&gt;Node1</title>
<g id="a_edge1_Node000001_Node000002"><a xlink:title=" ">
<path fill="none" stroke="#63b8ff" d="M694.1,-505.27C798.69,-507.24 1034.66,-508.05 1108.5,-478 1249.7,-420.54 1370.06,-270.34 1407.26,-220.41"/>
<polygon fill="#63b8ff" stroke="#63b8ff" points="694.2,-501.78 684.13,-505.07 694.06,-508.77 694.2,-501.78"/>
</a>
</g>
</g>
<!-- Node9 -->
<g id="Node000009" class="node">
<title>Node9</title>
<g id="a_Node000009"><a xlink:href="class_task_a_p_i_1_1_controllers_1_1_logs_controller.html" target="_top" xlink:title="Controller for managing logs in TaskAPI.">
<polygon fill="white" stroke="#666666" points="980.25,-390 854,-390 854,-358 980.25,-358 980.25,-390"/>
<text text-anchor="start" x="862" y="-376.5" font-family="Helvetica,sans-Serif" font-size="10.00">TaskAPI.Controllers.Logs</text>
<text text-anchor="middle" x="917.12" y="-364.5" font-family="Helvetica,sans-Serif" font-size="10.00">Controller</text>
</a>
</g>
</g>
<!-- Node2&#45;&gt;Node9 -->
<g id="edge17_Node000009_Node000002" class="edge">
<title>Node2&#45;&gt;Node9</title>
<g id="a_edge17_Node000009_Node000002"><a xlink:title=" ">
<path fill="none" stroke="#63b8ff" d="M682.88,-489.62C691.12,-486.52 699.74,-483.21 707.75,-480 765.32,-456.94 781.16,-453.97 836,-425 855.68,-414.6 876.89,-400.99 892.54,-390.44"/>
<polygon fill="#63b8ff" stroke="#63b8ff" points="681.9,-486.25 673.75,-493.01 684.34,-492.81 681.9,-486.25"/>
</a>
</g>
</g>
<!-- Node3 -->
<g id="Node000003" class="node">
<title>Node3</title>
<g id="a_Node000003"><a xlink:href="class_task_a_p_i_1_1_services_1_1_log_service.html" target="_top" xlink:title="Provides logging services for various levels of application events, including debug,...">
<polygon fill="white" stroke="#666666" points="488.5,-297 345.75,-297 345.75,-277 488.5,-277 488.5,-297"/>
<text text-anchor="middle" x="417.12" y="-283.5" font-family="Helvetica,sans-Serif" font-size="10.00">TaskAPI.Services.LogService</text>
</a>
</g>
</g>
<!-- Node3&#45;&gt;Node1 -->
<g id="edge2_Node000001_Node000003" class="edge">
<title>Node3&#45;&gt;Node1</title>
<g id="a_edge2_Node000001_Node000003"><a xlink:title=" ">
<path fill="none" stroke="#9a32cd" stroke-dasharray="5,2" d="M468.56,-272.19C475.66,-268.85 482.56,-264.82 488.5,-260 544.78,-214.32 520.63,-168.58 577,-123 651.99,-62.36 683.43,-46 779.88,-46 779.88,-46 779.88,-46 1197.38,-46 1294.28,-46 1378.18,-147.32 1407.77,-187.69"/>
<polygon fill="#9a32cd" stroke="#9a32cd" points="467.33,-268.91 459.48,-276.03 470.05,-275.36 467.33,-268.91"/>
</a>
</g>
<text text-anchor="middle" x="917.12" y="-48.5" font-family="Helvetica,sans-Serif" font-size="10.00" fill="grey"> _logService</text>
</g>
<!-- Node7 -->
<g id="Node000007" class="node">
<title>Node7</title>
<g id="a_Node000007"><a xlink:href="class_task_a_p_i_1_1_services_1_1_internal_a_p_i_service.html" target="_top" xlink:title="Provides a collection of services for interacting with internal API endpoints, including sending emai...">
<polygon fill="white" stroke="#666666" points="705.88,-266 578.88,-266 578.88,-234 705.88,-234 705.88,-266"/>
<text text-anchor="start" x="586.88" y="-252.5" font-family="Helvetica,sans-Serif" font-size="10.00">TaskAPI.Services.Internal</text>
<text text-anchor="middle" x="642.38" y="-240.5" font-family="Helvetica,sans-Serif" font-size="10.00">APIService</text>
</a>
</g>
</g>
<!-- Node3&#45;&gt;Node7 -->
<g id="edge7_Node000007_Node000003" class="edge">
<title>Node3&#45;&gt;Node7</title>
<g id="a_edge7_Node000007_Node000003"><a xlink:title=" ">
<path fill="none" stroke="#9a32cd" stroke-dasharray="5,2" d="M474.65,-274.15C485.21,-271.95 496.17,-269.8 506.5,-268 529.89,-263.93 555.7,-260.28 578.43,-257.35"/>
<polygon fill="#9a32cd" stroke="#9a32cd" points="473.94,-270.73 464.88,-276.23 475.39,-277.57 473.94,-270.73"/>
</a>
</g>
<text text-anchor="middle" x="532.75" y="-270.5" font-family="Helvetica,sans-Serif" font-size="10.00" fill="grey"> _logService</text>
</g>
<!-- Node8 -->
<g id="Node000008" class="node">
<title>Node8</title>
<g id="a_Node000008"><a xlink:href="class_task_a_p_i_1_1_helpers_1_1_alert_helper.html" target="_top" xlink:title="Helper class for processing alerts based on log entries.">
<polygon fill="white" stroke="#666666" points="1266.25,-312 1126.5,-312 1126.5,-292 1266.25,-292 1266.25,-312"/>
<text text-anchor="middle" x="1196.38" y="-298.5" font-family="Helvetica,sans-Serif" font-size="10.00">TaskAPI.Helpers.AlertHelper</text>
</a>
</g>
</g>
<!-- Node3&#45;&gt;Node8 -->
<g id="edge12_Node000008_Node000003" class="edge">
<title>Node3&#45;&gt;Node8</title>
<g id="a_edge12_Node000008_Node000003"><a xlink:title=" ">
<path fill="none" stroke="#9a32cd" stroke-dasharray="5,2" d="M500.23,-291.67C562.18,-294.97 649.27,-299.12 725.75,-301 846.83,-303.98 877.14,-301.78 998.25,-302 1040.69,-302.08 1088.26,-302.08 1126.04,-302.06"/>
<polygon fill="#9a32cd" stroke="#9a32cd" points="500.65,-288.19 490.47,-291.15 500.27,-295.18 500.65,-288.19"/>
</a>
</g>
<text text-anchor="middle" x="780.88" y="-304.5" font-family="Helvetica,sans-Serif" font-size="10.00" fill="grey"> _logService</text>
</g>
<!-- Node3&#45;&gt;Node9 -->
<g id="edge18_Node000009_Node000003" class="edge">
<title>Node3&#45;&gt;Node9</title>
<g id="a_edge18_Node000009_Node000003"><a xlink:title=" ">
<path fill="none" stroke="#9a32cd" stroke-dasharray="5,2" d="M470.43,-300.1C482.25,-302.87 494.78,-305.67 506.5,-308 628.89,-332.37 773.23,-353.98 853.76,-365.41"/>
<polygon fill="#9a32cd" stroke="#9a32cd" points="471.36,-296.72 460.82,-297.81 469.74,-303.53 471.36,-296.72"/>
</a>
</g>
<text text-anchor="middle" x="642.38" y="-345.5" font-family="Helvetica,sans-Serif" font-size="10.00" fill="grey"> _logService</text>
</g>
<!-- Node4 -->
<g id="Node000004" class="node">
<title>Node4</title>
<g id="a_Node000004"><a xlink:href="class_task_a_p_i_1_1_contexts_1_1_task_a_p_i_context.html" target="_top" xlink:title=" ">
<polygon fill="white" stroke="#666666" points="267,-451 98.75,-451 98.75,-431 267,-431 267,-451"/>
<text text-anchor="middle" x="182.88" y="-437.5" font-family="Helvetica,sans-Serif" font-size="10.00">TaskAPI.Contexts.TaskAPIContext</text>
</a>
</g>
</g>
<!-- Node4&#45;&gt;Node1 -->
<g id="edge10_Node000001_Node000004" class="edge">
<title>Node4&#45;&gt;Node1</title>
<g id="a_edge10_Node000001_Node000004"><a xlink:title=" ">
<path fill="none" stroke="#9a32cd" stroke-dasharray="5,2" d="M206.21,-458.14C246.05,-486.96 333.03,-542 416.12,-542 416.12,-542 416.12,-542 1197.38,-542 1353.18,-542 1405.52,-287.82 1416.67,-220.3"/>
<polygon fill="#9a32cd" stroke="#9a32cd" points="208.46,-455.46 198.34,-452.33 204.3,-461.09 208.46,-455.46"/>
</a>
</g>
<text text-anchor="middle" x="780.88" y="-544.5" font-family="Helvetica,sans-Serif" font-size="10.00" fill="grey"> _context</text>
</g>
<!-- Node4&#45;&gt;Node3 -->
<g id="edge3_Node000003_Node000004" class="edge">
<title>Node4&#45;&gt;Node3</title>
<g id="a_edge3_Node000003_Node000004"><a xlink:title=" ">
<path fill="none" stroke="#9a32cd" stroke-dasharray="5,2" d="M208.84,-424.44C256.94,-392.55 361.17,-323.44 400.59,-297.3"/>
<polygon fill="#9a32cd" stroke="#9a32cd" points="207.14,-421.38 200.74,-429.82 211,-427.21 207.14,-421.38"/>
</a>
</g>
<text text-anchor="middle" x="306.38" y="-375.5" font-family="Helvetica,sans-Serif" font-size="10.00" fill="grey"> _context</text>
</g>
<!-- Node4&#45;&gt;Node8 -->
<g id="edge15_Node000008_Node000004" class="edge">
<title>Node4&#45;&gt;Node8</title>
<g id="a_edge15_Node000008_Node000004"><a xlink:title=" ">
<path fill="none" stroke="#9a32cd" stroke-dasharray="5,2" d="M264.67,-452.95C309.23,-458.55 365.62,-464 416.12,-464 416.12,-464 416.12,-464 918.12,-464 1007.53,-464 1037.17,-452.9 1108.5,-399 1119.71,-390.53 1117.58,-383.86 1126.5,-373 1145.47,-349.91 1170.47,-325.41 1184.54,-312.08"/>
<polygon fill="#9a32cd" stroke="#9a32cd" points="265.18,-449.49 254.81,-451.68 264.29,-456.43 265.18,-449.49"/>
</a>
</g>
<text text-anchor="middle" x="642.38" y="-466.5" font-family="Helvetica,sans-Serif" font-size="10.00" fill="grey"> _context</text>
</g>
<!-- Node4&#45;&gt;Node9 -->
<g id="edge21_Node000009_Node000004" class="edge">
<title>Node4&#45;&gt;Node9</title>
<g id="a_edge21_Node000009_Node000004"><a xlink:title=" ">
<path fill="none" stroke="#9a32cd" stroke-dasharray="5,2" d="M278.51,-439.29C405.92,-435.83 639.33,-425.39 836,-394 842.09,-393.03 848.39,-391.82 854.67,-390.48"/>
<polygon fill="#9a32cd" stroke="#9a32cd" points="278.69,-435.79 268.78,-439.55 278.87,-442.78 278.69,-435.79"/>
</a>
</g>
<text text-anchor="middle" x="532.75" y="-430.5" font-family="Helvetica,sans-Serif" font-size="10.00" fill="grey"> _context</text>
</g>
<!-- Node5 -->
<g id="Node000005" class="node">
<title>Node5</title>
<g id="a_Node000005"><a xlink:title=" ">
<polygon fill="white" stroke="#666666" points="61.75,-451 0,-451 0,-431 61.75,-431 61.75,-451"/>
<text text-anchor="middle" x="30.88" y="-437.5" font-family="Helvetica,sans-Serif" font-size="10.00">DbContext</text>
</a>
</g>
</g>
<!-- Node5&#45;&gt;Node4 -->
<g id="edge4_Node000004_Node000005" class="edge">
<title>Node5&#45;&gt;Node4</title>
<g id="a_edge4_Node000004_Node000005"><a xlink:title=" ">
<path fill="none" stroke="#63b8ff" d="M73.6,-441C81.44,-441 89.89,-441 98.48,-441"/>
<polygon fill="#63b8ff" stroke="#63b8ff" points="73.74,-437.5 63.74,-441 73.74,-444.5 73.74,-437.5"/>
</a>
</g>
</g>
<!-- Node6 -->
<g id="Node000006" class="node">
<title>Node6</title>
<g id="a_Node000006"><a xlink:href="class_task_a_p_i_1_1_helpers_1_1_settings_1_1_task_a_p_i_settings.html" target="_top" xlink:title=" ">
<polygon fill="white" stroke="#666666" points="248.25,-250 117.5,-250 117.5,-218 248.25,-218 248.25,-250"/>
<text text-anchor="start" x="125.5" y="-236.5" font-family="Helvetica,sans-Serif" font-size="10.00">TaskAPI.Helpers.Settings.</text>
<text text-anchor="middle" x="182.88" y="-224.5" font-family="Helvetica,sans-Serif" font-size="10.00">TaskAPISettings</text>
</a>
</g>
</g>
<!-- Node6&#45;&gt;Node1 -->
<g id="edge9_Node000001_Node000006" class="edge">
<title>Node6&#45;&gt;Node1</title>
<g id="a_edge9_Node000001_Node000006"><a xlink:title=" ">
<path fill="none" stroke="#9a32cd" stroke-dasharray="5,2" d="M195.11,-207.09C222.8,-145.59 300.54,0 416.12,0 416.12,0 416.12,0 1197.38,0 1267.39,0 1287.9,-21.13 1339,-69 1376.39,-104.03 1402.08,-160.42 1413.08,-187.9"/>
<polygon fill="#9a32cd" stroke="#9a32cd" points="191.95,-205.6 191.14,-216.16 198.36,-208.41 191.95,-205.6"/>
</a>
</g>
<text text-anchor="middle" x="780.88" y="-2.5" font-family="Helvetica,sans-Serif" font-size="10.00" fill="grey"> _settings</text>
</g>
<!-- Node6&#45;&gt;Node3 -->
<g id="edge5_Node000003_Node000006" class="edge">
<title>Node6&#45;&gt;Node3</title>
<g id="a_edge5_Node000003_Node000006"><a xlink:title=" ">
<path fill="none" stroke="#9a32cd" stroke-dasharray="5,2" d="M259.67,-251.3C296.14,-259.62 338.67,-269.32 370.17,-276.51"/>
<polygon fill="#9a32cd" stroke="#9a32cd" points="260.57,-247.91 250.05,-249.1 259.02,-254.74 260.57,-247.91"/>
</a>
</g>
<text text-anchor="middle" x="306.38" y="-268.5" font-family="Helvetica,sans-Serif" font-size="10.00" fill="grey"> _settings</text>
</g>
<!-- Node6&#45;&gt;Node7 -->
<g id="edge8_Node000007_Node000006" class="edge">
<title>Node6&#45;&gt;Node7</title>
<g id="a_edge8_Node000007_Node000006"><a xlink:title=" ">
<path fill="none" stroke="#9a32cd" stroke-dasharray="5,2" d="M259.85,-236.66C349.09,-239.78 495.49,-244.9 578.59,-247.8"/>
<polygon fill="#9a32cd" stroke="#9a32cd" points="260.08,-233.16 249.97,-236.31 259.84,-240.16 260.08,-233.16"/>
</a>
</g>
<text text-anchor="middle" x="417.12" y="-246.5" font-family="Helvetica,sans-Serif" font-size="10.00" fill="grey"> _settings</text>
</g>
<!-- Node6&#45;&gt;Node8 -->
<g id="edge14_Node000008_Node000006" class="edge">
<title>Node6&#45;&gt;Node8</title>
<g id="a_edge14_Node000008_Node000006"><a xlink:title=" ">
<path fill="none" stroke="#9a32cd" stroke-dasharray="5,2" d="M242.29,-214.06C318.3,-189.26 455.73,-148.33 577,-133 729.97,-113.66 1085.92,-150.37 1108.5,-164 1158.43,-194.14 1184.26,-265.13 1192.44,-291.71"/>
<polygon fill="#9a32cd" stroke="#9a32cd" points="241.38,-210.67 232.97,-217.12 243.57,-217.32 241.38,-210.67"/>
</a>
</g>
<text text-anchor="middle" x="642.38" y="-135.5" font-family="Helvetica,sans-Serif" font-size="10.00" fill="grey"> _settings</text>
</g>
<!-- Node6&#45;&gt;Node9 -->
<g id="edge20_Node000009_Node000006" class="edge">
<title>Node6&#45;&gt;Node9</title>
<g id="a_edge20_Node000009_Node000006"><a xlink:title=" ">
<path fill="none" stroke="#9a32cd" stroke-dasharray="5,2" d="M195.36,-260.75C210.63,-292.49 240.91,-343.89 285,-366 383.13,-415.22 714.3,-392.29 853.58,-380"/>
<polygon fill="#9a32cd" stroke="#9a32cd" points="198.6,-259.41 191.22,-251.8 192.24,-262.35 198.6,-259.41"/>
</a>
</g>
<text text-anchor="middle" x="532.75" y="-398.5" font-family="Helvetica,sans-Serif" font-size="10.00" fill="grey"> _settings</text>
</g>
<!-- Node7&#45;&gt;Node1 -->
<g id="edge6_Node000001_Node000007" class="edge">
<title>Node7&#45;&gt;Node1</title>
<g id="a_edge6_Node000001_Node000007"><a xlink:title=" ">
<path fill="none" stroke="#9a32cd" stroke-dasharray="5,2" d="M678.35,-228.19C692.51,-220.56 709.37,-212.91 725.75,-209 786.01,-194.6 1197.78,-200.13 1356.72,-202.84"/>
<polygon fill="#9a32cd" stroke="#9a32cd" points="676.88,-225 669.88,-232.96 680.31,-231.11 676.88,-225"/>
</a>
</g>
<text text-anchor="middle" x="1053.38" y="-201.5" font-family="Helvetica,sans-Serif" font-size="10.00" fill="grey"> _iapiService</text>
</g>
<!-- Node7&#45;&gt;Node8 -->
<g id="edge13_Node000008_Node000007" class="edge">
<title>Node7&#45;&gt;Node8</title>
<g id="a_edge13_Node000008_Node000007"><a xlink:title=" ">
<path fill="none" stroke="#9a32cd" stroke-dasharray="5,2" d="M717.52,-256.98C824.77,-267.09 1021.75,-285.64 1126.17,-295.48"/>
<polygon fill="#9a32cd" stroke="#9a32cd" points="717.95,-253.51 707.67,-256.06 717.29,-260.48 717.95,-253.51"/>
</a>
</g>
<text text-anchor="middle" x="917.12" y="-283.5" font-family="Helvetica,sans-Serif" font-size="10.00" fill="grey"> _iapiService</text>
</g>
<!-- Node7&#45;&gt;Node9 -->
<g id="edge19_Node000009_Node000007" class="edge">
<title>Node7&#45;&gt;Node9</title>
<g id="a_edge19_Node000009_Node000007"><a xlink:title=" ">
<path fill="none" stroke="#9a32cd" stroke-dasharray="5,2" d="M717.37,-264.45C770.52,-274.92 833.27,-287.48 836,-289 866.31,-305.85 891.88,-338.11 905.52,-357.68"/>
<polygon fill="#9a32cd" stroke="#9a32cd" points="718.18,-261.04 707.69,-262.55 716.83,-267.91 718.18,-261.04"/>
</a>
</g>
<text text-anchor="middle" x="780.88" y="-291.5" font-family="Helvetica,sans-Serif" font-size="10.00" fill="grey"> _iapiService</text>
</g>
<!-- Node8&#45;&gt;Node1 -->
<g id="edge11_Node000001_Node000008" class="edge">
<title>Node8&#45;&gt;Node1</title>
<g id="a_edge11_Node000001_Node000008"><a xlink:title=" ">
<path fill="none" stroke="#9a32cd" stroke-dasharray="5,2" d="M1231.58,-286.88C1272.29,-268.89 1340.01,-238.96 1381.97,-220.42"/>
<polygon fill="#9a32cd" stroke="#9a32cd" points="1230.22,-283.66 1222.49,-290.9 1233.05,-290.06 1230.22,-283.66"/>
</a>
</g>
<text text-anchor="middle" x="1311.62" y="-263.5" font-family="Helvetica,sans-Serif" font-size="10.00" fill="grey"> _alertHelper</text>
</g>
<!-- Node8&#45;&gt;Node9 -->
<g id="edge22_Node000009_Node000008" class="edge">
<title>Node8&#45;&gt;Node9</title>
<g id="a_edge22_Node000009_Node000008"><a xlink:title=" ">
<path fill="none" stroke="#9a32cd" stroke-dasharray="5,2" d="M1160.37,-316.47C1144.71,-322.53 1125.89,-329.26 1108.5,-334 1060.45,-347.1 1046.93,-343.52 998.25,-354 992.5,-355.24 986.54,-356.59 980.58,-357.99"/>
<polygon fill="#9a32cd" stroke="#9a32cd" points="1161.23,-319.89 1169.25,-312.97 1158.66,-313.38 1161.23,-319.89"/>
</a>
</g>
<text text-anchor="middle" x="1053.38" y="-356.5" font-family="Helvetica,sans-Serif" font-size="10.00" fill="grey"> _alertHelper</text>
</g>
<!-- Node9&#45;&gt;Node8 -->
<g id="edge16_Node000008_Node000009" class="edge">
<title>Node9&#45;&gt;Node8</title>
<g id="a_edge16_Node000008_Node000009"><a xlink:title=" ">
<path fill="none" stroke="#9a32cd" stroke-dasharray="5,2" d="M991.8,-382.57C1027.94,-384.18 1071.54,-382.14 1108.5,-369 1141.34,-357.32 1171.62,-328.1 1186.22,-312.39"/>
<polygon fill="#9a32cd" stroke="#9a32cd" points="992.03,-379.08 981.85,-382.02 991.64,-386.07 992.03,-379.08"/>
</a>
</g>
<text text-anchor="middle" x="1053.38" y="-385.5" font-family="Helvetica,sans-Serif" font-size="10.00" fill="grey"> _logsController</text>
</g>
<!-- Node10 -->
<g id="Node000010" class="node">
<title>Node10</title>
<g id="a_Node000010"><a xlink:href="class_task_a_p_i_1_1_helpers_1_1_settings_1_1_log_notifications_settings.html" target="_top" xlink:title=" ">
<polygon fill="white" stroke="#666666" points="707.75,-186 577,-186 577,-154 707.75,-154 707.75,-186"/>
<text text-anchor="start" x="585" y="-172.5" font-family="Helvetica,sans-Serif" font-size="10.00">TaskAPI.Helpers.Settings.</text>
<text text-anchor="middle" x="642.38" y="-160.5" font-family="Helvetica,sans-Serif" font-size="10.00">LogNotificationsSettings</text>
</a>
</g>
</g>
<!-- Node10&#45;&gt;Node1 -->
<g id="edge25_Node000001_Node000010" class="edge">
<title>Node10&#45;&gt;Node1</title>
<g id="a_edge25_Node000001_Node000010"><a xlink:title=" ">
<path fill="none" stroke="#9a32cd" stroke-dasharray="5,2" d="M719.51,-169.04C721.61,-169.03 723.69,-169.01 725.75,-169 774.75,-168.7 787,-168.91 836,-169 1059.75,-169.41 1117.13,-161.05 1339,-190 1344.74,-190.75 1350.7,-191.62 1356.66,-192.55"/>
<polygon fill="#9a32cd" stroke="#9a32cd" points="719.61,-165.54 709.64,-169.13 719.67,-172.54 719.61,-165.54"/>
</a>
</g>
<text text-anchor="middle" x="1053.38" y="-171.5" font-family="Helvetica,sans-Serif" font-size="10.00" fill="grey"> _logNotificationsSettings</text>
</g>
<!-- Node10&#45;&gt;Node8 -->
<g id="edge24_Node000008_Node000010" class="edge">
<title>Node10&#45;&gt;Node8</title>
<g id="a_edge24_Node000008_Node000010"><a xlink:title=" ">
<path fill="none" stroke="#9a32cd" stroke-dasharray="5,2" d="M719.4,-173.34C755.06,-175.87 797.98,-180.29 836,-188 963.98,-213.97 1110.74,-268.69 1169.29,-291.59"/>
<polygon fill="#9a32cd" stroke="#9a32cd" points="719.81,-169.86 709.6,-172.69 719.34,-176.85 719.81,-169.86"/>
</a>
</g>
<text text-anchor="middle" x="917.12" y="-225.5" font-family="Helvetica,sans-Serif" font-size="10.00" fill="grey"> _logNotificationsSettings</text>
</g>
<!-- Node10&#45;&gt;Node9 -->
<g id="edge23_Node000009_Node000010" class="edge">
<title>Node10&#45;&gt;Node9</title>
<g id="a_edge23_Node000009_Node000010"><a xlink:title=" ">
<path fill="none" stroke="#9a32cd" stroke-dasharray="5,2" d="M718.55,-189.54C756.72,-202.19 802.07,-221.69 836,-250 845.59,-258.01 887.06,-325.76 906.28,-357.6"/>
<polygon fill="#9a32cd" stroke="#9a32cd" points="720.02,-186.33 709.43,-186.61 717.88,-193 720.02,-186.33"/>
</a>
</g>
<text text-anchor="middle" x="780.88" y="-252.5" font-family="Helvetica,sans-Serif" font-size="10.00" fill="grey"> _logNotificationsSettings</text>
</g>
</g>
</svg>

<g id="navigator" transform="translate(0 0)" fill="#404254">
  <rect fill="#f2f5e9" fill-opacity="0.5" stroke="#606060" stroke-width=".5" x="0" y="0" width="60" height="60"/>
  <use id="zoomplus" xlink:href="#zoomPlus" x="17" y="9" onmousedown="handleZoom(evt,'in')"/>
  <use id="zoomminus" xlink:href="#zoomMin" x="42" y="9" onmousedown="handleZoom(evt,'out')"/>
  <use id="reset" xlink:href="#resetDef" x="30" y="36" onmousedown="handleReset()"/>
   <use id="arrowup" xlink:href="#arrowUp" x="0" y="0" onmousedown="handlePan(0,-1)"/>
  <use id="arrowright" xlink:href="#arrowRight" x="0" y="0" onmousedown="handlePan(1,0)"/>
  <use id="arrowdown" xlink:href="#arrowDown" x="0" y="0" onmousedown="handlePan(0,1)"/>
  <use id="arrowleft" xlink:href="#arrowLeft" x="0" y="0" onmousedown="handlePan(-1,0)"/>
</g>
<svg viewBox="0 0 15 15" width="100%" height="30px" preserveAspectRatio="xMaxYMin meet">
 <g id="arrow_out" transform="scale(0.3 0.3)">
  <a xlink:href="class_task_a_p_i_1_1_controllers_1_1_logs_controller__coll__graph_org.svg" target="_base">
   <rect id="button" ry="5" rx="5" y="6" x="6" height="38" width="38"
        fill="#f2f5e9" fill-opacity="0.5" stroke="#606060" stroke-width="1.0"/>
   <path id="arrow"
     d="M 11.500037,31.436501 C 11.940474,20.09759 22.043105,11.32322 32.158766,21.979434 L 37.068811,17.246167 C 37.068811,17.246167 37.088388,32 37.088388,32 L 22.160133,31.978069 C 22.160133,31.978069 26.997745,27.140456 26.997745,27.140456 C 18.528582,18.264221 13.291696,25.230495 11.500037,31.436501 z"
     style="fill:#404040;"/>
  </a>
 </g>
</svg>

<style type='text/css'>
<![CDATA[
[data-mouse-over-selected='false'] { opacity: 0.7; }
[data-mouse-over-selected='true']  { opacity: 1.0; }
]]>
</style>
<script type="application/ecmascript"><![CDATA[
document.addEventListener('DOMContentLoaded', (event) => {
  highlightEdges();
  highlightAdjacentNodes();
});
]]></script>
</svg>
