<?xml version="1.0" encoding="UTF-8" standalone="no"?>
<!DOCTYPE svg PUBLIC "-//W3C//DTD SVG 1.1//EN"
 "http://www.w3.org/Graphics/SVG/1.1/DTD/svg11.dtd">
<!-- Generated by graphviz version 9.0.0 (20230911.1827)
 -->
<!-- Title: TaskAPI.Models.DTO.BinanceResponse.Asset Pages: 1 -->
<svg width="150pt" height="88pt"
 viewBox="0.00 0.00 150.00 88.00" xmlns="http://www.w3.org/2000/svg" xmlns:xlink="http://www.w3.org/1999/xlink">
<g id="graph0" class="graph" transform="scale(1 1) rotate(0) translate(4 84)">
<title>TaskAPI.Models.DTO.BinanceResponse.Asset</title>
<!-- Node1 -->
<g id="Node000001" class="node">
<title>Node1</title>
<g id="a_Node000001"><a xlink:title=" ">
<polygon fill="#999999" stroke="none" points="142,-80 0,-80 0,0 142,0 142,-80"/>
<text text-anchor="start" x="5" y="-66.5" font-family="Helvetica,sans-Serif" font-size="10.00">TaskAPI.Models.DTO.Binance</text>
<text text-anchor="start" x="35" y="-54.5" font-family="Helvetica,sans-Serif" font-size="10.00">Response.Asset</text>
<text text-anchor="start" x="20.5" y="-38.5" font-family="Helvetica,sans-Serif" font-size="10.00">+</text>
<text text-anchor="start" x="47" y="-38.5" font-family="Helvetica,sans-Serif" font-size="10.00">string symbol</text>
<text text-anchor="start" x="20.5" y="-22.5" font-family="Helvetica,sans-Serif" font-size="10.00">+</text>
<text text-anchor="start" x="47" y="-22.5" font-family="Helvetica,sans-Serif" font-size="10.00">string price</text>
<text text-anchor="start" x="69.5" y="-6.5" font-family="Helvetica,sans-Serif" font-size="10.00"> </text>
<polygon fill="#666666" stroke="#666666" points="0,-50 0,-50 142,-50 142,-50 0,-50"/>
<polygon fill="#666666" stroke="#666666" points="0,-18 0,-18 45,-18 45,-18 0,-18"/>
<polygon fill="#666666" stroke="#666666" points="45,-18 45,-18 142,-18 142,-18 45,-18"/>
<polygon fill="none" stroke="#666666" points="0,0 0,-80 142,-80 142,0 0,0"/>
</a>
</g>
</g>
</g>
</svg>
