<?xml version="1.0" encoding="UTF-8" standalone="no"?>
<!DOCTYPE svg PUBLIC "-//W3C//DTD SVG 1.1//EN"
 "http://www.w3.org/Graphics/SVG/1.1/DTD/svg11.dtd">
<!-- Generated by graphviz version 9.0.0 (20230911.1827)
 -->
<!-- Title: TaskAPI.Controllers.LogsController.CheckForAllAlerts Pages: 1 -->
<svg width="1234pt" height="302pt"
 viewBox="0.00 0.00 1233.75 302.22" xmlns="http://www.w3.org/2000/svg" xmlns:xlink="http://www.w3.org/1999/xlink">
<g id="graph0" class="graph" transform="scale(1 1) rotate(0) translate(4 298.22)">
<title>TaskAPI.Controllers.LogsController.CheckForAllAlerts</title>
<!-- Node1 -->
<g id="Node000001" class="node">
<title>Node1</title>
<g id="a_Node000001"><a xlink:title="Checks for alerts across all configured api sources.">
<polygon fill="#999999" stroke="#666666" points="139,-106.22 0,-106.22 0,-74.22 139,-74.22 139,-106.22"/>
<text text-anchor="start" x="8" y="-92.72" font-family="Helvetica,sans-Serif" font-size="10.00">TaskAPI.Controllers.Logs</text>
<text text-anchor="middle" x="69.5" y="-80.72" font-family="Helvetica,sans-Serif" font-size="10.00">Controller.CheckForAllAlerts</text>
</a>
</g>
</g>
<!-- Node2 -->
<g id="Node000002" class="node">
<title>Node2</title>
<g id="a_Node000002"><a xlink:href="class_task_a_p_i_1_1_services_1_1_log_service.html#a78c9df658858fa3099eed69421423898" target="_top" xlink:title="Logs an exception to the database.">
<polygon fill="white" stroke="#666666" points="862.25,-81.22 716.5,-81.22 716.5,-49.22 862.25,-49.22 862.25,-81.22"/>
<text text-anchor="start" x="724.5" y="-67.72" font-family="Helvetica,sans-Serif" font-size="10.00">TaskAPI.Services.LogService.</text>
<text text-anchor="middle" x="789.38" y="-55.72" font-family="Helvetica,sans-Serif" font-size="10.00">LogException</text>
</a>
</g>
</g>
<!-- Node1&#45;&gt;Node2 -->
<g id="edge1_Node000001_Node000002" class="edge">
<title>Node1&#45;&gt;Node2</title>
<g id="a_edge1_Node000001_Node000002"><a xlink:title=" ">
<path fill="none" stroke="#63b8ff" d="M117.31,-73.79C220.2,-40 473.41,30.44 680.5,-15.22 705.39,-20.71 731.37,-32.53 751.59,-43.31"/>
<polygon fill="#63b8ff" stroke="#63b8ff" points="749.83,-46.33 760.28,-48.08 753.2,-40.2 749.83,-46.33"/>
</a>
</g>
</g>
<!-- Node5 -->
<g id="Node000005" class="node">
<title>Node5</title>
<g id="a_Node000005"><a xlink:href="class_task_a_p_i_1_1_helpers_1_1_alert_helper.html#acddc980d442b4344a8d9df5ba056276a" target="_top" xlink:title="Processes a single API source for alert generation.">
<polygon fill="white" stroke="#666666" points="317.75,-200.22 175,-200.22 175,-168.22 317.75,-168.22 317.75,-200.22"/>
<text text-anchor="start" x="183" y="-186.72" font-family="Helvetica,sans-Serif" font-size="10.00">TaskAPI.Helpers.AlertHelper.</text>
<text text-anchor="middle" x="246.38" y="-174.72" font-family="Helvetica,sans-Serif" font-size="10.00">ProcessApiSource</text>
</a>
</g>
</g>
<!-- Node1&#45;&gt;Node5 -->
<g id="edge4_Node000001_Node000005" class="edge">
<title>Node1&#45;&gt;Node5</title>
<g id="a_edge4_Node000001_Node000005"><a xlink:title=" ">
<path fill="none" stroke="#63b8ff" d="M100.96,-106.59C129.84,-122.11 173.39,-145.53 205.12,-162.58"/>
<polygon fill="#63b8ff" stroke="#63b8ff" points="203.17,-165.51 213.64,-167.16 206.49,-159.34 203.17,-165.51"/>
</a>
</g>
</g>
<!-- Node3 -->
<g id="Node000003" class="node">
<title>Node3</title>
<g id="a_Node000003"><a xlink:href="class_task_a_p_i_1_1_services_1_1_log_service.html#a44f0fd9db1116257087ba59c836e22ea" target="_top" xlink:title="Directly inserts a log entry into the database.">
<polygon fill="white" stroke="#666666" points="1044,-156.22 898.25,-156.22 898.25,-124.22 1044,-124.22 1044,-156.22"/>
<text text-anchor="start" x="906.25" y="-142.72" font-family="Helvetica,sans-Serif" font-size="10.00">TaskAPI.Services.LogService.</text>
<text text-anchor="middle" x="971.12" y="-130.72" font-family="Helvetica,sans-Serif" font-size="10.00">InsertLog</text>
</a>
</g>
</g>
<!-- Node2&#45;&gt;Node3 -->
<g id="edge2_Node000002_Node000003" class="edge">
<title>Node2&#45;&gt;Node3</title>
<g id="a_edge2_Node000002_Node000003"><a xlink:title=" ">
<path fill="none" stroke="#63b8ff" d="M829.82,-81.68C856.4,-92.77 891.67,-107.48 920.2,-119.39"/>
<polygon fill="#63b8ff" stroke="#63b8ff" points="918.8,-122.59 929.37,-123.21 921.49,-116.13 918.8,-122.59"/>
</a>
</g>
</g>
<!-- Node4 -->
<g id="Node000004" class="node">
<title>Node4</title>
<g id="a_Node000004"><a xlink:href="class_task_a_p_i_1_1_services_1_1_log_service.html#a20f6ab73ae5cc69273da4416da65f94d" target="_top" xlink:title="Writes a log entry to a local text file as a fallback or additional logging method.">
<polygon fill="white" stroke="#666666" points="1225.75,-156.22 1080,-156.22 1080,-124.22 1225.75,-124.22 1225.75,-156.22"/>
<text text-anchor="start" x="1088" y="-142.72" font-family="Helvetica,sans-Serif" font-size="10.00">TaskAPI.Services.LogService.</text>
<text text-anchor="middle" x="1152.88" y="-130.72" font-family="Helvetica,sans-Serif" font-size="10.00">WriteLog</text>
</a>
</g>
</g>
<!-- Node3&#45;&gt;Node4 -->
<g id="edge3_Node000003_Node000004" class="edge">
<title>Node3&#45;&gt;Node4</title>
<g id="a_edge3_Node000003_Node000004"><a xlink:title=" ">
<path fill="none" stroke="#63b8ff" d="M1044.46,-140.22C1052.35,-140.22 1060.43,-140.22 1068.44,-140.22"/>
<polygon fill="#63b8ff" stroke="#63b8ff" points="1068.18,-143.72 1078.18,-140.22 1068.18,-136.72 1068.18,-143.72"/>
</a>
</g>
</g>
<!-- Node6 -->
<g id="Node000006" class="node">
<title>Node6</title>
<g id="a_Node000006"><a xlink:href="class_task_a_p_i_1_1_helpers_1_1_alert_helper.html#a8ee2d4a6c728bc688207f3e0f777b03f" target="_top" xlink:title="Analyses a list of log entries against specified thresholds to determine if alerts should be generate...">
<polygon fill="white" stroke="#666666" points="498.75,-250.22 353.75,-250.22 353.75,-218.22 498.75,-218.22 498.75,-250.22"/>
<text text-anchor="start" x="361.75" y="-236.72" font-family="Helvetica,sans-Serif" font-size="10.00">TaskAPI.Helpers.AlertHelper.</text>
<text text-anchor="middle" x="426.25" y="-224.72" font-family="Helvetica,sans-Serif" font-size="10.00">CheckLogsAgainstThresholds</text>
</a>
</g>
</g>
<!-- Node5&#45;&gt;Node6 -->
<g id="edge5_Node000005_Node000006" class="edge">
<title>Node5&#45;&gt;Node6</title>
<g id="a_edge5_Node000005_Node000006"><a xlink:title=" ">
<path fill="none" stroke="#63b8ff" d="M305.62,-200.59C321.66,-205.1 339.22,-210.04 355.82,-214.7"/>
<polygon fill="#63b8ff" stroke="#63b8ff" points="354.54,-217.98 365.11,-217.31 356.44,-211.24 354.54,-217.98"/>
</a>
</g>
</g>
<!-- Node7 -->
<g id="Node000007" class="node">
<title>Node7</title>
<g id="a_Node000007"><a xlink:href="class_task_a_p_i_1_1_services_1_1_log_service.html#a5c2a67dbd8beb6f821c46b8d052d59ea" target="_top" xlink:title="Logs an informational message to the database.">
<polygon fill="white" stroke="#666666" points="680.5,-294.22 534.75,-294.22 534.75,-262.22 680.5,-262.22 680.5,-294.22"/>
<text text-anchor="start" x="542.75" y="-280.72" font-family="Helvetica,sans-Serif" font-size="10.00">TaskAPI.Services.LogService.</text>
<text text-anchor="middle" x="607.62" y="-268.72" font-family="Helvetica,sans-Serif" font-size="10.00">LogInformation</text>
</a>
</g>
</g>
<!-- Node5&#45;&gt;Node7 -->
<g id="edge14_Node000005_Node000007" class="edge">
<title>Node5&#45;&gt;Node7</title>
<g id="a_edge14_Node000005_Node000007"><a xlink:title=" ">
<path fill="none" stroke="#63b8ff" d="M264.13,-200.49C283.79,-218.44 318.23,-246.47 353.75,-259.22 407.86,-278.64 472.56,-283.19 522.97,-282.99"/>
<polygon fill="#63b8ff" stroke="#63b8ff" points="523.01,-286.49 532.97,-282.88 522.93,-279.49 523.01,-286.49"/>
</a>
</g>
</g>
<!-- Node8 -->
<g id="Node000008" class="node">
<title>Node8</title>
<g id="a_Node000008"><a xlink:href="class_task_a_p_i_1_1_helpers_1_1_alert_helper.html#a6288723babbbadebdd77681b41122d79" target="_top" xlink:title="Fetches and processes log entries for a given API source based on the specified configuration.">
<polygon fill="white" stroke="#666666" points="497.62,-106.22 354.88,-106.22 354.88,-74.22 497.62,-74.22 497.62,-106.22"/>
<text text-anchor="start" x="362.88" y="-92.72" font-family="Helvetica,sans-Serif" font-size="10.00">TaskAPI.Helpers.AlertHelper.</text>
<text text-anchor="middle" x="426.25" y="-80.72" font-family="Helvetica,sans-Serif" font-size="10.00">FetchAndProcessLogs</text>
</a>
</g>
</g>
<!-- Node5&#45;&gt;Node8 -->
<g id="edge8_Node000005_Node000008" class="edge">
<title>Node5&#45;&gt;Node8</title>
<g id="a_edge8_Node000005_Node000008"><a xlink:title=" ">
<path fill="none" stroke="#63b8ff" d="M278.36,-167.84C307.73,-152.32 352.03,-128.91 384.3,-111.86"/>
<polygon fill="#63b8ff" stroke="#63b8ff" points="385.78,-115.04 392.99,-107.27 382.51,-108.85 385.78,-115.04"/>
</a>
</g>
</g>
<!-- Node12 -->
<g id="Node000012" class="node">
<title>Node12</title>
<g id="a_Node000012"><a xlink:href="class_task_a_p_i_1_1_helpers_1_1_alert_helper.html#a5e60f4242d52c0642c789ff7ca332e51" target="_top" xlink:title="Sends alerts based on the provided list of alerts, API source, and configuration.">
<polygon fill="white" stroke="#666666" points="497.62,-200.22 354.88,-200.22 354.88,-168.22 497.62,-168.22 497.62,-200.22"/>
<text text-anchor="start" x="362.88" y="-186.72" font-family="Helvetica,sans-Serif" font-size="10.00">TaskAPI.Helpers.AlertHelper.</text>
<text text-anchor="middle" x="426.25" y="-174.72" font-family="Helvetica,sans-Serif" font-size="10.00">SendAlerts</text>
</a>
</g>
</g>
<!-- Node5&#45;&gt;Node12 -->
<g id="edge15_Node000005_Node000012" class="edge">
<title>Node5&#45;&gt;Node12</title>
<g id="a_edge15_Node000005_Node000012"><a xlink:title=" ">
<path fill="none" stroke="#63b8ff" d="M318.19,-184.22C326.38,-184.22 334.79,-184.22 343.11,-184.22"/>
<polygon fill="#63b8ff" stroke="#63b8ff" points="342.88,-187.72 352.88,-184.22 342.88,-180.72 342.88,-187.72"/>
</a>
</g>
</g>
<!-- Node6&#45;&gt;Node7 -->
<g id="edge6_Node000006_Node000007" class="edge">
<title>Node6&#45;&gt;Node7</title>
<g id="a_edge6_Node000006_Node000007"><a xlink:title=" ">
<path fill="none" stroke="#63b8ff" d="M494.3,-250.66C505.46,-253.4 517.12,-256.26 528.53,-259.06"/>
<polygon fill="#63b8ff" stroke="#63b8ff" points="527.34,-262.37 537.89,-261.36 529.01,-255.58 527.34,-262.37"/>
</a>
</g>
</g>
<!-- Node7&#45;&gt;Node3 -->
<g id="edge7_Node000007_Node000003" class="edge">
<title>Node7&#45;&gt;Node3</title>
<g id="a_edge7_Node000007_Node000003"><a xlink:title=" ">
<path fill="none" stroke="#63b8ff" d="M680.84,-284.13C733.66,-285.44 805.67,-280.79 862.25,-253.22 902.25,-233.73 935.28,-192.82 953.85,-165.94"/>
<polygon fill="#63b8ff" stroke="#63b8ff" points="956.74,-167.91 959.4,-157.66 950.93,-164.02 956.74,-167.91"/>
</a>
</g>
</g>
<!-- Node9 -->
<g id="Node000009" class="node">
<title>Node9</title>
<g id="a_Node000009"><a xlink:href="class_task_a_p_i_1_1_services_1_1_log_service.html#a6fd34cc69d8b24f60a73f155365a9357" target="_top" xlink:title="Fetches log entries based on specified criteria from the database.">
<polygon fill="white" stroke="#666666" points="680.5,-106.22 534.75,-106.22 534.75,-74.22 680.5,-74.22 680.5,-106.22"/>
<text text-anchor="start" x="542.75" y="-92.72" font-family="Helvetica,sans-Serif" font-size="10.00">TaskAPI.Services.LogService.</text>
<text text-anchor="middle" x="607.62" y="-80.72" font-family="Helvetica,sans-Serif" font-size="10.00">FetchLogs</text>
</a>
</g>
</g>
<!-- Node8&#45;&gt;Node9 -->
<g id="edge9_Node000008_Node000009" class="edge">
<title>Node8&#45;&gt;Node9</title>
<g id="a_edge9_Node000008_Node000009"><a xlink:title=" ">
<path fill="none" stroke="#63b8ff" d="M497.89,-90.22C506.11,-90.22 514.56,-90.22 522.93,-90.22"/>
<polygon fill="#63b8ff" stroke="#63b8ff" points="522.77,-93.72 532.77,-90.22 522.77,-86.72 522.77,-93.72"/>
</a>
</g>
</g>
<!-- Node10 -->
<g id="Node000010" class="node">
<title>Node10</title>
<g id="a_Node000010"><a xlink:href="class_task_a_p_i_1_1_services_1_1_internal_a_p_i_service.html#a01d6e21d8a6368eb448cb401630cf033" target="_top" xlink:title="Retrieves unified logs from Internal API for a specified API source.">
<polygon fill="white" stroke="#666666" points="673.75,-56.22 541.5,-56.22 541.5,-24.22 673.75,-24.22 673.75,-56.22"/>
<text text-anchor="start" x="549.5" y="-42.72" font-family="Helvetica,sans-Serif" font-size="10.00">TaskAPI.Services.Internal</text>
<text text-anchor="middle" x="607.62" y="-30.72" font-family="Helvetica,sans-Serif" font-size="10.00">APIService.GetUnifiedLogs</text>
</a>
</g>
</g>
<!-- Node8&#45;&gt;Node10 -->
<g id="edge10_Node000008_Node000010" class="edge">
<title>Node8&#45;&gt;Node10</title>
<g id="a_edge10_Node000008_Node000010"><a xlink:title=" ">
<path fill="none" stroke="#63b8ff" d="M485.98,-73.85C502.16,-69.34 519.87,-64.4 536.61,-59.73"/>
<polygon fill="#63b8ff" stroke="#63b8ff" points="537.3,-63.18 545.99,-57.12 535.42,-56.43 537.3,-63.18"/>
</a>
</g>
</g>
<!-- Node10&#45;&gt;Node2 -->
<g id="edge13_Node000010_Node000002" class="edge">
<title>Node10&#45;&gt;Node2</title>
<g id="a_edge13_Node000010_Node000002"><a xlink:title=" ">
<path fill="none" stroke="#63b8ff" d="M674.03,-49.31C684.05,-50.71 694.52,-52.16 704.87,-53.6"/>
<polygon fill="#63b8ff" stroke="#63b8ff" points="704.15,-57.04 714.53,-54.95 705.11,-50.1 704.15,-57.04"/>
</a>
</g>
</g>
<!-- Node11 -->
<g id="Node000011" class="node">
<title>Node11</title>
<g id="a_Node000011"><a xlink:href="class_task_a_p_i_1_1_services_1_1_log_service.html#a46dc9bf58bc9605c7e17dfee38b94354" target="_top" xlink:title="Logs an error message to the database.">
<polygon fill="white" stroke="#666666" points="862.25,-156.22 716.5,-156.22 716.5,-124.22 862.25,-124.22 862.25,-156.22"/>
<text text-anchor="start" x="724.5" y="-142.72" font-family="Helvetica,sans-Serif" font-size="10.00">TaskAPI.Services.LogService.</text>
<text text-anchor="middle" x="789.38" y="-130.72" font-family="Helvetica,sans-Serif" font-size="10.00">LogError</text>
</a>
</g>
</g>
<!-- Node10&#45;&gt;Node11 -->
<g id="edge11_Node000010_Node000011" class="edge">
<title>Node10&#45;&gt;Node11</title>
<g id="a_edge11_Node000010_Node000011"><a xlink:title=" ">
<path fill="none" stroke="#63b8ff" d="M661.15,-56.6C667.78,-59.22 674.38,-62.1 680.5,-65.22 680.76,-65.35 723.76,-95.26 755.39,-117.27"/>
<polygon fill="#63b8ff" stroke="#63b8ff" points="753.33,-120.1 763.54,-122.93 757.33,-114.35 753.33,-120.1"/>
</a>
</g>
</g>
<!-- Node11&#45;&gt;Node3 -->
<g id="edge12_Node000011_Node000003" class="edge">
<title>Node11&#45;&gt;Node3</title>
<g id="a_edge12_Node000011_Node000003"><a xlink:title=" ">
<path fill="none" stroke="#63b8ff" d="M862.71,-140.22C870.6,-140.22 878.68,-140.22 886.69,-140.22"/>
<polygon fill="#63b8ff" stroke="#63b8ff" points="886.43,-143.72 896.43,-140.22 886.43,-136.72 886.43,-143.72"/>
</a>
</g>
</g>
<!-- Node12&#45;&gt;Node7 -->
<g id="edge19_Node000012_Node000007" class="edge">
<title>Node12&#45;&gt;Node7</title>
<g id="a_edge19_Node000012_Node000007"><a xlink:title=" ">
<path fill="none" stroke="#63b8ff" d="M483.76,-200.6C489.02,-203.12 494.12,-205.98 498.75,-209.22 519.45,-223.71 514.04,-238.75 534.75,-253.22 536.35,-254.34 538.01,-255.41 539.7,-256.44"/>
<polygon fill="#63b8ff" stroke="#63b8ff" points="538.02,-259.51 548.49,-261.14 541.33,-253.34 538.02,-259.51"/>
</a>
</g>
</g>
<!-- Node12&#45;&gt;Node11 -->
<g id="edge18_Node000012_Node000011" class="edge">
<title>Node12&#45;&gt;Node11</title>
<g id="a_edge18_Node000012_Node000011"><a xlink:title=" ">
<path fill="none" stroke="#63b8ff" d="M497.99,-181.81C548.96,-179.37 619.26,-174.56 680.5,-165.22 691.26,-163.58 702.54,-161.44 713.58,-159.1"/>
<polygon fill="#63b8ff" stroke="#63b8ff" points="714.01,-162.59 723.04,-157.04 712.52,-155.75 714.01,-162.59"/>
</a>
</g>
</g>
<!-- Node13 -->
<g id="Node000013" class="node">
<title>Node13</title>
<g id="a_Node000013"><a xlink:href="class_task_a_p_i_1_1_helpers_1_1_alert_helper.html#aab637efba5397e174f0a891ad60429cd" target="_top" xlink:title="Formats a JSON string as HTML table for better readability.">
<polygon fill="white" stroke="#666666" points="679,-244.22 536.25,-244.22 536.25,-212.22 679,-212.22 679,-244.22"/>
<text text-anchor="start" x="544.25" y="-230.72" font-family="Helvetica,sans-Serif" font-size="10.00">TaskAPI.Helpers.AlertHelper.</text>
<text text-anchor="middle" x="607.62" y="-218.72" font-family="Helvetica,sans-Serif" font-size="10.00">FormatJsonAsHtml</text>
</a>
</g>
</g>
<!-- Node12&#45;&gt;Node13 -->
<g id="edge16_Node000012_Node000013" class="edge">
<title>Node12&#45;&gt;Node13</title>
<g id="a_edge16_Node000012_Node000013"><a xlink:title=" ">
<path fill="none" stroke="#63b8ff" d="M494.3,-200.66C505.46,-203.4 517.12,-206.26 528.53,-209.06"/>
<polygon fill="#63b8ff" stroke="#63b8ff" points="527.34,-212.37 537.89,-211.36 529.01,-205.58 527.34,-212.37"/>
</a>
</g>
</g>
<!-- Node15 -->
<g id="Node000015" class="node">
<title>Node15</title>
<g id="a_Node000015"><a xlink:href="class_task_a_p_i_1_1_services_1_1_internal_a_p_i_service.html#aeffeb1d3d59aeeab65dfe72691d21600" target="_top" xlink:title="Sends an email using Internal API&#39;s email endpoint.">
<polygon fill="white" stroke="#666666" points="671.12,-156.22 544.12,-156.22 544.12,-124.22 671.12,-124.22 671.12,-156.22"/>
<text text-anchor="start" x="552.12" y="-142.72" font-family="Helvetica,sans-Serif" font-size="10.00">TaskAPI.Services.Internal</text>
<text text-anchor="middle" x="607.62" y="-130.72" font-family="Helvetica,sans-Serif" font-size="10.00">APIService.SendEmail</text>
</a>
</g>
</g>
<!-- Node12&#45;&gt;Node15 -->
<g id="edge20_Node000012_Node000015" class="edge">
<title>Node12&#45;&gt;Node15</title>
<g id="a_edge20_Node000012_Node000015"><a xlink:title=" ">
<path fill="none" stroke="#63b8ff" d="M494.3,-167.77C506.84,-164.69 520.02,-161.46 532.76,-158.34"/>
<polygon fill="#63b8ff" stroke="#63b8ff" points="533.46,-161.77 542.34,-155.99 531.8,-154.97 533.46,-161.77"/>
</a>
</g>
</g>
<!-- Node14 -->
<g id="Node000014" class="node">
<title>Node14</title>
<g id="a_Node000014"><a xlink:href="class_task_a_p_i_1_1_helpers_1_1_alert_helper.html#ad4d3668cc82bd01a9599f40ffed568f3" target="_top" xlink:title="Formats a JSON value for HTML presentation, applying different colors based on data types.">
<polygon fill="white" stroke="#666666" points="860.75,-244.22 718,-244.22 718,-212.22 860.75,-212.22 860.75,-244.22"/>
<text text-anchor="start" x="726" y="-230.72" font-family="Helvetica,sans-Serif" font-size="10.00">TaskAPI.Helpers.AlertHelper.</text>
<text text-anchor="middle" x="789.38" y="-218.72" font-family="Helvetica,sans-Serif" font-size="10.00">FormatJsonValue</text>
</a>
</g>
</g>
<!-- Node13&#45;&gt;Node14 -->
<g id="edge17_Node000013_Node000014" class="edge">
<title>Node13&#45;&gt;Node14</title>
<g id="a_edge17_Node000013_Node000014"><a xlink:title=" ">
<path fill="none" stroke="#63b8ff" d="M679.41,-228.22C688.25,-228.22 697.35,-228.22 706.35,-228.22"/>
<polygon fill="#63b8ff" stroke="#63b8ff" points="706.14,-231.72 716.14,-228.22 706.14,-224.72 706.14,-231.72"/>
</a>
</g>
</g>
<!-- Node15&#45;&gt;Node2 -->
<g id="edge22_Node000015_Node000002" class="edge">
<title>Node15&#45;&gt;Node2</title>
<g id="a_edge22_Node000015_Node000002"><a xlink:title=" ">
<path fill="none" stroke="#63b8ff" d="M657.97,-123.78C665.56,-121.04 673.27,-118.14 680.5,-115.22 702.07,-106.49 725.57,-95.75 745.11,-86.47"/>
<polygon fill="#63b8ff" stroke="#63b8ff" points="746.35,-89.75 753.86,-82.28 743.33,-83.44 746.35,-89.75"/>
</a>
</g>
</g>
<!-- Node15&#45;&gt;Node11 -->
<g id="edge21_Node000015_Node000011" class="edge">
<title>Node15&#45;&gt;Node11</title>
<g id="a_edge21_Node000015_Node000011"><a xlink:title=" ">
<path fill="none" stroke="#63b8ff" d="M671.49,-140.22C682.16,-140.22 693.39,-140.22 704.5,-140.22"/>
<polygon fill="#63b8ff" stroke="#63b8ff" points="704.49,-143.72 714.49,-140.22 704.49,-136.72 704.49,-143.72"/>
</a>
</g>
</g>
</g>
</svg>
