<?xml version="1.0" encoding="UTF-8" standalone="no"?>
<!DOCTYPE svg PUBLIC "-//W3C//DTD SVG 1.1//EN"
 "http://www.w3.org/Graphics/SVG/1.1/DTD/svg11.dtd">
<!-- Generated by graphviz version 9.0.0 (20230911.1827)
 -->
<!-- Title: TaskAPI.Services.LogService Pages: 1 -->
<svg width="326pt" height="165pt"
 viewBox="0.00 0.00 325.50 165.00" xmlns="http://www.w3.org/2000/svg" xmlns:xlink="http://www.w3.org/1999/xlink">
<g id="graph0" class="graph" transform="scale(1 1) rotate(0) translate(4 161)">
<title>TaskAPI.Services.LogService</title>
<!-- Node1 -->
<g id="Node000001" class="node">
<title>Node1</title>
<g id="a_Node000001"><a xlink:title="Provides logging services for various levels of application events, including debug,...">
<polygon fill="#999999" stroke="#666666" points="239.5,-20 96.75,-20 96.75,0 239.5,0 239.5,-20"/>
<text text-anchor="middle" x="168.12" y="-6.5" font-family="Helvetica,sans-Serif" font-size="10.00">TaskAPI.Services.LogService</text>
</a>
</g>
</g>
<!-- Node2 -->
<g id="Node000002" class="node">
<title>Node2</title>
<g id="a_Node000002"><a xlink:href="class_task_a_p_i_1_1_contexts_1_1_task_a_p_i_context.html" target="_top" xlink:title=" ">
<polygon fill="white" stroke="#666666" points="168.25,-94 0,-94 0,-74 168.25,-74 168.25,-94"/>
<text text-anchor="middle" x="84.12" y="-80.5" font-family="Helvetica,sans-Serif" font-size="10.00">TaskAPI.Contexts.TaskAPIContext</text>
</a>
</g>
</g>
<!-- Node2&#45;&gt;Node1 -->
<g id="edge1_Node000001_Node000002" class="edge">
<title>Node2&#45;&gt;Node1</title>
<g id="a_edge1_Node000001_Node000002"><a xlink:title=" ">
<path fill="none" stroke="#9a32cd" stroke-dasharray="5,2" d="M103.55,-66.35C120.19,-52.08 143.56,-32.06 157.14,-20.42"/>
<polygon fill="#9a32cd" stroke="#9a32cd" points="101.57,-63.44 96.26,-72.6 106.13,-68.75 101.57,-63.44"/>
</a>
</g>
<text text-anchor="middle" x="156.38" y="-40.5" font-family="Helvetica,sans-Serif" font-size="10.00" fill="grey"> _context</text>
</g>
<!-- Node3 -->
<g id="Node000003" class="node">
<title>Node3</title>
<g id="a_Node000003"><a xlink:title=" ">
<polygon fill="white" stroke="#666666" points="115,-157 53.25,-157 53.25,-137 115,-137 115,-157"/>
<text text-anchor="middle" x="84.12" y="-143.5" font-family="Helvetica,sans-Serif" font-size="10.00">DbContext</text>
</a>
</g>
</g>
<!-- Node3&#45;&gt;Node2 -->
<g id="edge2_Node000002_Node000003" class="edge">
<title>Node3&#45;&gt;Node2</title>
<g id="a_edge2_Node000002_Node000003"><a xlink:title=" ">
<path fill="none" stroke="#63b8ff" d="M84.12,-125.53C84.12,-114.98 84.12,-102.62 84.12,-94.35"/>
<polygon fill="#63b8ff" stroke="#63b8ff" points="80.63,-125.22 84.13,-135.22 87.63,-125.22 80.63,-125.22"/>
</a>
</g>
</g>
<!-- Node4 -->
<g id="Node000004" class="node">
<title>Node4</title>
<g id="a_Node000004"><a xlink:href="class_task_a_p_i_1_1_helpers_1_1_settings_1_1_task_a_p_i_settings.html" target="_top" xlink:title=" ">
<polygon fill="white" stroke="#666666" points="317.5,-100 186.75,-100 186.75,-68 317.5,-68 317.5,-100"/>
<text text-anchor="start" x="194.75" y="-86.5" font-family="Helvetica,sans-Serif" font-size="10.00">TaskAPI.Helpers.Settings.</text>
<text text-anchor="middle" x="252.12" y="-74.5" font-family="Helvetica,sans-Serif" font-size="10.00">TaskAPISettings</text>
</a>
</g>
</g>
<!-- Node4&#45;&gt;Node1 -->
<g id="edge3_Node000001_Node000004" class="edge">
<title>Node4&#45;&gt;Node1</title>
<g id="a_edge3_Node000001_Node000004"><a xlink:title=" ">
<path fill="none" stroke="#9a32cd" stroke-dasharray="5,2" d="M225.95,-60.57C210.14,-47.01 190.81,-30.44 178.99,-20.31"/>
<polygon fill="#9a32cd" stroke="#9a32cd" points="223.29,-62.9 233.16,-66.75 227.85,-57.58 223.29,-62.9"/>
</a>
</g>
<text text-anchor="middle" x="233.5" y="-40.5" font-family="Helvetica,sans-Serif" font-size="10.00" fill="grey"> _settings</text>
</g>
</g>
</svg>
