<?xml version="1.0" encoding="UTF-8" standalone="no"?>
<!DOCTYPE svg PUBLIC "-//W3C//DTD SVG 1.1//EN"
 "http://www.w3.org/Graphics/SVG/1.1/DTD/svg11.dtd">
<!-- Generated by graphviz version 9.0.0 (20230911.1827)
 -->
<!-- Title: TaskAPI.Services.AlchemyService Pages: 1 -->
<svg width="326pt" height="245pt"
 viewBox="0.00 0.00 325.50 245.00" xmlns="http://www.w3.org/2000/svg" xmlns:xlink="http://www.w3.org/1999/xlink">

<svg id="main" version="1.1" xmlns="http://www.w3.org/2000/svg" xmlns:xlink="http://www.w3.org/1999/xlink" xml:space="preserve" onload="init(evt)">
<style type="text/css"><![CDATA[
.node, .edge {opacity: 0.7;}
.node.selected, .edge.selected {opacity: 1;}
.edge:hover path { stroke: red; }
.edge:hover polygon { stroke: red; fill: red; }
]]></style>
<script type="application/ecmascript" xlink:href="svg.min.js"/>
<svg id="graph" class="graph">
<g id="graph0" class="graph" transform="scale(1 1) rotate(0) translate(4 241)">
<title>TaskAPI.Services.AlchemyService</title>
<!-- Node1 -->
<g id="Node000001" class="node">
<title>Node1</title>
<g id="a_Node000001"><a xlink:title="Provides functionality to interact with the Alchemy API for blockchain data retrieval.">
<polygon fill="#999999" stroke="#666666" points="266,-32 132.25,-32 132.25,0 266,0 266,-32"/>
<text text-anchor="start" x="140.25" y="-18.5" font-family="Helvetica,sans-Serif" font-size="10.00">TaskAPI.Services.Alchemy</text>
<text text-anchor="middle" x="199.12" y="-6.5" font-family="Helvetica,sans-Serif" font-size="10.00">Service</text>
</a>
</g>
</g>
<!-- Node2 -->
<g id="Node000002" class="node">
<title>Node2</title>
<g id="a_Node000002"><a xlink:href="class_task_a_p_i_1_1_services_1_1_log_service.html" target="_top" xlink:title="Provides logging services for various levels of application events, including debug,...">
<polygon fill="white" stroke="#666666" points="216.5,-100 73.75,-100 73.75,-80 216.5,-80 216.5,-100"/>
<text text-anchor="middle" x="145.12" y="-86.5" font-family="Helvetica,sans-Serif" font-size="10.00">TaskAPI.Services.LogService</text>
</a>
</g>
</g>
<!-- Node2&#45;&gt;Node1 -->
<g id="edge1_Node000001_Node000002" class="edge">
<title>Node2&#45;&gt;Node1</title>
<g id="a_edge1_Node000001_Node000002"><a xlink:title=" ">
<path fill="none" stroke="#9a32cd" stroke-dasharray="5,2" d="M158.91,-70.62C167.76,-58.82 179.13,-43.66 187.52,-32.47"/>
<polygon fill="#9a32cd" stroke="#9a32cd" points="156.29,-68.28 153.09,-78.38 161.89,-72.48 156.29,-68.28"/>
</a>
</g>
<text text-anchor="middle" x="200.38" y="-52.5" font-family="Helvetica,sans-Serif" font-size="10.00" fill="grey"> _logService</text>
</g>
<!-- Node3 -->
<g id="Node000003" class="node">
<title>Node3</title>
<g id="a_Node000003"><a xlink:href="class_task_a_p_i_1_1_contexts_1_1_task_a_p_i_context.html" target="_top" xlink:title=" ">
<polygon fill="white" stroke="#666666" points="168.25,-174 0,-174 0,-154 168.25,-154 168.25,-174"/>
<text text-anchor="middle" x="84.12" y="-160.5" font-family="Helvetica,sans-Serif" font-size="10.00">TaskAPI.Contexts.TaskAPIContext</text>
</a>
</g>
</g>
<!-- Node3&#45;&gt;Node2 -->
<g id="edge2_Node000002_Node000003" class="edge">
<title>Node3&#45;&gt;Node2</title>
<g id="a_edge2_Node000002_Node000003"><a xlink:title=" ">
<path fill="none" stroke="#9a32cd" stroke-dasharray="5,2" d="M98.54,-144.76C105.16,-136.5 113.19,-126.67 120.62,-118 125.74,-112.04 131.64,-105.52 136.38,-100.38"/>
<polygon fill="#9a32cd" stroke="#9a32cd" points="95.96,-142.38 92.47,-152.38 101.44,-146.74 95.96,-142.38"/>
</a>
</g>
<text text-anchor="middle" x="141.38" y="-120.5" font-family="Helvetica,sans-Serif" font-size="10.00" fill="grey"> _context</text>
</g>
<!-- Node4 -->
<g id="Node000004" class="node">
<title>Node4</title>
<g id="a_Node000004"><a xlink:title=" ">
<polygon fill="white" stroke="#666666" points="115,-237 53.25,-237 53.25,-217 115,-217 115,-237"/>
<text text-anchor="middle" x="84.12" y="-223.5" font-family="Helvetica,sans-Serif" font-size="10.00">DbContext</text>
</a>
</g>
</g>
<!-- Node4&#45;&gt;Node3 -->
<g id="edge3_Node000003_Node000004" class="edge">
<title>Node4&#45;&gt;Node3</title>
<g id="a_edge3_Node000003_Node000004"><a xlink:title=" ">
<path fill="none" stroke="#63b8ff" d="M84.12,-205.53C84.12,-194.98 84.12,-182.62 84.12,-174.35"/>
<polygon fill="#63b8ff" stroke="#63b8ff" points="80.63,-205.22 84.13,-215.22 87.63,-205.22 80.63,-205.22"/>
</a>
</g>
</g>
<!-- Node5 -->
<g id="Node000005" class="node">
<title>Node5</title>
<g id="a_Node000005"><a xlink:href="class_task_a_p_i_1_1_helpers_1_1_settings_1_1_task_a_p_i_settings.html" target="_top" xlink:title=" ">
<polygon fill="white" stroke="#666666" points="317.5,-180 186.75,-180 186.75,-148 317.5,-148 317.5,-180"/>
<text text-anchor="start" x="194.75" y="-166.5" font-family="Helvetica,sans-Serif" font-size="10.00">TaskAPI.Helpers.Settings.</text>
<text text-anchor="middle" x="252.12" y="-154.5" font-family="Helvetica,sans-Serif" font-size="10.00">TaskAPISettings</text>
</a>
</g>
</g>
<!-- Node5&#45;&gt;Node1 -->
<g id="edge5_Node000001_Node000005" class="edge">
<title>Node5&#45;&gt;Node1</title>
<g id="a_edge5_Node000001_Node000005"><a xlink:title=" ">
<path fill="none" stroke="#9a32cd" stroke-dasharray="5,2" d="M251.09,-136.19C249.22,-112.39 244.09,-77.27 230.12,-50 226.83,-43.56 221.9,-37.49 216.93,-32.35"/>
<polygon fill="#9a32cd" stroke="#9a32cd" points="247.58,-136.23 251.7,-145.99 254.57,-135.79 247.58,-136.23"/>
</a>
</g>
<text text-anchor="middle" x="268.5" y="-86.5" font-family="Helvetica,sans-Serif" font-size="10.00" fill="grey"> _settings</text>
</g>
<!-- Node5&#45;&gt;Node2 -->
<g id="edge4_Node000002_Node000005" class="edge">
<title>Node5&#45;&gt;Node2</title>
<g id="a_edge4_Node000002_Node000005"><a xlink:title=" ">
<path fill="none" stroke="#9a32cd" stroke-dasharray="5,2" d="M214.14,-141.86C207.79,-138.05 201.33,-134.01 195.38,-130 181.46,-120.61 166.35,-108.63 156.38,-100.43"/>
<polygon fill="#9a32cd" stroke="#9a32cd" points="212.26,-144.81 222.66,-146.85 215.8,-138.77 212.26,-144.81"/>
</a>
</g>
<text text-anchor="middle" x="217.5" y="-120.5" font-family="Helvetica,sans-Serif" font-size="10.00" fill="grey"> _settings</text>
</g>
</g>
</svg>
</svg>

<style type='text/css'>
<![CDATA[
[data-mouse-over-selected='false'] { opacity: 0.7; }
[data-mouse-over-selected='true']  { opacity: 1.0; }
]]>
</style>
<script type="application/ecmascript"><![CDATA[
document.addEventListener('DOMContentLoaded', (event) => {
  highlightEdges();
  highlightAdjacentNodes();
});
]]></script>
</svg>
