<?xml version="1.0" encoding="UTF-8" standalone="no"?>
<!DOCTYPE svg PUBLIC "-//W3C//DTD SVG 1.1//EN"
 "http://www.w3.org/Graphics/SVG/1.1/DTD/svg11.dtd">
<!-- Generated by graphviz version 9.0.0 (20230911.1827)
 -->
<!-- Title: TaskAPI.Controllers.PriceappController.SavePricesheet Pages: 1 -->
<svg width="891pt" height="140pt"
 viewBox="0.00 0.00 890.50 140.00" xmlns="http://www.w3.org/2000/svg" xmlns:xlink="http://www.w3.org/1999/xlink">
<g id="graph0" class="graph" transform="scale(1 1) rotate(0) translate(4 136)">
<title>TaskAPI.Controllers.PriceappController.SavePricesheet</title>
<!-- Node1 -->
<g id="Node000001" class="node">
<title>Node1</title>
<g id="a_Node000001"><a xlink:title="Saves the Priceapp pricesheet as a PDF.">
<polygon fill="#999999" stroke="#666666" points="143.5,-85 0,-85 0,-53 143.5,-53 143.5,-85"/>
<text text-anchor="start" x="8" y="-71.5" font-family="Helvetica,sans-Serif" font-size="10.00">TaskAPI.Controllers.Priceapp</text>
<text text-anchor="middle" x="71.75" y="-59.5" font-family="Helvetica,sans-Serif" font-size="10.00">Controller.SavePricesheet</text>
</a>
</g>
</g>
<!-- Node2 -->
<g id="Node000002" class="node">
<title>Node2</title>
<g id="a_Node000002"><a xlink:href="class_task_a_p_i_1_1_helpers_1_1_priceapp_helper.html#a11fefec93e8edfcd4f1d4c4d91180689" target="_top" xlink:title=" ">
<polygon fill="white" stroke="#666666" points="337.25,-85 179.5,-85 179.5,-53 337.25,-53 337.25,-85"/>
<text text-anchor="start" x="187.5" y="-71.5" font-family="Helvetica,sans-Serif" font-size="10.00">TaskAPI.Helpers.Priceapp</text>
<text text-anchor="middle" x="258.38" y="-59.5" font-family="Helvetica,sans-Serif" font-size="10.00">Helper.CreateLivePricesheetPDF</text>
</a>
</g>
</g>
<!-- Node1&#45;&gt;Node2 -->
<g id="edge1_Node000001_Node000002" class="edge">
<title>Node1&#45;&gt;Node2</title>
<g id="a_edge1_Node000001_Node000002"><a xlink:title=" ">
<path fill="none" stroke="#63b8ff" d="M143.87,-69C151.74,-69 159.83,-69 167.89,-69"/>
<polygon fill="#63b8ff" stroke="#63b8ff" points="167.72,-72.5 177.72,-69 167.72,-65.5 167.72,-72.5"/>
</a>
</g>
</g>
<!-- Node6 -->
<g id="Node000006" class="node">
<title>Node6</title>
<g id="a_Node000006"><a xlink:href="class_task_a_p_i_1_1_services_1_1_log_service.html#a5c2a67dbd8beb6f821c46b8d052d59ea" target="_top" xlink:title="Logs an informational message to the database.">
<polygon fill="white" stroke="#666666" points="519,-132 373.25,-132 373.25,-100 519,-100 519,-132"/>
<text text-anchor="start" x="381.25" y="-118.5" font-family="Helvetica,sans-Serif" font-size="10.00">TaskAPI.Services.LogService.</text>
<text text-anchor="middle" x="446.12" y="-106.5" font-family="Helvetica,sans-Serif" font-size="10.00">LogInformation</text>
</a>
</g>
</g>
<!-- Node1&#45;&gt;Node6 -->
<g id="edge5_Node000001_Node000006" class="edge">
<title>Node1&#45;&gt;Node6</title>
<g id="a_edge5_Node000001_Node000006"><a xlink:title=" ">
<path fill="none" stroke="#63b8ff" d="M136.23,-85.49C150.4,-88.71 165.4,-91.78 179.5,-94 240.08,-103.55 309.12,-109.11 361.63,-112.25"/>
<polygon fill="#63b8ff" stroke="#63b8ff" points="361.22,-115.73 371.4,-112.81 361.62,-108.74 361.22,-115.73"/>
</a>
</g>
</g>
<!-- Node7 -->
<g id="Node000007" class="node">
<title>Node7</title>
<g id="a_Node000007"><a xlink:href="class_task_a_p_i_1_1_services_1_1_internal_a_p_i_service.html#aeffeb1d3d59aeeab65dfe72691d21600" target="_top" xlink:title="Sends an email using Internal API&#39;s email endpoint.">
<polygon fill="white" stroke="#666666" points="321.88,-35 194.88,-35 194.88,-3 321.88,-3 321.88,-35"/>
<text text-anchor="start" x="202.88" y="-21.5" font-family="Helvetica,sans-Serif" font-size="10.00">TaskAPI.Services.Internal</text>
<text text-anchor="middle" x="258.38" y="-9.5" font-family="Helvetica,sans-Serif" font-size="10.00">APIService.SendEmail</text>
</a>
</g>
</g>
<!-- Node1&#45;&gt;Node7 -->
<g id="edge7_Node000001_Node000007" class="edge">
<title>Node1&#45;&gt;Node7</title>
<g id="a_edge7_Node000001_Node000007"><a xlink:title=" ">
<path fill="none" stroke="#63b8ff" d="M133.46,-52.56C150.26,-48.01 168.64,-43.03 185.99,-38.33"/>
<polygon fill="#63b8ff" stroke="#63b8ff" points="186.43,-41.84 195.17,-35.85 184.6,-35.08 186.43,-41.84"/>
</a>
</g>
</g>
<!-- Node3 -->
<g id="Node000003" class="node">
<title>Node3</title>
<g id="a_Node000003"><a xlink:href="class_task_a_p_i_1_1_services_1_1_log_service.html#a46dc9bf58bc9605c7e17dfee38b94354" target="_top" xlink:title="Logs an error message to the database.">
<polygon fill="white" stroke="#666666" points="519,-82 373.25,-82 373.25,-50 519,-50 519,-82"/>
<text text-anchor="start" x="381.25" y="-68.5" font-family="Helvetica,sans-Serif" font-size="10.00">TaskAPI.Services.LogService.</text>
<text text-anchor="middle" x="446.12" y="-56.5" font-family="Helvetica,sans-Serif" font-size="10.00">LogError</text>
</a>
</g>
</g>
<!-- Node2&#45;&gt;Node3 -->
<g id="edge2_Node000002_Node000003" class="edge">
<title>Node2&#45;&gt;Node3</title>
<g id="a_edge2_Node000002_Node000003"><a xlink:title=" ">
<path fill="none" stroke="#63b8ff" d="M337.61,-67.74C345.47,-67.61 353.48,-67.48 361.39,-67.35"/>
<polygon fill="#63b8ff" stroke="#63b8ff" points="361.44,-70.85 371.38,-67.19 361.33,-63.85 361.44,-70.85"/>
</a>
</g>
</g>
<!-- Node4 -->
<g id="Node000004" class="node">
<title>Node4</title>
<g id="a_Node000004"><a xlink:href="class_task_a_p_i_1_1_services_1_1_log_service.html#a44f0fd9db1116257087ba59c836e22ea" target="_top" xlink:title="Directly inserts a log entry into the database.">
<polygon fill="white" stroke="#666666" points="700.75,-82 555,-82 555,-50 700.75,-50 700.75,-82"/>
<text text-anchor="start" x="563" y="-68.5" font-family="Helvetica,sans-Serif" font-size="10.00">TaskAPI.Services.LogService.</text>
<text text-anchor="middle" x="627.88" y="-56.5" font-family="Helvetica,sans-Serif" font-size="10.00">InsertLog</text>
</a>
</g>
</g>
<!-- Node3&#45;&gt;Node4 -->
<g id="edge3_Node000003_Node000004" class="edge">
<title>Node3&#45;&gt;Node4</title>
<g id="a_edge3_Node000003_Node000004"><a xlink:title=" ">
<path fill="none" stroke="#63b8ff" d="M519.46,-66C527.35,-66 535.43,-66 543.44,-66"/>
<polygon fill="#63b8ff" stroke="#63b8ff" points="543.18,-69.5 553.18,-66 543.18,-62.5 543.18,-69.5"/>
</a>
</g>
</g>
<!-- Node5 -->
<g id="Node000005" class="node">
<title>Node5</title>
<g id="a_Node000005"><a xlink:href="class_task_a_p_i_1_1_services_1_1_log_service.html#a20f6ab73ae5cc69273da4416da65f94d" target="_top" xlink:title="Writes a log entry to a local text file as a fallback or additional logging method.">
<polygon fill="white" stroke="#666666" points="882.5,-82 736.75,-82 736.75,-50 882.5,-50 882.5,-82"/>
<text text-anchor="start" x="744.75" y="-68.5" font-family="Helvetica,sans-Serif" font-size="10.00">TaskAPI.Services.LogService.</text>
<text text-anchor="middle" x="809.62" y="-56.5" font-family="Helvetica,sans-Serif" font-size="10.00">WriteLog</text>
</a>
</g>
</g>
<!-- Node4&#45;&gt;Node5 -->
<g id="edge4_Node000004_Node000005" class="edge">
<title>Node4&#45;&gt;Node5</title>
<g id="a_edge4_Node000004_Node000005"><a xlink:title=" ">
<path fill="none" stroke="#63b8ff" d="M701.21,-66C709.1,-66 717.18,-66 725.19,-66"/>
<polygon fill="#63b8ff" stroke="#63b8ff" points="724.93,-69.5 734.93,-66 724.93,-62.5 724.93,-69.5"/>
</a>
</g>
</g>
<!-- Node6&#45;&gt;Node4 -->
<g id="edge6_Node000006_Node000004" class="edge">
<title>Node6&#45;&gt;Node4</title>
<g id="a_edge6_Node000006_Node000004"><a xlink:title=" ">
<path fill="none" stroke="#63b8ff" d="M505.98,-99.63C522.19,-95.12 539.94,-90.18 556.72,-85.52"/>
<polygon fill="#63b8ff" stroke="#63b8ff" points="557.42,-88.95 566.12,-82.9 555.55,-82.21 557.42,-88.95"/>
</a>
</g>
</g>
<!-- Node7&#45;&gt;Node3 -->
<g id="edge8_Node000007_Node000003" class="edge">
<title>Node7&#45;&gt;Node3</title>
<g id="a_edge8_Node000007_Node000003"><a xlink:title=" ">
<path fill="none" stroke="#63b8ff" d="M322.26,-34.91C337.25,-38.71 353.41,-42.79 368.93,-46.72"/>
<polygon fill="#63b8ff" stroke="#63b8ff" points="368.06,-50.11 378.62,-49.17 369.78,-43.33 368.06,-50.11"/>
</a>
</g>
</g>
<!-- Node8 -->
<g id="Node000008" class="node">
<title>Node8</title>
<g id="a_Node000008"><a xlink:href="class_task_a_p_i_1_1_services_1_1_log_service.html#a78c9df658858fa3099eed69421423898" target="_top" xlink:title="Logs an exception to the database.">
<polygon fill="white" stroke="#666666" points="519,-32 373.25,-32 373.25,0 519,0 519,-32"/>
<text text-anchor="start" x="381.25" y="-18.5" font-family="Helvetica,sans-Serif" font-size="10.00">TaskAPI.Services.LogService.</text>
<text text-anchor="middle" x="446.12" y="-6.5" font-family="Helvetica,sans-Serif" font-size="10.00">LogException</text>
</a>
</g>
</g>
<!-- Node7&#45;&gt;Node8 -->
<g id="edge9_Node000007_Node000008" class="edge">
<title>Node7&#45;&gt;Node8</title>
<g id="a_edge9_Node000007_Node000008"><a xlink:title=" ">
<path fill="none" stroke="#63b8ff" d="M322.26,-17.98C334.88,-17.78 348.32,-17.56 361.52,-17.35"/>
<polygon fill="#63b8ff" stroke="#63b8ff" points="361.56,-20.85 371.51,-17.19 361.45,-13.85 361.56,-20.85"/>
</a>
</g>
</g>
<!-- Node8&#45;&gt;Node4 -->
<g id="edge10_Node000008_Node000004" class="edge">
<title>Node8&#45;&gt;Node4</title>
<g id="a_edge10_Node000008_Node000004"><a xlink:title=" ">
<path fill="none" stroke="#63b8ff" d="M505.98,-32.37C522.19,-36.88 539.94,-41.82 556.72,-46.48"/>
<polygon fill="#63b8ff" stroke="#63b8ff" points="555.55,-49.79 566.12,-49.1 557.42,-43.05 555.55,-49.79"/>
</a>
</g>
</g>
</g>
</svg>
