<?xml version="1.0" encoding="UTF-8" standalone="no"?>
<!DOCTYPE svg PUBLIC "-//W3C//DTD SVG 1.1//EN"
 "http://www.w3.org/Graphics/SVG/1.1/DTD/svg11.dtd">
<!-- Generated by graphviz version 9.0.0 (20230911.1827)
 -->
<!-- Title: TaskAPI.Helpers.AlertHelper Pages: 1 -->
<svg width="1232pt" height="528pt"
 viewBox="0.00 0.00 1231.50 528.00" xmlns="http://www.w3.org/2000/svg" xmlns:xlink="http://www.w3.org/1999/xlink">
<g id="graph0" class="graph" transform="scale(1 1) rotate(0) translate(4 524)">
<title>TaskAPI.Helpers.AlertHelper</title>
<!-- Node1 -->
<g id="Node000001" class="node">
<title>Node1</title>
<g id="a_Node000001"><a xlink:title="Helper class for processing alerts based on log entries.">
<polygon fill="#999999" stroke="#666666" points="1223.5,-389 1083.75,-389 1083.75,-369 1223.5,-369 1223.5,-389"/>
<text text-anchor="middle" x="1153.62" y="-375.5" font-family="Helvetica,sans-Serif" font-size="10.00">TaskAPI.Helpers.AlertHelper</text>
</a>
</g>
</g>
<!-- Node2 -->
<g id="Node000002" class="node">
<title>Node2</title>
<g id="a_Node000002"><a xlink:href="class_task_a_p_i_1_1_services_1_1_log_service.html" target="_top" xlink:title="Provides logging services for various levels of application events, including debug,...">
<polygon fill="white" stroke="#666666" points="488.5,-214 345.75,-214 345.75,-194 488.5,-194 488.5,-214"/>
<text text-anchor="middle" x="417.12" y="-200.5" font-family="Helvetica,sans-Serif" font-size="10.00">TaskAPI.Services.LogService</text>
</a>
</g>
</g>
<!-- Node2&#45;&gt;Node1 -->
<g id="edge1_Node000001_Node000002" class="edge">
<title>Node2&#45;&gt;Node1</title>
<g id="a_edge1_Node000001_Node000002"><a xlink:title=" ">
<path fill="none" stroke="#9a32cd" stroke-dasharray="5,2" d="M442.62,-220.95C471.25,-241.05 519.72,-276 559,-309 567.43,-316.08 567.16,-321.07 577,-326 688.72,-381.94 729.67,-361.57 854,-374 917.82,-380.38 934.12,-376.9 998.25,-378 1026.12,-378.48 1056.82,-378.73 1083.46,-378.87"/>
<polygon fill="#9a32cd" stroke="#9a32cd" points="444.81,-218.21 434.61,-215.35 440.8,-223.94 444.81,-218.21"/>
</a>
</g>
<text text-anchor="middle" x="780.88" y="-374.5" font-family="Helvetica,sans-Serif" font-size="10.00" fill="grey"> _logService</text>
</g>
<!-- Node6 -->
<g id="Node000006" class="node">
<title>Node6</title>
<g id="a_Node000006"><a xlink:href="class_task_a_p_i_1_1_services_1_1_internal_a_p_i_service.html" target="_top" xlink:title="Provides a collection of services for interacting with internal API endpoints, including sending emai...">
<polygon fill="white" stroke="#666666" points="705.88,-262 578.88,-262 578.88,-230 705.88,-230 705.88,-262"/>
<text text-anchor="start" x="586.88" y="-248.5" font-family="Helvetica,sans-Serif" font-size="10.00">TaskAPI.Services.Internal</text>
<text text-anchor="middle" x="642.38" y="-236.5" font-family="Helvetica,sans-Serif" font-size="10.00">APIService</text>
</a>
</g>
</g>
<!-- Node2&#45;&gt;Node6 -->
<g id="edge6_Node000006_Node000002" class="edge">
<title>Node2&#45;&gt;Node6</title>
<g id="a_edge6_Node000006_Node000002"><a xlink:title=" ">
<path fill="none" stroke="#9a32cd" stroke-dasharray="5,2" d="M484.97,-216.58C514.61,-222.15 549.29,-228.68 578.45,-234.16"/>
<polygon fill="#9a32cd" stroke="#9a32cd" points="485.85,-213.18 475.37,-214.77 484.55,-220.06 485.85,-213.18"/>
</a>
</g>
<text text-anchor="middle" x="532.75" y="-231.5" font-family="Helvetica,sans-Serif" font-size="10.00" fill="grey"> _logService</text>
</g>
<!-- Node7 -->
<g id="Node000007" class="node">
<title>Node7</title>
<g id="a_Node000007"><a xlink:href="class_task_a_p_i_1_1_controllers_1_1_logs_controller.html" target="_top" xlink:title="Controller for managing logs in TaskAPI.">
<polygon fill="white" stroke="#666666" points="980.25,-164 854,-164 854,-132 980.25,-132 980.25,-164"/>
<text text-anchor="start" x="862" y="-150.5" font-family="Helvetica,sans-Serif" font-size="10.00">TaskAPI.Controllers.Logs</text>
<text text-anchor="middle" x="917.12" y="-138.5" font-family="Helvetica,sans-Serif" font-size="10.00">Controller</text>
</a>
</g>
</g>
<!-- Node2&#45;&gt;Node7 -->
<g id="edge12_Node000007_Node000002" class="edge">
<title>Node2&#45;&gt;Node7</title>
<g id="a_edge12_Node000007_Node000002"><a xlink:title=" ">
<path fill="none" stroke="#9a32cd" stroke-dasharray="5,2" d="M488.49,-191.58C516.09,-186.71 548.03,-181.09 577,-176 643.1,-164.4 658.92,-156.15 725.75,-150 768.37,-146.08 816.59,-145.61 853.83,-146.11"/>
<polygon fill="#9a32cd" stroke="#9a32cd" points="488.08,-188.1 478.84,-193.28 489.29,-194.99 488.08,-188.1"/>
</a>
</g>
<text text-anchor="middle" x="642.38" y="-178.5" font-family="Helvetica,sans-Serif" font-size="10.00" fill="grey"> _logService</text>
</g>
<!-- Node9 -->
<g id="Node000009" class="node">
<title>Node9</title>
<g id="a_Node000009"><a xlink:href="class_task_a_p_i_1_1_helpers_1_1_alert_helper.html" target="_top" xlink:title="Helper class for processing alerts based on log entries.">
<polygon fill="white" stroke="#666666" points="1223.5,-158 1083.75,-158 1083.75,-138 1223.5,-138 1223.5,-158"/>
<text text-anchor="middle" x="1153.62" y="-144.5" font-family="Helvetica,sans-Serif" font-size="10.00">TaskAPI.Helpers.AlertHelper</text>
</a>
</g>
</g>
<!-- Node2&#45;&gt;Node9 -->
<g id="edge17_Node000009_Node000002" class="edge">
<title>Node2&#45;&gt;Node9</title>
<g id="a_edge17_Node000009_Node000002"><a xlink:title=" ">
<path fill="none" stroke="#9a32cd" stroke-dasharray="5,2" d="M436.83,-185.8C464.65,-160.12 519.85,-114.45 577,-97 778.26,-35.55 1036.14,-109.03 1122.76,-137.59"/>
<polygon fill="#9a32cd" stroke="#9a32cd" points="434.45,-183.22 429.58,-192.63 439.25,-188.32 434.45,-183.22"/>
</a>
</g>
<text text-anchor="middle" x="780.88" y="-78.5" font-family="Helvetica,sans-Serif" font-size="10.00" fill="grey"> _logService</text>
</g>
<!-- Node3 -->
<g id="Node000003" class="node">
<title>Node3</title>
<g id="a_Node000003"><a xlink:href="class_task_a_p_i_1_1_contexts_1_1_task_a_p_i_context.html" target="_top" xlink:title=" ">
<polygon fill="white" stroke="#666666" points="267,-168 98.75,-168 98.75,-148 267,-148 267,-168"/>
<text text-anchor="middle" x="182.88" y="-154.5" font-family="Helvetica,sans-Serif" font-size="10.00">TaskAPI.Contexts.TaskAPIContext</text>
</a>
</g>
</g>
<!-- Node3&#45;&gt;Node1 -->
<g id="edge9_Node000001_Node000003" class="edge">
<title>Node3&#45;&gt;Node1</title>
<g id="a_edge9_Node000001_Node000003"><a xlink:title=" ">
<path fill="none" stroke="#9a32cd" stroke-dasharray="5,2" d="M191.89,-178.58C205.6,-210.77 236.85,-272.3 285,-301 390.36,-363.81 453.38,-271.64 559,-334 570.79,-340.96 565.47,-351.62 577,-359 633.72,-395.33 658.76,-381.03 725.75,-388 846.22,-400.53 877.13,-391.11 998.25,-392 1028.25,-392.22 1035.83,-394.23 1065.75,-392 1073.66,-391.41 1081.94,-390.53 1090.11,-389.49"/>
<polygon fill="#9a32cd" stroke="#9a32cd" points="195.23,-177.5 188.2,-169.57 188.75,-180.15 195.23,-177.5"/>
</a>
</g>
<text text-anchor="middle" x="642.38" y="-388.5" font-family="Helvetica,sans-Serif" font-size="10.00" fill="grey"> _context</text>
</g>
<!-- Node3&#45;&gt;Node2 -->
<g id="edge2_Node000002_Node000003" class="edge">
<title>Node3&#45;&gt;Node2</title>
<g id="a_edge2_Node000002_Node000003"><a xlink:title=" ">
<path fill="none" stroke="#9a32cd" stroke-dasharray="5,2" d="M247.84,-170.67C284.16,-177.86 329.07,-186.76 363.36,-193.55"/>
<polygon fill="#9a32cd" stroke="#9a32cd" points="248.84,-167.3 238.35,-168.79 247.48,-174.17 248.84,-167.3"/>
</a>
</g>
<text text-anchor="middle" x="306.38" y="-188.5" font-family="Helvetica,sans-Serif" font-size="10.00" fill="grey"> _context</text>
</g>
<!-- Node3&#45;&gt;Node7 -->
<g id="edge15_Node000007_Node000003" class="edge">
<title>Node3&#45;&gt;Node7</title>
<g id="a_edge15_Node000007_Node000003"><a xlink:title=" ">
<path fill="none" stroke="#9a32cd" stroke-dasharray="5,2" d="M245.73,-145.38C322.88,-130.34 459.02,-106.1 577,-97 634.94,-92.53 649.72,-93.84 707.75,-97 765,-100.12 780.75,-95.67 836,-111 853.42,-115.83 871.81,-124.07 886.56,-131.55"/>
<polygon fill="#9a32cd" stroke="#9a32cd" points="245.41,-141.88 236.27,-147.24 246.76,-148.75 245.41,-141.88"/>
</a>
</g>
<text text-anchor="middle" x="532.75" y="-105.5" font-family="Helvetica,sans-Serif" font-size="10.00" fill="grey"> _context</text>
</g>
<!-- Node3&#45;&gt;Node9 -->
<g id="edge20_Node000009_Node000003" class="edge">
<title>Node3&#45;&gt;Node9</title>
<g id="a_edge20_Node000009_Node000003"><a xlink:title=" ">
<path fill="none" stroke="#9a32cd" stroke-dasharray="5,2" d="M198.37,-138.61C231.73,-96.41 318.61,0 416.12,0 416.12,0 416.12,0 918.12,0 1021.63,0 1116.68,-104.39 1144.47,-137.83"/>
<polygon fill="#9a32cd" stroke="#9a32cd" points="195.66,-136.38 192.32,-146.44 201.2,-140.66 195.66,-136.38"/>
</a>
</g>
<text text-anchor="middle" x="642.38" y="-2.5" font-family="Helvetica,sans-Serif" font-size="10.00" fill="grey"> _context</text>
</g>
<!-- Node4 -->
<g id="Node000004" class="node">
<title>Node4</title>
<g id="a_Node000004"><a xlink:title=" ">
<polygon fill="white" stroke="#666666" points="61.75,-168 0,-168 0,-148 61.75,-148 61.75,-168"/>
<text text-anchor="middle" x="30.88" y="-154.5" font-family="Helvetica,sans-Serif" font-size="10.00">DbContext</text>
</a>
</g>
</g>
<!-- Node4&#45;&gt;Node3 -->
<g id="edge3_Node000003_Node000004" class="edge">
<title>Node4&#45;&gt;Node3</title>
<g id="a_edge3_Node000003_Node000004"><a xlink:title=" ">
<path fill="none" stroke="#63b8ff" d="M73.6,-158C81.44,-158 89.89,-158 98.48,-158"/>
<polygon fill="#63b8ff" stroke="#63b8ff" points="73.74,-154.5 63.74,-158 73.74,-161.5 73.74,-154.5"/>
</a>
</g>
</g>
<!-- Node5 -->
<g id="Node000005" class="node">
<title>Node5</title>
<g id="a_Node000005"><a xlink:href="class_task_a_p_i_1_1_helpers_1_1_settings_1_1_task_a_p_i_settings.html" target="_top" xlink:title=" ">
<polygon fill="white" stroke="#666666" points="248.25,-415 117.5,-415 117.5,-383 248.25,-383 248.25,-415"/>
<text text-anchor="start" x="125.5" y="-401.5" font-family="Helvetica,sans-Serif" font-size="10.00">TaskAPI.Helpers.Settings.</text>
<text text-anchor="middle" x="182.88" y="-389.5" font-family="Helvetica,sans-Serif" font-size="10.00">TaskAPISettings</text>
</a>
</g>
</g>
<!-- Node5&#45;&gt;Node1 -->
<g id="edge8_Node000001_Node000005" class="edge">
<title>Node5&#45;&gt;Node1</title>
<g id="a_edge8_Node000001_Node000005"><a xlink:title=" ">
<path fill="none" stroke="#9a32cd" stroke-dasharray="5,2" d="M212.27,-422.37C254.14,-454.4 336.17,-508 416.12,-508 416.12,-508 416.12,-508 918.12,-508 984.6,-508 1008.08,-517.05 1065.75,-484 1106.19,-460.83 1135.84,-411.14 1147.35,-389.47"/>
<polygon fill="#9a32cd" stroke="#9a32cd" points="214.46,-419.65 204.43,-416.25 210.15,-425.16 214.46,-419.65"/>
</a>
</g>
<text text-anchor="middle" x="642.38" y="-510.5" font-family="Helvetica,sans-Serif" font-size="10.00" fill="grey"> _settings</text>
</g>
<!-- Node5&#45;&gt;Node2 -->
<g id="edge4_Node000002_Node000005" class="edge">
<title>Node5&#45;&gt;Node2</title>
<g id="a_edge4_Node000002_Node000005"><a xlink:title=" ">
<path fill="none" stroke="#9a32cd" stroke-dasharray="5,2" d="M211.79,-375.56C262.51,-332.98 367.84,-244.54 403.79,-214.36"/>
<polygon fill="#9a32cd" stroke="#9a32cd" points="209.84,-372.63 204.44,-381.74 214.35,-377.99 209.84,-372.63"/>
</a>
</g>
<text text-anchor="middle" x="306.38" y="-315.5" font-family="Helvetica,sans-Serif" font-size="10.00" fill="grey"> _settings</text>
</g>
<!-- Node5&#45;&gt;Node6 -->
<g id="edge7_Node000006_Node000005" class="edge">
<title>Node5&#45;&gt;Node6</title>
<g id="a_edge7_Node000006_Node000005"><a xlink:title=" ">
<path fill="none" stroke="#9a32cd" stroke-dasharray="5,2" d="M260.16,-403.34C356.94,-407.14 516.42,-407.09 559,-369 590.38,-340.93 551.09,-309.18 577,-276 581.25,-270.56 586.72,-266.06 592.67,-262.36"/>
<polygon fill="#9a32cd" stroke="#9a32cd" points="260.33,-399.85 250.19,-402.93 260.04,-406.84 260.33,-399.85"/>
</a>
</g>
<text text-anchor="middle" x="417.12" y="-406.5" font-family="Helvetica,sans-Serif" font-size="10.00" fill="grey"> _settings</text>
</g>
<!-- Node5&#45;&gt;Node7 -->
<g id="edge14_Node000007_Node000005" class="edge">
<title>Node5&#45;&gt;Node7</title>
<g id="a_edge14_Node000007_Node000005"><a xlink:title=" ">
<path fill="none" stroke="#9a32cd" stroke-dasharray="5,2" d="M259.67,-380.82C340.1,-358.74 467.93,-315.45 559,-245 569.55,-236.84 565.9,-228.39 577,-221 626.89,-187.79 653.43,-213.33 707.75,-188 716.69,-183.83 716.6,-178.69 725.75,-175 766.46,-158.59 815.58,-151.91 853.73,-149.3"/>
<polygon fill="#9a32cd" stroke="#9a32cd" points="258.84,-377.42 250.1,-383.4 260.67,-384.18 258.84,-377.42"/>
</a>
</g>
<text text-anchor="middle" x="532.75" y="-282.5" font-family="Helvetica,sans-Serif" font-size="10.00" fill="grey"> _settings</text>
</g>
<!-- Node5&#45;&gt;Node9 -->
<g id="edge19_Node000009_Node000005" class="edge">
<title>Node5&#45;&gt;Node9</title>
<g id="a_edge19_Node000009_Node000005"><a xlink:title=" ">
<path fill="none" stroke="#9a32cd" stroke-dasharray="5,2" d="M259.72,-417.8C408.42,-450.32 744.3,-502.05 980.25,-374 1074.58,-322.81 1133.05,-195.47 1148.5,-158.32"/>
<polygon fill="#9a32cd" stroke="#9a32cd" points="260.48,-414.38 249.96,-415.63 258.96,-421.22 260.48,-414.38"/>
</a>
</g>
<text text-anchor="middle" x="642.38" y="-458.5" font-family="Helvetica,sans-Serif" font-size="10.00" fill="grey"> _settings</text>
</g>
<!-- Node6&#45;&gt;Node1 -->
<g id="edge5_Node000001_Node000006" class="edge">
<title>Node6&#45;&gt;Node1</title>
<g id="a_edge5_Node000001_Node000006"><a xlink:title=" ">
<path fill="none" stroke="#9a32cd" stroke-dasharray="5,2" d="M712.33,-264.81C716.85,-265.66 721.35,-266.4 725.75,-267 753.78,-270.8 953.13,-263.98 980.25,-272 1047.8,-291.98 1115.01,-346.05 1141.19,-368.75"/>
<polygon fill="#9a32cd" stroke="#9a32cd" points="713.08,-261.39 702.58,-262.8 711.67,-268.24 713.08,-261.39"/>
</a>
</g>
<text text-anchor="middle" x="917.12" y="-274.5" font-family="Helvetica,sans-Serif" font-size="10.00" fill="grey"> _iapiService</text>
</g>
<!-- Node6&#45;&gt;Node7 -->
<g id="edge13_Node000007_Node000006" class="edge">
<title>Node6&#45;&gt;Node7</title>
<g id="a_edge13_Node000007_Node000006"><a xlink:title=" ">
<path fill="none" stroke="#9a32cd" stroke-dasharray="5,2" d="M695.17,-224.31C699.57,-221.75 703.83,-218.97 707.75,-216 717.54,-208.57 715.17,-201.26 725.75,-195 768.84,-169.53 787.48,-184.3 836,-172 845.01,-169.72 854.52,-167.07 863.72,-164.4"/>
<polygon fill="#9a32cd" stroke="#9a32cd" points="693.86,-221.05 686.72,-228.88 697.19,-227.2 693.86,-221.05"/>
</a>
</g>
<text text-anchor="middle" x="780.88" y="-197.5" font-family="Helvetica,sans-Serif" font-size="10.00" fill="grey"> _iapiService</text>
</g>
<!-- Node6&#45;&gt;Node9 -->
<g id="edge18_Node000009_Node000006" class="edge">
<title>Node6&#45;&gt;Node9</title>
<g id="a_edge18_Node000009_Node000006"><a xlink:title=" ">
<path fill="none" stroke="#9a32cd" stroke-dasharray="5,2" d="M717.65,-236.02C720.39,-235.67 723.09,-235.33 725.75,-235 763.49,-230.32 1029.53,-207.58 1065.75,-196 1093,-187.29 1121.44,-169.69 1138.06,-158.4"/>
<polygon fill="#9a32cd" stroke="#9a32cd" points="717.3,-232.53 707.83,-237.28 718.19,-239.48 717.3,-232.53"/>
</a>
</g>
<text text-anchor="middle" x="917.12" y="-224.5" font-family="Helvetica,sans-Serif" font-size="10.00" fill="grey"> _iapiService</text>
</g>
<!-- Node7&#45;&gt;Node1 -->
<g id="edge10_Node000001_Node000007" class="edge">
<title>Node7&#45;&gt;Node1</title>
<g id="a_edge10_Node000001_Node000007"><a xlink:title=" ">
<path fill="none" stroke="#9a32cd" stroke-dasharray="5,2" d="M969.92,-169.28C1000.43,-183.68 1038.3,-204.99 1065.75,-232 1108.86,-274.41 1138.43,-342.58 1148.66,-368.52"/>
<polygon fill="#9a32cd" stroke="#9a32cd" points="971.39,-166.1 960.85,-165.11 968.47,-172.46 971.39,-166.1"/>
</a>
</g>
<text text-anchor="middle" x="1032" y="-234.5" font-family="Helvetica,sans-Serif" font-size="10.00" fill="grey"> _logsController</text>
</g>
<!-- Node7&#45;&gt;Node9 -->
<g id="edge21_Node000009_Node000007" class="edge">
<title>Node7&#45;&gt;Node9</title>
<g id="a_edge21_Node000009_Node000007"><a xlink:title=" ">
<path fill="none" stroke="#9a32cd" stroke-dasharray="5,2" d="M991.67,-132.73C993.88,-132.46 996.08,-132.21 998.25,-132 1028.1,-129.05 1035.87,-129.27 1065.75,-132 1078.43,-133.16 1092.01,-135.25 1104.59,-137.54"/>
<polygon fill="#9a32cd" stroke="#9a32cd" points="991.41,-129.24 981.99,-134.1 992.39,-136.17 991.41,-129.24"/>
</a>
</g>
<text text-anchor="middle" x="1032" y="-134.5" font-family="Helvetica,sans-Serif" font-size="10.00" fill="grey"> _logsController</text>
</g>
<!-- Node8 -->
<g id="Node000008" class="node">
<title>Node8</title>
<g id="a_Node000008"><a xlink:title=" ">
<polygon fill="white" stroke="#666666" points="682.25,-126 602.5,-126 602.5,-106 682.25,-106 682.25,-126"/>
<text text-anchor="middle" x="642.38" y="-112.5" font-family="Helvetica,sans-Serif" font-size="10.00">ControllerBase</text>
</a>
</g>
</g>
<!-- Node8&#45;&gt;Node7 -->
<g id="edge11_Node000007_Node000008" class="edge">
<title>Node8&#45;&gt;Node7</title>
<g id="a_edge11_Node000007_Node000008"><a xlink:title=" ">
<path fill="none" stroke="#63b8ff" d="M693.71,-115.16C732.77,-115.28 788.15,-117.12 836,-125 845.71,-126.6 855.92,-128.97 865.67,-131.59"/>
<polygon fill="#63b8ff" stroke="#63b8ff" points="693.9,-111.66 683.91,-115.17 693.91,-118.66 693.9,-111.66"/>
</a>
</g>
</g>
<!-- Node9&#45;&gt;Node7 -->
<g id="edge16_Node000007_Node000009" class="edge">
<title>Node9&#45;&gt;Node7</title>
<g id="a_edge16_Node000007_Node000009"><a xlink:title=" ">
<path fill="none" stroke="#9a32cd" stroke-dasharray="5,2" d="M1072.37,-148C1042.39,-148 1008.81,-148 980.66,-148"/>
<polygon fill="#9a32cd" stroke="#9a32cd" points="1072.15,-151.5 1082.15,-148 1072.15,-144.5 1072.15,-151.5"/>
</a>
</g>
<text text-anchor="middle" x="1032" y="-150.5" font-family="Helvetica,sans-Serif" font-size="10.00" fill="grey"> _alertHelper</text>
</g>
<!-- Node10 -->
<g id="Node000010" class="node">
<title>Node10</title>
<g id="a_Node000010"><a xlink:href="class_task_a_p_i_1_1_helpers_1_1_settings_1_1_log_notifications_settings.html" target="_top" xlink:title=" ">
<polygon fill="white" stroke="#666666" points="707.75,-317 577,-317 577,-285 707.75,-285 707.75,-317"/>
<text text-anchor="start" x="585" y="-303.5" font-family="Helvetica,sans-Serif" font-size="10.00">TaskAPI.Helpers.Settings.</text>
<text text-anchor="middle" x="642.38" y="-291.5" font-family="Helvetica,sans-Serif" font-size="10.00">LogNotificationsSettings</text>
</a>
</g>
</g>
<!-- Node10&#45;&gt;Node1 -->
<g id="edge24_Node000001_Node000010" class="edge">
<title>Node10&#45;&gt;Node1</title>
<g id="a_edge24_Node000001_Node000010"><a xlink:title=" ">
<path fill="none" stroke="#9a32cd" stroke-dasharray="5,2" d="M719.18,-318.75C721.39,-319.18 723.58,-319.6 725.75,-320 851.2,-343.09 998.9,-361.59 1083.56,-371.38"/>
<polygon fill="#9a32cd" stroke="#9a32cd" points="719.99,-315.35 709.5,-316.79 718.6,-322.21 719.99,-315.35"/>
</a>
</g>
<text text-anchor="middle" x="917.12" y="-360.5" font-family="Helvetica,sans-Serif" font-size="10.00" fill="grey"> _logNotificationsSettings</text>
</g>
<!-- Node10&#45;&gt;Node7 -->
<g id="edge23_Node000007_Node000010" class="edge">
<title>Node10&#45;&gt;Node7</title>
<g id="a_edge23_Node000007_Node000010"><a xlink:title=" ">
<path fill="none" stroke="#9a32cd" stroke-dasharray="5,2" d="M689.16,-279.67C695.41,-276.76 701.74,-273.81 707.75,-271 764.77,-244.38 786.76,-250.19 836,-211 846.16,-202.92 844.41,-196.75 854,-188 863.67,-179.18 875.49,-171.04 886.22,-164.44"/>
<polygon fill="#9a32cd" stroke="#9a32cd" points="687.75,-276.47 680.17,-283.87 690.71,-282.81 687.75,-276.47"/>
</a>
</g>
<text text-anchor="middle" x="780.88" y="-264.5" font-family="Helvetica,sans-Serif" font-size="10.00" fill="grey"> _logNotificationsSettings</text>
</g>
<!-- Node10&#45;&gt;Node9 -->
<g id="edge22_Node000009_Node000010" class="edge">
<title>Node10&#45;&gt;Node9</title>
<g id="a_edge22_Node000009_Node000010"><a xlink:title=" ">
<path fill="none" stroke="#9a32cd" stroke-dasharray="5,2" d="M719.47,-310.04C789.55,-315.41 895.21,-315.93 980.25,-284 1053.76,-256.4 1120.58,-185.15 1143.88,-158.38"/>
<polygon fill="#9a32cd" stroke="#9a32cd" points="719.87,-306.56 709.62,-309.22 719.3,-313.53 719.87,-306.56"/>
</a>
</g>
<text text-anchor="middle" x="917.12" y="-312.5" font-family="Helvetica,sans-Serif" font-size="10.00" fill="grey"> _logNotificationsSettings</text>
</g>
</g>
</svg>
