<?xml version="1.0" encoding="UTF-8" standalone="no"?>
<!DOCTYPE svg PUBLIC "-//W3C//DTD SVG 1.1//EN"
 "http://www.w3.org/Graphics/SVG/1.1/DTD/svg11.dtd">
<!-- Generated by graphviz version 9.0.0 (20230911.1827)
 -->
<!-- Title: TaskAPI.Helpers.Settings.TaskAPISettings.Polygonoraclesettings Pages: 1 -->
<svg width="189pt" height="136pt"
 viewBox="0.00 0.00 189.00 136.00" xmlns="http://www.w3.org/2000/svg" xmlns:xlink="http://www.w3.org/1999/xlink">
<g id="graph0" class="graph" transform="scale(1 1) rotate(0) translate(4 132)">
<title>TaskAPI.Helpers.Settings.TaskAPISettings.Polygonoraclesettings</title>
<!-- Node1 -->
<g id="Node000001" class="node">
<title>Node1</title>
<g id="a_Node000001"><a xlink:title=" ">
<polygon fill="#999999" stroke="none" points="181,-128 0,-128 0,0 181,0 181,-128"/>
<text text-anchor="start" x="4.62" y="-114.5" font-family="Helvetica,sans-Serif" font-size="10.00">TaskAPI.Helpers.Settings.</text>
<text text-anchor="start" x="4.62" y="-102.5" font-family="Helvetica,sans-Serif" font-size="10.00">TaskAPISettings.Polygonoraclesettings</text>
<text text-anchor="start" x="16" y="-86.5" font-family="Helvetica,sans-Serif" font-size="10.00">+</text>
<text text-anchor="start" x="38" y="-86.5" font-family="Helvetica,sans-Serif" font-size="10.00">string SourceName</text>
<text text-anchor="start" x="16" y="-70.5" font-family="Helvetica,sans-Serif" font-size="10.00">+</text>
<text text-anchor="start" x="38" y="-70.5" font-family="Helvetica,sans-Serif" font-size="10.00">int ContractDecimals</text>
<text text-anchor="start" x="16" y="-54.5" font-family="Helvetica,sans-Serif" font-size="10.00">+</text>
<text text-anchor="start" x="38" y="-54.5" font-family="Helvetica,sans-Serif" font-size="10.00">Asset[] Assets</text>
<text text-anchor="start" x="16" y="-38.5" font-family="Helvetica,sans-Serif" font-size="10.00">+</text>
<text text-anchor="start" x="38" y="-38.5" font-family="Helvetica,sans-Serif" font-size="10.00">ABI[] LatestAnswerABI</text>
<text text-anchor="start" x="16" y="-22.5" font-family="Helvetica,sans-Serif" font-size="10.00">+</text>
<text text-anchor="start" x="38" y="-22.5" font-family="Helvetica,sans-Serif" font-size="10.00">ABI[] LatestRoundDataABI</text>
<text text-anchor="start" x="89" y="-6.5" font-family="Helvetica,sans-Serif" font-size="10.00"> </text>
<polygon fill="#666666" stroke="#666666" points="0,-98 0,-98 181,-98 181,-98 0,-98"/>
<polygon fill="#666666" stroke="#666666" points="0,-18 0,-18 36,-18 36,-18 0,-18"/>
<polygon fill="#666666" stroke="#666666" points="36,-18 36,-18 181,-18 181,-18 36,-18"/>
<polygon fill="none" stroke="#666666" points="0,0 0,-128 181,-128 181,0 0,0"/>
</a>
</g>
</g>
</g>
</svg>
