<?xml version="1.0" encoding="UTF-8" standalone="no"?>
<!DOCTYPE svg PUBLIC "-//W3C//DTD SVG 1.1//EN"
 "http://www.w3.org/Graphics/SVG/1.1/DTD/svg11.dtd">
<!-- Generated by graphviz version 9.0.0 (20230911.1827)
 -->
<!-- Title: TaskAPI.Helpers.SpotHelper.SpotHelper Pages: 1 -->
<svg width="1110pt" height="102pt"
 viewBox="0.00 0.00 1109.75 102.00" xmlns="http://www.w3.org/2000/svg" xmlns:xlink="http://www.w3.org/1999/xlink">
<g id="graph0" class="graph" transform="scale(1 1) rotate(0) translate(4 98)">
<title>TaskAPI.Helpers.SpotHelper.SpotHelper</title>
<!-- Node1 -->
<g id="Node000001" class="node">
<title>Node1</title>
<g id="a_Node000001"><a xlink:title="Initialises a new instance of the SpotHelper class.">
<polygon fill="#999999" stroke="#666666" points="142.75,-66 0,-66 0,-34 142.75,-34 142.75,-66"/>
<text text-anchor="start" x="8" y="-52.5" font-family="Helvetica,sans-Serif" font-size="10.00">TaskAPI.Helpers.SpotHelper.</text>
<text text-anchor="middle" x="71.38" y="-40.5" font-family="Helvetica,sans-Serif" font-size="10.00">SpotHelper</text>
</a>
</g>
</g>
<!-- Node2 -->
<g id="Node000002" class="node">
<title>Node2</title>
<g id="a_Node000002"><a xlink:href="class_task_a_p_i_1_1_helpers_1_1_spot_helper.html#a249585457b73bcd269d8644a8120465e" target="_top" xlink:title="Determines if the market for a specific instrument is currently open.">
<polygon fill="white" stroke="#666666" points="321.5,-92 178.75,-92 178.75,-60 321.5,-60 321.5,-92"/>
<text text-anchor="start" x="186.75" y="-78.5" font-family="Helvetica,sans-Serif" font-size="10.00">TaskAPI.Helpers.SpotHelper.</text>
<text text-anchor="middle" x="250.12" y="-66.5" font-family="Helvetica,sans-Serif" font-size="10.00">IsMarketOpen</text>
</a>
</g>
</g>
<!-- Node1&#45;&gt;Node2 -->
<g id="edge1_Node000001_Node000002" class="edge">
<title>Node1&#45;&gt;Node2</title>
<g id="a_edge1_Node000001_Node000002"><a xlink:title=" ">
<path fill="none" stroke="#63b8ff" d="M143.25,-60.43C151.15,-61.59 159.24,-62.78 167.26,-63.96"/>
<polygon fill="#63b8ff" stroke="#63b8ff" points="166.62,-67.4 177.03,-65.39 167.64,-60.48 166.62,-67.4"/>
</a>
</g>
</g>
<!-- Node8 -->
<g id="Node000008" class="node">
<title>Node8</title>
<g id="a_Node000008"><a xlink:href="class_task_a_p_i_1_1_helpers_1_1_spot_helper.html#a7ff886c42d0b6aba649b98f9935772bc" target="_top" xlink:title="Retrieves the current market status override from an external service.">
<polygon fill="white" stroke="#666666" points="321.5,-41 178.75,-41 178.75,-9 321.5,-9 321.5,-41"/>
<text text-anchor="start" x="186.75" y="-27.5" font-family="Helvetica,sans-Serif" font-size="10.00">TaskAPI.Helpers.SpotHelper.</text>
<text text-anchor="middle" x="250.12" y="-15.5" font-family="Helvetica,sans-Serif" font-size="10.00">MarketStatusOverride</text>
</a>
</g>
</g>
<!-- Node1&#45;&gt;Node8 -->
<g id="edge8_Node000001_Node000008" class="edge">
<title>Node1&#45;&gt;Node8</title>
<g id="a_edge8_Node000001_Node000008"><a xlink:title=" ">
<path fill="none" stroke="#63b8ff" d="M143.25,-39.98C151.15,-38.86 159.24,-37.71 167.26,-36.58"/>
<polygon fill="#63b8ff" stroke="#63b8ff" points="167.61,-40.06 177.03,-35.2 166.63,-33.13 167.61,-40.06"/>
</a>
</g>
</g>
<!-- Node3 -->
<g id="Node000003" class="node">
<title>Node3</title>
<g id="a_Node000003"><a xlink:href="class_task_a_p_i_1_1_services_1_1_internal_a_p_i_service.html#aa614614518048e1244ae357de18425df" target="_top" xlink:title="Retrieves the price of a specified OANDA instrument in USD.">
<polygon fill="white" stroke="#666666" points="556.5,-94 357.5,-94 357.5,-62 556.5,-62 556.5,-94"/>
<text text-anchor="start" x="365.5" y="-80.5" font-family="Helvetica,sans-Serif" font-size="10.00">TaskAPI.Services.Internal</text>
<text text-anchor="middle" x="457" y="-68.5" font-family="Helvetica,sans-Serif" font-size="10.00">APIService.GetOandaInstrumentPriceUSD</text>
</a>
</g>
</g>
<!-- Node2&#45;&gt;Node3 -->
<g id="edge2_Node000002_Node000003" class="edge">
<title>Node2&#45;&gt;Node3</title>
<g id="a_edge2_Node000002_Node000003"><a xlink:title=" ">
<path fill="none" stroke="#63b8ff" d="M321.92,-76.69C329.62,-76.77 337.59,-76.84 345.63,-76.92"/>
<polygon fill="#63b8ff" stroke="#63b8ff" points="345.46,-80.42 355.49,-77.02 345.53,-73.42 345.46,-80.42"/>
</a>
</g>
</g>
<!-- Node4 -->
<g id="Node000004" class="node">
<title>Node4</title>
<g id="a_Node000004"><a xlink:href="class_task_a_p_i_1_1_services_1_1_log_service.html#a46dc9bf58bc9605c7e17dfee38b94354" target="_top" xlink:title="Logs an error message to the database.">
<polygon fill="white" stroke="#666666" points="738.25,-91 592.5,-91 592.5,-59 738.25,-59 738.25,-91"/>
<text text-anchor="start" x="600.5" y="-77.5" font-family="Helvetica,sans-Serif" font-size="10.00">TaskAPI.Services.LogService.</text>
<text text-anchor="middle" x="665.38" y="-65.5" font-family="Helvetica,sans-Serif" font-size="10.00">LogError</text>
</a>
</g>
</g>
<!-- Node3&#45;&gt;Node4 -->
<g id="edge3_Node000003_Node000004" class="edge">
<title>Node3&#45;&gt;Node4</title>
<g id="a_edge3_Node000003_Node000004"><a xlink:title=" ">
<path fill="none" stroke="#63b8ff" d="M556.96,-76.56C564.95,-76.45 572.98,-76.33 580.84,-76.21"/>
<polygon fill="#63b8ff" stroke="#63b8ff" points="580.78,-79.72 590.72,-76.07 580.67,-72.72 580.78,-79.72"/>
</a>
</g>
</g>
<!-- Node7 -->
<g id="Node000007" class="node">
<title>Node7</title>
<g id="a_Node000007"><a xlink:href="class_task_a_p_i_1_1_services_1_1_log_service.html#a78c9df658858fa3099eed69421423898" target="_top" xlink:title="Logs an exception to the database.">
<polygon fill="white" stroke="#666666" points="738.25,-41 592.5,-41 592.5,-9 738.25,-9 738.25,-41"/>
<text text-anchor="start" x="600.5" y="-27.5" font-family="Helvetica,sans-Serif" font-size="10.00">TaskAPI.Services.LogService.</text>
<text text-anchor="middle" x="665.38" y="-15.5" font-family="Helvetica,sans-Serif" font-size="10.00">LogException</text>
</a>
</g>
</g>
<!-- Node3&#45;&gt;Node7 -->
<g id="edge6_Node000003_Node000007" class="edge">
<title>Node3&#45;&gt;Node7</title>
<g id="a_edge6_Node000003_Node000007"><a xlink:title=" ">
<path fill="none" stroke="#63b8ff" d="M523.18,-61.51C534.3,-58.68 545.73,-55.76 556.5,-53 567.32,-50.22 578.75,-47.27 589.96,-44.37"/>
<polygon fill="#63b8ff" stroke="#63b8ff" points="590.81,-47.77 599.61,-41.87 589.05,-40.99 590.81,-47.77"/>
</a>
</g>
</g>
<!-- Node5 -->
<g id="Node000005" class="node">
<title>Node5</title>
<g id="a_Node000005"><a xlink:href="class_task_a_p_i_1_1_services_1_1_log_service.html#a44f0fd9db1116257087ba59c836e22ea" target="_top" xlink:title="Directly inserts a log entry into the database.">
<polygon fill="white" stroke="#666666" points="920,-66 774.25,-66 774.25,-34 920,-34 920,-66"/>
<text text-anchor="start" x="782.25" y="-52.5" font-family="Helvetica,sans-Serif" font-size="10.00">TaskAPI.Services.LogService.</text>
<text text-anchor="middle" x="847.12" y="-40.5" font-family="Helvetica,sans-Serif" font-size="10.00">InsertLog</text>
</a>
</g>
</g>
<!-- Node4&#45;&gt;Node5 -->
<g id="edge4_Node000004_Node000005" class="edge">
<title>Node4&#45;&gt;Node5</title>
<g id="a_edge4_Node000004_Node000005"><a xlink:title=" ">
<path fill="none" stroke="#63b8ff" d="M738.71,-64.94C746.6,-63.84 754.68,-62.72 762.69,-61.6"/>
<polygon fill="#63b8ff" stroke="#63b8ff" points="763.02,-65.09 772.44,-60.25 762.05,-58.16 763.02,-65.09"/>
</a>
</g>
</g>
<!-- Node6 -->
<g id="Node000006" class="node">
<title>Node6</title>
<g id="a_Node000006"><a xlink:href="class_task_a_p_i_1_1_services_1_1_log_service.html#a20f6ab73ae5cc69273da4416da65f94d" target="_top" xlink:title="Writes a log entry to a local text file as a fallback or additional logging method.">
<polygon fill="white" stroke="#666666" points="1101.75,-66 956,-66 956,-34 1101.75,-34 1101.75,-66"/>
<text text-anchor="start" x="964" y="-52.5" font-family="Helvetica,sans-Serif" font-size="10.00">TaskAPI.Services.LogService.</text>
<text text-anchor="middle" x="1028.88" y="-40.5" font-family="Helvetica,sans-Serif" font-size="10.00">WriteLog</text>
</a>
</g>
</g>
<!-- Node5&#45;&gt;Node6 -->
<g id="edge5_Node000005_Node000006" class="edge">
<title>Node5&#45;&gt;Node6</title>
<g id="a_edge5_Node000005_Node000006"><a xlink:title=" ">
<path fill="none" stroke="#63b8ff" d="M920.46,-50C928.35,-50 936.43,-50 944.44,-50"/>
<polygon fill="#63b8ff" stroke="#63b8ff" points="944.18,-53.5 954.18,-50 944.18,-46.5 944.18,-53.5"/>
</a>
</g>
</g>
<!-- Node7&#45;&gt;Node5 -->
<g id="edge7_Node000007_Node000005" class="edge">
<title>Node7&#45;&gt;Node5</title>
<g id="a_edge7_Node000007_Node000005"><a xlink:title=" ">
<path fill="none" stroke="#63b8ff" d="M738.71,-35.06C746.6,-36.16 754.68,-37.28 762.69,-38.4"/>
<polygon fill="#63b8ff" stroke="#63b8ff" points="762.05,-41.84 772.44,-39.75 763.02,-34.91 762.05,-41.84"/>
</a>
</g>
</g>
<!-- Node9 -->
<g id="Node000009" class="node">
<title>Node9</title>
<g id="a_Node000009"><a xlink:href="class_task_a_p_i_1_1_services_1_1_internal_a_p_i_service.html#a55b9f5404586ba97531f1cdc013ecaed" target="_top" xlink:title="Gets the market status override setting from Internal API.">
<polygon fill="white" stroke="#666666" points="546.38,-44 367.62,-44 367.62,0 546.38,0 546.38,-44"/>
<text text-anchor="start" x="375.62" y="-30.5" font-family="Helvetica,sans-Serif" font-size="10.00">TaskAPI.Services.Internal</text>
<text text-anchor="start" x="375.62" y="-18.5" font-family="Helvetica,sans-Serif" font-size="10.00">APIService.GetPriceappMarketStatus</text>
<text text-anchor="middle" x="457" y="-6.5" font-family="Helvetica,sans-Serif" font-size="10.00">Override</text>
</a>
</g>
</g>
<!-- Node8&#45;&gt;Node9 -->
<g id="edge9_Node000008_Node000009" class="edge">
<title>Node8&#45;&gt;Node9</title>
<g id="a_edge9_Node000008_Node000009"><a xlink:title=" ">
<path fill="none" stroke="#63b8ff" d="M321.92,-23.96C332.85,-23.8 344.31,-23.64 355.74,-23.47"/>
<polygon fill="#63b8ff" stroke="#63b8ff" points="355.67,-26.97 365.62,-23.32 355.57,-19.97 355.67,-26.97"/>
</a>
</g>
</g>
<!-- Node9&#45;&gt;Node4 -->
<g id="edge10_Node000009_Node000004" class="edge">
<title>Node9&#45;&gt;Node4</title>
<g id="a_edge10_Node000009_Node000004"><a xlink:title=" ">
<path fill="none" stroke="#63b8ff" d="M545.52,-44.48C560.14,-48.23 575.19,-52.1 589.46,-55.76"/>
<polygon fill="#63b8ff" stroke="#63b8ff" points="588.17,-59.04 598.73,-58.14 589.92,-52.26 588.17,-59.04"/>
</a>
</g>
</g>
<!-- Node9&#45;&gt;Node7 -->
<g id="edge11_Node000009_Node000007" class="edge">
<title>Node9&#45;&gt;Node7</title>
<g id="a_edge11_Node000009_Node000007"><a xlink:title=" ">
<path fill="none" stroke="#63b8ff" d="M546.72,-23.29C558.11,-23.46 569.74,-23.62 581.04,-23.79"/>
<polygon fill="#63b8ff" stroke="#63b8ff" points="580.64,-27.28 590.69,-23.93 580.74,-20.28 580.64,-27.28"/>
</a>
</g>
</g>
</g>
</svg>
