<?xml version="1.0" encoding="UTF-8" standalone="no"?>
<!DOCTYPE svg PUBLIC "-//W3C//DTD SVG 1.1//EN"
 "http://www.w3.org/Graphics/SVG/1.1/DTD/svg11.dtd">
<!-- Generated by graphviz version 9.0.0 (20230911.1827)
 -->
<!-- Title: TaskAPI.Helpers.SpotHelper.PullForexData Pages: 1 -->
<svg width="887pt" height="188pt"
 viewBox="0.00 0.00 886.75 188.33" xmlns="http://www.w3.org/2000/svg" xmlns:xlink="http://www.w3.org/1999/xlink">
<g id="graph0" class="graph" transform="scale(1 1) rotate(0) translate(4 184.33)">
<title>TaskAPI.Helpers.SpotHelper.PullForexData</title>
<!-- Node1 -->
<g id="Node000001" class="node">
<title>Node1</title>
<g id="a_Node000001"><a xlink:title="pull data from forexfeed in one hit, check single time variation is within threshold add items to spo...">
<polygon fill="#999999" stroke="#666666" points="142.75,-98.33 0,-98.33 0,-66.33 142.75,-66.33 142.75,-98.33"/>
<text text-anchor="start" x="8" y="-84.83" font-family="Helvetica,sans-Serif" font-size="10.00">TaskAPI.Helpers.SpotHelper.</text>
<text text-anchor="middle" x="71.38" y="-72.83" font-family="Helvetica,sans-Serif" font-size="10.00">PullForexData</text>
</a>
</g>
</g>
<!-- Node2 -->
<g id="Node000002" class="node">
<title>Node2</title>
<g id="a_Node000002"><a xlink:href="class_task_a_p_i_1_1_helpers_1_1_spot_helper.html#a89a665897ed47f9b7065ce771100b83c" target="_top" xlink:title="Determines whether synchronisation with the market is possible based on the current market status.">
<polygon fill="white" stroke="#666666" points="327.5,-180.33 184.75,-180.33 184.75,-148.33 327.5,-148.33 327.5,-180.33"/>
<text text-anchor="start" x="192.75" y="-166.83" font-family="Helvetica,sans-Serif" font-size="10.00">TaskAPI.Helpers.SpotHelper.</text>
<text text-anchor="middle" x="256.12" y="-154.83" font-family="Helvetica,sans-Serif" font-size="10.00">CanSync</text>
</a>
</g>
</g>
<!-- Node1&#45;&gt;Node2 -->
<g id="edge1_Node000001_Node000002" class="edge">
<title>Node1&#45;&gt;Node2</title>
<g id="a_edge1_Node000001_Node000002"><a xlink:title=" ">
<path fill="none" stroke="#63b8ff" d="M104.18,-98.71C125.16,-109.31 153.35,-123.15 178.75,-134.33 185.93,-137.49 193.55,-140.68 201.1,-143.73"/>
<polygon fill="#63b8ff" stroke="#63b8ff" points="199.67,-146.93 210.25,-147.39 202.26,-140.43 199.67,-146.93"/>
</a>
</g>
</g>
<!-- Node3 -->
<g id="Node000003" class="node">
<title>Node3</title>
<g id="a_Node000003"><a xlink:href="class_task_a_p_i_1_1_services_1_1_log_service.html#a6be037b34888bbcf6b47dca8eef472de" target="_top" xlink:title="Logs a debug message to the database.">
<polygon fill="white" stroke="#666666" points="515.25,-136.33 369.5,-136.33 369.5,-104.33 515.25,-104.33 515.25,-136.33"/>
<text text-anchor="start" x="377.5" y="-122.83" font-family="Helvetica,sans-Serif" font-size="10.00">TaskAPI.Services.LogService.</text>
<text text-anchor="middle" x="442.38" y="-110.83" font-family="Helvetica,sans-Serif" font-size="10.00">LogDebug</text>
</a>
</g>
</g>
<!-- Node1&#45;&gt;Node3 -->
<g id="edge2_Node000001_Node000003" class="edge">
<title>Node1&#45;&gt;Node3</title>
<g id="a_edge2_Node000001_Node000003"><a xlink:title=" ">
<path fill="none" stroke="#63b8ff" d="M143.09,-89.61C204.28,-95.91 292.89,-105.04 357.62,-111.71"/>
<polygon fill="#63b8ff" stroke="#63b8ff" points="357.2,-115.18 367.51,-112.72 357.92,-108.22 357.2,-115.18"/>
</a>
</g>
</g>
<!-- Node6 -->
<g id="Node000006" class="node">
<title>Node6</title>
<g id="a_Node000006"><a xlink:href="class_task_a_p_i_1_1_services_1_1_log_service.html#a46dc9bf58bc9605c7e17dfee38b94354" target="_top" xlink:title="Logs an error message to the database.">
<polygon fill="white" stroke="#666666" points="515.25,-86.33 369.5,-86.33 369.5,-54.33 515.25,-54.33 515.25,-86.33"/>
<text text-anchor="start" x="377.5" y="-72.83" font-family="Helvetica,sans-Serif" font-size="10.00">TaskAPI.Services.LogService.</text>
<text text-anchor="middle" x="442.38" y="-60.83" font-family="Helvetica,sans-Serif" font-size="10.00">LogError</text>
</a>
</g>
</g>
<!-- Node1&#45;&gt;Node6 -->
<g id="edge5_Node000001_Node000006" class="edge">
<title>Node1&#45;&gt;Node6</title>
<g id="a_edge5_Node000001_Node000006"><a xlink:title=" ">
<path fill="none" stroke="#63b8ff" d="M143.09,-80.03C204.28,-78.04 292.89,-75.16 357.62,-73.05"/>
<polygon fill="#63b8ff" stroke="#63b8ff" points="357.62,-76.56 367.5,-72.73 357.39,-69.56 357.62,-76.56"/>
</a>
</g>
</g>
<!-- Node7 -->
<g id="Node000007" class="node">
<title>Node7</title>
<g id="a_Node000007"><a xlink:href="class_task_a_p_i_1_1_services_1_1_log_service.html#a78c9df658858fa3099eed69421423898" target="_top" xlink:title="Logs an exception to the database.">
<polygon fill="white" stroke="#666666" points="515.25,-36.33 369.5,-36.33 369.5,-4.33 515.25,-4.33 515.25,-36.33"/>
<text text-anchor="start" x="377.5" y="-22.83" font-family="Helvetica,sans-Serif" font-size="10.00">TaskAPI.Services.LogService.</text>
<text text-anchor="middle" x="442.38" y="-10.83" font-family="Helvetica,sans-Serif" font-size="10.00">LogException</text>
</a>
</g>
</g>
<!-- Node1&#45;&gt;Node7 -->
<g id="edge7_Node000001_Node000007" class="edge">
<title>Node1&#45;&gt;Node7</title>
<g id="a_edge7_Node000001_Node000007"><a xlink:title=" ">
<path fill="none" stroke="#63b8ff" d="M90.3,-65.97C110.21,-49.01 144.13,-23.57 178.75,-13.33 236.81,3.85 305.28,1.33 357.75,-5.08"/>
<polygon fill="#63b8ff" stroke="#63b8ff" points="357.16,-8.53 367.53,-6.35 358.07,-1.59 357.16,-8.53"/>
</a>
</g>
</g>
<!-- Node8 -->
<g id="Node000008" class="node">
<title>Node8</title>
<g id="a_Node000008"><a xlink:href="class_task_a_p_i_1_1_services_1_1_forex_service.html#a45ca436cc529b87e410d8b208abea3b1" target="_top" xlink:title="Retrieves the latest Forex data from the configured feed.">
<polygon fill="white" stroke="#666666" points="333.5,-54.33 178.75,-54.33 178.75,-22.33 333.5,-22.33 333.5,-54.33"/>
<text text-anchor="start" x="186.75" y="-40.83" font-family="Helvetica,sans-Serif" font-size="10.00">TaskAPI.Services.ForexService.</text>
<text text-anchor="middle" x="256.12" y="-28.83" font-family="Helvetica,sans-Serif" font-size="10.00">PullFeed</text>
</a>
</g>
</g>
<!-- Node1&#45;&gt;Node8 -->
<g id="edge9_Node000001_Node000008" class="edge">
<title>Node1&#45;&gt;Node8</title>
<g id="a_edge9_Node000001_Node000008"><a xlink:title=" ">
<path fill="none" stroke="#63b8ff" d="M140.68,-65.88C152.05,-63.15 163.94,-60.29 175.56,-57.49"/>
<polygon fill="#63b8ff" stroke="#63b8ff" points="176.22,-60.93 185.12,-55.18 174.58,-54.12 176.22,-60.93"/>
</a>
</g>
</g>
<!-- Node4 -->
<g id="Node000004" class="node">
<title>Node4</title>
<g id="a_Node000004"><a xlink:href="class_task_a_p_i_1_1_services_1_1_log_service.html#a44f0fd9db1116257087ba59c836e22ea" target="_top" xlink:title="Directly inserts a log entry into the database.">
<polygon fill="white" stroke="#666666" points="697,-86.33 551.25,-86.33 551.25,-54.33 697,-54.33 697,-86.33"/>
<text text-anchor="start" x="559.25" y="-72.83" font-family="Helvetica,sans-Serif" font-size="10.00">TaskAPI.Services.LogService.</text>
<text text-anchor="middle" x="624.12" y="-60.83" font-family="Helvetica,sans-Serif" font-size="10.00">InsertLog</text>
</a>
</g>
</g>
<!-- Node3&#45;&gt;Node4 -->
<g id="edge3_Node000003_Node000004" class="edge">
<title>Node3&#45;&gt;Node4</title>
<g id="a_edge3_Node000003_Node000004"><a xlink:title=" ">
<path fill="none" stroke="#63b8ff" d="M502.23,-103.96C518.44,-99.45 536.19,-94.51 552.97,-89.85"/>
<polygon fill="#63b8ff" stroke="#63b8ff" points="553.67,-93.28 562.37,-87.23 551.8,-86.54 553.67,-93.28"/>
</a>
</g>
</g>
<!-- Node5 -->
<g id="Node000005" class="node">
<title>Node5</title>
<g id="a_Node000005"><a xlink:href="class_task_a_p_i_1_1_services_1_1_log_service.html#a20f6ab73ae5cc69273da4416da65f94d" target="_top" xlink:title="Writes a log entry to a local text file as a fallback or additional logging method.">
<polygon fill="white" stroke="#666666" points="878.75,-86.33 733,-86.33 733,-54.33 878.75,-54.33 878.75,-86.33"/>
<text text-anchor="start" x="741" y="-72.83" font-family="Helvetica,sans-Serif" font-size="10.00">TaskAPI.Services.LogService.</text>
<text text-anchor="middle" x="805.88" y="-60.83" font-family="Helvetica,sans-Serif" font-size="10.00">WriteLog</text>
</a>
</g>
</g>
<!-- Node4&#45;&gt;Node5 -->
<g id="edge4_Node000004_Node000005" class="edge">
<title>Node4&#45;&gt;Node5</title>
<g id="a_edge4_Node000004_Node000005"><a xlink:title=" ">
<path fill="none" stroke="#63b8ff" d="M697.46,-70.33C705.35,-70.33 713.43,-70.33 721.44,-70.33"/>
<polygon fill="#63b8ff" stroke="#63b8ff" points="721.18,-73.83 731.18,-70.33 721.18,-66.83 721.18,-73.83"/>
</a>
</g>
</g>
<!-- Node6&#45;&gt;Node4 -->
<g id="edge6_Node000006_Node000004" class="edge">
<title>Node6&#45;&gt;Node4</title>
<g id="a_edge6_Node000006_Node000004"><a xlink:title=" ">
<path fill="none" stroke="#63b8ff" d="M515.71,-70.33C523.6,-70.33 531.68,-70.33 539.69,-70.33"/>
<polygon fill="#63b8ff" stroke="#63b8ff" points="539.43,-73.83 549.43,-70.33 539.43,-66.83 539.43,-73.83"/>
</a>
</g>
</g>
<!-- Node7&#45;&gt;Node4 -->
<g id="edge8_Node000007_Node000004" class="edge">
<title>Node7&#45;&gt;Node4</title>
<g id="a_edge8_Node000007_Node000004"><a xlink:title=" ">
<path fill="none" stroke="#63b8ff" d="M502.23,-36.7C518.44,-41.21 536.19,-46.15 552.97,-50.82"/>
<polygon fill="#63b8ff" stroke="#63b8ff" points="551.8,-54.12 562.37,-53.43 553.67,-47.38 551.8,-54.12"/>
</a>
</g>
</g>
<!-- Node8&#45;&gt;Node6 -->
<g id="edge10_Node000008_Node000006" class="edge">
<title>Node8&#45;&gt;Node6</title>
<g id="a_edge10_Node000008_Node000006"><a xlink:title=" ">
<path fill="none" stroke="#63b8ff" d="M333.93,-51.67C341.85,-53.05 349.92,-54.45 357.91,-55.83"/>
<polygon fill="#63b8ff" stroke="#63b8ff" points="357.18,-59.26 367.63,-57.52 358.37,-52.36 357.18,-59.26"/>
</a>
</g>
</g>
<!-- Node8&#45;&gt;Node7 -->
<g id="edge11_Node000008_Node000007" class="edge">
<title>Node8&#45;&gt;Node7</title>
<g id="a_edge11_Node000008_Node000007"><a xlink:title=" ">
<path fill="none" stroke="#63b8ff" d="M333.93,-30.83C341.85,-30.05 349.92,-29.26 357.91,-28.48"/>
<polygon fill="#63b8ff" stroke="#63b8ff" points="358,-31.99 367.61,-27.54 357.32,-25.03 358,-31.99"/>
</a>
</g>
</g>
</g>
</svg>
