<?xml version="1.0" encoding="UTF-8" standalone="no"?>
<!DOCTYPE svg PUBLIC "-//W3C//DTD SVG 1.1//EN"
 "http://www.w3.org/Graphics/SVG/1.1/DTD/svg11.dtd">
<!-- Generated by graphviz version 9.0.0 (20230911.1827)
 -->
<!-- Title: TaskAPI.Helpers.SpotHelper.PullBinanceData Pages: 1 -->
<!--zoomable 144 -->

<svg id="main" version="1.1" xmlns="http://www.w3.org/2000/svg" xmlns:xlink="http://www.w3.org/1999/xlink" xml:space="preserve" onload="init(evt)">
<style type="text/css"><![CDATA[
.node, .edge {opacity: 0.7;}
.node.selected, .edge.selected {opacity: 1;}
.edge:hover path { stroke: red; }
.edge:hover polygon { stroke: red; fill: red; }
]]></style>

<defs>
  <circle id="rim" cx="0" cy="0" r="7"/>
  <circle id="rim2" cx="0" cy="0" r="3.5"/>
  <g id="zoomPlus">
    <use xlink:href="#rim" fill="#404040"><set attributeName="fill" to="#808080" begin="zoomplus.mouseover" end="zoomplus.mouseout"/></use>
    <path d="M-4,0h8M0,-4v8" fill="none" stroke="white" stroke-width="1.5" pointer-events="none"/>
  </g>
  <g id="zoomMin">
    <use xlink:href="#rim" fill="#404040"><set attributeName="fill" to="#808080" begin="zoomminus.mouseover" end="zoomminus.mouseout"/></use>
    <path d="M-4,0h8" fill="none" stroke="white" stroke-width="1.5" pointer-events="none"/>
  </g>
  <g id="arrowUp" transform="translate(30 24)">
    <use xlink:href="#rim"/>
    <path pointer-events="none" fill="none" stroke="white" stroke-width="1.5" d="M0,-3.0v7 M-2.5,-0.5L0,-3.0L2.5,-0.5"/>
  </g>
  <g id="arrowRight" transform="rotate(90) translate(36 -43)">
    <use xlink:href="#rim"/>
    <path pointer-events="none" fill="none" stroke="white" stroke-width="1.5" d="M0,-3.0v7 M-2.5,-0.5L0,-3.0L2.5,-0.5"/>
  </g>
  <g id="arrowDown" transform="rotate(180) translate(-30 -48)">
    <use xlink:href="#rim"/>
    <path pointer-events="none" fill="none" stroke="white" stroke-width="1.5" d="M0,-3.0v7 M-2.5,-0.5L0,-3.0L2.5,-0.5"/>
  </g>
  <g id="arrowLeft" transform="rotate(270) translate(-36 17)">
    <use xlink:href="#rim"/>
    <path pointer-events="none" fill="none" stroke="white" stroke-width="1.5" d="M0,-3.0v7 M-2.5,-0.5L0,-3.0L2.5,-0.5"/>
  </g>
  <g id="resetDef">
    <use xlink:href="#rim2" fill="#404040"><set attributeName="fill" to="#808080" begin="reset.mouseover" end="reset.mouseout"/></use>
  </g>
</defs>
<script type="application/ecmascript">
var viewWidth = 878;
var viewHeight = 144;
var sectionId = 'dynsection-11';
</script>
<script type="application/ecmascript" xlink:href="svg.min.js"/>
<svg id="graph" class="graph">
<g id="viewport">
<title>TaskAPI.Helpers.SpotHelper.PullBinanceData</title>
<!-- Node1 -->
<g id="Node000001" class="node">
<title>Node1</title>
<g id="a_Node000001"><a xlink:title="Retrieves spot data from Binance for each specified asset.">
<polygon fill="#999999" stroke="#666666" points="142.75,-70.23 0,-70.23 0,-38.23 142.75,-38.23 142.75,-70.23"/>
<text text-anchor="start" x="8" y="-56.73" font-family="Helvetica,sans-Serif" font-size="10.00">TaskAPI.Helpers.SpotHelper.</text>
<text text-anchor="middle" x="71.38" y="-44.73" font-family="Helvetica,sans-Serif" font-size="10.00">PullBinanceData</text>
</a>
</g>
</g>
<!-- Node2 -->
<g id="Node000002" class="node">
<title>Node2</title>
<g id="a_Node000002"><a xlink:href="class_task_a_p_i_1_1_services_1_1_log_service.html#a6be037b34888bbcf6b47dca8eef472de" target="_top" xlink:title="Logs a debug message to the database.">
<polygon fill="white" stroke="#666666" points="324.5,-136.23 178.75,-136.23 178.75,-104.23 324.5,-104.23 324.5,-136.23"/>
<text text-anchor="start" x="186.75" y="-122.73" font-family="Helvetica,sans-Serif" font-size="10.00">TaskAPI.Services.LogService.</text>
<text text-anchor="middle" x="251.62" y="-110.73" font-family="Helvetica,sans-Serif" font-size="10.00">LogDebug</text>
</a>
</g>
</g>
<!-- Node1&#45;&gt;Node2 -->
<g id="edge1_Node000001_Node000002" class="edge">
<title>Node1&#45;&gt;Node2</title>
<g id="a_edge1_Node000001_Node000002"><a xlink:title=" ">
<path fill="none" stroke="#63b8ff" d="M116.9,-70.72C140.81,-79.57 170.49,-90.56 195.81,-99.93"/>
<polygon fill="#63b8ff" stroke="#63b8ff" points="194.35,-103.13 204.94,-103.32 196.78,-96.56 194.35,-103.13"/>
</a>
</g>
</g>
<!-- Node5 -->
<g id="Node000005" class="node">
<title>Node5</title>
<g id="a_Node000005"><a xlink:href="class_task_a_p_i_1_1_services_1_1_log_service.html#a46dc9bf58bc9605c7e17dfee38b94354" target="_top" xlink:title="Logs an error message to the database.">
<polygon fill="white" stroke="#666666" points="506.25,-92.23 360.5,-92.23 360.5,-60.23 506.25,-60.23 506.25,-92.23"/>
<text text-anchor="start" x="368.5" y="-78.73" font-family="Helvetica,sans-Serif" font-size="10.00">TaskAPI.Services.LogService.</text>
<text text-anchor="middle" x="433.38" y="-66.73" font-family="Helvetica,sans-Serif" font-size="10.00">LogError</text>
</a>
</g>
</g>
<!-- Node1&#45;&gt;Node5 -->
<g id="edge4_Node000001_Node000005" class="edge">
<title>Node1&#45;&gt;Node5</title>
<g id="a_edge4_Node000001_Node000005"><a xlink:title=" ">
<path fill="none" stroke="#63b8ff" d="M143.07,-58.55C202.15,-62.16 286.53,-67.32 348.92,-71.13"/>
<polygon fill="#63b8ff" stroke="#63b8ff" points="348.6,-74.62 358.79,-71.73 349.02,-67.63 348.6,-74.62"/>
</a>
</g>
</g>
<!-- Node6 -->
<g id="Node000006" class="node">
<title>Node6</title>
<g id="a_Node000006"><a xlink:href="class_task_a_p_i_1_1_services_1_1_log_service.html#a78c9df658858fa3099eed69421423898" target="_top" xlink:title="Logs an exception to the database.">
<polygon fill="white" stroke="#666666" points="506.25,-42.23 360.5,-42.23 360.5,-10.23 506.25,-10.23 506.25,-42.23"/>
<text text-anchor="start" x="368.5" y="-28.73" font-family="Helvetica,sans-Serif" font-size="10.00">TaskAPI.Services.LogService.</text>
<text text-anchor="middle" x="433.38" y="-16.73" font-family="Helvetica,sans-Serif" font-size="10.00">LogException</text>
</a>
</g>
</g>
<!-- Node1&#45;&gt;Node6 -->
<g id="edge6_Node000001_Node000006" class="edge">
<title>Node1&#45;&gt;Node6</title>
<g id="a_edge6_Node000001_Node000006"><a xlink:title=" ">
<path fill="none" stroke="#63b8ff" d="M100.62,-37.86C121.45,-26.77 150.9,-13.11 178.75,-7.23 234.78,4.6 299.13,-0.44 349,-8.28"/>
<polygon fill="#63b8ff" stroke="#63b8ff" points="348.12,-11.69 358.56,-9.86 349.26,-4.78 348.12,-11.69"/>
</a>
</g>
</g>
<!-- Node7 -->
<g id="Node000007" class="node">
<title>Node7</title>
<g id="a_Node000007"><a xlink:href="class_task_a_p_i_1_1_services_1_1_binance_service.html#a5863f72c89f66991b6ea2172de8e4687" target="_top" xlink:title="Retrieves the latest cryptocurrency data feed from Binance.">
<polygon fill="white" stroke="#666666" points="317,-48.23 186.25,-48.23 186.25,-16.23 317,-16.23 317,-48.23"/>
<text text-anchor="start" x="194.25" y="-34.73" font-family="Helvetica,sans-Serif" font-size="10.00">TaskAPI.Services.Binance</text>
<text text-anchor="middle" x="251.62" y="-22.73" font-family="Helvetica,sans-Serif" font-size="10.00">Service.PullFeed</text>
</a>
</g>
</g>
<!-- Node1&#45;&gt;Node7 -->
<g id="edge8_Node000001_Node000007" class="edge">
<title>Node1&#45;&gt;Node7</title>
<g id="a_edge8_Node000001_Node000007"><a xlink:title=" ">
<path fill="none" stroke="#63b8ff" d="M143.08,-45.51C153.43,-44.23 164.13,-42.91 174.58,-41.62"/>
<polygon fill="#63b8ff" stroke="#63b8ff" points="174.8,-45.12 184.29,-40.42 173.94,-38.17 174.8,-45.12"/>
</a>
</g>
</g>
<!-- Node3 -->
<g id="Node000003" class="node">
<title>Node3</title>
<g id="a_Node000003"><a xlink:href="class_task_a_p_i_1_1_services_1_1_log_service.html#a44f0fd9db1116257087ba59c836e22ea" target="_top" xlink:title="Directly inserts a log entry into the database.">
<polygon fill="white" stroke="#666666" points="688,-92.23 542.25,-92.23 542.25,-60.23 688,-60.23 688,-92.23"/>
<text text-anchor="start" x="550.25" y="-78.73" font-family="Helvetica,sans-Serif" font-size="10.00">TaskAPI.Services.LogService.</text>
<text text-anchor="middle" x="615.12" y="-66.73" font-family="Helvetica,sans-Serif" font-size="10.00">InsertLog</text>
</a>
</g>
</g>
<!-- Node2&#45;&gt;Node3 -->
<g id="edge2_Node000002_Node000003" class="edge">
<title>Node2&#45;&gt;Node3</title>
<g id="a_edge2_Node000002_Node000003"><a xlink:title=" ">
<path fill="none" stroke="#63b8ff" d="M324.84,-117.76C375.77,-115.3 445.47,-110.5 506.25,-101.23 517.01,-99.59 528.29,-97.45 539.33,-95.12"/>
<polygon fill="#63b8ff" stroke="#63b8ff" points="539.76,-98.61 548.79,-93.05 538.27,-91.77 539.76,-98.61"/>
</a>
</g>
</g>
<!-- Node4 -->
<g id="Node000004" class="node">
<title>Node4</title>
<g id="a_Node000004"><a xlink:href="class_task_a_p_i_1_1_services_1_1_log_service.html#a20f6ab73ae5cc69273da4416da65f94d" target="_top" xlink:title="Writes a log entry to a local text file as a fallback or additional logging method.">
<polygon fill="white" stroke="#666666" points="869.75,-92.23 724,-92.23 724,-60.23 869.75,-60.23 869.75,-92.23"/>
<text text-anchor="start" x="732" y="-78.73" font-family="Helvetica,sans-Serif" font-size="10.00">TaskAPI.Services.LogService.</text>
<text text-anchor="middle" x="796.88" y="-66.73" font-family="Helvetica,sans-Serif" font-size="10.00">WriteLog</text>
</a>
</g>
</g>
<!-- Node3&#45;&gt;Node4 -->
<g id="edge3_Node000003_Node000004" class="edge">
<title>Node3&#45;&gt;Node4</title>
<g id="a_edge3_Node000003_Node000004"><a xlink:title=" ">
<path fill="none" stroke="#63b8ff" d="M688.46,-76.23C696.35,-76.23 704.43,-76.23 712.44,-76.23"/>
<polygon fill="#63b8ff" stroke="#63b8ff" points="712.18,-79.73 722.18,-76.23 712.18,-72.73 712.18,-79.73"/>
</a>
</g>
</g>
<!-- Node5&#45;&gt;Node3 -->
<g id="edge5_Node000005_Node000003" class="edge">
<title>Node5&#45;&gt;Node3</title>
<g id="a_edge5_Node000005_Node000003"><a xlink:title=" ">
<path fill="none" stroke="#63b8ff" d="M506.71,-76.23C514.6,-76.23 522.68,-76.23 530.69,-76.23"/>
<polygon fill="#63b8ff" stroke="#63b8ff" points="530.43,-79.73 540.43,-76.23 530.43,-72.73 530.43,-79.73"/>
</a>
</g>
</g>
<!-- Node6&#45;&gt;Node3 -->
<g id="edge7_Node000006_Node000003" class="edge">
<title>Node6&#45;&gt;Node3</title>
<g id="a_edge7_Node000006_Node000003"><a xlink:title=" ">
<path fill="none" stroke="#63b8ff" d="M493.23,-42.6C509.44,-47.11 527.19,-52.05 543.97,-56.72"/>
<polygon fill="#63b8ff" stroke="#63b8ff" points="542.8,-60.02 553.37,-59.33 544.67,-53.28 542.8,-60.02"/>
</a>
</g>
</g>
<!-- Node7&#45;&gt;Node5 -->
<g id="edge9_Node000007_Node000005" class="edge">
<title>Node7&#45;&gt;Node5</title>
<g id="a_edge9_Node000007_Node000005"><a xlink:title=" ">
<path fill="none" stroke="#63b8ff" d="M317.26,-48.05C329.13,-50.96 341.64,-54.02 353.86,-57.01"/>
<polygon fill="#63b8ff" stroke="#63b8ff" points="352.96,-60.4 363.51,-59.37 354.63,-53.6 352.96,-60.4"/>
</a>
</g>
</g>
<!-- Node7&#45;&gt;Node6 -->
<g id="edge10_Node000007_Node000006" class="edge">
<title>Node7&#45;&gt;Node6</title>
<g id="a_edge10_Node000007_Node000006"><a xlink:title=" ">
<path fill="none" stroke="#63b8ff" d="M317.26,-30.07C327.47,-29.73 338.14,-29.38 348.69,-29.02"/>
<polygon fill="#63b8ff" stroke="#63b8ff" points="348.69,-32.53 358.57,-28.7 348.45,-25.53 348.69,-32.53"/>
</a>
</g>
</g>
</g>
</svg>

<g id="navigator" transform="translate(0 0)" fill="#404254">
  <rect fill="#f2f5e9" fill-opacity="0.5" stroke="#606060" stroke-width=".5" x="0" y="0" width="60" height="60"/>
  <use id="zoomplus" xlink:href="#zoomPlus" x="17" y="9" onmousedown="handleZoom(evt,'in')"/>
  <use id="zoomminus" xlink:href="#zoomMin" x="42" y="9" onmousedown="handleZoom(evt,'out')"/>
  <use id="reset" xlink:href="#resetDef" x="30" y="36" onmousedown="handleReset()"/>
   <use id="arrowup" xlink:href="#arrowUp" x="0" y="0" onmousedown="handlePan(0,-1)"/>
  <use id="arrowright" xlink:href="#arrowRight" x="0" y="0" onmousedown="handlePan(1,0)"/>
  <use id="arrowdown" xlink:href="#arrowDown" x="0" y="0" onmousedown="handlePan(0,1)"/>
  <use id="arrowleft" xlink:href="#arrowLeft" x="0" y="0" onmousedown="handlePan(-1,0)"/>
</g>
<svg viewBox="0 0 15 15" width="100%" height="30px" preserveAspectRatio="xMaxYMin meet">
 <g id="arrow_out" transform="scale(0.3 0.3)">
  <a xlink:href="class_task_a_p_i_1_1_helpers_1_1_spot_helper_a701fc9c0beaecff83beb2c806b8581d5_cgraph_org.svg" target="_base">
   <rect id="button" ry="5" rx="5" y="6" x="6" height="38" width="38"
        fill="#f2f5e9" fill-opacity="0.5" stroke="#606060" stroke-width="1.0"/>
   <path id="arrow"
     d="M 11.500037,31.436501 C 11.940474,20.09759 22.043105,11.32322 32.158766,21.979434 L 37.068811,17.246167 C 37.068811,17.246167 37.088388,32 37.088388,32 L 22.160133,31.978069 C 22.160133,31.978069 26.997745,27.140456 26.997745,27.140456 C 18.528582,18.264221 13.291696,25.230495 11.500037,31.436501 z"
     style="fill:#404040;"/>
  </a>
 </g>
</svg>

<style type='text/css'>
<![CDATA[
[data-mouse-over-selected='false'] { opacity: 0.7; }
[data-mouse-over-selected='true']  { opacity: 1.0; }
]]>
</style>
<script type="application/ecmascript"><![CDATA[
document.addEventListener('DOMContentLoaded', (event) => {
  highlightEdges();
  highlightAdjacentNodes();
});
]]></script>
</svg>
