<?xml version="1.0" encoding="UTF-8" standalone="no"?>
<!DOCTYPE svg PUBLIC "-//W3C//DTD SVG 1.1//EN"
 "http://www.w3.org/Graphics/SVG/1.1/DTD/svg11.dtd">
<!-- Generated by graphviz version 9.0.0 (20230911.1827)
 -->
<!-- Title: TaskAPI.Controllers.SpotController.Sync Pages: 1 -->
<svg width="1274pt" height="816pt"
 viewBox="0.00 0.00 1274.25 815.82" xmlns="http://www.w3.org/2000/svg" xmlns:xlink="http://www.w3.org/1999/xlink">
<g id="graph0" class="graph" transform="scale(1 1) rotate(0) translate(4 811.82)">
<title>TaskAPI.Controllers.SpotController.Sync</title>
<!-- Node1 -->
<g id="Node000001" class="node">
<title>Node1</title>
<g id="a_Node000001"><a xlink:title="Initiates synchronisation of spot data.">
<polygon fill="#999999" stroke="#666666" points="125.5,-593.82 0,-593.82 0,-561.82 125.5,-561.82 125.5,-593.82"/>
<text text-anchor="start" x="8" y="-580.32" font-family="Helvetica,sans-Serif" font-size="10.00">TaskAPI.Controllers.Spot</text>
<text text-anchor="middle" x="62.75" y="-568.32" font-family="Helvetica,sans-Serif" font-size="10.00">Controller.Sync</text>
</a>
</g>
</g>
<!-- Node2 -->
<g id="Node000002" class="node">
<title>Node2</title>
<g id="a_Node000002"><a xlink:href="class_task_a_p_i_1_1_helpers_1_1_spot_helper.html#a89a665897ed47f9b7065ce771100b83c" target="_top" xlink:title="Determines whether synchronisation with the market is possible based on the current market status.">
<polygon fill="white" stroke="#666666" points="692.88,-159.82 550.12,-159.82 550.12,-127.82 692.88,-127.82 692.88,-159.82"/>
<text text-anchor="start" x="558.12" y="-146.32" font-family="Helvetica,sans-Serif" font-size="10.00">TaskAPI.Helpers.SpotHelper.</text>
<text text-anchor="middle" x="621.5" y="-134.32" font-family="Helvetica,sans-Serif" font-size="10.00">CanSync</text>
</a>
</g>
</g>
<!-- Node1&#45;&gt;Node2 -->
<g id="edge1_Node000001_Node000002" class="edge">
<title>Node1&#45;&gt;Node2</title>
<g id="a_edge1_Node000001_Node000002"><a xlink:title=" ">
<path fill="none" stroke="#63b8ff" d="M74.49,-561.43C108.14,-511.19 216.64,-357.26 340.25,-266.82 406.25,-218.53 494.2,-183.84 553.84,-163.86"/>
<polygon fill="#63b8ff" stroke="#63b8ff" points="554.8,-167.23 563.2,-160.77 552.61,-160.58 554.8,-167.23"/>
</a>
</g>
</g>
<!-- Node3 -->
<g id="Node000003" class="node">
<title>Node3</title>
<g id="a_Node000003"><a xlink:href="class_task_a_p_i_1_1_services_1_1_log_service.html#a5c2a67dbd8beb6f821c46b8d052d59ea" target="_top" xlink:title="Logs an informational message to the database.">
<polygon fill="white" stroke="#666666" points="486,-807.82 340.25,-807.82 340.25,-775.82 486,-775.82 486,-807.82"/>
<text text-anchor="start" x="348.25" y="-794.32" font-family="Helvetica,sans-Serif" font-size="10.00">TaskAPI.Services.LogService.</text>
<text text-anchor="middle" x="413.12" y="-782.32" font-family="Helvetica,sans-Serif" font-size="10.00">LogInformation</text>
</a>
</g>
</g>
<!-- Node1&#45;&gt;Node3 -->
<g id="edge2_Node000001_Node000003" class="edge">
<title>Node1&#45;&gt;Node3</title>
<g id="a_edge2_Node000001_Node000003"><a xlink:title=" ">
<path fill="none" stroke="#63b8ff" d="M86.33,-594.28C132.6,-627.61 242.09,-704.55 340.25,-758.82 347.6,-762.89 355.55,-766.89 363.38,-770.64"/>
<polygon fill="#63b8ff" stroke="#63b8ff" points="361.64,-773.69 372.18,-774.75 364.6,-767.35 361.64,-773.69"/>
</a>
</g>
</g>
<!-- Node6 -->
<g id="Node000006" class="node">
<title>Node6</title>
<g id="a_Node000006"><a xlink:href="class_task_a_p_i_1_1_helpers_1_1_spot_helper.html#a7b75f44b3310036d4de7f0f2956bbac1" target="_top" xlink:title="Pulls, saves, and trims spot data from various sources.">
<polygon fill="white" stroke="#666666" points="304.25,-593.82 161.5,-593.82 161.5,-561.82 304.25,-561.82 304.25,-593.82"/>
<text text-anchor="start" x="169.5" y="-580.32" font-family="Helvetica,sans-Serif" font-size="10.00">TaskAPI.Helpers.SpotHelper.</text>
<text text-anchor="middle" x="232.88" y="-568.32" font-family="Helvetica,sans-Serif" font-size="10.00">PullSaveTrim</text>
</a>
</g>
</g>
<!-- Node1&#45;&gt;Node6 -->
<g id="edge5_Node000001_Node000006" class="edge">
<title>Node1&#45;&gt;Node6</title>
<g id="a_edge5_Node000001_Node000006"><a xlink:title=" ">
<path fill="none" stroke="#63b8ff" d="M125.88,-577.82C133.7,-577.82 141.79,-577.82 149.86,-577.82"/>
<polygon fill="#63b8ff" stroke="#63b8ff" points="149.7,-581.32 159.7,-577.82 149.7,-574.32 149.7,-581.32"/>
</a>
</g>
</g>
<!-- Node4 -->
<g id="Node000004" class="node">
<title>Node4</title>
<g id="a_Node000004"><a xlink:href="class_task_a_p_i_1_1_services_1_1_log_service.html#a44f0fd9db1116257087ba59c836e22ea" target="_top" xlink:title="Directly inserts a log entry into the database.">
<polygon fill="white" stroke="#666666" points="1084.5,-517.82 938.75,-517.82 938.75,-485.82 1084.5,-485.82 1084.5,-517.82"/>
<text text-anchor="start" x="946.75" y="-504.32" font-family="Helvetica,sans-Serif" font-size="10.00">TaskAPI.Services.LogService.</text>
<text text-anchor="middle" x="1011.62" y="-492.32" font-family="Helvetica,sans-Serif" font-size="10.00">InsertLog</text>
</a>
</g>
</g>
<!-- Node3&#45;&gt;Node4 -->
<g id="edge3_Node000003_Node000004" class="edge">
<title>Node3&#45;&gt;Node4</title>
<g id="a_edge3_Node000003_Node000004"><a xlink:title=" ">
<path fill="none" stroke="#63b8ff" d="M486.44,-800.75C550.73,-805.63 645.88,-805.2 721,-772.82 847.17,-718.43 952.6,-584.21 992.98,-527.63"/>
<polygon fill="#63b8ff" stroke="#63b8ff" points="995.77,-529.74 998.67,-519.55 990.05,-525.71 995.77,-529.74"/>
</a>
</g>
</g>
<!-- Node5 -->
<g id="Node000005" class="node">
<title>Node5</title>
<g id="a_Node000005"><a xlink:href="class_task_a_p_i_1_1_services_1_1_log_service.html#a20f6ab73ae5cc69273da4416da65f94d" target="_top" xlink:title="Writes a log entry to a local text file as a fallback or additional logging method.">
<polygon fill="white" stroke="#666666" points="1266.25,-517.82 1120.5,-517.82 1120.5,-485.82 1266.25,-485.82 1266.25,-517.82"/>
<text text-anchor="start" x="1128.5" y="-504.32" font-family="Helvetica,sans-Serif" font-size="10.00">TaskAPI.Services.LogService.</text>
<text text-anchor="middle" x="1193.38" y="-492.32" font-family="Helvetica,sans-Serif" font-size="10.00">WriteLog</text>
</a>
</g>
</g>
<!-- Node4&#45;&gt;Node5 -->
<g id="edge4_Node000004_Node000005" class="edge">
<title>Node4&#45;&gt;Node5</title>
<g id="a_edge4_Node000004_Node000005"><a xlink:title=" ">
<path fill="none" stroke="#63b8ff" d="M1084.96,-501.82C1092.85,-501.82 1100.93,-501.82 1108.94,-501.82"/>
<polygon fill="#63b8ff" stroke="#63b8ff" points="1108.68,-505.32 1118.68,-501.82 1108.68,-498.32 1108.68,-505.32"/>
</a>
</g>
</g>
<!-- Node6&#45;&gt;Node3 -->
<g id="edge12_Node000006_Node000003" class="edge">
<title>Node6&#45;&gt;Node3</title>
<g id="a_edge12_Node000006_Node000003"><a xlink:title=" ">
<path fill="none" stroke="#63b8ff" d="M244.25,-593.99C258.3,-616.06 283.96,-656.97 304.25,-692.82 321.29,-722.92 314.77,-738.43 340.25,-761.82 343.37,-764.69 346.81,-767.3 350.43,-769.68"/>
<polygon fill="#63b8ff" stroke="#63b8ff" points="348.67,-772.71 359.07,-774.69 352.18,-766.65 348.67,-772.71"/>
</a>
</g>
</g>
<!-- Node7 -->
<g id="Node000007" class="node">
<title>Node7</title>
<g id="a_Node000007"><a xlink:href="class_task_a_p_i_1_1_helpers_1_1_spot_helper.html#a2d5da5f529f7ec58c18cefb373466d99" target="_top" xlink:title="Generates special spot data entries and adds them to the final spot list.">
<polygon fill="white" stroke="#666666" points="692.88,-763.82 550.12,-763.82 550.12,-731.82 692.88,-731.82 692.88,-763.82"/>
<text text-anchor="start" x="558.12" y="-750.32" font-family="Helvetica,sans-Serif" font-size="10.00">TaskAPI.Helpers.SpotHelper.</text>
<text text-anchor="middle" x="621.5" y="-738.32" font-family="Helvetica,sans-Serif" font-size="10.00">GenerateSpecialData</text>
</a>
</g>
</g>
<!-- Node6&#45;&gt;Node7 -->
<g id="edge6_Node000006_Node000007" class="edge">
<title>Node6&#45;&gt;Node7</title>
<g id="a_edge6_Node000006_Node000007"><a xlink:title=" ">
<path fill="none" stroke="#63b8ff" d="M242.91,-594.08C263.1,-629.78 312.3,-713.1 340.25,-728.82 400.44,-762.68 479.81,-764.89 538.71,-760.11"/>
<polygon fill="#63b8ff" stroke="#63b8ff" points="538.68,-763.63 548.32,-759.24 538.05,-756.65 538.68,-763.63"/>
</a>
</g>
</g>
<!-- Node8 -->
<g id="Node000008" class="node">
<title>Node8</title>
<g id="a_Node000008"><a xlink:href="class_task_a_p_i_1_1_services_1_1_log_service.html#a46dc9bf58bc9605c7e17dfee38b94354" target="_top" xlink:title="Logs an error message to the database.">
<polygon fill="white" stroke="#666666" points="902.75,-533.82 757,-533.82 757,-501.82 902.75,-501.82 902.75,-533.82"/>
<text text-anchor="start" x="765" y="-520.32" font-family="Helvetica,sans-Serif" font-size="10.00">TaskAPI.Services.LogService.</text>
<text text-anchor="middle" x="829.88" y="-508.32" font-family="Helvetica,sans-Serif" font-size="10.00">LogError</text>
</a>
</g>
</g>
<!-- Node6&#45;&gt;Node8 -->
<g id="edge11_Node000006_Node000008" class="edge">
<title>Node6&#45;&gt;Node8</title>
<g id="a_edge11_Node000006_Node000008"><a xlink:title=" ">
<path fill="none" stroke="#63b8ff" d="M262.55,-594.22C283.58,-605.79 313.1,-621.08 340.25,-631.82 379.37,-647.3 480.35,-678.87 522,-684.82 609.56,-697.33 643.32,-727.12 721,-684.82 775.79,-654.99 806.98,-584.04 820.59,-544.9"/>
<polygon fill="#63b8ff" stroke="#63b8ff" points="823.88,-546.12 823.71,-535.52 817.23,-543.91 823.88,-546.12"/>
</a>
</g>
</g>
<!-- Node9 -->
<g id="Node000009" class="node">
<title>Node9</title>
<g id="a_Node000009"><a xlink:href="class_task_a_p_i_1_1_services_1_1_log_service.html#a6be037b34888bbcf6b47dca8eef472de" target="_top" xlink:title="Logs a debug message to the database.">
<polygon fill="white" stroke="#666666" points="694.38,-423.82 548.62,-423.82 548.62,-391.82 694.38,-391.82 694.38,-423.82"/>
<text text-anchor="start" x="556.62" y="-410.32" font-family="Helvetica,sans-Serif" font-size="10.00">TaskAPI.Services.LogService.</text>
<text text-anchor="middle" x="621.5" y="-398.32" font-family="Helvetica,sans-Serif" font-size="10.00">LogDebug</text>
</a>
</g>
</g>
<!-- Node6&#45;&gt;Node9 -->
<g id="edge9_Node000006_Node000009" class="edge">
<title>Node6&#45;&gt;Node9</title>
<g id="a_edge9_Node000006_Node000009"><a xlink:title=" ">
<path fill="none" stroke="#63b8ff" d="M253.61,-561.43C274.21,-544.93 307.96,-519.58 340.25,-502.82 405.36,-469.02 485.03,-443.37 542.76,-427.3"/>
<polygon fill="#63b8ff" stroke="#63b8ff" points="543.46,-430.73 552.18,-424.71 541.61,-423.98 543.46,-430.73"/>
</a>
</g>
</g>
<!-- Node10 -->
<g id="Node000010" class="node">
<title>Node10</title>
<g id="a_Node000010"><a xlink:href="class_task_a_p_i_1_1_helpers_1_1_spot_helper.html#a701fc9c0beaecff83beb2c806b8581d5" target="_top" xlink:title="Retrieves spot data from Binance for each specified asset.">
<polygon fill="white" stroke="#666666" points="484.5,-543.82 341.75,-543.82 341.75,-511.82 484.5,-511.82 484.5,-543.82"/>
<text text-anchor="start" x="349.75" y="-530.32" font-family="Helvetica,sans-Serif" font-size="10.00">TaskAPI.Helpers.SpotHelper.</text>
<text text-anchor="middle" x="413.12" y="-518.32" font-family="Helvetica,sans-Serif" font-size="10.00">PullBinanceData</text>
</a>
</g>
</g>
<!-- Node6&#45;&gt;Node10 -->
<g id="edge13_Node000006_Node000010" class="edge">
<title>Node6&#45;&gt;Node10</title>
<g id="a_edge13_Node000006_Node000010"><a xlink:title=" ">
<path fill="none" stroke="#63b8ff" d="M292.24,-561.45C308.32,-556.94 325.91,-552 342.55,-547.34"/>
<polygon fill="#63b8ff" stroke="#63b8ff" points="343.18,-550.8 351.87,-544.72 341.29,-544.06 343.18,-550.8"/>
</a>
</g>
</g>
<!-- Node13 -->
<g id="Node000013" class="node">
<title>Node13</title>
<g id="a_Node000013"><a xlink:href="class_task_a_p_i_1_1_helpers_1_1_spot_helper.html#a51135865d712678dee52479c109a61fb" target="_top" xlink:title="pull data from forexfeed in one hit, check single time variation is within threshold add items to spo...">
<polygon fill="white" stroke="#666666" points="484.5,-307.82 341.75,-307.82 341.75,-275.82 484.5,-275.82 484.5,-307.82"/>
<text text-anchor="start" x="349.75" y="-294.32" font-family="Helvetica,sans-Serif" font-size="10.00">TaskAPI.Helpers.SpotHelper.</text>
<text text-anchor="middle" x="413.12" y="-282.32" font-family="Helvetica,sans-Serif" font-size="10.00">PullForexData</text>
</a>
</g>
</g>
<!-- Node6&#45;&gt;Node13 -->
<g id="edge21_Node000006_Node000013" class="edge">
<title>Node6&#45;&gt;Node13</title>
<g id="a_edge21_Node000006_Node000013"><a xlink:title=" ">
<path fill="none" stroke="#63b8ff" d="M239.61,-561.51C253.3,-523.86 290.51,-428.93 340.25,-360.82 352.5,-344.05 369.07,-327.83 383.22,-315.33"/>
<polygon fill="#63b8ff" stroke="#63b8ff" points="385.21,-318.23 390.5,-309.05 380.64,-312.93 385.21,-318.23"/>
</a>
</g>
</g>
<!-- Node15 -->
<g id="Node000015" class="node">
<title>Node15</title>
<g id="a_Node000015"><a xlink:href="class_task_a_p_i_1_1_helpers_1_1_spot_helper.html#a0fd06a80c097c9b6fcd5ddd8b1889c18" target="_top" xlink:title="Retrieves spot data from Oanda for each specified asset.">
<polygon fill="white" stroke="#666666" points="484.5,-401.82 341.75,-401.82 341.75,-369.82 484.5,-369.82 484.5,-401.82"/>
<text text-anchor="start" x="349.75" y="-388.32" font-family="Helvetica,sans-Serif" font-size="10.00">TaskAPI.Helpers.SpotHelper.</text>
<text text-anchor="middle" x="413.12" y="-376.32" font-family="Helvetica,sans-Serif" font-size="10.00">PullOandaData</text>
</a>
</g>
</g>
<!-- Node6&#45;&gt;Node15 -->
<g id="edge29_Node000006_Node000015" class="edge">
<title>Node6&#45;&gt;Node15</title>
<g id="a_edge29_Node000006_Node000015"><a xlink:title=" ">
<path fill="none" stroke="#63b8ff" d="M244.89,-561.45C263.08,-535.01 301.28,-481.92 340.25,-442.82 352.28,-430.75 366.82,-418.81 379.66,-409"/>
<polygon fill="#63b8ff" stroke="#63b8ff" points="381.53,-411.97 387.44,-403.17 377.34,-406.37 381.53,-411.97"/>
</a>
</g>
</g>
<!-- Node17 -->
<g id="Node000017" class="node">
<title>Node17</title>
<g id="a_Node000017"><a xlink:href="class_task_a_p_i_1_1_helpers_1_1_spot_helper.html#a2ad64affbfeec15e4217d8bfccd982ff" target="_top" xlink:title="Pulls spot data from Polygon Oracle for each specified asset.">
<polygon fill="white" stroke="#666666" points="484.5,-137.82 341.75,-137.82 341.75,-105.82 484.5,-105.82 484.5,-137.82"/>
<text text-anchor="start" x="349.75" y="-124.32" font-family="Helvetica,sans-Serif" font-size="10.00">TaskAPI.Helpers.SpotHelper.</text>
<text text-anchor="middle" x="413.12" y="-112.32" font-family="Helvetica,sans-Serif" font-size="10.00">PullPolygonOracleData</text>
</a>
</g>
</g>
<!-- Node6&#45;&gt;Node17 -->
<g id="edge37_Node000006_Node000017" class="edge">
<title>Node6&#45;&gt;Node17</title>
<g id="a_edge37_Node000006_Node000017"><a xlink:title=" ">
<path fill="none" stroke="#63b8ff" d="M238.68,-561.35C252.5,-514.53 294.37,-376.91 340.25,-266.82 357.98,-224.28 382.5,-176.72 397.83,-148.04"/>
<polygon fill="#63b8ff" stroke="#63b8ff" points="400.85,-149.82 402.5,-139.36 394.68,-146.5 400.85,-149.82"/>
</a>
</g>
</g>
<!-- Node19 -->
<g id="Node000019" class="node">
<title>Node19</title>
<g id="a_Node000019"><a xlink:href="class_task_a_p_i_1_1_helpers_1_1_spot_helper.html#a95400211c9214b34c8427e09776449a9" target="_top" xlink:title="Recycles the previous spot data for the given BaseSpot from the database.">
<polygon fill="white" stroke="#666666" points="484.5,-593.82 341.75,-593.82 341.75,-561.82 484.5,-561.82 484.5,-593.82"/>
<text text-anchor="start" x="349.75" y="-580.32" font-family="Helvetica,sans-Serif" font-size="10.00">TaskAPI.Helpers.SpotHelper.</text>
<text text-anchor="middle" x="413.12" y="-568.32" font-family="Helvetica,sans-Serif" font-size="10.00">RecyclePreviousSpot</text>
</a>
</g>
</g>
<!-- Node6&#45;&gt;Node19 -->
<g id="edge44_Node000006_Node000019" class="edge">
<title>Node6&#45;&gt;Node19</title>
<g id="a_edge44_Node000006_Node000019"><a xlink:title=" ">
<path fill="none" stroke="#63b8ff" d="M304.58,-577.82C312.93,-577.82 321.51,-577.82 330.01,-577.82"/>
<polygon fill="#63b8ff" stroke="#63b8ff" points="329.99,-581.32 339.99,-577.82 329.99,-574.32 329.99,-581.32"/>
</a>
</g>
</g>
<!-- Node20 -->
<g id="Node000020" class="node">
<title>Node20</title>
<g id="a_Node000020"><a xlink:href="class_task_a_p_i_1_1_services_1_1_internal_a_p_i_service.html#aeffeb1d3d59aeeab65dfe72691d21600" target="_top" xlink:title="Sends an email using Internal API&#39;s email endpoint.">
<polygon fill="white" stroke="#666666" points="685,-675.82 558,-675.82 558,-643.82 685,-643.82 685,-675.82"/>
<text text-anchor="start" x="566" y="-662.32" font-family="Helvetica,sans-Serif" font-size="10.00">TaskAPI.Services.Internal</text>
<text text-anchor="middle" x="621.5" y="-650.32" font-family="Helvetica,sans-Serif" font-size="10.00">APIService.SendEmail</text>
</a>
</g>
</g>
<!-- Node6&#45;&gt;Node20 -->
<g id="edge47_Node000006_Node000020" class="edge">
<title>Node6&#45;&gt;Node20</title>
<g id="a_edge47_Node000006_Node000020"><a xlink:title=" ">
<path fill="none" stroke="#63b8ff" d="M302.47,-594.26C315.02,-597.18 328.02,-600.14 340.25,-602.82 410.16,-618.14 490.19,-634.28 546.78,-645.46"/>
<polygon fill="#63b8ff" stroke="#63b8ff" points="545.8,-648.83 556.29,-647.33 547.16,-641.97 545.8,-648.83"/>
</a>
</g>
</g>
<!-- Node21 -->
<g id="Node000021" class="node">
<title>Node21</title>
<g id="a_Node000021"><a xlink:href="class_task_a_p_i_1_1_helpers_1_1_spot_helper.html#adeeda07d908e3644d9ba13213077d205" target="_top" xlink:title="Removes spot data entries older than a specified number of days from the database.">
<polygon fill="white" stroke="#666666" points="484.5,-719.82 341.75,-719.82 341.75,-687.82 484.5,-687.82 484.5,-719.82"/>
<text text-anchor="start" x="349.75" y="-706.32" font-family="Helvetica,sans-Serif" font-size="10.00">TaskAPI.Helpers.SpotHelper.</text>
<text text-anchor="middle" x="413.12" y="-694.32" font-family="Helvetica,sans-Serif" font-size="10.00">TrimSpotData</text>
</a>
</g>
</g>
<!-- Node6&#45;&gt;Node21 -->
<g id="edge50_Node000006_Node000021" class="edge">
<title>Node6&#45;&gt;Node21</title>
<g id="a_edge50_Node000006_Node000021"><a xlink:title=" ">
<path fill="none" stroke="#63b8ff" d="M248.71,-594.29C268.1,-615.04 303.9,-650.79 340.25,-673.82 345.12,-676.91 350.37,-679.8 355.72,-682.48"/>
<polygon fill="#63b8ff" stroke="#63b8ff" points="354.19,-685.62 364.72,-686.7 357.16,-679.28 354.19,-685.62"/>
</a>
</g>
</g>
<!-- Node7&#45;&gt;Node8 -->
<g id="edge7_Node000007_Node000008" class="edge">
<title>Node7&#45;&gt;Node8</title>
<g id="a_edge7_Node000007_Node000008"><a xlink:title=" ">
<path fill="none" stroke="#63b8ff" d="M693.22,-733.74C703.21,-729.7 712.84,-724.5 721,-717.82 777.23,-671.8 808.39,-588.47 821.45,-545.34"/>
<polygon fill="#63b8ff" stroke="#63b8ff" points="824.8,-546.34 824.23,-535.76 818.08,-544.39 824.8,-546.34"/>
</a>
</g>
</g>
<!-- Node8&#45;&gt;Node4 -->
<g id="edge8_Node000008_Node000004" class="edge">
<title>Node8&#45;&gt;Node4</title>
<g id="a_edge8_Node000008_Node000004"><a xlink:title=" ">
<path fill="none" stroke="#63b8ff" d="M903.21,-511.38C911.1,-510.68 919.18,-509.96 927.19,-509.25"/>
<polygon fill="#63b8ff" stroke="#63b8ff" points="927.28,-512.75 936.93,-508.38 926.66,-505.78 927.28,-512.75"/>
</a>
</g>
</g>
<!-- Node9&#45;&gt;Node4 -->
<g id="edge10_Node000009_Node000004" class="edge">
<title>Node9&#45;&gt;Node4</title>
<g id="a_edge10_Node000009_Node000004"><a xlink:title=" ">
<path fill="none" stroke="#63b8ff" d="M690.55,-424.3C757.83,-440.6 860.7,-465.51 931.56,-482.67"/>
<polygon fill="#63b8ff" stroke="#63b8ff" points="930.64,-486.05 941.18,-485 932.29,-479.25 930.64,-486.05"/>
</a>
</g>
</g>
<!-- Node10&#45;&gt;Node8 -->
<g id="edge15_Node000010_Node000008" class="edge">
<title>Node10&#45;&gt;Node8</title>
<g id="a_edge15_Node000010_Node000008"><a xlink:title=" ">
<path fill="none" stroke="#63b8ff" d="M460.76,-544.31C479.54,-550.13 501.55,-555.94 522,-558.82 609.58,-571.16 634.01,-574.8 721,-558.82 742.68,-554.84 765.65,-546.71 784.8,-538.73"/>
<polygon fill="#63b8ff" stroke="#63b8ff" points="786.1,-541.98 793.91,-534.81 783.34,-535.55 786.1,-541.98"/>
</a>
</g>
</g>
<!-- Node10&#45;&gt;Node9 -->
<g id="edge14_Node000010_Node000009" class="edge">
<title>Node10&#45;&gt;Node9</title>
<g id="a_edge14_Node000010_Node000009"><a xlink:title=" ">
<path fill="none" stroke="#63b8ff" d="M435.52,-511.5C449.98,-500.31 469.4,-484.98 486,-470.82 502.51,-456.74 503.15,-448.58 522,-437.82 528.11,-434.33 534.68,-431.21 541.4,-428.41"/>
<polygon fill="#63b8ff" stroke="#63b8ff" points="542.59,-431.71 550.66,-424.84 540.07,-425.18 542.59,-431.71"/>
</a>
</g>
</g>
<!-- Node11 -->
<g id="Node000011" class="node">
<title>Node11</title>
<g id="a_Node000011"><a xlink:href="class_task_a_p_i_1_1_services_1_1_log_service.html#a78c9df658858fa3099eed69421423898" target="_top" xlink:title="Logs an exception to the database.">
<polygon fill="white" stroke="#666666" points="902.75,-329.82 757,-329.82 757,-297.82 902.75,-297.82 902.75,-329.82"/>
<text text-anchor="start" x="765" y="-316.32" font-family="Helvetica,sans-Serif" font-size="10.00">TaskAPI.Services.LogService.</text>
<text text-anchor="middle" x="829.88" y="-304.32" font-family="Helvetica,sans-Serif" font-size="10.00">LogException</text>
</a>
</g>
</g>
<!-- Node10&#45;&gt;Node11 -->
<g id="edge16_Node000010_Node000011" class="edge">
<title>Node10&#45;&gt;Node11</title>
<g id="a_edge16_Node000010_Node000011"><a xlink:title=" ">
<path fill="none" stroke="#63b8ff" d="M481.56,-511.4C559.17,-491.73 681.08,-458.26 721,-432.82 759.54,-408.27 792.94,-366.39 811.99,-339.42"/>
<polygon fill="#63b8ff" stroke="#63b8ff" points="814.68,-341.69 817.48,-331.47 808.92,-337.71 814.68,-341.69"/>
</a>
</g>
</g>
<!-- Node12 -->
<g id="Node000012" class="node">
<title>Node12</title>
<g id="a_Node000012"><a xlink:href="class_task_a_p_i_1_1_services_1_1_binance_service.html#a5863f72c89f66991b6ea2172de8e4687" target="_top" xlink:title="Retrieves the latest cryptocurrency data feed from Binance.">
<polygon fill="white" stroke="#666666" points="686.88,-549.82 556.12,-549.82 556.12,-517.82 686.88,-517.82 686.88,-549.82"/>
<text text-anchor="start" x="564.12" y="-536.32" font-family="Helvetica,sans-Serif" font-size="10.00">TaskAPI.Services.Binance</text>
<text text-anchor="middle" x="621.5" y="-524.32" font-family="Helvetica,sans-Serif" font-size="10.00">Service.PullFeed</text>
</a>
</g>
</g>
<!-- Node10&#45;&gt;Node12 -->
<g id="edge18_Node000010_Node000012" class="edge">
<title>Node10&#45;&gt;Node12</title>
<g id="a_edge18_Node000010_Node000012"><a xlink:title=" ">
<path fill="none" stroke="#63b8ff" d="M484.86,-529.88C504.07,-530.44 524.96,-531.04 544.46,-531.61"/>
<polygon fill="#63b8ff" stroke="#63b8ff" points="544.14,-535.1 554.24,-531.9 544.34,-528.11 544.14,-535.1"/>
</a>
</g>
</g>
<!-- Node11&#45;&gt;Node4 -->
<g id="edge17_Node000011_Node000004" class="edge">
<title>Node11&#45;&gt;Node4</title>
<g id="a_edge17_Node000011_Node000004"><a xlink:title=" ">
<path fill="none" stroke="#63b8ff" d="M846.51,-330.18C878.12,-363.23 949.75,-438.16 987.05,-477.17"/>
<polygon fill="#63b8ff" stroke="#63b8ff" points="984.41,-479.47 993.85,-484.28 989.47,-474.63 984.41,-479.47"/>
</a>
</g>
</g>
<!-- Node12&#45;&gt;Node8 -->
<g id="edge19_Node000012_Node000008" class="edge">
<title>Node12&#45;&gt;Node8</title>
<g id="a_edge19_Node000012_Node000008"><a xlink:title=" ">
<path fill="none" stroke="#63b8ff" d="M687.23,-528.8C705.71,-527.37 726.11,-525.79 745.53,-524.28"/>
<polygon fill="#63b8ff" stroke="#63b8ff" points="745.63,-527.79 755.33,-523.52 745.08,-520.81 745.63,-527.79"/>
</a>
</g>
</g>
<!-- Node12&#45;&gt;Node11 -->
<g id="edge20_Node000012_Node000011" class="edge">
<title>Node12&#45;&gt;Node11</title>
<g id="a_edge20_Node000012_Node000011"><a xlink:title=" ">
<path fill="none" stroke="#63b8ff" d="M651.65,-517.44C672.38,-504.94 700.15,-486.4 721,-465.82 760.48,-426.85 795.46,-371.9 814.27,-339.86"/>
<polygon fill="#63b8ff" stroke="#63b8ff" points="817.05,-342.03 819.03,-331.62 810.99,-338.52 817.05,-342.03"/>
</a>
</g>
</g>
<!-- Node13&#45;&gt;Node2 -->
<g id="edge22_Node000013_Node000002" class="edge">
<title>Node13&#45;&gt;Node2</title>
<g id="a_edge22_Node000013_Node000002"><a xlink:title=" ">
<path fill="none" stroke="#63b8ff" d="M431.94,-275.53C446.91,-261.54 468.6,-240.56 486,-220.82 503.4,-201.08 500.38,-188.82 522,-173.82 527.36,-170.1 533.2,-166.83 539.27,-163.96"/>
<polygon fill="#63b8ff" stroke="#63b8ff" points="540.46,-167.26 548.26,-160.09 537.69,-160.83 540.46,-167.26"/>
</a>
</g>
</g>
<!-- Node13&#45;&gt;Node8 -->
<g id="edge24_Node000013_Node000008" class="edge">
<title>Node13&#45;&gt;Node8</title>
<g id="a_edge24_Node000013_Node000008"><a xlink:title=" ">
<path fill="none" stroke="#63b8ff" d="M484.66,-294.15C563.01,-297.95 683.43,-307.78 721,-332.82 777.58,-370.53 808.37,-448.77 821.35,-490.39"/>
<polygon fill="#63b8ff" stroke="#63b8ff" points="817.97,-491.3 824.18,-499.89 824.67,-489.3 817.97,-491.3"/>
</a>
</g>
</g>
<!-- Node13&#45;&gt;Node9 -->
<g id="edge23_Node000013_Node000009" class="edge">
<title>Node13&#45;&gt;Node9</title>
<g id="a_edge23_Node000013_Node000009"><a xlink:title=" ">
<path fill="none" stroke="#63b8ff" d="M428.9,-308.21C448.29,-328.7 484.3,-363.45 522,-382.82 527.02,-385.4 532.32,-387.73 537.76,-389.82"/>
<polygon fill="#63b8ff" stroke="#63b8ff" points="536.33,-393.02 546.92,-393.06 538.66,-386.43 536.33,-393.02"/>
</a>
</g>
</g>
<!-- Node13&#45;&gt;Node11 -->
<g id="edge25_Node000013_Node000011" class="edge">
<title>Node13&#45;&gt;Node11</title>
<g id="a_edge25_Node000013_Node000011"><a xlink:title=" ">
<path fill="none" stroke="#63b8ff" d="M429.38,-275.36C448.73,-255.82 484.14,-224.33 522,-211.82 605.98,-184.08 638.82,-179.12 721,-211.82 759.48,-227.13 792.15,-263.4 811.15,-288.29"/>
<polygon fill="#63b8ff" stroke="#63b8ff" points="808.31,-290.35 817.07,-296.31 813.94,-286.19 808.31,-290.35"/>
</a>
</g>
</g>
<!-- Node14 -->
<g id="Node000014" class="node">
<title>Node14</title>
<g id="a_Node000014"><a xlink:href="class_task_a_p_i_1_1_services_1_1_forex_service.html#a45ca436cc529b87e410d8b208abea3b1" target="_top" xlink:title="Retrieves the latest Forex data from the configured feed.">
<polygon fill="white" stroke="#666666" points="698.88,-285.82 544.12,-285.82 544.12,-253.82 698.88,-253.82 698.88,-285.82"/>
<text text-anchor="start" x="552.12" y="-272.32" font-family="Helvetica,sans-Serif" font-size="10.00">TaskAPI.Services.ForexService.</text>
<text text-anchor="middle" x="621.5" y="-260.32" font-family="Helvetica,sans-Serif" font-size="10.00">PullFeed</text>
</a>
</g>
</g>
<!-- Node13&#45;&gt;Node14 -->
<g id="edge26_Node000013_Node000014" class="edge">
<title>Node13&#45;&gt;Node14</title>
<g id="a_edge26_Node000013_Node000014"><a xlink:title=" ">
<path fill="none" stroke="#63b8ff" d="M484.86,-284.28C500.31,-282.63 516.85,-280.87 532.87,-279.16"/>
<polygon fill="#63b8ff" stroke="#63b8ff" points="532.78,-282.69 542.35,-278.15 532.04,-275.73 532.78,-282.69"/>
</a>
</g>
</g>
<!-- Node14&#45;&gt;Node8 -->
<g id="edge27_Node000014_Node000008" class="edge">
<title>Node14&#45;&gt;Node8</title>
<g id="a_edge27_Node000014_Node000008"><a xlink:title=" ">
<path fill="none" stroke="#63b8ff" d="M698.95,-286.06C706.9,-289.75 714.46,-294.27 721,-299.82 781.43,-351.08 811.23,-444.34 822.84,-490.47"/>
<polygon fill="#63b8ff" stroke="#63b8ff" points="819.37,-491.01 825.11,-499.92 826.17,-489.38 819.37,-491.01"/>
</a>
</g>
</g>
<!-- Node14&#45;&gt;Node11 -->
<g id="edge28_Node000014_Node000011" class="edge">
<title>Node14&#45;&gt;Node11</title>
<g id="a_edge28_Node000014_Node000011"><a xlink:title=" ">
<path fill="none" stroke="#63b8ff" d="M699.35,-286.21C714.47,-289.43 730.4,-292.83 745.72,-296.09"/>
<polygon fill="#63b8ff" stroke="#63b8ff" points="744.76,-299.47 755.27,-298.13 746.22,-292.62 744.76,-299.47"/>
</a>
</g>
</g>
<!-- Node15&#45;&gt;Node2 -->
<g id="edge30_Node000015_Node000002" class="edge">
<title>Node15&#45;&gt;Node2</title>
<g id="a_edge30_Node000015_Node000002"><a xlink:title=" ">
<path fill="none" stroke="#63b8ff" d="M436,-369.55C451.83,-356.76 472.69,-337.67 486,-316.82 512.54,-275.24 492.21,-251.14 522,-211.82 536.32,-192.92 557.44,-177.36 576.46,-165.92"/>
<polygon fill="#63b8ff" stroke="#63b8ff" points="577.95,-169.1 584.86,-161.07 574.45,-163.04 577.95,-169.1"/>
</a>
</g>
</g>
<!-- Node15&#45;&gt;Node8 -->
<g id="edge35_Node000015_Node000008" class="edge">
<title>Node15&#45;&gt;Node8</title>
<g id="a_edge35_Node000015_Node000008"><a xlink:title=" ">
<path fill="none" stroke="#63b8ff" d="M448.12,-402.1C469.12,-411.79 496.78,-423.88 522,-432.82 597.21,-459.47 685.16,-483.09 747.58,-498.62"/>
<polygon fill="#63b8ff" stroke="#63b8ff" points="746.52,-501.97 757.07,-500.97 748.2,-495.17 746.52,-501.97"/>
</a>
</g>
</g>
<!-- Node15&#45;&gt;Node9 -->
<g id="edge34_Node000015_Node000009" class="edge">
<title>Node15&#45;&gt;Node9</title>
<g id="a_edge34_Node000015_Node000009"><a xlink:title=" ">
<path fill="none" stroke="#63b8ff" d="M484.86,-393.36C501.7,-395.16 519.84,-397.09 537.19,-398.94"/>
<polygon fill="#63b8ff" stroke="#63b8ff" points="536.64,-402.4 546.95,-399.98 537.38,-395.44 536.64,-402.4"/>
</a>
</g>
</g>
<!-- Node15&#45;&gt;Node11 -->
<g id="edge36_Node000015_Node000011" class="edge">
<title>Node15&#45;&gt;Node11</title>
<g id="a_edge36_Node000015_Node000011"><a xlink:title=" ">
<path fill="none" stroke="#63b8ff" d="M434.56,-369.55C450.04,-356.47 471.13,-337.02 486,-316.82 507.21,-288.01 491.57,-263.63 522,-244.82 597.24,-198.32 636.11,-220 721,-244.82 751.35,-253.7 781.27,-274.01 801.87,-290.31"/>
<polygon fill="#63b8ff" stroke="#63b8ff" points="799.51,-292.9 809.48,-296.5 803.94,-287.47 799.51,-292.9"/>
</a>
</g>
</g>
<!-- Node16 -->
<g id="Node000016" class="node">
<title>Node16</title>
<g id="a_Node000016"><a xlink:href="class_task_a_p_i_1_1_services_1_1_internal_a_p_i_service.html#aa614614518048e1244ae357de18425df" target="_top" xlink:title="Retrieves the price of a specified OANDA instrument in USD.">
<polygon fill="white" stroke="#666666" points="721,-373.82 522,-373.82 522,-341.82 721,-341.82 721,-373.82"/>
<text text-anchor="start" x="530" y="-360.32" font-family="Helvetica,sans-Serif" font-size="10.00">TaskAPI.Services.Internal</text>
<text text-anchor="middle" x="621.5" y="-348.32" font-family="Helvetica,sans-Serif" font-size="10.00">APIService.GetOandaInstrumentPriceUSD</text>
</a>
</g>
</g>
<!-- Node15&#45;&gt;Node16 -->
<g id="edge31_Node000015_Node000016" class="edge">
<title>Node15&#45;&gt;Node16</title>
<g id="a_edge31_Node000015_Node000016"><a xlink:title=" ">
<path fill="none" stroke="#63b8ff" d="M484.86,-376.22C493.13,-375.1 501.72,-373.94 510.37,-372.76"/>
<polygon fill="#63b8ff" stroke="#63b8ff" points="510.82,-376.23 520.26,-371.42 509.88,-369.3 510.82,-376.23"/>
</a>
</g>
</g>
<!-- Node16&#45;&gt;Node8 -->
<g id="edge32_Node000016_Node000008" class="edge">
<title>Node16&#45;&gt;Node8</title>
<g id="a_edge32_Node000016_Node000008"><a xlink:title=" ">
<path fill="none" stroke="#63b8ff" d="M704.87,-374.28C710.52,-376.74 715.96,-379.57 721,-382.82 763.86,-410.45 797.36,-460.9 815.03,-491.69"/>
<polygon fill="#63b8ff" stroke="#63b8ff" points="811.95,-493.34 819.88,-500.37 818.06,-489.93 811.95,-493.34"/>
</a>
</g>
</g>
<!-- Node16&#45;&gt;Node11 -->
<g id="edge33_Node000016_Node000011" class="edge">
<title>Node16&#45;&gt;Node11</title>
<g id="a_edge33_Node000016_Node000011"><a xlink:title=" ">
<path fill="none" stroke="#63b8ff" d="M699.64,-341.38C714.66,-338.17 730.46,-334.8 745.66,-331.56"/>
<polygon fill="#63b8ff" stroke="#63b8ff" points="746.08,-335.05 755.13,-329.55 744.62,-328.21 746.08,-335.05"/>
</a>
</g>
</g>
<!-- Node17&#45;&gt;Node2 -->
<g id="edge38_Node000017_Node000002" class="edge">
<title>Node17&#45;&gt;Node2</title>
<g id="a_edge38_Node000017_Node000002"><a xlink:title=" ">
<path fill="none" stroke="#63b8ff" d="M484.86,-129.36C502.17,-131.21 520.84,-133.2 538.62,-135.09"/>
<polygon fill="#63b8ff" stroke="#63b8ff" points="538.04,-138.55 548.35,-136.13 538.78,-131.59 538.04,-138.55"/>
</a>
</g>
</g>
<!-- Node17&#45;&gt;Node8 -->
<g id="edge42_Node000017_Node000008" class="edge">
<title>Node17&#45;&gt;Node8</title>
<g id="a_edge42_Node000017_Node000008"><a xlink:title=" ">
<path fill="none" stroke="#63b8ff" d="M484.83,-110.87C564.31,-100.28 686.74,-89.71 721,-118.82 758.75,-150.9 743.69,-291.1 757,-338.82 772.59,-394.71 800,-456.93 816.09,-491.32"/>
<polygon fill="#63b8ff" stroke="#63b8ff" points="812.8,-492.55 820.24,-500.1 819.13,-489.56 812.8,-492.55"/>
</a>
</g>
</g>
<!-- Node17&#45;&gt;Node9 -->
<g id="edge41_Node000017_Node000009" class="edge">
<title>Node17&#45;&gt;Node9</title>
<g id="a_edge41_Node000017_Node000009"><a xlink:title=" ">
<path fill="none" stroke="#63b8ff" d="M423.19,-137.96C437.76,-164.33 466.69,-218.56 486,-266.82 506.05,-316.94 482.84,-345.66 522,-382.82 526.76,-387.33 532.2,-391.06 538.05,-394.14"/>
<polygon fill="#63b8ff" stroke="#63b8ff" points="536.27,-397.18 546.82,-398.11 539.15,-390.8 536.27,-397.18"/>
</a>
</g>
</g>
<!-- Node17&#45;&gt;Node11 -->
<g id="edge43_Node000017_Node000011" class="edge">
<title>Node17&#45;&gt;Node11</title>
<g id="a_edge43_Node000017_Node000011"><a xlink:title=" ">
<path fill="none" stroke="#63b8ff" d="M426.97,-105.43C445.29,-83.51 481.27,-45.71 522,-30.82 605.07,-0.46 648.17,19.36 721,-30.82 806.9,-90.01 824.45,-227.42 827.99,-286.27"/>
<polygon fill="#63b8ff" stroke="#63b8ff" points="824.49,-286.25 828.48,-296.06 831.48,-285.9 824.49,-286.25"/>
</a>
</g>
</g>
<!-- Node18 -->
<g id="Node000018" class="node">
<title>Node18</title>
<g id="a_Node000018"><a xlink:href="class_task_a_p_i_1_1_services_1_1_alchemy_service.html#a8db06c3be654656ef61b3177a0624787" target="_top" xlink:title="Retrieves the latest round data for a given smart contract address using the Alchemy API.">
<polygon fill="white" stroke="#666666" points="688.38,-71.82 554.62,-71.82 554.62,-39.82 688.38,-39.82 688.38,-71.82"/>
<text text-anchor="start" x="562.62" y="-58.32" font-family="Helvetica,sans-Serif" font-size="10.00">TaskAPI.Services.Alchemy</text>
<text text-anchor="middle" x="621.5" y="-46.32" font-family="Helvetica,sans-Serif" font-size="10.00">Service.LatestRoundData</text>
</a>
</g>
</g>
<!-- Node17&#45;&gt;Node18 -->
<g id="edge39_Node000017_Node000018" class="edge">
<title>Node17&#45;&gt;Node18</title>
<g id="a_edge39_Node000017_Node000018"><a xlink:title=" ">
<path fill="none" stroke="#63b8ff" d="M462.63,-105.33C481.17,-99.11 502.53,-92.03 522,-85.82 532.54,-82.46 543.74,-78.97 554.66,-75.61"/>
<polygon fill="#63b8ff" stroke="#63b8ff" points="555.47,-79.02 564.01,-72.75 553.42,-72.33 555.47,-79.02"/>
</a>
</g>
</g>
<!-- Node18&#45;&gt;Node11 -->
<g id="edge40_Node000018_Node000011" class="edge">
<title>Node18&#45;&gt;Node11</title>
<g id="a_edge40_Node000018_Node000011"><a xlink:title=" ">
<path fill="none" stroke="#63b8ff" d="M688.7,-67.65C700.37,-71.95 711.73,-77.82 721,-85.82 783.79,-140.04 812.72,-238.87 823.52,-286.6"/>
<polygon fill="#63b8ff" stroke="#63b8ff" points="820.04,-287.05 825.57,-296.09 826.89,-285.58 820.04,-287.05"/>
</a>
</g>
</g>
<!-- Node19&#45;&gt;Node8 -->
<g id="edge46_Node000019_Node000008" class="edge">
<title>Node19&#45;&gt;Node8</title>
<g id="a_edge46_Node000019_Node000008"><a xlink:title=" ">
<path fill="none" stroke="#63b8ff" d="M484.86,-587.76C547.89,-594.29 642.1,-598.29 721,-577.82 748.81,-570.61 777.08,-554.5 797.69,-540.78"/>
<polygon fill="#63b8ff" stroke="#63b8ff" points="799.65,-543.69 805.92,-535.15 795.69,-537.91 799.65,-543.69"/>
</a>
</g>
</g>
<!-- Node19&#45;&gt;Node9 -->
<g id="edge45_Node000019_Node000009" class="edge">
<title>Node19&#45;&gt;Node9</title>
<g id="a_edge45_Node000019_Node000009"><a xlink:title=" ">
<path fill="none" stroke="#63b8ff" d="M470.93,-561.46C476.22,-558.94 481.34,-556.08 486,-552.82 506.71,-538.35 505.16,-527.66 522,-508.82 546.13,-481.82 575.25,-452.31 595.54,-432.2"/>
<polygon fill="#63b8ff" stroke="#63b8ff" points="597.92,-434.77 602.58,-425.26 593.01,-429.79 597.92,-434.77"/>
</a>
</g>
</g>
<!-- Node20&#45;&gt;Node8 -->
<g id="edge48_Node000020_Node000008" class="edge">
<title>Node20&#45;&gt;Node8</title>
<g id="a_edge48_Node000020_Node000008"><a xlink:title=" ">
<path fill="none" stroke="#63b8ff" d="M685.26,-645.94C697.61,-641.79 710.1,-636.5 721,-629.82 758.15,-607.05 791.33,-568.48 810.78,-543.08"/>
<polygon fill="#63b8ff" stroke="#63b8ff" points="813.44,-545.36 816.64,-535.26 807.84,-541.17 813.44,-545.36"/>
</a>
</g>
</g>
<!-- Node20&#45;&gt;Node11 -->
<g id="edge49_Node000020_Node000011" class="edge">
<title>Node20&#45;&gt;Node11</title>
<g id="a_edge49_Node000020_Node000011"><a xlink:title=" ">
<path fill="none" stroke="#63b8ff" d="M642.03,-643.64C663.59,-624.98 698.25,-592.52 721,-558.82 746.61,-520.88 796.68,-396.26 818.4,-340.83"/>
<polygon fill="#63b8ff" stroke="#63b8ff" points="821.66,-342.1 822.04,-331.51 815.14,-339.56 821.66,-342.1"/>
</a>
</g>
</g>
</g>
</svg>
