<?xml version="1.0" encoding="UTF-8" standalone="no"?>
<!DOCTYPE svg PUBLIC "-//W3C//DTD SVG 1.1//EN"
 "http://www.w3.org/Graphics/SVG/1.1/DTD/svg11.dtd">
<!-- Generated by graphviz version 9.0.0 (20230911.1827)
 -->
<!-- Title: TaskAPI.Models.DTO.ForexResponse.Data.SpotInstance Pages: 1 -->
<svg width="144pt" height="104pt"
 viewBox="0.00 0.00 144.00 104.00" xmlns="http://www.w3.org/2000/svg" xmlns:xlink="http://www.w3.org/1999/xlink">
<g id="graph0" class="graph" transform="scale(1 1) rotate(0) translate(4 100)">
<title>TaskAPI.Models.DTO.ForexResponse.Data.SpotInstance</title>
<!-- Node1 -->
<g id="Node000001" class="node">
<title>Node1</title>
<g id="a_Node000001"><a xlink:title=" ">
<polygon fill="#999999" stroke="none" points="136,-96 0,-96 0,0 136,0 136,-96"/>
<text text-anchor="start" x="4.62" y="-82.5" font-family="Helvetica,sans-Serif" font-size="10.00">TaskAPI.Models.DTO.Forex</text>
<text text-anchor="start" x="4.62" y="-70.5" font-family="Helvetica,sans-Serif" font-size="10.00">Response.Data.SpotInstance</text>
<text text-anchor="start" x="22" y="-54.5" font-family="Helvetica,sans-Serif" font-size="10.00">+</text>
<text text-anchor="start" x="50" y="-54.5" font-family="Helvetica,sans-Serif" font-size="10.00">string title</text>
<text text-anchor="start" x="22" y="-38.5" font-family="Helvetica,sans-Serif" font-size="10.00">+</text>
<text text-anchor="start" x="50" y="-38.5" font-family="Helvetica,sans-Serif" font-size="10.00">string time</text>
<text text-anchor="start" x="22" y="-22.5" font-family="Helvetica,sans-Serif" font-size="10.00">+</text>
<text text-anchor="start" x="50" y="-22.5" font-family="Helvetica,sans-Serif" font-size="10.00">string ask</text>
<text text-anchor="start" x="66.5" y="-6.5" font-family="Helvetica,sans-Serif" font-size="10.00"> </text>
<polygon fill="#666666" stroke="#666666" points="0,-66 0,-66 136,-66 136,-66 0,-66"/>
<polygon fill="#666666" stroke="#666666" points="0,-18 0,-18 48,-18 48,-18 0,-18"/>
<polygon fill="#666666" stroke="#666666" points="48,-18 48,-18 136,-18 136,-18 48,-18"/>
<polygon fill="none" stroke="#666666" points="0,0 0,-96 136,-96 136,0 0,0"/>
</a>
</g>
</g>
</g>
</svg>
