<?xml version="1.0" encoding="UTF-8" standalone="no"?>
<!DOCTYPE svg PUBLIC "-//W3C//DTD SVG 1.1//EN"
 "http://www.w3.org/Graphics/SVG/1.1/DTD/svg11.dtd">
<!-- Generated by graphviz version 9.0.0 (20230911.1827)
 -->
<!-- Title: TaskAPI.Services.InternalAPIService.GetOandaInstrumentPriceUSD Pages: 1 -->
<svg width="752pt" height="90pt"
 viewBox="0.00 0.00 752.25 90.00" xmlns="http://www.w3.org/2000/svg" xmlns:xlink="http://www.w3.org/1999/xlink">
<g id="graph0" class="graph" transform="scale(1 1) rotate(0) translate(4 86)">
<title>TaskAPI.Services.InternalAPIService.GetOandaInstrumentPriceUSD</title>
<!-- Node1 -->
<g id="Node000001" class="node">
<title>Node1</title>
<g id="a_Node000001"><a xlink:title="Retrieves the price of a specified OANDA instrument in USD.">
<polygon fill="#999999" stroke="#666666" points="199,-57 0,-57 0,-25 199,-25 199,-57"/>
<text text-anchor="start" x="8" y="-43.5" font-family="Helvetica,sans-Serif" font-size="10.00">TaskAPI.Services.Internal</text>
<text text-anchor="middle" x="99.5" y="-31.5" font-family="Helvetica,sans-Serif" font-size="10.00">APIService.GetOandaInstrumentPriceUSD</text>
</a>
</g>
</g>
<!-- Node2 -->
<g id="Node000002" class="node">
<title>Node2</title>
<g id="a_Node000002"><a xlink:href="class_task_a_p_i_1_1_services_1_1_log_service.html#a46dc9bf58bc9605c7e17dfee38b94354" target="_top" xlink:title="Logs an error message to the database.">
<polygon fill="white" stroke="#666666" points="380.75,-82 235,-82 235,-50 380.75,-50 380.75,-82"/>
<text text-anchor="start" x="243" y="-68.5" font-family="Helvetica,sans-Serif" font-size="10.00">TaskAPI.Services.LogService.</text>
<text text-anchor="middle" x="307.88" y="-56.5" font-family="Helvetica,sans-Serif" font-size="10.00">LogError</text>
</a>
</g>
</g>
<!-- Node1&#45;&gt;Node2 -->
<g id="edge1_Node000001_Node000002" class="edge">
<title>Node1&#45;&gt;Node2</title>
<g id="a_edge1_Node000001_Node000002"><a xlink:title=" ">
<path fill="none" stroke="#63b8ff" d="M199.46,-52.99C207.45,-53.96 215.48,-54.93 223.34,-55.88"/>
<polygon fill="#63b8ff" stroke="#63b8ff" points="222.89,-59.35 233.23,-57.08 223.73,-52.4 222.89,-59.35"/>
</a>
</g>
</g>
<!-- Node5 -->
<g id="Node000005" class="node">
<title>Node5</title>
<g id="a_Node000005"><a xlink:href="class_task_a_p_i_1_1_services_1_1_log_service.html#a78c9df658858fa3099eed69421423898" target="_top" xlink:title="Logs an exception to the database.">
<polygon fill="white" stroke="#666666" points="380.75,-32 235,-32 235,0 380.75,0 380.75,-32"/>
<text text-anchor="start" x="243" y="-18.5" font-family="Helvetica,sans-Serif" font-size="10.00">TaskAPI.Services.LogService.</text>
<text text-anchor="middle" x="307.88" y="-6.5" font-family="Helvetica,sans-Serif" font-size="10.00">LogException</text>
</a>
</g>
</g>
<!-- Node1&#45;&gt;Node5 -->
<g id="edge4_Node000001_Node000005" class="edge">
<title>Node1&#45;&gt;Node5</title>
<g id="a_edge4_Node000001_Node000005"><a xlink:title=" ">
<path fill="none" stroke="#63b8ff" d="M199.46,-29.01C207.45,-28.04 215.48,-27.07 223.34,-26.12"/>
<polygon fill="#63b8ff" stroke="#63b8ff" points="223.73,-29.6 233.23,-24.92 222.89,-22.65 223.73,-29.6"/>
</a>
</g>
</g>
<!-- Node3 -->
<g id="Node000003" class="node">
<title>Node3</title>
<g id="a_Node000003"><a xlink:href="class_task_a_p_i_1_1_services_1_1_log_service.html#a44f0fd9db1116257087ba59c836e22ea" target="_top" xlink:title="Directly inserts a log entry into the database.">
<polygon fill="white" stroke="#666666" points="562.5,-57 416.75,-57 416.75,-25 562.5,-25 562.5,-57"/>
<text text-anchor="start" x="424.75" y="-43.5" font-family="Helvetica,sans-Serif" font-size="10.00">TaskAPI.Services.LogService.</text>
<text text-anchor="middle" x="489.62" y="-31.5" font-family="Helvetica,sans-Serif" font-size="10.00">InsertLog</text>
</a>
</g>
</g>
<!-- Node2&#45;&gt;Node3 -->
<g id="edge2_Node000002_Node000003" class="edge">
<title>Node2&#45;&gt;Node3</title>
<g id="a_edge2_Node000002_Node000003"><a xlink:title=" ">
<path fill="none" stroke="#63b8ff" d="M381.21,-55.94C389.1,-54.84 397.18,-53.72 405.19,-52.6"/>
<polygon fill="#63b8ff" stroke="#63b8ff" points="405.52,-56.09 414.94,-51.25 404.55,-49.16 405.52,-56.09"/>
</a>
</g>
</g>
<!-- Node4 -->
<g id="Node000004" class="node">
<title>Node4</title>
<g id="a_Node000004"><a xlink:href="class_task_a_p_i_1_1_services_1_1_log_service.html#a20f6ab73ae5cc69273da4416da65f94d" target="_top" xlink:title="Writes a log entry to a local text file as a fallback or additional logging method.">
<polygon fill="white" stroke="#666666" points="744.25,-57 598.5,-57 598.5,-25 744.25,-25 744.25,-57"/>
<text text-anchor="start" x="606.5" y="-43.5" font-family="Helvetica,sans-Serif" font-size="10.00">TaskAPI.Services.LogService.</text>
<text text-anchor="middle" x="671.38" y="-31.5" font-family="Helvetica,sans-Serif" font-size="10.00">WriteLog</text>
</a>
</g>
</g>
<!-- Node3&#45;&gt;Node4 -->
<g id="edge3_Node000003_Node000004" class="edge">
<title>Node3&#45;&gt;Node4</title>
<g id="a_edge3_Node000003_Node000004"><a xlink:title=" ">
<path fill="none" stroke="#63b8ff" d="M562.96,-41C570.85,-41 578.93,-41 586.94,-41"/>
<polygon fill="#63b8ff" stroke="#63b8ff" points="586.68,-44.5 596.68,-41 586.68,-37.5 586.68,-44.5"/>
</a>
</g>
</g>
<!-- Node5&#45;&gt;Node3 -->
<g id="edge5_Node000005_Node000003" class="edge">
<title>Node5&#45;&gt;Node3</title>
<g id="a_edge5_Node000005_Node000003"><a xlink:title=" ">
<path fill="none" stroke="#63b8ff" d="M381.21,-26.06C389.1,-27.16 397.18,-28.28 405.19,-29.4"/>
<polygon fill="#63b8ff" stroke="#63b8ff" points="404.55,-32.84 414.94,-30.75 405.52,-25.91 404.55,-32.84"/>
</a>
</g>
</g>
</g>
</svg>
