<?xml version="1.0" encoding="UTF-8" standalone="no"?>
<!DOCTYPE svg PUBLIC "-//W3C//DTD SVG 1.1//EN"
 "http://www.w3.org/Graphics/SVG/1.1/DTD/svg11.dtd">
<!-- Generated by graphviz version 9.0.0 (20230911.1827)
 -->
<!-- Title: TaskAPI.Helpers.SpotHelper.ExportChartData Pages: 1 -->
<svg width="888pt" height="181pt"
 viewBox="0.00 0.00 888.25 181.00" xmlns="http://www.w3.org/2000/svg" xmlns:xlink="http://www.w3.org/1999/xlink">
<g id="graph0" class="graph" transform="scale(1 1) rotate(0) translate(4 177)">
<title>TaskAPI.Helpers.SpotHelper.ExportChartData</title>
<!-- Node1 -->
<g id="Node000001" class="node">
<title>Node1</title>
<g id="a_Node000001"><a xlink:title=" ">
<polygon fill="#999999" stroke="#666666" points="142.75,-107 0,-107 0,-75 142.75,-75 142.75,-107"/>
<text text-anchor="start" x="8" y="-93.5" font-family="Helvetica,sans-Serif" font-size="10.00">TaskAPI.Helpers.SpotHelper.</text>
<text text-anchor="middle" x="71.38" y="-81.5" font-family="Helvetica,sans-Serif" font-size="10.00">ExportChartData</text>
</a>
</g>
</g>
<!-- Node2 -->
<g id="Node000002" class="node">
<title>Node2</title>
<g id="a_Node000002"><a xlink:href="class_task_a_p_i_1_1_helpers_1_1_spot_helper.html#a8840f6557abefd786be545a44454e246" target="_top" xlink:title="Converts the spot price of chart data to the specified currency.">
<polygon fill="white" stroke="#666666" points="328.25,-173 185.5,-173 185.5,-141 328.25,-141 328.25,-173"/>
<text text-anchor="start" x="193.5" y="-159.5" font-family="Helvetica,sans-Serif" font-size="10.00">TaskAPI.Helpers.SpotHelper.</text>
<text text-anchor="middle" x="256.88" y="-147.5" font-family="Helvetica,sans-Serif" font-size="10.00">ConvertChartDataCurrency</text>
</a>
</g>
</g>
<!-- Node1&#45;&gt;Node2 -->
<g id="edge1_Node000001_Node000002" class="edge">
<title>Node1&#45;&gt;Node2</title>
<g id="a_edge1_Node000001_Node000002"><a xlink:title=" ">
<path fill="none" stroke="#63b8ff" d="M118.21,-107.48C142.93,-116.38 173.65,-127.43 199.79,-136.83"/>
<polygon fill="#63b8ff" stroke="#63b8ff" points="198.29,-140.01 208.89,-140.1 200.66,-133.42 198.29,-140.01"/>
</a>
</g>
</g>
<!-- Node3 -->
<g id="Node000003" class="node">
<title>Node3</title>
<g id="a_Node000003"><a xlink:href="class_task_a_p_i_1_1_services_1_1_internal_a_p_i_service.html#a79988bdd459de2ee2b545fa7cac3d92a" target="_top" xlink:title="Fetches daily close chart data from Internal API.">
<polygon fill="white" stroke="#666666" points="335,-85 178.75,-85 178.75,-53 335,-53 335,-85"/>
<text text-anchor="start" x="186.75" y="-71.5" font-family="Helvetica,sans-Serif" font-size="10.00">TaskAPI.Services.Internal</text>
<text text-anchor="middle" x="256.88" y="-59.5" font-family="Helvetica,sans-Serif" font-size="10.00">APIService.DailyCloseChartData</text>
</a>
</g>
</g>
<!-- Node1&#45;&gt;Node3 -->
<g id="edge2_Node000001_Node000003" class="edge">
<title>Node1&#45;&gt;Node3</title>
<g id="a_edge2_Node000001_Node000003"><a xlink:title=" ">
<path fill="none" stroke="#63b8ff" d="M143.06,-82.53C150.95,-81.58 159.06,-80.61 167.14,-79.64"/>
<polygon fill="#63b8ff" stroke="#63b8ff" points="167.5,-83.12 177.02,-78.45 166.67,-76.17 167.5,-83.12"/>
</a>
</g>
</g>
<!-- Node4 -->
<g id="Node000004" class="node">
<title>Node4</title>
<g id="a_Node000004"><a xlink:href="class_task_a_p_i_1_1_services_1_1_log_service.html#a46dc9bf58bc9605c7e17dfee38b94354" target="_top" xlink:title="Logs an error message to the database.">
<polygon fill="white" stroke="#666666" points="516.75,-132 371,-132 371,-100 516.75,-100 516.75,-132"/>
<text text-anchor="start" x="379" y="-118.5" font-family="Helvetica,sans-Serif" font-size="10.00">TaskAPI.Services.LogService.</text>
<text text-anchor="middle" x="443.88" y="-106.5" font-family="Helvetica,sans-Serif" font-size="10.00">LogError</text>
</a>
</g>
</g>
<!-- Node1&#45;&gt;Node4 -->
<g id="edge10_Node000001_Node000004" class="edge">
<title>Node1&#45;&gt;Node4</title>
<g id="a_edge10_Node000001_Node000004"><a xlink:title=" ">
<path fill="none" stroke="#63b8ff" d="M142.94,-95.76C204.53,-99.92 294.02,-105.96 359.21,-110.35"/>
<polygon fill="#63b8ff" stroke="#63b8ff" points="358.96,-113.85 369.17,-111.03 359.43,-106.86 358.96,-113.85"/>
</a>
</g>
</g>
<!-- Node8 -->
<g id="Node000008" class="node">
<title>Node8</title>
<g id="a_Node000008"><a xlink:href="class_task_a_p_i_1_1_services_1_1_log_service.html#a6be037b34888bbcf6b47dca8eef472de" target="_top" xlink:title="Logs a debug message to the database.">
<polygon fill="white" stroke="#666666" points="516.75,-32 371,-32 371,0 516.75,0 516.75,-32"/>
<text text-anchor="start" x="379" y="-18.5" font-family="Helvetica,sans-Serif" font-size="10.00">TaskAPI.Services.LogService.</text>
<text text-anchor="middle" x="443.88" y="-6.5" font-family="Helvetica,sans-Serif" font-size="10.00">LogDebug</text>
</a>
</g>
</g>
<!-- Node1&#45;&gt;Node8 -->
<g id="edge8_Node000001_Node000008" class="edge">
<title>Node1&#45;&gt;Node8</title>
<g id="a_edge8_Node000001_Node000008"><a xlink:title=" ">
<path fill="none" stroke="#63b8ff" d="M102.64,-74.6C123.44,-64.09 152.03,-51.13 178.75,-44 237.9,-28.21 306.73,-21.27 359.3,-18.24"/>
<polygon fill="#63b8ff" stroke="#63b8ff" points="359.29,-21.75 369.08,-17.72 358.91,-14.76 359.29,-21.75"/>
</a>
</g>
</g>
<!-- Node3&#45;&gt;Node4 -->
<g id="edge3_Node000003_Node000004" class="edge">
<title>Node3&#45;&gt;Node4</title>
<g id="a_edge3_Node000003_Node000004"><a xlink:title=" ">
<path fill="none" stroke="#63b8ff" d="M322.58,-85.44C336.94,-89.09 352.29,-92.99 367.06,-96.74"/>
<polygon fill="#63b8ff" stroke="#63b8ff" points="366.19,-100.13 376.74,-99.2 367.91,-93.34 366.19,-100.13"/>
</a>
</g>
</g>
<!-- Node7 -->
<g id="Node000007" class="node">
<title>Node7</title>
<g id="a_Node000007"><a xlink:href="class_task_a_p_i_1_1_services_1_1_log_service.html#a78c9df658858fa3099eed69421423898" target="_top" xlink:title="Logs an exception to the database.">
<polygon fill="white" stroke="#666666" points="516.75,-82 371,-82 371,-50 516.75,-50 516.75,-82"/>
<text text-anchor="start" x="379" y="-68.5" font-family="Helvetica,sans-Serif" font-size="10.00">TaskAPI.Services.LogService.</text>
<text text-anchor="middle" x="443.88" y="-56.5" font-family="Helvetica,sans-Serif" font-size="10.00">LogException</text>
</a>
</g>
</g>
<!-- Node3&#45;&gt;Node7 -->
<g id="edge6_Node000003_Node000007" class="edge">
<title>Node3&#45;&gt;Node7</title>
<g id="a_edge6_Node000003_Node000007"><a xlink:title=" ">
<path fill="none" stroke="#63b8ff" d="M335.26,-67.75C343.11,-67.62 351.11,-67.49 359.02,-67.36"/>
<polygon fill="#63b8ff" stroke="#63b8ff" points="359.07,-70.86 369.02,-67.2 358.96,-63.86 359.07,-70.86"/>
</a>
</g>
</g>
<!-- Node5 -->
<g id="Node000005" class="node">
<title>Node5</title>
<g id="a_Node000005"><a xlink:href="class_task_a_p_i_1_1_services_1_1_log_service.html#a44f0fd9db1116257087ba59c836e22ea" target="_top" xlink:title="Directly inserts a log entry into the database.">
<polygon fill="white" stroke="#666666" points="698.5,-82 552.75,-82 552.75,-50 698.5,-50 698.5,-82"/>
<text text-anchor="start" x="560.75" y="-68.5" font-family="Helvetica,sans-Serif" font-size="10.00">TaskAPI.Services.LogService.</text>
<text text-anchor="middle" x="625.62" y="-56.5" font-family="Helvetica,sans-Serif" font-size="10.00">InsertLog</text>
</a>
</g>
</g>
<!-- Node4&#45;&gt;Node5 -->
<g id="edge4_Node000004_Node000005" class="edge">
<title>Node4&#45;&gt;Node5</title>
<g id="a_edge4_Node000004_Node000005"><a xlink:title=" ">
<path fill="none" stroke="#63b8ff" d="M503.73,-99.63C519.94,-95.12 537.69,-90.18 554.47,-85.52"/>
<polygon fill="#63b8ff" stroke="#63b8ff" points="555.17,-88.95 563.87,-82.9 553.3,-82.21 555.17,-88.95"/>
</a>
</g>
</g>
<!-- Node6 -->
<g id="Node000006" class="node">
<title>Node6</title>
<g id="a_Node000006"><a xlink:href="class_task_a_p_i_1_1_services_1_1_log_service.html#a20f6ab73ae5cc69273da4416da65f94d" target="_top" xlink:title="Writes a log entry to a local text file as a fallback or additional logging method.">
<polygon fill="white" stroke="#666666" points="880.25,-82 734.5,-82 734.5,-50 880.25,-50 880.25,-82"/>
<text text-anchor="start" x="742.5" y="-68.5" font-family="Helvetica,sans-Serif" font-size="10.00">TaskAPI.Services.LogService.</text>
<text text-anchor="middle" x="807.38" y="-56.5" font-family="Helvetica,sans-Serif" font-size="10.00">WriteLog</text>
</a>
</g>
</g>
<!-- Node5&#45;&gt;Node6 -->
<g id="edge5_Node000005_Node000006" class="edge">
<title>Node5&#45;&gt;Node6</title>
<g id="a_edge5_Node000005_Node000006"><a xlink:title=" ">
<path fill="none" stroke="#63b8ff" d="M698.96,-66C706.85,-66 714.93,-66 722.94,-66"/>
<polygon fill="#63b8ff" stroke="#63b8ff" points="722.68,-69.5 732.68,-66 722.68,-62.5 722.68,-69.5"/>
</a>
</g>
</g>
<!-- Node7&#45;&gt;Node5 -->
<g id="edge7_Node000007_Node000005" class="edge">
<title>Node7&#45;&gt;Node5</title>
<g id="a_edge7_Node000007_Node000005"><a xlink:title=" ">
<path fill="none" stroke="#63b8ff" d="M517.21,-66C525.1,-66 533.18,-66 541.19,-66"/>
<polygon fill="#63b8ff" stroke="#63b8ff" points="540.93,-69.5 550.93,-66 540.93,-62.5 540.93,-69.5"/>
</a>
</g>
</g>
<!-- Node8&#45;&gt;Node5 -->
<g id="edge9_Node000008_Node000005" class="edge">
<title>Node8&#45;&gt;Node5</title>
<g id="a_edge9_Node000008_Node000005"><a xlink:title=" ">
<path fill="none" stroke="#63b8ff" d="M503.73,-32.37C519.94,-36.88 537.69,-41.82 554.47,-46.48"/>
<polygon fill="#63b8ff" stroke="#63b8ff" points="553.3,-49.79 563.87,-49.1 555.17,-43.05 553.3,-49.79"/>
</a>
</g>
</g>
</g>
</svg>
