<?xml version="1.0" encoding="UTF-8" standalone="no"?>
<!DOCTYPE svg PUBLIC "-//W3C//DTD SVG 1.1//EN"
 "http://www.w3.org/Graphics/SVG/1.1/DTD/svg11.dtd">
<!-- Generated by graphviz version 9.0.0 (20230911.1827)
 -->
<!-- Title: TaskAPI.Models.DTO.Oanda.InstrumentPrice.Price Pages: 1 -->
<svg width="146pt" height="200pt"
 viewBox="0.00 0.00 146.00 200.00" xmlns="http://www.w3.org/2000/svg" xmlns:xlink="http://www.w3.org/1999/xlink">
<g id="graph0" class="graph" transform="scale(1 1) rotate(0) translate(4 196)">
<title>TaskAPI.Models.DTO.Oanda.InstrumentPrice.Price</title>
<!-- Node1 -->
<g id="Node000001" class="node">
<title>Node1</title>
<g id="a_Node000001"><a xlink:title=" ">
<polygon fill="#999999" stroke="none" points="138,-192 0,-192 0,0 138,0 138,-192"/>
<text text-anchor="start" x="4.88" y="-178.5" font-family="Helvetica,sans-Serif" font-size="10.00">TaskAPI.Models.DTO.Oanda.</text>
<text text-anchor="start" x="22.12" y="-166.5" font-family="Helvetica,sans-Serif" font-size="10.00">InstrumentPrice.Price</text>
<text text-anchor="start" x="13.5" y="-150.5" font-family="Helvetica,sans-Serif" font-size="10.00">+</text>
<text text-anchor="start" x="33" y="-150.5" font-family="Helvetica,sans-Serif" font-size="10.00">string type</text>
<text text-anchor="start" x="13.5" y="-134.5" font-family="Helvetica,sans-Serif" font-size="10.00">+</text>
<text text-anchor="start" x="33" y="-134.5" font-family="Helvetica,sans-Serif" font-size="10.00">string time</text>
<text text-anchor="start" x="13.5" y="-118.5" font-family="Helvetica,sans-Serif" font-size="10.00">+</text>
<text text-anchor="start" x="33" y="-118.5" font-family="Helvetica,sans-Serif" font-size="10.00">Bid[] bids</text>
<text text-anchor="start" x="13.5" y="-102.5" font-family="Helvetica,sans-Serif" font-size="10.00">+</text>
<text text-anchor="start" x="33" y="-102.5" font-family="Helvetica,sans-Serif" font-size="10.00">Ask[] asks</text>
<text text-anchor="start" x="13.5" y="-86.5" font-family="Helvetica,sans-Serif" font-size="10.00">+</text>
<text text-anchor="start" x="33" y="-86.5" font-family="Helvetica,sans-Serif" font-size="10.00">string closeoutBid</text>
<text text-anchor="start" x="13.5" y="-70.5" font-family="Helvetica,sans-Serif" font-size="10.00">+</text>
<text text-anchor="start" x="33" y="-70.5" font-family="Helvetica,sans-Serif" font-size="10.00">string closeoutAsk</text>
<text text-anchor="start" x="13.5" y="-54.5" font-family="Helvetica,sans-Serif" font-size="10.00">+</text>
<text text-anchor="start" x="33" y="-54.5" font-family="Helvetica,sans-Serif" font-size="10.00">string status</text>
<text text-anchor="start" x="13.5" y="-38.5" font-family="Helvetica,sans-Serif" font-size="10.00">+</text>
<text text-anchor="start" x="33" y="-38.5" font-family="Helvetica,sans-Serif" font-size="10.00">bool tradeable</text>
<text text-anchor="start" x="13.5" y="-22.5" font-family="Helvetica,sans-Serif" font-size="10.00">+</text>
<text text-anchor="start" x="33" y="-22.5" font-family="Helvetica,sans-Serif" font-size="10.00">string instrument</text>
<text text-anchor="start" x="67.5" y="-6.5" font-family="Helvetica,sans-Serif" font-size="10.00"> </text>
<polygon fill="#666666" stroke="#666666" points="0,-162 0,-162 138,-162 138,-162 0,-162"/>
<polygon fill="#666666" stroke="#666666" points="0,-18 0,-18 31,-18 31,-18 0,-18"/>
<polygon fill="#666666" stroke="#666666" points="31,-18 31,-18 138,-18 138,-18 31,-18"/>
<polygon fill="none" stroke="#666666" points="0,0 0,-192 138,-192 138,0 0,0"/>
</a>
</g>
</g>
</g>
</svg>
