<?xml version="1.0" encoding="UTF-8" standalone="no"?>
<!DOCTYPE svg PUBLIC "-//W3C//DTD SVG 1.1//EN"
 "http://www.w3.org/Graphics/SVG/1.1/DTD/svg11.dtd">
<!-- Generated by graphviz version 9.0.0 (20230911.1827)
 -->
<!-- Title: C:/Users/STRIDER/source/repos/TaskAPI Pages: 1 -->
<!--zoomable 96 -->

<svg id="main" version="1.1" xmlns="http://www.w3.org/2000/svg" xmlns:xlink="http://www.w3.org/1999/xlink" xml:space="preserve" onload="init(evt)">
<style type="text/css"><![CDATA[
.node, .edge {opacity: 0.7;}
.node.selected, .edge.selected {opacity: 1;}
.edge:hover path { stroke: red; }
.edge:hover polygon { stroke: red; fill: red; }
]]></style>

<defs>
  <circle id="rim" cx="0" cy="0" r="7"/>
  <circle id="rim2" cx="0" cy="0" r="3.5"/>
  <g id="zoomPlus">
    <use xlink:href="#rim" fill="#404040"><set attributeName="fill" to="#808080" begin="zoomplus.mouseover" end="zoomplus.mouseout"/></use>
    <path d="M-4,0h8M0,-4v8" fill="none" stroke="white" stroke-width="1.5" pointer-events="none"/>
  </g>
  <g id="zoomMin">
    <use xlink:href="#rim" fill="#404040"><set attributeName="fill" to="#808080" begin="zoomminus.mouseover" end="zoomminus.mouseout"/></use>
    <path d="M-4,0h8" fill="none" stroke="white" stroke-width="1.5" pointer-events="none"/>
  </g>
  <g id="arrowUp" transform="translate(30 24)">
    <use xlink:href="#rim"/>
    <path pointer-events="none" fill="none" stroke="white" stroke-width="1.5" d="M0,-3.0v7 M-2.5,-0.5L0,-3.0L2.5,-0.5"/>
  </g>
  <g id="arrowRight" transform="rotate(90) translate(36 -43)">
    <use xlink:href="#rim"/>
    <path pointer-events="none" fill="none" stroke="white" stroke-width="1.5" d="M0,-3.0v7 M-2.5,-0.5L0,-3.0L2.5,-0.5"/>
  </g>
  <g id="arrowDown" transform="rotate(180) translate(-30 -48)">
    <use xlink:href="#rim"/>
    <path pointer-events="none" fill="none" stroke="white" stroke-width="1.5" d="M0,-3.0v7 M-2.5,-0.5L0,-3.0L2.5,-0.5"/>
  </g>
  <g id="arrowLeft" transform="rotate(270) translate(-36 17)">
    <use xlink:href="#rim"/>
    <path pointer-events="none" fill="none" stroke="white" stroke-width="1.5" d="M0,-3.0v7 M-2.5,-0.5L0,-3.0L2.5,-0.5"/>
  </g>
  <g id="resetDef">
    <use xlink:href="#rim2" fill="#404040"><set attributeName="fill" to="#808080" begin="reset.mouseover" end="reset.mouseout"/></use>
  </g>
</defs>
<script type="application/ecmascript">
var viewWidth = 591;
var viewHeight = 96;
var sectionId = 'dynsection-0';
</script>
<script type="application/ecmascript" xlink:href="svg.min.js"/>
<svg id="graph" class="graph">
<g id="viewport">
<title>C:/Users/STRIDER/source/repos/TaskAPI</title>
<g id="clust1" class="cluster">
<title>clusterdir_da92606663f4ecb03aa66c183f15dac3</title>
<g id="a_clust1"><a xlink:href="dir_da92606663f4ecb03aa66c183f15dac3.html" target="_top" xlink:title="repos">
<polygon fill="#edf0f7" stroke="#7f7f7f" stroke-dasharray="5,2" points="8,-8 8,-80 575,-80 575,-8 8,-8"/>
<text text-anchor="middle" x="291.5" y="-66.5" font-family="Helvetica,sans-Serif" font-size="10.00">repos</text>
</a>
</g>
</g>
<g id="clust2" class="cluster">
<title>clusterdir_0d389cb75f835f13c4349656efb9720b</title>
<g id="a_clust2"><a xlink:href="dir_0d389cb75f835f13c4349656efb9720b.html" target="_top">
<polygon fill="#edf0f7" stroke="#404040" stroke-width="2" points="16,-16 16,-52 567,-52 567,-16 16,-16"/>
</a>
</g>
</g>
<!-- dir_0d389cb75f835f13c4349656efb9720b -->
<g id="node1" class="node">
<title>dir_0d389cb75f835f13c4349656efb9720b</title>
<text text-anchor="middle" x="533" y="-30.5" font-family="Helvetica,sans-Serif" font-size="10.00">TaskAPI</text>
</g>
<!-- dir_37e26ee987ea182e12e18b46f5914743 -->
<g id="node2" class="node">
<title>dir_37e26ee987ea182e12e18b46f5914743</title>
<g id="a_node2"><a xlink:href="dir_37e26ee987ea182e12e18b46f5914743.html" target="_top" xlink:title="Contexts">
<polygon fill="#a2b4d6" stroke="#404040" points="488.5,-44 433.5,-44 433.5,-24 488.5,-24 488.5,-44"/>
<text text-anchor="middle" x="461" y="-30.5" font-family="Helvetica,sans-Serif" font-size="10.00">Contexts</text>
</a>
</g>
</g>
<!-- dir_6b359756660347ab1cfd9220314e80d5 -->
<g id="node3" class="node">
<title>dir_6b359756660347ab1cfd9220314e80d5</title>
<g id="a_node3"><a xlink:href="dir_6b359756660347ab1cfd9220314e80d5.html" target="_top" xlink:title="Controllers">
<polygon fill="#a2b4d6" stroke="#404040" points="415.25,-44 352.75,-44 352.75,-24 415.25,-24 415.25,-44"/>
<text text-anchor="middle" x="384" y="-30.5" font-family="Helvetica,sans-Serif" font-size="10.00">Controllers</text>
</a>
</g>
</g>
<!-- dir_baffdbab90ee35da2b3f3deb3c3f68fe -->
<g id="node4" class="node">
<title>dir_baffdbab90ee35da2b3f3deb3c3f68fe</title>
<g id="a_node4"><a xlink:href="dir_baffdbab90ee35da2b3f3deb3c3f68fe.html" target="_top" xlink:title="Helpers">
<polygon fill="#a2b4d6" stroke="#404040" points="334.5,-44 285.5,-44 285.5,-24 334.5,-24 334.5,-44"/>
<text text-anchor="middle" x="310" y="-30.5" font-family="Helvetica,sans-Serif" font-size="10.00">Helpers</text>
</a>
</g>
</g>
<!-- dir_11cab05ea6acdca8ac23ed1210d71e80 -->
<g id="node5" class="node">
<title>dir_11cab05ea6acdca8ac23ed1210d71e80</title>
<g id="a_node5"><a xlink:href="dir_11cab05ea6acdca8ac23ed1210d71e80.html" target="_top" xlink:title="Migrations">
<polygon fill="#a2b4d6" stroke="#404040" points="267.5,-44 206.5,-44 206.5,-24 267.5,-24 267.5,-44"/>
<text text-anchor="middle" x="237" y="-30.5" font-family="Helvetica,sans-Serif" font-size="10.00">Migrations</text>
</a>
</g>
</g>
<!-- dir_6764143d19c022d6fce72db1054b697f -->
<g id="node6" class="node">
<title>dir_6764143d19c022d6fce72db1054b697f</title>
<g id="a_node6"><a xlink:href="dir_6764143d19c022d6fce72db1054b697f.html" target="_top" xlink:title="Models">
<polygon fill="#a2b4d6" stroke="#404040" points="188.75,-44 141.25,-44 141.25,-24 188.75,-24 188.75,-44"/>
<text text-anchor="middle" x="165" y="-30.5" font-family="Helvetica,sans-Serif" font-size="10.00">Models</text>
</a>
</g>
</g>
<!-- dir_c99a11c4999256a1d284c0c05d093307 -->
<g id="node7" class="node">
<title>dir_c99a11c4999256a1d284c0c05d093307</title>
<g id="a_node7"><a xlink:href="dir_c99a11c4999256a1d284c0c05d093307.html" target="_top" xlink:title="obj">
<polygon fill="#a2b4d6" stroke="#404040" points="123.4,-44 94.6,-44 94.6,-24 123.4,-24 123.4,-44"/>
<text text-anchor="middle" x="109" y="-30.5" font-family="Helvetica,sans-Serif" font-size="10.00">obj</text>
</a>
</g>
</g>
<!-- dir_f1ce8f670bbb011e6ab195f6bcb66615 -->
<g id="node8" class="node">
<title>dir_f1ce8f670bbb011e6ab195f6bcb66615</title>
<g id="a_node8"><a xlink:href="dir_f1ce8f670bbb011e6ab195f6bcb66615.html" target="_top" xlink:title="Services">
<polygon fill="#a2b4d6" stroke="#404040" points="76.38,-44 23.62,-44 23.62,-24 76.38,-24 76.38,-44"/>
<text text-anchor="middle" x="50" y="-30.5" font-family="Helvetica,sans-Serif" font-size="10.00">Services</text>
</a>
</g>
</g>
</g>
</svg>

<g id="navigator" transform="translate(0 0)" fill="#404254">
  <rect fill="#f2f5e9" fill-opacity="0.5" stroke="#606060" stroke-width=".5" x="0" y="0" width="60" height="60"/>
  <use id="zoomplus" xlink:href="#zoomPlus" x="17" y="9" onmousedown="handleZoom(evt,'in')"/>
  <use id="zoomminus" xlink:href="#zoomMin" x="42" y="9" onmousedown="handleZoom(evt,'out')"/>
  <use id="reset" xlink:href="#resetDef" x="30" y="36" onmousedown="handleReset()"/>
   <use id="arrowup" xlink:href="#arrowUp" x="0" y="0" onmousedown="handlePan(0,-1)"/>
  <use id="arrowright" xlink:href="#arrowRight" x="0" y="0" onmousedown="handlePan(1,0)"/>
  <use id="arrowdown" xlink:href="#arrowDown" x="0" y="0" onmousedown="handlePan(0,1)"/>
  <use id="arrowleft" xlink:href="#arrowLeft" x="0" y="0" onmousedown="handlePan(-1,0)"/>
</g>
<svg viewBox="0 0 15 15" width="100%" height="30px" preserveAspectRatio="xMaxYMin meet">
 <g id="arrow_out" transform="scale(0.3 0.3)">
  <a xlink:href="dir_0d389cb75f835f13c4349656efb9720b_dep_org.svg" target="_base">
   <rect id="button" ry="5" rx="5" y="6" x="6" height="38" width="38"
        fill="#f2f5e9" fill-opacity="0.5" stroke="#606060" stroke-width="1.0"/>
   <path id="arrow"
     d="M 11.500037,31.436501 C 11.940474,20.09759 22.043105,11.32322 32.158766,21.979434 L 37.068811,17.246167 C 37.068811,17.246167 37.088388,32 37.088388,32 L 22.160133,31.978069 C 22.160133,31.978069 26.997745,27.140456 26.997745,27.140456 C 18.528582,18.264221 13.291696,25.230495 11.500037,31.436501 z"
     style="fill:#404040;"/>
  </a>
 </g>
</svg>

<style type='text/css'>
<![CDATA[
[data-mouse-over-selected='false'] { opacity: 0.7; }
[data-mouse-over-selected='true']  { opacity: 1.0; }
]]>
</style>
<script type="application/ecmascript"><![CDATA[
document.addEventListener('DOMContentLoaded', (event) => {
  highlightEdges();
  highlightAdjacentNodes();
});
]]></script>
</svg>
