<?xml version="1.0" encoding="UTF-8" standalone="no"?>
<!DOCTYPE svg PUBLIC "-//W3C//DTD SVG 1.1//EN"
 "http://www.w3.org/Graphics/SVG/1.1/DTD/svg11.dtd">
<!-- Generated by graphviz version 9.0.0 (20230911.1827)
 -->
<!-- Title: Graphical Class Hierarchy Pages: 1 -->
<svg width="267pt" height="290pt"
 viewBox="0.00 0.00 267.25 290.00" xmlns="http://www.w3.org/2000/svg" xmlns:xlink="http://www.w3.org/1999/xlink">
<g id="graph0" class="graph" transform="scale(1 1) rotate(0) translate(4 286)">
<title>Graphical Class Hierarchy</title>
<!-- Node0 -->
<g id="Node000000" class="node">
<title>Node0</title>
<g id="a_Node000000"><a xlink:title=" ">
<polygon fill="#e0e0e0" stroke="#999999" points="79.75,-151 0,-151 0,-131 79.75,-131 79.75,-151"/>
<text text-anchor="middle" x="39.88" y="-137.5" font-family="Helvetica,sans-Serif" font-size="10.00">ControllerBase</text>
</a>
</g>
</g>
<!-- Node1 -->
<g id="Node000001" class="node">
<title>Node1</title>
<g id="a_Node000001"><a xlink:href="class_task_a_p_i_1_1_controllers_1_1_ab_web_controller.html" target="_top" xlink:title="Controller responsible for managing ABWeb application logs.">
<polygon fill="white" stroke="#666666" points="256.25,-282 118.75,-282 118.75,-250 256.25,-250 256.25,-282"/>
<text text-anchor="start" x="126.75" y="-268.5" font-family="Helvetica,sans-Serif" font-size="10.00">TaskAPI.Controllers.AbWeb</text>
<text text-anchor="middle" x="187.5" y="-256.5" font-family="Helvetica,sans-Serif" font-size="10.00">Controller</text>
</a>
</g>
</g>
<!-- Node0&#45;&gt;Node1 -->
<g id="edge1_Node000000_Node000001" class="edge">
<title>Node0&#45;&gt;Node1</title>
<g id="a_edge1_Node000000_Node000001"><a xlink:title=" ">
<path fill="none" stroke="#63b8ff" d="M51.38,-161.5C63.88,-183.98 86.75,-219.68 115.75,-241 120.16,-244.24 125.02,-247.09 130.08,-249.59"/>
<polygon fill="#63b8ff" stroke="#63b8ff" points="54.48,-159.87 46.67,-152.7 48.31,-163.17 54.48,-159.87"/>
</a>
</g>
</g>
<!-- Node2 -->
<g id="Node000002" class="node">
<title>Node2</title>
<g id="a_Node000002"><a xlink:href="class_task_a_p_i_1_1_controllers_1_1_ainslie_api_controller.html" target="_top" xlink:title="Handles log trimming and email notifications for Ainslie API.">
<polygon fill="white" stroke="#666666" points="254.75,-232 120.25,-232 120.25,-200 254.75,-200 254.75,-232"/>
<text text-anchor="start" x="128.25" y="-218.5" font-family="Helvetica,sans-Serif" font-size="10.00">TaskAPI.Controllers.Ainslie</text>
<text text-anchor="middle" x="187.5" y="-206.5" font-family="Helvetica,sans-Serif" font-size="10.00">ApiController</text>
</a>
</g>
</g>
<!-- Node0&#45;&gt;Node2 -->
<g id="edge2_Node000000_Node000002" class="edge">
<title>Node0&#45;&gt;Node2</title>
<g id="a_edge2_Node000000_Node000002"><a xlink:title=" ">
<path fill="none" stroke="#63b8ff" d="M63.43,-158.22C77.84,-168.67 97.24,-181.73 115.75,-191 121.92,-194.09 128.57,-196.97 135.24,-199.6"/>
<polygon fill="#63b8ff" stroke="#63b8ff" points="65.66,-155.52 55.54,-152.39 61.5,-161.15 65.66,-155.52"/>
</a>
</g>
</g>
<!-- Node3 -->
<g id="Node000003" class="node">
<title>Node3</title>
<g id="a_Node000003"><a xlink:href="class_task_a_p_i_1_1_controllers_1_1_internal_a_p_i_controller.html" target="_top" xlink:title="Manages log trimming and email notifications for Internal API.">
<polygon fill="white" stroke="#666666" points="255.88,-182 119.12,-182 119.12,-150 255.88,-150 255.88,-182"/>
<text text-anchor="start" x="127.12" y="-168.5" font-family="Helvetica,sans-Serif" font-size="10.00">TaskAPI.Controllers.Internal</text>
<text text-anchor="middle" x="187.5" y="-156.5" font-family="Helvetica,sans-Serif" font-size="10.00">APIController</text>
</a>
</g>
</g>
<!-- Node0&#45;&gt;Node3 -->
<g id="edge3_Node000000_Node000003" class="edge">
<title>Node0&#45;&gt;Node3</title>
<g id="a_edge3_Node000000_Node000003"><a xlink:title=" ">
<path fill="none" stroke="#63b8ff" d="M91.22,-149.64C100.09,-151.16 109.44,-152.77 118.69,-154.36"/>
<polygon fill="#63b8ff" stroke="#63b8ff" points="91.84,-146.2 81.39,-147.96 90.66,-153.1 91.84,-146.2"/>
</a>
</g>
</g>
<!-- Node4 -->
<g id="Node000004" class="node">
<title>Node4</title>
<g id="a_Node000004"><a xlink:href="class_task_a_p_i_1_1_controllers_1_1_logs_controller.html" target="_top" xlink:title="Controller for managing logs in TaskAPI.">
<polygon fill="white" stroke="#666666" points="250.62,-132 124.38,-132 124.38,-100 250.62,-100 250.62,-132"/>
<text text-anchor="start" x="132.38" y="-118.5" font-family="Helvetica,sans-Serif" font-size="10.00">TaskAPI.Controllers.Logs</text>
<text text-anchor="middle" x="187.5" y="-106.5" font-family="Helvetica,sans-Serif" font-size="10.00">Controller</text>
</a>
</g>
</g>
<!-- Node0&#45;&gt;Node4 -->
<g id="edge4_Node000000_Node000004" class="edge">
<title>Node0&#45;&gt;Node4</title>
<g id="a_edge4_Node000000_Node000004"><a xlink:title=" ">
<path fill="none" stroke="#63b8ff" d="M91.09,-132.38C101.7,-130.56 113.02,-128.62 124.02,-126.73"/>
<polygon fill="#63b8ff" stroke="#63b8ff" points="90.66,-128.9 81.39,-134.04 91.84,-135.8 90.66,-128.9"/>
</a>
</g>
</g>
<!-- Node5 -->
<g id="Node000005" class="node">
<title>Node5</title>
<g id="a_Node000005"><a xlink:href="class_task_a_p_i_1_1_controllers_1_1_priceapp_controller.html" target="_top" xlink:title=" ">
<polygon fill="white" stroke="#666666" points="259.25,-82 115.75,-82 115.75,-50 259.25,-50 259.25,-82"/>
<text text-anchor="start" x="123.75" y="-68.5" font-family="Helvetica,sans-Serif" font-size="10.00">TaskAPI.Controllers.Priceapp</text>
<text text-anchor="middle" x="187.5" y="-56.5" font-family="Helvetica,sans-Serif" font-size="10.00">Controller</text>
</a>
</g>
</g>
<!-- Node0&#45;&gt;Node5 -->
<g id="edge5_Node000000_Node000005" class="edge">
<title>Node0&#45;&gt;Node5</title>
<g id="a_edge5_Node000000_Node000005"><a xlink:title=" ">
<path fill="none" stroke="#63b8ff" d="M63.43,-123.78C77.84,-113.33 97.24,-100.27 115.75,-91 121.92,-87.91 128.57,-85.03 135.24,-82.4"/>
<polygon fill="#63b8ff" stroke="#63b8ff" points="61.5,-120.85 55.54,-129.61 65.66,-126.48 61.5,-120.85"/>
</a>
</g>
</g>
<!-- Node6 -->
<g id="Node000006" class="node">
<title>Node6</title>
<g id="a_Node000006"><a xlink:href="class_task_a_p_i_1_1_controllers_1_1_spot_controller.html" target="_top" xlink:title="Controller for managing operations related to spot synchronization.">
<polygon fill="white" stroke="#666666" points="250.25,-32 124.75,-32 124.75,0 250.25,0 250.25,-32"/>
<text text-anchor="start" x="132.75" y="-18.5" font-family="Helvetica,sans-Serif" font-size="10.00">TaskAPI.Controllers.Spot</text>
<text text-anchor="middle" x="187.5" y="-6.5" font-family="Helvetica,sans-Serif" font-size="10.00">Controller</text>
</a>
</g>
</g>
<!-- Node0&#45;&gt;Node6 -->
<g id="edge6_Node000000_Node000006" class="edge">
<title>Node0&#45;&gt;Node6</title>
<g id="a_edge6_Node000000_Node000006"><a xlink:title=" ">
<path fill="none" stroke="#63b8ff" d="M51.38,-120.5C63.88,-98.02 86.75,-62.32 115.75,-41 120.16,-37.76 125.02,-34.91 130.08,-32.41"/>
<polygon fill="#63b8ff" stroke="#63b8ff" points="48.31,-118.83 46.67,-129.3 54.48,-122.13 48.31,-118.83"/>
</a>
</g>
</g>
</g>
</svg>
