<?xml version="1.0" encoding="UTF-8" standalone="no"?>
<!DOCTYPE svg PUBLIC "-//W3C//DTD SVG 1.1//EN"
 "http://www.w3.org/Graphics/SVG/1.1/DTD/svg11.dtd">
<!-- Generated by graphviz version 9.0.0 (20230911.1827)
 -->
<!-- Title: Graphical Class Hierarchy Pages: 1 -->
<svg width="274pt" height="78pt"
 viewBox="0.00 0.00 274.00 78.00" xmlns="http://www.w3.org/2000/svg" xmlns:xlink="http://www.w3.org/1999/xlink">
<g id="graph0" class="graph" transform="scale(1 1) rotate(0) translate(4 74)">
<title>Graphical Class Hierarchy</title>
<!-- Node0 -->
<g id="Node000000" class="node">
<title>Node0</title>
<g id="a_Node000000"><a xlink:title=" ">
<polygon fill="#e0e0e0" stroke="#999999" points="61.75,-42 0,-42 0,-22 61.75,-22 61.75,-42"/>
<text text-anchor="middle" x="30.88" y="-28.5" font-family="Helvetica,sans-Serif" font-size="10.00">DbContext</text>
</a>
</g>
</g>
<!-- Node1 -->
<g id="Node000001" class="node">
<title>Node1</title>
<g id="a_Node000001"><a xlink:href="class_task_a_p_i_1_1_contexts_1_1_priceapp_context.html" target="_top" xlink:title=" ">
<polygon fill="white" stroke="#666666" points="249.88,-70 113.88,-70 113.88,-38 249.88,-38 249.88,-70"/>
<text text-anchor="start" x="121.88" y="-56.5" font-family="Helvetica,sans-Serif" font-size="10.00">TaskAPI.Contexts.Priceapp</text>
<text text-anchor="middle" x="181.88" y="-44.5" font-family="Helvetica,sans-Serif" font-size="10.00">Context</text>
</a>
</g>
</g>
<!-- Node0&#45;&gt;Node1 -->
<g id="edge7_Node000000_Node000001" class="edge">
<title>Node0&#45;&gt;Node1</title>
<g id="a_edge7_Node000000_Node000001"><a xlink:title=" ">
<path fill="none" stroke="#63b8ff" d="M73.05,-38.08C85.59,-39.93 99.73,-42.02 113.53,-44.06"/>
<polygon fill="#63b8ff" stroke="#63b8ff" points="73.93,-34.67 63.52,-36.67 72.91,-41.6 73.93,-34.67"/>
</a>
</g>
</g>
<!-- Node2 -->
<g id="Node000002" class="node">
<title>Node2</title>
<g id="a_Node000002"><a xlink:href="class_task_a_p_i_1_1_contexts_1_1_task_a_p_i_context.html" target="_top" xlink:title=" ">
<polygon fill="white" stroke="#666666" points="266,-20 97.75,-20 97.75,0 266,0 266,-20"/>
<text text-anchor="middle" x="181.88" y="-6.5" font-family="Helvetica,sans-Serif" font-size="10.00">TaskAPI.Contexts.TaskAPIContext</text>
</a>
</g>
</g>
<!-- Node0&#45;&gt;Node2 -->
<g id="edge8_Node000000_Node000002" class="edge">
<title>Node0&#45;&gt;Node2</title>
<g id="a_edge8_Node000000_Node000002"><a xlink:title=" ">
<path fill="none" stroke="#63b8ff" d="M73.33,-25.88C84.68,-24.2 97.31,-22.34 109.81,-20.49"/>
<polygon fill="#63b8ff" stroke="#63b8ff" points="72.91,-22.4 63.52,-27.33 73.93,-29.33 72.91,-22.4"/>
</a>
</g>
</g>
</g>
</svg>
