<?xml version="1.0" encoding="UTF-8" standalone="no"?>
<!DOCTYPE svg PUBLIC "-//W3C//DTD SVG 1.1//EN"
 "http://www.w3.org/Graphics/SVG/1.1/DTD/svg11.dtd">
<!-- Generated by graphviz version 9.0.0 (20230911.1827)
 -->
<!-- Title: Graphical Class Hierarchy Pages: 1 -->
<svg width="306pt" height="116pt"
 viewBox="0.00 0.00 306.25 116.00" xmlns="http://www.w3.org/2000/svg" xmlns:xlink="http://www.w3.org/1999/xlink">
<g id="graph0" class="graph" transform="scale(1 1) rotate(0) translate(4 112)">
<title>Graphical Class Hierarchy</title>
<!-- Node0 -->
<g id="Node000000" class="node">
<title>Node0</title>
<g id="a_Node000000"><a xlink:title=" ">
<polygon fill="#e0e0e0" stroke="#999999" points="55.75,-58 0,-58 0,-38 55.75,-38 55.75,-58"/>
<text text-anchor="middle" x="27.88" y="-44.5" font-family="Helvetica,sans-Serif" font-size="10.00">Migration</text>
</a>
</g>
</g>
<!-- Node1 -->
<g id="Node000001" class="node">
<title>Node1</title>
<g id="a_Node000001"><a xlink:href="class_task_a_p_i_1_1_migrations_1_1_add_notification_minimum_frequency.html" target="_top" xlink:title=" ">
<polygon fill="white" stroke="#666666" points="279.5,-108 110.5,-108 110.5,-76 279.5,-76 279.5,-108"/>
<text text-anchor="start" x="118.5" y="-94.5" font-family="Helvetica,sans-Serif" font-size="10.00">TaskAPI.Migrations.AddNotification</text>
<text text-anchor="middle" x="195" y="-82.5" font-family="Helvetica,sans-Serif" font-size="10.00">MinimumFrequency</text>
</a>
</g>
</g>
<!-- Node0&#45;&gt;Node1 -->
<g id="edge11_Node000000_Node000001" class="edge">
<title>Node0&#45;&gt;Node1</title>
<g id="a_edge11_Node000000_Node000001"><a xlink:title=" ">
<path fill="none" stroke="#63b8ff" d="M66.83,-59.83C75.02,-62.28 83.66,-64.79 91.75,-67 102.33,-69.89 113.56,-72.8 124.57,-75.56"/>
<polygon fill="#63b8ff" stroke="#63b8ff" points="68.05,-56.54 57.47,-56.99 66.02,-63.24 68.05,-56.54"/>
</a>
</g>
</g>
<!-- Node2 -->
<g id="Node000002" class="node">
<title>Node2</title>
<g id="a_Node000002"><a xlink:href="class_task_a_p_i_1_1_migrations_1_1initial.html" target="_top" xlink:title=" ">
<polygon fill="white" stroke="#666666" points="258.12,-58 131.88,-58 131.88,-38 258.12,-38 258.12,-58"/>
<text text-anchor="middle" x="195" y="-44.5" font-family="Helvetica,sans-Serif" font-size="10.00">TaskAPI.Migrations.initial</text>
</a>
</g>
</g>
<!-- Node0&#45;&gt;Node2 -->
<g id="edge12_Node000000_Node000002" class="edge">
<title>Node0&#45;&gt;Node2</title>
<g id="a_edge12_Node000000_Node000002"><a xlink:title=" ">
<path fill="none" stroke="#63b8ff" d="M67.41,-48C86.53,-48 110.09,-48 131.69,-48"/>
<polygon fill="#63b8ff" stroke="#63b8ff" points="67.66,-44.5 57.66,-48 67.66,-51.5 67.66,-44.5"/>
</a>
</g>
</g>
<!-- Node3 -->
<g id="Node000003" class="node">
<title>Node3</title>
<g id="a_Node000003"><a xlink:href="class_task_a_p_i_1_1_migrations_1_1renamealertnotifications.html" target="_top" xlink:title=" ">
<polygon fill="white" stroke="#666666" points="298.25,-20 91.75,-20 91.75,0 298.25,0 298.25,-20"/>
<text text-anchor="middle" x="195" y="-6.5" font-family="Helvetica,sans-Serif" font-size="10.00">TaskAPI.Migrations.renamealertnotifications</text>
</a>
</g>
</g>
<!-- Node0&#45;&gt;Node3 -->
<g id="edge13_Node000000_Node000003" class="edge">
<title>Node0&#45;&gt;Node3</title>
<g id="a_edge13_Node000000_Node000003"><a xlink:title=" ">
<path fill="none" stroke="#63b8ff" d="M67.25,-35.68C75.3,-33.3 83.77,-30.94 91.75,-29 104.56,-25.88 118.37,-23 131.58,-20.47"/>
<polygon fill="#63b8ff" stroke="#63b8ff" points="66.24,-32.32 57.69,-38.58 68.27,-39.02 66.24,-32.32"/>
</a>
</g>
</g>
</g>
</svg>
